<?xml version="1.0" encoding="UTF-8"?>
<svg width="100px" height="100px" viewBox="0 0 100 100" version="1.1" xmlns="http://www.w3.org/2000/svg" xmlns:xlink="http://www.w3.org/1999/xlink">
    <!-- Generator: Sketch 42 (36781) - http://www.bohemiancoding.com/sketch -->
    <title>team</title>
    <desc>Created with Sketch.</desc>
    <defs></defs>
    <g id="Page-1" stroke="none" stroke-width="1" fill="none" fill-rule="evenodd" fill-opacity="0.16">
        <g id="team" fill-rule="nonzero" fill="#000000">
            <g id="account-circle" transform="translate(29.000000, 8.000000)">
                <path d="M20.5144625,35.2848756 C15.3858469,35.2848756 10.8521507,32.6590244 8.20578501,28.7202475 C8.2673284,24.617355 16.41157,22.3607642 20.5144625,22.3607642 C24.617355,22.3607642 32.7615967,24.617355 32.8231401,28.7202475 C30.1767744,32.6590244 25.6430782,35.2848756 20.5144625,35.2848756 L20.5144625,35.2848756 Z M20.5144625,6.15433876 C23.91341,6.15433876 26.6688013,8.90973008 26.6688013,12.3086775 C26.6688013,15.707625 23.91341,18.4630163 20.5144625,18.4630163 C17.1155151,18.4630163 14.3601238,15.707625 14.3601238,12.3086775 C14.3601238,8.90973008 17.1155151,6.15433876 20.5144625,6.15433876 L20.5144625,6.15433876 Z M20.5144625,0 C9.18463772,-4.55512573e-15 9.11025146e-16,9.18463772 0,20.5144625 C-2.73307544e-15,25.9552363 2.16133895,31.1731701 6.00854696,35.0203781 C9.85575497,38.8675861 15.0736888,41.0289251 20.5144625,41.0289251 C25.9552363,41.0289251 31.1731701,38.8675861 35.0203781,35.0203781 C38.8675861,31.1731701 41.0289251,25.9552363 41.0289251,20.5144625 C41.0289251,9.16996475 31.7974169,0 20.5144625,0 Z" id="Shape"></path>
            </g>
            <g id="account-circle-copy" transform="translate(3.000000, 51.000000)">
                <path d="M20.5144625,35.2848756 C15.3858469,35.2848756 10.8521507,32.6590244 8.20578501,28.7202475 C8.2673284,24.617355 16.41157,22.3607642 20.5144625,22.3607642 C24.617355,22.3607642 32.7615967,24.617355 32.8231401,28.7202475 C30.1767744,32.6590244 25.6430782,35.2848756 20.5144625,35.2848756 L20.5144625,35.2848756 Z M20.5144625,6.15433876 C23.91341,6.15433876 26.6688013,8.90973008 26.6688013,12.3086775 C26.6688013,15.707625 23.91341,18.4630163 20.5144625,18.4630163 C17.1155151,18.4630163 14.3601238,15.707625 14.3601238,12.3086775 C14.3601238,8.90973008 17.1155151,6.15433876 20.5144625,6.15433876 L20.5144625,6.15433876 Z M20.5144625,0 C9.18463772,-4.55512573e-15 9.11025146e-16,9.18463772 0,20.5144625 C-2.73307544e-15,25.9552363 2.16133895,31.1731701 6.00854696,35.0203781 C9.85575497,38.8675861 15.0736888,41.0289251 20.5144625,41.0289251 C25.9552363,41.0289251 31.1731701,38.8675861 35.0203781,35.0203781 C38.8675861,31.1731701 41.0289251,25.9552363 41.0289251,20.5144625 C41.0289251,9.16996475 31.7974169,0 20.5144625,0 Z" id="Shape"></path>
            </g>
            <g id="account-circle-copy-2" transform="translate(55.000000, 51.000000)">
                <path d="M20.5144625,35.2848756 C15.3858469,35.2848756 10.8521507,32.6590244 8.20578501,28.7202475 C8.2673284,24.617355 16.41157,22.3607642 20.5144625,22.3607642 C24.617355,22.3607642 32.7615967,24.617355 32.8231401,28.7202475 C30.1767744,32.6590244 25.6430782,35.2848756 20.5144625,35.2848756 L20.5144625,35.2848756 Z M20.5144625,6.15433876 C23.91341,6.15433876 26.6688013,8.90973008 26.6688013,12.3086775 C26.6688013,15.707625 23.91341,18.4630163 20.5144625,18.4630163 C17.1155151,18.4630163 14.3601238,15.707625 14.3601238,12.3086775 C14.3601238,8.90973008 17.1155151,6.15433876 20.5144625,6.15433876 L20.5144625,6.15433876 Z M20.5144625,0 C9.18463772,-4.55512573e-15 9.11025146e-16,9.18463772 0,20.5144625 C-2.73307544e-15,25.9552363 2.16133895,31.1731701 6.00854696,35.0203781 C9.85575497,38.8675861 15.0736888,41.0289251 20.5144625,41.0289251 C25.9552363,41.0289251 31.1731701,38.8675861 35.0203781,35.0203781 C38.8675861,31.1731701 41.0289251,25.9552363 41.0289251,20.5144625 C41.0289251,9.16996475 31.7974169,0 20.5144625,0 Z" id="Shape"></path>
            </g>
        </g>
    </g>
</svg>