<?xml version="1.0" encoding="UTF-8" standalone="no"?>
<!DOCTYPE svg PUBLIC "-//W3C//DTD SVG 1.1//EN"
 "http://www.w3.org/Graphics/SVG/1.1/DTD/svg11.dtd">
<!-- Generated by graphviz version 2.26.3 (20100126.1600)
 -->
<!-- Title: controllers_diagram Pages: 1 -->
<svg width="789pt" height="649pt"
 viewBox="0.00 0.00 789.00 649.00" xmlns="http://www.w3.org/2000/svg" xmlns:xlink="http://www.w3.org/1999/xlink">
<g id="graph1" class="graph" transform="scale(1 1) rotate(0) translate(4 645)">
<title>controllers_diagram</title>
<polygon fill="none" stroke="none" points="-4,5 -4,-645 786,-645 786,5 -4,5"/>
<!-- _diagram_info -->
<g id="node1" class="node"><title>_diagram_info</title>
<text text-anchor="start" x="493" y="-430.3" font-family="Times Roman,serif" font-size="13.00">Controllers diagram</text>
<text text-anchor="start" x="493" y="-413.3" font-family="Times Roman,serif" font-size="13.00">Date: Sep 30 2016 &#45; 12:33</text>
<text text-anchor="start" x="493" y="-396.3" font-family="Times Roman,serif" font-size="13.00">Migration version: 20160910152705</text>
<text text-anchor="start" x="493" y="-379.3" font-family="Times Roman,serif" font-size="13.00">Generated by RailRoady 1.5.1</text>
<text text-anchor="start" x="493" y="-362.3" font-family="Times Roman,serif" font-size="13.00">http://railroady.prestonlee.com</text>
</g>
<!-- Api::V1::SessionsController -->
<g id="node2" class="node"><title>Api::V1::SessionsController</title>
<polyline fill="none" stroke="black" points="255,-353.5 434,-353.5 "/>
<path fill="none" stroke="black" d="M434,-353.5C440,-353.5 446,-359.5 446,-365.5"/>
<polyline fill="none" stroke="black" points="446,-365.5 446,-463.5 "/>
<path fill="none" stroke="black" d="M446,-463.5C446,-469.5 440,-475.5 434,-475.5"/>
<polyline fill="none" stroke="black" points="434,-475.5 255,-475.5 "/>
<path fill="none" stroke="black" d="M255,-475.5C249,-475.5 243,-469.5 243,-463.5"/>
<polyline fill="none" stroke="black" points="243,-463.5 243,-365.5 "/>
<path fill="none" stroke="black" d="M243,-365.5C243,-359.5 249,-353.5 255,-353.5"/>
<text text-anchor="middle" x="344.5" y="-458.9" font-family="Times Roman,serif" font-size="14.00">Api::V1::SessionsController</text>
<polyline fill="none" stroke="black" points="243,-449.5 446,-449.5 "/>
<text text-anchor="start" x="251" y="-432.9" font-family="Times Roman,serif" font-size="14.00">create</text>
<text text-anchor="start" x="251" y="-414.9" font-family="Times Roman,serif" font-size="14.00">destroy</text>
<polyline fill="none" stroke="black" points="243,-405.5 446,-405.5 "/>
<text text-anchor="start" x="251" y="-388.9" font-family="Times Roman,serif" font-size="14.00">configure_sign_in_params</text>
<polyline fill="none" stroke="black" points="243,-379.5 446,-379.5 "/>
<text text-anchor="start" x="251" y="-362.9" font-family="Times Roman,serif" font-size="14.00">_layout</text>
</g>
<!-- Api::V1::RegistrationsController -->
<g id="node3" class="node"><title>Api::V1::RegistrationsController</title>
<polyline fill="none" stroke="black" points="453,-1.5 684,-1.5 "/>
<path fill="none" stroke="black" d="M684,-1.5C690,-1.5 696,-7.5 696,-13.5"/>
<polyline fill="none" stroke="black" points="696,-13.5 696,-147.5 "/>
<path fill="none" stroke="black" d="M696,-147.5C696,-153.5 690,-159.5 684,-159.5"/>
<polyline fill="none" stroke="black" points="684,-159.5 453,-159.5 "/>
<path fill="none" stroke="black" d="M453,-159.5C447,-159.5 441,-153.5 441,-147.5"/>
<polyline fill="none" stroke="black" points="441,-147.5 441,-13.5 "/>
<path fill="none" stroke="black" d="M441,-13.5C441,-7.5 447,-1.5 453,-1.5"/>
<text text-anchor="middle" x="568.5" y="-142.9" font-family="Times Roman,serif" font-size="14.00">Api::V1::RegistrationsController</text>
<polyline fill="none" stroke="black" points="441,-133.5 696,-133.5 "/>
<text text-anchor="start" x="449" y="-116.9" font-family="Times Roman,serif" font-size="14.00">create</text>
<text text-anchor="start" x="449" y="-98.9" font-family="Times Roman,serif" font-size="14.00">destroy</text>
<text text-anchor="start" x="449" y="-80.9" font-family="Times Roman,serif" font-size="14.00">update</text>
<polyline fill="none" stroke="black" points="441,-71.5 696,-71.5 "/>
<text text-anchor="start" x="449" y="-54.9" font-family="Times Roman,serif" font-size="14.00">configure_account_update_params</text>
<text text-anchor="start" x="449" y="-36.9" font-family="Times Roman,serif" font-size="14.00">configure_sign_up_params</text>
<polyline fill="none" stroke="black" points="441,-27.5 696,-27.5 "/>
<text text-anchor="start" x="449" y="-10.9" font-family="Times Roman,serif" font-size="14.00">_layout</text>
</g>
<!-- Api::V1::BaseApiController -->
<g id="node4" class="node"><title>Api::V1::BaseApiController</title>
<polyline fill="none" stroke="black" points="145,-1.5 393,-1.5 "/>
<path fill="none" stroke="black" d="M393,-1.5C399,-1.5 405,-7.5 405,-13.5"/>
<polyline fill="none" stroke="black" points="405,-13.5 405,-289.5 "/>
<path fill="none" stroke="black" d="M405,-289.5C405,-295.5 399,-301.5 393,-301.5"/>
<polyline fill="none" stroke="black" points="393,-301.5 145,-301.5 "/>
<path fill="none" stroke="black" d="M145,-301.5C139,-301.5 133,-295.5 133,-289.5"/>
<polyline fill="none" stroke="black" points="133,-289.5 133,-13.5 "/>
<path fill="none" stroke="black" d="M133,-13.5C133,-7.5 139,-1.5 145,-1.5"/>
<text text-anchor="middle" x="269" y="-284.9" font-family="Times Roman,serif" font-size="14.00">Api::V1::BaseApiController</text>
<polyline fill="none" stroke="black" points="133,-275.5 405,-275.5 "/>
<text text-anchor="start" x="141" y="-258.9" font-family="Times Roman,serif" font-size="14.00">me</text>
<text text-anchor="start" x="141" y="-240.9" font-family="Times Roman,serif" font-size="14.00">options</text>
<text text-anchor="start" x="141" y="-222.9" font-family="Times Roman,serif" font-size="14.00">version</text>
<polyline fill="none" stroke="black" points="133,-213.5 405,-213.5 "/>
<polyline fill="none" stroke="black" points="133,-189.5 405,-189.5 "/>
<text text-anchor="start" x="141" y="-172.9" font-family="Times Roman,serif" font-size="14.00">_layout</text>
<text text-anchor="start" x="141" y="-154.9" font-family="Times Roman,serif" font-size="14.00">authenticate_from_token!</text>
<text text-anchor="start" x="141" y="-136.9" font-family="Times Roman,serif" font-size="14.00">authenticate_user!</text>
<text text-anchor="start" x="141" y="-118.9" font-family="Times Roman,serif" font-size="14.00">get_params</text>
<text text-anchor="start" x="141" y="-100.9" font-family="Times Roman,serif" font-size="14.00">remove_empty_params_and_headers</text>
<text text-anchor="start" x="141" y="-82.9" font-family="Times Roman,serif" font-size="14.00">render_user</text>
<text text-anchor="start" x="141" y="-64.9" font-family="Times Roman,serif" font-size="14.00">set_access_headers</text>
<text text-anchor="start" x="141" y="-46.9" font-family="Times Roman,serif" font-size="14.00">set_custom_response_headers</text>
<text text-anchor="start" x="141" y="-28.9" font-family="Times Roman,serif" font-size="14.00">verify_payload!</text>
<text text-anchor="start" x="141" y="-10.9" font-family="Times Roman,serif" font-size="14.00">verify_signature</text>
</g>
<!-- Api::V1::GraphqlController -->
<g id="node5" class="node"><title>Api::V1::GraphqlController</title>
<polyline fill="none" stroke="black" points="13,-441.5 188,-441.5 "/>
<path fill="none" stroke="black" d="M188,-441.5C194,-441.5 200,-447.5 200,-453.5"/>
<polyline fill="none" stroke="black" points="200,-453.5 200,-549.5 "/>
<path fill="none" stroke="black" d="M200,-549.5C200,-555.5 194,-561.5 188,-561.5"/>
<polyline fill="none" stroke="black" points="188,-561.5 13,-561.5 "/>
<path fill="none" stroke="black" d="M13,-561.5C7,-561.5 1,-555.5 1,-549.5"/>
<polyline fill="none" stroke="black" points="1,-549.5 1,-453.5 "/>
<path fill="none" stroke="black" d="M1,-453.5C1,-447.5 7,-441.5 13,-441.5"/>
<text text-anchor="middle" x="100.5" y="-544.9" font-family="Times Roman,serif" font-size="14.00">Api::V1::GraphqlController</text>
<polyline fill="none" stroke="black" points="1,-535.5 200,-535.5 "/>
<text text-anchor="start" x="9" y="-518.9" font-family="Times Roman,serif" font-size="14.00">create</text>
<polyline fill="none" stroke="black" points="1,-509.5 200,-509.5 "/>
<polyline fill="none" stroke="black" points="1,-485.5 200,-485.5 "/>
<text text-anchor="start" x="9" y="-468.9" font-family="Times Roman,serif" font-size="14.00">_layout</text>
<text text-anchor="start" x="9" y="-450.9" font-family="Times Roman,serif" font-size="14.00">load_context_team</text>
</g>
<!-- Api::V1::OmniauthCallbacksController -->
<g id="node6" class="node"><title>Api::V1::OmniauthCallbacksController</title>
<polyline fill="none" stroke="black" points="453,-199.5 706,-199.5 "/>
<path fill="none" stroke="black" d="M706,-199.5C712,-199.5 718,-205.5 718,-211.5"/>
<polyline fill="none" stroke="black" points="718,-211.5 718,-291.5 "/>
<path fill="none" stroke="black" d="M718,-291.5C718,-297.5 712,-303.5 706,-303.5"/>
<polyline fill="none" stroke="black" points="706,-303.5 453,-303.5 "/>
<path fill="none" stroke="black" d="M453,-303.5C447,-303.5 441,-297.5 441,-291.5"/>
<polyline fill="none" stroke="black" points="441,-291.5 441,-211.5 "/>
<path fill="none" stroke="black" d="M441,-211.5C441,-205.5 447,-199.5 453,-199.5"/>
<text text-anchor="middle" x="579.5" y="-286.9" font-family="Times Roman,serif" font-size="14.00">Api::V1::OmniauthCallbacksController</text>
<polyline fill="none" stroke="black" points="441,-277.5 718,-277.5 "/>
<text text-anchor="start" x="449" y="-260.9" font-family="Times Roman,serif" font-size="14.00">logout</text>
<polyline fill="none" stroke="black" points="441,-251.5 718,-251.5 "/>
<text text-anchor="start" x="449" y="-234.9" font-family="Times Roman,serif" font-size="14.00">start_session_and_redirect</text>
<polyline fill="none" stroke="black" points="441,-225.5 718,-225.5 "/>
<text text-anchor="start" x="449" y="-208.9" font-family="Times Roman,serif" font-size="14.00">_layout</text>
</g>
<!-- ApplicationController -->
<g id="node7" class="node"><title>ApplicationController</title>
<polyline fill="none" stroke="black" points="629,-485.5 768,-485.5 "/>
<path fill="none" stroke="black" d="M768,-485.5C774,-485.5 780,-491.5 780,-497.5"/>
<polyline fill="none" stroke="black" points="780,-497.5 780,-627.5 "/>
<path fill="none" stroke="black" d="M780,-627.5C780,-633.5 774,-639.5 768,-639.5"/>
<polyline fill="none" stroke="black" points="768,-639.5 629,-639.5 "/>
<path fill="none" stroke="black" d="M629,-639.5C623,-639.5 617,-633.5 617,-627.5"/>
<polyline fill="none" stroke="black" points="617,-627.5 617,-497.5 "/>
<path fill="none" stroke="black" d="M617,-497.5C617,-491.5 623,-485.5 629,-485.5"/>
<text text-anchor="middle" x="698.5" y="-622.9" font-family="Times Roman,serif" font-size="14.00">ApplicationController</text>
<polyline fill="none" stroke="black" points="617,-613.5 780,-613.5 "/>
<polyline fill="none" stroke="black" points="617,-589.5 780,-589.5 "/>
<polyline fill="none" stroke="black" points="617,-565.5 780,-565.5 "/>
<text text-anchor="start" x="625" y="-548.9" font-family="Times Roman,serif" font-size="14.00">_layout</text>
<text text-anchor="start" x="625" y="-530.9" font-family="Times Roman,serif" font-size="14.00">render_error</text>
<text text-anchor="start" x="625" y="-512.9" font-family="Times Roman,serif" font-size="14.00">render_success</text>
<text text-anchor="start" x="625" y="-494.9" font-family="Times Roman,serif" font-size="14.00">render_unauthorized</text>
</g>
</g>
</svg>
