<?xml version="1.0" encoding="UTF-8" standalone="no"?>
<!DOCTYPE svg PUBLIC "-//W3C//DTD SVG 1.1//EN"
 "http://www.w3.org/Graphics/SVG/1.1/DTD/svg11.dtd">
<!-- Generated by graphviz version 2.36.0 (20140111.2315)
 -->
<!-- Title: controllers_diagram Pages: 1 -->
<svg width="977pt" height="815pt"
 viewBox="0.00 0.00 977.00 815.00" xmlns="http://www.w3.org/2000/svg" xmlns:xlink="http://www.w3.org/1999/xlink">
<g id="graph0" class="graph" transform="scale(1 1) rotate(0) translate(4 811)">
<title>controllers_diagram</title>
<polygon fill="none" stroke="none" points="-4,4 -4,-811 973,-811 973,4 -4,4"/>
<!-- _diagram_info -->
<g id="node1" class="node"><title>_diagram_info</title>
<text text-anchor="start" x="77" y="-109.6" font-family="Times,serif" font-size="13.00">Controllers diagram</text>
<text text-anchor="start" x="77" y="-95.6" font-family="Times,serif" font-size="13.00">Date: Aug 08 2018 &#45; 20:16</text>
<text text-anchor="start" x="77" y="-81.6" font-family="Times,serif" font-size="13.00">Migration version: 20180802003235</text>
<text text-anchor="start" x="77" y="-67.6" font-family="Times,serif" font-size="13.00">Generated by RailRoady 1.5.2</text>
<text text-anchor="start" x="77" y="-53.6" font-family="Times,serif" font-size="13.00">http://railroady.prestonlee.com</text>
</g>
<!-- TestController -->
<g id="node2" class="node"><title>TestController</title>
<path fill="none" stroke="black" d="M242,-161.5C242,-161.5 496,-161.5 496,-161.5 502,-161.5 508,-167.5 508,-173.5 508,-173.5 508,-481.5 508,-481.5 508,-487.5 502,-493.5 496,-493.5 496,-493.5 242,-493.5 242,-493.5 236,-493.5 230,-487.5 230,-481.5 230,-481.5 230,-173.5 230,-173.5 230,-167.5 236,-161.5 242,-161.5"/>
<text text-anchor="middle" x="369" y="-478.3" font-family="Times,serif" font-size="14.00">TestController</text>
<polyline fill="none" stroke="black" points="230,-470.5 508,-470.5 "/>
<text text-anchor="start" x="238" y="-455.3" font-family="Times,serif" font-size="14.00">confirm_user</text>
<text text-anchor="start" x="238" y="-440.3" font-family="Times,serif" font-size="14.00">create_team_project_and_two_users</text>
<text text-anchor="start" x="238" y="-425.3" font-family="Times,serif" font-size="14.00">get</text>
<text text-anchor="start" x="238" y="-410.3" font-family="Times,serif" font-size="14.00">make_team_public</text>
<text text-anchor="start" x="238" y="-395.3" font-family="Times,serif" font-size="14.00">media_status</text>
<text text-anchor="start" x="238" y="-380.3" font-family="Times,serif" font-size="14.00">new_api_key</text>
<text text-anchor="start" x="238" y="-365.3" font-family="Times,serif" font-size="14.00">new_claim</text>
<text text-anchor="start" x="238" y="-350.3" font-family="Times,serif" font-size="14.00">new_link</text>
<text text-anchor="start" x="238" y="-335.3" font-family="Times,serif" font-size="14.00">new_media_tag</text>
<text text-anchor="start" x="238" y="-320.3" font-family="Times,serif" font-size="14.00">new_project</text>
<text text-anchor="start" x="238" y="-305.3" font-family="Times,serif" font-size="14.00">new_session</text>
<text text-anchor="start" x="238" y="-290.3" font-family="Times,serif" font-size="14.00">new_source</text>
<text text-anchor="start" x="238" y="-275.3" font-family="Times,serif" font-size="14.00">new_task</text>
<text text-anchor="start" x="238" y="-260.3" font-family="Times,serif" font-size="14.00">new_team</text>
<text text-anchor="start" x="238" y="-245.3" font-family="Times,serif" font-size="14.00">new_user</text>
<text text-anchor="start" x="238" y="-230.3" font-family="Times,serif" font-size="14.00">update_suggested_tags</text>
<polyline fill="none" stroke="black" points="230,-222.5 508,-222.5 "/>
<text text-anchor="start" x="238" y="-207.3" font-family="Times,serif" font-size="14.00">new_media</text>
<polyline fill="none" stroke="black" points="230,-199.5 508,-199.5 "/>
<text text-anchor="start" x="238" y="-184.3" font-family="Times,serif" font-size="14.00">_layout</text>
<text text-anchor="start" x="238" y="-169.3" font-family="Times,serif" font-size="14.00">check_environment</text>
</g>
<!-- Api::V1::GraphqlController -->
<g id="node3" class="node"><title>Api::V1::GraphqlController</title>
<path fill="none" stroke="black" d="M564,-529.5C564,-529.5 749,-529.5 749,-529.5 755,-529.5 761,-535.5 761,-541.5 761,-541.5 761,-729.5 761,-729.5 761,-735.5 755,-741.5 749,-741.5 749,-741.5 564,-741.5 564,-741.5 558,-741.5 552,-735.5 552,-729.5 552,-729.5 552,-541.5 552,-541.5 552,-535.5 558,-529.5 564,-529.5"/>
<text text-anchor="middle" x="656.5" y="-726.3" font-family="Times,serif" font-size="14.00">Api::V1::GraphqlController</text>
<polyline fill="none" stroke="black" points="552,-718.5 761,-718.5 "/>
<text text-anchor="start" x="560" y="-703.3" font-family="Times,serif" font-size="14.00">create</text>
<polyline fill="none" stroke="black" points="552,-695.5 761,-695.5 "/>
<text text-anchor="start" x="560" y="-680.3" font-family="Times,serif" font-size="14.00">ensure_hash</text>
<text text-anchor="start" x="560" y="-665.3" font-family="Times,serif" font-size="14.00">format_error_message</text>
<text text-anchor="start" x="560" y="-650.3" font-family="Times,serif" font-size="14.00">parse_json_exception</text>
<polyline fill="none" stroke="black" points="552,-642.5 761,-642.5 "/>
<text text-anchor="start" x="560" y="-627.3" font-family="Times,serif" font-size="14.00">_layout</text>
<text text-anchor="start" x="560" y="-612.3" font-family="Times,serif" font-size="14.00">authenticate_graphql_user</text>
<text text-anchor="start" x="560" y="-597.3" font-family="Times,serif" font-size="14.00">load_ability</text>
<text text-anchor="start" x="560" y="-582.3" font-family="Times,serif" font-size="14.00">load_context_team</text>
<text text-anchor="start" x="560" y="-567.3" font-family="Times,serif" font-size="14.00">set_current_team</text>
<text text-anchor="start" x="560" y="-552.3" font-family="Times,serif" font-size="14.00">set_current_user</text>
<text text-anchor="start" x="560" y="-537.3" font-family="Times,serif" font-size="14.00">start_apollo_if_needed</text>
</g>
<!-- Api::V1::ConfirmationsController -->
<g id="node4" class="node"><title>Api::V1::ConfirmationsController</title>
<path fill="none" stroke="black" d="M265,-713.5C265,-713.5 494,-713.5 494,-713.5 500,-713.5 506,-719.5 506,-725.5 506,-725.5 506,-794.5 506,-794.5 506,-800.5 500,-806.5 494,-806.5 494,-806.5 265,-806.5 265,-806.5 259,-806.5 253,-800.5 253,-794.5 253,-794.5 253,-725.5 253,-725.5 253,-719.5 259,-713.5 265,-713.5"/>
<text text-anchor="middle" x="379.5" y="-791.3" font-family="Times,serif" font-size="14.00">Api::V1::ConfirmationsController</text>
<polyline fill="none" stroke="black" points="253,-783.5 506,-783.5 "/>
<text text-anchor="start" x="261" y="-768.3" font-family="Times,serif" font-size="14.00">show</text>
<polyline fill="none" stroke="black" points="253,-760.5 506,-760.5 "/>
<polyline fill="none" stroke="black" points="253,-736.5 506,-736.5 "/>
<text text-anchor="start" x="261" y="-721.3" font-family="Times,serif" font-size="14.00">_layout</text>
</g>
<!-- Api::V1::AdminController -->
<g id="node5" class="node"><title>Api::V1::AdminController</title>
<path fill="none" stroke="black" d="M35,-690.5C35,-690.5 209,-690.5 209,-690.5 215,-690.5 221,-696.5 221,-702.5 221,-702.5 221,-786.5 221,-786.5 221,-792.5 215,-798.5 209,-798.5 209,-798.5 35,-798.5 35,-798.5 29,-798.5 23,-792.5 23,-786.5 23,-786.5 23,-702.5 23,-702.5 23,-696.5 29,-690.5 35,-690.5"/>
<text text-anchor="middle" x="122" y="-783.3" font-family="Times,serif" font-size="14.00">Api::V1::AdminController</text>
<polyline fill="none" stroke="black" points="23,-775.5 221,-775.5 "/>
<text text-anchor="start" x="31" y="-760.3" font-family="Times,serif" font-size="14.00">add_publisher_to_project</text>
<text text-anchor="start" x="31" y="-745.3" font-family="Times,serif" font-size="14.00">slack_user</text>
<polyline fill="none" stroke="black" points="23,-737.5 221,-737.5 "/>
<polyline fill="none" stroke="black" points="23,-713.5 221,-713.5 "/>
<text text-anchor="start" x="31" y="-698.3" font-family="Times,serif" font-size="14.00">_layout</text>
</g>
<!-- Api::V1::SessionsController -->
<g id="node6" class="node"><title>Api::V1::SessionsController</title>
<path fill="none" stroke="black" d="M12,-529.5C12,-529.5 201,-529.5 201,-529.5 207,-529.5 213,-535.5 213,-541.5 213,-541.5 213,-624.5 213,-624.5 213,-630.5 207,-636.5 201,-636.5 201,-636.5 12,-636.5 12,-636.5 6,-636.5 0,-630.5 0,-624.5 0,-624.5 0,-541.5 0,-541.5 0,-535.5 6,-529.5 12,-529.5"/>
<text text-anchor="middle" x="106.5" y="-621.3" font-family="Times,serif" font-size="14.00">Api::V1::SessionsController</text>
<polyline fill="none" stroke="black" points="0,-613.5 213,-613.5 "/>
<text text-anchor="start" x="8" y="-598.3" font-family="Times,serif" font-size="14.00">create</text>
<text text-anchor="start" x="8" y="-583.3" font-family="Times,serif" font-size="14.00">destroy</text>
<polyline fill="none" stroke="black" points="0,-575.5 213,-575.5 "/>
<text text-anchor="start" x="8" y="-560.3" font-family="Times,serif" font-size="14.00">configure_sign_in_params</text>
<polyline fill="none" stroke="black" points="0,-552.5 213,-552.5 "/>
<text text-anchor="start" x="8" y="-537.3" font-family="Times,serif" font-size="14.00">_layout</text>
</g>
<!-- Api::V1::RegistrationsController -->
<g id="node7" class="node"><title>Api::V1::RegistrationsController</title>
<path fill="none" stroke="black" d="M265,-529.5C265,-529.5 507,-529.5 507,-529.5 513,-529.5 519,-535.5 519,-541.5 519,-541.5 519,-654.5 519,-654.5 519,-660.5 513,-666.5 507,-666.5 507,-666.5 265,-666.5 265,-666.5 259,-666.5 253,-660.5 253,-654.5 253,-654.5 253,-541.5 253,-541.5 253,-535.5 259,-529.5 265,-529.5"/>
<text text-anchor="middle" x="386" y="-651.3" font-family="Times,serif" font-size="14.00">Api::V1::RegistrationsController</text>
<polyline fill="none" stroke="black" points="253,-643.5 519,-643.5 "/>
<text text-anchor="start" x="261" y="-628.3" font-family="Times,serif" font-size="14.00">create</text>
<text text-anchor="start" x="261" y="-613.3" font-family="Times,serif" font-size="14.00">destroy</text>
<text text-anchor="start" x="261" y="-598.3" font-family="Times,serif" font-size="14.00">update</text>
<polyline fill="none" stroke="black" points="253,-590.5 519,-590.5 "/>
<text text-anchor="start" x="261" y="-575.3" font-family="Times,serif" font-size="14.00">configure_account_update_params</text>
<text text-anchor="start" x="261" y="-560.3" font-family="Times,serif" font-size="14.00">configure_sign_up_params</text>
<polyline fill="none" stroke="black" points="253,-552.5 519,-552.5 "/>
<text text-anchor="start" x="261" y="-537.3" font-family="Times,serif" font-size="14.00">_layout</text>
</g>
<!-- Api::V1::ProjectMediasController -->
<g id="node8" class="node"><title>Api::V1::ProjectMediasController</title>
<path fill="none" stroke="black" d="M725,-0.5C725,-0.5 957,-0.5 957,-0.5 963,-0.5 969,-6.5 969,-12.5 969,-12.5 969,-110.5 969,-110.5 969,-116.5 963,-122.5 957,-122.5 957,-122.5 725,-122.5 725,-122.5 719,-122.5 713,-116.5 713,-110.5 713,-110.5 713,-12.5 713,-12.5 713,-6.5 719,-0.5 725,-0.5"/>
<text text-anchor="middle" x="841" y="-107.3" font-family="Times,serif" font-size="14.00">Api::V1::ProjectMediasController</text>
<polyline fill="none" stroke="black" points="713,-99.5 969,-99.5 "/>
<text text-anchor="start" x="721" y="-84.3" font-family="Times,serif" font-size="14.00">oembed</text>
<text text-anchor="start" x="721" y="-69.3" font-family="Times,serif" font-size="14.00">webhook</text>
<polyline fill="none" stroke="black" points="713,-61.5 969,-61.5 "/>
<text text-anchor="start" x="721" y="-46.3" font-family="Times,serif" font-size="14.00">should_skip_project_media?</text>
<polyline fill="none" stroke="black" points="713,-38.5 969,-38.5 "/>
<text text-anchor="start" x="721" y="-23.3" font-family="Times,serif" font-size="14.00">_layout</text>
<text text-anchor="start" x="721" y="-8.3" font-family="Times,serif" font-size="14.00">allow_iframe</text>
</g>
<!-- Api::V1::OmniauthCallbacksController -->
<g id="node9" class="node"><title>Api::V1::OmniauthCallbacksController</title>
<path fill="none" stroke="black" d="M380,-0.5C380,-0.5 649,-0.5 649,-0.5 655,-0.5 661,-6.5 661,-12.5 661,-12.5 661,-95.5 661,-95.5 661,-101.5 655,-107.5 649,-107.5 649,-107.5 380,-107.5 380,-107.5 374,-107.5 368,-101.5 368,-95.5 368,-95.5 368,-12.5 368,-12.5 368,-6.5 374,-0.5 380,-0.5"/>
<text text-anchor="middle" x="514.5" y="-92.3" font-family="Times,serif" font-size="14.00">Api::V1::OmniauthCallbacksController</text>
<polyline fill="none" stroke="black" points="368,-84.5 661,-84.5 "/>
<text text-anchor="start" x="376" y="-69.3" font-family="Times,serif" font-size="14.00">failure</text>
<text text-anchor="start" x="376" y="-54.3" font-family="Times,serif" font-size="14.00">logout</text>
<polyline fill="none" stroke="black" points="368,-46.5 661,-46.5 "/>
<text text-anchor="start" x="376" y="-31.3" font-family="Times,serif" font-size="14.00">start_session_and_redirect</text>
<polyline fill="none" stroke="black" points="368,-23.5 661,-23.5 "/>
<text text-anchor="start" x="376" y="-8.3" font-family="Times,serif" font-size="14.00">_layout</text>
</g>
<!-- Api::V1::BaseApiController -->
<g id="node10" class="node"><title>Api::V1::BaseApiController</title>
<path fill="none" stroke="black" d="M564,-161.5C564,-161.5 821,-161.5 821,-161.5 827,-161.5 833,-167.5 833,-173.5 833,-173.5 833,-482.5 833,-482.5 833,-488.5 827,-494.5 821,-494.5 821,-494.5 564,-494.5 564,-494.5 558,-494.5 552,-488.5 552,-482.5 552,-482.5 552,-173.5 552,-173.5 552,-167.5 558,-161.5 564,-161.5"/>
<text text-anchor="middle" x="692.5" y="-479.3" font-family="Times,serif" font-size="14.00">Api::V1::BaseApiController</text>
<polyline fill="none" stroke="black" points="552,-471.5 833,-471.5 "/>
<text text-anchor="start" x="560" y="-456.3" font-family="Times,serif" font-size="14.00">log</text>
<text text-anchor="start" x="560" y="-441.3" font-family="Times,serif" font-size="14.00">me</text>
<text text-anchor="start" x="560" y="-426.3" font-family="Times,serif" font-size="14.00">options</text>
<text text-anchor="start" x="560" y="-411.3" font-family="Times,serif" font-size="14.00">ping</text>
<text text-anchor="start" x="560" y="-396.3" font-family="Times,serif" font-size="14.00">version</text>
<polyline fill="none" stroke="black" points="552,-388.5 833,-388.5 "/>
<polyline fill="none" stroke="black" points="552,-364.5 833,-364.5 "/>
<text text-anchor="start" x="560" y="-349.3" font-family="Times,serif" font-size="14.00">_layout</text>
<text text-anchor="start" x="560" y="-334.3" font-family="Times,serif" font-size="14.00">authenticate_from_token!</text>
<text text-anchor="start" x="560" y="-319.3" font-family="Times,serif" font-size="14.00">authenticate_user</text>
<text text-anchor="start" x="560" y="-304.3" font-family="Times,serif" font-size="14.00">authenticate_user!</text>
<text text-anchor="start" x="560" y="-289.3" font-family="Times,serif" font-size="14.00">get_params</text>
<text text-anchor="start" x="560" y="-274.3" font-family="Times,serif" font-size="14.00">identify_user</text>
<text text-anchor="start" x="560" y="-259.3" font-family="Times,serif" font-size="14.00">remove_empty_params_and_headers</text>
<text text-anchor="start" x="560" y="-244.3" font-family="Times,serif" font-size="14.00">render_user</text>
<text text-anchor="start" x="560" y="-229.3" font-family="Times,serif" font-size="14.00">set_custom_response_headers</text>
<text text-anchor="start" x="560" y="-214.3" font-family="Times,serif" font-size="14.00">store_request</text>
<text text-anchor="start" x="560" y="-199.3" font-family="Times,serif" font-size="14.00">user_for_paper_trail</text>
<text text-anchor="start" x="560" y="-184.3" font-family="Times,serif" font-size="14.00">verify_payload!</text>
<text text-anchor="start" x="560" y="-169.3" font-family="Times,serif" font-size="14.00">verify_signature</text>
</g>
<!-- ApplicationController -->
<g id="node11" class="node"><title>ApplicationController</title>
<path fill="none" stroke="black" d="M35,-345.5C35,-345.5 183,-345.5 183,-345.5 189,-345.5 195,-351.5 195,-357.5 195,-357.5 195,-471.5 195,-471.5 195,-477.5 189,-483.5 183,-483.5 183,-483.5 35,-483.5 35,-483.5 29,-483.5 23,-477.5 23,-471.5 23,-471.5 23,-357.5 23,-357.5 23,-351.5 29,-345.5 35,-345.5"/>
<text text-anchor="middle" x="109" y="-468.3" font-family="Times,serif" font-size="14.00">ApplicationController</text>
<polyline fill="none" stroke="black" points="23,-460.5 195,-460.5 "/>
<text text-anchor="start" x="31" y="-445.3" font-family="Times,serif" font-size="14.00">authenticated?</text>
<polyline fill="none" stroke="black" points="23,-437.5 195,-437.5 "/>
<polyline fill="none" stroke="black" points="23,-413.5 195,-413.5 "/>
<text text-anchor="start" x="31" y="-398.3" font-family="Times,serif" font-size="14.00">_layout</text>
<text text-anchor="start" x="31" y="-383.3" font-family="Times,serif" font-size="14.00">render_error</text>
<text text-anchor="start" x="31" y="-368.3" font-family="Times,serif" font-size="14.00">render_success</text>
<text text-anchor="start" x="31" y="-353.3" font-family="Times,serif" font-size="14.00">render_unauthorized</text>
</g>
</g>
</svg>
