<?xml version="1.0" encoding="UTF-8" standalone="no"?>
<!DOCTYPE svg PUBLIC "-//W3C//DTD SVG 1.1//EN"
 "http://www.w3.org/Graphics/SVG/1.1/DTD/svg11.dtd">
<!-- Generated by graphviz version 2.36.0 (20140111.2315)
 -->
<!-- Title: controllers_diagram Pages: 1 -->
<svg width="1057pt" height="884pt"
 viewBox="0.00 0.00 1057.00 884.00" xmlns="http://www.w3.org/2000/svg" xmlns:xlink="http://www.w3.org/1999/xlink">
<g id="graph0" class="graph" transform="scale(1 1) rotate(0) translate(4 880)">
<title>controllers_diagram</title>
<polygon fill="none" stroke="none" points="-4,4 -4,-880 1053,-880 1053,4 -4,4"/>
<!-- _diagram_info -->
<g id="node1" class="node"><title>_diagram_info</title>
<text text-anchor="start" x="123" y="-132.6" font-family="Times,serif" font-size="13.00">Controllers diagram</text>
<text text-anchor="start" x="123" y="-118.6" font-family="Times,serif" font-size="13.00">Date: Apr 16 2019 &#45; 18:56</text>
<text text-anchor="start" x="123" y="-104.6" font-family="Times,serif" font-size="13.00">Migration version: 20190414162225</text>
<text text-anchor="start" x="123" y="-90.6" font-family="Times,serif" font-size="13.00">Generated by RailRoady 1.5.2</text>
<text text-anchor="start" x="123" y="-76.6" font-family="Times,serif" font-size="13.00">http://railroady.prestonlee.com</text>
</g>
<!-- TestController -->
<g id="node2" class="node"><title>TestController</title>
<path fill="none" stroke="black" d="M288,-184.5C288,-184.5 542,-184.5 542,-184.5 548,-184.5 554,-190.5 554,-196.5 554,-196.5 554,-534.5 554,-534.5 554,-540.5 548,-546.5 542,-546.5 542,-546.5 288,-546.5 288,-546.5 282,-546.5 276,-540.5 276,-534.5 276,-534.5 276,-196.5 276,-196.5 276,-190.5 282,-184.5 288,-184.5"/>
<text text-anchor="middle" x="415" y="-531.3" font-family="Times,serif" font-size="14.00">TestController</text>
<polyline fill="none" stroke="black" points="276,-523.5 554,-523.5 "/>
<text text-anchor="start" x="284" y="-508.3" font-family="Times,serif" font-size="14.00">archive_project</text>
<text text-anchor="start" x="284" y="-493.3" font-family="Times,serif" font-size="14.00">confirm_user</text>
<text text-anchor="start" x="284" y="-478.3" font-family="Times,serif" font-size="14.00">create_team_project_and_two_users</text>
<text text-anchor="start" x="284" y="-463.3" font-family="Times,serif" font-size="14.00">get</text>
<text text-anchor="start" x="284" y="-448.3" font-family="Times,serif" font-size="14.00">make_team_public</text>
<text text-anchor="start" x="284" y="-433.3" font-family="Times,serif" font-size="14.00">media_status</text>
<text text-anchor="start" x="284" y="-418.3" font-family="Times,serif" font-size="14.00">new_api_key</text>
<text text-anchor="start" x="284" y="-403.3" font-family="Times,serif" font-size="14.00">new_bot</text>
<text text-anchor="start" x="284" y="-388.3" font-family="Times,serif" font-size="14.00">new_claim</text>
<text text-anchor="start" x="284" y="-373.3" font-family="Times,serif" font-size="14.00">new_link</text>
<text text-anchor="start" x="284" y="-358.3" font-family="Times,serif" font-size="14.00">new_media_tag</text>
<text text-anchor="start" x="284" y="-343.3" font-family="Times,serif" font-size="14.00">new_project</text>
<text text-anchor="start" x="284" y="-328.3" font-family="Times,serif" font-size="14.00">new_session</text>
<text text-anchor="start" x="284" y="-313.3" font-family="Times,serif" font-size="14.00">new_source</text>
<text text-anchor="start" x="284" y="-298.3" font-family="Times,serif" font-size="14.00">new_task</text>
<text text-anchor="start" x="284" y="-283.3" font-family="Times,serif" font-size="14.00">new_team</text>
<text text-anchor="start" x="284" y="-268.3" font-family="Times,serif" font-size="14.00">new_user</text>
<text text-anchor="start" x="284" y="-253.3" font-family="Times,serif" font-size="14.00">update_suggested_tags</text>
<polyline fill="none" stroke="black" points="276,-245.5 554,-245.5 "/>
<text text-anchor="start" x="284" y="-230.3" font-family="Times,serif" font-size="14.00">new_media</text>
<polyline fill="none" stroke="black" points="276,-222.5 554,-222.5 "/>
<text text-anchor="start" x="284" y="-207.3" font-family="Times,serif" font-size="14.00">_layout</text>
<text text-anchor="start" x="284" y="-192.3" font-family="Times,serif" font-size="14.00">check_environment</text>
</g>
<!-- ApplicationController -->
<g id="node3" class="node"><title>ApplicationController</title>
<path fill="none" stroke="black" d="M81,-414.5C81,-414.5 229,-414.5 229,-414.5 235,-414.5 241,-420.5 241,-426.5 241,-426.5 241,-540.5 241,-540.5 241,-546.5 235,-552.5 229,-552.5 229,-552.5 81,-552.5 81,-552.5 75,-552.5 69,-546.5 69,-540.5 69,-540.5 69,-426.5 69,-426.5 69,-420.5 75,-414.5 81,-414.5"/>
<text text-anchor="middle" x="155" y="-537.3" font-family="Times,serif" font-size="14.00">ApplicationController</text>
<polyline fill="none" stroke="black" points="69,-529.5 241,-529.5 "/>
<text text-anchor="start" x="77" y="-514.3" font-family="Times,serif" font-size="14.00">authenticated?</text>
<polyline fill="none" stroke="black" points="69,-506.5 241,-506.5 "/>
<polyline fill="none" stroke="black" points="69,-482.5 241,-482.5 "/>
<text text-anchor="start" x="77" y="-467.3" font-family="Times,serif" font-size="14.00">_layout</text>
<text text-anchor="start" x="77" y="-452.3" font-family="Times,serif" font-size="14.00">render_error</text>
<text text-anchor="start" x="77" y="-437.3" font-family="Times,serif" font-size="14.00">render_success</text>
<text text-anchor="start" x="77" y="-422.3" font-family="Times,serif" font-size="14.00">render_unauthorized</text>
</g>
<!-- Api::V1::InvitationsController -->
<g id="node4" class="node"><title>Api::V1::InvitationsController</title>
<path fill="none" stroke="black" d="M35,-782.5C35,-782.5 240,-782.5 240,-782.5 246,-782.5 252,-788.5 252,-794.5 252,-794.5 252,-863.5 252,-863.5 252,-869.5 246,-875.5 240,-875.5 240,-875.5 35,-875.5 35,-875.5 29,-875.5 23,-869.5 23,-863.5 23,-863.5 23,-794.5 23,-794.5 23,-788.5 29,-782.5 35,-782.5"/>
<text text-anchor="middle" x="137.5" y="-860.3" font-family="Times,serif" font-size="14.00">Api::V1::InvitationsController</text>
<polyline fill="none" stroke="black" points="23,-852.5 252,-852.5 "/>
<text text-anchor="start" x="31" y="-837.3" font-family="Times,serif" font-size="14.00">edit</text>
<polyline fill="none" stroke="black" points="23,-829.5 252,-829.5 "/>
<polyline fill="none" stroke="black" points="23,-805.5 252,-805.5 "/>
<text text-anchor="start" x="31" y="-790.3" font-family="Times,serif" font-size="14.00">_layout</text>
</g>
<!-- Api::V1::WebhooksController -->
<g id="node5" class="node"><title>Api::V1::WebhooksController</title>
<path fill="none" stroke="black" d="M12,-276.5C12,-276.5 212,-276.5 212,-276.5 218,-276.5 224,-282.5 224,-288.5 224,-288.5 224,-357.5 224,-357.5 224,-363.5 218,-369.5 212,-369.5 212,-369.5 12,-369.5 12,-369.5 6,-369.5 5.68434e-14,-363.5 5.68434e-14,-357.5 5.68434e-14,-357.5 5.68434e-14,-288.5 5.68434e-14,-288.5 5.68434e-14,-282.5 6,-276.5 12,-276.5"/>
<text text-anchor="middle" x="112" y="-354.3" font-family="Times,serif" font-size="14.00">Api::V1::WebhooksController</text>
<polyline fill="none" stroke="black" points="5.68434e-14,-346.5 224,-346.5 "/>
<text text-anchor="start" x="8" y="-331.3" font-family="Times,serif" font-size="14.00">index</text>
<polyline fill="none" stroke="black" points="5.68434e-14,-323.5 224,-323.5 "/>
<polyline fill="none" stroke="black" points="5.68434e-14,-299.5 224,-299.5 "/>
<text text-anchor="start" x="8" y="-284.3" font-family="Times,serif" font-size="14.00">_layout</text>
</g>
<!-- Api::V1::SessionsController -->
<g id="node6" class="node"><title>Api::V1::SessionsController</title>
<path fill="none" stroke="black" d="M12,-621.5C12,-621.5 201,-621.5 201,-621.5 207,-621.5 213,-627.5 213,-633.5 213,-633.5 213,-716.5 213,-716.5 213,-722.5 207,-728.5 201,-728.5 201,-728.5 12,-728.5 12,-728.5 6,-728.5 5.68434e-14,-722.5 5.68434e-14,-716.5 5.68434e-14,-716.5 5.68434e-14,-633.5 5.68434e-14,-633.5 5.68434e-14,-627.5 6,-621.5 12,-621.5"/>
<text text-anchor="middle" x="106.5" y="-713.3" font-family="Times,serif" font-size="14.00">Api::V1::SessionsController</text>
<polyline fill="none" stroke="black" points="5.68434e-14,-705.5 213,-705.5 "/>
<text text-anchor="start" x="8" y="-690.3" font-family="Times,serif" font-size="14.00">create</text>
<text text-anchor="start" x="8" y="-675.3" font-family="Times,serif" font-size="14.00">destroy</text>
<polyline fill="none" stroke="black" points="5.68434e-14,-667.5 213,-667.5 "/>
<text text-anchor="start" x="8" y="-652.3" font-family="Times,serif" font-size="14.00">configure_sign_in_params</text>
<polyline fill="none" stroke="black" points="5.68434e-14,-644.5 213,-644.5 "/>
<text text-anchor="start" x="8" y="-629.3" font-family="Times,serif" font-size="14.00">_layout</text>
</g>
<!-- Api::V1::GraphqlController -->
<g id="node7" class="node"><title>Api::V1::GraphqlController</title>
<path fill="none" stroke="black" d="M610,-529.5C610,-529.5 795,-529.5 795,-529.5 801,-529.5 807,-535.5 807,-541.5 807,-541.5 807,-759.5 807,-759.5 807,-765.5 801,-771.5 795,-771.5 795,-771.5 610,-771.5 610,-771.5 604,-771.5 598,-765.5 598,-759.5 598,-759.5 598,-541.5 598,-541.5 598,-535.5 604,-529.5 610,-529.5"/>
<text text-anchor="middle" x="702.5" y="-756.3" font-family="Times,serif" font-size="14.00">Api::V1::GraphqlController</text>
<polyline fill="none" stroke="black" points="598,-748.5 807,-748.5 "/>
<text text-anchor="start" x="606" y="-733.3" font-family="Times,serif" font-size="14.00">create</text>
<polyline fill="none" stroke="black" points="598,-725.5 807,-725.5 "/>
<text text-anchor="start" x="606" y="-710.3" font-family="Times,serif" font-size="14.00">ensure_hash</text>
<text text-anchor="start" x="606" y="-695.3" font-family="Times,serif" font-size="14.00">format_error_message</text>
<text text-anchor="start" x="606" y="-680.3" font-family="Times,serif" font-size="14.00">parse_json_exception</text>
<polyline fill="none" stroke="black" points="598,-672.5 807,-672.5 "/>
<text text-anchor="start" x="606" y="-657.3" font-family="Times,serif" font-size="14.00">_layout</text>
<text text-anchor="start" x="606" y="-642.3" font-family="Times,serif" font-size="14.00">authenticate_graphql_user</text>
<text text-anchor="start" x="606" y="-627.3" font-family="Times,serif" font-size="14.00">init_bot_events</text>
<text text-anchor="start" x="606" y="-612.3" font-family="Times,serif" font-size="14.00">load_ability</text>
<text text-anchor="start" x="606" y="-597.3" font-family="Times,serif" font-size="14.00">load_context_team</text>
<text text-anchor="start" x="606" y="-582.3" font-family="Times,serif" font-size="14.00">set_current_team</text>
<text text-anchor="start" x="606" y="-567.3" font-family="Times,serif" font-size="14.00">set_current_user</text>
<text text-anchor="start" x="606" y="-552.3" font-family="Times,serif" font-size="14.00">start_apollo_if_needed</text>
<text text-anchor="start" x="606" y="-537.3" font-family="Times,serif" font-size="14.00">trigger_bot_events</text>
</g>
<!-- Api::V1::ProjectMediasController -->
<g id="node8" class="node"><title>Api::V1::ProjectMediasController</title>
<path fill="none" stroke="black" d="M725,-23.5C725,-23.5 957,-23.5 957,-23.5 963,-23.5 969,-29.5 969,-35.5 969,-35.5 969,-119.5 969,-119.5 969,-125.5 963,-131.5 957,-131.5 957,-131.5 725,-131.5 725,-131.5 719,-131.5 713,-125.5 713,-119.5 713,-119.5 713,-35.5 713,-35.5 713,-29.5 719,-23.5 725,-23.5"/>
<text text-anchor="middle" x="841" y="-116.3" font-family="Times,serif" font-size="14.00">Api::V1::ProjectMediasController</text>
<polyline fill="none" stroke="black" points="713,-108.5 969,-108.5 "/>
<text text-anchor="start" x="721" y="-93.3" font-family="Times,serif" font-size="14.00">oembed</text>
<polyline fill="none" stroke="black" points="713,-85.5 969,-85.5 "/>
<polyline fill="none" stroke="black" points="713,-61.5 969,-61.5 "/>
<text text-anchor="start" x="721" y="-46.3" font-family="Times,serif" font-size="14.00">_layout</text>
<text text-anchor="start" x="721" y="-31.3" font-family="Times,serif" font-size="14.00">allow_iframe</text>
</g>
<!-- Api::V1::OmniauthCallbacksController -->
<g id="node9" class="node"><title>Api::V1::OmniauthCallbacksController</title>
<path fill="none" stroke="black" d="M265,-598.5C265,-598.5 534,-598.5 534,-598.5 540,-598.5 546,-604.5 546,-610.5 546,-610.5 546,-723.5 546,-723.5 546,-729.5 540,-735.5 534,-735.5 534,-735.5 265,-735.5 265,-735.5 259,-735.5 253,-729.5 253,-723.5 253,-723.5 253,-610.5 253,-610.5 253,-604.5 259,-598.5 265,-598.5"/>
<text text-anchor="middle" x="399.5" y="-720.3" font-family="Times,serif" font-size="14.00">Api::V1::OmniauthCallbacksController</text>
<polyline fill="none" stroke="black" points="253,-712.5 546,-712.5 "/>
<text text-anchor="start" x="261" y="-697.3" font-family="Times,serif" font-size="14.00">failure</text>
<text text-anchor="start" x="261" y="-682.3" font-family="Times,serif" font-size="14.00">logout</text>
<polyline fill="none" stroke="black" points="253,-674.5 546,-674.5 "/>
<text text-anchor="start" x="261" y="-659.3" font-family="Times,serif" font-size="14.00">get_check_destination</text>
<text text-anchor="start" x="261" y="-644.3" font-family="Times,serif" font-size="14.00">sign_in_options</text>
<text text-anchor="start" x="261" y="-629.3" font-family="Times,serif" font-size="14.00">start_session_and_redirect</text>
<polyline fill="none" stroke="black" points="253,-621.5 546,-621.5 "/>
<text text-anchor="start" x="261" y="-606.3" font-family="Times,serif" font-size="14.00">_layout</text>
</g>
<!-- Api::V1::BaseApiController -->
<g id="node10" class="node"><title>Api::V1::BaseApiController</title>
<path fill="none" stroke="black" d="M610,-184.5C610,-184.5 867,-184.5 867,-184.5 873,-184.5 879,-190.5 879,-196.5 879,-196.5 879,-475.5 879,-475.5 879,-481.5 873,-487.5 867,-487.5 867,-487.5 610,-487.5 610,-487.5 604,-487.5 598,-481.5 598,-475.5 598,-475.5 598,-196.5 598,-196.5 598,-190.5 604,-184.5 610,-184.5"/>
<text text-anchor="middle" x="738.5" y="-472.3" font-family="Times,serif" font-size="14.00">Api::V1::BaseApiController</text>
<polyline fill="none" stroke="black" points="598,-464.5 879,-464.5 "/>
<text text-anchor="start" x="606" y="-449.3" font-family="Times,serif" font-size="14.00">log</text>
<text text-anchor="start" x="606" y="-434.3" font-family="Times,serif" font-size="14.00">me</text>
<text text-anchor="start" x="606" y="-419.3" font-family="Times,serif" font-size="14.00">options</text>
<text text-anchor="start" x="606" y="-404.3" font-family="Times,serif" font-size="14.00">ping</text>
<text text-anchor="start" x="606" y="-389.3" font-family="Times,serif" font-size="14.00">version</text>
<polyline fill="none" stroke="black" points="598,-381.5 879,-381.5 "/>
<polyline fill="none" stroke="black" points="598,-357.5 879,-357.5 "/>
<text text-anchor="start" x="606" y="-342.3" font-family="Times,serif" font-size="14.00">_layout</text>
<text text-anchor="start" x="606" y="-327.3" font-family="Times,serif" font-size="14.00">authenticate_from_token!</text>
<text text-anchor="start" x="606" y="-312.3" font-family="Times,serif" font-size="14.00">authenticate_user</text>
<text text-anchor="start" x="606" y="-297.3" font-family="Times,serif" font-size="14.00">authenticate_user!</text>
<text text-anchor="start" x="606" y="-282.3" font-family="Times,serif" font-size="14.00">identify_user</text>
<text text-anchor="start" x="606" y="-267.3" font-family="Times,serif" font-size="14.00">remove_empty_params_and_headers</text>
<text text-anchor="start" x="606" y="-252.3" font-family="Times,serif" font-size="14.00">render_error_message</text>
<text text-anchor="start" x="606" y="-237.3" font-family="Times,serif" font-size="14.00">render_user</text>
<text text-anchor="start" x="606" y="-222.3" font-family="Times,serif" font-size="14.00">set_custom_response_headers</text>
<text text-anchor="start" x="606" y="-207.3" font-family="Times,serif" font-size="14.00">store_request</text>
<text text-anchor="start" x="606" y="-192.3" font-family="Times,serif" font-size="14.00">user_for_paper_trail</text>
</g>
<!-- Api::V1::ConfirmationsController -->
<g id="node11" class="node"><title>Api::V1::ConfirmationsController</title>
<path fill="none" stroke="black" d="M311,-782.5C311,-782.5 540,-782.5 540,-782.5 546,-782.5 552,-788.5 552,-794.5 552,-794.5 552,-863.5 552,-863.5 552,-869.5 546,-875.5 540,-875.5 540,-875.5 311,-875.5 311,-875.5 305,-875.5 299,-869.5 299,-863.5 299,-863.5 299,-794.5 299,-794.5 299,-788.5 305,-782.5 311,-782.5"/>
<text text-anchor="middle" x="425.5" y="-860.3" font-family="Times,serif" font-size="14.00">Api::V1::ConfirmationsController</text>
<polyline fill="none" stroke="black" points="299,-852.5 552,-852.5 "/>
<text text-anchor="start" x="307" y="-837.3" font-family="Times,serif" font-size="14.00">show</text>
<polyline fill="none" stroke="black" points="299,-829.5 552,-829.5 "/>
<polyline fill="none" stroke="black" points="299,-805.5 552,-805.5 "/>
<text text-anchor="start" x="307" y="-790.3" font-family="Times,serif" font-size="14.00">_layout</text>
</g>
<!-- Api::V1::RegistrationsController -->
<g id="node12" class="node"><title>Api::V1::RegistrationsController</title>
<path fill="none" stroke="black" d="M426,-0.5C426,-0.5 668,-0.5 668,-0.5 674,-0.5 680,-6.5 680,-12.5 680,-12.5 680,-125.5 680,-125.5 680,-131.5 674,-137.5 668,-137.5 668,-137.5 426,-137.5 426,-137.5 420,-137.5 414,-131.5 414,-125.5 414,-125.5 414,-12.5 414,-12.5 414,-6.5 420,-0.5 426,-0.5"/>
<text text-anchor="middle" x="547" y="-122.3" font-family="Times,serif" font-size="14.00">Api::V1::RegistrationsController</text>
<polyline fill="none" stroke="black" points="414,-114.5 680,-114.5 "/>
<text text-anchor="start" x="422" y="-99.3" font-family="Times,serif" font-size="14.00">create</text>
<text text-anchor="start" x="422" y="-84.3" font-family="Times,serif" font-size="14.00">destroy</text>
<text text-anchor="start" x="422" y="-69.3" font-family="Times,serif" font-size="14.00">update</text>
<polyline fill="none" stroke="black" points="414,-61.5 680,-61.5 "/>
<text text-anchor="start" x="422" y="-46.3" font-family="Times,serif" font-size="14.00">configure_account_update_params</text>
<text text-anchor="start" x="422" y="-31.3" font-family="Times,serif" font-size="14.00">configure_sign_up_params</text>
<polyline fill="none" stroke="black" points="414,-23.5 680,-23.5 "/>
<text text-anchor="start" x="422" y="-8.3" font-family="Times,serif" font-size="14.00">_layout</text>
</g>
<!-- Api::V1::AdminController -->
<g id="node13" class="node"><title>Api::V1::AdminController</title>
<path fill="none" stroke="black" d="M863,-529.5C863,-529.5 1037,-529.5 1037,-529.5 1043,-529.5 1049,-535.5 1049,-541.5 1049,-541.5 1049,-625.5 1049,-625.5 1049,-631.5 1043,-637.5 1037,-637.5 1037,-637.5 863,-637.5 863,-637.5 857,-637.5 851,-631.5 851,-625.5 851,-625.5 851,-541.5 851,-541.5 851,-535.5 857,-529.5 863,-529.5"/>
<text text-anchor="middle" x="950" y="-622.3" font-family="Times,serif" font-size="14.00">Api::V1::AdminController</text>
<polyline fill="none" stroke="black" points="851,-614.5 1049,-614.5 "/>
<text text-anchor="start" x="859" y="-599.3" font-family="Times,serif" font-size="14.00">add_publisher_to_project</text>
<text text-anchor="start" x="859" y="-584.3" font-family="Times,serif" font-size="14.00">slack_user</text>
<polyline fill="none" stroke="black" points="851,-576.5 1049,-576.5 "/>
<polyline fill="none" stroke="black" points="851,-552.5 1049,-552.5 "/>
<text text-anchor="start" x="859" y="-537.3" font-family="Times,serif" font-size="14.00">_layout</text>
</g>
</g>
</svg>
