<?xml version="1.0" encoding="UTF-8" standalone="no"?>
<!DOCTYPE svg PUBLIC "-//W3C//DTD SVG 1.1//EN"
 "http://www.w3.org/Graphics/SVG/1.1/DTD/svg11.dtd">
<!-- Generated by graphviz version 2.26.3 (20100126.1600)
 -->
<!-- Title: controllers_diagram Pages: 1 -->
<svg width="820pt" height="805pt"
 viewBox="0.00 0.00 820.00 805.00" xmlns="http://www.w3.org/2000/svg" xmlns:xlink="http://www.w3.org/1999/xlink">
<g id="graph1" class="graph" transform="scale(1 1) rotate(0) translate(4 801)">
<title>controllers_diagram</title>
<polygon fill="none" stroke="none" points="-4,5 -4,-801 817,-801 817,5 -4,5"/>
<!-- _diagram_info -->
<g id="node1" class="node"><title>_diagram_info</title>
<text text-anchor="start" x="515" y="-584.3" font-family="Times Roman,serif" font-size="13.00">Controllers diagram</text>
<text text-anchor="start" x="515" y="-567.3" font-family="Times Roman,serif" font-size="13.00">Date: Mar 15 2017 &#45; 02:08</text>
<text text-anchor="start" x="515" y="-550.3" font-family="Times Roman,serif" font-size="13.00">Migration version: 20170309040021</text>
<text text-anchor="start" x="515" y="-533.3" font-family="Times Roman,serif" font-size="13.00">Generated by RailRoady 1.5.2</text>
<text text-anchor="start" x="515" y="-516.3" font-family="Times Roman,serif" font-size="13.00">http://railroady.prestonlee.com</text>
</g>
<!-- Api::V1::ConfirmationsController -->
<g id="node2" class="node"><title>Api::V1::ConfirmationsController</title>
<polyline fill="none" stroke="black" points="321,-1.5 537,-1.5 "/>
<path fill="none" stroke="black" d="M537,-1.5C543,-1.5 549,-7.5 549,-13.5"/>
<polyline fill="none" stroke="black" points="549,-13.5 549,-91.5 "/>
<path fill="none" stroke="black" d="M549,-91.5C549,-97.5 543,-103.5 537,-103.5"/>
<polyline fill="none" stroke="black" points="537,-103.5 321,-103.5 "/>
<path fill="none" stroke="black" d="M321,-103.5C315,-103.5 309,-97.5 309,-91.5"/>
<polyline fill="none" stroke="black" points="309,-91.5 309,-13.5 "/>
<path fill="none" stroke="black" d="M309,-13.5C309,-7.5 315,-1.5 321,-1.5"/>
<text text-anchor="middle" x="429" y="-86.9" font-family="Times Roman,serif" font-size="14.00">Api::V1::ConfirmationsController</text>
<polyline fill="none" stroke="black" points="309,-77.5 549,-77.5 "/>
<text text-anchor="start" x="317" y="-60.9" font-family="Times Roman,serif" font-size="14.00">show</text>
<polyline fill="none" stroke="black" points="309,-51.5 549,-51.5 "/>
<polyline fill="none" stroke="black" points="309,-27.5 549,-27.5 "/>
<text text-anchor="start" x="317" y="-10.9" font-family="Times Roman,serif" font-size="14.00">_layout</text>
</g>
<!-- Api::V1::SessionsController -->
<g id="node3" class="node"><title>Api::V1::SessionsController</title>
<polyline fill="none" stroke="black" points="35,-595.5 214,-595.5 "/>
<path fill="none" stroke="black" d="M214,-595.5C220,-595.5 226,-601.5 226,-607.5"/>
<polyline fill="none" stroke="black" points="226,-607.5 226,-705.5 "/>
<path fill="none" stroke="black" d="M226,-705.5C226,-711.5 220,-717.5 214,-717.5"/>
<polyline fill="none" stroke="black" points="214,-717.5 35,-717.5 "/>
<path fill="none" stroke="black" d="M35,-717.5C29,-717.5 23,-711.5 23,-705.5"/>
<polyline fill="none" stroke="black" points="23,-705.5 23,-607.5 "/>
<path fill="none" stroke="black" d="M23,-607.5C23,-601.5 29,-595.5 35,-595.5"/>
<text text-anchor="middle" x="124.5" y="-700.9" font-family="Times Roman,serif" font-size="14.00">Api::V1::SessionsController</text>
<polyline fill="none" stroke="black" points="23,-691.5 226,-691.5 "/>
<text text-anchor="start" x="31" y="-674.9" font-family="Times Roman,serif" font-size="14.00">create</text>
<text text-anchor="start" x="31" y="-656.9" font-family="Times Roman,serif" font-size="14.00">destroy</text>
<polyline fill="none" stroke="black" points="23,-647.5 226,-647.5 "/>
<text text-anchor="start" x="31" y="-630.9" font-family="Times Roman,serif" font-size="14.00">configure_sign_in_params</text>
<polyline fill="none" stroke="black" points="23,-621.5 226,-621.5 "/>
<text text-anchor="start" x="31" y="-604.9" font-family="Times Roman,serif" font-size="14.00">_layout</text>
</g>
<!-- Api::V1::PasswordsController -->
<g id="node4" class="node"><title>Api::V1::PasswordsController</title>
<polyline fill="none" stroke="black" points="607,-1.5 799,-1.5 "/>
<path fill="none" stroke="black" d="M799,-1.5C805,-1.5 811,-7.5 811,-13.5"/>
<polyline fill="none" stroke="black" points="811,-13.5 811,-109.5 "/>
<path fill="none" stroke="black" d="M811,-109.5C811,-115.5 805,-121.5 799,-121.5"/>
<polyline fill="none" stroke="black" points="799,-121.5 607,-121.5 "/>
<path fill="none" stroke="black" d="M607,-121.5C601,-121.5 595,-115.5 595,-109.5"/>
<polyline fill="none" stroke="black" points="595,-109.5 595,-13.5 "/>
<path fill="none" stroke="black" d="M595,-13.5C595,-7.5 601,-1.5 607,-1.5"/>
<text text-anchor="middle" x="703" y="-104.9" font-family="Times Roman,serif" font-size="14.00">Api::V1::PasswordsController</text>
<polyline fill="none" stroke="black" points="595,-95.5 811,-95.5 "/>
<text text-anchor="start" x="603" y="-78.9" font-family="Times Roman,serif" font-size="14.00">edit</text>
<text text-anchor="start" x="603" y="-60.9" font-family="Times Roman,serif" font-size="14.00">update</text>
<polyline fill="none" stroke="black" points="595,-51.5 811,-51.5 "/>
<polyline fill="none" stroke="black" points="595,-27.5 811,-27.5 "/>
<text text-anchor="start" x="603" y="-10.9" font-family="Times Roman,serif" font-size="14.00">_layout</text>
</g>
<!-- Api::V1::RegistrationsController -->
<g id="node5" class="node"><title>Api::V1::RegistrationsController</title>
<polyline fill="none" stroke="black" points="475,-155.5 706,-155.5 "/>
<path fill="none" stroke="black" d="M706,-155.5C712,-155.5 718,-161.5 718,-167.5"/>
<polyline fill="none" stroke="black" points="718,-167.5 718,-301.5 "/>
<path fill="none" stroke="black" d="M718,-301.5C718,-307.5 712,-313.5 706,-313.5"/>
<polyline fill="none" stroke="black" points="706,-313.5 475,-313.5 "/>
<path fill="none" stroke="black" d="M475,-313.5C469,-313.5 463,-307.5 463,-301.5"/>
<polyline fill="none" stroke="black" points="463,-301.5 463,-167.5 "/>
<path fill="none" stroke="black" d="M463,-167.5C463,-161.5 469,-155.5 475,-155.5"/>
<text text-anchor="middle" x="590.5" y="-296.9" font-family="Times Roman,serif" font-size="14.00">Api::V1::RegistrationsController</text>
<polyline fill="none" stroke="black" points="463,-287.5 718,-287.5 "/>
<text text-anchor="start" x="471" y="-270.9" font-family="Times Roman,serif" font-size="14.00">create</text>
<text text-anchor="start" x="471" y="-252.9" font-family="Times Roman,serif" font-size="14.00">destroy</text>
<text text-anchor="start" x="471" y="-234.9" font-family="Times Roman,serif" font-size="14.00">update</text>
<polyline fill="none" stroke="black" points="463,-225.5 718,-225.5 "/>
<text text-anchor="start" x="471" y="-208.9" font-family="Times Roman,serif" font-size="14.00">configure_account_update_params</text>
<text text-anchor="start" x="471" y="-190.9" font-family="Times Roman,serif" font-size="14.00">configure_sign_up_params</text>
<polyline fill="none" stroke="black" points="463,-181.5 718,-181.5 "/>
<text text-anchor="start" x="471" y="-164.9" font-family="Times Roman,serif" font-size="14.00">_layout</text>
</g>
<!-- Api::V1::BaseApiController -->
<g id="node6" class="node"><title>Api::V1::BaseApiController</title>
<polyline fill="none" stroke="black" points="167,-155.5 415,-155.5 "/>
<path fill="none" stroke="black" d="M415,-155.5C421,-155.5 427,-161.5 427,-167.5"/>
<polyline fill="none" stroke="black" points="427,-167.5 427,-443.5 "/>
<path fill="none" stroke="black" d="M427,-443.5C427,-449.5 421,-455.5 415,-455.5"/>
<polyline fill="none" stroke="black" points="415,-455.5 167,-455.5 "/>
<path fill="none" stroke="black" d="M167,-455.5C161,-455.5 155,-449.5 155,-443.5"/>
<polyline fill="none" stroke="black" points="155,-443.5 155,-167.5 "/>
<path fill="none" stroke="black" d="M155,-167.5C155,-161.5 161,-155.5 167,-155.5"/>
<text text-anchor="middle" x="291" y="-438.9" font-family="Times Roman,serif" font-size="14.00">Api::V1::BaseApiController</text>
<polyline fill="none" stroke="black" points="155,-429.5 427,-429.5 "/>
<text text-anchor="start" x="163" y="-412.9" font-family="Times Roman,serif" font-size="14.00">me</text>
<text text-anchor="start" x="163" y="-394.9" font-family="Times Roman,serif" font-size="14.00">options</text>
<text text-anchor="start" x="163" y="-376.9" font-family="Times Roman,serif" font-size="14.00">version</text>
<polyline fill="none" stroke="black" points="155,-367.5 427,-367.5 "/>
<polyline fill="none" stroke="black" points="155,-343.5 427,-343.5 "/>
<text text-anchor="start" x="163" y="-326.9" font-family="Times Roman,serif" font-size="14.00">_layout</text>
<text text-anchor="start" x="163" y="-308.9" font-family="Times Roman,serif" font-size="14.00">authenticate_from_token!</text>
<text text-anchor="start" x="163" y="-290.9" font-family="Times Roman,serif" font-size="14.00">authenticate_user!</text>
<text text-anchor="start" x="163" y="-272.9" font-family="Times Roman,serif" font-size="14.00">get_params</text>
<text text-anchor="start" x="163" y="-254.9" font-family="Times Roman,serif" font-size="14.00">remove_empty_params_and_headers</text>
<text text-anchor="start" x="163" y="-236.9" font-family="Times Roman,serif" font-size="14.00">render_user</text>
<text text-anchor="start" x="163" y="-218.9" font-family="Times Roman,serif" font-size="14.00">set_custom_response_headers</text>
<text text-anchor="start" x="163" y="-200.9" font-family="Times Roman,serif" font-size="14.00">user_for_paper_trail</text>
<text text-anchor="start" x="163" y="-182.9" font-family="Times Roman,serif" font-size="14.00">verify_payload!</text>
<text text-anchor="start" x="163" y="-164.9" font-family="Times Roman,serif" font-size="14.00">verify_signature</text>
</g>
<!-- Api::V1::GraphqlController -->
<g id="node7" class="node"><title>Api::V1::GraphqlController</title>
<polyline fill="none" stroke="black" points="277,-507.5 452,-507.5 "/>
<path fill="none" stroke="black" d="M452,-507.5C458,-507.5 464,-513.5 464,-519.5"/>
<polyline fill="none" stroke="black" points="464,-519.5 464,-671.5 "/>
<path fill="none" stroke="black" d="M464,-671.5C464,-677.5 458,-683.5 452,-683.5"/>
<polyline fill="none" stroke="black" points="452,-683.5 277,-683.5 "/>
<path fill="none" stroke="black" d="M277,-683.5C271,-683.5 265,-677.5 265,-671.5"/>
<polyline fill="none" stroke="black" points="265,-671.5 265,-519.5 "/>
<path fill="none" stroke="black" d="M265,-519.5C265,-513.5 271,-507.5 277,-507.5"/>
<text text-anchor="middle" x="364.5" y="-666.9" font-family="Times Roman,serif" font-size="14.00">Api::V1::GraphqlController</text>
<polyline fill="none" stroke="black" points="265,-657.5 464,-657.5 "/>
<text text-anchor="start" x="273" y="-640.9" font-family="Times Roman,serif" font-size="14.00">create</text>
<polyline fill="none" stroke="black" points="265,-631.5 464,-631.5 "/>
<text text-anchor="start" x="273" y="-614.9" font-family="Times Roman,serif" font-size="14.00">ensure_hash</text>
<polyline fill="none" stroke="black" points="265,-605.5 464,-605.5 "/>
<text text-anchor="start" x="273" y="-588.9" font-family="Times Roman,serif" font-size="14.00">_layout</text>
<text text-anchor="start" x="273" y="-570.9" font-family="Times Roman,serif" font-size="14.00">load_ability</text>
<text text-anchor="start" x="273" y="-552.9" font-family="Times Roman,serif" font-size="14.00">load_context_team</text>
<text text-anchor="start" x="273" y="-534.9" font-family="Times Roman,serif" font-size="14.00">set_current_team</text>
<text text-anchor="start" x="273" y="-516.9" font-family="Times Roman,serif" font-size="14.00">set_current_user</text>
</g>
<!-- Api::V1::OmniauthCallbacksController -->
<g id="node8" class="node"><title>Api::V1::OmniauthCallbacksController</title>
<polyline fill="none" stroke="black" points="475,-353.5 728,-353.5 "/>
<path fill="none" stroke="black" d="M728,-353.5C734,-353.5 740,-359.5 740,-365.5"/>
<polyline fill="none" stroke="black" points="740,-365.5 740,-463.5 "/>
<path fill="none" stroke="black" d="M740,-463.5C740,-469.5 734,-475.5 728,-475.5"/>
<polyline fill="none" stroke="black" points="728,-475.5 475,-475.5 "/>
<path fill="none" stroke="black" d="M475,-475.5C469,-475.5 463,-469.5 463,-463.5"/>
<polyline fill="none" stroke="black" points="463,-463.5 463,-365.5 "/>
<path fill="none" stroke="black" d="M463,-365.5C463,-359.5 469,-353.5 475,-353.5"/>
<text text-anchor="middle" x="601.5" y="-458.9" font-family="Times Roman,serif" font-size="14.00">Api::V1::OmniauthCallbacksController</text>
<polyline fill="none" stroke="black" points="463,-449.5 740,-449.5 "/>
<text text-anchor="start" x="471" y="-432.9" font-family="Times Roman,serif" font-size="14.00">failure</text>
<text text-anchor="start" x="471" y="-414.9" font-family="Times Roman,serif" font-size="14.00">logout</text>
<polyline fill="none" stroke="black" points="463,-405.5 740,-405.5 "/>
<text text-anchor="start" x="471" y="-388.9" font-family="Times Roman,serif" font-size="14.00">start_session_and_redirect</text>
<polyline fill="none" stroke="black" points="463,-379.5 740,-379.5 "/>
<text text-anchor="start" x="471" y="-362.9" font-family="Times Roman,serif" font-size="14.00">_layout</text>
</g>
<!-- TestController -->
<g id="node9" class="node"><title>TestController</title>
<polyline fill="none" stroke="black" points="13,-1.5 141,-1.5 "/>
<path fill="none" stroke="black" d="M141,-1.5C147,-1.5 153,-7.5 153,-13.5"/>
<polyline fill="none" stroke="black" points="153,-13.5 153,-109.5 "/>
<path fill="none" stroke="black" d="M153,-109.5C153,-115.5 147,-121.5 141,-121.5"/>
<polyline fill="none" stroke="black" points="141,-121.5 13,-121.5 "/>
<path fill="none" stroke="black" d="M13,-121.5C7,-121.5 1,-115.5 1,-109.5"/>
<polyline fill="none" stroke="black" points="1,-109.5 1,-13.5 "/>
<path fill="none" stroke="black" d="M1,-13.5C1,-7.5 7,-1.5 13,-1.5"/>
<text text-anchor="middle" x="77" y="-104.9" font-family="Times Roman,serif" font-size="14.00">TestController</text>
<polyline fill="none" stroke="black" points="1,-95.5 153,-95.5 "/>
<text text-anchor="start" x="9" y="-78.9" font-family="Times Roman,serif" font-size="14.00">confirm_user</text>
<polyline fill="none" stroke="black" points="1,-69.5 153,-69.5 "/>
<polyline fill="none" stroke="black" points="1,-45.5 153,-45.5 "/>
<text text-anchor="start" x="9" y="-28.9" font-family="Times Roman,serif" font-size="14.00">_layout</text>
<text text-anchor="start" x="9" y="-10.9" font-family="Times Roman,serif" font-size="14.00">check_environment</text>
</g>
<!-- ApplicationController -->
<g id="node10" class="node"><title>ApplicationController</title>
<polyline fill="none" stroke="black" points="651,-639.5 790,-639.5 "/>
<path fill="none" stroke="black" d="M790,-639.5C796,-639.5 802,-645.5 802,-651.5"/>
<polyline fill="none" stroke="black" points="802,-651.5 802,-783.5 "/>
<path fill="none" stroke="black" d="M802,-783.5C802,-789.5 796,-795.5 790,-795.5"/>
<polyline fill="none" stroke="black" points="790,-795.5 651,-795.5 "/>
<path fill="none" stroke="black" d="M651,-795.5C645,-795.5 639,-789.5 639,-783.5"/>
<polyline fill="none" stroke="black" points="639,-783.5 639,-651.5 "/>
<path fill="none" stroke="black" d="M639,-651.5C639,-645.5 645,-639.5 651,-639.5"/>
<text text-anchor="middle" x="720.5" y="-778.9" font-family="Times Roman,serif" font-size="14.00">ApplicationController</text>
<polyline fill="none" stroke="black" points="639,-769.5 802,-769.5 "/>
<text text-anchor="start" x="647" y="-752.9" font-family="Times Roman,serif" font-size="14.00">authenticated?</text>
<polyline fill="none" stroke="black" points="639,-743.5 802,-743.5 "/>
<polyline fill="none" stroke="black" points="639,-719.5 802,-719.5 "/>
<text text-anchor="start" x="647" y="-702.9" font-family="Times Roman,serif" font-size="14.00">_layout</text>
<text text-anchor="start" x="647" y="-684.9" font-family="Times Roman,serif" font-size="14.00">render_error</text>
<text text-anchor="start" x="647" y="-666.9" font-family="Times Roman,serif" font-size="14.00">render_success</text>
<text text-anchor="start" x="647" y="-648.9" font-family="Times Roman,serif" font-size="14.00">render_unauthorized</text>
</g>
</g>
</svg>
