<?xml version="1.0" encoding="UTF-8" standalone="no"?>
<!DOCTYPE svg PUBLIC "-//W3C//DTD SVG 1.1//EN"
 "http://www.w3.org/Graphics/SVG/1.1/DTD/svg11.dtd">
<!-- Generated by graphviz version 2.26.3 (20100126.1600)
 -->
<!-- Title: controllers_diagram Pages: 1 -->
<svg width="595pt" height="781pt"
 viewBox="0.00 0.00 595.00 781.00" xmlns="http://www.w3.org/2000/svg" xmlns:xlink="http://www.w3.org/1999/xlink">
<g id="graph1" class="graph" transform="scale(1 1) rotate(0) translate(4 777)">
<title>controllers_diagram</title>
<polygon fill="none" stroke="none" points="-4,5 -4,-777 592,-777 592,5 -4,5"/>
<!-- _diagram_info -->
<g id="node1" class="node"><title>_diagram_info</title>
<text text-anchor="start" x="31" y="-562.3" font-family="Times Roman,serif" font-size="13.00">Controllers diagram</text>
<text text-anchor="start" x="31" y="-545.3" font-family="Times Roman,serif" font-size="13.00">Date: Jul 22 2016 &#45; 19:43</text>
<text text-anchor="start" x="31" y="-528.3" font-family="Times Roman,serif" font-size="13.00">Migration version: 20160719180034</text>
<text text-anchor="start" x="31" y="-511.3" font-family="Times Roman,serif" font-size="13.00">Generated by RailRoady 1.4.2</text>
<text text-anchor="start" x="31" y="-494.3" font-family="Times Roman,serif" font-size="13.00">http://railroady.prestonlee.com</text>
</g>
<!-- Api::V1::SessionsController -->
<g id="node2" class="node"><title>Api::V1::SessionsController</title>
<polyline fill="none" stroke="black" points="365,-507.5 544,-507.5 "/>
<path fill="none" stroke="black" d="M544,-507.5C550,-507.5 556,-513.5 556,-519.5"/>
<polyline fill="none" stroke="black" points="556,-519.5 556,-617.5 "/>
<path fill="none" stroke="black" d="M556,-617.5C556,-623.5 550,-629.5 544,-629.5"/>
<polyline fill="none" stroke="black" points="544,-629.5 365,-629.5 "/>
<path fill="none" stroke="black" d="M365,-629.5C359,-629.5 353,-623.5 353,-617.5"/>
<polyline fill="none" stroke="black" points="353,-617.5 353,-519.5 "/>
<path fill="none" stroke="black" d="M353,-519.5C353,-513.5 359,-507.5 365,-507.5"/>
<text text-anchor="middle" x="454.5" y="-612.9" font-family="Times Roman,serif" font-size="14.00">Api::V1::SessionsController</text>
<polyline fill="none" stroke="black" points="353,-603.5 556,-603.5 "/>
<text text-anchor="start" x="361" y="-586.9" font-family="Times Roman,serif" font-size="14.00">create</text>
<text text-anchor="start" x="361" y="-568.9" font-family="Times Roman,serif" font-size="14.00">destroy</text>
<polyline fill="none" stroke="black" points="353,-559.5 556,-559.5 "/>
<text text-anchor="start" x="361" y="-542.9" font-family="Times Roman,serif" font-size="14.00">configure_sign_in_params</text>
<polyline fill="none" stroke="black" points="353,-533.5 556,-533.5 "/>
<text text-anchor="start" x="361" y="-516.9" font-family="Times Roman,serif" font-size="14.00">_layout</text>
</g>
<!-- Api::V1::RegistrationsController -->
<g id="node3" class="node"><title>Api::V1::RegistrationsController</title>
<polyline fill="none" stroke="black" points="321,-155.5 552,-155.5 "/>
<path fill="none" stroke="black" d="M552,-155.5C558,-155.5 564,-161.5 564,-167.5"/>
<polyline fill="none" stroke="black" points="564,-167.5 564,-301.5 "/>
<path fill="none" stroke="black" d="M564,-301.5C564,-307.5 558,-313.5 552,-313.5"/>
<polyline fill="none" stroke="black" points="552,-313.5 321,-313.5 "/>
<path fill="none" stroke="black" d="M321,-313.5C315,-313.5 309,-307.5 309,-301.5"/>
<polyline fill="none" stroke="black" points="309,-301.5 309,-167.5 "/>
<path fill="none" stroke="black" d="M309,-167.5C309,-161.5 315,-155.5 321,-155.5"/>
<text text-anchor="middle" x="436.5" y="-296.9" font-family="Times Roman,serif" font-size="14.00">Api::V1::RegistrationsController</text>
<polyline fill="none" stroke="black" points="309,-287.5 564,-287.5 "/>
<text text-anchor="start" x="317" y="-270.9" font-family="Times Roman,serif" font-size="14.00">create</text>
<text text-anchor="start" x="317" y="-252.9" font-family="Times Roman,serif" font-size="14.00">destroy</text>
<text text-anchor="start" x="317" y="-234.9" font-family="Times Roman,serif" font-size="14.00">update</text>
<polyline fill="none" stroke="black" points="309,-225.5 564,-225.5 "/>
<text text-anchor="start" x="317" y="-208.9" font-family="Times Roman,serif" font-size="14.00">configure_account_update_params</text>
<text text-anchor="start" x="317" y="-190.9" font-family="Times Roman,serif" font-size="14.00">configure_sign_up_params</text>
<polyline fill="none" stroke="black" points="309,-181.5 564,-181.5 "/>
<text text-anchor="start" x="317" y="-164.9" font-family="Times Roman,serif" font-size="14.00">_layout</text>
</g>
<!-- Api::V1::BaseApiController -->
<g id="node4" class="node"><title>Api::V1::BaseApiController</title>
<polyline fill="none" stroke="black" points="13,-155.5 261,-155.5 "/>
<path fill="none" stroke="black" d="M261,-155.5C267,-155.5 273,-161.5 273,-167.5"/>
<polyline fill="none" stroke="black" points="273,-167.5 273,-425.5 "/>
<path fill="none" stroke="black" d="M273,-425.5C273,-431.5 267,-437.5 261,-437.5"/>
<polyline fill="none" stroke="black" points="261,-437.5 13,-437.5 "/>
<path fill="none" stroke="black" d="M13,-437.5C7,-437.5 1,-431.5 1,-425.5"/>
<polyline fill="none" stroke="black" points="1,-425.5 1,-167.5 "/>
<path fill="none" stroke="black" d="M1,-167.5C1,-161.5 7,-155.5 13,-155.5"/>
<text text-anchor="middle" x="137" y="-420.9" font-family="Times Roman,serif" font-size="14.00">Api::V1::BaseApiController</text>
<polyline fill="none" stroke="black" points="1,-411.5 273,-411.5 "/>
<text text-anchor="start" x="9" y="-394.9" font-family="Times Roman,serif" font-size="14.00">me</text>
<text text-anchor="start" x="9" y="-376.9" font-family="Times Roman,serif" font-size="14.00">options</text>
<text text-anchor="start" x="9" y="-358.9" font-family="Times Roman,serif" font-size="14.00">version</text>
<polyline fill="none" stroke="black" points="1,-349.5 273,-349.5 "/>
<polyline fill="none" stroke="black" points="1,-325.5 273,-325.5 "/>
<text text-anchor="start" x="9" y="-308.9" font-family="Times Roman,serif" font-size="14.00">_layout</text>
<text text-anchor="start" x="9" y="-290.9" font-family="Times Roman,serif" font-size="14.00">authenticate_from_token!</text>
<text text-anchor="start" x="9" y="-272.9" font-family="Times Roman,serif" font-size="14.00">authenticate_user!</text>
<text text-anchor="start" x="9" y="-254.9" font-family="Times Roman,serif" font-size="14.00">get_params</text>
<text text-anchor="start" x="9" y="-236.9" font-family="Times Roman,serif" font-size="14.00">remove_empty_params_and_headers</text>
<text text-anchor="start" x="9" y="-218.9" font-family="Times Roman,serif" font-size="14.00">set_access_headers</text>
<text text-anchor="start" x="9" y="-200.9" font-family="Times Roman,serif" font-size="14.00">set_custom_response_headers</text>
<text text-anchor="start" x="9" y="-182.9" font-family="Times Roman,serif" font-size="14.00">verify_payload!</text>
<text text-anchor="start" x="9" y="-164.9" font-family="Times Roman,serif" font-size="14.00">verify_signature</text>
</g>
<!-- Api::V1::GraphqlController -->
<g id="node5" class="node"><title>Api::V1::GraphqlController</title>
<polyline fill="none" stroke="black" points="167,-1.5 342,-1.5 "/>
<path fill="none" stroke="black" d="M342,-1.5C348,-1.5 354,-7.5 354,-13.5"/>
<polyline fill="none" stroke="black" points="354,-13.5 354,-91.5 "/>
<path fill="none" stroke="black" d="M354,-91.5C354,-97.5 348,-103.5 342,-103.5"/>
<polyline fill="none" stroke="black" points="342,-103.5 167,-103.5 "/>
<path fill="none" stroke="black" d="M167,-103.5C161,-103.5 155,-97.5 155,-91.5"/>
<polyline fill="none" stroke="black" points="155,-91.5 155,-13.5 "/>
<path fill="none" stroke="black" d="M155,-13.5C155,-7.5 161,-1.5 167,-1.5"/>
<text text-anchor="middle" x="254.5" y="-86.9" font-family="Times Roman,serif" font-size="14.00">Api::V1::GraphqlController</text>
<polyline fill="none" stroke="black" points="155,-77.5 354,-77.5 "/>
<text text-anchor="start" x="163" y="-60.9" font-family="Times Roman,serif" font-size="14.00">create</text>
<polyline fill="none" stroke="black" points="155,-51.5 354,-51.5 "/>
<polyline fill="none" stroke="black" points="155,-27.5 354,-27.5 "/>
<text text-anchor="start" x="163" y="-10.9" font-family="Times Roman,serif" font-size="14.00">_layout</text>
</g>
<!-- Api::V1::OmniauthCallbacksController -->
<g id="node6" class="node"><title>Api::V1::OmniauthCallbacksController</title>
<polyline fill="none" stroke="black" points="321,-353.5 574,-353.5 "/>
<path fill="none" stroke="black" d="M574,-353.5C580,-353.5 586,-359.5 586,-365.5"/>
<polyline fill="none" stroke="black" points="586,-365.5 586,-445.5 "/>
<path fill="none" stroke="black" d="M586,-445.5C586,-451.5 580,-457.5 574,-457.5"/>
<polyline fill="none" stroke="black" points="574,-457.5 321,-457.5 "/>
<path fill="none" stroke="black" d="M321,-457.5C315,-457.5 309,-451.5 309,-445.5"/>
<polyline fill="none" stroke="black" points="309,-445.5 309,-365.5 "/>
<path fill="none" stroke="black" d="M309,-365.5C309,-359.5 315,-353.5 321,-353.5"/>
<text text-anchor="middle" x="447.5" y="-440.9" font-family="Times Roman,serif" font-size="14.00">Api::V1::OmniauthCallbacksController</text>
<polyline fill="none" stroke="black" points="309,-431.5 586,-431.5 "/>
<text text-anchor="start" x="317" y="-414.9" font-family="Times Roman,serif" font-size="14.00">logout</text>
<polyline fill="none" stroke="black" points="309,-405.5 586,-405.5 "/>
<text text-anchor="start" x="317" y="-388.9" font-family="Times Roman,serif" font-size="14.00">start_session_and_redirect</text>
<polyline fill="none" stroke="black" points="309,-379.5 586,-379.5 "/>
<text text-anchor="start" x="317" y="-362.9" font-family="Times Roman,serif" font-size="14.00">_layout</text>
</g>
<!-- ApplicationController -->
<g id="node7" class="node"><title>ApplicationController</title>
<polyline fill="none" stroke="black" points="167,-617.5 306,-617.5 "/>
<path fill="none" stroke="black" d="M306,-617.5C312,-617.5 318,-623.5 318,-629.5"/>
<polyline fill="none" stroke="black" points="318,-629.5 318,-759.5 "/>
<path fill="none" stroke="black" d="M318,-759.5C318,-765.5 312,-771.5 306,-771.5"/>
<polyline fill="none" stroke="black" points="306,-771.5 167,-771.5 "/>
<path fill="none" stroke="black" d="M167,-771.5C161,-771.5 155,-765.5 155,-759.5"/>
<polyline fill="none" stroke="black" points="155,-759.5 155,-629.5 "/>
<path fill="none" stroke="black" d="M155,-629.5C155,-623.5 161,-617.5 167,-617.5"/>
<text text-anchor="middle" x="236.5" y="-754.9" font-family="Times Roman,serif" font-size="14.00">ApplicationController</text>
<polyline fill="none" stroke="black" points="155,-745.5 318,-745.5 "/>
<polyline fill="none" stroke="black" points="155,-721.5 318,-721.5 "/>
<polyline fill="none" stroke="black" points="155,-697.5 318,-697.5 "/>
<text text-anchor="start" x="163" y="-680.9" font-family="Times Roman,serif" font-size="14.00">_layout</text>
<text text-anchor="start" x="163" y="-662.9" font-family="Times Roman,serif" font-size="14.00">render_error</text>
<text text-anchor="start" x="163" y="-644.9" font-family="Times Roman,serif" font-size="14.00">render_success</text>
<text text-anchor="start" x="163" y="-626.9" font-family="Times Roman,serif" font-size="14.00">render_unauthorized</text>
</g>
</g>
</svg>
