<?xml version="1.0" encoding="UTF-8" standalone="no"?>
<!DOCTYPE svg PUBLIC "-//W3C//DTD SVG 1.1//EN"
 "http://www.w3.org/Graphics/SVG/1.1/DTD/svg11.dtd">
<!-- Generated by graphviz version 2.26.3 (20100126.1600)
 -->
<!-- Title: controllers_diagram Pages: 1 -->
<svg width="683pt" height="627pt"
 viewBox="0.00 0.00 683.00 627.00" xmlns="http://www.w3.org/2000/svg" xmlns:xlink="http://www.w3.org/1999/xlink">
<g id="graph1" class="graph" transform="scale(1 1) rotate(0) translate(4 623)">
<title>controllers_diagram</title>
<polygon fill="none" stroke="none" points="-4,5 -4,-623 680,-623 680,5 -4,5"/>
<!-- _diagram_info -->
<g id="node1" class="node"><title>_diagram_info</title>
<text text-anchor="start" x="119" y="-408.3" font-family="Times Roman,serif" font-size="13.00">Controllers diagram</text>
<text text-anchor="start" x="119" y="-391.3" font-family="Times Roman,serif" font-size="13.00">Date: Oct 10 2016 &#45; 08:23</text>
<text text-anchor="start" x="119" y="-374.3" font-family="Times Roman,serif" font-size="13.00">Migration version: 20161005170147</text>
<text text-anchor="start" x="119" y="-357.3" font-family="Times Roman,serif" font-size="13.00">Generated by RailRoady 1.5.1</text>
<text text-anchor="start" x="119" y="-340.3" font-family="Times Roman,serif" font-size="13.00">http://railroady.prestonlee.com</text>
</g>
<!-- Api::V1::SessionsController -->
<g id="node2" class="node"><title>Api::V1::SessionsController</title>
<polyline fill="none" stroke="black" points="453,-353.5 632,-353.5 "/>
<path fill="none" stroke="black" d="M632,-353.5C638,-353.5 644,-359.5 644,-365.5"/>
<polyline fill="none" stroke="black" points="644,-365.5 644,-463.5 "/>
<path fill="none" stroke="black" d="M644,-463.5C644,-469.5 638,-475.5 632,-475.5"/>
<polyline fill="none" stroke="black" points="632,-475.5 453,-475.5 "/>
<path fill="none" stroke="black" d="M453,-475.5C447,-475.5 441,-469.5 441,-463.5"/>
<polyline fill="none" stroke="black" points="441,-463.5 441,-365.5 "/>
<path fill="none" stroke="black" d="M441,-365.5C441,-359.5 447,-353.5 453,-353.5"/>
<text text-anchor="middle" x="542.5" y="-458.9" font-family="Times Roman,serif" font-size="14.00">Api::V1::SessionsController</text>
<polyline fill="none" stroke="black" points="441,-449.5 644,-449.5 "/>
<text text-anchor="start" x="449" y="-432.9" font-family="Times Roman,serif" font-size="14.00">create</text>
<text text-anchor="start" x="449" y="-414.9" font-family="Times Roman,serif" font-size="14.00">destroy</text>
<polyline fill="none" stroke="black" points="441,-405.5 644,-405.5 "/>
<text text-anchor="start" x="449" y="-388.9" font-family="Times Roman,serif" font-size="14.00">configure_sign_in_params</text>
<polyline fill="none" stroke="black" points="441,-379.5 644,-379.5 "/>
<text text-anchor="start" x="449" y="-362.9" font-family="Times Roman,serif" font-size="14.00">_layout</text>
</g>
<!-- Api::V1::RegistrationsController -->
<g id="node3" class="node"><title>Api::V1::RegistrationsController</title>
<polyline fill="none" stroke="black" points="409,-1.5 640,-1.5 "/>
<path fill="none" stroke="black" d="M640,-1.5C646,-1.5 652,-7.5 652,-13.5"/>
<polyline fill="none" stroke="black" points="652,-13.5 652,-147.5 "/>
<path fill="none" stroke="black" d="M652,-147.5C652,-153.5 646,-159.5 640,-159.5"/>
<polyline fill="none" stroke="black" points="640,-159.5 409,-159.5 "/>
<path fill="none" stroke="black" d="M409,-159.5C403,-159.5 397,-153.5 397,-147.5"/>
<polyline fill="none" stroke="black" points="397,-147.5 397,-13.5 "/>
<path fill="none" stroke="black" d="M397,-13.5C397,-7.5 403,-1.5 409,-1.5"/>
<text text-anchor="middle" x="524.5" y="-142.9" font-family="Times Roman,serif" font-size="14.00">Api::V1::RegistrationsController</text>
<polyline fill="none" stroke="black" points="397,-133.5 652,-133.5 "/>
<text text-anchor="start" x="405" y="-116.9" font-family="Times Roman,serif" font-size="14.00">create</text>
<text text-anchor="start" x="405" y="-98.9" font-family="Times Roman,serif" font-size="14.00">destroy</text>
<text text-anchor="start" x="405" y="-80.9" font-family="Times Roman,serif" font-size="14.00">update</text>
<polyline fill="none" stroke="black" points="397,-71.5 652,-71.5 "/>
<text text-anchor="start" x="405" y="-54.9" font-family="Times Roman,serif" font-size="14.00">configure_account_update_params</text>
<text text-anchor="start" x="405" y="-36.9" font-family="Times Roman,serif" font-size="14.00">configure_sign_up_params</text>
<polyline fill="none" stroke="black" points="397,-27.5 652,-27.5 "/>
<text text-anchor="start" x="405" y="-10.9" font-family="Times Roman,serif" font-size="14.00">_layout</text>
</g>
<!-- Api::V1::BaseApiController -->
<g id="node4" class="node"><title>Api::V1::BaseApiController</title>
<polyline fill="none" stroke="black" points="101,-1.5 349,-1.5 "/>
<path fill="none" stroke="black" d="M349,-1.5C355,-1.5 361,-7.5 361,-13.5"/>
<polyline fill="none" stroke="black" points="361,-13.5 361,-271.5 "/>
<path fill="none" stroke="black" d="M361,-271.5C361,-277.5 355,-283.5 349,-283.5"/>
<polyline fill="none" stroke="black" points="349,-283.5 101,-283.5 "/>
<path fill="none" stroke="black" d="M101,-283.5C95,-283.5 89,-277.5 89,-271.5"/>
<polyline fill="none" stroke="black" points="89,-271.5 89,-13.5 "/>
<path fill="none" stroke="black" d="M89,-13.5C89,-7.5 95,-1.5 101,-1.5"/>
<text text-anchor="middle" x="225" y="-266.9" font-family="Times Roman,serif" font-size="14.00">Api::V1::BaseApiController</text>
<polyline fill="none" stroke="black" points="89,-257.5 361,-257.5 "/>
<text text-anchor="start" x="97" y="-240.9" font-family="Times Roman,serif" font-size="14.00">me</text>
<text text-anchor="start" x="97" y="-222.9" font-family="Times Roman,serif" font-size="14.00">options</text>
<text text-anchor="start" x="97" y="-204.9" font-family="Times Roman,serif" font-size="14.00">version</text>
<polyline fill="none" stroke="black" points="89,-195.5 361,-195.5 "/>
<polyline fill="none" stroke="black" points="89,-171.5 361,-171.5 "/>
<text text-anchor="start" x="97" y="-154.9" font-family="Times Roman,serif" font-size="14.00">_layout</text>
<text text-anchor="start" x="97" y="-136.9" font-family="Times Roman,serif" font-size="14.00">authenticate_from_token!</text>
<text text-anchor="start" x="97" y="-118.9" font-family="Times Roman,serif" font-size="14.00">authenticate_user!</text>
<text text-anchor="start" x="97" y="-100.9" font-family="Times Roman,serif" font-size="14.00">get_params</text>
<text text-anchor="start" x="97" y="-82.9" font-family="Times Roman,serif" font-size="14.00">remove_empty_params_and_headers</text>
<text text-anchor="start" x="97" y="-64.9" font-family="Times Roman,serif" font-size="14.00">render_user</text>
<text text-anchor="start" x="97" y="-46.9" font-family="Times Roman,serif" font-size="14.00">set_custom_response_headers</text>
<text text-anchor="start" x="97" y="-28.9" font-family="Times Roman,serif" font-size="14.00">verify_payload!</text>
<text text-anchor="start" x="97" y="-10.9" font-family="Times Roman,serif" font-size="14.00">verify_signature</text>
</g>
<!-- Api::V1::GraphqlController -->
<g id="node5" class="node"><title>Api::V1::GraphqlController</title>
<polyline fill="none" stroke="black" points="211,-463.5 386,-463.5 "/>
<path fill="none" stroke="black" d="M386,-463.5C392,-463.5 398,-469.5 398,-475.5"/>
<polyline fill="none" stroke="black" points="398,-475.5 398,-589.5 "/>
<path fill="none" stroke="black" d="M398,-589.5C398,-595.5 392,-601.5 386,-601.5"/>
<polyline fill="none" stroke="black" points="386,-601.5 211,-601.5 "/>
<path fill="none" stroke="black" d="M211,-601.5C205,-601.5 199,-595.5 199,-589.5"/>
<polyline fill="none" stroke="black" points="199,-589.5 199,-475.5 "/>
<path fill="none" stroke="black" d="M199,-475.5C199,-469.5 205,-463.5 211,-463.5"/>
<text text-anchor="middle" x="298.5" y="-584.9" font-family="Times Roman,serif" font-size="14.00">Api::V1::GraphqlController</text>
<polyline fill="none" stroke="black" points="199,-575.5 398,-575.5 "/>
<text text-anchor="start" x="207" y="-558.9" font-family="Times Roman,serif" font-size="14.00">create</text>
<polyline fill="none" stroke="black" points="199,-549.5 398,-549.5 "/>
<polyline fill="none" stroke="black" points="199,-525.5 398,-525.5 "/>
<text text-anchor="start" x="207" y="-508.9" font-family="Times Roman,serif" font-size="14.00">_layout</text>
<text text-anchor="start" x="207" y="-490.9" font-family="Times Roman,serif" font-size="14.00">load_context_team</text>
<text text-anchor="start" x="207" y="-472.9" font-family="Times Roman,serif" font-size="14.00">set_current_team</text>
</g>
<!-- Api::V1::OmniauthCallbacksController -->
<g id="node6" class="node"><title>Api::V1::OmniauthCallbacksController</title>
<polyline fill="none" stroke="black" points="409,-199.5 662,-199.5 "/>
<path fill="none" stroke="black" d="M662,-199.5C668,-199.5 674,-205.5 674,-211.5"/>
<polyline fill="none" stroke="black" points="674,-211.5 674,-291.5 "/>
<path fill="none" stroke="black" d="M674,-291.5C674,-297.5 668,-303.5 662,-303.5"/>
<polyline fill="none" stroke="black" points="662,-303.5 409,-303.5 "/>
<path fill="none" stroke="black" d="M409,-303.5C403,-303.5 397,-297.5 397,-291.5"/>
<polyline fill="none" stroke="black" points="397,-291.5 397,-211.5 "/>
<path fill="none" stroke="black" d="M397,-211.5C397,-205.5 403,-199.5 409,-199.5"/>
<text text-anchor="middle" x="535.5" y="-286.9" font-family="Times Roman,serif" font-size="14.00">Api::V1::OmniauthCallbacksController</text>
<polyline fill="none" stroke="black" points="397,-277.5 674,-277.5 "/>
<text text-anchor="start" x="405" y="-260.9" font-family="Times Roman,serif" font-size="14.00">logout</text>
<polyline fill="none" stroke="black" points="397,-251.5 674,-251.5 "/>
<text text-anchor="start" x="405" y="-234.9" font-family="Times Roman,serif" font-size="14.00">start_session_and_redirect</text>
<polyline fill="none" stroke="black" points="397,-225.5 674,-225.5 "/>
<text text-anchor="start" x="405" y="-208.9" font-family="Times Roman,serif" font-size="14.00">_layout</text>
</g>
<!-- ApplicationController -->
<g id="node7" class="node"><title>ApplicationController</title>
<polyline fill="none" stroke="black" points="13,-463.5 152,-463.5 "/>
<path fill="none" stroke="black" d="M152,-463.5C158,-463.5 164,-469.5 164,-475.5"/>
<polyline fill="none" stroke="black" points="164,-475.5 164,-605.5 "/>
<path fill="none" stroke="black" d="M164,-605.5C164,-611.5 158,-617.5 152,-617.5"/>
<polyline fill="none" stroke="black" points="152,-617.5 13,-617.5 "/>
<path fill="none" stroke="black" d="M13,-617.5C7,-617.5 1,-611.5 1,-605.5"/>
<polyline fill="none" stroke="black" points="1,-605.5 1,-475.5 "/>
<path fill="none" stroke="black" d="M1,-475.5C1,-469.5 7,-463.5 13,-463.5"/>
<text text-anchor="middle" x="82.5" y="-600.9" font-family="Times Roman,serif" font-size="14.00">ApplicationController</text>
<polyline fill="none" stroke="black" points="1,-591.5 164,-591.5 "/>
<polyline fill="none" stroke="black" points="1,-567.5 164,-567.5 "/>
<polyline fill="none" stroke="black" points="1,-543.5 164,-543.5 "/>
<text text-anchor="start" x="9" y="-526.9" font-family="Times Roman,serif" font-size="14.00">_layout</text>
<text text-anchor="start" x="9" y="-508.9" font-family="Times Roman,serif" font-size="14.00">render_error</text>
<text text-anchor="start" x="9" y="-490.9" font-family="Times Roman,serif" font-size="14.00">render_success</text>
<text text-anchor="start" x="9" y="-472.9" font-family="Times Roman,serif" font-size="14.00">render_unauthorized</text>
</g>
</g>
</svg>
