<?xml version="1.0" encoding="UTF-8" standalone="no"?>
<!DOCTYPE svg PUBLIC "-//W3C//DTD SVG 1.1//EN"
 "http://www.w3.org/Graphics/SVG/1.1/DTD/svg11.dtd">
<!-- Generated by graphviz version 2.26.3 (20100126.1600)
 -->
<!-- Title: controllers_diagram Pages: 1 -->
<svg width="743pt" height="671pt"
 viewBox="0.00 0.00 743.00 671.00" xmlns="http://www.w3.org/2000/svg" xmlns:xlink="http://www.w3.org/1999/xlink">
<g id="graph1" class="graph" transform="scale(1 1) rotate(0) translate(4 667)">
<title>controllers_diagram</title>
<polygon fill="none" stroke="none" points="-4,5 -4,-667 740,-667 740,5 -4,5"/>
<!-- _diagram_info -->
<g id="node1" class="node"><title>_diagram_info</title>
<text text-anchor="start" x="492" y="-285.3" font-family="Times Roman,serif" font-size="13.00">Controllers diagram</text>
<text text-anchor="start" x="492" y="-268.3" font-family="Times Roman,serif" font-size="13.00">Date: Nov 02 2016 &#45; 09:55</text>
<text text-anchor="start" x="492" y="-251.3" font-family="Times Roman,serif" font-size="13.00">Migration version: 20161029004335</text>
<text text-anchor="start" x="492" y="-234.3" font-family="Times Roman,serif" font-size="13.00">Generated by RailRoady 1.5.2</text>
<text text-anchor="start" x="492" y="-217.3" font-family="Times Roman,serif" font-size="13.00">http://railroady.prestonlee.com</text>
</g>
<!-- Api::V1::SessionsController -->
<g id="node2" class="node"><title>Api::V1::SessionsController</title>
<polyline fill="none" stroke="black" points="220,-507.5 399,-507.5 "/>
<path fill="none" stroke="black" d="M399,-507.5C405,-507.5 411,-513.5 411,-519.5"/>
<polyline fill="none" stroke="black" points="411,-519.5 411,-617.5 "/>
<path fill="none" stroke="black" d="M411,-617.5C411,-623.5 405,-629.5 399,-629.5"/>
<polyline fill="none" stroke="black" points="399,-629.5 220,-629.5 "/>
<path fill="none" stroke="black" d="M220,-629.5C214,-629.5 208,-623.5 208,-617.5"/>
<polyline fill="none" stroke="black" points="208,-617.5 208,-519.5 "/>
<path fill="none" stroke="black" d="M208,-519.5C208,-513.5 214,-507.5 220,-507.5"/>
<text text-anchor="middle" x="309.5" y="-612.9" font-family="Times Roman,serif" font-size="14.00">Api::V1::SessionsController</text>
<polyline fill="none" stroke="black" points="208,-603.5 411,-603.5 "/>
<text text-anchor="start" x="216" y="-586.9" font-family="Times Roman,serif" font-size="14.00">create</text>
<text text-anchor="start" x="216" y="-568.9" font-family="Times Roman,serif" font-size="14.00">destroy</text>
<polyline fill="none" stroke="black" points="208,-559.5 411,-559.5 "/>
<text text-anchor="start" x="216" y="-542.9" font-family="Times Roman,serif" font-size="14.00">configure_sign_in_params</text>
<polyline fill="none" stroke="black" points="208,-533.5 411,-533.5 "/>
<text text-anchor="start" x="216" y="-516.9" font-family="Times Roman,serif" font-size="14.00">_layout</text>
</g>
<!-- Api::V1::RegistrationsController -->
<g id="node3" class="node"><title>Api::V1::RegistrationsController</title>
<polyline fill="none" stroke="black" points="473,-346.5 704,-346.5 "/>
<path fill="none" stroke="black" d="M704,-346.5C710,-346.5 716,-352.5 716,-358.5"/>
<polyline fill="none" stroke="black" points="716,-358.5 716,-492.5 "/>
<path fill="none" stroke="black" d="M716,-492.5C716,-498.5 710,-504.5 704,-504.5"/>
<polyline fill="none" stroke="black" points="704,-504.5 473,-504.5 "/>
<path fill="none" stroke="black" d="M473,-504.5C467,-504.5 461,-498.5 461,-492.5"/>
<polyline fill="none" stroke="black" points="461,-492.5 461,-358.5 "/>
<path fill="none" stroke="black" d="M461,-358.5C461,-352.5 467,-346.5 473,-346.5"/>
<text text-anchor="middle" x="588.5" y="-487.9" font-family="Times Roman,serif" font-size="14.00">Api::V1::RegistrationsController</text>
<polyline fill="none" stroke="black" points="461,-478.5 716,-478.5 "/>
<text text-anchor="start" x="469" y="-461.9" font-family="Times Roman,serif" font-size="14.00">create</text>
<text text-anchor="start" x="469" y="-443.9" font-family="Times Roman,serif" font-size="14.00">destroy</text>
<text text-anchor="start" x="469" y="-425.9" font-family="Times Roman,serif" font-size="14.00">update</text>
<polyline fill="none" stroke="black" points="461,-416.5 716,-416.5 "/>
<text text-anchor="start" x="469" y="-399.9" font-family="Times Roman,serif" font-size="14.00">configure_account_update_params</text>
<text text-anchor="start" x="469" y="-381.9" font-family="Times Roman,serif" font-size="14.00">configure_sign_up_params</text>
<polyline fill="none" stroke="black" points="461,-372.5 716,-372.5 "/>
<text text-anchor="start" x="469" y="-355.9" font-family="Times Roman,serif" font-size="14.00">_layout</text>
</g>
<!-- Api::V1::BaseApiController -->
<g id="node4" class="node"><title>Api::V1::BaseApiController</title>
<polyline fill="none" stroke="black" points="174,-24.5 422,-24.5 "/>
<path fill="none" stroke="black" d="M422,-24.5C428,-24.5 434,-30.5 434,-36.5"/>
<polyline fill="none" stroke="black" points="434,-36.5 434,-294.5 "/>
<path fill="none" stroke="black" d="M434,-294.5C434,-300.5 428,-306.5 422,-306.5"/>
<polyline fill="none" stroke="black" points="422,-306.5 174,-306.5 "/>
<path fill="none" stroke="black" d="M174,-306.5C168,-306.5 162,-300.5 162,-294.5"/>
<polyline fill="none" stroke="black" points="162,-294.5 162,-36.5 "/>
<path fill="none" stroke="black" d="M162,-36.5C162,-30.5 168,-24.5 174,-24.5"/>
<text text-anchor="middle" x="298" y="-289.9" font-family="Times Roman,serif" font-size="14.00">Api::V1::BaseApiController</text>
<polyline fill="none" stroke="black" points="162,-280.5 434,-280.5 "/>
<text text-anchor="start" x="170" y="-263.9" font-family="Times Roman,serif" font-size="14.00">me</text>
<text text-anchor="start" x="170" y="-245.9" font-family="Times Roman,serif" font-size="14.00">options</text>
<text text-anchor="start" x="170" y="-227.9" font-family="Times Roman,serif" font-size="14.00">version</text>
<polyline fill="none" stroke="black" points="162,-218.5 434,-218.5 "/>
<polyline fill="none" stroke="black" points="162,-194.5 434,-194.5 "/>
<text text-anchor="start" x="170" y="-177.9" font-family="Times Roman,serif" font-size="14.00">_layout</text>
<text text-anchor="start" x="170" y="-159.9" font-family="Times Roman,serif" font-size="14.00">authenticate_from_token!</text>
<text text-anchor="start" x="170" y="-141.9" font-family="Times Roman,serif" font-size="14.00">authenticate_user!</text>
<text text-anchor="start" x="170" y="-123.9" font-family="Times Roman,serif" font-size="14.00">get_params</text>
<text text-anchor="start" x="170" y="-105.9" font-family="Times Roman,serif" font-size="14.00">remove_empty_params_and_headers</text>
<text text-anchor="start" x="170" y="-87.9" font-family="Times Roman,serif" font-size="14.00">render_user</text>
<text text-anchor="start" x="170" y="-69.9" font-family="Times Roman,serif" font-size="14.00">set_custom_response_headers</text>
<text text-anchor="start" x="170" y="-51.9" font-family="Times Roman,serif" font-size="14.00">verify_payload!</text>
<text text-anchor="start" x="170" y="-33.9" font-family="Times Roman,serif" font-size="14.00">verify_signature</text>
</g>
<!-- Api::V1::GraphqlController -->
<g id="node5" class="node"><title>Api::V1::GraphqlController</title>
<polyline fill="none" stroke="black" points="496,-1.5 671,-1.5 "/>
<path fill="none" stroke="black" d="M671,-1.5C677,-1.5 683,-7.5 683,-13.5"/>
<polyline fill="none" stroke="black" points="683,-13.5 683,-145.5 "/>
<path fill="none" stroke="black" d="M683,-145.5C683,-151.5 677,-157.5 671,-157.5"/>
<polyline fill="none" stroke="black" points="671,-157.5 496,-157.5 "/>
<path fill="none" stroke="black" d="M496,-157.5C490,-157.5 484,-151.5 484,-145.5"/>
<polyline fill="none" stroke="black" points="484,-145.5 484,-13.5 "/>
<path fill="none" stroke="black" d="M484,-13.5C484,-7.5 490,-1.5 496,-1.5"/>
<text text-anchor="middle" x="583.5" y="-140.9" font-family="Times Roman,serif" font-size="14.00">Api::V1::GraphqlController</text>
<polyline fill="none" stroke="black" points="484,-131.5 683,-131.5 "/>
<text text-anchor="start" x="492" y="-114.9" font-family="Times Roman,serif" font-size="14.00">create</text>
<polyline fill="none" stroke="black" points="484,-105.5 683,-105.5 "/>
<polyline fill="none" stroke="black" points="484,-81.5 683,-81.5 "/>
<text text-anchor="start" x="492" y="-64.9" font-family="Times Roman,serif" font-size="14.00">_layout</text>
<text text-anchor="start" x="492" y="-46.9" font-family="Times Roman,serif" font-size="14.00">load_context_project</text>
<text text-anchor="start" x="492" y="-28.9" font-family="Times Roman,serif" font-size="14.00">load_context_team</text>
<text text-anchor="start" x="492" y="-10.9" font-family="Times Roman,serif" font-size="14.00">set_current_team</text>
</g>
<!-- Api::V1::OmniauthCallbacksController -->
<g id="node6" class="node"><title>Api::V1::OmniauthCallbacksController</title>
<polyline fill="none" stroke="black" points="151,-346.5 404,-346.5 "/>
<path fill="none" stroke="black" d="M404,-346.5C410,-346.5 416,-352.5 416,-358.5"/>
<polyline fill="none" stroke="black" points="416,-358.5 416,-456.5 "/>
<path fill="none" stroke="black" d="M416,-456.5C416,-462.5 410,-468.5 404,-468.5"/>
<polyline fill="none" stroke="black" points="404,-468.5 151,-468.5 "/>
<path fill="none" stroke="black" d="M151,-468.5C145,-468.5 139,-462.5 139,-456.5"/>
<polyline fill="none" stroke="black" points="139,-456.5 139,-358.5 "/>
<path fill="none" stroke="black" d="M139,-358.5C139,-352.5 145,-346.5 151,-346.5"/>
<text text-anchor="middle" x="277.5" y="-451.9" font-family="Times Roman,serif" font-size="14.00">Api::V1::OmniauthCallbacksController</text>
<polyline fill="none" stroke="black" points="139,-442.5 416,-442.5 "/>
<text text-anchor="start" x="147" y="-425.9" font-family="Times Roman,serif" font-size="14.00">failure</text>
<text text-anchor="start" x="147" y="-407.9" font-family="Times Roman,serif" font-size="14.00">logout</text>
<polyline fill="none" stroke="black" points="139,-398.5 416,-398.5 "/>
<text text-anchor="start" x="147" y="-381.9" font-family="Times Roman,serif" font-size="14.00">start_session_and_redirect</text>
<polyline fill="none" stroke="black" points="139,-372.5 416,-372.5 "/>
<text text-anchor="start" x="147" y="-355.9" font-family="Times Roman,serif" font-size="14.00">_layout</text>
</g>
<!-- ApplicationController -->
<g id="node7" class="node"><title>ApplicationController</title>
<polyline fill="none" stroke="black" points="13,-507.5 152,-507.5 "/>
<path fill="none" stroke="black" d="M152,-507.5C158,-507.5 164,-513.5 164,-519.5"/>
<polyline fill="none" stroke="black" points="164,-519.5 164,-649.5 "/>
<path fill="none" stroke="black" d="M164,-649.5C164,-655.5 158,-661.5 152,-661.5"/>
<polyline fill="none" stroke="black" points="152,-661.5 13,-661.5 "/>
<path fill="none" stroke="black" d="M13,-661.5C7,-661.5 1,-655.5 1,-649.5"/>
<polyline fill="none" stroke="black" points="1,-649.5 1,-519.5 "/>
<path fill="none" stroke="black" d="M1,-519.5C1,-513.5 7,-507.5 13,-507.5"/>
<text text-anchor="middle" x="82.5" y="-644.9" font-family="Times Roman,serif" font-size="14.00">ApplicationController</text>
<polyline fill="none" stroke="black" points="1,-635.5 164,-635.5 "/>
<polyline fill="none" stroke="black" points="1,-611.5 164,-611.5 "/>
<polyline fill="none" stroke="black" points="1,-587.5 164,-587.5 "/>
<text text-anchor="start" x="9" y="-570.9" font-family="Times Roman,serif" font-size="14.00">_layout</text>
<text text-anchor="start" x="9" y="-552.9" font-family="Times Roman,serif" font-size="14.00">render_error</text>
<text text-anchor="start" x="9" y="-534.9" font-family="Times Roman,serif" font-size="14.00">render_success</text>
<text text-anchor="start" x="9" y="-516.9" font-family="Times Roman,serif" font-size="14.00">render_unauthorized</text>
</g>
</g>
</svg>
