<?xml version="1.0" encoding="UTF-8" standalone="no"?>
<!DOCTYPE svg PUBLIC "-//W3C//DTD SVG 1.1//EN"
 "http://www.w3.org/Graphics/SVG/1.1/DTD/svg11.dtd">
<!-- Generated by graphviz version 2.36.0 (20140111.2315)
 -->
<!-- Title: controllers_diagram Pages: 1 -->
<svg width="1192pt" height="1106pt"
 viewBox="0.00 0.00 1192.00 1106.00" xmlns="http://www.w3.org/2000/svg" xmlns:xlink="http://www.w3.org/1999/xlink">
<g id="graph0" class="graph" transform="scale(1 1) rotate(0) translate(4 1102)">
<title>controllers_diagram</title>
<polygon fill="none" stroke="none" points="-4,4 -4,-1102 1188,-1102 1188,4 -4,4"/>
<!-- _diagram_info -->
<g id="node1" class="node"><title>_diagram_info</title>
<text text-anchor="start" x="8" y="-399.6" font-family="Times,serif" font-size="13.00">Controllers diagram</text>
<text text-anchor="start" x="8" y="-385.6" font-family="Times,serif" font-size="13.00">Date: Jun 25 2019 &#45; 14:07</text>
<text text-anchor="start" x="8" y="-371.6" font-family="Times,serif" font-size="13.00">Migration version: 20190620211111</text>
<text text-anchor="start" x="8" y="-357.6" font-family="Times,serif" font-size="13.00">Generated by RailRoady 1.5.2</text>
<text text-anchor="start" x="8" y="-343.6" font-family="Times,serif" font-size="13.00">http://railroady.prestonlee.com</text>
</g>
<!-- Api::V1::BaseApiController -->
<g id="node2" class="node"><title>Api::V1::BaseApiController</title>
<path fill="none" stroke="black" d="M636,-336.5C636,-336.5 893,-336.5 893,-336.5 899,-336.5 905,-342.5 905,-348.5 905,-348.5 905,-627.5 905,-627.5 905,-633.5 899,-639.5 893,-639.5 893,-639.5 636,-639.5 636,-639.5 630,-639.5 624,-633.5 624,-627.5 624,-627.5 624,-348.5 624,-348.5 624,-342.5 630,-336.5 636,-336.5"/>
<text text-anchor="middle" x="764.5" y="-624.3" font-family="Times,serif" font-size="14.00">Api::V1::BaseApiController</text>
<polyline fill="none" stroke="black" points="624,-616.5 905,-616.5 "/>
<text text-anchor="start" x="632" y="-601.3" font-family="Times,serif" font-size="14.00">log</text>
<text text-anchor="start" x="632" y="-586.3" font-family="Times,serif" font-size="14.00">me</text>
<text text-anchor="start" x="632" y="-571.3" font-family="Times,serif" font-size="14.00">options</text>
<text text-anchor="start" x="632" y="-556.3" font-family="Times,serif" font-size="14.00">ping</text>
<text text-anchor="start" x="632" y="-541.3" font-family="Times,serif" font-size="14.00">version</text>
<polyline fill="none" stroke="black" points="624,-533.5 905,-533.5 "/>
<polyline fill="none" stroke="black" points="624,-509.5 905,-509.5 "/>
<text text-anchor="start" x="632" y="-494.3" font-family="Times,serif" font-size="14.00">_layout</text>
<text text-anchor="start" x="632" y="-479.3" font-family="Times,serif" font-size="14.00">authenticate_from_token!</text>
<text text-anchor="start" x="632" y="-464.3" font-family="Times,serif" font-size="14.00">authenticate_user</text>
<text text-anchor="start" x="632" y="-449.3" font-family="Times,serif" font-size="14.00">authenticate_user!</text>
<text text-anchor="start" x="632" y="-434.3" font-family="Times,serif" font-size="14.00">identify_user</text>
<text text-anchor="start" x="632" y="-419.3" font-family="Times,serif" font-size="14.00">remove_empty_params_and_headers</text>
<text text-anchor="start" x="632" y="-404.3" font-family="Times,serif" font-size="14.00">render_error_message</text>
<text text-anchor="start" x="632" y="-389.3" font-family="Times,serif" font-size="14.00">render_user</text>
<text text-anchor="start" x="632" y="-374.3" font-family="Times,serif" font-size="14.00">set_custom_response_headers</text>
<text text-anchor="start" x="632" y="-359.3" font-family="Times,serif" font-size="14.00">store_request</text>
<text text-anchor="start" x="632" y="-344.3" font-family="Times,serif" font-size="14.00">user_for_paper_trail</text>
</g>
<!-- Api::V1::RegistrationsController -->
<g id="node3" class="node"><title>Api::V1::RegistrationsController</title>
<path fill="none" stroke="black" d="M924,-960.5C924,-960.5 1166,-960.5 1166,-960.5 1172,-960.5 1178,-966.5 1178,-972.5 1178,-972.5 1178,-1085.5 1178,-1085.5 1178,-1091.5 1172,-1097.5 1166,-1097.5 1166,-1097.5 924,-1097.5 924,-1097.5 918,-1097.5 912,-1091.5 912,-1085.5 912,-1085.5 912,-972.5 912,-972.5 912,-966.5 918,-960.5 924,-960.5"/>
<text text-anchor="middle" x="1045" y="-1082.3" font-family="Times,serif" font-size="14.00">Api::V1::RegistrationsController</text>
<polyline fill="none" stroke="black" points="912,-1074.5 1178,-1074.5 "/>
<text text-anchor="start" x="920" y="-1059.3" font-family="Times,serif" font-size="14.00">create</text>
<text text-anchor="start" x="920" y="-1044.3" font-family="Times,serif" font-size="14.00">destroy</text>
<text text-anchor="start" x="920" y="-1029.3" font-family="Times,serif" font-size="14.00">update</text>
<polyline fill="none" stroke="black" points="912,-1021.5 1178,-1021.5 "/>
<text text-anchor="start" x="920" y="-1006.3" font-family="Times,serif" font-size="14.00">configure_account_update_params</text>
<text text-anchor="start" x="920" y="-991.3" font-family="Times,serif" font-size="14.00">configure_sign_up_params</text>
<polyline fill="none" stroke="black" points="912,-983.5 1178,-983.5 "/>
<text text-anchor="start" x="920" y="-968.3" font-family="Times,serif" font-size="14.00">_layout</text>
</g>
<!-- Api::V1::OmniauthCallbacksController -->
<g id="node4" class="node"><title>Api::V1::OmniauthCallbacksController</title>
<path fill="none" stroke="black" d="M84,-120.5C84,-120.5 353,-120.5 353,-120.5 359,-120.5 365,-126.5 365,-132.5 365,-132.5 365,-245.5 365,-245.5 365,-251.5 359,-257.5 353,-257.5 353,-257.5 84,-257.5 84,-257.5 78,-257.5 72,-251.5 72,-245.5 72,-245.5 72,-132.5 72,-132.5 72,-126.5 78,-120.5 84,-120.5"/>
<text text-anchor="middle" x="218.5" y="-242.3" font-family="Times,serif" font-size="14.00">Api::V1::OmniauthCallbacksController</text>
<polyline fill="none" stroke="black" points="72,-234.5 365,-234.5 "/>
<text text-anchor="start" x="80" y="-219.3" font-family="Times,serif" font-size="14.00">failure</text>
<text text-anchor="start" x="80" y="-204.3" font-family="Times,serif" font-size="14.00">logout</text>
<polyline fill="none" stroke="black" points="72,-196.5 365,-196.5 "/>
<text text-anchor="start" x="80" y="-181.3" font-family="Times,serif" font-size="14.00">get_check_destination</text>
<text text-anchor="start" x="80" y="-166.3" font-family="Times,serif" font-size="14.00">sign_in_options</text>
<text text-anchor="start" x="80" y="-151.3" font-family="Times,serif" font-size="14.00">start_session_and_redirect</text>
<polyline fill="none" stroke="black" points="72,-143.5 365,-143.5 "/>
<text text-anchor="start" x="80" y="-128.3" font-family="Times,serif" font-size="14.00">_layout</text>
</g>
<!-- Api::V1::ProjectMediasController -->
<g id="node5" class="node"><title>Api::V1::ProjectMediasController</title>
<path fill="none" stroke="black" d="M12,-600.5C12,-600.5 244,-600.5 244,-600.5 250,-600.5 256,-606.5 256,-612.5 256,-612.5 256,-696.5 256,-696.5 256,-702.5 250,-708.5 244,-708.5 244,-708.5 12,-708.5 12,-708.5 6,-708.5 0,-702.5 0,-696.5 0,-696.5 0,-612.5 0,-612.5 0,-606.5 6,-600.5 12,-600.5"/>
<text text-anchor="middle" x="128" y="-693.3" font-family="Times,serif" font-size="14.00">Api::V1::ProjectMediasController</text>
<polyline fill="none" stroke="black" points="0,-685.5 256,-685.5 "/>
<text text-anchor="start" x="8" y="-670.3" font-family="Times,serif" font-size="14.00">oembed</text>
<polyline fill="none" stroke="black" points="0,-662.5 256,-662.5 "/>
<polyline fill="none" stroke="black" points="0,-638.5 256,-638.5 "/>
<text text-anchor="start" x="8" y="-623.3" font-family="Times,serif" font-size="14.00">_layout</text>
<text text-anchor="start" x="8" y="-608.3" font-family="Times,serif" font-size="14.00">allow_iframe</text>
</g>
<!-- Api::V1::AdminController -->
<g id="node6" class="node"><title>Api::V1::AdminController</title>
<path fill="none" stroke="black" d="M732,-0.5C732,-0.5 906,-0.5 906,-0.5 912,-0.5 918,-6.5 918,-12.5 918,-12.5 918,-96.5 918,-96.5 918,-102.5 912,-108.5 906,-108.5 906,-108.5 732,-108.5 732,-108.5 726,-108.5 720,-102.5 720,-96.5 720,-96.5 720,-12.5 720,-12.5 720,-6.5 726,-0.5 732,-0.5"/>
<text text-anchor="middle" x="819" y="-93.3" font-family="Times,serif" font-size="14.00">Api::V1::AdminController</text>
<polyline fill="none" stroke="black" points="720,-85.5 918,-85.5 "/>
<text text-anchor="start" x="728" y="-70.3" font-family="Times,serif" font-size="14.00">add_publisher_to_project</text>
<text text-anchor="start" x="728" y="-55.3" font-family="Times,serif" font-size="14.00">slack_user</text>
<polyline fill="none" stroke="black" points="720,-47.5 918,-47.5 "/>
<polyline fill="none" stroke="black" points="720,-23.5 918,-23.5 "/>
<text text-anchor="start" x="728" y="-8.3" font-family="Times,serif" font-size="14.00">_layout</text>
</g>
<!-- Api::V1::GraphqlController -->
<g id="node7" class="node"><title>Api::V1::GraphqlController</title>
<path fill="none" stroke="black" d="M396,-720.5C396,-720.5 581,-720.5 581,-720.5 587,-720.5 593,-726.5 593,-732.5 593,-732.5 593,-965.5 593,-965.5 593,-971.5 587,-977.5 581,-977.5 581,-977.5 396,-977.5 396,-977.5 390,-977.5 384,-971.5 384,-965.5 384,-965.5 384,-732.5 384,-732.5 384,-726.5 390,-720.5 396,-720.5"/>
<text text-anchor="middle" x="488.5" y="-962.3" font-family="Times,serif" font-size="14.00">Api::V1::GraphqlController</text>
<polyline fill="none" stroke="black" points="384,-954.5 593,-954.5 "/>
<text text-anchor="start" x="392" y="-939.3" font-family="Times,serif" font-size="14.00">create</text>
<polyline fill="none" stroke="black" points="384,-931.5 593,-931.5 "/>
<text text-anchor="start" x="392" y="-916.3" font-family="Times,serif" font-size="14.00">ensure_hash</text>
<text text-anchor="start" x="392" y="-901.3" font-family="Times,serif" font-size="14.00">format_error_message</text>
<text text-anchor="start" x="392" y="-886.3" font-family="Times,serif" font-size="14.00">parse_json_exception</text>
<polyline fill="none" stroke="black" points="384,-878.5 593,-878.5 "/>
<text text-anchor="start" x="392" y="-863.3" font-family="Times,serif" font-size="14.00">_layout</text>
<text text-anchor="start" x="392" y="-848.3" font-family="Times,serif" font-size="14.00">authenticate_graphql_user</text>
<text text-anchor="start" x="392" y="-833.3" font-family="Times,serif" font-size="14.00">init_bot_events</text>
<text text-anchor="start" x="392" y="-818.3" font-family="Times,serif" font-size="14.00">load_ability</text>
<text text-anchor="start" x="392" y="-803.3" font-family="Times,serif" font-size="14.00">load_context_team</text>
<text text-anchor="start" x="392" y="-788.3" font-family="Times,serif" font-size="14.00">set_current_team</text>
<text text-anchor="start" x="392" y="-773.3" font-family="Times,serif" font-size="14.00">set_current_user</text>
<text text-anchor="start" x="392" y="-758.3" font-family="Times,serif" font-size="14.00">set_timezone</text>
<text text-anchor="start" x="392" y="-743.3" font-family="Times,serif" font-size="14.00">start_apollo_if_needed</text>
<text text-anchor="start" x="392" y="-728.3" font-family="Times,serif" font-size="14.00">trigger_bot_events</text>
</g>
<!-- Api::V1::SessionsController -->
<g id="node8" class="node"><title>Api::V1::SessionsController</title>
<path fill="none" stroke="black" d="M660,-960.5C660,-960.5 849,-960.5 849,-960.5 855,-960.5 861,-966.5 861,-972.5 861,-972.5 861,-1055.5 861,-1055.5 861,-1061.5 855,-1067.5 849,-1067.5 849,-1067.5 660,-1067.5 660,-1067.5 654,-1067.5 648,-1061.5 648,-1055.5 648,-1055.5 648,-972.5 648,-972.5 648,-966.5 654,-960.5 660,-960.5"/>
<text text-anchor="middle" x="754.5" y="-1052.3" font-family="Times,serif" font-size="14.00">Api::V1::SessionsController</text>
<polyline fill="none" stroke="black" points="648,-1044.5 861,-1044.5 "/>
<text text-anchor="start" x="656" y="-1029.3" font-family="Times,serif" font-size="14.00">create</text>
<text text-anchor="start" x="656" y="-1014.3" font-family="Times,serif" font-size="14.00">destroy</text>
<polyline fill="none" stroke="black" points="648,-1006.5 861,-1006.5 "/>
<text text-anchor="start" x="656" y="-991.3" font-family="Times,serif" font-size="14.00">configure_sign_in_params</text>
<polyline fill="none" stroke="black" points="648,-983.5 861,-983.5 "/>
<text text-anchor="start" x="656" y="-968.3" font-family="Times,serif" font-size="14.00">_layout</text>
</g>
<!-- Api::V1::InvitationsController -->
<g id="node9" class="node"><title>Api::V1::InvitationsController</title>
<path fill="none" stroke="black" d="M468,-0.5C468,-0.5 673,-0.5 673,-0.5 679,-0.5 685,-6.5 685,-12.5 685,-12.5 685,-81.5 685,-81.5 685,-87.5 679,-93.5 673,-93.5 673,-93.5 468,-93.5 468,-93.5 462,-93.5 456,-87.5 456,-81.5 456,-81.5 456,-12.5 456,-12.5 456,-6.5 462,-0.5 468,-0.5"/>
<text text-anchor="middle" x="570.5" y="-78.3" font-family="Times,serif" font-size="14.00">Api::V1::InvitationsController</text>
<polyline fill="none" stroke="black" points="456,-70.5 685,-70.5 "/>
<text text-anchor="start" x="464" y="-55.3" font-family="Times,serif" font-size="14.00">edit</text>
<polyline fill="none" stroke="black" points="456,-47.5 685,-47.5 "/>
<polyline fill="none" stroke="black" points="456,-23.5 685,-23.5 "/>
<text text-anchor="start" x="464" y="-8.3" font-family="Times,serif" font-size="14.00">_layout</text>
</g>
<!-- Api::V1::WebhooksController -->
<g id="node10" class="node"><title>Api::V1::WebhooksController</title>
<path fill="none" stroke="black" d="M972,-0.5C972,-0.5 1172,-0.5 1172,-0.5 1178,-0.5 1184,-6.5 1184,-12.5 1184,-12.5 1184,-81.5 1184,-81.5 1184,-87.5 1178,-93.5 1172,-93.5 1172,-93.5 972,-93.5 972,-93.5 966,-93.5 960,-87.5 960,-81.5 960,-81.5 960,-12.5 960,-12.5 960,-6.5 966,-0.5 972,-0.5"/>
<text text-anchor="middle" x="1072" y="-78.3" font-family="Times,serif" font-size="14.00">Api::V1::WebhooksController</text>
<polyline fill="none" stroke="black" points="960,-70.5 1184,-70.5 "/>
<text text-anchor="start" x="968" y="-55.3" font-family="Times,serif" font-size="14.00">index</text>
<polyline fill="none" stroke="black" points="960,-47.5 1184,-47.5 "/>
<polyline fill="none" stroke="black" points="960,-23.5 1184,-23.5 "/>
<text text-anchor="start" x="968" y="-8.3" font-family="Times,serif" font-size="14.00">_layout</text>
</g>
<!-- Api::V1::ConfirmationsController -->
<g id="node11" class="node"><title>Api::V1::ConfirmationsController</title>
<path fill="none" stroke="black" d="M36,-456.5C36,-456.5 265,-456.5 265,-456.5 271,-456.5 277,-462.5 277,-468.5 277,-468.5 277,-537.5 277,-537.5 277,-543.5 271,-549.5 265,-549.5 265,-549.5 36,-549.5 36,-549.5 30,-549.5 24,-543.5 24,-537.5 24,-537.5 24,-468.5 24,-468.5 24,-462.5 30,-456.5 36,-456.5"/>
<text text-anchor="middle" x="150.5" y="-534.3" font-family="Times,serif" font-size="14.00">Api::V1::ConfirmationsController</text>
<polyline fill="none" stroke="black" points="24,-526.5 277,-526.5 "/>
<text text-anchor="start" x="32" y="-511.3" font-family="Times,serif" font-size="14.00">show</text>
<polyline fill="none" stroke="black" points="24,-503.5 277,-503.5 "/>
<polyline fill="none" stroke="black" points="24,-479.5 277,-479.5 "/>
<text text-anchor="start" x="32" y="-464.3" font-family="Times,serif" font-size="14.00">_layout</text>
</g>
<!-- Ah::Api::Greenday::V1::CollectionsController -->
<g id="node12" class="node"><title>Ah::Api::Greenday::V1::CollectionsController</title>
<path fill="none" stroke="black" d="M636,-144.5C636,-144.5 950,-144.5 950,-144.5 956,-144.5 962,-150.5 962,-156.5 962,-156.5 962,-270.5 962,-270.5 962,-276.5 956,-282.5 950,-282.5 950,-282.5 636,-282.5 636,-282.5 630,-282.5 624,-276.5 624,-270.5 624,-270.5 624,-156.5 624,-156.5 624,-150.5 630,-144.5 636,-144.5"/>
<text text-anchor="middle" x="793" y="-267.3" font-family="Times,serif" font-size="14.00">Ah::Api::Greenday::V1::CollectionsController</text>
<polyline fill="none" stroke="black" points="624,-259.5 962,-259.5 "/>
<text text-anchor="start" x="632" y="-244.3" font-family="Times,serif" font-size="14.00">add_batch</text>
<text text-anchor="start" x="632" y="-229.3" font-family="Times,serif" font-size="14.00">show</text>
<text text-anchor="start" x="632" y="-214.3" font-family="Times,serif" font-size="14.00">update</text>
<polyline fill="none" stroke="black" points="624,-206.5 962,-206.5 "/>
<polyline fill="none" stroke="black" points="624,-182.5 962,-182.5 "/>
<text text-anchor="start" x="632" y="-167.3" font-family="Times,serif" font-size="14.00">_layout</text>
<text text-anchor="start" x="632" y="-152.3" font-family="Times,serif" font-size="14.00">check_if_project_exists</text>
</g>
<!-- Ah::Api::Greenday::V1::ProjectsController -->
<g id="node13" class="node"><title>Ah::Api::Greenday::V1::ProjectsController</title>
<path fill="none" stroke="black" d="M660,-696.5C660,-696.5 953,-696.5 953,-696.5 959,-696.5 965,-702.5 965,-708.5 965,-708.5 965,-912.5 965,-912.5 965,-918.5 959,-924.5 953,-924.5 953,-924.5 660,-924.5 660,-924.5 654,-924.5 648,-918.5 648,-912.5 648,-912.5 648,-708.5 648,-708.5 648,-702.5 654,-696.5 660,-696.5"/>
<text text-anchor="middle" x="806.5" y="-909.3" font-family="Times,serif" font-size="14.00">Ah::Api::Greenday::V1::ProjectsController</text>
<polyline fill="none" stroke="black" points="648,-901.5 965,-901.5 "/>
<text text-anchor="start" x="656" y="-886.3" font-family="Times,serif" font-size="14.00">batch_create</text>
<text text-anchor="start" x="656" y="-871.3" font-family="Times,serif" font-size="14.00">collection</text>
<text text-anchor="start" x="656" y="-856.3" font-family="Times,serif" font-size="14.00">comments</text>
<text text-anchor="start" x="656" y="-841.3" font-family="Times,serif" font-size="14.00">create</text>
<text text-anchor="start" x="656" y="-826.3" font-family="Times,serif" font-size="14.00">index</text>
<text text-anchor="start" x="656" y="-811.3" font-family="Times,serif" font-size="14.00">show</text>
<text text-anchor="start" x="656" y="-796.3" font-family="Times,serif" font-size="14.00">show_video</text>
<text text-anchor="start" x="656" y="-781.3" font-family="Times,serif" font-size="14.00">video</text>
<polyline fill="none" stroke="black" points="648,-773.5 965,-773.5 "/>
<polyline fill="none" stroke="black" points="648,-749.5 965,-749.5 "/>
<text text-anchor="start" x="656" y="-734.3" font-family="Times,serif" font-size="14.00">_layout</text>
<text text-anchor="start" x="656" y="-719.3" font-family="Times,serif" font-size="14.00">check_if_project_media_exists</text>
<text text-anchor="start" x="656" y="-704.3" font-family="Times,serif" font-size="14.00">check_if_team_exists</text>
</g>
<!-- Ah::Api::Greenday::V1::BaseController -->
<g id="node14" class="node"><title>Ah::Api::Greenday::V1::BaseController</title>
<path fill="none" stroke="black" d="M60,-912.5C60,-912.5 329,-912.5 329,-912.5 335,-912.5 341,-918.5 341,-924.5 341,-924.5 341,-1068.5 341,-1068.5 341,-1074.5 335,-1080.5 329,-1080.5 329,-1080.5 60,-1080.5 60,-1080.5 54,-1080.5 48,-1074.5 48,-1068.5 48,-1068.5 48,-924.5 48,-924.5 48,-918.5 54,-912.5 60,-912.5"/>
<text text-anchor="middle" x="194.5" y="-1065.3" font-family="Times,serif" font-size="14.00">Ah::Api::Greenday::V1::BaseController</text>
<polyline fill="none" stroke="black" points="48,-1057.5 341,-1057.5 "/>
<text text-anchor="start" x="56" y="-1042.3" font-family="Times,serif" font-size="14.00">ping</text>
<polyline fill="none" stroke="black" points="48,-1034.5 341,-1034.5 "/>
<polyline fill="none" stroke="black" points="48,-1010.5 341,-1010.5 "/>
<text text-anchor="start" x="56" y="-995.3" font-family="Times,serif" font-size="14.00">_layout</text>
<text text-anchor="start" x="56" y="-980.3" font-family="Times,serif" font-size="14.00">authenticate_montage_user</text>
<text text-anchor="start" x="56" y="-965.3" font-family="Times,serif" font-size="14.00">check_if_options_request</text>
<text text-anchor="start" x="56" y="-950.3" font-family="Times,serif" font-size="14.00">load_ability</text>
<text text-anchor="start" x="56" y="-935.3" font-family="Times,serif" font-size="14.00">set_current_team</text>
<text text-anchor="start" x="56" y="-920.3" font-family="Times,serif" font-size="14.00">set_current_user</text>
</g>
<!-- Ah::Api::Greenday::V1::UsersController -->
<g id="node15" class="node"><title>Ah::Api::Greenday::V1::UsersController</title>
<path fill="none" stroke="black" d="M60,-744.5C60,-744.5 335,-744.5 335,-744.5 341,-744.5 347,-750.5 347,-756.5 347,-756.5 347,-855.5 347,-855.5 347,-861.5 341,-867.5 335,-867.5 335,-867.5 60,-867.5 60,-867.5 54,-867.5 48,-861.5 48,-855.5 48,-855.5 48,-756.5 48,-756.5 48,-750.5 54,-744.5 60,-744.5"/>
<text text-anchor="middle" x="197.5" y="-852.3" font-family="Times,serif" font-size="14.00">Ah::Api::Greenday::V1::UsersController</text>
<polyline fill="none" stroke="black" points="48,-844.5 347,-844.5 "/>
<text text-anchor="start" x="56" y="-829.3" font-family="Times,serif" font-size="14.00">me</text>
<text text-anchor="start" x="56" y="-814.3" font-family="Times,serif" font-size="14.00">nda</text>
<text text-anchor="start" x="56" y="-799.3" font-family="Times,serif" font-size="14.00">stats</text>
<polyline fill="none" stroke="black" points="48,-791.5 347,-791.5 "/>
<polyline fill="none" stroke="black" points="48,-767.5 347,-767.5 "/>
<text text-anchor="start" x="56" y="-752.3" font-family="Times,serif" font-size="14.00">_layout</text>
</g>
<!-- ApplicationController -->
<g id="node16" class="node"><title>ApplicationController</title>
<path fill="none" stroke="black" d="M972,-336.5C972,-336.5 1120,-336.5 1120,-336.5 1126,-336.5 1132,-342.5 1132,-348.5 1132,-348.5 1132,-462.5 1132,-462.5 1132,-468.5 1126,-474.5 1120,-474.5 1120,-474.5 972,-474.5 972,-474.5 966,-474.5 960,-468.5 960,-462.5 960,-462.5 960,-348.5 960,-348.5 960,-342.5 966,-336.5 972,-336.5"/>
<text text-anchor="middle" x="1046" y="-459.3" font-family="Times,serif" font-size="14.00">ApplicationController</text>
<polyline fill="none" stroke="black" points="960,-451.5 1132,-451.5 "/>
<text text-anchor="start" x="968" y="-436.3" font-family="Times,serif" font-size="14.00">authenticated?</text>
<polyline fill="none" stroke="black" points="960,-428.5 1132,-428.5 "/>
<polyline fill="none" stroke="black" points="960,-404.5 1132,-404.5 "/>
<text text-anchor="start" x="968" y="-389.3" font-family="Times,serif" font-size="14.00">_layout</text>
<text text-anchor="start" x="968" y="-374.3" font-family="Times,serif" font-size="14.00">render_error</text>
<text text-anchor="start" x="968" y="-359.3" font-family="Times,serif" font-size="14.00">render_success</text>
<text text-anchor="start" x="968" y="-344.3" font-family="Times,serif" font-size="14.00">render_unauthorized</text>
</g>
<!-- TestController -->
<g id="node17" class="node"><title>TestController</title>
<path fill="none" stroke="black" d="M324,-312.5C324,-312.5 578,-312.5 578,-312.5 584,-312.5 590,-318.5 590,-324.5 590,-324.5 590,-662.5 590,-662.5 590,-668.5 584,-674.5 578,-674.5 578,-674.5 324,-674.5 324,-674.5 318,-674.5 312,-668.5 312,-662.5 312,-662.5 312,-324.5 312,-324.5 312,-318.5 318,-312.5 324,-312.5"/>
<text text-anchor="middle" x="451" y="-659.3" font-family="Times,serif" font-size="14.00">TestController</text>
<polyline fill="none" stroke="black" points="312,-651.5 590,-651.5 "/>
<text text-anchor="start" x="320" y="-636.3" font-family="Times,serif" font-size="14.00">archive_project</text>
<text text-anchor="start" x="320" y="-621.3" font-family="Times,serif" font-size="14.00">confirm_user</text>
<text text-anchor="start" x="320" y="-606.3" font-family="Times,serif" font-size="14.00">create_team_project_and_two_users</text>
<text text-anchor="start" x="320" y="-591.3" font-family="Times,serif" font-size="14.00">get</text>
<text text-anchor="start" x="320" y="-576.3" font-family="Times,serif" font-size="14.00">make_team_public</text>
<text text-anchor="start" x="320" y="-561.3" font-family="Times,serif" font-size="14.00">media_status</text>
<text text-anchor="start" x="320" y="-546.3" font-family="Times,serif" font-size="14.00">new_api_key</text>
<text text-anchor="start" x="320" y="-531.3" font-family="Times,serif" font-size="14.00">new_bot</text>
<text text-anchor="start" x="320" y="-516.3" font-family="Times,serif" font-size="14.00">new_claim</text>
<text text-anchor="start" x="320" y="-501.3" font-family="Times,serif" font-size="14.00">new_link</text>
<text text-anchor="start" x="320" y="-486.3" font-family="Times,serif" font-size="14.00">new_media_tag</text>
<text text-anchor="start" x="320" y="-471.3" font-family="Times,serif" font-size="14.00">new_project</text>
<text text-anchor="start" x="320" y="-456.3" font-family="Times,serif" font-size="14.00">new_session</text>
<text text-anchor="start" x="320" y="-441.3" font-family="Times,serif" font-size="14.00">new_source</text>
<text text-anchor="start" x="320" y="-426.3" font-family="Times,serif" font-size="14.00">new_task</text>
<text text-anchor="start" x="320" y="-411.3" font-family="Times,serif" font-size="14.00">new_team</text>
<text text-anchor="start" x="320" y="-396.3" font-family="Times,serif" font-size="14.00">new_user</text>
<text text-anchor="start" x="320" y="-381.3" font-family="Times,serif" font-size="14.00">update_suggested_tags</text>
<polyline fill="none" stroke="black" points="312,-373.5 590,-373.5 "/>
<text text-anchor="start" x="320" y="-358.3" font-family="Times,serif" font-size="14.00">new_media</text>
<polyline fill="none" stroke="black" points="312,-350.5 590,-350.5 "/>
<text text-anchor="start" x="320" y="-335.3" font-family="Times,serif" font-size="14.00">_layout</text>
<text text-anchor="start" x="320" y="-320.3" font-family="Times,serif" font-size="14.00">check_environment</text>
</g>
</g>
</svg>
