<?xml version="1.0" encoding="UTF-8" standalone="no"?>
<!DOCTYPE svg PUBLIC "-//W3C//DTD SVG 1.1//EN"
 "http://www.w3.org/Graphics/SVG/1.1/DTD/svg11.dtd">
<!-- Generated by graphviz version 2.26.3 (20100126.1600)
 -->
<!-- Title: controllers_diagram Pages: 1 -->
<svg width="869pt" height="785pt"
 viewBox="0.00 0.00 869.00 785.00" xmlns="http://www.w3.org/2000/svg" xmlns:xlink="http://www.w3.org/1999/xlink">
<g id="graph1" class="graph" transform="scale(1 1) rotate(0) translate(4 781)">
<title>controllers_diagram</title>
<polygon fill="none" stroke="none" points="-4,5 -4,-781 866,-781 866,5 -4,5"/>
<!-- _diagram_info -->
<g id="node1" class="node"><title>_diagram_info</title>
<text text-anchor="start" x="53" y="-122.3" font-family="Times Roman,serif" font-size="13.00">Controllers diagram</text>
<text text-anchor="start" x="53" y="-105.3" font-family="Times Roman,serif" font-size="13.00">Date: Jun 21 2016 &#45; 01:13</text>
<text text-anchor="start" x="53" y="-88.3" font-family="Times Roman,serif" font-size="13.00">Migration version: 20160618001733</text>
<text text-anchor="start" x="53" y="-71.3" font-family="Times Roman,serif" font-size="13.00">Generated by RailRoady 1.4.2</text>
<text text-anchor="start" x="53" y="-54.3" font-family="Times Roman,serif" font-size="13.00">http://railroady.prestonlee.com</text>
</g>
<!-- Api::V1::BaseApiController -->
<g id="node2" class="node"><title>Api::V1::BaseApiController</title>
<polyline fill="none" stroke="black" points="189,-177.5 437,-177.5 "/>
<path fill="none" stroke="black" d="M437,-177.5C443,-177.5 449,-183.5 449,-189.5"/>
<polyline fill="none" stroke="black" points="449,-189.5 449,-447.5 "/>
<path fill="none" stroke="black" d="M449,-447.5C449,-453.5 443,-459.5 437,-459.5"/>
<polyline fill="none" stroke="black" points="437,-459.5 189,-459.5 "/>
<path fill="none" stroke="black" d="M189,-459.5C183,-459.5 177,-453.5 177,-447.5"/>
<polyline fill="none" stroke="black" points="177,-447.5 177,-189.5 "/>
<path fill="none" stroke="black" d="M177,-189.5C177,-183.5 183,-177.5 189,-177.5"/>
<text text-anchor="middle" x="313" y="-442.9" font-family="Times Roman,serif" font-size="14.00">Api::V1::BaseApiController</text>
<polyline fill="none" stroke="black" points="177,-433.5 449,-433.5 "/>
<text text-anchor="start" x="185" y="-416.9" font-family="Times Roman,serif" font-size="14.00">me</text>
<text text-anchor="start" x="185" y="-398.9" font-family="Times Roman,serif" font-size="14.00">version</text>
<polyline fill="none" stroke="black" points="177,-389.5 449,-389.5 "/>
<polyline fill="none" stroke="black" points="177,-365.5 449,-365.5 "/>
<text text-anchor="start" x="185" y="-348.9" font-family="Times Roman,serif" font-size="14.00">_layout</text>
<text text-anchor="start" x="185" y="-330.9" font-family="Times Roman,serif" font-size="14.00">authenticate_from_token!</text>
<text text-anchor="start" x="185" y="-312.9" font-family="Times Roman,serif" font-size="14.00">get_params</text>
<text text-anchor="start" x="185" y="-294.9" font-family="Times Roman,serif" font-size="14.00">remove_empty_params_and_headers</text>
<text text-anchor="start" x="185" y="-276.9" font-family="Times Roman,serif" font-size="14.00">render_error</text>
<text text-anchor="start" x="185" y="-258.9" font-family="Times Roman,serif" font-size="14.00">render_success</text>
<text text-anchor="start" x="185" y="-240.9" font-family="Times Roman,serif" font-size="14.00">render_unauthorized</text>
<text text-anchor="start" x="185" y="-222.9" font-family="Times Roman,serif" font-size="14.00">set_custom_response_headers</text>
<text text-anchor="start" x="185" y="-204.9" font-family="Times Roman,serif" font-size="14.00">verify_payload!</text>
<text text-anchor="start" x="185" y="-186.9" font-family="Times Roman,serif" font-size="14.00">verify_signature</text>
</g>
<!-- Api::V1::GraphqlController -->
<g id="node3" class="node"><title>Api::V1::GraphqlController</title>
<polyline fill="none" stroke="black" points="673,-287.5 848,-287.5 "/>
<path fill="none" stroke="black" d="M848,-287.5C854,-287.5 860,-293.5 860,-299.5"/>
<polyline fill="none" stroke="black" points="860,-299.5 860,-413.5 "/>
<path fill="none" stroke="black" d="M860,-413.5C860,-419.5 854,-425.5 848,-425.5"/>
<polyline fill="none" stroke="black" points="848,-425.5 673,-425.5 "/>
<path fill="none" stroke="black" d="M673,-425.5C667,-425.5 661,-419.5 661,-413.5"/>
<polyline fill="none" stroke="black" points="661,-413.5 661,-299.5 "/>
<path fill="none" stroke="black" d="M661,-299.5C661,-293.5 667,-287.5 673,-287.5"/>
<text text-anchor="middle" x="760.5" y="-408.9" font-family="Times Roman,serif" font-size="14.00">Api::V1::GraphqlController</text>
<polyline fill="none" stroke="black" points="661,-399.5 860,-399.5 "/>
<text text-anchor="start" x="669" y="-382.9" font-family="Times Roman,serif" font-size="14.00">create</text>
<text text-anchor="start" x="669" y="-364.9" font-family="Times Roman,serif" font-size="14.00">options</text>
<polyline fill="none" stroke="black" points="661,-355.5 860,-355.5 "/>
<polyline fill="none" stroke="black" points="661,-331.5 860,-331.5 "/>
<text text-anchor="start" x="669" y="-314.9" font-family="Times Roman,serif" font-size="14.00">_layout</text>
<text text-anchor="start" x="669" y="-296.9" font-family="Times Roman,serif" font-size="14.00">set_access_headers</text>
</g>
<!-- Api::V1::OmniauthCallbacksController -->
<g id="node4" class="node"><title>Api::V1::OmniauthCallbacksController</title>
<polyline fill="none" stroke="black" points="343,-23.5 596,-23.5 "/>
<path fill="none" stroke="black" d="M596,-23.5C602,-23.5 608,-29.5 608,-35.5"/>
<polyline fill="none" stroke="black" points="608,-35.5 608,-113.5 "/>
<path fill="none" stroke="black" d="M608,-113.5C608,-119.5 602,-125.5 596,-125.5"/>
<polyline fill="none" stroke="black" points="596,-125.5 343,-125.5 "/>
<path fill="none" stroke="black" d="M343,-125.5C337,-125.5 331,-119.5 331,-113.5"/>
<polyline fill="none" stroke="black" points="331,-113.5 331,-35.5 "/>
<path fill="none" stroke="black" d="M331,-35.5C331,-29.5 337,-23.5 343,-23.5"/>
<text text-anchor="middle" x="469.5" y="-108.9" font-family="Times Roman,serif" font-size="14.00">Api::V1::OmniauthCallbacksController</text>
<polyline fill="none" stroke="black" points="331,-99.5 608,-99.5 "/>
<polyline fill="none" stroke="black" points="331,-75.5 608,-75.5 "/>
<text text-anchor="start" x="339" y="-58.9" font-family="Times Roman,serif" font-size="14.00">start_session_and_redirect</text>
<polyline fill="none" stroke="black" points="331,-49.5 608,-49.5 "/>
<text text-anchor="start" x="339" y="-32.9" font-family="Times Roman,serif" font-size="14.00">_layout</text>
</g>
<!-- UsersController -->
<g id="node5" class="node"><title>UsersController</title>
<polyline fill="none" stroke="black" points="145,-529.5 245,-529.5 "/>
<path fill="none" stroke="black" d="M245,-529.5C251,-529.5 257,-535.5 257,-541.5"/>
<polyline fill="none" stroke="black" points="257,-541.5 257,-763.5 "/>
<path fill="none" stroke="black" d="M257,-763.5C257,-769.5 251,-775.5 245,-775.5"/>
<polyline fill="none" stroke="black" points="245,-775.5 145,-775.5 "/>
<path fill="none" stroke="black" d="M145,-775.5C139,-775.5 133,-769.5 133,-763.5"/>
<polyline fill="none" stroke="black" points="133,-763.5 133,-541.5 "/>
<path fill="none" stroke="black" d="M133,-541.5C133,-535.5 139,-529.5 145,-529.5"/>
<text text-anchor="middle" x="195" y="-758.9" font-family="Times Roman,serif" font-size="14.00">UsersController</text>
<polyline fill="none" stroke="black" points="133,-749.5 257,-749.5 "/>
<text text-anchor="start" x="141" y="-732.9" font-family="Times Roman,serif" font-size="14.00">create</text>
<text text-anchor="start" x="141" y="-714.9" font-family="Times Roman,serif" font-size="14.00">destroy</text>
<text text-anchor="start" x="141" y="-696.9" font-family="Times Roman,serif" font-size="14.00">edit</text>
<text text-anchor="start" x="141" y="-678.9" font-family="Times Roman,serif" font-size="14.00">index</text>
<text text-anchor="start" x="141" y="-660.9" font-family="Times Roman,serif" font-size="14.00">new</text>
<text text-anchor="start" x="141" y="-642.9" font-family="Times Roman,serif" font-size="14.00">show</text>
<text text-anchor="start" x="141" y="-624.9" font-family="Times Roman,serif" font-size="14.00">update</text>
<polyline fill="none" stroke="black" points="133,-615.5 257,-615.5 "/>
<polyline fill="none" stroke="black" points="133,-591.5 257,-591.5 "/>
<text text-anchor="start" x="141" y="-574.9" font-family="Times Roman,serif" font-size="14.00">_layout</text>
<text text-anchor="start" x="141" y="-556.9" font-family="Times Roman,serif" font-size="14.00">set_user</text>
<text text-anchor="start" x="141" y="-538.9" font-family="Times Roman,serif" font-size="14.00">user_params</text>
</g>
<!-- TeamsController -->
<g id="node6" class="node"><title>TeamsController</title>
<polyline fill="none" stroke="black" points="13,-243.5 117,-243.5 "/>
<path fill="none" stroke="black" d="M117,-243.5C123,-243.5 129,-249.5 129,-255.5"/>
<polyline fill="none" stroke="black" points="129,-255.5 129,-477.5 "/>
<path fill="none" stroke="black" d="M129,-477.5C129,-483.5 123,-489.5 117,-489.5"/>
<polyline fill="none" stroke="black" points="117,-489.5 13,-489.5 "/>
<path fill="none" stroke="black" d="M13,-489.5C7,-489.5 1,-483.5 1,-477.5"/>
<polyline fill="none" stroke="black" points="1,-477.5 1,-255.5 "/>
<path fill="none" stroke="black" d="M1,-255.5C1,-249.5 7,-243.5 13,-243.5"/>
<text text-anchor="middle" x="65" y="-472.9" font-family="Times Roman,serif" font-size="14.00">TeamsController</text>
<polyline fill="none" stroke="black" points="1,-463.5 129,-463.5 "/>
<text text-anchor="start" x="9" y="-446.9" font-family="Times Roman,serif" font-size="14.00">create</text>
<text text-anchor="start" x="9" y="-428.9" font-family="Times Roman,serif" font-size="14.00">destroy</text>
<text text-anchor="start" x="9" y="-410.9" font-family="Times Roman,serif" font-size="14.00">edit</text>
<text text-anchor="start" x="9" y="-392.9" font-family="Times Roman,serif" font-size="14.00">index</text>
<text text-anchor="start" x="9" y="-374.9" font-family="Times Roman,serif" font-size="14.00">new</text>
<text text-anchor="start" x="9" y="-356.9" font-family="Times Roman,serif" font-size="14.00">show</text>
<text text-anchor="start" x="9" y="-338.9" font-family="Times Roman,serif" font-size="14.00">update</text>
<polyline fill="none" stroke="black" points="1,-329.5 129,-329.5 "/>
<polyline fill="none" stroke="black" points="1,-305.5 129,-305.5 "/>
<text text-anchor="start" x="9" y="-288.9" font-family="Times Roman,serif" font-size="14.00">_layout</text>
<text text-anchor="start" x="9" y="-270.9" font-family="Times Roman,serif" font-size="14.00">set_team</text>
<text text-anchor="start" x="9" y="-252.9" font-family="Times Roman,serif" font-size="14.00">team_params</text>
</g>
<!-- MediaController -->
<g id="node7" class="node"><title>MediaController</title>
<polyline fill="none" stroke="black" points="673,-1.5 778,-1.5 "/>
<path fill="none" stroke="black" d="M778,-1.5C784,-1.5 790,-7.5 790,-13.5"/>
<polyline fill="none" stroke="black" points="790,-13.5 790,-235.5 "/>
<path fill="none" stroke="black" d="M790,-235.5C790,-241.5 784,-247.5 778,-247.5"/>
<polyline fill="none" stroke="black" points="778,-247.5 673,-247.5 "/>
<path fill="none" stroke="black" d="M673,-247.5C667,-247.5 661,-241.5 661,-235.5"/>
<polyline fill="none" stroke="black" points="661,-235.5 661,-13.5 "/>
<path fill="none" stroke="black" d="M661,-13.5C661,-7.5 667,-1.5 673,-1.5"/>
<text text-anchor="middle" x="725.5" y="-230.9" font-family="Times Roman,serif" font-size="14.00">MediaController</text>
<polyline fill="none" stroke="black" points="661,-221.5 790,-221.5 "/>
<text text-anchor="start" x="669" y="-204.9" font-family="Times Roman,serif" font-size="14.00">create</text>
<text text-anchor="start" x="669" y="-186.9" font-family="Times Roman,serif" font-size="14.00">destroy</text>
<text text-anchor="start" x="669" y="-168.9" font-family="Times Roman,serif" font-size="14.00">edit</text>
<text text-anchor="start" x="669" y="-150.9" font-family="Times Roman,serif" font-size="14.00">index</text>
<text text-anchor="start" x="669" y="-132.9" font-family="Times Roman,serif" font-size="14.00">new</text>
<text text-anchor="start" x="669" y="-114.9" font-family="Times Roman,serif" font-size="14.00">show</text>
<text text-anchor="start" x="669" y="-96.9" font-family="Times Roman,serif" font-size="14.00">update</text>
<polyline fill="none" stroke="black" points="661,-87.5 790,-87.5 "/>
<polyline fill="none" stroke="black" points="661,-63.5 790,-63.5 "/>
<text text-anchor="start" x="669" y="-46.9" font-family="Times Roman,serif" font-size="14.00">_layout</text>
<text text-anchor="start" x="669" y="-28.9" font-family="Times Roman,serif" font-size="14.00">medium_params</text>
<text text-anchor="start" x="669" y="-10.9" font-family="Times Roman,serif" font-size="14.00">set_medium</text>
</g>
<!-- ApplicationController -->
<g id="node8" class="node"><title>ApplicationController</title>
<polyline fill="none" stroke="black" points="695,-463.5 832,-463.5 "/>
<path fill="none" stroke="black" d="M832,-463.5C838,-463.5 844,-469.5 844,-475.5"/>
<polyline fill="none" stroke="black" points="844,-475.5 844,-551.5 "/>
<path fill="none" stroke="black" d="M844,-551.5C844,-557.5 838,-563.5 832,-563.5"/>
<polyline fill="none" stroke="black" points="832,-563.5 695,-563.5 "/>
<path fill="none" stroke="black" d="M695,-563.5C689,-563.5 683,-557.5 683,-551.5"/>
<polyline fill="none" stroke="black" points="683,-551.5 683,-475.5 "/>
<path fill="none" stroke="black" d="M683,-475.5C683,-469.5 689,-463.5 695,-463.5"/>
<text text-anchor="middle" x="763.5" y="-546.9" font-family="Times Roman,serif" font-size="14.00">ApplicationController</text>
<polyline fill="none" stroke="black" points="683,-537.5 844,-537.5 "/>
<polyline fill="none" stroke="black" points="683,-513.5 844,-513.5 "/>
<polyline fill="none" stroke="black" points="683,-489.5 844,-489.5 "/>
<text text-anchor="start" x="691" y="-472.9" font-family="Times Roman,serif" font-size="14.00">_layout</text>
</g>
<!-- ProjectsController -->
<g id="node9" class="node"><title>ProjectsController</title>
<polyline fill="none" stroke="black" points="497,-177.5 613,-177.5 "/>
<path fill="none" stroke="black" d="M613,-177.5C619,-177.5 625,-183.5 625,-189.5"/>
<polyline fill="none" stroke="black" points="625,-189.5 625,-411.5 "/>
<path fill="none" stroke="black" d="M625,-411.5C625,-417.5 619,-423.5 613,-423.5"/>
<polyline fill="none" stroke="black" points="613,-423.5 497,-423.5 "/>
<path fill="none" stroke="black" d="M497,-423.5C491,-423.5 485,-417.5 485,-411.5"/>
<polyline fill="none" stroke="black" points="485,-411.5 485,-189.5 "/>
<path fill="none" stroke="black" d="M485,-189.5C485,-183.5 491,-177.5 497,-177.5"/>
<text text-anchor="middle" x="555" y="-406.9" font-family="Times Roman,serif" font-size="14.00">ProjectsController</text>
<polyline fill="none" stroke="black" points="485,-397.5 625,-397.5 "/>
<text text-anchor="start" x="493" y="-380.9" font-family="Times Roman,serif" font-size="14.00">create</text>
<text text-anchor="start" x="493" y="-362.9" font-family="Times Roman,serif" font-size="14.00">destroy</text>
<text text-anchor="start" x="493" y="-344.9" font-family="Times Roman,serif" font-size="14.00">edit</text>
<text text-anchor="start" x="493" y="-326.9" font-family="Times Roman,serif" font-size="14.00">index</text>
<text text-anchor="start" x="493" y="-308.9" font-family="Times Roman,serif" font-size="14.00">new</text>
<text text-anchor="start" x="493" y="-290.9" font-family="Times Roman,serif" font-size="14.00">show</text>
<text text-anchor="start" x="493" y="-272.9" font-family="Times Roman,serif" font-size="14.00">update</text>
<polyline fill="none" stroke="black" points="485,-263.5 625,-263.5 "/>
<polyline fill="none" stroke="black" points="485,-239.5 625,-239.5 "/>
<text text-anchor="start" x="493" y="-222.9" font-family="Times Roman,serif" font-size="14.00">_layout</text>
<text text-anchor="start" x="493" y="-204.9" font-family="Times Roman,serif" font-size="14.00">project_params</text>
<text text-anchor="start" x="493" y="-186.9" font-family="Times Roman,serif" font-size="14.00">set_project</text>
</g>
<!-- AccountsController -->
<g id="node10" class="node"><title>AccountsController</title>
<polyline fill="none" stroke="black" points="497,-463.5 621,-463.5 "/>
<path fill="none" stroke="black" d="M621,-463.5C627,-463.5 633,-469.5 633,-475.5"/>
<polyline fill="none" stroke="black" points="633,-475.5 633,-697.5 "/>
<path fill="none" stroke="black" d="M633,-697.5C633,-703.5 627,-709.5 621,-709.5"/>
<polyline fill="none" stroke="black" points="621,-709.5 497,-709.5 "/>
<path fill="none" stroke="black" d="M497,-709.5C491,-709.5 485,-703.5 485,-697.5"/>
<polyline fill="none" stroke="black" points="485,-697.5 485,-475.5 "/>
<path fill="none" stroke="black" d="M485,-475.5C485,-469.5 491,-463.5 497,-463.5"/>
<text text-anchor="middle" x="559" y="-692.9" font-family="Times Roman,serif" font-size="14.00">AccountsController</text>
<polyline fill="none" stroke="black" points="485,-683.5 633,-683.5 "/>
<text text-anchor="start" x="493" y="-666.9" font-family="Times Roman,serif" font-size="14.00">create</text>
<text text-anchor="start" x="493" y="-648.9" font-family="Times Roman,serif" font-size="14.00">destroy</text>
<text text-anchor="start" x="493" y="-630.9" font-family="Times Roman,serif" font-size="14.00">edit</text>
<text text-anchor="start" x="493" y="-612.9" font-family="Times Roman,serif" font-size="14.00">index</text>
<text text-anchor="start" x="493" y="-594.9" font-family="Times Roman,serif" font-size="14.00">new</text>
<text text-anchor="start" x="493" y="-576.9" font-family="Times Roman,serif" font-size="14.00">show</text>
<text text-anchor="start" x="493" y="-558.9" font-family="Times Roman,serif" font-size="14.00">update</text>
<polyline fill="none" stroke="black" points="485,-549.5 633,-549.5 "/>
<polyline fill="none" stroke="black" points="485,-525.5 633,-525.5 "/>
<text text-anchor="start" x="493" y="-508.9" font-family="Times Roman,serif" font-size="14.00">_layout</text>
<text text-anchor="start" x="493" y="-490.9" font-family="Times Roman,serif" font-size="14.00">account_params</text>
<text text-anchor="start" x="493" y="-472.9" font-family="Times Roman,serif" font-size="14.00">set_account</text>
</g>
<!-- SourcesController -->
<g id="node11" class="node"><title>SourcesController</title>
<polyline fill="none" stroke="black" points="321,-507.5 437,-507.5 "/>
<path fill="none" stroke="black" d="M437,-507.5C443,-507.5 449,-513.5 449,-519.5"/>
<polyline fill="none" stroke="black" points="449,-519.5 449,-741.5 "/>
<path fill="none" stroke="black" d="M449,-741.5C449,-747.5 443,-753.5 437,-753.5"/>
<polyline fill="none" stroke="black" points="437,-753.5 321,-753.5 "/>
<path fill="none" stroke="black" d="M321,-753.5C315,-753.5 309,-747.5 309,-741.5"/>
<polyline fill="none" stroke="black" points="309,-741.5 309,-519.5 "/>
<path fill="none" stroke="black" d="M309,-519.5C309,-513.5 315,-507.5 321,-507.5"/>
<text text-anchor="middle" x="379" y="-736.9" font-family="Times Roman,serif" font-size="14.00">SourcesController</text>
<polyline fill="none" stroke="black" points="309,-727.5 449,-727.5 "/>
<text text-anchor="start" x="317" y="-710.9" font-family="Times Roman,serif" font-size="14.00">create</text>
<text text-anchor="start" x="317" y="-692.9" font-family="Times Roman,serif" font-size="14.00">destroy</text>
<text text-anchor="start" x="317" y="-674.9" font-family="Times Roman,serif" font-size="14.00">edit</text>
<text text-anchor="start" x="317" y="-656.9" font-family="Times Roman,serif" font-size="14.00">index</text>
<text text-anchor="start" x="317" y="-638.9" font-family="Times Roman,serif" font-size="14.00">new</text>
<text text-anchor="start" x="317" y="-620.9" font-family="Times Roman,serif" font-size="14.00">show</text>
<text text-anchor="start" x="317" y="-602.9" font-family="Times Roman,serif" font-size="14.00">update</text>
<polyline fill="none" stroke="black" points="309,-593.5 449,-593.5 "/>
<polyline fill="none" stroke="black" points="309,-569.5 449,-569.5 "/>
<text text-anchor="start" x="317" y="-552.9" font-family="Times Roman,serif" font-size="14.00">_layout</text>
<text text-anchor="start" x="317" y="-534.9" font-family="Times Roman,serif" font-size="14.00">set_source</text>
<text text-anchor="start" x="317" y="-516.9" font-family="Times Roman,serif" font-size="14.00">source_params</text>
</g>
</g>
</svg>
