<?xml version="1.0" encoding="UTF-8" standalone="no"?>
<!DOCTYPE svg PUBLIC "-//W3C//DTD SVG 1.1//EN"
 "http://www.w3.org/Graphics/SVG/1.1/DTD/svg11.dtd">
<!-- Generated by graphviz version 2.40.1 (20161225.0304)
 -->
<!-- Title: controllers_diagram Pages: 1 -->
<svg width="2626pt" height="401pt"
 viewBox="0.00 0.00 2625.50 401.00" xmlns="http://www.w3.org/2000/svg" xmlns:xlink="http://www.w3.org/1999/xlink">
<g id="graph0" class="graph" transform="scale(1 1) rotate(0) translate(4 397)">
<title>controllers_diagram</title>
<!-- TestController -->
<g id="node1" class="node">
<title>TestController</title>
<path fill="none" stroke="#000000" d="M12,-.5C12,-.5 203,-.5 203,-.5 209,-.5 215,-6.5 215,-12.5 215,-12.5 215,-380.5 215,-380.5 215,-386.5 209,-392.5 203,-392.5 203,-392.5 12,-392.5 12,-392.5 6,-392.5 0,-386.5 0,-380.5 0,-380.5 0,-12.5 0,-12.5 0,-6.5 6,-.5 12,-.5"/>
<text text-anchor="middle" x="107.5" y="-377.3" font-family="Times,serif" font-size="14.00" fill="#000000">TestController</text>
<polyline fill="none" stroke="#000000" points="0,-369.5 215,-369.5 "/>
<text text-anchor="start" x="8" y="-354.3" font-family="Times,serif" font-size="14.00" fill="#000000">archive_project</text>
<text text-anchor="start" x="8" y="-339.3" font-family="Times,serif" font-size="14.00" fill="#000000">confirm_user</text>
<text text-anchor="start" x="8" y="-324.3" font-family="Times,serif" font-size="14.00" fill="#000000">create_team_project_and_two_users</text>
<text text-anchor="start" x="8" y="-309.3" font-family="Times,serif" font-size="14.00" fill="#000000">get</text>
<text text-anchor="start" x="8" y="-294.3" font-family="Times,serif" font-size="14.00" fill="#000000">make_team_public</text>
<text text-anchor="start" x="8" y="-279.3" font-family="Times,serif" font-size="14.00" fill="#000000">media_status</text>
<text text-anchor="start" x="8" y="-264.3" font-family="Times,serif" font-size="14.00" fill="#000000">new_api_key</text>
<text text-anchor="start" x="8" y="-249.3" font-family="Times,serif" font-size="14.00" fill="#000000">new_bot</text>
<text text-anchor="start" x="8" y="-234.3" font-family="Times,serif" font-size="14.00" fill="#000000">new_cache_key</text>
<text text-anchor="start" x="8" y="-219.3" font-family="Times,serif" font-size="14.00" fill="#000000">new_claim</text>
<text text-anchor="start" x="8" y="-204.3" font-family="Times,serif" font-size="14.00" fill="#000000">new_dynamic_annotation</text>
<text text-anchor="start" x="8" y="-189.3" font-family="Times,serif" font-size="14.00" fill="#000000">new_link</text>
<text text-anchor="start" x="8" y="-174.3" font-family="Times,serif" font-size="14.00" fill="#000000">new_media_tag</text>
<text text-anchor="start" x="8" y="-159.3" font-family="Times,serif" font-size="14.00" fill="#000000">new_project</text>
<text text-anchor="start" x="8" y="-144.3" font-family="Times,serif" font-size="14.00" fill="#000000">new_session</text>
<text text-anchor="start" x="8" y="-129.3" font-family="Times,serif" font-size="14.00" fill="#000000">new_source</text>
<text text-anchor="start" x="8" y="-114.3" font-family="Times,serif" font-size="14.00" fill="#000000">new_task</text>
<text text-anchor="start" x="8" y="-99.3" font-family="Times,serif" font-size="14.00" fill="#000000">new_team</text>
<text text-anchor="start" x="8" y="-84.3" font-family="Times,serif" font-size="14.00" fill="#000000">new_user</text>
<text text-anchor="start" x="8" y="-69.3" font-family="Times,serif" font-size="14.00" fill="#000000">update_suggested_tags</text>
<polyline fill="none" stroke="#000000" points="0,-61.5 215,-61.5 "/>
<text text-anchor="start" x="8" y="-46.3" font-family="Times,serif" font-size="14.00" fill="#000000">new_media</text>
<polyline fill="none" stroke="#000000" points="0,-38.5 215,-38.5 "/>
<text text-anchor="start" x="8" y="-23.3" font-family="Times,serif" font-size="14.00" fill="#000000">_layout</text>
<text text-anchor="start" x="8" y="-8.3" font-family="Times,serif" font-size="14.00" fill="#000000">check_environment</text>
</g>
<!-- ApplicationController -->
<g id="node2" class="node">
<title>ApplicationController</title>
<path fill="none" stroke="#000000" d="M245.5,-120.5C245.5,-120.5 415.5,-120.5 415.5,-120.5 421.5,-120.5 427.5,-126.5 427.5,-132.5 427.5,-132.5 427.5,-260.5 427.5,-260.5 427.5,-266.5 421.5,-272.5 415.5,-272.5 415.5,-272.5 245.5,-272.5 245.5,-272.5 239.5,-272.5 233.5,-266.5 233.5,-260.5 233.5,-260.5 233.5,-132.5 233.5,-132.5 233.5,-126.5 239.5,-120.5 245.5,-120.5"/>
<text text-anchor="middle" x="330.5" y="-257.3" font-family="Times,serif" font-size="14.00" fill="#000000">ApplicationController</text>
<polyline fill="none" stroke="#000000" points="233.5,-249.5 427.5,-249.5 "/>
<text text-anchor="start" x="241.5" y="-234.3" font-family="Times,serif" font-size="14.00" fill="#000000">append_info_to_payload</text>
<text text-anchor="start" x="241.5" y="-219.3" font-family="Times,serif" font-size="14.00" fill="#000000">authenticated?</text>
<polyline fill="none" stroke="#000000" points="233.5,-211.5 427.5,-211.5 "/>
<text text-anchor="start" x="241.5" y="-196.3" font-family="Times,serif" font-size="14.00" fill="#000000">configure_permitted_parameters</text>
<polyline fill="none" stroke="#000000" points="233.5,-188.5 427.5,-188.5 "/>
<text text-anchor="start" x="241.5" y="-173.3" font-family="Times,serif" font-size="14.00" fill="#000000">_layout</text>
<text text-anchor="start" x="241.5" y="-158.3" font-family="Times,serif" font-size="14.00" fill="#000000">render_error</text>
<text text-anchor="start" x="241.5" y="-143.3" font-family="Times,serif" font-size="14.00" fill="#000000">render_success</text>
<text text-anchor="start" x="241.5" y="-128.3" font-family="Times,serif" font-size="14.00" fill="#000000">render_unauthorized</text>
</g>
<!-- Api::V1::InvitationsController -->
<g id="node3" class="node">
<title>Api::V1::InvitationsController</title>
<path fill="none" stroke="#000000" d="M457.5,-150C457.5,-150 615.5,-150 615.5,-150 621.5,-150 627.5,-156 627.5,-162 627.5,-162 627.5,-231 627.5,-231 627.5,-237 621.5,-243 615.5,-243 615.5,-243 457.5,-243 457.5,-243 451.5,-243 445.5,-237 445.5,-231 445.5,-231 445.5,-162 445.5,-162 445.5,-156 451.5,-150 457.5,-150"/>
<text text-anchor="middle" x="536.5" y="-227.8" font-family="Times,serif" font-size="14.00" fill="#000000">Api::V1::InvitationsController</text>
<polyline fill="none" stroke="#000000" points="445.5,-220 627.5,-220 "/>
<text text-anchor="start" x="453.5" y="-204.8" font-family="Times,serif" font-size="14.00" fill="#000000">edit</text>
<polyline fill="none" stroke="#000000" points="445.5,-197 627.5,-197 "/>
<polyline fill="none" stroke="#000000" points="445.5,-173 627.5,-173 "/>
<text text-anchor="start" x="453.5" y="-157.8" font-family="Times,serif" font-size="14.00" fill="#000000">_layout</text>
</g>
<!-- Api::V1::WebhooksController -->
<g id="node4" class="node">
<title>Api::V1::WebhooksController</title>
<path fill="none" stroke="#000000" d="M657.5,-150C657.5,-150 815.5,-150 815.5,-150 821.5,-150 827.5,-156 827.5,-162 827.5,-162 827.5,-231 827.5,-231 827.5,-237 821.5,-243 815.5,-243 815.5,-243 657.5,-243 657.5,-243 651.5,-243 645.5,-237 645.5,-231 645.5,-231 645.5,-162 645.5,-162 645.5,-156 651.5,-150 657.5,-150"/>
<text text-anchor="middle" x="736.5" y="-227.8" font-family="Times,serif" font-size="14.00" fill="#000000">Api::V1::WebhooksController</text>
<polyline fill="none" stroke="#000000" points="645.5,-220 827.5,-220 "/>
<text text-anchor="start" x="653.5" y="-204.8" font-family="Times,serif" font-size="14.00" fill="#000000">index</text>
<polyline fill="none" stroke="#000000" points="645.5,-197 827.5,-197 "/>
<polyline fill="none" stroke="#000000" points="645.5,-173 827.5,-173 "/>
<text text-anchor="start" x="653.5" y="-157.8" font-family="Times,serif" font-size="14.00" fill="#000000">_layout</text>
</g>
<!-- Api::V1::SessionsController -->
<g id="node5" class="node">
<title>Api::V1::SessionsController</title>
<path fill="none" stroke="#000000" d="M857.5,-128C857.5,-128 1003.5,-128 1003.5,-128 1009.5,-128 1015.5,-134 1015.5,-140 1015.5,-140 1015.5,-253 1015.5,-253 1015.5,-259 1009.5,-265 1003.5,-265 1003.5,-265 857.5,-265 857.5,-265 851.5,-265 845.5,-259 845.5,-253 845.5,-253 845.5,-140 845.5,-140 845.5,-134 851.5,-128 857.5,-128"/>
<text text-anchor="middle" x="930.5" y="-249.8" font-family="Times,serif" font-size="14.00" fill="#000000">Api::V1::SessionsController</text>
<polyline fill="none" stroke="#000000" points="845.5,-242 1015.5,-242 "/>
<text text-anchor="start" x="853.5" y="-226.8" font-family="Times,serif" font-size="14.00" fill="#000000">create</text>
<text text-anchor="start" x="853.5" y="-211.8" font-family="Times,serif" font-size="14.00" fill="#000000">destroy</text>
<polyline fill="none" stroke="#000000" points="845.5,-204 1015.5,-204 "/>
<text text-anchor="start" x="853.5" y="-188.8" font-family="Times,serif" font-size="14.00" fill="#000000">configure_sign_in_params</text>
<polyline fill="none" stroke="#000000" points="845.5,-181 1015.5,-181 "/>
<text text-anchor="start" x="853.5" y="-165.8" font-family="Times,serif" font-size="14.00" fill="#000000">_layout</text>
<text text-anchor="start" x="853.5" y="-150.8" font-family="Times,serif" font-size="14.00" fill="#000000">pre_otp_params</text>
<text text-anchor="start" x="853.5" y="-135.8" font-family="Times,serif" font-size="14.00" fill="#000000">store_request</text>
</g>
<!-- Api::V1::GraphqlController -->
<g id="node6" class="node">
<title>Api::V1::GraphqlController</title>
<path fill="none" stroke="#000000" d="M1045.5,-45.5C1045.5,-45.5 1189.5,-45.5 1189.5,-45.5 1195.5,-45.5 1201.5,-51.5 1201.5,-57.5 1201.5,-57.5 1201.5,-335.5 1201.5,-335.5 1201.5,-341.5 1195.5,-347.5 1189.5,-347.5 1189.5,-347.5 1045.5,-347.5 1045.5,-347.5 1039.5,-347.5 1033.5,-341.5 1033.5,-335.5 1033.5,-335.5 1033.5,-57.5 1033.5,-57.5 1033.5,-51.5 1039.5,-45.5 1045.5,-45.5"/>
<text text-anchor="middle" x="1117.5" y="-332.3" font-family="Times,serif" font-size="14.00" fill="#000000">Api::V1::GraphqlController</text>
<polyline fill="none" stroke="#000000" points="1033.5,-324.5 1201.5,-324.5 "/>
<text text-anchor="start" x="1041.5" y="-309.3" font-family="Times,serif" font-size="14.00" fill="#000000">batch</text>
<text text-anchor="start" x="1041.5" y="-294.3" font-family="Times,serif" font-size="14.00" fill="#000000">create</text>
<polyline fill="none" stroke="#000000" points="1033.5,-286.5 1201.5,-286.5 "/>
<text text-anchor="start" x="1041.5" y="-271.3" font-family="Times,serif" font-size="14.00" fill="#000000">ensure_hash</text>
<text text-anchor="start" x="1041.5" y="-256.3" font-family="Times,serif" font-size="14.00" fill="#000000">format_error_message</text>
<text text-anchor="start" x="1041.5" y="-241.3" font-family="Times,serif" font-size="14.00" fill="#000000">parse_graphql_result</text>
<text text-anchor="start" x="1041.5" y="-226.3" font-family="Times,serif" font-size="14.00" fill="#000000">parse_json_exception</text>
<text text-anchor="start" x="1041.5" y="-211.3" font-family="Times,serif" font-size="14.00" fill="#000000">prepare_query_variables</text>
<polyline fill="none" stroke="#000000" points="1033.5,-203.5 1201.5,-203.5 "/>
<text text-anchor="start" x="1041.5" y="-188.3" font-family="Times,serif" font-size="14.00" fill="#000000">_layout</text>
<text text-anchor="start" x="1041.5" y="-173.3" font-family="Times,serif" font-size="14.00" fill="#000000">authenticate_graphql_user</text>
<text text-anchor="start" x="1041.5" y="-158.3" font-family="Times,serif" font-size="14.00" fill="#000000">init_bot_events</text>
<text text-anchor="start" x="1041.5" y="-143.3" font-family="Times,serif" font-size="14.00" fill="#000000">load_ability</text>
<text text-anchor="start" x="1041.5" y="-128.3" font-family="Times,serif" font-size="14.00" fill="#000000">load_context_team</text>
<text text-anchor="start" x="1041.5" y="-113.3" font-family="Times,serif" font-size="14.00" fill="#000000">set_current_team</text>
<text text-anchor="start" x="1041.5" y="-98.3" font-family="Times,serif" font-size="14.00" fill="#000000">set_current_user</text>
<text text-anchor="start" x="1041.5" y="-83.3" font-family="Times,serif" font-size="14.00" fill="#000000">set_timezone</text>
<text text-anchor="start" x="1041.5" y="-68.3" font-family="Times,serif" font-size="14.00" fill="#000000">start_apollo_if_needed</text>
<text text-anchor="start" x="1041.5" y="-53.3" font-family="Times,serif" font-size="14.00" fill="#000000">trigger_bot_events</text>
</g>
<!-- Api::V1::ProjectMediasController -->
<g id="node7" class="node">
<title>Api::V1::ProjectMediasController</title>
<path fill="none" stroke="#000000" d="M1231,-142.5C1231,-142.5 1410,-142.5 1410,-142.5 1416,-142.5 1422,-148.5 1422,-154.5 1422,-154.5 1422,-238.5 1422,-238.5 1422,-244.5 1416,-250.5 1410,-250.5 1410,-250.5 1231,-250.5 1231,-250.5 1225,-250.5 1219,-244.5 1219,-238.5 1219,-238.5 1219,-154.5 1219,-154.5 1219,-148.5 1225,-142.5 1231,-142.5"/>
<text text-anchor="middle" x="1320.5" y="-235.3" font-family="Times,serif" font-size="14.00" fill="#000000">Api::V1::ProjectMediasController</text>
<polyline fill="none" stroke="#000000" points="1219,-227.5 1422,-227.5 "/>
<text text-anchor="start" x="1227" y="-212.3" font-family="Times,serif" font-size="14.00" fill="#000000">oembed</text>
<polyline fill="none" stroke="#000000" points="1219,-204.5 1422,-204.5 "/>
<polyline fill="none" stroke="#000000" points="1219,-180.5 1422,-180.5 "/>
<text text-anchor="start" x="1227" y="-165.3" font-family="Times,serif" font-size="14.00" fill="#000000">_layout</text>
<text text-anchor="start" x="1227" y="-150.3" font-family="Times,serif" font-size="14.00" fill="#000000">allow_iframe</text>
</g>
<!-- Api::V1::OmniauthCallbacksController -->
<g id="node8" class="node">
<title>Api::V1::OmniauthCallbacksController</title>
<path fill="none" stroke="#000000" d="M1451.5,-120.5C1451.5,-120.5 1659.5,-120.5 1659.5,-120.5 1665.5,-120.5 1671.5,-126.5 1671.5,-132.5 1671.5,-132.5 1671.5,-260.5 1671.5,-260.5 1671.5,-266.5 1665.5,-272.5 1659.5,-272.5 1659.5,-272.5 1451.5,-272.5 1451.5,-272.5 1445.5,-272.5 1439.5,-266.5 1439.5,-260.5 1439.5,-260.5 1439.5,-132.5 1439.5,-132.5 1439.5,-126.5 1445.5,-120.5 1451.5,-120.5"/>
<text text-anchor="middle" x="1555.5" y="-257.3" font-family="Times,serif" font-size="14.00" fill="#000000">Api::V1::OmniauthCallbacksController</text>
<polyline fill="none" stroke="#000000" points="1439.5,-249.5 1671.5,-249.5 "/>
<text text-anchor="start" x="1447.5" y="-234.3" font-family="Times,serif" font-size="14.00" fill="#000000">failure</text>
<text text-anchor="start" x="1447.5" y="-219.3" font-family="Times,serif" font-size="14.00" fill="#000000">logout</text>
<polyline fill="none" stroke="#000000" points="1439.5,-211.5 1671.5,-211.5 "/>
<text text-anchor="start" x="1447.5" y="-196.3" font-family="Times,serif" font-size="14.00" fill="#000000">get_check_destination</text>
<text text-anchor="start" x="1447.5" y="-181.3" font-family="Times,serif" font-size="14.00" fill="#000000">sign_in_options</text>
<text text-anchor="start" x="1447.5" y="-166.3" font-family="Times,serif" font-size="14.00" fill="#000000">start_session_and_redirect</text>
<polyline fill="none" stroke="#000000" points="1439.5,-158.5 1671.5,-158.5 "/>
<text text-anchor="start" x="1447.5" y="-143.3" font-family="Times,serif" font-size="14.00" fill="#000000">_layout</text>
<text text-anchor="start" x="1447.5" y="-128.3" font-family="Times,serif" font-size="14.00" fill="#000000">store_request</text>
</g>
<!-- Api::V1::BaseApiController -->
<g id="node9" class="node">
<title>Api::V1::BaseApiController</title>
<path fill="none" stroke="#000000" d="M1701.5,-45C1701.5,-45 1897.5,-45 1897.5,-45 1903.5,-45 1909.5,-51 1909.5,-57 1909.5,-57 1909.5,-336 1909.5,-336 1909.5,-342 1903.5,-348 1897.5,-348 1897.5,-348 1701.5,-348 1701.5,-348 1695.5,-348 1689.5,-342 1689.5,-336 1689.5,-336 1689.5,-57 1689.5,-57 1689.5,-51 1695.5,-45 1701.5,-45"/>
<text text-anchor="middle" x="1799.5" y="-332.8" font-family="Times,serif" font-size="14.00" fill="#000000">Api::V1::BaseApiController</text>
<polyline fill="none" stroke="#000000" points="1689.5,-325 1909.5,-325 "/>
<text text-anchor="start" x="1697.5" y="-309.8" font-family="Times,serif" font-size="14.00" fill="#000000">log</text>
<text text-anchor="start" x="1697.5" y="-294.8" font-family="Times,serif" font-size="14.00" fill="#000000">me</text>
<text text-anchor="start" x="1697.5" y="-279.8" font-family="Times,serif" font-size="14.00" fill="#000000">options</text>
<text text-anchor="start" x="1697.5" y="-264.8" font-family="Times,serif" font-size="14.00" fill="#000000">ping</text>
<text text-anchor="start" x="1697.5" y="-249.8" font-family="Times,serif" font-size="14.00" fill="#000000">version</text>
<polyline fill="none" stroke="#000000" points="1689.5,-242 1909.5,-242 "/>
<polyline fill="none" stroke="#000000" points="1689.5,-218 1909.5,-218 "/>
<text text-anchor="start" x="1697.5" y="-202.8" font-family="Times,serif" font-size="14.00" fill="#000000">_layout</text>
<text text-anchor="start" x="1697.5" y="-187.8" font-family="Times,serif" font-size="14.00" fill="#000000">authenticate_from_token!</text>
<text text-anchor="start" x="1697.5" y="-172.8" font-family="Times,serif" font-size="14.00" fill="#000000">authenticate_user</text>
<text text-anchor="start" x="1697.5" y="-157.8" font-family="Times,serif" font-size="14.00" fill="#000000">authenticate_user!</text>
<text text-anchor="start" x="1697.5" y="-142.8" font-family="Times,serif" font-size="14.00" fill="#000000">identify_user</text>
<text text-anchor="start" x="1697.5" y="-127.8" font-family="Times,serif" font-size="14.00" fill="#000000">remove_empty_params_and_headers</text>
<text text-anchor="start" x="1697.5" y="-112.8" font-family="Times,serif" font-size="14.00" fill="#000000">render_error_message</text>
<text text-anchor="start" x="1697.5" y="-97.8" font-family="Times,serif" font-size="14.00" fill="#000000">render_user</text>
<text text-anchor="start" x="1697.5" y="-82.8" font-family="Times,serif" font-size="14.00" fill="#000000">set_custom_response_headers</text>
<text text-anchor="start" x="1697.5" y="-67.8" font-family="Times,serif" font-size="14.00" fill="#000000">store_request</text>
<text text-anchor="start" x="1697.5" y="-52.8" font-family="Times,serif" font-size="14.00" fill="#000000">user_for_paper_trail</text>
</g>
<!-- Api::V1::ConfirmationsController -->
<g id="node10" class="node">
<title>Api::V1::ConfirmationsController</title>
<path fill="none" stroke="#000000" d="M1940,-150C1940,-150 2119,-150 2119,-150 2125,-150 2131,-156 2131,-162 2131,-162 2131,-231 2131,-231 2131,-237 2125,-243 2119,-243 2119,-243 1940,-243 1940,-243 1934,-243 1928,-237 1928,-231 1928,-231 1928,-162 1928,-162 1928,-156 1934,-150 1940,-150"/>
<text text-anchor="middle" x="2029.5" y="-227.8" font-family="Times,serif" font-size="14.00" fill="#000000">Api::V1::ConfirmationsController</text>
<polyline fill="none" stroke="#000000" points="1928,-220 2131,-220 "/>
<text text-anchor="start" x="1936" y="-204.8" font-family="Times,serif" font-size="14.00" fill="#000000">show</text>
<polyline fill="none" stroke="#000000" points="1928,-197 2131,-197 "/>
<polyline fill="none" stroke="#000000" points="1928,-173 2131,-173 "/>
<text text-anchor="start" x="1936" y="-157.8" font-family="Times,serif" font-size="14.00" fill="#000000">_layout</text>
</g>
<!-- Api::V1::RegistrationsController -->
<g id="node11" class="node">
<title>Api::V1::RegistrationsController</title>
<path fill="none" stroke="#000000" d="M2161.5,-128C2161.5,-128 2343.5,-128 2343.5,-128 2349.5,-128 2355.5,-134 2355.5,-140 2355.5,-140 2355.5,-253 2355.5,-253 2355.5,-259 2349.5,-265 2343.5,-265 2343.5,-265 2161.5,-265 2161.5,-265 2155.5,-265 2149.5,-259 2149.5,-253 2149.5,-253 2149.5,-140 2149.5,-140 2149.5,-134 2155.5,-128 2161.5,-128"/>
<text text-anchor="middle" x="2252.5" y="-249.8" font-family="Times,serif" font-size="14.00" fill="#000000">Api::V1::RegistrationsController</text>
<polyline fill="none" stroke="#000000" points="2149.5,-242 2355.5,-242 "/>
<text text-anchor="start" x="2157.5" y="-226.8" font-family="Times,serif" font-size="14.00" fill="#000000">create</text>
<text text-anchor="start" x="2157.5" y="-211.8" font-family="Times,serif" font-size="14.00" fill="#000000">destroy</text>
<text text-anchor="start" x="2157.5" y="-196.8" font-family="Times,serif" font-size="14.00" fill="#000000">update</text>
<polyline fill="none" stroke="#000000" points="2149.5,-189 2355.5,-189 "/>
<text text-anchor="start" x="2157.5" y="-173.8" font-family="Times,serif" font-size="14.00" fill="#000000">configure_account_update_params</text>
<text text-anchor="start" x="2157.5" y="-158.8" font-family="Times,serif" font-size="14.00" fill="#000000">configure_sign_up_params</text>
<polyline fill="none" stroke="#000000" points="2149.5,-151 2355.5,-151 "/>
<text text-anchor="start" x="2157.5" y="-135.8" font-family="Times,serif" font-size="14.00" fill="#000000">_layout</text>
</g>
<!-- Api::V1::AdminController -->
<g id="node12" class="node">
<title>Api::V1::AdminController</title>
<path fill="none" stroke="#000000" d="M2385.5,-135C2385.5,-135 2605.5,-135 2605.5,-135 2611.5,-135 2617.5,-141 2617.5,-147 2617.5,-147 2617.5,-246 2617.5,-246 2617.5,-252 2611.5,-258 2605.5,-258 2605.5,-258 2385.5,-258 2385.5,-258 2379.5,-258 2373.5,-252 2373.5,-246 2373.5,-246 2373.5,-147 2373.5,-147 2373.5,-141 2379.5,-135 2385.5,-135"/>
<text text-anchor="middle" x="2495.5" y="-242.8" font-family="Times,serif" font-size="14.00" fill="#000000">Api::V1::AdminController</text>
<polyline fill="none" stroke="#000000" points="2373.5,-235 2617.5,-235 "/>
<text text-anchor="start" x="2381.5" y="-219.8" font-family="Times,serif" font-size="14.00" fill="#000000">add_publisher_to_project</text>
<text text-anchor="start" x="2381.5" y="-204.8" font-family="Times,serif" font-size="14.00" fill="#000000">save_twitter_credentials_for_smooch_bot</text>
<text text-anchor="start" x="2381.5" y="-189.8" font-family="Times,serif" font-size="14.00" fill="#000000">slack_user</text>
<polyline fill="none" stroke="#000000" points="2373.5,-182 2617.5,-182 "/>
<polyline fill="none" stroke="#000000" points="2373.5,-158 2617.5,-158 "/>
<text text-anchor="start" x="2381.5" y="-142.8" font-family="Times,serif" font-size="14.00" fill="#000000">_layout</text>
</g>
</g>
</svg>
