<?xml version="1.0" encoding="UTF-8" standalone="no"?>
<!DOCTYPE svg PUBLIC "-//W3C//DTD SVG 1.1//EN"
 "http://www.w3.org/Graphics/SVG/1.1/DTD/svg11.dtd">
<!-- Generated by graphviz version 2.40.1 (20161225.0304)
 -->
<!-- Title: controllers_diagram Pages: 1 -->
<svg width="202pt" height="161pt"
 viewBox="0.00 0.00 202.00 161.00" xmlns="http://www.w3.org/2000/svg" xmlns:xlink="http://www.w3.org/1999/xlink">
<g id="graph0" class="graph" transform="scale(1 1) rotate(0) translate(4 157)">
<title>controllers_diagram</title>
<polygon fill="transparent" stroke="transparent" points="-4,4 -4,-157 198,-157 198,4 -4,4"/>
<!-- ApplicationController -->
<g id="node1" class="node">
<title>ApplicationController</title>
<path fill="none" stroke="#000000" d="M12,-.5C12,-.5 182,-.5 182,-.5 188,-.5 194,-6.5 194,-12.5 194,-12.5 194,-140.5 194,-140.5 194,-146.5 188,-152.5 182,-152.5 182,-152.5 12,-152.5 12,-152.5 6,-152.5 0,-146.5 0,-140.5 0,-140.5 0,-12.5 0,-12.5 0,-6.5 6,-.5 12,-.5"/>
<text text-anchor="middle" x="97" y="-137.3" font-family="Times,serif" font-size="14.00" fill="#000000">ApplicationController</text>
<polyline fill="none" stroke="#000000" points="0,-129.5 194,-129.5 "/>
<text text-anchor="start" x="8" y="-114.3" font-family="Times,serif" font-size="14.00" fill="#000000">append_info_to_payload</text>
<text text-anchor="start" x="8" y="-99.3" font-family="Times,serif" font-size="14.00" fill="#000000">authenticated?</text>
<polyline fill="none" stroke="#000000" points="0,-91.5 194,-91.5 "/>
<text text-anchor="start" x="8" y="-76.3" font-family="Times,serif" font-size="14.00" fill="#000000">configure_permitted_parameters</text>
<polyline fill="none" stroke="#000000" points="0,-68.5 194,-68.5 "/>
<text text-anchor="start" x="8" y="-53.3" font-family="Times,serif" font-size="14.00" fill="#000000">_layout</text>
<text text-anchor="start" x="8" y="-38.3" font-family="Times,serif" font-size="14.00" fill="#000000">render_error</text>
<text text-anchor="start" x="8" y="-23.3" font-family="Times,serif" font-size="14.00" fill="#000000">render_success</text>
<text text-anchor="start" x="8" y="-8.3" font-family="Times,serif" font-size="14.00" fill="#000000">render_unauthorized</text>
</g>
</g>
</svg>
