<?xml version="1.0" encoding="UTF-8" standalone="no"?>
<!DOCTYPE svg PUBLIC "-//W3C//DTD SVG 1.1//EN"
 "http://www.w3.org/Graphics/SVG/1.1/DTD/svg11.dtd">
<!-- Generated by graphviz version 2.26.3 (20100126.1600)
 -->
<!-- Title: controllers_diagram Pages: 1 -->
<svg width="697pt" height="781pt"
 viewBox="0.00 0.00 697.00 781.00" xmlns="http://www.w3.org/2000/svg" xmlns:xlink="http://www.w3.org/1999/xlink">
<g id="graph1" class="graph" transform="scale(1 1) rotate(0) translate(4 777)">
<title>controllers_diagram</title>
<polygon fill="none" stroke="none" points="-4,5 -4,-777 694,-777 694,5 -4,5"/>
<!-- _diagram_info -->
<g id="node1" class="node"><title>_diagram_info</title>
<text text-anchor="start" x="75" y="-562.3" font-family="Times Roman,serif" font-size="13.00">Controllers diagram</text>
<text text-anchor="start" x="75" y="-545.3" font-family="Times Roman,serif" font-size="13.00">Date: Jan 27 2017 &#45; 17:42</text>
<text text-anchor="start" x="75" y="-528.3" font-family="Times Roman,serif" font-size="13.00">Migration version: 20170112234110</text>
<text text-anchor="start" x="75" y="-511.3" font-family="Times Roman,serif" font-size="13.00">Generated by RailRoady 1.5.2</text>
<text text-anchor="start" x="75" y="-494.3" font-family="Times Roman,serif" font-size="13.00">http://railroady.prestonlee.com</text>
</g>
<!-- Api::V1::ConfirmationsController -->
<g id="node2" class="node"><title>Api::V1::ConfirmationsController</title>
<polyline fill="none" stroke="black" points="211,-1.5 427,-1.5 "/>
<path fill="none" stroke="black" d="M427,-1.5C433,-1.5 439,-7.5 439,-13.5"/>
<polyline fill="none" stroke="black" points="439,-13.5 439,-91.5 "/>
<path fill="none" stroke="black" d="M439,-91.5C439,-97.5 433,-103.5 427,-103.5"/>
<polyline fill="none" stroke="black" points="427,-103.5 211,-103.5 "/>
<path fill="none" stroke="black" d="M211,-103.5C205,-103.5 199,-97.5 199,-91.5"/>
<polyline fill="none" stroke="black" points="199,-91.5 199,-13.5 "/>
<path fill="none" stroke="black" d="M199,-13.5C199,-7.5 205,-1.5 211,-1.5"/>
<text text-anchor="middle" x="319" y="-86.9" font-family="Times Roman,serif" font-size="14.00">Api::V1::ConfirmationsController</text>
<polyline fill="none" stroke="black" points="199,-77.5 439,-77.5 "/>
<text text-anchor="start" x="207" y="-60.9" font-family="Times Roman,serif" font-size="14.00">show</text>
<polyline fill="none" stroke="black" points="199,-51.5 439,-51.5 "/>
<polyline fill="none" stroke="black" points="199,-27.5 439,-27.5 "/>
<text text-anchor="start" x="207" y="-10.9" font-family="Times Roman,serif" font-size="14.00">_layout</text>
</g>
<!-- Api::V1::SessionsController -->
<g id="node3" class="node"><title>Api::V1::SessionsController</title>
<polyline fill="none" stroke="black" points="497,-1.5 676,-1.5 "/>
<path fill="none" stroke="black" d="M676,-1.5C682,-1.5 688,-7.5 688,-13.5"/>
<polyline fill="none" stroke="black" points="688,-13.5 688,-111.5 "/>
<path fill="none" stroke="black" d="M688,-111.5C688,-117.5 682,-123.5 676,-123.5"/>
<polyline fill="none" stroke="black" points="676,-123.5 497,-123.5 "/>
<path fill="none" stroke="black" d="M497,-123.5C491,-123.5 485,-117.5 485,-111.5"/>
<polyline fill="none" stroke="black" points="485,-111.5 485,-13.5 "/>
<path fill="none" stroke="black" d="M485,-13.5C485,-7.5 491,-1.5 497,-1.5"/>
<text text-anchor="middle" x="586.5" y="-106.9" font-family="Times Roman,serif" font-size="14.00">Api::V1::SessionsController</text>
<polyline fill="none" stroke="black" points="485,-97.5 688,-97.5 "/>
<text text-anchor="start" x="493" y="-80.9" font-family="Times Roman,serif" font-size="14.00">create</text>
<text text-anchor="start" x="493" y="-62.9" font-family="Times Roman,serif" font-size="14.00">destroy</text>
<polyline fill="none" stroke="black" points="485,-53.5 688,-53.5 "/>
<text text-anchor="start" x="493" y="-36.9" font-family="Times Roman,serif" font-size="14.00">configure_sign_in_params</text>
<polyline fill="none" stroke="black" points="485,-27.5 688,-27.5 "/>
<text text-anchor="start" x="493" y="-10.9" font-family="Times Roman,serif" font-size="14.00">_layout</text>
</g>
<!-- Api::V1::RegistrationsController -->
<g id="node4" class="node"><title>Api::V1::RegistrationsController</title>
<polyline fill="none" stroke="black" points="365,-155.5 596,-155.5 "/>
<path fill="none" stroke="black" d="M596,-155.5C602,-155.5 608,-161.5 608,-167.5"/>
<polyline fill="none" stroke="black" points="608,-167.5 608,-301.5 "/>
<path fill="none" stroke="black" d="M608,-301.5C608,-307.5 602,-313.5 596,-313.5"/>
<polyline fill="none" stroke="black" points="596,-313.5 365,-313.5 "/>
<path fill="none" stroke="black" d="M365,-313.5C359,-313.5 353,-307.5 353,-301.5"/>
<polyline fill="none" stroke="black" points="353,-301.5 353,-167.5 "/>
<path fill="none" stroke="black" d="M353,-167.5C353,-161.5 359,-155.5 365,-155.5"/>
<text text-anchor="middle" x="480.5" y="-296.9" font-family="Times Roman,serif" font-size="14.00">Api::V1::RegistrationsController</text>
<polyline fill="none" stroke="black" points="353,-287.5 608,-287.5 "/>
<text text-anchor="start" x="361" y="-270.9" font-family="Times Roman,serif" font-size="14.00">create</text>
<text text-anchor="start" x="361" y="-252.9" font-family="Times Roman,serif" font-size="14.00">destroy</text>
<text text-anchor="start" x="361" y="-234.9" font-family="Times Roman,serif" font-size="14.00">update</text>
<polyline fill="none" stroke="black" points="353,-225.5 608,-225.5 "/>
<text text-anchor="start" x="361" y="-208.9" font-family="Times Roman,serif" font-size="14.00">configure_account_update_params</text>
<text text-anchor="start" x="361" y="-190.9" font-family="Times Roman,serif" font-size="14.00">configure_sign_up_params</text>
<polyline fill="none" stroke="black" points="353,-181.5 608,-181.5 "/>
<text text-anchor="start" x="361" y="-164.9" font-family="Times Roman,serif" font-size="14.00">_layout</text>
</g>
<!-- Api::V1::BaseApiController -->
<g id="node5" class="node"><title>Api::V1::BaseApiController</title>
<polyline fill="none" stroke="black" points="57,-155.5 305,-155.5 "/>
<path fill="none" stroke="black" d="M305,-155.5C311,-155.5 317,-161.5 317,-167.5"/>
<polyline fill="none" stroke="black" points="317,-167.5 317,-425.5 "/>
<path fill="none" stroke="black" d="M317,-425.5C317,-431.5 311,-437.5 305,-437.5"/>
<polyline fill="none" stroke="black" points="305,-437.5 57,-437.5 "/>
<path fill="none" stroke="black" d="M57,-437.5C51,-437.5 45,-431.5 45,-425.5"/>
<polyline fill="none" stroke="black" points="45,-425.5 45,-167.5 "/>
<path fill="none" stroke="black" d="M45,-167.5C45,-161.5 51,-155.5 57,-155.5"/>
<text text-anchor="middle" x="181" y="-420.9" font-family="Times Roman,serif" font-size="14.00">Api::V1::BaseApiController</text>
<polyline fill="none" stroke="black" points="45,-411.5 317,-411.5 "/>
<text text-anchor="start" x="53" y="-394.9" font-family="Times Roman,serif" font-size="14.00">me</text>
<text text-anchor="start" x="53" y="-376.9" font-family="Times Roman,serif" font-size="14.00">options</text>
<text text-anchor="start" x="53" y="-358.9" font-family="Times Roman,serif" font-size="14.00">version</text>
<polyline fill="none" stroke="black" points="45,-349.5 317,-349.5 "/>
<polyline fill="none" stroke="black" points="45,-325.5 317,-325.5 "/>
<text text-anchor="start" x="53" y="-308.9" font-family="Times Roman,serif" font-size="14.00">_layout</text>
<text text-anchor="start" x="53" y="-290.9" font-family="Times Roman,serif" font-size="14.00">authenticate_from_token!</text>
<text text-anchor="start" x="53" y="-272.9" font-family="Times Roman,serif" font-size="14.00">authenticate_user!</text>
<text text-anchor="start" x="53" y="-254.9" font-family="Times Roman,serif" font-size="14.00">get_params</text>
<text text-anchor="start" x="53" y="-236.9" font-family="Times Roman,serif" font-size="14.00">remove_empty_params_and_headers</text>
<text text-anchor="start" x="53" y="-218.9" font-family="Times Roman,serif" font-size="14.00">render_user</text>
<text text-anchor="start" x="53" y="-200.9" font-family="Times Roman,serif" font-size="14.00">set_custom_response_headers</text>
<text text-anchor="start" x="53" y="-182.9" font-family="Times Roman,serif" font-size="14.00">verify_payload!</text>
<text text-anchor="start" x="53" y="-164.9" font-family="Times Roman,serif" font-size="14.00">verify_signature</text>
</g>
<!-- Api::V1::GraphqlController -->
<g id="node6" class="node"><title>Api::V1::GraphqlController</title>
<polyline fill="none" stroke="black" points="409,-507.5 584,-507.5 "/>
<path fill="none" stroke="black" d="M584,-507.5C590,-507.5 596,-513.5 596,-519.5"/>
<polyline fill="none" stroke="black" points="596,-519.5 596,-671.5 "/>
<path fill="none" stroke="black" d="M596,-671.5C596,-677.5 590,-683.5 584,-683.5"/>
<polyline fill="none" stroke="black" points="584,-683.5 409,-683.5 "/>
<path fill="none" stroke="black" d="M409,-683.5C403,-683.5 397,-677.5 397,-671.5"/>
<polyline fill="none" stroke="black" points="397,-671.5 397,-519.5 "/>
<path fill="none" stroke="black" d="M397,-519.5C397,-513.5 403,-507.5 409,-507.5"/>
<text text-anchor="middle" x="496.5" y="-666.9" font-family="Times Roman,serif" font-size="14.00">Api::V1::GraphqlController</text>
<polyline fill="none" stroke="black" points="397,-657.5 596,-657.5 "/>
<text text-anchor="start" x="405" y="-640.9" font-family="Times Roman,serif" font-size="14.00">create</text>
<polyline fill="none" stroke="black" points="397,-631.5 596,-631.5 "/>
<text text-anchor="start" x="405" y="-614.9" font-family="Times Roman,serif" font-size="14.00">ensure_hash</text>
<polyline fill="none" stroke="black" points="397,-605.5 596,-605.5 "/>
<text text-anchor="start" x="405" y="-588.9" font-family="Times Roman,serif" font-size="14.00">_layout</text>
<text text-anchor="start" x="405" y="-570.9" font-family="Times Roman,serif" font-size="14.00">load_ability</text>
<text text-anchor="start" x="405" y="-552.9" font-family="Times Roman,serif" font-size="14.00">load_context_team</text>
<text text-anchor="start" x="405" y="-534.9" font-family="Times Roman,serif" font-size="14.00">set_current_team</text>
<text text-anchor="start" x="405" y="-516.9" font-family="Times Roman,serif" font-size="14.00">set_current_user</text>
</g>
<!-- Api::V1::OmniauthCallbacksController -->
<g id="node7" class="node"><title>Api::V1::OmniauthCallbacksController</title>
<polyline fill="none" stroke="black" points="365,-353.5 618,-353.5 "/>
<path fill="none" stroke="black" d="M618,-353.5C624,-353.5 630,-359.5 630,-365.5"/>
<polyline fill="none" stroke="black" points="630,-365.5 630,-463.5 "/>
<path fill="none" stroke="black" d="M630,-463.5C630,-469.5 624,-475.5 618,-475.5"/>
<polyline fill="none" stroke="black" points="618,-475.5 365,-475.5 "/>
<path fill="none" stroke="black" d="M365,-475.5C359,-475.5 353,-469.5 353,-463.5"/>
<polyline fill="none" stroke="black" points="353,-463.5 353,-365.5 "/>
<path fill="none" stroke="black" d="M353,-365.5C353,-359.5 359,-353.5 365,-353.5"/>
<text text-anchor="middle" x="491.5" y="-458.9" font-family="Times Roman,serif" font-size="14.00">Api::V1::OmniauthCallbacksController</text>
<polyline fill="none" stroke="black" points="353,-449.5 630,-449.5 "/>
<text text-anchor="start" x="361" y="-432.9" font-family="Times Roman,serif" font-size="14.00">failure</text>
<text text-anchor="start" x="361" y="-414.9" font-family="Times Roman,serif" font-size="14.00">logout</text>
<polyline fill="none" stroke="black" points="353,-405.5 630,-405.5 "/>
<text text-anchor="start" x="361" y="-388.9" font-family="Times Roman,serif" font-size="14.00">start_session_and_redirect</text>
<polyline fill="none" stroke="black" points="353,-379.5 630,-379.5 "/>
<text text-anchor="start" x="361" y="-362.9" font-family="Times Roman,serif" font-size="14.00">_layout</text>
</g>
<!-- TestController -->
<g id="node8" class="node"><title>TestController</title>
<polyline fill="none" stroke="black" points="13,-617.5 141,-617.5 "/>
<path fill="none" stroke="black" d="M141,-617.5C147,-617.5 153,-623.5 153,-629.5"/>
<polyline fill="none" stroke="black" points="153,-629.5 153,-725.5 "/>
<path fill="none" stroke="black" d="M153,-725.5C153,-731.5 147,-737.5 141,-737.5"/>
<polyline fill="none" stroke="black" points="141,-737.5 13,-737.5 "/>
<path fill="none" stroke="black" d="M13,-737.5C7,-737.5 1,-731.5 1,-725.5"/>
<polyline fill="none" stroke="black" points="1,-725.5 1,-629.5 "/>
<path fill="none" stroke="black" d="M1,-629.5C1,-623.5 7,-617.5 13,-617.5"/>
<text text-anchor="middle" x="77" y="-720.9" font-family="Times Roman,serif" font-size="14.00">TestController</text>
<polyline fill="none" stroke="black" points="1,-711.5 153,-711.5 "/>
<text text-anchor="start" x="9" y="-694.9" font-family="Times Roman,serif" font-size="14.00">confirm_user</text>
<polyline fill="none" stroke="black" points="1,-685.5 153,-685.5 "/>
<polyline fill="none" stroke="black" points="1,-661.5 153,-661.5 "/>
<text text-anchor="start" x="9" y="-644.9" font-family="Times Roman,serif" font-size="14.00">_layout</text>
<text text-anchor="start" x="9" y="-626.9" font-family="Times Roman,serif" font-size="14.00">check_environment</text>
</g>
<!-- ApplicationController -->
<g id="node9" class="node"><title>ApplicationController</title>
<polyline fill="none" stroke="black" points="211,-617.5 350,-617.5 "/>
<path fill="none" stroke="black" d="M350,-617.5C356,-617.5 362,-623.5 362,-629.5"/>
<polyline fill="none" stroke="black" points="362,-629.5 362,-759.5 "/>
<path fill="none" stroke="black" d="M362,-759.5C362,-765.5 356,-771.5 350,-771.5"/>
<polyline fill="none" stroke="black" points="350,-771.5 211,-771.5 "/>
<path fill="none" stroke="black" d="M211,-771.5C205,-771.5 199,-765.5 199,-759.5"/>
<polyline fill="none" stroke="black" points="199,-759.5 199,-629.5 "/>
<path fill="none" stroke="black" d="M199,-629.5C199,-623.5 205,-617.5 211,-617.5"/>
<text text-anchor="middle" x="280.5" y="-754.9" font-family="Times Roman,serif" font-size="14.00">ApplicationController</text>
<polyline fill="none" stroke="black" points="199,-745.5 362,-745.5 "/>
<polyline fill="none" stroke="black" points="199,-721.5 362,-721.5 "/>
<polyline fill="none" stroke="black" points="199,-697.5 362,-697.5 "/>
<text text-anchor="start" x="207" y="-680.9" font-family="Times Roman,serif" font-size="14.00">_layout</text>
<text text-anchor="start" x="207" y="-662.9" font-family="Times Roman,serif" font-size="14.00">render_error</text>
<text text-anchor="start" x="207" y="-644.9" font-family="Times Roman,serif" font-size="14.00">render_success</text>
<text text-anchor="start" x="207" y="-626.9" font-family="Times Roman,serif" font-size="14.00">render_unauthorized</text>
</g>
</g>
</svg>
