<?xml version="1.0" encoding="UTF-8" standalone="no"?>
<!DOCTYPE svg PUBLIC "-//W3C//DTD SVG 1.1//EN"
 "http://www.w3.org/Graphics/SVG/1.1/DTD/svg11.dtd">
<!-- Generated by graphviz version 2.26.3 (20100126.1600)
 -->
<!-- Title: models_diagram Pages: 1 -->
<svg width="896pt" height="474pt"
 viewBox="0.00 0.00 896.00 474.00" xmlns="http://www.w3.org/2000/svg" xmlns:xlink="http://www.w3.org/1999/xlink">
<g id="graph1" class="graph" transform="scale(1 1) rotate(0) translate(4 470)">
<title>models_diagram</title>
<polygon fill="none" stroke="none" points="-4,5 -4,-470 893,-470 893,5 -4,5"/>
<!-- Tag -->
<g id="node1" class="node"><title>Tag</title>
<ellipse fill="none" stroke="black" cx="28" cy="-447" rx="27.7881" ry="18.3848"/>
<text text-anchor="middle" x="28" y="-443.4" font-family="Times Roman,serif" font-size="14.00">Tag</text>
</g>
<!-- Status -->
<g id="node2" class="node"><title>Status</title>
<ellipse fill="none" stroke="black" cx="118" cy="-447" rx="43.8406" ry="18.3848"/>
<text text-anchor="middle" x="118" y="-443.4" font-family="Times Roman,serif" font-size="14.00">Status</text>
</g>
<!-- Flag -->
<g id="node3" class="node"><title>Flag</title>
<ellipse fill="none" stroke="black" cx="212" cy="-447" rx="31.8198" ry="18.3848"/>
<text text-anchor="middle" x="212" y="-443.4" font-family="Times Roman,serif" font-size="14.00">Flag</text>
</g>
<!-- Comment -->
<g id="node4" class="node"><title>Comment</title>
<ellipse fill="none" stroke="black" cx="320" cy="-447" rx="58.1882" ry="18.3848"/>
<text text-anchor="middle" x="320" y="-443.4" font-family="Times Roman,serif" font-size="14.00">Comment</text>
</g>
<!-- Annotation -->
<g id="node5" class="node"><title>Annotation</title>
<ellipse fill="none" stroke="black" cx="462" cy="-447" rx="65.9683" ry="18.3848"/>
<text text-anchor="middle" x="462" y="-443.4" font-family="Times Roman,serif" font-size="14.00">Annotation</text>
</g>
<!-- Source -->
<g id="node6" class="node"><title>Source</title>
<ellipse fill="none" stroke="black" cx="583" cy="-295" rx="44.7575" ry="18.3848"/>
<text text-anchor="middle" x="583" y="-291.4" font-family="Times Roman,serif" font-size="14.00">Source</text>
</g>
<!-- ProjectSource -->
<g id="node8" class="node"><title>ProjectSource</title>
<ellipse fill="none" stroke="black" cx="650" cy="-111" rx="79.196" ry="18.3848"/>
<text text-anchor="middle" x="650" y="-107.4" font-family="Times Roman,serif" font-size="14.00">ProjectSource</text>
</g>
<!-- Source&#45;&gt;ProjectSource -->
<g id="edge6" class="edge"><title>Source&#45;&gt;ProjectSource</title>
<path fill="none" stroke="#e1c253" d="M592.412,-269.152C604.888,-234.89 626.824,-174.648 639.721,-139.229"/>
<ellipse fill="none" stroke="#e1c253" cx="591.038" cy="-272.926" rx="4.00001" ry="4.00001"/>
<polygon fill="#e1c253" stroke="#e1c253" points="639.837,-138.911 647.487,-131.054 641.548,-134.213 643.258,-129.514 643.258,-129.514 643.258,-129.514 641.548,-134.213 639.03,-127.975 639.837,-138.911 639.837,-138.911"/>
</g>
<!-- Account -->
<g id="node9" class="node"><title>Account</title>
<ellipse fill="none" stroke="black" cx="534" cy="-203" rx="50.9117" ry="18.3848"/>
<text text-anchor="middle" x="534" y="-199.4" font-family="Times Roman,serif" font-size="14.00">Account</text>
</g>
<!-- Source&#45;&gt;Account -->
<g id="edge4" class="edge"><title>Source&#45;&gt;Account</title>
<path fill="none" stroke="#cc4a34" d="M569.512,-269.675C563.031,-257.506 555.251,-242.9 548.627,-230.464"/>
<ellipse fill="none" stroke="#cc4a34" cx="571.439" cy="-273.293" rx="4.00002" ry="4.00002"/>
<polygon fill="#cc4a34" stroke="#cc4a34" points="548.529,-230.28 547.8,-219.338 546.179,-225.866 543.828,-221.453 543.828,-221.453 543.828,-221.453 546.179,-225.866 539.857,-223.569 548.529,-230.28 548.529,-230.28"/>
</g>
<!-- Project -->
<g id="node10" class="node"><title>Project</title>
<ellipse fill="none" stroke="black" cx="419" cy="-203" rx="45.9619" ry="18.3848"/>
<text text-anchor="middle" x="419" y="-199.4" font-family="Times Roman,serif" font-size="14.00">Project</text>
</g>
<!-- Source&#45;&gt;Project -->
<g id="edge8" class="edge"><title>Source&#45;&gt;Project</title>
<path fill="none" stroke="#7af772" d="M547.265,-274.953C519.88,-259.591 482.265,-238.49 454.852,-223.112"/>
<polygon fill="#7af772" stroke="#7af772" points="547.564,-275.121 554.084,-283.939 551.925,-277.568 556.286,-280.014 556.286,-280.014 556.286,-280.014 551.925,-277.568 558.487,-276.089 547.564,-275.121 547.564,-275.121"/>
<polygon fill="#7af772" stroke="#7af772" points="454.697,-223.025 448.177,-214.208 450.336,-220.579 445.976,-218.133 445.976,-218.133 445.976,-218.133 450.336,-220.579 443.774,-222.057 454.697,-223.025 454.697,-223.025"/>
</g>
<!-- PaperTrail::Version -->
<g id="node17" class="node"><title>PaperTrail::Version</title>
<ellipse fill="none" stroke="black" cx="495" cy="-19" rx="101.823" ry="18.3848"/>
<text text-anchor="middle" x="495" y="-15.4" font-family="Times Roman,serif" font-size="14.00">PaperTrail::Version</text>
</g>
<!-- Source&#45;&gt;PaperTrail::Version -->
<g id="edge2" class="edge"><title>Source&#45;&gt;PaperTrail::Version</title>
<path fill="none" stroke="#b14b97" d="M617.018,-275.926C676.56,-240.1 788.73,-160.21 738,-92 718.786,-66.1657 642.283,-46.0327 580.182,-33.5134"/>
<ellipse fill="none" stroke="#b14b97" cx="613.472" cy="-278.031" rx="4.00002" ry="4.00002"/>
<polygon fill="#b14b97" stroke="#b14b97" points="580.159,-33.5091 571.222,-27.1553 575.254,-32.5395 570.349,-31.5698 570.349,-31.5698 570.349,-31.5698 575.254,-32.5395 569.477,-35.9844 580.159,-33.5091 580.159,-33.5091"/>
<text text-anchor="middle" x="776" y="-153.4" font-family="Times Roman,serif" font-size="14.00">versions</text>
</g>
<!-- Team -->
<g id="node7" class="node"><title>Team</title>
<ellipse fill="none" stroke="black" cx="583" cy="-447" rx="36.977" ry="18.3848"/>
<text text-anchor="middle" x="583" y="-443.4" font-family="Times Roman,serif" font-size="14.00">Team</text>
</g>
<!-- Team&#45;&gt;Account -->
<g id="edge14" class="edge"><title>Team&#45;&gt;Account</title>
<path fill="none" stroke="#6b9c3f" d="M561.136,-423.613C553.24,-413.901 545.039,-402.085 540,-390 518.213,-337.746 523.312,-269.962 528.786,-232.018"/>
<ellipse fill="none" stroke="#6b9c3f" cx="563.93" cy="-426.921" rx="4.00002" ry="4.00002"/>
<polygon fill="#6b9c3f" stroke="#6b9c3f" points="528.854,-231.578 534.839,-222.389 529.623,-226.637 530.392,-221.697 530.392,-221.697 530.392,-221.697 529.623,-226.637 525.946,-221.005 528.854,-231.578 528.854,-231.578"/>
</g>
<!-- Team&#45;&gt;Project -->
<g id="edge12" class="edge"><title>Team&#45;&gt;Project</title>
<path fill="none" stroke="#246cb3" d="M557.927,-425.357C547.062,-415.256 534.649,-402.678 525,-390 485.063,-337.524 449.754,-268.393 431.714,-230.603"/>
<ellipse fill="none" stroke="#246cb3" cx="561.158" cy="-428.304" rx="4.00002" ry="4.00002"/>
<polygon fill="#246cb3" stroke="#246cb3" points="431.57,-230.3 431.369,-219.336 429.435,-225.778 427.3,-221.257 427.3,-221.257 427.3,-221.257 429.435,-225.778 423.231,-223.179 431.57,-230.3 431.57,-230.3"/>
</g>
<!-- TeamUser -->
<g id="node11" class="node"><title>TeamUser</title>
<ellipse fill="none" stroke="black" cx="705" cy="-295" rx="58.8978" ry="18.3848"/>
<text text-anchor="middle" x="705" y="-291.4" font-family="Times Roman,serif" font-size="14.00">TeamUser</text>
</g>
<!-- Team&#45;&gt;TeamUser -->
<g id="edge16" class="edge"><title>Team&#45;&gt;TeamUser</title>
<path fill="none" stroke="#814b52" d="M602.234,-423.036C624.501,-395.293 661.052,-349.755 684.031,-321.125"/>
<ellipse fill="none" stroke="#814b52" cx="599.499" cy="-426.444" rx="4.00002" ry="4.00002"/>
<polygon fill="#814b52" stroke="#814b52" points="684.153,-320.973 693.922,-315.991 687.283,-317.074 690.413,-313.174 690.413,-313.174 690.413,-313.174 687.283,-317.074 686.903,-310.358 684.153,-320.973 684.153,-320.973"/>
</g>
<!-- User -->
<g id="node14" class="node"><title>User</title>
<ellipse fill="none" stroke="black" cx="583" cy="-371" rx="33.9411" ry="18.3848"/>
<text text-anchor="middle" x="583" y="-367.4" font-family="Times Roman,serif" font-size="14.00">User</text>
</g>
<!-- Team&#45;&gt;User -->
<g id="edge18" class="edge"><title>Team&#45;&gt;User</title>
<path fill="none" stroke="#ba0788" d="M583,-417.938C583,-411.986 583,-405.725 583,-399.783"/>
<polygon fill="#ba0788" stroke="#ba0788" points="583,-418.213 578.5,-428.213 583,-423.213 583,-428.213 583,-428.213 583,-428.213 583,-423.213 587.5,-428.214 583,-418.213 583,-418.213"/>
<polygon fill="#ba0788" stroke="#ba0788" points="583,-399.57 587.5,-389.57 583,-394.57 583,-389.57 583,-389.57 583,-389.57 583,-394.57 578.5,-389.57 583,-399.57 583,-399.57"/>
</g>
<!-- Team&#45;&gt;PaperTrail::Version -->
<g id="edge10" class="edge"><title>Team&#45;&gt;PaperTrail::Version</title>
<path fill="none" stroke="#eabfa9" d="M618.599,-431.824C622.093,-430.477 625.602,-429.179 629,-428 716.724,-397.558 830,-463.856 830,-371 830,-371 830,-371 830,-111 830,-62.3836 697.148,-38.5139 598.769,-27.5029"/>
<ellipse fill="none" stroke="#eabfa9" cx="614.741" cy="-433.352" rx="4.00001" ry="4.00001"/>
<polygon fill="#eabfa9" stroke="#eabfa9" points="598.703,-27.4958 589.249,-21.9399 593.732,-26.9546 588.762,-26.4134 588.762,-26.4134 588.762,-26.4134 593.732,-26.9546 588.275,-30.887 598.703,-27.4958 598.703,-27.4958"/>
<text text-anchor="middle" x="859" y="-245.4" font-family="Times Roman,serif" font-size="14.00">versions</text>
</g>
<!-- Media -->
<g id="node13" class="node"><title>Media</title>
<ellipse fill="none" stroke="black" cx="419" cy="-111" rx="39.8075" ry="18.3848"/>
<text text-anchor="middle" x="419" y="-107.4" font-family="Times Roman,serif" font-size="14.00">Media</text>
</g>
<!-- Account&#45;&gt;Media -->
<g id="edge22" class="edge"><title>Account&#45;&gt;Media</title>
<path fill="none" stroke="#d040e3" d="M503.625,-181.59C496.761,-176.58 489.566,-171.188 483,-166 470.205,-155.889 456.437,-144.172 444.961,-134.158"/>
<ellipse fill="none" stroke="#d040e3" cx="507.101" cy="-184.106" rx="4.00002" ry="4.00002"/>
<polygon fill="#d040e3" stroke="#d040e3" points="444.936,-134.136 440.392,-124.156 441.179,-130.837 437.422,-127.537 437.422,-127.537 437.422,-127.537 441.179,-130.837 434.453,-130.919 444.936,-134.136 444.936,-134.136"/>
</g>
<!-- Account&#45;&gt;PaperTrail::Version -->
<g id="edge20" class="edge"><title>Account&#45;&gt;PaperTrail::Version</title>
<path fill="none" stroke="#a74690" d="M521.029,-177.031C514.805,-163.372 507.874,-146.15 504,-130 497.451,-102.695 495.436,-70.6454 494.918,-48.0232"/>
<ellipse fill="none" stroke="#a74690" cx="522.889" cy="-181.003" rx="4.00002" ry="4.00002"/>
<polygon fill="#a74690" stroke="#a74690" points="494.914,-47.7361 499.271,-37.6727 494.843,-42.7366 494.771,-37.7371 494.771,-37.7371 494.771,-37.7371 494.843,-42.7366 490.272,-37.8014 494.914,-47.7361 494.914,-47.7361"/>
<text text-anchor="middle" x="533" y="-107.4" font-family="Times Roman,serif" font-size="14.00">versions</text>
</g>
<!-- Project&#45;&gt;ProjectSource -->
<g id="edge26" class="edge"><title>Project&#45;&gt;ProjectSource</title>
<path fill="none" stroke="#449f17" d="M459.693,-186.793C498.845,-171.2 558.122,-147.592 600.102,-130.873"/>
<ellipse fill="none" stroke="#449f17" cx="455.813" cy="-188.339" rx="4.00001" ry="4.00001"/>
<polygon fill="#449f17" stroke="#449f17" points="600.289,-130.798 611.244,-131.279 604.934,-128.948 609.579,-127.098 609.579,-127.098 609.579,-127.098 604.934,-128.948 607.914,-122.918 600.289,-130.798 600.289,-130.798"/>
</g>
<!-- ProjectMedia -->
<g id="node12" class="node"><title>ProjectMedia</title>
<ellipse fill="none" stroke="black" cx="279" cy="-19" rx="74.2462" ry="18.3848"/>
<text text-anchor="middle" x="279" y="-15.4" font-family="Times Roman,serif" font-size="14.00">ProjectMedia</text>
</g>
<!-- Project&#45;&gt;ProjectMedia -->
<g id="edge28" class="edge"><title>Project&#45;&gt;ProjectMedia</title>
<path fill="none" stroke="#3f2308" d="M370.246,-192.014C353.254,-186.373 334.965,-178.06 321,-166 286.923,-136.57 279.566,-81.5941 278.48,-47.8518"/>
<ellipse fill="none" stroke="#3f2308" cx="374.124" cy="-193.227" rx="4.00001" ry="4.00001"/>
<polygon fill="#3f2308" stroke="#3f2308" points="278.478,-47.7007 282.822,-37.6318 278.4,-42.7013 278.322,-37.7019 278.322,-37.7019 278.322,-37.7019 278.4,-42.7013 273.823,-37.772 278.478,-47.7007 278.478,-47.7007"/>
</g>
<!-- Project&#45;&gt;Media -->
<g id="edge30" class="edge"><title>Project&#45;&gt;Media</title>
<path fill="none" stroke="#3566cc" d="M419,-174.342C419,-163.283 419,-150.657 419,-139.604"/>
<polygon fill="#3566cc" stroke="#3566cc" points="419,-174.382 414.5,-184.382 419,-179.382 419,-184.382 419,-184.382 419,-184.382 419,-179.382 423.5,-184.382 419,-174.382 419,-174.382"/>
<polygon fill="#3566cc" stroke="#3566cc" points="419,-139.59 423.5,-129.59 419,-134.59 419,-129.59 419,-129.59 419,-129.59 419,-134.59 414.5,-129.59 419,-139.59 419,-139.59"/>
</g>
<!-- Project&#45;&gt;PaperTrail::Version -->
<g id="edge24" class="edge"><title>Project&#45;&gt;PaperTrail::Version</title>
<path fill="none" stroke="#5527b0" d="M380.511,-185.707C340.461,-165.21 286.837,-129.129 312,-92 332.961,-61.0711 369.351,-43.2456 404.188,-32.9724"/>
<ellipse fill="none" stroke="#5527b0" cx="384.23" cy="-187.563" rx="4.00002" ry="4.00002"/>
<polygon fill="#5527b0" stroke="#5527b0" points="404.32,-32.9359 415.158,-34.6077 409.139,-31.6032 413.958,-30.2704 413.958,-30.2704 413.958,-30.2704 409.139,-31.6032 412.759,-25.9332 404.32,-32.9359 404.32,-32.9359"/>
<text text-anchor="middle" x="341" y="-107.4" font-family="Times Roman,serif" font-size="14.00">versions</text>
</g>
<!-- Media&#45;&gt;ProjectMedia -->
<g id="edge34" class="edge"><title>Media&#45;&gt;ProjectMedia</title>
<path fill="none" stroke="#301f8c" d="M389.169,-91.3968C367.16,-76.9339 337.144,-57.2087 314,-42"/>
<ellipse fill="none" stroke="#301f8c" cx="392.539" cy="-93.6113" rx="4.00002" ry="4.00002"/>
<polygon fill="#301f8c" stroke="#301f8c" points="313.855,-41.9045 307.969,-32.652 309.676,-39.1586 305.498,-36.4127 305.498,-36.4127 305.498,-36.4127 309.676,-39.1586 303.026,-40.1733 313.855,-41.9045 313.855,-41.9045"/>
</g>
<!-- Media&#45;&gt;PaperTrail::Version -->
<g id="edge32" class="edge"><title>Media&#45;&gt;PaperTrail::Version</title>
<path fill="none" stroke="#a28f5c" d="M415.75,-84.3221C415.854,-74.7075 417.567,-64.2142 423,-56 426.855,-50.172 431.928,-45.2121 437.601,-41.003"/>
<ellipse fill="none" stroke="#a28f5c" cx="415.886" cy="-88.4678" rx="4" ry="4"/>
<polygon fill="#a28f5c" stroke="#a28f5c" points="437.889,-40.8155 448.725,-39.131 442.079,-38.0876 446.27,-35.3597 446.27,-35.3597 446.27,-35.3597 442.079,-38.0876 443.814,-31.5885 437.889,-40.8155 437.889,-40.8155"/>
<text text-anchor="middle" x="452" y="-61.4" font-family="Times Roman,serif" font-size="14.00">versions</text>
</g>
<!-- User&#45;&gt;Source -->
<g id="edge36" class="edge"><title>User&#45;&gt;Source</title>
<path fill="none" stroke="#7dea21" d="M583,-344.073C583,-336.818 583,-328.972 583,-321.727"/>
<ellipse fill="none" stroke="#7dea21" cx="583" cy="-348.213" rx="4" ry="4"/>
<ellipse fill="#7dea21" stroke="#7dea21" cx="583" cy="-317.57" rx="4" ry="4"/>
</g>
<!-- User&#45;&gt;Project -->
<g id="edge40" class="edge"><title>User&#45;&gt;Project</title>
<path fill="none" stroke="#acbc2b" d="M561.139,-348.606C530.447,-317.165 474.784,-260.144 442.985,-227.57"/>
<ellipse fill="none" stroke="#acbc2b" cx="564.182" cy="-351.723" rx="4.00002" ry="4.00002"/>
<polygon fill="#acbc2b" stroke="#acbc2b" points="442.807,-227.388 439.042,-217.089 439.315,-223.81 435.822,-220.232 435.822,-220.232 435.822,-220.232 439.315,-223.81 432.602,-223.376 442.807,-227.388 442.807,-227.388"/>
</g>
<!-- User&#45;&gt;TeamUser -->
<g id="edge38" class="edge"><title>User&#45;&gt;TeamUser</title>
<path fill="none" stroke="#8758d4" d="M612.171,-352.828C629.375,-342.111 651.271,-328.471 669.476,-317.13"/>
<ellipse fill="none" stroke="#8758d4" cx="608.772" cy="-354.945" rx="4.00002" ry="4.00002"/>
<polygon fill="#8758d4" stroke="#8758d4" points="669.592,-317.057 680.46,-315.589 673.836,-314.413 678.08,-311.77 678.08,-311.77 678.08,-311.77 673.836,-314.413 675.701,-307.95 669.592,-317.057 669.592,-317.057"/>
</g>
<!-- ApiKey -->
<g id="node15" class="node"><title>ApiKey</title>
<ellipse fill="none" stroke="black" cx="682" cy="-447" rx="44.0472" ry="18.3848"/>
<text text-anchor="middle" x="682" y="-443.4" font-family="Times Roman,serif" font-size="14.00">ApiKey</text>
</g>
</g>
</svg>
