<?xml version="1.0" encoding="UTF-8" standalone="no"?>
<!DOCTYPE svg PUBLIC "-//W3C//DTD SVG 1.1//EN"
 "http://www.w3.org/Graphics/SVG/1.1/DTD/svg11.dtd">
<!-- Generated by graphviz version 2.26.3 (20100126.1600)
 -->
<!-- Title: models_diagram Pages: 1 -->
<svg width="1528pt" height="474pt"
 viewBox="0.00 0.00 1528.00 474.00" xmlns="http://www.w3.org/2000/svg" xmlns:xlink="http://www.w3.org/1999/xlink">
<g id="graph1" class="graph" transform="scale(1 1) rotate(0) translate(4 470)">
<title>models_diagram</title>
<polygon fill="none" stroke="none" points="-4,5 -4,-470 1525,-470 1525,5 -4,5"/>
<!-- Tag -->
<g id="node1" class="node"><title>Tag</title>
<ellipse fill="none" stroke="black" cx="559" cy="-111" rx="27.7881" ry="18.3848"/>
<text text-anchor="middle" x="559" y="-107.4" font-family="Times Roman,serif" font-size="14.00">Tag</text>
</g>
<!-- PaperTrail::Version -->
<g id="node25" class="node"><title>PaperTrail::Version</title>
<ellipse fill="none" stroke="black" cx="559" cy="-19" rx="101.823" ry="18.3848"/>
<text text-anchor="middle" x="559" y="-15.4" font-family="Times Roman,serif" font-size="14.00">PaperTrail::Version</text>
</g>
<!-- Tag&#45;&gt;PaperTrail::Version -->
<g id="edge2" class="edge"><title>Tag&#45;&gt;PaperTrail::Version</title>
<path fill="none" stroke="#dc2cfe" d="M559,-84.029C559,-72.5994 559,-59.2671 559,-47.6601"/>
<ellipse fill="none" stroke="#dc2cfe" cx="559" cy="-88.3824" rx="4" ry="4"/>
<polygon fill="#dc2cfe" stroke="#dc2cfe" points="559,-47.5899 563.5,-37.5898 559,-42.5899 559,-37.5899 559,-37.5899 559,-37.5899 559,-42.5899 554.5,-37.5899 559,-47.5899 559,-47.5899"/>
<text text-anchor="middle" x="588" y="-61.4" font-family="Times Roman,serif" font-size="14.00">versions</text>
</g>
<!-- Status -->
<g id="node2" class="node"><title>Status</title>
<ellipse fill="none" stroke="black" cx="44" cy="-111" rx="43.8406" ry="18.3848"/>
<text text-anchor="middle" x="44" y="-107.4" font-family="Times Roman,serif" font-size="14.00">Status</text>
</g>
<!-- Status&#45;&gt;PaperTrail::Version -->
<g id="edge4" class="edge"><title>Status&#45;&gt;PaperTrail::Version</title>
<path fill="none" stroke="#1ab526" d="M37.479,-84.3398C36.6421,-74.2486 37.9688,-63.4192 45,-56 58.6915,-41.5531 301.784,-29.3103 448.687,-23.1897"/>
<ellipse fill="none" stroke="#1ab526" cx="38.0659" cy="-88.5893" rx="4.00001" ry="4.00001"/>
<polygon fill="#1ab526" stroke="#1ab526" points="449.102,-23.1727 459.279,-27.2558 454.098,-22.9662 459.093,-22.7597 459.093,-22.7597 459.093,-22.7597 454.098,-22.9662 458.908,-18.2635 449.102,-23.1727 449.102,-23.1727"/>
<text text-anchor="middle" x="74" y="-61.4" font-family="Times Roman,serif" font-size="14.00">versions</text>
</g>
<!-- Flag -->
<g id="node3" class="node"><title>Flag</title>
<ellipse fill="none" stroke="black" cx="271" cy="-111" rx="31.8198" ry="18.3848"/>
<text text-anchor="middle" x="271" y="-107.4" font-family="Times Roman,serif" font-size="14.00">Flag</text>
</g>
<!-- Flag&#45;&gt;PaperTrail::Version -->
<g id="edge6" class="edge"><title>Flag&#45;&gt;PaperTrail::Version</title>
<path fill="none" stroke="#0e2bde" d="M287.141,-86.6926C295.836,-75.5516 307.542,-63.2406 321,-56 344.395,-43.4131 403.197,-34.2059 456.495,-28.1243"/>
<ellipse fill="none" stroke="#0e2bde" cx="284.516" cy="-90.2148" rx="4.00002" ry="4.00002"/>
<polygon fill="#0e2bde" stroke="#0e2bde" points="456.782,-28.0925 467.218,-31.4598 461.751,-27.5399 466.721,-26.9874 466.721,-26.9874 466.721,-26.9874 461.751,-27.5399 466.223,-22.5149 456.782,-28.0925 456.782,-28.0925"/>
<text text-anchor="middle" x="350" y="-61.4" font-family="Times Roman,serif" font-size="14.00">versions</text>
</g>
<!-- Embed -->
<g id="node4" class="node"><title>Embed</title>
<ellipse fill="none" stroke="black" cx="1205" cy="-111" rx="44.0472" ry="18.3848"/>
<text text-anchor="middle" x="1205" y="-107.4" font-family="Times Roman,serif" font-size="14.00">Embed</text>
</g>
<!-- Embed&#45;&gt;PaperTrail::Version -->
<g id="edge8" class="edge"><title>Embed&#45;&gt;PaperTrail::Version</title>
<path fill="none" stroke="#d08f0d" d="M1186.59,-86.9834C1176.31,-75.4648 1162.46,-62.7339 1147,-56 1104.62,-37.5371 828.869,-26.699 670.484,-21.924"/>
<ellipse fill="none" stroke="#d08f0d" cx="1189.33" cy="-90.1743" rx="4.00002" ry="4.00002"/>
<polygon fill="#d08f0d" stroke="#d08f0d" points="670.22,-21.9162 660.359,-17.1202 665.222,-21.7672 660.225,-21.6182 660.225,-21.6182 660.225,-21.6182 665.222,-21.7672 660.09,-26.1162 670.22,-21.9162 670.22,-21.9162"/>
<text text-anchor="middle" x="1201" y="-61.4" font-family="Times Roman,serif" font-size="14.00">versions</text>
</g>
<!-- Comment -->
<g id="node5" class="node"><title>Comment</title>
<ellipse fill="none" stroke="black" cx="379" cy="-111" rx="58.1882" ry="18.3848"/>
<text text-anchor="middle" x="379" y="-107.4" font-family="Times Roman,serif" font-size="14.00">Comment</text>
</g>
<!-- Comment&#45;&gt;PaperTrail::Version -->
<g id="edge10" class="edge"><title>Comment&#45;&gt;PaperTrail::Version</title>
<path fill="none" stroke="#22a178" d="M380.017,-84.264C381.745,-74.1618 385.432,-63.3446 393,-56 403.994,-45.3306 433.35,-37.2315 464.376,-31.372"/>
<ellipse fill="none" stroke="#22a178" cx="379.482" cy="-88.5209" rx="4.00001" ry="4.00001"/>
<polygon fill="#22a178" stroke="#22a178" points="464.646,-31.3234 475.286,-33.9763 469.566,-30.4356 474.487,-29.5478 474.487,-29.5478 474.487,-29.5478 469.566,-30.4356 473.688,-25.1193 464.646,-31.3234 464.646,-31.3234"/>
<text text-anchor="middle" x="422" y="-61.4" font-family="Times Roman,serif" font-size="14.00">versions</text>
</g>
<!-- Annotation -->
<g id="node6" class="node"><title>Annotation</title>
<ellipse fill="none" stroke="black" cx="671" cy="-111" rx="65.9683" ry="18.3848"/>
<text text-anchor="middle" x="671" y="-107.4" font-family="Times Roman,serif" font-size="14.00">Annotation</text>
</g>
<!-- Annotation&#45;&gt;PaperTrail::Version -->
<g id="edge12" class="edge"><title>Annotation&#45;&gt;PaperTrail::Version</title>
<path fill="none" stroke="#c0da9c" d="M651.713,-86.7727C642.955,-76.6062 632.085,-65.0656 621,-56 614.86,-50.9783 607.967,-46.1784 601.068,-41.7975"/>
<ellipse fill="none" stroke="#c0da9c" cx="654.297" cy="-89.834" rx="4.00002" ry="4.00002"/>
<polygon fill="#c0da9c" stroke="#c0da9c" points="600.915,-41.7039 594.731,-32.6481 596.649,-39.0956 592.383,-36.4873 592.383,-36.4873 592.383,-36.4873 596.649,-39.0956 590.036,-40.3265 600.915,-41.7039 600.915,-41.7039"/>
<text text-anchor="middle" x="667" y="-61.4" font-family="Times Roman,serif" font-size="14.00">versions</text>
</g>
<!-- Source -->
<g id="node7" class="node"><title>Source</title>
<ellipse fill="none" stroke="black" cx="731" cy="-295" rx="44.7575" ry="18.3848"/>
<text text-anchor="middle" x="731" y="-291.4" font-family="Times Roman,serif" font-size="14.00">Source</text>
</g>
<!-- ProjectSource -->
<g id="node11" class="node"><title>ProjectSource</title>
<ellipse fill="none" stroke="black" cx="932" cy="-111" rx="79.196" ry="18.3848"/>
<text text-anchor="middle" x="932" y="-107.4" font-family="Times Roman,serif" font-size="14.00">ProjectSource</text>
</g>
<!-- Source&#45;&gt;ProjectSource -->
<g id="edge18" class="edge"><title>Source&#45;&gt;ProjectSource</title>
<path fill="none" stroke="#434dc3" d="M755.683,-272.404C793.543,-237.747 865.675,-171.715 904.924,-135.786"/>
<ellipse fill="none" stroke="#434dc3" cx="752.5" cy="-275.319" rx="4.00002" ry="4.00002"/>
<polygon fill="#434dc3" stroke="#434dc3" points="904.939,-135.772 915.354,-132.339 908.627,-132.396 912.315,-129.02 912.315,-129.02 912.315,-129.02 908.627,-132.396 909.277,-125.701 904.939,-135.772 904.939,-135.772"/>
</g>
<!-- Account -->
<g id="node13" class="node"><title>Account</title>
<ellipse fill="none" stroke="black" cx="420" cy="-203" rx="50.9117" ry="18.3848"/>
<text text-anchor="middle" x="420" y="-199.4" font-family="Times Roman,serif" font-size="14.00">Account</text>
</g>
<!-- Source&#45;&gt;Account -->
<g id="edge16" class="edge"><title>Source&#45;&gt;Account</title>
<path fill="none" stroke="#1ad77f" d="M679.024,-290.3C618.124,-284.236 521.3,-272.696 488,-258 478.951,-254.006 461.499,-239.832 446.542,-226.873"/>
<ellipse fill="none" stroke="#1ad77f" cx="683.02" cy="-290.692" rx="4" ry="4"/>
<polygon fill="#1ad77f" stroke="#1ad77f" points="446.526,-226.859 441.971,-216.884 442.765,-223.564 439.005,-220.268 439.005,-220.268 439.005,-220.268 442.765,-223.564 436.039,-223.653 446.526,-226.859 446.526,-226.859"/>
</g>
<!-- Project -->
<g id="node14" class="node"><title>Project</title>
<ellipse fill="none" stroke="black" cx="1032" cy="-203" rx="45.9619" ry="18.3848"/>
<text text-anchor="middle" x="1032" y="-199.4" font-family="Times Roman,serif" font-size="14.00">Project</text>
</g>
<!-- Source&#45;&gt;Project -->
<g id="edge20" class="edge"><title>Source&#45;&gt;Project</title>
<path fill="none" stroke="#074656" d="M774.362,-279.526C777.953,-278.311 781.534,-277.121 785,-276 853.859,-253.726 934.377,-230.438 984.289,-216.321"/>
<polygon fill="#074656" stroke="#074656" points="774.359,-279.527 763.44,-278.519 769.63,-281.151 764.902,-282.775 764.902,-282.775 764.902,-282.775 769.63,-281.151 766.363,-287.031 774.359,-279.527 774.359,-279.527"/>
<polygon fill="#074656" stroke="#074656" points="984.531,-216.253 995.377,-217.868 989.343,-214.895 994.155,-213.537 994.155,-213.537 994.155,-213.537 989.343,-214.895 992.933,-209.206 984.531,-216.253 984.531,-216.253"/>
</g>
<!-- Source&#45;&gt;PaperTrail::Version -->
<g id="edge14" class="edge"><title>Source&#45;&gt;PaperTrail::Version</title>
<path fill="none" stroke="#05fb26" d="M679.956,-288.306C636.127,-281.813 576.955,-271.046 557,-258 514.88,-230.464 507.73,-213.46 491,-166 483.792,-145.552 483.424,-65.254 489,-56 492.399,-50.3595 496.976,-45.5344 502.173,-41.417"/>
<ellipse fill="none" stroke="#05fb26" cx="683.99" cy="-288.892" rx="4.00001" ry="4.00001"/>
<polygon fill="#05fb26" stroke="#05fb26" points="502.526,-41.1751 513.316,-39.2233 506.647,-38.3445 510.769,-35.5138 510.769,-35.5138 510.769,-35.5138 506.647,-38.3445 508.221,-31.8044 502.526,-41.1751 502.526,-41.1751"/>
<text text-anchor="middle" x="520" y="-153.4" font-family="Times Roman,serif" font-size="14.00">versions</text>
</g>
<!-- Bot -->
<g id="node8" class="node"><title>Bot</title>
<ellipse fill="none" stroke="black" cx="921" cy="-447" rx="28.9914" ry="18.3848"/>
<text text-anchor="middle" x="921" y="-443.4" font-family="Times Roman,serif" font-size="14.00">Bot</text>
</g>
<!-- Team -->
<g id="node9" class="node"><title>Team</title>
<ellipse fill="none" stroke="black" cx="837" cy="-447" rx="36.977" ry="18.3848"/>
<text text-anchor="middle" x="837" y="-443.4" font-family="Times Roman,serif" font-size="14.00">Team</text>
</g>
<!-- Team&#45;&gt;Account -->
<g id="edge26" class="edge"><title>Team&#45;&gt;Account</title>
<path fill="none" stroke="#078cc9" d="M794.714,-437.89C725.883,-421.592 587.422,-382.571 489,-314 461.865,-295.095 456.827,-286.471 440,-258 435.117,-249.738 431.115,-240.086 428.008,-231.194"/>
<ellipse fill="none" stroke="#078cc9" cx="798.86" cy="-438.857" rx="4.00001" ry="4.00001"/>
<polygon fill="#078cc9" stroke="#078cc9" points="427.978,-231.1 429.16,-220.199 426.43,-226.346 424.882,-221.592 424.882,-221.592 424.882,-221.592 426.43,-226.346 420.603,-222.985 427.978,-231.1 427.978,-231.1"/>
</g>
<!-- Team&#45;&gt;Project -->
<g id="edge24" class="edge"><title>Team&#45;&gt;Project</title>
<path fill="none" stroke="#226255" d="M872.441,-431.555C900.749,-418.779 937.654,-401.005 950,-390 997.591,-347.578 1018.78,-272.47 1027.18,-231.538"/>
<ellipse fill="none" stroke="#226255" cx="868.732" cy="-433.216" rx="4.00002" ry="4.00002"/>
<polygon fill="#226255" stroke="#226255" points="1027.19,-231.487 1033.51,-222.525 1028.14,-226.578 1029.09,-221.669 1029.09,-221.669 1029.09,-221.669 1028.14,-226.578 1024.68,-220.814 1027.19,-231.487 1027.19,-231.487"/>
</g>
<!-- Contact -->
<g id="node15" class="node"><title>Contact</title>
<ellipse fill="none" stroke="black" cx="805" cy="-371" rx="50.2046" ry="18.3848"/>
<text text-anchor="middle" x="805" y="-367.4" font-family="Times Roman,serif" font-size="14.00">Contact</text>
</g>
<!-- Team&#45;&gt;Contact -->
<g id="edge32" class="edge"><title>Team&#45;&gt;Contact</title>
<path fill="none" stroke="#8ea9c3" d="M826.052,-420.999C823.054,-413.878 819.792,-406.131 816.751,-398.908"/>
<ellipse fill="none" stroke="#8ea9c3" cx="827.701" cy="-424.916" rx="4.00002" ry="4.00002"/>
<polygon fill="#8ea9c3" stroke="#8ea9c3" points="816.667,-398.708 816.933,-387.745 814.726,-394.1 812.786,-389.491 812.786,-389.491 812.786,-389.491 814.726,-394.1 808.639,-391.238 816.667,-398.708 816.667,-398.708"/>
</g>
<!-- TeamUser -->
<g id="node17" class="node"><title>TeamUser</title>
<ellipse fill="none" stroke="black" cx="1283" cy="-295" rx="58.8978" ry="18.3848"/>
<text text-anchor="middle" x="1283" y="-291.4" font-family="Times Roman,serif" font-size="14.00">TeamUser</text>
</g>
<!-- Team&#45;&gt;TeamUser -->
<g id="edge28" class="edge"><title>Team&#45;&gt;TeamUser</title>
<path fill="none" stroke="#7f5c30" d="M871.829,-431.427C875.552,-430.121 879.322,-428.942 883,-428 953.604,-409.909 975.971,-430.203 1046,-410 1121.64,-388.177 1202.72,-343.705 1247.72,-316.911"/>
<ellipse fill="none" stroke="#7f5c30" cx="868.045" cy="-432.847" rx="4.00001" ry="4.00001"/>
<polygon fill="#7f5c30" stroke="#7f5c30" points="1247.92,-316.789 1258.81,-315.495 1252.21,-314.213 1256.49,-311.638 1256.49,-311.638 1256.49,-311.638 1252.21,-314.213 1254.17,-307.781 1247.92,-316.789 1247.92,-316.789"/>
</g>
<!-- User -->
<g id="node21" class="node"><title>User</title>
<ellipse fill="none" stroke="black" cx="907" cy="-371" rx="33.9411" ry="18.3848"/>
<text text-anchor="middle" x="907" y="-367.4" font-family="Times Roman,serif" font-size="14.00">User</text>
</g>
<!-- Team&#45;&gt;User -->
<g id="edge30" class="edge"><title>Team&#45;&gt;User</title>
<path fill="none" stroke="#37bd67" d="M859.497,-422.575C867.648,-413.726 876.84,-403.745 884.952,-394.938"/>
<polygon fill="#37bd67" stroke="#37bd67" points="859.31,-422.778 849.225,-427.084 855.923,-426.455 852.535,-430.133 852.535,-430.133 852.535,-430.133 855.923,-426.455 855.845,-433.182 859.31,-422.778 859.31,-422.778"/>
<polygon fill="#37bd67" stroke="#37bd67" points="884.974,-394.914 895.059,-390.607 888.362,-391.236 891.749,-387.558 891.749,-387.558 891.749,-387.558 888.362,-391.236 888.439,-384.51 884.974,-394.914 884.974,-394.914"/>
</g>
<!-- Team&#45;&gt;PaperTrail::Version -->
<g id="edge22" class="edge"><title>Team&#45;&gt;PaperTrail::Version</title>
<path fill="none" stroke="#88f4f6" d="M791.944,-444.619C634.299,-435.994 117,-405.093 117,-371 117,-371 117,-371 117,-111 117,-69.6643 153.411,-70.817 192,-56 237.45,-38.5485 358.377,-28.775 449.09,-23.7152"/>
<ellipse fill="none" stroke="#88f4f6" cx="796.062" cy="-444.843" rx="4" ry="4"/>
<polygon fill="#88f4f6" stroke="#88f4f6" points="449.173,-23.7107 459.404,-27.6592 454.166,-23.4383 459.159,-23.1659 459.159,-23.1659 459.159,-23.1659 454.166,-23.4383 458.913,-18.6725 449.173,-23.7107 449.173,-23.7107"/>
<text text-anchor="middle" x="146" y="-245.4" font-family="Times Roman,serif" font-size="14.00">versions</text>
</g>
<!-- Bounce -->
<g id="node10" class="node"><title>Bounce</title>
<ellipse fill="none" stroke="black" cx="1016" cy="-447" rx="48.0833" ry="18.3848"/>
<text text-anchor="middle" x="1016" y="-443.4" font-family="Times Roman,serif" font-size="14.00">Bounce</text>
</g>
<!-- UploadedImage -->
<g id="node12" class="node"><title>UploadedImage</title>
<ellipse fill="none" stroke="black" cx="880" cy="-295" rx="85.7684" ry="18.3848"/>
<text text-anchor="middle" x="880" y="-291.4" font-family="Times Roman,serif" font-size="14.00">UploadedImage</text>
</g>
<!-- UploadedImage&#45;&gt;Project -->
<g id="edge38" class="edge"><title>UploadedImage&#45;&gt;Project</title>
<path fill="none" stroke="#a0aae4" d="M930.646,-274.466C941.251,-269.53 952.186,-263.948 962,-258 977.07,-248.865 992.603,-236.957 1005.2,-226.557"/>
<polygon fill="#a0aae4" stroke="#a0aae4" points="930.558,-274.506 919.593,-274.531 926.003,-276.568 921.448,-278.63 921.448,-278.63 921.448,-278.63 926.003,-276.568 923.304,-282.729 930.558,-274.506 930.558,-274.506"/>
<polygon fill="#a0aae4" stroke="#a0aae4" points="1005.36,-226.421 1015.91,-223.43 1009.19,-223.203 1013.01,-219.986 1013.01,-219.986 1013.01,-219.986 1009.19,-223.203 1010.12,-216.541 1005.36,-226.421 1005.36,-226.421"/>
</g>
<!-- ProjectMedia -->
<g id="node18" class="node"><title>ProjectMedia</title>
<ellipse fill="none" stroke="black" cx="1410" cy="-19" rx="74.2462" ry="18.3848"/>
<text text-anchor="middle" x="1410" y="-15.4" font-family="Times Roman,serif" font-size="14.00">ProjectMedia</text>
</g>
<!-- UploadedImage&#45;&gt;ProjectMedia -->
<g id="edge36" class="edge"><title>UploadedImage&#45;&gt;ProjectMedia</title>
<path fill="none" stroke="#054468" d="M896.469,-269.648C913.818,-244.74 943.267,-207.194 977,-184 1015.24,-157.711 1029.77,-158.354 1075,-148 1154.67,-129.763 1181.64,-159.126 1258,-130 1308.23,-110.84 1356.68,-70.458 1384.89,-44.0473"/>
<ellipse fill="none" stroke="#054468" cx="894.164" cy="-273.015" rx="4.00002" ry="4.00002"/>
<polygon fill="#054468" stroke="#054468" points="1385.05,-43.8933 1395.4,-40.257 1388.67,-40.4456 1392.3,-36.9979 1392.3,-36.9979 1392.3,-36.9979 1388.67,-40.4456 1389.19,-33.7388 1385.05,-43.8933 1385.05,-43.8933"/>
</g>
<!-- UploadedImage&#45;&gt;PaperTrail::Version -->
<g id="edge34" class="edge"><title>UploadedImage&#45;&gt;PaperTrail::Version</title>
<path fill="none" stroke="#529e4f" d="M833.749,-275.259C739.039,-234.621 531.105,-144.222 522,-130 505.222,-103.793 521.772,-69.2045 537.772,-45.6489"/>
<ellipse fill="none" stroke="#529e4f" cx="837.512" cy="-276.872" rx="4.00002" ry="4.00002"/>
<polygon fill="#529e4f" stroke="#529e4f" points="537.773,-45.6476 547.243,-40.1184 540.676,-41.5767 543.579,-37.5057 543.579,-37.5057 543.579,-37.5057 540.676,-41.5767 539.915,-34.893 537.773,-45.6476 537.773,-45.6476"/>
<text text-anchor="middle" x="617" y="-153.4" font-family="Times Roman,serif" font-size="14.00">versions</text>
</g>
<!-- Media -->
<g id="node20" class="node"><title>Media</title>
<ellipse fill="none" stroke="black" cx="795" cy="-111" rx="39.8075" ry="18.3848"/>
<text text-anchor="middle" x="795" y="-107.4" font-family="Times Roman,serif" font-size="14.00">Media</text>
</g>
<!-- Account&#45;&gt;Media -->
<g id="edge42" class="edge"><title>Account&#45;&gt;Media</title>
<path fill="none" stroke="#572f34" d="M467.953,-188.509C485.91,-182.421 506.249,-174.719 524,-166 537.279,-159.478 538.013,-152.821 552,-148 633.866,-119.782 661.712,-149.843 746,-130 749.389,-129.202 752.856,-128.22 756.303,-127.126"/>
<ellipse fill="none" stroke="#572f34" cx="463.684" cy="-189.928" rx="4.00001" ry="4.00001"/>
<polygon fill="#572f34" stroke="#572f34" points="756.432,-127.082 767.354,-128.061 761.157,-125.445 765.881,-123.809 765.881,-123.809 765.881,-123.809 761.157,-125.445 764.408,-119.557 756.432,-127.082 756.432,-127.082"/>
</g>
<!-- Account&#45;&gt;PaperTrail::Version -->
<g id="edge40" class="edge"><title>Account&#45;&gt;PaperTrail::Version</title>
<path fill="none" stroke="#d4bb4f" d="M361.939,-198.308C273.25,-188.84 119.542,-162.012 172,-92 204.684,-48.3793 346.772,-30.7773 449.31,-23.7047"/>
<ellipse fill="none" stroke="#d4bb4f" cx="366.069" cy="-198.734" rx="4" ry="4"/>
<polygon fill="#d4bb4f" stroke="#d4bb4f" points="449.438,-23.6962 459.715,-27.5227 454.427,-23.3644 459.416,-23.0326 459.416,-23.0326 459.416,-23.0326 454.427,-23.3644 459.118,-18.5425 449.438,-23.6962 449.438,-23.6962"/>
<text text-anchor="middle" x="201" y="-107.4" font-family="Times Roman,serif" font-size="14.00">versions</text>
</g>
<!-- Project&#45;&gt;ProjectSource -->
<g id="edge46" class="edge"><title>Project&#45;&gt;ProjectSource</title>
<path fill="none" stroke="#8b494d" d="M1020.28,-177.362C1014.82,-167.357 1007.62,-156.317 999,-148 993.083,-142.291 986.112,-137.181 978.943,-132.713"/>
<ellipse fill="none" stroke="#8b494d" cx="1022.26" cy="-181.197" rx="4.00002" ry="4.00002"/>
<polygon fill="#8b494d" stroke="#8b494d" points="978.461,-132.432 972.084,-123.511 974.14,-129.916 969.819,-127.4 969.819,-127.4 969.819,-127.4 974.14,-129.916 967.555,-131.289 978.461,-132.432 978.461,-132.432"/>
</g>
<!-- Project&#45;&gt;ProjectMedia -->
<g id="edge48" class="edge"><title>Project&#45;&gt;ProjectMedia</title>
<path fill="none" stroke="#551fb9" d="M1057.66,-180.797C1072.96,-168.896 1093.38,-155.229 1114,-148 1204.49,-116.278 1244.58,-175.481 1329,-130 1362.48,-111.961 1385.68,-73.3428 1398.41,-46.7719"/>
<ellipse fill="none" stroke="#551fb9" cx="1054.13" cy="-183.615" rx="4.00002" ry="4.00002"/>
<polygon fill="#551fb9" stroke="#551fb9" points="1398.45,-46.6755 1406.72,-39.4664 1400.54,-42.1319 1402.63,-37.5882 1402.63,-37.5882 1402.63,-37.5882 1400.54,-42.1319 1398.54,-35.71 1398.45,-46.6755 1398.45,-46.6755"/>
</g>
<!-- Project&#45;&gt;Media -->
<g id="edge50" class="edge"><title>Project&#45;&gt;Media</title>
<path fill="none" stroke="#873834" d="M989.47,-186.49C945.742,-169.516 878.153,-143.279 835.271,-126.632"/>
<polygon fill="#873834" stroke="#873834" points="989.474,-186.492 997.168,-194.306 994.135,-188.302 998.797,-190.111 998.797,-190.111 998.797,-190.111 994.135,-188.302 1000.43,-185.916 989.474,-186.492 989.474,-186.492"/>
<polygon fill="#873834" stroke="#873834" points="835.044,-126.545 827.351,-118.731 830.383,-124.735 825.722,-122.926 825.722,-122.926 825.722,-122.926 830.383,-124.735 824.094,-127.121 835.044,-126.545 835.044,-126.545"/>
</g>
<!-- Project&#45;&gt;PaperTrail::Version -->
<g id="edge44" class="edge"><title>Project&#45;&gt;PaperTrail::Version</title>
<path fill="none" stroke="#902d96" d="M1037.33,-176.481C1040.71,-151.349 1041.1,-114.232 1020,-92 995.544,-66.2292 788.245,-41.508 660.097,-28.4928"/>
<ellipse fill="none" stroke="#902d96" cx="1036.7" cy="-180.552" rx="4.00001" ry="4.00001"/>
<polygon fill="#902d96" stroke="#902d96" points="659.815,-28.4644 650.316,-22.984 654.84,-27.9629 649.865,-27.4614 649.865,-27.4614 649.865,-27.4614 654.84,-27.9629 649.414,-31.9387 659.815,-28.4644 659.815,-28.4644"/>
<text text-anchor="middle" x="1066" y="-107.4" font-family="Times Roman,serif" font-size="14.00">versions</text>
</g>
<!-- UploadedFile -->
<g id="node16" class="node"><title>UploadedFile</title>
<ellipse fill="none" stroke="black" cx="1133" cy="-295" rx="73.0388" ry="18.3848"/>
<text text-anchor="middle" x="1133" y="-291.4" font-family="Times Roman,serif" font-size="14.00">UploadedFile</text>
</g>
<!-- UploadedFile&#45;&gt;Project -->
<g id="edge56" class="edge"><title>UploadedFile&#45;&gt;Project</title>
<path fill="none" stroke="#5bd457" d="M1105.45,-269.906C1090.84,-256.599 1072.98,-240.326 1058.52,-227.161"/>
<polygon fill="#5bd457" stroke="#5bd457" points="1105.65,-270.09 1110.02,-280.151 1109.35,-273.457 1113.05,-276.824 1113.05,-276.824 1113.05,-276.824 1109.35,-273.457 1116.08,-273.497 1105.65,-270.09 1105.65,-270.09"/>
<polygon fill="#5bd457" stroke="#5bd457" points="1058.28,-226.939 1053.92,-216.878 1054.58,-223.572 1050.89,-220.205 1050.89,-220.205 1050.89,-220.205 1054.58,-223.572 1047.86,-223.532 1058.28,-226.939 1058.28,-226.939"/>
</g>
<!-- UploadedFile&#45;&gt;ProjectMedia -->
<g id="edge54" class="edge"><title>UploadedFile&#45;&gt;ProjectMedia</title>
<path fill="none" stroke="#ec48ab" d="M1187.34,-278.032C1261.94,-253.508 1389.86,-206.64 1416,-166 1438.96,-130.294 1429.58,-78.9864 1420.17,-47.388"/>
<ellipse fill="none" stroke="#ec48ab" cx="1183.21" cy="-279.381" rx="4.00001" ry="4.00001"/>
<polygon fill="#ec48ab" stroke="#ec48ab" points="1420.05,-47.0102 1421.32,-36.1174 1418.54,-42.2444 1417.03,-37.4786 1417.03,-37.4786 1417.03,-37.4786 1418.54,-42.2444 1412.74,-38.8399 1420.05,-47.0102 1420.05,-47.0102"/>
</g>
<!-- UploadedFile&#45;&gt;PaperTrail::Version -->
<g id="edge52" class="edge"><title>UploadedFile&#45;&gt;PaperTrail::Version</title>
<path fill="none" stroke="#c6babf" d="M1137.01,-268.364C1141.87,-225.291 1144.45,-140.308 1099,-92 1069.77,-60.9345 813.701,-37.4083 664.925,-26.2174"/>
<ellipse fill="none" stroke="#c6babf" cx="1136.51" cy="-272.426" rx="4.00001" ry="4.00001"/>
<polygon fill="#c6babf" stroke="#c6babf" points="664.816,-26.2093 655.178,-20.978 659.829,-25.8374 654.843,-25.4656 654.843,-25.4656 654.843,-25.4656 659.829,-25.8374 654.509,-29.9531 664.816,-26.2093 664.816,-26.2093"/>
<text text-anchor="middle" x="1162" y="-153.4" font-family="Times Roman,serif" font-size="14.00">versions</text>
</g>
<!-- Claim -->
<g id="node19" class="node"><title>Claim</title>
<ellipse fill="none" stroke="black" cx="1399" cy="-295" rx="38.8909" ry="18.3848"/>
<text text-anchor="middle" x="1399" y="-291.4" font-family="Times Roman,serif" font-size="14.00">Claim</text>
</g>
<!-- Claim&#45;&gt;Project -->
<g id="edge62" class="edge"><title>Claim&#45;&gt;Project</title>
<path fill="none" stroke="#9df08b" d="M1360.41,-279.14C1357.25,-278.02 1354.08,-276.956 1351,-276 1258.61,-247.326 1148,-224.501 1084.28,-212.43"/>
<polygon fill="#9df08b" stroke="#9df08b" points="1360.43,-279.149 1368.24,-286.847 1365.12,-280.888 1369.81,-282.628 1369.81,-282.628 1369.81,-282.628 1365.12,-280.888 1371.37,-278.409 1360.43,-279.149 1360.43,-279.149"/>
<polygon fill="#9df08b" stroke="#9df08b" points="1083.91,-212.361 1074.92,-206.092 1079,-211.438 1074.08,-210.514 1074.08,-210.514 1074.08,-210.514 1079,-211.438 1073.25,-214.937 1083.91,-212.361 1083.91,-212.361"/>
</g>
<!-- Claim&#45;&gt;ProjectMedia -->
<g id="edge60" class="edge"><title>Claim&#45;&gt;ProjectMedia</title>
<path fill="none" stroke="#531ce5" d="M1410.86,-269.293C1421.95,-243.733 1437.72,-203.089 1444,-166 1448.72,-138.139 1465.71,-114.611 1443,-56 1441.54,-52.2252 1439.5,-48.5886 1437.14,-45.1668"/>
<ellipse fill="none" stroke="#531ce5" cx="1409.2" cy="-273.061" rx="4.00002" ry="4.00002"/>
<polygon fill="#531ce5" stroke="#531ce5" points="1437,-44.9859 1434.32,-34.353 1433.9,-41.0665 1430.79,-37.1472 1430.79,-37.1472 1430.79,-37.1472 1433.9,-41.0665 1427.26,-39.9413 1437,-44.9859 1437,-44.9859"/>
</g>
<!-- Claim&#45;&gt;PaperTrail::Version -->
<g id="edge58" class="edge"><title>Claim&#45;&gt;PaperTrail::Version</title>
<path fill="none" stroke="#8b51f1" d="M1371.98,-273.684C1344.07,-250.227 1301.27,-209.97 1277,-166 1251.63,-120.046 1279.59,-82.0262 1234,-56 1209.97,-42.2776 854.785,-28.6866 669.574,-22.4856"/>
<ellipse fill="none" stroke="#8b51f1" cx="1375.31" cy="-276.443" rx="4.00002" ry="4.00002"/>
<polygon fill="#8b51f1" stroke="#8b51f1" points="669.521,-22.4839 659.677,-17.6534 664.524,-22.3174 659.527,-22.1509 659.527,-22.1509 659.527,-22.1509 664.524,-22.3174 659.377,-26.6484 669.521,-22.4839 669.521,-22.4839"/>
<text text-anchor="middle" x="1306" y="-153.4" font-family="Times Roman,serif" font-size="14.00">versions</text>
</g>
<!-- Media&#45;&gt;ProjectMedia -->
<g id="edge66" class="edge"><title>Media&#45;&gt;ProjectMedia</title>
<path fill="none" stroke="#6f9a9a" d="M831.609,-95.3295C835.732,-94.0087 839.918,-92.854 844,-92 1027.75,-53.5523 1082.16,-111.983 1266,-74 1301.08,-66.7516 1338.85,-52.0444 1366.9,-39.6612"/>
<ellipse fill="none" stroke="#6f9a9a" cx="827.581" cy="-96.7273" rx="4.00001" ry="4.00001"/>
<polygon fill="#6f9a9a" stroke="#6f9a9a" points="1366.9,-39.6612 1377.87,-39.67 1371.46,-37.613 1376.03,-35.5648 1376.03,-35.5648 1376.03,-35.5648 1371.46,-37.613 1374.18,-31.4597 1366.9,-39.6612 1366.9,-39.6612"/>
</g>
<!-- Media&#45;&gt;PaperTrail::Version -->
<g id="edge64" class="edge"><title>Media&#45;&gt;PaperTrail::Version</title>
<path fill="none" stroke="#bab524" d="M765.537,-91.1761C747.292,-79.6129 723.024,-65.4831 700,-56 680.001,-47.7625 657.64,-40.9014 636.723,-35.4157"/>
<ellipse fill="none" stroke="#bab524" cx="769.102" cy="-93.4663" rx="4.00002" ry="4.00002"/>
<polygon fill="#bab524" stroke="#bab524" points="636.599,-35.3841 628.021,-28.5524 631.754,-34.1485 626.909,-32.9129 626.909,-32.9129 626.909,-32.9129 631.754,-34.1485 625.797,-37.2733 636.599,-35.3841 636.599,-35.3841"/>
<text text-anchor="middle" x="764" y="-61.4" font-family="Times Roman,serif" font-size="14.00">versions</text>
</g>
<!-- User&#45;&gt;Source -->
<g id="edge68" class="edge"><title>User&#45;&gt;Source</title>
<path fill="none" stroke="#378bac" d="M873.069,-355.965C870.004,-354.62 866.947,-353.282 864,-352 832.447,-338.268 796.583,-322.912 770.054,-311.602"/>
<ellipse fill="none" stroke="#378bac" cx="876.98" cy="-357.686" rx="4.00002" ry="4.00002"/>
<ellipse fill="#378bac" stroke="#378bac" cx="766.163" cy="-309.944" rx="4.00002" ry="4.00002"/>
</g>
<!-- User&#45;&gt;Account -->
<g id="edge74" class="edge"><title>User&#45;&gt;Account</title>
<path fill="none" stroke="#53496c" d="M873.851,-355.512C870.558,-354.229 867.237,-353.031 864,-352 689.576,-296.459 615.957,-358.561 463,-258 452.112,-250.842 442.785,-239.996 435.629,-229.822"/>
<ellipse fill="none" stroke="#53496c" cx="877.728" cy="-357.104" rx="4.00001" ry="4.00001"/>
<polygon fill="#53496c" stroke="#53496c" points="435.423,-229.51 433.669,-218.685 432.668,-225.337 429.914,-221.164 429.914,-221.164 429.914,-221.164 432.668,-225.337 426.158,-223.643 435.423,-229.51 435.423,-229.51"/>
</g>
<!-- User&#45;&gt;Project -->
<g id="edge72" class="edge"><title>User&#45;&gt;Project</title>
<path fill="none" stroke="#115a36" d="M935.252,-351.425C948.451,-341.317 963.705,-328.147 975,-314 995.343,-288.522 1011.47,-254.637 1021.3,-231.036"/>
<ellipse fill="none" stroke="#115a36" cx="931.773" cy="-354.027" rx="4.00002" ry="4.00002"/>
<polygon fill="#115a36" stroke="#115a36" points="1021.37,-230.872 1029.3,-223.296 1023.25,-226.239 1025.13,-221.605 1025.13,-221.605 1025.13,-221.605 1023.25,-226.239 1020.96,-219.914 1021.37,-230.872 1021.37,-230.872"/>
</g>
<!-- User&#45;&gt;TeamUser -->
<g id="edge70" class="edge"><title>User&#45;&gt;TeamUser</title>
<path fill="none" stroke="#ee9201" d="M948.018,-364.609C1007.27,-355.104 1120.13,-335.986 1215,-314 1219.75,-312.899 1224.67,-311.682 1229.58,-310.41"/>
<ellipse fill="none" stroke="#ee9201" cx="943.97" cy="-365.255" rx="4.00001" ry="4.00001"/>
<polygon fill="#ee9201" stroke="#ee9201" points="1229.95,-310.312 1240.77,-312.094 1234.79,-309.028 1239.62,-307.745 1239.62,-307.745 1239.62,-307.745 1234.79,-309.028 1238.46,-303.396 1229.95,-310.312 1229.95,-310.312"/>
</g>
<!-- Link -->
<g id="node22" class="node"><title>Link</title>
<ellipse fill="none" stroke="black" cx="1488" cy="-295" rx="32.0265" ry="18.3848"/>
<text text-anchor="middle" x="1488" y="-291.4" font-family="Times Roman,serif" font-size="14.00">Link</text>
</g>
<!-- Link&#45;&gt;Project -->
<g id="edge80" class="edge"><title>Link&#45;&gt;Project</title>
<path fill="none" stroke="#7983b1" d="M1454.33,-278.634C1451.88,-277.677 1449.42,-276.786 1447,-276 1322.17,-235.378 1168.44,-215.837 1087.65,-207.782"/>
<polygon fill="#7983b1" stroke="#7983b1" points="1454.45,-278.685 1461.92,-286.716 1459.06,-280.627 1463.67,-282.569 1463.67,-282.569 1463.67,-282.569 1459.06,-280.627 1465.42,-278.422 1454.45,-278.685 1454.45,-278.685"/>
<polygon fill="#7983b1" stroke="#7983b1" points="1087.18,-207.736 1077.66,-202.287 1082.2,-207.251 1077.22,-206.766 1077.22,-206.766 1077.22,-206.766 1082.2,-207.251 1076.79,-211.245 1087.18,-207.736 1087.18,-207.736"/>
</g>
<!-- Link&#45;&gt;ProjectMedia -->
<g id="edge78" class="edge"><title>Link&#45;&gt;ProjectMedia</title>
<path fill="none" stroke="#aace04" d="M1491.89,-268.345C1497.31,-221.454 1502.18,-122.855 1460,-56 1456.83,-50.9684 1452.7,-46.3889 1448.18,-42.2998"/>
<ellipse fill="none" stroke="#aace04" cx="1491.37" cy="-272.509" rx="4.00001" ry="4.00001"/>
<polygon fill="#aace04" stroke="#aace04" points="1448.06,-42.2012 1443.15,-32.3982 1444.18,-39.0446 1440.31,-35.8881 1440.31,-35.8881 1440.31,-35.8881 1444.18,-39.0446 1437.47,-39.378 1448.06,-42.2012 1448.06,-42.2012"/>
</g>
<!-- Link&#45;&gt;PaperTrail::Version -->
<g id="edge76" class="edge"><title>Link&#45;&gt;PaperTrail::Version</title>
<path fill="none" stroke="#5e276a" d="M1473.34,-270.143C1441.61,-219.057 1361.08,-103.118 1258,-56 1206.2,-32.3243 855.466,-23.4826 671.359,-20.4452"/>
<ellipse fill="none" stroke="#5e276a" cx="1475.57" cy="-273.783" rx="4.00002" ry="4.00002"/>
<polygon fill="#5e276a" stroke="#5e276a" points="671.098,-20.4411 661.172,-15.7797 666.099,-20.3601 661.099,-20.2791 661.099,-20.2791 661.099,-20.2791 666.099,-20.3601 661.026,-24.7785 671.098,-20.4411 671.098,-20.4411"/>
<text text-anchor="middle" x="1423" y="-153.4" font-family="Times Roman,serif" font-size="14.00">versions</text>
</g>
<!-- ApiKey -->
<g id="node23" class="node"><title>ApiKey</title>
<ellipse fill="none" stroke="black" cx="1126" cy="-447" rx="44.0472" ry="18.3848"/>
<text text-anchor="middle" x="1126" y="-443.4" font-family="Times Roman,serif" font-size="14.00">ApiKey</text>
</g>
</g>
</svg>
