<?xml version="1.0" encoding="UTF-8" standalone="no"?>
<!DOCTYPE svg PUBLIC "-//W3C//DTD SVG 1.1//EN"
 "http://www.w3.org/Graphics/SVG/1.1/DTD/svg11.dtd">
<!-- Generated by graphviz version 2.36.0 (20140111.2315)
 -->
<!-- Title: models_diagram Pages: 1 -->
<svg width="979pt" height="442pt"
 viewBox="0.00 0.00 979.00 442.00" xmlns="http://www.w3.org/2000/svg" xmlns:xlink="http://www.w3.org/1999/xlink">
<g id="graph0" class="graph" transform="scale(1 1) rotate(0) translate(4 438)">
<title>models_diagram</title>
<polygon fill="none" stroke="none" points="-4,4 -4,-438 975,-438 975,4 -4,4"/>
<!-- Annotation -->
<g id="node1" class="node"><title>Annotation</title>
<ellipse fill="none" stroke="black" cx="61" cy="-416" rx="61.6163" ry="18"/>
<text text-anchor="middle" x="61" y="-412.3" font-family="Times,serif" font-size="14.00">Annotation</text>
</g>
<!-- Comment -->
<g id="node2" class="node"><title>Comment</title>
<ellipse fill="none" stroke="black" cx="197" cy="-416" rx="55.3436" ry="18"/>
<text text-anchor="middle" x="197" y="-412.3" font-family="Times,serif" font-size="14.00">Comment</text>
</g>
<!-- Tag -->
<g id="node3" class="node"><title>Tag</title>
<ellipse fill="none" stroke="black" cx="298" cy="-416" rx="26.949" ry="18"/>
<text text-anchor="middle" x="298" y="-412.3" font-family="Times,serif" font-size="14.00">Tag</text>
</g>
<!-- Flag -->
<g id="node4" class="node"><title>Flag</title>
<ellipse fill="none" stroke="black" cx="374" cy="-416" rx="31.2965" ry="18"/>
<text text-anchor="middle" x="374" y="-412.3" font-family="Times,serif" font-size="14.00">Flag</text>
</g>
<!-- Status -->
<g id="node5" class="node"><title>Status</title>
<ellipse fill="none" stroke="black" cx="463" cy="-416" rx="39.9464" ry="18"/>
<text text-anchor="middle" x="463" y="-412.3" font-family="Times,serif" font-size="14.00">Status</text>
</g>
<!-- ProjectMedia -->
<g id="node6" class="node"><title>ProjectMedia</title>
<ellipse fill="none" stroke="black" cx="501" cy="-18" rx="73.1654" ry="18"/>
<text text-anchor="middle" x="501" y="-14.3" font-family="Times,serif" font-size="14.00">ProjectMedia</text>
</g>
<!-- ProjectSource -->
<g id="node7" class="node"><title>ProjectSource</title>
<ellipse fill="none" stroke="black" cx="333" cy="-18" rx="76.5394" ry="18"/>
<text text-anchor="middle" x="333" y="-14.3" font-family="Times,serif" font-size="14.00">ProjectSource</text>
</g>
<!-- Contact -->
<g id="node8" class="node"><title>Contact</title>
<ellipse fill="none" stroke="black" cx="790" cy="-268" rx="48.1437" ry="18"/>
<text text-anchor="middle" x="790" y="-264.3" font-family="Times,serif" font-size="14.00">Contact</text>
</g>
<!-- Media -->
<g id="node9" class="node"><title>Media</title>
<ellipse fill="none" stroke="black" cx="624" cy="-194" rx="39.9464" ry="18"/>
<text text-anchor="middle" x="624" y="-190.3" font-family="Times,serif" font-size="14.00">Media</text>
</g>
<!-- Media&#45;&gt;ProjectMedia -->
<g id="edge2" class="edge"><title>Media&#45;&gt;ProjectMedia</title>
<path fill="none" stroke="#af6416" d="M611.954,-168.97C596.933,-140.16 569.49,-91.12 539,-54 535.739,-50.03 532.035,-46.0842 528.249,-42.3507"/>
<ellipse fill="none" stroke="#af6416" cx="613.843" cy="-172.632" rx="4.00002" ry="4.00002"/>
<polygon fill="#af6416" stroke="#af6416" points="528.24,-42.3418 524.05,-32.2076 524.601,-38.9118 520.963,-35.4819 520.963,-35.4819 520.963,-35.4819 524.601,-38.9118 517.876,-38.7562 528.24,-42.3418 528.24,-42.3418"/>
</g>
<!-- Project -->
<g id="node14" class="node"><title>Project</title>
<ellipse fill="none" stroke="black" cx="444" cy="-106" rx="44.2946" ry="18"/>
<text text-anchor="middle" x="444" y="-102.3" font-family="Times,serif" font-size="14.00">Project</text>
</g>
<!-- Media&#45;&gt;Project -->
<g id="edge3" class="edge"><title>Media&#45;&gt;Project</title>
<path fill="none" stroke="#57959c" d="M586.261,-177.035C572.841,-171.214 557.673,-164.471 544,-158 522.049,-147.612 497.775,-135.253 478.64,-125.304"/>
<polygon fill="#57959c" stroke="#57959c" points="586.495,-177.136 593.897,-185.226 591.087,-179.115 595.678,-181.094 595.678,-181.094 595.678,-181.094 591.087,-179.115 597.459,-176.961 586.495,-177.136 586.495,-177.136"/>
<polygon fill="#57959c" stroke="#57959c" points="478.556,-125.26 471.774,-116.643 474.124,-122.946 469.691,-120.632 469.691,-120.632 469.691,-120.632 474.124,-122.946 467.609,-124.621 478.556,-125.26 478.556,-125.26"/>
</g>
<!-- PaperTrail::Version -->
<g id="node17" class="node"><title>PaperTrail::Version</title>
<ellipse fill="none" stroke="black" cx="692" cy="-18" rx="99.1619" ry="18"/>
<text text-anchor="middle" x="692" y="-14.3" font-family="Times,serif" font-size="14.00">PaperTrail::Version</text>
</g>
<!-- Media&#45;&gt;PaperTrail::Version -->
<g id="edge1" class="edge"><title>Media&#45;&gt;PaperTrail::Version</title>
<path fill="none" stroke="#80efab" d="M616.102,-168.289C610.487,-146.273 605.738,-113.664 617,-88 625.218,-69.2718 641.306,-53.3885 656.482,-41.5992"/>
<ellipse fill="none" stroke="#80efab" cx="617.206" cy="-172.315" rx="4.00001" ry="4.00001"/>
<polygon fill="#80efab" stroke="#80efab" points="656.721,-41.4226 667.437,-39.0977 660.742,-38.4507 664.763,-35.4788 664.763,-35.4788 664.763,-35.4788 660.742,-38.4507 662.088,-31.8599 656.721,-41.4226 656.721,-41.4226"/>
<text text-anchor="middle" x="647.5" y="-102.3" font-family="Times,serif" font-size="14.00">versions</text>
</g>
<!-- TeamUser -->
<g id="node10" class="node"><title>TeamUser</title>
<ellipse fill="none" stroke="black" cx="914" cy="-268" rx="57.2688" ry="18"/>
<text text-anchor="middle" x="914" y="-264.3" font-family="Times,serif" font-size="14.00">TeamUser</text>
</g>
<!-- Source -->
<g id="node11" class="node"><title>Source</title>
<ellipse fill="none" stroke="black" cx="505" cy="-342" rx="42.3456" ry="18"/>
<text text-anchor="middle" x="505" y="-338.3" font-family="Times,serif" font-size="14.00">Source</text>
</g>
<!-- Source&#45;&gt;ProjectSource -->
<g id="edge6" class="edge"><title>Source&#45;&gt;ProjectSource</title>
<path fill="none" stroke="#18cd1b" d="M473.636,-322.363C460.107,-312.952 445.103,-300.455 435,-286 380.331,-207.778 350.236,-96.3958 338.646,-45.8234"/>
<ellipse fill="none" stroke="#18cd1b" cx="477.221" cy="-324.769" rx="4.00002" ry="4.00002"/>
<polygon fill="#18cd1b" stroke="#18cd1b" points="338.63,-45.7486 340.844,-35.0086 337.541,-40.8686 336.452,-35.9886 336.452,-35.9886 336.452,-35.9886 337.541,-40.8686 332.06,-36.9686 338.63,-45.7486 338.63,-45.7486"/>
</g>
<!-- Source&#45;&gt;Project -->
<g id="edge7" class="edge"><title>Source&#45;&gt;Project</title>
<path fill="none" stroke="#754cbb" d="M476.656,-319.285C466.81,-310.143 456.792,-298.677 451,-286 428.336,-236.395 433.437,-170.758 438.9,-134.328"/>
<polygon fill="#754cbb" stroke="#754cbb" points="476.91,-319.507 481.466,-329.482 480.671,-322.802 484.432,-326.097 484.432,-326.097 484.432,-326.097 480.671,-322.802 487.397,-322.712 476.91,-319.507 476.91,-319.507"/>
<polygon fill="#754cbb" stroke="#754cbb" points="438.972,-133.881 445.018,-124.732 439.774,-128.946 440.576,-124.01 440.576,-124.01 440.576,-124.01 439.774,-128.946 436.134,-123.289 438.972,-133.881 438.972,-133.881"/>
</g>
<!-- Account -->
<g id="node16" class="node"><title>Account</title>
<ellipse fill="none" stroke="black" cx="633" cy="-268" rx="49.0941" ry="18"/>
<text text-anchor="middle" x="633" y="-264.3" font-family="Times,serif" font-size="14.00">Account</text>
</g>
<!-- Source&#45;&gt;Account -->
<g id="edge5" class="edge"><title>Source&#45;&gt;Account</title>
<path fill="none" stroke="#1dfce6" d="M536.751,-323.14C555.459,-312.617 579.143,-299.295 598.335,-288.499"/>
<ellipse fill="none" stroke="#1dfce6" cx="533.166" cy="-325.157" rx="4.00002" ry="4.00002"/>
<polygon fill="#1dfce6" stroke="#1dfce6" points="598.362,-288.484 609.284,-287.503 602.72,-286.032 607.078,-283.581 607.078,-283.581 607.078,-283.581 602.72,-286.032 604.872,-279.659 598.362,-288.484 598.362,-288.484"/>
</g>
<!-- Source&#45;&gt;PaperTrail::Version -->
<g id="edge4" class="edge"><title>Source&#45;&gt;PaperTrail::Version</title>
<path fill="none" stroke="#b6a907" d="M501.337,-315.497C497.643,-282.065 494.892,-222.244 514,-176 541.767,-108.8 565.36,-98.3228 623,-54 629.963,-48.6459 637.871,-43.7434 645.786,-39.4112"/>
<ellipse fill="none" stroke="#b6a907" cx="501.858" cy="-319.827" rx="4.00001" ry="4.00001"/>
<polygon fill="#b6a907" stroke="#b6a907" points="645.812,-39.3975 656.76,-38.7574 650.244,-37.083 654.677,-34.7685 654.677,-34.7685 654.677,-34.7685 650.244,-37.083 652.593,-30.7797 645.812,-39.3975 645.812,-39.3975"/>
<text text-anchor="middle" x="544.5" y="-190.3" font-family="Times,serif" font-size="14.00">versions</text>
</g>
<!-- User -->
<g id="node12" class="node"><title>User</title>
<ellipse fill="none" stroke="black" cx="554" cy="-416" rx="32.2457" ry="18"/>
<text text-anchor="middle" x="554" y="-412.3" font-family="Times,serif" font-size="14.00">User</text>
</g>
<!-- User&#45;&gt;TeamUser -->
<g id="edge9" class="edge"><title>User&#45;&gt;TeamUser</title>
<path fill="none" stroke="#7b184b" d="M585.987,-401.318C589.016,-400.15 592.055,-399.024 595,-398 653.469,-377.666 671.212,-382.197 729,-360 782.751,-339.354 842,-308.722 878.613,-288.807"/>
<ellipse fill="none" stroke="#7b184b" cx="582.254" cy="-402.803" rx="4.00001" ry="4.00001"/>
<polygon fill="#7b184b" stroke="#7b184b" points="878.645,-288.789 889.577,-287.934 883.031,-286.388 887.416,-283.987 887.416,-283.987 887.416,-283.987 883.031,-286.388 885.255,-280.04 878.645,-288.789 878.645,-288.789"/>
</g>
<!-- User&#45;&gt;Source -->
<g id="edge8" class="edge"><title>User&#45;&gt;Source</title>
<path fill="none" stroke="#4491ca" d="M538.566,-392.321C532.895,-383.988 526.469,-374.546 520.769,-366.171"/>
<ellipse fill="none" stroke="#4491ca" cx="540.875" cy="-395.714" rx="4.00002" ry="4.00002"/>
<ellipse fill="#4491ca" stroke="#4491ca" cx="518.435" cy="-362.741" rx="4.00002" ry="4.00002"/>
</g>
<!-- User&#45;&gt;Project -->
<g id="edge11" class="edge"><title>User&#45;&gt;Project</title>
<path fill="none" stroke="#dbbd3d" d="M521.173,-401.47C518.082,-400.27 514.989,-399.096 512,-398 438.631,-371.103 345,-421.144 345,-343 345,-343 345,-343 345,-230 345,-186.09 383.763,-148.972 412.778,-127.339"/>
<ellipse fill="none" stroke="#dbbd3d" cx="525.066" cy="-403.008" rx="4.00001" ry="4.00001"/>
<polygon fill="#dbbd3d" stroke="#dbbd3d" points="412.922,-127.235 423.667,-125.046 416.98,-124.314 421.039,-121.394 421.039,-121.394 421.039,-121.394 416.98,-124.314 418.41,-117.741 412.922,-127.235 412.922,-127.235"/>
</g>
<!-- Team -->
<g id="node15" class="node"><title>Team</title>
<ellipse fill="none" stroke="black" cx="685" cy="-342" rx="35.6194" ry="18"/>
<text text-anchor="middle" x="685" y="-338.3" font-family="Times,serif" font-size="14.00">Team</text>
</g>
<!-- User&#45;&gt;Team -->
<g id="edge10" class="edge"><title>User&#45;&gt;Team</title>
<path fill="none" stroke="#dee24c" d="M585.113,-397.9C605.521,-386.683 632.144,-372.051 652.773,-360.713"/>
<polygon fill="#dee24c" stroke="#dee24c" points="584.986,-397.97 574.055,-398.843 580.604,-400.378 576.222,-402.786 576.222,-402.786 576.222,-402.786 580.604,-400.378 578.39,-406.73 584.986,-397.97 584.986,-397.97"/>
<polygon fill="#dee24c" stroke="#dee24c" points="653.021,-360.576 663.952,-359.703 657.403,-358.168 661.785,-355.759 661.785,-355.759 661.785,-355.759 657.403,-358.168 659.617,-351.816 653.021,-360.576 653.021,-360.576"/>
</g>
<!-- ApiKey -->
<g id="node13" class="node"><title>ApiKey</title>
<ellipse fill="none" stroke="black" cx="648" cy="-416" rx="43.319" ry="18"/>
<text text-anchor="middle" x="648" y="-412.3" font-family="Times,serif" font-size="14.00">ApiKey</text>
</g>
<!-- Project&#45;&gt;ProjectMedia -->
<g id="edge14" class="edge"><title>Project&#45;&gt;ProjectMedia</title>
<path fill="none" stroke="#0c76e5" d="M447.672,-79.8428C449.75,-71.1618 452.984,-61.6938 458,-54 460.819,-49.6761 464.344,-45.6279 468.155,-41.9296"/>
<ellipse fill="none" stroke="#0c76e5" cx="446.825" cy="-83.9243" rx="4.00001" ry="4.00001"/>
<polygon fill="#0c76e5" stroke="#0c76e5" points="468.219,-41.8736 478.699,-38.6472 471.973,-38.5711 475.727,-35.2685 475.727,-35.2685 475.727,-35.2685 471.973,-38.5711 472.755,-31.8898 468.219,-41.8736 468.219,-41.8736"/>
</g>
<!-- Project&#45;&gt;ProjectSource -->
<g id="edge13" class="edge"><title>Project&#45;&gt;ProjectSource</title>
<path fill="none" stroke="#d80902" d="M417.86,-84.7476C401.207,-71.8451 379.601,-55.1053 362.358,-41.746"/>
<ellipse fill="none" stroke="#d80902" cx="421.249" cy="-87.373" rx="4.00002" ry="4.00002"/>
<polygon fill="#d80902" stroke="#d80902" points="362.19,-41.6157 357.041,-31.9338 358.237,-38.5533 354.285,-35.491 354.285,-35.491 354.285,-35.491 358.237,-38.5533 351.529,-39.0483 362.19,-41.6157 362.19,-41.6157"/>
</g>
<!-- Project&#45;&gt;PaperTrail::Version -->
<g id="edge12" class="edge"><title>Project&#45;&gt;PaperTrail::Version</title>
<path fill="none" stroke="#264616" d="M464.208,-82.7334C474.777,-72.4318 488.514,-60.961 503,-54 513,-49.1945 563.617,-39.9362 609.952,-32.1483"/>
<ellipse fill="none" stroke="#264616" cx="461.187" cy="-85.7805" rx="4.00002" ry="4.00002"/>
<polygon fill="#264616" stroke="#264616" points="610.201,-32.1069 620.805,-34.8987 615.132,-31.2835 620.064,-30.4601 620.064,-30.4601 620.064,-30.4601 615.132,-31.2835 619.323,-26.0216 610.201,-32.1069 610.201,-32.1069"/>
<text text-anchor="middle" x="533.5" y="-58.3" font-family="Times,serif" font-size="14.00">versions</text>
</g>
<!-- Team&#45;&gt;Contact -->
<g id="edge19" class="edge"><title>Team&#45;&gt;Contact</title>
<path fill="none" stroke="#b1bf1c" d="M711.887,-322.563C726.434,-312.588 744.457,-300.23 759.524,-289.898"/>
<ellipse fill="none" stroke="#b1bf1c" cx="708.544" cy="-324.856" rx="4.00002" ry="4.00002"/>
<polygon fill="#b1bf1c" stroke="#b1bf1c" points="759.757,-289.738 770.549,-287.794 763.881,-286.91 768.005,-284.083 768.005,-284.083 768.005,-284.083 763.881,-286.91 765.46,-280.371 759.757,-289.738 759.757,-289.738"/>
</g>
<!-- Team&#45;&gt;TeamUser -->
<g id="edge18" class="edge"><title>Team&#45;&gt;TeamUser</title>
<path fill="none" stroke="#4be94e" d="M722.259,-329.285C761.261,-317.023 822.666,-297.716 865.442,-284.267"/>
<ellipse fill="none" stroke="#4be94e" cx="718.285" cy="-330.535" rx="4.00001" ry="4.00001"/>
<polygon fill="#4be94e" stroke="#4be94e" points="865.54,-284.236 876.429,-285.53 870.31,-282.737 875.079,-281.237 875.079,-281.237 875.079,-281.237 870.31,-282.737 873.73,-276.944 865.54,-284.236 865.54,-284.236"/>
</g>
<!-- Team&#45;&gt;Project -->
<g id="edge16" class="edge"><title>Team&#45;&gt;Project</title>
<path fill="none" stroke="#90a9e0" d="M649.083,-327.832C603.383,-309.195 525.319,-270.715 483,-212 465.921,-188.304 455.457,-156.265 449.726,-133.833"/>
<ellipse fill="none" stroke="#90a9e0" cx="652.962" cy="-329.382" rx="4.00001" ry="4.00001"/>
<polygon fill="#90a9e0" stroke="#90a9e0" points="449.692,-133.691 451.726,-122.916 448.521,-128.83 447.351,-123.969 447.351,-123.969 447.351,-123.969 448.521,-128.83 442.976,-125.022 449.692,-133.691 449.692,-133.691"/>
</g>
<!-- Team&#45;&gt;Account -->
<g id="edge17" class="edge"><title>Team&#45;&gt;Account</title>
<path fill="none" stroke="#239c21" d="M668.434,-318.063C662.873,-310.363 656.646,-301.74 650.981,-293.897"/>
<ellipse fill="none" stroke="#239c21" cx="670.858" cy="-321.419" rx="4.00002" ry="4.00002"/>
<polygon fill="#239c21" stroke="#239c21" points="650.969,-293.88 648.762,-283.138 648.041,-289.826 645.114,-285.773 645.114,-285.773 645.114,-285.773 648.041,-289.826 641.466,-288.408 650.969,-293.88 650.969,-293.88"/>
</g>
<!-- Team&#45;&gt;PaperTrail::Version -->
<g id="edge15" class="edge"><title>Team&#45;&gt;PaperTrail::Version</title>
<path fill="none" stroke="#15713f" d="M696.855,-317.234C718.658,-272.317 762.176,-176.386 754,-142 745.416,-105.898 724.458,-68.37 709.281,-44.4091"/>
<ellipse fill="none" stroke="#15713f" cx="695.061" cy="-320.903" rx="4.00002" ry="4.00002"/>
<polygon fill="#15713f" stroke="#15713f" points="709.221,-44.3154 707.563,-33.4756 706.503,-40.1184 703.786,-35.9214 703.786,-35.9214 703.786,-35.9214 706.503,-40.1184 700.008,-38.3672 709.221,-44.3154 709.221,-44.3154"/>
<text text-anchor="middle" x="781.5" y="-190.3" font-family="Times,serif" font-size="14.00">versions</text>
</g>
<!-- Account&#45;&gt;Media -->
<g id="edge21" class="edge"><title>Account&#45;&gt;Media</title>
<path fill="none" stroke="#8fa35e" d="M629.849,-241.792C629.073,-235.58 628.237,-228.896 627.447,-222.579"/>
<ellipse fill="none" stroke="#8fa35e" cx="630.371" cy="-245.968" rx="4.00001" ry="4.00001"/>
<polygon fill="#8fa35e" stroke="#8fa35e" points="627.421,-222.363 630.645,-211.882 626.8,-217.402 626.18,-212.441 626.18,-212.441 626.18,-212.441 626.8,-217.402 621.715,-212.999 627.421,-222.363 627.421,-222.363"/>
</g>
<!-- Account&#45;&gt;PaperTrail::Version -->
<g id="edge20" class="edge"><title>Account&#45;&gt;PaperTrail::Version</title>
<path fill="none" stroke="#cf7a31" d="M653.814,-244.158C661.127,-234.838 668.609,-223.544 673,-212 694.244,-156.148 695.164,-84.9747 693.73,-46.5689"/>
<ellipse fill="none" stroke="#cf7a31" cx="651.099" cy="-247.475" rx="4.00002" ry="4.00002"/>
<polygon fill="#cf7a31" stroke="#cf7a31" points="693.712,-46.1891 697.749,-35.9931 693.483,-41.1943 693.254,-36.1996 693.254,-36.1996 693.254,-36.1996 693.483,-41.1943 688.758,-36.4061 693.712,-46.1891 693.712,-46.1891"/>
<text text-anchor="middle" x="719.5" y="-146.3" font-family="Times,serif" font-size="14.00">versions</text>
</g>
</g>
</svg>
