<?xml version="1.0" encoding="UTF-8" standalone="no"?>
<!DOCTYPE svg PUBLIC "-//W3C//DTD SVG 1.1//EN"
 "http://www.w3.org/Graphics/SVG/1.1/DTD/svg11.dtd">
<!-- Generated by graphviz version 2.26.3 (20100126.1600)
 -->
<!-- Title: models_diagram Pages: 1 -->
<svg width="1484pt" height="1578pt"
 viewBox="0.00 0.00 1484.00 1578.00" xmlns="http://www.w3.org/2000/svg" xmlns:xlink="http://www.w3.org/1999/xlink">
<g id="graph1" class="graph" transform="scale(1 1) rotate(0) translate(4 1574)">
<title>models_diagram</title>
<polygon fill="none" stroke="none" points="-4,5 -4,-1574 1481,-1574 1481,5 -4,5"/>
<!-- Tag -->
<g id="node1" class="node"><title>Tag</title>
<polyline fill="none" stroke="black" points="12,-1444 42,-1444 "/>
<path fill="none" stroke="black" d="M42,-1444C48,-1444 54,-1450 54,-1456"/>
<polyline fill="none" stroke="black" points="54,-1456 54,-1468 "/>
<path fill="none" stroke="black" d="M54,-1468C54,-1474 48,-1480 42,-1480"/>
<polyline fill="none" stroke="black" points="42,-1480 12,-1480 "/>
<path fill="none" stroke="black" d="M12,-1480C6,-1480 0,-1474 0,-1468"/>
<polyline fill="none" stroke="black" points="0,-1468 0,-1456 "/>
<path fill="none" stroke="black" d="M0,-1456C0,-1450 6,-1444 12,-1444"/>
<text text-anchor="middle" x="27" y="-1460.9" font-family="Times Roman,serif" font-size="14.00">Tag</text>
<polyline fill="none" stroke="black" points="0,-1449 54,-1449 "/>
</g>
<!-- Status -->
<g id="node2" class="node"><title>Status</title>
<polyline fill="none" stroke="black" points="84,-1444 122,-1444 "/>
<path fill="none" stroke="black" d="M122,-1444C128,-1444 134,-1450 134,-1456"/>
<polyline fill="none" stroke="black" points="134,-1456 134,-1468 "/>
<path fill="none" stroke="black" d="M134,-1468C134,-1474 128,-1480 122,-1480"/>
<polyline fill="none" stroke="black" points="122,-1480 84,-1480 "/>
<path fill="none" stroke="black" d="M84,-1480C78,-1480 72,-1474 72,-1468"/>
<polyline fill="none" stroke="black" points="72,-1468 72,-1456 "/>
<path fill="none" stroke="black" d="M72,-1456C72,-1450 78,-1444 84,-1444"/>
<text text-anchor="middle" x="103" y="-1460.9" font-family="Times Roman,serif" font-size="14.00">Status</text>
<polyline fill="none" stroke="black" points="72,-1449 134,-1449 "/>
</g>
<!-- Flag -->
<g id="node3" class="node"><title>Flag</title>
<polyline fill="none" stroke="black" points="164,-1444 194,-1444 "/>
<path fill="none" stroke="black" d="M194,-1444C200,-1444 206,-1450 206,-1456"/>
<polyline fill="none" stroke="black" points="206,-1456 206,-1468 "/>
<path fill="none" stroke="black" d="M206,-1468C206,-1474 200,-1480 194,-1480"/>
<polyline fill="none" stroke="black" points="194,-1480 164,-1480 "/>
<path fill="none" stroke="black" d="M164,-1480C158,-1480 152,-1474 152,-1468"/>
<polyline fill="none" stroke="black" points="152,-1468 152,-1456 "/>
<path fill="none" stroke="black" d="M152,-1456C152,-1450 158,-1444 164,-1444"/>
<text text-anchor="middle" x="179" y="-1460.9" font-family="Times Roman,serif" font-size="14.00">Flag</text>
<polyline fill="none" stroke="black" points="152,-1449 206,-1449 "/>
</g>
<!-- Embed -->
<g id="node4" class="node"><title>Embed</title>
<polyline fill="none" stroke="black" points="235.5,-1444 274.5,-1444 "/>
<path fill="none" stroke="black" d="M274.5,-1444C280.5,-1444 286.5,-1450 286.5,-1456"/>
<polyline fill="none" stroke="black" points="286.5,-1456 286.5,-1468 "/>
<path fill="none" stroke="black" d="M286.5,-1468C286.5,-1474 280.5,-1480 274.5,-1480"/>
<polyline fill="none" stroke="black" points="274.5,-1480 235.5,-1480 "/>
<path fill="none" stroke="black" d="M235.5,-1480C229.5,-1480 223.5,-1474 223.5,-1468"/>
<polyline fill="none" stroke="black" points="223.5,-1468 223.5,-1456 "/>
<path fill="none" stroke="black" d="M223.5,-1456C223.5,-1450 229.5,-1444 235.5,-1444"/>
<text text-anchor="middle" x="255" y="-1460.9" font-family="Times Roman,serif" font-size="14.00">Embed</text>
<polyline fill="none" stroke="black" points="223.5,-1449 286.5,-1449 "/>
</g>
<!-- Comment -->
<g id="node5" class="node"><title>Comment</title>
<polyline fill="none" stroke="black" points="315.5,-1444 374.5,-1444 "/>
<path fill="none" stroke="black" d="M374.5,-1444C380.5,-1444 386.5,-1450 386.5,-1456"/>
<polyline fill="none" stroke="black" points="386.5,-1456 386.5,-1468 "/>
<path fill="none" stroke="black" d="M386.5,-1468C386.5,-1474 380.5,-1480 374.5,-1480"/>
<polyline fill="none" stroke="black" points="374.5,-1480 315.5,-1480 "/>
<path fill="none" stroke="black" d="M315.5,-1480C309.5,-1480 303.5,-1474 303.5,-1468"/>
<polyline fill="none" stroke="black" points="303.5,-1468 303.5,-1456 "/>
<path fill="none" stroke="black" d="M303.5,-1456C303.5,-1450 309.5,-1444 315.5,-1444"/>
<text text-anchor="middle" x="345" y="-1460.9" font-family="Times Roman,serif" font-size="14.00">Comment</text>
<polyline fill="none" stroke="black" points="303.5,-1449 386.5,-1449 "/>
</g>
<!-- Annotation -->
<g id="node6" class="node"><title>Annotation</title>
<polyline fill="none" stroke="black" points="416,-1444 486,-1444 "/>
<path fill="none" stroke="black" d="M486,-1444C492,-1444 498,-1450 498,-1456"/>
<polyline fill="none" stroke="black" points="498,-1456 498,-1468 "/>
<path fill="none" stroke="black" d="M498,-1468C498,-1474 492,-1480 486,-1480"/>
<polyline fill="none" stroke="black" points="486,-1480 416,-1480 "/>
<path fill="none" stroke="black" d="M416,-1480C410,-1480 404,-1474 404,-1468"/>
<polyline fill="none" stroke="black" points="404,-1468 404,-1456 "/>
<path fill="none" stroke="black" d="M404,-1456C404,-1450 410,-1444 416,-1444"/>
<text text-anchor="middle" x="451" y="-1460.9" font-family="Times Roman,serif" font-size="14.00">Annotation</text>
<polyline fill="none" stroke="black" points="404,-1449 498,-1449 "/>
</g>
<!-- Source -->
<g id="node7" class="node"><title>Source</title>
<polyline fill="none" stroke="black" points="413.5,-667 698.5,-667 "/>
<path fill="none" stroke="black" d="M698.5,-667C704.5,-667 710.5,-673 710.5,-679"/>
<polyline fill="none" stroke="black" points="710.5,-679 710.5,-815 "/>
<path fill="none" stroke="black" d="M710.5,-815C710.5,-821 704.5,-827 698.5,-827"/>
<polyline fill="none" stroke="black" points="698.5,-827 413.5,-827 "/>
<path fill="none" stroke="black" d="M413.5,-827C407.5,-827 401.5,-821 401.5,-815"/>
<polyline fill="none" stroke="black" points="401.5,-815 401.5,-679 "/>
<path fill="none" stroke="black" d="M401.5,-679C401.5,-673 407.5,-667 413.5,-667"/>
<text text-anchor="middle" x="556" y="-810.4" font-family="Times Roman,serif" font-size="14.00">Source</text>
<polyline fill="none" stroke="black" points="401.5,-801 710.5,-801 "/>
<text text-anchor="start" x="409.5" y="-784.4" font-family="Times Roman,serif" font-size="14.00">id :integer</text>
<text text-anchor="start" x="409.5" y="-766.4" font-family="Times Roman,serif" font-size="14.00">user_id :integer</text>
<text text-anchor="start" x="409.5" y="-748.4" font-family="Times Roman,serif" font-size="14.00">name :character varying</text>
<text text-anchor="start" x="409.5" y="-730.4" font-family="Times Roman,serif" font-size="14.00">slogan :character varying</text>
<text text-anchor="start" x="409.5" y="-712.4" font-family="Times Roman,serif" font-size="14.00">avatar :character varying</text>
<text text-anchor="start" x="409.5" y="-694.4" font-family="Times Roman,serif" font-size="14.00">created_at :timestamp without time zone</text>
<text text-anchor="start" x="409.5" y="-676.4" font-family="Times Roman,serif" font-size="14.00">updated_at :timestamp without time zone</text>
</g>
<!-- ProjectSource -->
<g id="node10" class="node"><title>ProjectSource</title>
<polyline fill="none" stroke="black" points="659.5,-208 944.5,-208 "/>
<path fill="none" stroke="black" d="M944.5,-208C950.5,-208 956.5,-214 956.5,-220"/>
<polyline fill="none" stroke="black" points="956.5,-220 956.5,-320 "/>
<path fill="none" stroke="black" d="M956.5,-320C956.5,-326 950.5,-332 944.5,-332"/>
<polyline fill="none" stroke="black" points="944.5,-332 659.5,-332 "/>
<path fill="none" stroke="black" d="M659.5,-332C653.5,-332 647.5,-326 647.5,-320"/>
<polyline fill="none" stroke="black" points="647.5,-320 647.5,-220 "/>
<path fill="none" stroke="black" d="M647.5,-220C647.5,-214 653.5,-208 659.5,-208"/>
<text text-anchor="middle" x="802" y="-315.4" font-family="Times Roman,serif" font-size="14.00">ProjectSource</text>
<polyline fill="none" stroke="black" points="647.5,-306 956.5,-306 "/>
<text text-anchor="start" x="655.5" y="-289.4" font-family="Times Roman,serif" font-size="14.00">id :integer</text>
<text text-anchor="start" x="655.5" y="-271.4" font-family="Times Roman,serif" font-size="14.00">project_id :integer</text>
<text text-anchor="start" x="655.5" y="-253.4" font-family="Times Roman,serif" font-size="14.00">source_id :integer</text>
<text text-anchor="start" x="655.5" y="-235.4" font-family="Times Roman,serif" font-size="14.00">created_at :timestamp without time zone</text>
<text text-anchor="start" x="655.5" y="-217.4" font-family="Times Roman,serif" font-size="14.00">updated_at :timestamp without time zone</text>
</g>
<!-- Source&#45;&gt;ProjectSource -->
<g id="edge6" class="edge"><title>Source&#45;&gt;ProjectSource</title>
<path fill="none" stroke="#df4f8e" d="M692.964,-661.398C709.029,-646.594 723.693,-630.074 735,-612 786.642,-529.454 799.833,-415.538 802.509,-342.314"/>
<ellipse fill="none" stroke="#df4f8e" cx="689.96" cy="-664.099" rx="4.00002" ry="4.00002"/>
<polygon fill="#df4f8e" stroke="#df4f8e" points="802.51,-342.254 807.317,-332.398 802.665,-337.257 802.819,-332.259 802.819,-332.259 802.819,-332.259 802.665,-337.257 798.321,-332.12 802.51,-342.254 802.51,-342.254"/>
</g>
<!-- Account -->
<g id="node11" class="node"><title>Account</title>
<polyline fill="none" stroke="black" points="429.5,-424 714.5,-424 "/>
<path fill="none" stroke="black" d="M714.5,-424C720.5,-424 726.5,-430 726.5,-436"/>
<polyline fill="none" stroke="black" points="726.5,-436 726.5,-572 "/>
<path fill="none" stroke="black" d="M726.5,-572C726.5,-578 720.5,-584 714.5,-584"/>
<polyline fill="none" stroke="black" points="714.5,-584 429.5,-584 "/>
<path fill="none" stroke="black" d="M429.5,-584C423.5,-584 417.5,-578 417.5,-572"/>
<polyline fill="none" stroke="black" points="417.5,-572 417.5,-436 "/>
<path fill="none" stroke="black" d="M417.5,-436C417.5,-430 423.5,-424 429.5,-424"/>
<text text-anchor="middle" x="572" y="-567.4" font-family="Times Roman,serif" font-size="14.00">Account</text>
<polyline fill="none" stroke="black" points="417.5,-558 726.5,-558 "/>
<text text-anchor="start" x="425.5" y="-541.4" font-family="Times Roman,serif" font-size="14.00">id :integer</text>
<text text-anchor="start" x="425.5" y="-523.4" font-family="Times Roman,serif" font-size="14.00">user_id :integer</text>
<text text-anchor="start" x="425.5" y="-505.4" font-family="Times Roman,serif" font-size="14.00">source_id :integer</text>
<text text-anchor="start" x="425.5" y="-487.4" font-family="Times Roman,serif" font-size="14.00">url :character varying</text>
<text text-anchor="start" x="425.5" y="-469.4" font-family="Times Roman,serif" font-size="14.00">created_at :timestamp without time zone</text>
<text text-anchor="start" x="425.5" y="-451.4" font-family="Times Roman,serif" font-size="14.00">updated_at :timestamp without time zone</text>
<text text-anchor="start" x="425.5" y="-433.4" font-family="Times Roman,serif" font-size="14.00">team_id :integer</text>
</g>
<!-- Source&#45;&gt;Account -->
<g id="edge4" class="edge"><title>Source&#45;&gt;Account</title>
<path fill="none" stroke="#537070" d="M561.821,-658.586C563.199,-637.673 564.669,-615.343 566.051,-594.346"/>
<ellipse fill="none" stroke="#537070" cx="561.546" cy="-662.768" rx="4" ry="4"/>
<polygon fill="#537070" stroke="#537070" points="566.065,-594.135 571.212,-584.452 566.394,-589.146 566.722,-584.156 566.722,-584.156 566.722,-584.156 566.394,-589.146 562.232,-583.861 566.065,-594.135 566.065,-594.135"/>
</g>
<!-- Project -->
<g id="node12" class="node"><title>Project</title>
<polyline fill="none" stroke="black" points="103.5,-397 388.5,-397 "/>
<path fill="none" stroke="black" d="M388.5,-397C394.5,-397 400.5,-403 400.5,-409"/>
<polyline fill="none" stroke="black" points="400.5,-409 400.5,-599 "/>
<path fill="none" stroke="black" d="M400.5,-599C400.5,-605 394.5,-611 388.5,-611"/>
<polyline fill="none" stroke="black" points="388.5,-611 103.5,-611 "/>
<path fill="none" stroke="black" d="M103.5,-611C97.5,-611 91.5,-605 91.5,-599"/>
<polyline fill="none" stroke="black" points="91.5,-599 91.5,-409 "/>
<path fill="none" stroke="black" d="M91.5,-409C91.5,-403 97.5,-397 103.5,-397"/>
<text text-anchor="middle" x="246" y="-594.4" font-family="Times Roman,serif" font-size="14.00">Project</text>
<polyline fill="none" stroke="black" points="91.5,-585 400.5,-585 "/>
<text text-anchor="start" x="99.5" y="-568.4" font-family="Times Roman,serif" font-size="14.00">id :integer</text>
<text text-anchor="start" x="99.5" y="-550.4" font-family="Times Roman,serif" font-size="14.00">user_id :integer</text>
<text text-anchor="start" x="99.5" y="-532.4" font-family="Times Roman,serif" font-size="14.00">team_id :integer</text>
<text text-anchor="start" x="99.5" y="-514.4" font-family="Times Roman,serif" font-size="14.00">title :character varying</text>
<text text-anchor="start" x="99.5" y="-496.4" font-family="Times Roman,serif" font-size="14.00">description :text</text>
<text text-anchor="start" x="99.5" y="-478.4" font-family="Times Roman,serif" font-size="14.00">lead_image :character varying</text>
<text text-anchor="start" x="99.5" y="-460.4" font-family="Times Roman,serif" font-size="14.00">created_at :timestamp without time zone</text>
<text text-anchor="start" x="99.5" y="-442.4" font-family="Times Roman,serif" font-size="14.00">updated_at :timestamp without time zone</text>
<text text-anchor="start" x="99.5" y="-424.4" font-family="Times Roman,serif" font-size="14.00">archived :boolean</text>
<text text-anchor="start" x="99.5" y="-406.4" font-family="Times Roman,serif" font-size="14.00">settings :text</text>
</g>
<!-- Source&#45;&gt;Project -->
<g id="edge8" class="edge"><title>Source&#45;&gt;Project</title>
<path fill="none" stroke="#4e33f3" d="M445.57,-660.437C427.71,-646.437 408.987,-631.761 390.466,-617.242"/>
<polygon fill="#4e33f3" stroke="#4e33f3" points="445.765,-660.59 450.859,-670.301 449.7,-663.675 453.635,-666.759 453.635,-666.759 453.635,-666.759 449.7,-663.675 456.411,-663.218 445.765,-660.59 445.765,-660.59"/>
<polygon fill="#4e33f3" stroke="#4e33f3" points="390.413,-617.202 385.319,-607.491 386.478,-614.117 382.543,-611.032 382.543,-611.032 382.543,-611.032 386.478,-614.117 379.767,-614.574 390.413,-617.202 390.413,-617.202"/>
</g>
<!-- PaperTrail::Version -->
<g id="node20" class="node"><title>PaperTrail::Version</title>
<ellipse fill="none" stroke="black" cx="572" cy="-72" rx="101.823" ry="18.3848"/>
<text text-anchor="middle" x="572" y="-68.4" font-family="Times Roman,serif" font-size="14.00">PaperTrail::Version</text>
</g>
<!-- Source&#45;&gt;PaperTrail::Version -->
<g id="edge2" class="edge"><title>Source&#45;&gt;PaperTrail::Version</title>
<path fill="none" stroke="#d88d51" d="M717.352,-663.166C739.749,-647.818 761.416,-630.674 780,-612 922.162,-469.149 1083.78,-360.814 965,-198 928.183,-147.533 759.182,-107.357 655.154,-86.8681"/>
<ellipse fill="none" stroke="#d88d51" cx="714.015" cy="-665.42" rx="4.00002" ry="4.00002"/>
<polygon fill="#d88d51" stroke="#d88d51" points="655.112,-86.8599 646.157,-80.5302 650.204,-85.9035 645.296,-84.9471 645.296,-84.9471 645.296,-84.9471 650.204,-85.9035 644.436,-89.364 655.112,-86.8599 655.112,-86.8599"/>
<text text-anchor="middle" x="1025" y="-365.4" font-family="Times Roman,serif" font-size="14.00">versions</text>
</g>
<!-- Bot -->
<g id="node8" class="node"><title>Bot</title>
<polyline fill="none" stroke="black" points="853.5,-1400 1138.5,-1400 "/>
<path fill="none" stroke="black" d="M1138.5,-1400C1144.5,-1400 1150.5,-1406 1150.5,-1412"/>
<polyline fill="none" stroke="black" points="1150.5,-1412 1150.5,-1512 "/>
<path fill="none" stroke="black" d="M1150.5,-1512C1150.5,-1518 1144.5,-1524 1138.5,-1524"/>
<polyline fill="none" stroke="black" points="1138.5,-1524 853.5,-1524 "/>
<path fill="none" stroke="black" d="M853.5,-1524C847.5,-1524 841.5,-1518 841.5,-1512"/>
<polyline fill="none" stroke="black" points="841.5,-1512 841.5,-1412 "/>
<path fill="none" stroke="black" d="M841.5,-1412C841.5,-1406 847.5,-1400 853.5,-1400"/>
<text text-anchor="middle" x="996" y="-1507.4" font-family="Times Roman,serif" font-size="14.00">Bot</text>
<polyline fill="none" stroke="black" points="841.5,-1498 1150.5,-1498 "/>
<text text-anchor="start" x="849.5" y="-1481.4" font-family="Times Roman,serif" font-size="14.00">id :integer</text>
<text text-anchor="start" x="849.5" y="-1463.4" font-family="Times Roman,serif" font-size="14.00">name :character varying</text>
<text text-anchor="start" x="849.5" y="-1445.4" font-family="Times Roman,serif" font-size="14.00">avatar :character varying</text>
<text text-anchor="start" x="849.5" y="-1427.4" font-family="Times Roman,serif" font-size="14.00">created_at :timestamp without time zone</text>
<text text-anchor="start" x="849.5" y="-1409.4" font-family="Times Roman,serif" font-size="14.00">updated_at :timestamp without time zone</text>
</g>
<!-- Team -->
<g id="node9" class="node"><title>Team</title>
<polyline fill="none" stroke="black" points="527.5,-1355 812.5,-1355 "/>
<path fill="none" stroke="black" d="M812.5,-1355C818.5,-1355 824.5,-1361 824.5,-1367"/>
<polyline fill="none" stroke="black" points="824.5,-1367 824.5,-1557 "/>
<path fill="none" stroke="black" d="M824.5,-1557C824.5,-1563 818.5,-1569 812.5,-1569"/>
<polyline fill="none" stroke="black" points="812.5,-1569 527.5,-1569 "/>
<path fill="none" stroke="black" d="M527.5,-1569C521.5,-1569 515.5,-1563 515.5,-1557"/>
<polyline fill="none" stroke="black" points="515.5,-1557 515.5,-1367 "/>
<path fill="none" stroke="black" d="M515.5,-1367C515.5,-1361 521.5,-1355 527.5,-1355"/>
<text text-anchor="middle" x="670" y="-1552.4" font-family="Times Roman,serif" font-size="14.00">Team</text>
<polyline fill="none" stroke="black" points="515.5,-1543 824.5,-1543 "/>
<text text-anchor="start" x="523.5" y="-1526.4" font-family="Times Roman,serif" font-size="14.00">id :integer</text>
<text text-anchor="start" x="523.5" y="-1508.4" font-family="Times Roman,serif" font-size="14.00">name :character varying</text>
<text text-anchor="start" x="523.5" y="-1490.4" font-family="Times Roman,serif" font-size="14.00">logo :character varying</text>
<text text-anchor="start" x="523.5" y="-1472.4" font-family="Times Roman,serif" font-size="14.00">private :boolean</text>
<text text-anchor="start" x="523.5" y="-1454.4" font-family="Times Roman,serif" font-size="14.00">archived :boolean</text>
<text text-anchor="start" x="523.5" y="-1436.4" font-family="Times Roman,serif" font-size="14.00">created_at :timestamp without time zone</text>
<text text-anchor="start" x="523.5" y="-1418.4" font-family="Times Roman,serif" font-size="14.00">updated_at :timestamp without time zone</text>
<text text-anchor="start" x="523.5" y="-1400.4" font-family="Times Roman,serif" font-size="14.00">description :text</text>
<text text-anchor="start" x="523.5" y="-1382.4" font-family="Times Roman,serif" font-size="14.00">subdomain :character varying</text>
<text text-anchor="start" x="523.5" y="-1364.4" font-family="Times Roman,serif" font-size="14.00">settings :text</text>
</g>
<!-- Team&#45;&gt;Account -->
<g id="edge14" class="edge"><title>Team&#45;&gt;Account</title>
<path fill="none" stroke="#b2d74e" d="M508.051,-1354.46C507.701,-1354.31 507.35,-1354.15 507,-1354 440.361,-1325.05 393.011,-1373.04 348,-1316 258.303,-1202.34 320.021,-791.053 393,-666 408.917,-638.725 430.971,-613.472 454.17,-591.413"/>
<ellipse fill="none" stroke="#b2d74e" cx="511.772" cy="-1356.14" rx="4.00002" ry="4.00002"/>
<polygon fill="#b2d74e" stroke="#b2d74e" points="454.419,-591.181 464.803,-587.658 458.077,-587.773 461.736,-584.365 461.736,-584.365 461.736,-584.365 458.077,-587.773 458.668,-581.072 454.419,-591.181 454.419,-591.181"/>
</g>
<!-- Team&#45;&gt;Project -->
<g id="edge12" class="edge"><title>Team&#45;&gt;Project</title>
<path fill="none" stroke="#60029e" d="M507.507,-1354.19C507.338,-1354.13 507.169,-1354.06 507,-1354 418.863,-1321.39 356.935,-1389.99 299,-1316 141.585,-1114.96 180.028,-793.042 216.235,-621.143"/>
<ellipse fill="none" stroke="#60029e" cx="511.389" cy="-1355.7" rx="4.00001" ry="4.00001"/>
<polygon fill="#60029e" stroke="#60029e" points="216.248,-621.083 222.74,-612.245 217.294,-616.193 218.34,-611.304 218.34,-611.304 218.34,-611.304 217.294,-616.193 213.939,-610.363 216.248,-621.083 216.248,-621.083"/>
</g>
<!-- Contact -->
<g id="node13" class="node"><title>Contact</title>
<polyline fill="none" stroke="black" points="822.5,-1011 1107.5,-1011 "/>
<path fill="none" stroke="black" d="M1107.5,-1011C1113.5,-1011 1119.5,-1017 1119.5,-1023"/>
<polyline fill="none" stroke="black" points="1119.5,-1023 1119.5,-1159 "/>
<path fill="none" stroke="black" d="M1119.5,-1159C1119.5,-1165 1113.5,-1171 1107.5,-1171"/>
<polyline fill="none" stroke="black" points="1107.5,-1171 822.5,-1171 "/>
<path fill="none" stroke="black" d="M822.5,-1171C816.5,-1171 810.5,-1165 810.5,-1159"/>
<polyline fill="none" stroke="black" points="810.5,-1159 810.5,-1023 "/>
<path fill="none" stroke="black" d="M810.5,-1023C810.5,-1017 816.5,-1011 822.5,-1011"/>
<text text-anchor="middle" x="965" y="-1154.4" font-family="Times Roman,serif" font-size="14.00">Contact</text>
<polyline fill="none" stroke="black" points="810.5,-1145 1119.5,-1145 "/>
<text text-anchor="start" x="818.5" y="-1128.4" font-family="Times Roman,serif" font-size="14.00">id :integer</text>
<text text-anchor="start" x="818.5" y="-1110.4" font-family="Times Roman,serif" font-size="14.00">team_id :integer</text>
<text text-anchor="start" x="818.5" y="-1092.4" font-family="Times Roman,serif" font-size="14.00">location :character varying</text>
<text text-anchor="start" x="818.5" y="-1074.4" font-family="Times Roman,serif" font-size="14.00">phone :character varying</text>
<text text-anchor="start" x="818.5" y="-1056.4" font-family="Times Roman,serif" font-size="14.00">web :character varying</text>
<text text-anchor="start" x="818.5" y="-1038.4" font-family="Times Roman,serif" font-size="14.00">created_at :timestamp without time zone</text>
<text text-anchor="start" x="818.5" y="-1020.4" font-family="Times Roman,serif" font-size="14.00">updated_at :timestamp without time zone</text>
</g>
<!-- Team&#45;&gt;Contact -->
<g id="edge20" class="edge"><title>Team&#45;&gt;Contact</title>
<path fill="none" stroke="#0b5654" d="M786.255,-1348.53C789.932,-1344.35 793.525,-1340.17 797,-1336 838.059,-1286.78 878.849,-1227.6 909.953,-1179.74"/>
<ellipse fill="none" stroke="#0b5654" cx="783.469" cy="-1351.66" rx="4.00002" ry="4.00002"/>
<polygon fill="#0b5654" stroke="#0b5654" points="910.017,-1179.64 919.227,-1173.69 912.733,-1175.44 915.449,-1171.24 915.449,-1171.24 915.449,-1171.24 912.733,-1175.44 911.671,-1168.8 910.017,-1179.64 910.017,-1179.64"/>
</g>
<!-- TeamUser -->
<g id="node14" class="node"><title>TeamUser</title>
<polyline fill="none" stroke="black" points="739.5,-667 1024.5,-667 "/>
<path fill="none" stroke="black" d="M1024.5,-667C1030.5,-667 1036.5,-673 1036.5,-679"/>
<polyline fill="none" stroke="black" points="1036.5,-679 1036.5,-815 "/>
<path fill="none" stroke="black" d="M1036.5,-815C1036.5,-821 1030.5,-827 1024.5,-827"/>
<polyline fill="none" stroke="black" points="1024.5,-827 739.5,-827 "/>
<path fill="none" stroke="black" d="M739.5,-827C733.5,-827 727.5,-821 727.5,-815"/>
<polyline fill="none" stroke="black" points="727.5,-815 727.5,-679 "/>
<path fill="none" stroke="black" d="M727.5,-679C727.5,-673 733.5,-667 739.5,-667"/>
<text text-anchor="middle" x="882" y="-810.4" font-family="Times Roman,serif" font-size="14.00">TeamUser</text>
<polyline fill="none" stroke="black" points="727.5,-801 1036.5,-801 "/>
<text text-anchor="start" x="735.5" y="-784.4" font-family="Times Roman,serif" font-size="14.00">id :integer</text>
<text text-anchor="start" x="735.5" y="-766.4" font-family="Times Roman,serif" font-size="14.00">team_id :integer</text>
<text text-anchor="start" x="735.5" y="-748.4" font-family="Times Roman,serif" font-size="14.00">user_id :integer</text>
<text text-anchor="start" x="735.5" y="-730.4" font-family="Times Roman,serif" font-size="14.00">created_at :timestamp without time zone</text>
<text text-anchor="start" x="735.5" y="-712.4" font-family="Times Roman,serif" font-size="14.00">updated_at :timestamp without time zone</text>
<text text-anchor="start" x="735.5" y="-694.4" font-family="Times Roman,serif" font-size="14.00">role :character varying</text>
<text text-anchor="start" x="735.5" y="-676.4" font-family="Times Roman,serif" font-size="14.00">status :character varying</text>
</g>
<!-- Team&#45;&gt;TeamUser -->
<g id="edge16" class="edge"><title>Team&#45;&gt;TeamUser</title>
<path fill="none" stroke="#6331d4" d="M750.629,-1347.76C755.794,-1337.33 760.369,-1326.67 764,-1316 828.685,-1126 735.433,-1055.35 802,-866 805.54,-855.931 810.138,-845.896 815.341,-836.168"/>
<ellipse fill="none" stroke="#6331d4" cx="748.782" cy="-1351.39" rx="4.00002" ry="4.00002"/>
<polygon fill="#6331d4" stroke="#6331d4" points="815.402,-836.058 824.205,-829.52 817.839,-831.693 820.276,-827.327 820.276,-827.327 820.276,-827.327 817.839,-831.693 816.346,-825.133 815.402,-836.058 815.402,-836.058"/>
</g>
<!-- User -->
<g id="node17" class="node"><title>User</title>
<polyline fill="none" stroke="black" points="369,-867 743,-867 "/>
<path fill="none" stroke="black" d="M743,-867C749,-867 755,-873 755,-879"/>
<polyline fill="none" stroke="black" points="755,-879 755,-1303 "/>
<path fill="none" stroke="black" d="M755,-1303C755,-1309 749,-1315 743,-1315"/>
<polyline fill="none" stroke="black" points="743,-1315 369,-1315 "/>
<path fill="none" stroke="black" d="M369,-1315C363,-1315 357,-1309 357,-1303"/>
<polyline fill="none" stroke="black" points="357,-1303 357,-879 "/>
<path fill="none" stroke="black" d="M357,-879C357,-873 363,-867 369,-867"/>
<text text-anchor="middle" x="556" y="-1298.4" font-family="Times Roman,serif" font-size="14.00">User</text>
<polyline fill="none" stroke="black" points="357,-1289 755,-1289 "/>
<text text-anchor="start" x="365" y="-1272.4" font-family="Times Roman,serif" font-size="14.00">id :integer</text>
<text text-anchor="start" x="365" y="-1254.4" font-family="Times Roman,serif" font-size="14.00">name :character varying</text>
<text text-anchor="start" x="365" y="-1236.4" font-family="Times Roman,serif" font-size="14.00">login :character varying</text>
<text text-anchor="start" x="365" y="-1218.4" font-family="Times Roman,serif" font-size="14.00">uuid :character varying</text>
<text text-anchor="start" x="365" y="-1200.4" font-family="Times Roman,serif" font-size="14.00">provider :character varying</text>
<text text-anchor="start" x="365" y="-1182.4" font-family="Times Roman,serif" font-size="14.00">token :character varying</text>
<text text-anchor="start" x="365" y="-1164.4" font-family="Times Roman,serif" font-size="14.00">email :character varying</text>
<text text-anchor="start" x="365" y="-1146.4" font-family="Times Roman,serif" font-size="14.00">encrypted_password :character varying</text>
<text text-anchor="start" x="365" y="-1128.4" font-family="Times Roman,serif" font-size="14.00">reset_password_token :character varying</text>
<text text-anchor="start" x="365" y="-1110.4" font-family="Times Roman,serif" font-size="14.00">reset_password_sent_at :timestamp without time zone</text>
<text text-anchor="start" x="365" y="-1092.4" font-family="Times Roman,serif" font-size="14.00">remember_created_at :timestamp without time zone</text>
<text text-anchor="start" x="365" y="-1074.4" font-family="Times Roman,serif" font-size="14.00">sign_in_count :integer</text>
<text text-anchor="start" x="365" y="-1056.4" font-family="Times Roman,serif" font-size="14.00">current_sign_in_at :timestamp without time zone</text>
<text text-anchor="start" x="365" y="-1038.4" font-family="Times Roman,serif" font-size="14.00">last_sign_in_at :timestamp without time zone</text>
<text text-anchor="start" x="365" y="-1020.4" font-family="Times Roman,serif" font-size="14.00">current_sign_in_ip :character varying</text>
<text text-anchor="start" x="365" y="-1002.4" font-family="Times Roman,serif" font-size="14.00">last_sign_in_ip :character varying</text>
<text text-anchor="start" x="365" y="-984.4" font-family="Times Roman,serif" font-size="14.00">created_at :timestamp without time zone</text>
<text text-anchor="start" x="365" y="-966.4" font-family="Times Roman,serif" font-size="14.00">updated_at :timestamp without time zone</text>
<text text-anchor="start" x="365" y="-948.4" font-family="Times Roman,serif" font-size="14.00">profile_image :character varying</text>
<text text-anchor="start" x="365" y="-930.4" font-family="Times Roman,serif" font-size="14.00">image :character varying</text>
<text text-anchor="start" x="365" y="-912.4" font-family="Times Roman,serif" font-size="14.00">current_team_id :integer</text>
<text text-anchor="start" x="365" y="-894.4" font-family="Times Roman,serif" font-size="14.00">settings :text</text>
<text text-anchor="start" x="365" y="-876.4" font-family="Times Roman,serif" font-size="14.00">omniauth_info :text</text>
</g>
<!-- Team&#45;&gt;User -->
<g id="edge18" class="edge"><title>Team&#45;&gt;User</title>
<path fill="none" stroke="#319e0f" d="M634.084,-1345.12C632.086,-1338.61 630.048,-1331.98 627.982,-1325.26"/>
<polygon fill="#319e0f" stroke="#319e0f" points="634.089,-1345.13 632.725,-1356.01 635.558,-1349.91 637.026,-1354.69 637.026,-1354.69 637.026,-1354.69 635.558,-1349.91 641.328,-1353.37 634.089,-1345.13 634.089,-1345.13"/>
<polygon fill="#319e0f" stroke="#319e0f" points="627.873,-1324.9 629.237,-1314.02 626.404,-1320.12 624.935,-1315.34 624.935,-1315.34 624.935,-1315.34 626.404,-1320.12 620.634,-1316.66 627.873,-1324.9 627.873,-1324.9"/>
</g>
<!-- Team&#45;&gt;PaperTrail::Version -->
<g id="edge10" class="edge"><title>Team&#45;&gt;PaperTrail::Version</title>
<path fill="none" stroke="#197b0a" d="M832.493,-1354.19C832.662,-1354.13 832.831,-1354.06 833,-1354 894.938,-1330.92 1082.3,-1363.75 1128,-1316 1197.39,-1243.5 1147,-1191.36 1147,-1091 1147,-1091 1147,-1091 1147,-270 1147,-169.236 827.33,-108.657 664.694,-84.3578"/>
<ellipse fill="none" stroke="#197b0a" cx="828.614" cy="-1355.71" rx="4.00001" ry="4.00001"/>
<polygon fill="#197b0a" stroke="#197b0a" points="664.582,-84.3413 655.347,-78.4275 659.636,-83.6103 654.689,-82.8792 654.689,-82.8792 654.689,-82.8792 659.636,-83.6103 654.031,-87.3308 664.582,-84.3413 664.582,-84.3413"/>
<text text-anchor="middle" x="1176" y="-635.4" font-family="Times Roman,serif" font-size="14.00">versions</text>
</g>
<!-- Media -->
<g id="node16" class="node"><title>Media</title>
<polyline fill="none" stroke="black" points="239.5,-199 524.5,-199 "/>
<path fill="none" stroke="black" d="M524.5,-199C530.5,-199 536.5,-205 536.5,-211"/>
<polyline fill="none" stroke="black" points="536.5,-211 536.5,-329 "/>
<path fill="none" stroke="black" d="M536.5,-329C536.5,-335 530.5,-341 524.5,-341"/>
<polyline fill="none" stroke="black" points="524.5,-341 239.5,-341 "/>
<path fill="none" stroke="black" d="M239.5,-341C233.5,-341 227.5,-335 227.5,-329"/>
<polyline fill="none" stroke="black" points="227.5,-329 227.5,-211 "/>
<path fill="none" stroke="black" d="M227.5,-211C227.5,-205 233.5,-199 239.5,-199"/>
<text text-anchor="middle" x="382" y="-324.4" font-family="Times Roman,serif" font-size="14.00">Media</text>
<polyline fill="none" stroke="black" points="227.5,-315 536.5,-315 "/>
<text text-anchor="start" x="235.5" y="-298.4" font-family="Times Roman,serif" font-size="14.00">id :integer</text>
<text text-anchor="start" x="235.5" y="-280.4" font-family="Times Roman,serif" font-size="14.00">user_id :integer</text>
<text text-anchor="start" x="235.5" y="-262.4" font-family="Times Roman,serif" font-size="14.00">account_id :integer</text>
<text text-anchor="start" x="235.5" y="-244.4" font-family="Times Roman,serif" font-size="14.00">url :character varying</text>
<text text-anchor="start" x="235.5" y="-226.4" font-family="Times Roman,serif" font-size="14.00">created_at :timestamp without time zone</text>
<text text-anchor="start" x="235.5" y="-208.4" font-family="Times Roman,serif" font-size="14.00">updated_at :timestamp without time zone</text>
</g>
<!-- Account&#45;&gt;Media -->
<g id="edge24" class="edge"><title>Account&#45;&gt;Media</title>
<path fill="none" stroke="#3d31ad" d="M501.727,-417.454C483.549,-395.066 464.073,-371.079 446.222,-349.094"/>
<ellipse fill="none" stroke="#3d31ad" cx="504.357" cy="-420.693" rx="4.00002" ry="4.00002"/>
<polygon fill="#3d31ad" stroke="#3d31ad" points="446.028,-348.855 443.218,-338.255 442.876,-344.973 439.724,-341.092 439.724,-341.092 439.724,-341.092 442.876,-344.973 436.231,-343.928 446.028,-348.855 446.028,-348.855"/>
</g>
<!-- Account&#45;&gt;PaperTrail::Version -->
<g id="edge22" class="edge"><title>Account&#45;&gt;PaperTrail::Version</title>
<path fill="none" stroke="#5cbf84" d="M572,-415.45C572,-317.196 572,-164.166 572,-100.888"/>
<ellipse fill="none" stroke="#5cbf84" cx="572" cy="-419.757" rx="4" ry="4"/>
<polygon fill="#5cbf84" stroke="#5cbf84" points="572,-100.835 576.5,-90.8348 572,-95.8348 572,-90.8348 572,-90.8348 572,-90.8348 572,-95.8348 567.5,-90.8349 572,-100.835 572,-100.835"/>
<text text-anchor="middle" x="601" y="-266.4" font-family="Times Roman,serif" font-size="14.00">versions</text>
</g>
<!-- Project&#45;&gt;ProjectSource -->
<g id="edge28" class="edge"><title>Project&#45;&gt;ProjectSource</title>
<path fill="none" stroke="#687b09" d="M407.949,-396.459C408.3,-396.305 408.65,-396.152 409,-396 503.302,-354.974 536.388,-374.371 634,-342 640.029,-340.001 646.141,-337.874 652.289,-335.652"/>
<ellipse fill="none" stroke="#687b09" cx="404.229" cy="-398.144" rx="4.00002" ry="4.00002"/>
<polygon fill="#687b09" stroke="#687b09" points="652.586,-335.542 663.525,-336.309 657.277,-333.814 661.969,-332.086 661.969,-332.086 661.969,-332.086 657.277,-333.814 660.414,-327.863 652.586,-335.542 652.586,-335.542"/>
</g>
<!-- ProjectMedia -->
<g id="node15" class="node"><title>ProjectMedia</title>
<polyline fill="none" stroke="black" points="29.5,-1 314.5,-1 "/>
<path fill="none" stroke="black" d="M314.5,-1C320.5,-1 326.5,-7 326.5,-13"/>
<polyline fill="none" stroke="black" points="326.5,-13 326.5,-131 "/>
<path fill="none" stroke="black" d="M326.5,-131C326.5,-137 320.5,-143 314.5,-143"/>
<polyline fill="none" stroke="black" points="314.5,-143 29.5,-143 "/>
<path fill="none" stroke="black" d="M29.5,-143C23.5,-143 17.5,-137 17.5,-131"/>
<polyline fill="none" stroke="black" points="17.5,-131 17.5,-13 "/>
<path fill="none" stroke="black" d="M17.5,-13C17.5,-7 23.5,-1 29.5,-1"/>
<text text-anchor="middle" x="172" y="-126.4" font-family="Times Roman,serif" font-size="14.00">ProjectMedia</text>
<polyline fill="none" stroke="black" points="17.5,-117 326.5,-117 "/>
<text text-anchor="start" x="25.5" y="-100.4" font-family="Times Roman,serif" font-size="14.00">id :integer</text>
<text text-anchor="start" x="25.5" y="-82.4" font-family="Times Roman,serif" font-size="14.00">project_id :integer</text>
<text text-anchor="start" x="25.5" y="-64.4" font-family="Times Roman,serif" font-size="14.00">media_id :integer</text>
<text text-anchor="start" x="25.5" y="-46.4" font-family="Times Roman,serif" font-size="14.00">created_at :timestamp without time zone</text>
<text text-anchor="start" x="25.5" y="-28.4" font-family="Times Roman,serif" font-size="14.00">updated_at :timestamp without time zone</text>
<text text-anchor="start" x="25.5" y="-10.4" font-family="Times Roman,serif" font-size="14.00">user_id :integer</text>
</g>
<!-- Project&#45;&gt;ProjectMedia -->
<g id="edge30" class="edge"><title>Project&#45;&gt;ProjectMedia</title>
<path fill="none" stroke="#c4c01e" d="M144.345,-389.762C142.096,-385.871 139.973,-381.946 138,-378 102.814,-307.628 119.331,-217.018 139.727,-152.707"/>
<ellipse fill="none" stroke="#c4c01e" cx="146.466" cy="-393.299" rx="4.00002" ry="4.00002"/>
<polygon fill="#c4c01e" stroke="#c4c01e" points="139.787,-152.523 147.169,-144.414 141.339,-147.77 142.892,-143.017 142.892,-143.017 142.892,-143.017 141.339,-147.77 138.614,-141.62 139.787,-152.523 139.787,-152.523"/>
</g>
<!-- Project&#45;&gt;Media -->
<g id="edge32" class="edge"><title>Project&#45;&gt;Media</title>
<path fill="none" stroke="#9c19c8" d="M313.387,-388.055C320.866,-375.187 328.355,-362.301 335.492,-350.021"/>
<polygon fill="#9c19c8" stroke="#9c19c8" points="313.254,-388.284 304.338,-394.669 310.741,-392.607 308.229,-396.93 308.229,-396.93 308.229,-396.93 310.741,-392.607 312.119,-399.191 313.254,-388.284 313.254,-388.284"/>
<polygon fill="#9c19c8" stroke="#9c19c8" points="335.597,-349.841 344.512,-343.456 338.109,-345.518 340.622,-341.195 340.622,-341.195 340.622,-341.195 338.109,-345.518 336.731,-338.934 335.597,-349.841 335.597,-349.841"/>
</g>
<!-- Project&#45;&gt;PaperTrail::Version -->
<g id="edge26" class="edge"><title>Project&#45;&gt;PaperTrail::Version</title>
<path fill="none" stroke="#c731dd" d="M169.937,-389.396C139.381,-327.866 119.973,-253.49 161,-198 161.669,-197.095 395.225,-125.85 509.916,-90.9064"/>
<ellipse fill="none" stroke="#c731dd" cx="171.903" cy="-393.267" rx="4.00002" ry="4.00002"/>
<polygon fill="#c731dd" stroke="#c731dd" points="510.067,-90.8605 520.944,-92.2508 514.85,-89.4033 519.632,-87.9462 519.632,-87.9462 519.632,-87.9462 514.85,-89.4033 518.321,-83.6415 510.067,-90.8605 510.067,-90.8605"/>
<text text-anchor="middle" x="190" y="-266.4" font-family="Times Roman,serif" font-size="14.00">versions</text>
</g>
<!-- Media&#45;&gt;ProjectMedia -->
<g id="edge36" class="edge"><title>Media&#45;&gt;ProjectMedia</title>
<path fill="none" stroke="#277d34" d="M300.601,-193.252C285.601,-179.11 269.924,-164.328 254.881,-150.145"/>
<ellipse fill="none" stroke="#277d34" cx="303.571" cy="-196.053" rx="4.00002" ry="4.00002"/>
<polygon fill="#277d34" stroke="#277d34" points="254.829,-150.096 250.641,-139.962 251.191,-146.666 247.553,-143.236 247.553,-143.236 247.553,-143.236 251.191,-146.666 244.466,-146.51 254.829,-150.096 254.829,-150.096"/>
</g>
<!-- Media&#45;&gt;PaperTrail::Version -->
<g id="edge34" class="edge"><title>Media&#45;&gt;PaperTrail::Version</title>
<path fill="none" stroke="#0a07af" d="M456.041,-192.841C488.396,-159.124 524.164,-121.85 547.301,-97.7392"/>
<ellipse fill="none" stroke="#0a07af" cx="453.095" cy="-195.911" rx="4.00002" ry="4.00002"/>
<polygon fill="#0a07af" stroke="#0a07af" points="547.425,-97.6102 557.595,-93.5106 550.886,-94.0025 554.348,-90.3948 554.348,-90.3948 554.348,-90.3948 550.886,-94.0025 551.101,-87.2791 547.425,-97.6102 547.425,-97.6102"/>
<text text-anchor="middle" x="511" y="-167.4" font-family="Times Roman,serif" font-size="14.00">versions</text>
</g>
<!-- User&#45;&gt;Source -->
<g id="edge38" class="edge"><title>User&#45;&gt;Source</title>
<path fill="none" stroke="#7a13d2" d="M556,-858.797C556,-850.758 556,-842.919 556,-835.365"/>
<ellipse fill="none" stroke="#7a13d2" cx="556" cy="-862.832" rx="4" ry="4"/>
<ellipse fill="#7a13d2" stroke="#7a13d2" cx="556" cy="-831.283" rx="4" ry="4"/>
</g>
<!-- User&#45;&gt;Project -->
<g id="edge42" class="edge"><title>User&#45;&gt;Project</title>
<path fill="none" stroke="#8e2122" d="M410.476,-859.839C404.457,-849.144 398.603,-838.496 393,-828 357.098,-760.752 321.648,-683.042 294.557,-620.587"/>
<ellipse fill="none" stroke="#8e2122" cx="412.485" cy="-863.392" rx="4.00002" ry="4.00002"/>
<polygon fill="#8e2122" stroke="#8e2122" points="294.421,-620.272 294.583,-609.307 292.437,-615.682 290.453,-611.093 290.453,-611.093 290.453,-611.093 292.437,-615.682 286.322,-612.879 294.421,-620.272 294.421,-620.272"/>
</g>
<!-- User&#45;&gt;TeamUser -->
<g id="edge40" class="edge"><title>User&#45;&gt;TeamUser</title>
<path fill="none" stroke="#0bd0f3" d="M754.368,-860.894C759.258,-855.85 764.14,-850.879 769,-846 772.912,-842.073 776.952,-838.117 781.074,-834.162"/>
<ellipse fill="none" stroke="#0bd0f3" cx="751.402" cy="-863.968" rx="4.00002" ry="4.00002"/>
<polygon fill="#0bd0f3" stroke="#0bd0f3" points="781.315,-833.933 791.667,-830.316 784.942,-830.492 788.57,-827.051 788.57,-827.051 788.57,-827.051 784.942,-830.492 785.473,-823.787 781.315,-833.933 781.315,-833.933"/>
</g>
<!-- ApiKey -->
<g id="node18" class="node"><title>ApiKey</title>
<polyline fill="none" stroke="black" points="1179.5,-1391 1464.5,-1391 "/>
<path fill="none" stroke="black" d="M1464.5,-1391C1470.5,-1391 1476.5,-1397 1476.5,-1403"/>
<polyline fill="none" stroke="black" points="1476.5,-1403 1476.5,-1521 "/>
<path fill="none" stroke="black" d="M1476.5,-1521C1476.5,-1527 1470.5,-1533 1464.5,-1533"/>
<polyline fill="none" stroke="black" points="1464.5,-1533 1179.5,-1533 "/>
<path fill="none" stroke="black" d="M1179.5,-1533C1173.5,-1533 1167.5,-1527 1167.5,-1521"/>
<polyline fill="none" stroke="black" points="1167.5,-1521 1167.5,-1403 "/>
<path fill="none" stroke="black" d="M1167.5,-1403C1167.5,-1397 1173.5,-1391 1179.5,-1391"/>
<text text-anchor="middle" x="1322" y="-1516.4" font-family="Times Roman,serif" font-size="14.00">ApiKey</text>
<polyline fill="none" stroke="black" points="1167.5,-1507 1476.5,-1507 "/>
<text text-anchor="start" x="1175.5" y="-1490.4" font-family="Times Roman,serif" font-size="14.00">id :integer</text>
<text text-anchor="start" x="1175.5" y="-1472.4" font-family="Times Roman,serif" font-size="14.00">access_token :character varying</text>
<text text-anchor="start" x="1175.5" y="-1454.4" font-family="Times Roman,serif" font-size="14.00">expire_at :timestamp without time zone</text>
<text text-anchor="start" x="1175.5" y="-1436.4" font-family="Times Roman,serif" font-size="14.00">created_at :timestamp without time zone</text>
<text text-anchor="start" x="1175.5" y="-1418.4" font-family="Times Roman,serif" font-size="14.00">updated_at :timestamp without time zone</text>
<text text-anchor="start" x="1175.5" y="-1400.4" font-family="Times Roman,serif" font-size="14.00">application :character varying</text>
</g>
</g>
</svg>
