<?xml version="1.0" encoding="UTF-8" standalone="no"?>
<!DOCTYPE svg PUBLIC "-//W3C//DTD SVG 1.1//EN"
 "http://www.w3.org/Graphics/SVG/1.1/DTD/svg11.dtd">
<!-- Generated by graphviz version 2.26.3 (20100126.1600)
 -->
<!-- Title: models_diagram Pages: 1 -->
<svg width="728pt" height="474pt"
 viewBox="0.00 0.00 727.66 474.00" xmlns="http://www.w3.org/2000/svg" xmlns:xlink="http://www.w3.org/1999/xlink">
<g id="graph1" class="graph" transform="scale(1 1) rotate(0) translate(4 470)">
<title>models_diagram</title>
<polygon fill="none" stroke="none" points="-4,5 -4,-470 724.665,-470 724.665,5 -4,5"/>
<!-- Tag -->
<g id="node1" class="node"><title>Tag</title>
<ellipse fill="none" stroke="black" cx="28" cy="-447" rx="27.7881" ry="18.3848"/>
<text text-anchor="middle" x="28" y="-443.4" font-family="Times Roman,serif" font-size="14.00">Tag</text>
</g>
<!-- Status -->
<g id="node2" class="node"><title>Status</title>
<ellipse fill="none" stroke="black" cx="118" cy="-447" rx="43.8406" ry="18.3848"/>
<text text-anchor="middle" x="118" y="-443.4" font-family="Times Roman,serif" font-size="14.00">Status</text>
</g>
<!-- Comment -->
<g id="node3" class="node"><title>Comment</title>
<ellipse fill="none" stroke="black" cx="238" cy="-447" rx="58.1882" ry="18.3848"/>
<text text-anchor="middle" x="238" y="-443.4" font-family="Times Roman,serif" font-size="14.00">Comment</text>
</g>
<!-- Annotation -->
<g id="node4" class="node"><title>Annotation</title>
<ellipse fill="none" stroke="black" cx="380" cy="-447" rx="65.9683" ry="18.3848"/>
<text text-anchor="middle" x="380" y="-443.4" font-family="Times Roman,serif" font-size="14.00">Annotation</text>
</g>
<!-- Source -->
<g id="node5" class="node"><title>Source</title>
<ellipse fill="none" stroke="black" cx="387" cy="-295" rx="44.7575" ry="18.3848"/>
<text text-anchor="middle" x="387" y="-291.4" font-family="Times Roman,serif" font-size="14.00">Source</text>
</g>
<!-- ProjectSource -->
<g id="node7" class="node"><title>ProjectSource</title>
<ellipse fill="none" stroke="black" cx="537" cy="-111" rx="79.196" ry="18.3848"/>
<text text-anchor="middle" x="537" y="-107.4" font-family="Times Roman,serif" font-size="14.00">ProjectSource</text>
</g>
<!-- Source&#45;&gt;ProjectSource -->
<g id="edge6" class="edge"><title>Source&#45;&gt;ProjectSource</title>
<path fill="none" stroke="#af8668" d="M402.667,-270.277C409.024,-260.637 416.603,-249.615 424,-240 452.793,-202.576 489.279,-162.012 512.876,-136.562"/>
<ellipse fill="none" stroke="#af8668" cx="400.459" cy="-273.662" rx="4.00002" ry="4.00002"/>
<polygon fill="#af8668" stroke="#af8668" points="512.947,-136.486 523.056,-132.236 516.355,-132.827 519.763,-129.169 519.763,-129.169 519.763,-129.169 516.355,-132.827 516.47,-126.101 512.947,-136.486 512.947,-136.486"/>
</g>
<!-- Account -->
<g id="node8" class="node"><title>Account</title>
<ellipse fill="none" stroke="black" cx="331" cy="-203" rx="50.9117" ry="18.3848"/>
<text text-anchor="middle" x="331" y="-199.4" font-family="Times Roman,serif" font-size="14.00">Account</text>
</g>
<!-- Source&#45;&gt;Account -->
<g id="edge4" class="edge"><title>Source&#45;&gt;Account</title>
<path fill="none" stroke="#507f35" d="M371.555,-269.626C364.022,-257.251 354.961,-242.364 347.315,-229.804"/>
<ellipse fill="none" stroke="#507f35" cx="373.856" cy="-273.407" rx="4.00002" ry="4.00002"/>
<polygon fill="#507f35" stroke="#507f35" points="347.24,-229.68 345.885,-218.799 344.641,-225.409 342.041,-221.138 342.041,-221.138 342.041,-221.138 344.641,-225.409 338.197,-223.478 347.24,-229.68 347.24,-229.68"/>
</g>
<!-- Project -->
<g id="node9" class="node"><title>Project</title>
<ellipse fill="none" stroke="black" cx="537" cy="-203" rx="45.9619" ry="18.3848"/>
<text text-anchor="middle" x="537" y="-199.4" font-family="Times Roman,serif" font-size="14.00">Project</text>
</g>
<!-- Source&#45;&gt;Project -->
<g id="edge8" class="edge"><title>Source&#45;&gt;Project</title>
<path fill="none" stroke="#55f2ca" d="M410.88,-270.479C421.826,-260.155 435.38,-248.574 449,-240 462.219,-231.679 477.633,-224.469 491.833,-218.681"/>
<polygon fill="#55f2ca" stroke="#55f2ca" points="410.592,-270.757 400.277,-274.48 407,-274.235 403.407,-277.713 403.407,-277.713 403.407,-277.713 407,-274.235 406.537,-280.946 410.592,-270.757 410.592,-270.757"/>
<polygon fill="#55f2ca" stroke="#55f2ca" points="492.123,-218.567 503.076,-219.092 496.776,-216.736 501.428,-214.905 501.428,-214.905 501.428,-214.905 496.776,-216.736 499.78,-210.717 492.123,-218.567 492.123,-218.567"/>
</g>
<!-- PaperTrail::Version -->
<g id="node16" class="node"><title>PaperTrail::Version</title>
<ellipse fill="none" stroke="black" cx="284" cy="-19" rx="101.823" ry="18.3848"/>
<text text-anchor="middle" x="284" y="-15.4" font-family="Times Roman,serif" font-size="14.00">PaperTrail::Version</text>
</g>
<!-- Source&#45;&gt;PaperTrail::Version -->
<g id="edge2" class="edge"><title>Source&#45;&gt;PaperTrail::Version</title>
<path fill="none" stroke="#482db2" d="M348.058,-277.688C308.859,-257.529 252.097,-219.957 237,-166 225.209,-123.858 247.593,-75.6554 265.345,-46.278"/>
<ellipse fill="none" stroke="#482db2" cx="352.069" cy="-279.697" rx="4.00002" ry="4.00002"/>
<polygon fill="#482db2" stroke="#482db2" points="265.581,-45.9028 274.708,-39.8253 268.239,-41.6679 270.897,-37.433 270.897,-37.433 270.897,-37.433 268.239,-41.6679 267.085,-35.0406 265.581,-45.9028 265.581,-45.9028"/>
<text text-anchor="middle" x="266" y="-153.4" font-family="Times Roman,serif" font-size="14.00">versions</text>
</g>
<!-- Team -->
<g id="node6" class="node"><title>Team</title>
<ellipse fill="none" stroke="black" cx="501" cy="-447" rx="36.977" ry="18.3848"/>
<text text-anchor="middle" x="501" y="-443.4" font-family="Times Roman,serif" font-size="14.00">Team</text>
</g>
<!-- Team&#45;&gt;Project -->
<g id="edge12" class="edge"><title>Team&#45;&gt;Project</title>
<path fill="none" stroke="#1905f3" d="M527.953,-425.879C555.847,-402.135 597.71,-360.738 615,-314 620.86,-298.16 621.72,-291.494 615,-276 605.95,-255.135 587.673,-237.509 571.086,-224.807"/>
<ellipse fill="none" stroke="#1905f3" cx="524.602" cy="-428.679" rx="4.00002" ry="4.00002"/>
<polygon fill="#1905f3" stroke="#1905f3" points="570.697,-224.523 565.278,-214.989 566.66,-221.572 562.623,-218.622 562.623,-218.622 562.623,-218.622 566.66,-221.572 559.968,-222.255 570.697,-224.523 570.697,-224.523"/>
</g>
<!-- TeamUser -->
<g id="node10" class="node"><title>TeamUser</title>
<ellipse fill="none" stroke="black" cx="547" cy="-295" rx="58.8978" ry="18.3848"/>
<text text-anchor="middle" x="547" y="-291.4" font-family="Times Roman,serif" font-size="14.00">TeamUser</text>
</g>
<!-- Team&#45;&gt;TeamUser -->
<g id="edge14" class="edge"><title>Team&#45;&gt;TeamUser</title>
<path fill="none" stroke="#a9ea10" d="M508.87,-420.994C517.077,-393.876 529.902,-351.497 538.378,-323.49"/>
<ellipse fill="none" stroke="#a9ea10" cx="507.707" cy="-424.837" rx="4.00001" ry="4.00001"/>
<polygon fill="#a9ea10" stroke="#a9ea10" points="538.391,-323.448 545.594,-315.18 539.839,-318.662 541.287,-313.877 541.287,-313.877 541.287,-313.877 539.839,-318.662 536.98,-312.573 538.391,-323.448 538.391,-323.448"/>
</g>
<!-- User -->
<g id="node13" class="node"><title>User</title>
<ellipse fill="none" stroke="black" cx="467" cy="-371" rx="33.9411" ry="18.3848"/>
<text text-anchor="middle" x="467" y="-367.4" font-family="Times Roman,serif" font-size="14.00">User</text>
</g>
<!-- Team&#45;&gt;User -->
<g id="edge16" class="edge"><title>Team&#45;&gt;User</title>
<path fill="none" stroke="#e4194e" d="M488.651,-419.396C485.632,-412.647 482.401,-405.425 479.38,-398.673"/>
<polygon fill="#e4194e" stroke="#e4194e" points="488.686,-419.474 488.662,-430.44 490.728,-424.038 492.77,-428.603 492.77,-428.603 492.77,-428.603 490.728,-424.038 496.877,-426.765 488.686,-419.474 488.686,-419.474"/>
<polygon fill="#e4194e" stroke="#e4194e" points="479.238,-398.356 479.262,-387.39 477.197,-393.792 475.155,-389.228 475.155,-389.228 475.155,-389.228 477.197,-393.792 471.047,-391.066 479.238,-398.356 479.238,-398.356"/>
</g>
<!-- Team&#45;&gt;PaperTrail::Version -->
<g id="edge10" class="edge"><title>Team&#45;&gt;PaperTrail::Version</title>
<path fill="none" stroke="#deca78" d="M465.497,-431.528C461.983,-430.241 458.443,-429.038 455,-428 392.119,-409.038 165,-436.677 165,-371 165,-371 165,-371 165,-111 165,-77.2763 195.283,-54.1651 225.295,-39.5412"/>
<ellipse fill="none" stroke="#deca78" cx="469.366" cy="-433.013" rx="4.00001" ry="4.00001"/>
<polygon fill="#deca78" stroke="#deca78" points="225.483,-39.4546 236.449,-39.3605 230.025,-37.3637 234.567,-35.2728 234.567,-35.2728 234.567,-35.2728 230.025,-37.3637 232.685,-31.1852 225.483,-39.4546 225.483,-39.4546"/>
<text text-anchor="middle" x="194" y="-245.4" font-family="Times Roman,serif" font-size="14.00">versions</text>
</g>
<!-- Media -->
<g id="node12" class="node"><title>Media</title>
<ellipse fill="none" stroke="black" cx="400" cy="-111" rx="39.8075" ry="18.3848"/>
<text text-anchor="middle" x="400" y="-107.4" font-family="Times Roman,serif" font-size="14.00">Media</text>
</g>
<!-- Account&#45;&gt;Media -->
<g id="edge20" class="edge"><title>Account&#45;&gt;Media</title>
<path fill="none" stroke="#96c097" d="M349.469,-178.375C359.146,-165.472 370.987,-149.684 380.773,-136.636"/>
<ellipse fill="none" stroke="#96c097" cx="347.032" cy="-181.624" rx="4.00002" ry="4.00002"/>
<polygon fill="#96c097" stroke="#96c097" points="380.864,-136.514 390.464,-131.214 383.864,-132.514 386.864,-128.514 386.864,-128.514 386.864,-128.514 383.864,-132.514 383.264,-125.814 380.864,-136.514 380.864,-136.514"/>
</g>
<!-- Account&#45;&gt;PaperTrail::Version -->
<g id="edge18" class="edge"><title>Account&#45;&gt;PaperTrail::Version</title>
<path fill="none" stroke="#d6567c" d="M314.698,-177.818C306.731,-164.213 297.838,-146.798 293,-130 285.193,-102.894 283.361,-70.6326 283.23,-47.895"/>
<ellipse fill="none" stroke="#d6567c" cx="316.933" cy="-181.531" rx="4.00002" ry="4.00002"/>
<polygon fill="#d6567c" stroke="#d6567c" points="283.23,-47.8669 287.778,-37.8889 283.254,-42.867 283.279,-37.8671 283.279,-37.8671 283.279,-37.8671 283.254,-42.867 278.779,-37.8453 283.23,-47.8669 283.23,-47.8669"/>
<text text-anchor="middle" x="322" y="-107.4" font-family="Times Roman,serif" font-size="14.00">versions</text>
</g>
<!-- Project&#45;&gt;ProjectSource -->
<g id="edge24" class="edge"><title>Project&#45;&gt;ProjectSource</title>
<path fill="none" stroke="#421a81" d="M537,-176.029C537,-164.599 537,-151.267 537,-139.66"/>
<ellipse fill="none" stroke="#421a81" cx="537" cy="-180.382" rx="4" ry="4"/>
<polygon fill="#421a81" stroke="#421a81" points="537,-139.59 541.5,-129.59 537,-134.59 537,-129.59 537,-129.59 537,-129.59 537,-134.59 532.5,-129.59 537,-139.59 537,-139.59"/>
</g>
<!-- ProjectMedia -->
<g id="node11" class="node"><title>ProjectMedia</title>
<ellipse fill="none" stroke="black" cx="608" cy="-19" rx="74.2462" ry="18.3848"/>
<text text-anchor="middle" x="608" y="-15.4" font-family="Times Roman,serif" font-size="14.00">ProjectMedia</text>
</g>
<!-- Project&#45;&gt;ProjectMedia -->
<g id="edge26" class="edge"><title>Project&#45;&gt;ProjectMedia</title>
<path fill="none" stroke="#c2512f" d="M586.614,-193.241C611.275,-187.29 641.057,-178.402 666,-166 689.878,-154.128 702.074,-153.851 714,-130 721.553,-114.894 721.553,-107.106 714,-92 702.231,-68.4622 678.856,-51.1313 657.045,-39.2781"/>
<ellipse fill="none" stroke="#c2512f" cx="582.695" cy="-194.159" rx="4.00001" ry="4.00001"/>
<polygon fill="#c2512f" stroke="#c2512f" points="657.039,-39.2752 650.217,-30.69 652.596,-36.982 648.153,-34.6888 648.153,-34.6888 648.153,-34.6888 652.596,-36.982 646.089,-38.6876 657.039,-39.2752 657.039,-39.2752"/>
</g>
<!-- Project&#45;&gt;Media -->
<g id="edge28" class="edge"><title>Project&#45;&gt;Media</title>
<path fill="none" stroke="#23f428" d="M504.686,-181.3C482.566,-166.446 453.384,-146.849 431.451,-132.121"/>
<polygon fill="#23f428" stroke="#23f428" points="504.835,-181.4 510.628,-190.711 508.986,-184.187 513.136,-186.975 513.136,-186.975 513.136,-186.975 508.986,-184.187 515.645,-183.239 504.835,-181.4 504.835,-181.4"/>
<polygon fill="#23f428" stroke="#23f428" points="431.435,-132.11 425.642,-122.799 427.285,-129.322 423.134,-126.535 423.134,-126.535 423.134,-126.535 427.285,-129.322 420.625,-130.271 431.435,-132.11 431.435,-132.11"/>
</g>
<!-- Project&#45;&gt;PaperTrail::Version -->
<g id="edge22" class="edge"><title>Project&#45;&gt;PaperTrail::Version</title>
<path fill="none" stroke="#7e6679" d="M571.387,-183.331C605.949,-161.073 650.695,-123.778 625,-92 595.585,-55.6217 477.412,-36.5617 388.364,-27.1679"/>
<ellipse fill="none" stroke="#7e6679" cx="567.583" cy="-185.719" rx="4.00002" ry="4.00002"/>
<polygon fill="#7e6679" stroke="#7e6679" points="388.153,-27.1462 378.665,-21.648 383.179,-26.6353 378.205,-26.1244 378.205,-26.1244 378.205,-26.1244 383.179,-26.6353 377.745,-30.6009 388.153,-27.1462 388.153,-27.1462"/>
<text text-anchor="middle" x="661" y="-107.4" font-family="Times Roman,serif" font-size="14.00">versions</text>
</g>
<!-- Media&#45;&gt;ProjectMedia -->
<g id="edge32" class="edge"><title>Media&#45;&gt;ProjectMedia</title>
<path fill="none" stroke="#e6b790" d="M436.674,-94.7787C471.603,-79.3294 524.301,-56.0206 562.023,-39.3362"/>
<ellipse fill="none" stroke="#e6b790" cx="432.58" cy="-96.5897" rx="4.00002" ry="4.00002"/>
<polygon fill="#e6b790" stroke="#e6b790" points="562.125,-39.291 573.09,-39.3613 566.697,-37.2684 571.27,-35.2459 571.27,-35.2459 571.27,-35.2459 566.697,-37.2684 569.45,-31.1305 562.125,-39.291 562.125,-39.291"/>
</g>
<!-- Media&#45;&gt;PaperTrail::Version -->
<g id="edge30" class="edge"><title>Media&#45;&gt;PaperTrail::Version</title>
<path fill="none" stroke="#fa7daf" d="M373.265,-89.7964C355.81,-75.9526 332.966,-57.8351 314.757,-43.3939"/>
<ellipse fill="none" stroke="#fa7daf" cx="376.66" cy="-92.4892" rx="4.00002" ry="4.00002"/>
<polygon fill="#fa7daf" stroke="#fa7daf" points="314.589,-43.2599 309.55,-33.5202 310.671,-40.1529 306.754,-37.0459 306.754,-37.0459 306.754,-37.0459 310.671,-40.1529 303.957,-40.5717 314.589,-43.2599 314.589,-43.2599"/>
<text text-anchor="middle" x="381" y="-61.4" font-family="Times Roman,serif" font-size="14.00">versions</text>
</g>
<!-- User&#45;&gt;Source -->
<g id="edge34" class="edge"><title>User&#45;&gt;Source</title>
<path fill="none" stroke="#c1eb0a" d="M444.187,-349.328C433.811,-339.471 421.53,-327.804 411.014,-317.813"/>
<ellipse fill="none" stroke="#c1eb0a" cx="447.134" cy="-352.127" rx="4.00002" ry="4.00002"/>
<ellipse fill="#c1eb0a" stroke="#c1eb0a" cx="407.953" cy="-314.906" rx="4.00002" ry="4.00002"/>
</g>
<!-- User&#45;&gt;Project -->
<g id="edge38" class="edge"><title>User&#45;&gt;Project</title>
<path fill="none" stroke="#33c9a6" d="M466.57,-344.2C467.15,-324.602 469.84,-297.755 479,-276 486.614,-257.917 500.02,-240.593 512.027,-227.362"/>
<ellipse fill="none" stroke="#33c9a6" cx="466.502" cy="-348.385" rx="4" ry="4"/>
<polygon fill="#33c9a6" stroke="#33c9a6" points="512.032,-227.357 522.159,-223.153 515.456,-223.714 518.88,-220.071 518.88,-220.071 518.88,-220.071 515.456,-223.714 515.601,-216.989 512.032,-227.357 512.032,-227.357"/>
</g>
<!-- User&#45;&gt;TeamUser -->
<g id="edge36" class="edge"><title>User&#45;&gt;TeamUser</title>
<path fill="none" stroke="#322511" d="M490.062,-349.091C499.755,-339.882 511.076,-329.127 521.059,-319.644"/>
<ellipse fill="none" stroke="#322511" cx="486.866" cy="-352.127" rx="4.00002" ry="4.00002"/>
<polygon fill="#322511" stroke="#322511" points="521.132,-319.574 531.482,-315.949 524.757,-316.131 528.382,-312.687 528.382,-312.687 528.382,-312.687 524.757,-316.131 525.283,-309.424 521.132,-319.574 521.132,-319.574"/>
</g>
<!-- ApiKey -->
<g id="node14" class="node"><title>ApiKey</title>
<ellipse fill="none" stroke="black" cx="600" cy="-447" rx="44.0472" ry="18.3848"/>
<text text-anchor="middle" x="600" y="-443.4" font-family="Times Roman,serif" font-size="14.00">ApiKey</text>
</g>
</g>
</svg>
