<?xml version="1.0" encoding="UTF-8" standalone="no"?>
<!DOCTYPE svg PUBLIC "-//W3C//DTD SVG 1.1//EN"
 "http://www.w3.org/Graphics/SVG/1.1/DTD/svg11.dtd">
<!-- Generated by graphviz version 2.26.3 (20100126.1600)
 -->
<!-- Title: models_diagram Pages: 1 -->
<svg width="1235pt" height="836pt"
 viewBox="0.00 0.00 1235.00 836.00" xmlns="http://www.w3.org/2000/svg" xmlns:xlink="http://www.w3.org/1999/xlink">
<g id="graph1" class="graph" transform="scale(1 1) rotate(0) translate(4 832)">
<title>models_diagram</title>
<polygon fill="none" stroke="none" points="-4,5 -4,-832 1232,-832 1232,5 -4,5"/>
<!-- Comment -->
<g id="node1" class="node"><title>Comment</title>
<polyline fill="none" stroke="black" points="12,-631 170,-631 "/>
<path fill="none" stroke="black" d="M170,-631C176,-631 182,-637 182,-643"/>
<polyline fill="none" stroke="black" points="182,-643 182,-815 "/>
<path fill="none" stroke="black" d="M182,-815C182,-821 176,-827 170,-827"/>
<polyline fill="none" stroke="black" points="170,-827 12,-827 "/>
<path fill="none" stroke="black" d="M12,-827C6,-827 0,-821 0,-815"/>
<polyline fill="none" stroke="black" points="0,-815 0,-643 "/>
<path fill="none" stroke="black" d="M0,-643C0,-637 6,-631 12,-631"/>
<text text-anchor="middle" x="91" y="-810.4" font-family="Times Roman,serif" font-size="14.00">Comment</text>
<polyline fill="none" stroke="black" points="0,-801 182,-801 "/>
<text text-anchor="start" x="8" y="-784.4" font-family="Times Roman,serif" font-size="14.00">created_at :Time</text>
<text text-anchor="start" x="8" y="-766.4" font-family="Times Roman,serif" font-size="14.00">updated_at :Time</text>
<text text-anchor="start" x="8" y="-748.4" font-family="Times Roman,serif" font-size="14.00">annotation_type :String</text>
<text text-anchor="start" x="8" y="-730.4" font-family="Times Roman,serif" font-size="14.00">version_index :Integer</text>
<text text-anchor="start" x="8" y="-712.4" font-family="Times Roman,serif" font-size="14.00">annotated_type :String</text>
<text text-anchor="start" x="8" y="-694.4" font-family="Times Roman,serif" font-size="14.00">annotated_id :String</text>
<text text-anchor="start" x="8" y="-676.4" font-family="Times Roman,serif" font-size="14.00">context_type :String</text>
<text text-anchor="start" x="8" y="-658.4" font-family="Times Roman,serif" font-size="14.00">context_id :String</text>
<text text-anchor="start" x="8" y="-640.4" font-family="Times Roman,serif" font-size="14.00">text :String</text>
</g>
<!-- Annotation -->
<g id="node2" class="node"><title>Annotation</title>
<polyline fill="none" stroke="black" points="212,-640 370,-640 "/>
<path fill="none" stroke="black" d="M370,-640C376,-640 382,-646 382,-652"/>
<polyline fill="none" stroke="black" points="382,-652 382,-806 "/>
<path fill="none" stroke="black" d="M382,-806C382,-812 376,-818 370,-818"/>
<polyline fill="none" stroke="black" points="370,-818 212,-818 "/>
<path fill="none" stroke="black" d="M212,-818C206,-818 200,-812 200,-806"/>
<polyline fill="none" stroke="black" points="200,-806 200,-652 "/>
<path fill="none" stroke="black" d="M200,-652C200,-646 206,-640 212,-640"/>
<text text-anchor="middle" x="291" y="-801.4" font-family="Times Roman,serif" font-size="14.00">Annotation</text>
<polyline fill="none" stroke="black" points="200,-792 382,-792 "/>
<text text-anchor="start" x="208" y="-775.4" font-family="Times Roman,serif" font-size="14.00">created_at :Time</text>
<text text-anchor="start" x="208" y="-757.4" font-family="Times Roman,serif" font-size="14.00">updated_at :Time</text>
<text text-anchor="start" x="208" y="-739.4" font-family="Times Roman,serif" font-size="14.00">annotation_type :String</text>
<text text-anchor="start" x="208" y="-721.4" font-family="Times Roman,serif" font-size="14.00">version_index :Integer</text>
<text text-anchor="start" x="208" y="-703.4" font-family="Times Roman,serif" font-size="14.00">annotated_type :String</text>
<text text-anchor="start" x="208" y="-685.4" font-family="Times Roman,serif" font-size="14.00">annotated_id :String</text>
<text text-anchor="start" x="208" y="-667.4" font-family="Times Roman,serif" font-size="14.00">context_type :String</text>
<text text-anchor="start" x="208" y="-649.4" font-family="Times Roman,serif" font-size="14.00">context_id :String</text>
</g>
<!-- Source -->
<g id="node3" class="node"><title>Source</title>
<polyline fill="none" stroke="black" points="411.5,-658 552.5,-658 "/>
<path fill="none" stroke="black" d="M552.5,-658C558.5,-658 564.5,-664 564.5,-670"/>
<polyline fill="none" stroke="black" points="564.5,-670 564.5,-788 "/>
<path fill="none" stroke="black" d="M564.5,-788C564.5,-794 558.5,-800 552.5,-800"/>
<polyline fill="none" stroke="black" points="552.5,-800 411.5,-800 "/>
<path fill="none" stroke="black" d="M411.5,-800C405.5,-800 399.5,-794 399.5,-788"/>
<polyline fill="none" stroke="black" points="399.5,-788 399.5,-670 "/>
<path fill="none" stroke="black" d="M399.5,-670C399.5,-664 405.5,-658 411.5,-658"/>
<text text-anchor="middle" x="482" y="-783.4" font-family="Times Roman,serif" font-size="14.00">Source</text>
<polyline fill="none" stroke="black" points="399.5,-774 564.5,-774 "/>
<text text-anchor="start" x="407.5" y="-757.4" font-family="Times Roman,serif" font-size="14.00">id :INTEGER</text>
<text text-anchor="start" x="407.5" y="-739.4" font-family="Times Roman,serif" font-size="14.00">name :varchar</text>
<text text-anchor="start" x="407.5" y="-721.4" font-family="Times Roman,serif" font-size="14.00">slogan :varchar</text>
<text text-anchor="start" x="407.5" y="-703.4" font-family="Times Roman,serif" font-size="14.00">avatar :varchar</text>
<text text-anchor="start" x="407.5" y="-685.4" font-family="Times Roman,serif" font-size="14.00">created_at :datetime</text>
<text text-anchor="start" x="407.5" y="-667.4" font-family="Times Roman,serif" font-size="14.00">updated_at :datetime</text>
</g>
<!-- ProjectSource -->
<g id="node5" class="node"><title>ProjectSource</title>
<polyline fill="none" stroke="black" points="356.5,-28 497.5,-28 "/>
<path fill="none" stroke="black" d="M497.5,-28C503.5,-28 509.5,-34 509.5,-40"/>
<polyline fill="none" stroke="black" points="509.5,-40 509.5,-140 "/>
<path fill="none" stroke="black" d="M509.5,-140C509.5,-146 503.5,-152 497.5,-152"/>
<polyline fill="none" stroke="black" points="497.5,-152 356.5,-152 "/>
<path fill="none" stroke="black" d="M356.5,-152C350.5,-152 344.5,-146 344.5,-140"/>
<polyline fill="none" stroke="black" points="344.5,-140 344.5,-40 "/>
<path fill="none" stroke="black" d="M344.5,-40C344.5,-34 350.5,-28 356.5,-28"/>
<text text-anchor="middle" x="427" y="-135.4" font-family="Times Roman,serif" font-size="14.00">ProjectSource</text>
<polyline fill="none" stroke="black" points="344.5,-126 509.5,-126 "/>
<text text-anchor="start" x="352.5" y="-109.4" font-family="Times Roman,serif" font-size="14.00">id :INTEGER</text>
<text text-anchor="start" x="352.5" y="-91.4" font-family="Times Roman,serif" font-size="14.00">project_id :integer</text>
<text text-anchor="start" x="352.5" y="-73.4" font-family="Times Roman,serif" font-size="14.00">source_id :integer</text>
<text text-anchor="start" x="352.5" y="-55.4" font-family="Times Roman,serif" font-size="14.00">created_at :datetime</text>
<text text-anchor="start" x="352.5" y="-37.4" font-family="Times Roman,serif" font-size="14.00">updated_at :datetime</text>
</g>
<!-- Source&#45;&gt;ProjectSource -->
<g id="edge4" class="edge"><title>Source&#45;&gt;ProjectSource</title>
<path fill="none" stroke="#6c5d19" d="M418.145,-650.8C406.974,-633.1 397.016,-613.687 391,-594 341.906,-433.333 367.698,-382.376 391,-216 393.48,-198.296 397.829,-179.589 402.666,-162.163"/>
<ellipse fill="none" stroke="#6c5d19" cx="420.476" cy="-654.398" rx="4.00002" ry="4.00002"/>
<polygon fill="#6c5d19" stroke="#6c5d19" points="402.804,-161.681 409.886,-153.308 404.182,-156.875 405.56,-152.068 405.56,-152.068 405.56,-152.068 404.182,-156.875 401.234,-150.828 402.804,-161.681 402.804,-161.681"/>
</g>
<!-- Account -->
<g id="node6" class="node"><title>Account</title>
<polyline fill="none" stroke="black" points="593.5,-325 734.5,-325 "/>
<path fill="none" stroke="black" d="M734.5,-325C740.5,-325 746.5,-331 746.5,-337"/>
<polyline fill="none" stroke="black" points="746.5,-337 746.5,-473 "/>
<path fill="none" stroke="black" d="M746.5,-473C746.5,-479 740.5,-485 734.5,-485"/>
<polyline fill="none" stroke="black" points="734.5,-485 593.5,-485 "/>
<path fill="none" stroke="black" d="M593.5,-485C587.5,-485 581.5,-479 581.5,-473"/>
<polyline fill="none" stroke="black" points="581.5,-473 581.5,-337 "/>
<path fill="none" stroke="black" d="M581.5,-337C581.5,-331 587.5,-325 593.5,-325"/>
<text text-anchor="middle" x="664" y="-468.4" font-family="Times Roman,serif" font-size="14.00">Account</text>
<polyline fill="none" stroke="black" points="581.5,-459 746.5,-459 "/>
<text text-anchor="start" x="589.5" y="-442.4" font-family="Times Roman,serif" font-size="14.00">id :INTEGER</text>
<text text-anchor="start" x="589.5" y="-424.4" font-family="Times Roman,serif" font-size="14.00">user_id :integer</text>
<text text-anchor="start" x="589.5" y="-406.4" font-family="Times Roman,serif" font-size="14.00">source_id :integer</text>
<text text-anchor="start" x="589.5" y="-388.4" font-family="Times Roman,serif" font-size="14.00">url :varchar</text>
<text text-anchor="start" x="589.5" y="-370.4" font-family="Times Roman,serif" font-size="14.00">data :text</text>
<text text-anchor="start" x="589.5" y="-352.4" font-family="Times Roman,serif" font-size="14.00">created_at :datetime</text>
<text text-anchor="start" x="589.5" y="-334.4" font-family="Times Roman,serif" font-size="14.00">updated_at :datetime</text>
</g>
<!-- Source&#45;&gt;Account -->
<g id="edge2" class="edge"><title>Source&#45;&gt;Account</title>
<path fill="none" stroke="#461ef8" d="M537.349,-651.009C549.607,-632.632 562.163,-612.887 573,-594 591.146,-562.376 609.016,-526.58 624.052,-494.712"/>
<ellipse fill="none" stroke="#461ef8" cx="535.079" cy="-654.392" rx="4.00002" ry="4.00002"/>
<polygon fill="#461ef8" stroke="#461ef8" points="624.174,-494.452 632.494,-487.308 626.297,-489.925 628.419,-485.398 628.419,-485.398 628.419,-485.398 626.297,-489.925 624.345,-483.488 624.174,-494.452 624.174,-494.452"/>
</g>
<!-- Project -->
<g id="node7" class="node"><title>Project</title>
<polyline fill="none" stroke="black" points="411.5,-325 552.5,-325 "/>
<path fill="none" stroke="black" d="M552.5,-325C558.5,-325 564.5,-331 564.5,-337"/>
<polyline fill="none" stroke="black" points="564.5,-337 564.5,-473 "/>
<path fill="none" stroke="black" d="M564.5,-473C564.5,-479 558.5,-485 552.5,-485"/>
<polyline fill="none" stroke="black" points="552.5,-485 411.5,-485 "/>
<path fill="none" stroke="black" d="M411.5,-485C405.5,-485 399.5,-479 399.5,-473"/>
<polyline fill="none" stroke="black" points="399.5,-473 399.5,-337 "/>
<path fill="none" stroke="black" d="M399.5,-337C399.5,-331 405.5,-325 411.5,-325"/>
<text text-anchor="middle" x="482" y="-468.4" font-family="Times Roman,serif" font-size="14.00">Project</text>
<polyline fill="none" stroke="black" points="399.5,-459 564.5,-459 "/>
<text text-anchor="start" x="407.5" y="-442.4" font-family="Times Roman,serif" font-size="14.00">id :INTEGER</text>
<text text-anchor="start" x="407.5" y="-424.4" font-family="Times Roman,serif" font-size="14.00">user_id :integer</text>
<text text-anchor="start" x="407.5" y="-406.4" font-family="Times Roman,serif" font-size="14.00">title :varchar</text>
<text text-anchor="start" x="407.5" y="-388.4" font-family="Times Roman,serif" font-size="14.00">description :text</text>
<text text-anchor="start" x="407.5" y="-370.4" font-family="Times Roman,serif" font-size="14.00">lead_image :varchar</text>
<text text-anchor="start" x="407.5" y="-352.4" font-family="Times Roman,serif" font-size="14.00">created_at :datetime</text>
<text text-anchor="start" x="407.5" y="-334.4" font-family="Times Roman,serif" font-size="14.00">updated_at :datetime</text>
</g>
<!-- Source&#45;&gt;Project -->
<g id="edge6" class="edge"><title>Source&#45;&gt;Project</title>
<path fill="none" stroke="#4290cf" d="M482,-647.815C482,-601.353 482,-542.969 482,-495.096"/>
<polygon fill="#4290cf" stroke="#4290cf" points="482,-647.897 477.5,-657.897 482,-652.897 482,-657.897 482,-657.897 482,-657.897 482,-652.897 486.5,-657.897 482,-647.897 482,-647.897"/>
<polygon fill="#4290cf" stroke="#4290cf" points="482,-495.048 486.5,-485.048 482,-490.048 482,-485.048 482,-485.048 482,-485.048 482,-490.048 477.5,-485.048 482,-495.048 482,-495.048"/>
</g>
<!-- Team -->
<g id="node4" class="node"><title>Team</title>
<polyline fill="none" stroke="black" points="888.5,-658 1029.5,-658 "/>
<path fill="none" stroke="black" d="M1029.5,-658C1035.5,-658 1041.5,-664 1041.5,-670"/>
<polyline fill="none" stroke="black" points="1041.5,-670 1041.5,-788 "/>
<path fill="none" stroke="black" d="M1041.5,-788C1041.5,-794 1035.5,-800 1029.5,-800"/>
<polyline fill="none" stroke="black" points="1029.5,-800 888.5,-800 "/>
<path fill="none" stroke="black" d="M888.5,-800C882.5,-800 876.5,-794 876.5,-788"/>
<polyline fill="none" stroke="black" points="876.5,-788 876.5,-670 "/>
<path fill="none" stroke="black" d="M876.5,-670C876.5,-664 882.5,-658 888.5,-658"/>
<text text-anchor="middle" x="959" y="-783.4" font-family="Times Roman,serif" font-size="14.00">Team</text>
<polyline fill="none" stroke="black" points="876.5,-774 1041.5,-774 "/>
<text text-anchor="start" x="884.5" y="-757.4" font-family="Times Roman,serif" font-size="14.00">id :INTEGER</text>
<text text-anchor="start" x="884.5" y="-739.4" font-family="Times Roman,serif" font-size="14.00">name :varchar</text>
<text text-anchor="start" x="884.5" y="-721.4" font-family="Times Roman,serif" font-size="14.00">logo :varchar</text>
<text text-anchor="start" x="884.5" y="-703.4" font-family="Times Roman,serif" font-size="14.00">archived :boolean</text>
<text text-anchor="start" x="884.5" y="-685.4" font-family="Times Roman,serif" font-size="14.00">created_at :datetime</text>
<text text-anchor="start" x="884.5" y="-667.4" font-family="Times Roman,serif" font-size="14.00">updated_at :datetime</text>
</g>
<!-- TeamUser -->
<g id="node8" class="node"><title>TeamUser</title>
<polyline fill="none" stroke="black" points="775.5,-343 916.5,-343 "/>
<path fill="none" stroke="black" d="M916.5,-343C922.5,-343 928.5,-349 928.5,-355"/>
<polyline fill="none" stroke="black" points="928.5,-355 928.5,-455 "/>
<path fill="none" stroke="black" d="M928.5,-455C928.5,-461 922.5,-467 916.5,-467"/>
<polyline fill="none" stroke="black" points="916.5,-467 775.5,-467 "/>
<path fill="none" stroke="black" d="M775.5,-467C769.5,-467 763.5,-461 763.5,-455"/>
<polyline fill="none" stroke="black" points="763.5,-455 763.5,-355 "/>
<path fill="none" stroke="black" d="M763.5,-355C763.5,-349 769.5,-343 775.5,-343"/>
<text text-anchor="middle" x="846" y="-450.4" font-family="Times Roman,serif" font-size="14.00">TeamUser</text>
<polyline fill="none" stroke="black" points="763.5,-441 928.5,-441 "/>
<text text-anchor="start" x="771.5" y="-424.4" font-family="Times Roman,serif" font-size="14.00">id :INTEGER</text>
<text text-anchor="start" x="771.5" y="-406.4" font-family="Times Roman,serif" font-size="14.00">team_id :integer</text>
<text text-anchor="start" x="771.5" y="-388.4" font-family="Times Roman,serif" font-size="14.00">user_id :integer</text>
<text text-anchor="start" x="771.5" y="-370.4" font-family="Times Roman,serif" font-size="14.00">created_at :datetime</text>
<text text-anchor="start" x="771.5" y="-352.4" font-family="Times Roman,serif" font-size="14.00">updated_at :datetime</text>
</g>
<!-- Team&#45;&gt;TeamUser -->
<g id="edge8" class="edge"><title>Team&#45;&gt;TeamUser</title>
<path fill="none" stroke="#96615f" d="M931.477,-650.085C913.045,-597.236 888.972,-528.212 871.071,-476.886"/>
<ellipse fill="none" stroke="#96615f" cx="932.884" cy="-654.12" rx="4.00001" ry="4.00001"/>
<polygon fill="#96615f" stroke="#96615f" points="870.984,-476.634 871.939,-465.71 869.337,-471.913 867.69,-467.192 867.69,-467.192 867.69,-467.192 869.337,-471.913 863.441,-468.674 870.984,-476.634 870.984,-476.634"/>
</g>
<!-- User -->
<g id="node9" class="node"><title>User</title>
<polyline fill="none" stroke="black" points="958,-217 1188,-217 "/>
<path fill="none" stroke="black" d="M1188,-217C1194,-217 1200,-223 1200,-229"/>
<polyline fill="none" stroke="black" points="1200,-229 1200,-581 "/>
<path fill="none" stroke="black" d="M1200,-581C1200,-587 1194,-593 1188,-593"/>
<polyline fill="none" stroke="black" points="1188,-593 958,-593 "/>
<path fill="none" stroke="black" d="M958,-593C952,-593 946,-587 946,-581"/>
<polyline fill="none" stroke="black" points="946,-581 946,-229 "/>
<path fill="none" stroke="black" d="M946,-229C946,-223 952,-217 958,-217"/>
<text text-anchor="middle" x="1073" y="-576.4" font-family="Times Roman,serif" font-size="14.00">User</text>
<polyline fill="none" stroke="black" points="946,-567 1200,-567 "/>
<text text-anchor="start" x="954" y="-550.4" font-family="Times Roman,serif" font-size="14.00">id :INTEGER</text>
<text text-anchor="start" x="954" y="-532.4" font-family="Times Roman,serif" font-size="14.00">name :varchar</text>
<text text-anchor="start" x="954" y="-514.4" font-family="Times Roman,serif" font-size="14.00">login :varchar</text>
<text text-anchor="start" x="954" y="-496.4" font-family="Times Roman,serif" font-size="14.00">profile_image :varchar</text>
<text text-anchor="start" x="954" y="-478.4" font-family="Times Roman,serif" font-size="14.00">uuid :varchar</text>
<text text-anchor="start" x="954" y="-460.4" font-family="Times Roman,serif" font-size="14.00">provider :varchar</text>
<text text-anchor="start" x="954" y="-442.4" font-family="Times Roman,serif" font-size="14.00">token :varchar</text>
<text text-anchor="start" x="954" y="-424.4" font-family="Times Roman,serif" font-size="14.00">email :varchar</text>
<text text-anchor="start" x="954" y="-406.4" font-family="Times Roman,serif" font-size="14.00">encrypted_password :varchar</text>
<text text-anchor="start" x="954" y="-388.4" font-family="Times Roman,serif" font-size="14.00">reset_password_token :varchar</text>
<text text-anchor="start" x="954" y="-370.4" font-family="Times Roman,serif" font-size="14.00">reset_password_sent_at :datetime</text>
<text text-anchor="start" x="954" y="-352.4" font-family="Times Roman,serif" font-size="14.00">remember_created_at :datetime</text>
<text text-anchor="start" x="954" y="-334.4" font-family="Times Roman,serif" font-size="14.00">sign_in_count :integer</text>
<text text-anchor="start" x="954" y="-316.4" font-family="Times Roman,serif" font-size="14.00">current_sign_in_at :datetime</text>
<text text-anchor="start" x="954" y="-298.4" font-family="Times Roman,serif" font-size="14.00">last_sign_in_at :datetime</text>
<text text-anchor="start" x="954" y="-280.4" font-family="Times Roman,serif" font-size="14.00">current_sign_in_ip :varchar</text>
<text text-anchor="start" x="954" y="-262.4" font-family="Times Roman,serif" font-size="14.00">last_sign_in_ip :varchar</text>
<text text-anchor="start" x="954" y="-244.4" font-family="Times Roman,serif" font-size="14.00">created_at :datetime</text>
<text text-anchor="start" x="954" y="-226.4" font-family="Times Roman,serif" font-size="14.00">updated_at :datetime</text>
</g>
<!-- Team&#45;&gt;User -->
<g id="edge10" class="edge"><title>Team&#45;&gt;User</title>
<path fill="none" stroke="#ace0a7" d="M987.476,-648.067C992.437,-633.969 997.786,-618.767 1003.3,-603.089"/>
<polygon fill="#ace0a7" stroke="#ace0a7" points="987.337,-648.464 979.773,-656.403 985.677,-653.18 984.018,-657.897 984.018,-657.897 984.018,-657.897 985.677,-653.18 988.263,-659.39 987.337,-648.464 987.337,-648.464"/>
<polygon fill="#ace0a7" stroke="#ace0a7" points="1003.44,-602.706 1011,-594.766 1005.1,-597.989 1006.76,-593.272 1006.76,-593.272 1006.76,-593.272 1005.1,-597.989 1002.51,-591.779 1003.44,-602.706 1003.44,-602.706"/>
</g>
<!-- Medium -->
<g id="node10" class="node"><title>Medium</title>
<polyline fill="none" stroke="black" points="565.5,-1 706.5,-1 "/>
<path fill="none" stroke="black" d="M706.5,-1C712.5,-1 718.5,-7 718.5,-13"/>
<polyline fill="none" stroke="black" points="718.5,-13 718.5,-167 "/>
<path fill="none" stroke="black" d="M718.5,-167C718.5,-173 712.5,-179 706.5,-179"/>
<polyline fill="none" stroke="black" points="706.5,-179 565.5,-179 "/>
<path fill="none" stroke="black" d="M565.5,-179C559.5,-179 553.5,-173 553.5,-167"/>
<polyline fill="none" stroke="black" points="553.5,-167 553.5,-13 "/>
<path fill="none" stroke="black" d="M553.5,-13C553.5,-7 559.5,-1 565.5,-1"/>
<text text-anchor="middle" x="636" y="-162.4" font-family="Times Roman,serif" font-size="14.00">Medium</text>
<polyline fill="none" stroke="black" points="553.5,-153 718.5,-153 "/>
<text text-anchor="start" x="561.5" y="-136.4" font-family="Times Roman,serif" font-size="14.00">id :INTEGER</text>
<text text-anchor="start" x="561.5" y="-118.4" font-family="Times Roman,serif" font-size="14.00">user_id :integer</text>
<text text-anchor="start" x="561.5" y="-100.4" font-family="Times Roman,serif" font-size="14.00">project_id :integer</text>
<text text-anchor="start" x="561.5" y="-82.4" font-family="Times Roman,serif" font-size="14.00">account_id :integer</text>
<text text-anchor="start" x="561.5" y="-64.4" font-family="Times Roman,serif" font-size="14.00">url :varchar</text>
<text text-anchor="start" x="561.5" y="-46.4" font-family="Times Roman,serif" font-size="14.00">data :text</text>
<text text-anchor="start" x="561.5" y="-28.4" font-family="Times Roman,serif" font-size="14.00">created_at :datetime</text>
<text text-anchor="start" x="561.5" y="-10.4" font-family="Times Roman,serif" font-size="14.00">updated_at :datetime</text>
</g>
<!-- Account&#45;&gt;Medium -->
<g id="edge12" class="edge"><title>Account&#45;&gt;Medium</title>
<path fill="none" stroke="#0e31cb" d="M656.134,-316.503C652.606,-276.821 648.432,-229.855 644.801,-189.008"/>
<ellipse fill="none" stroke="#0e31cb" cx="656.508" cy="-320.713" rx="4" ry="4"/>
<polygon fill="#0e31cb" stroke="#0e31cb" points="644.8,-188.997 648.397,-178.638 644.357,-184.016 643.914,-179.036 643.914,-179.036 643.914,-179.036 644.357,-184.016 639.432,-179.435 644.8,-188.997 644.8,-188.997"/>
</g>
<!-- Project&#45;&gt;ProjectSource -->
<g id="edge16" class="edge"><title>Project&#45;&gt;ProjectSource</title>
<path fill="none" stroke="#9de09c" d="M466.587,-316.724C458.054,-267.855 447.583,-207.887 439.554,-161.901"/>
<ellipse fill="none" stroke="#9de09c" cx="467.291" cy="-320.757" rx="4.00001" ry="4.00001"/>
<polygon fill="#9de09c" stroke="#9de09c" points="439.548,-161.865 442.261,-151.24 438.688,-156.94 437.828,-152.014 437.828,-152.014 437.828,-152.014 438.688,-156.94 433.395,-152.788 439.548,-161.865 439.548,-161.865"/>
</g>
<!-- Project&#45;&gt;Medium -->
<g id="edge14" class="edge"><title>Project&#45;&gt;Medium</title>
<path fill="none" stroke="#fca8d3" d="M523.904,-317.273C539.245,-285.34 556.811,-248.991 573,-216 577.45,-206.932 582.103,-197.51 586.78,-188.085"/>
<ellipse fill="none" stroke="#fca8d3" cx="521.99" cy="-321.258" rx="4.00002" ry="4.00002"/>
<polygon fill="#fca8d3" stroke="#fca8d3" points="586.814,-188.015 595.294,-181.061 589.039,-183.537 591.264,-179.059 591.264,-179.059 591.264,-179.059 589.039,-183.537 587.234,-177.057 586.814,-188.015 586.814,-188.015"/>
</g>
<!-- ApiKey -->
<g id="node11" class="node"><title>ApiKey</title>
<polyline fill="none" stroke="black" points="1071,-658 1215,-658 "/>
<path fill="none" stroke="black" d="M1215,-658C1221,-658 1227,-664 1227,-670"/>
<polyline fill="none" stroke="black" points="1227,-670 1227,-788 "/>
<path fill="none" stroke="black" d="M1227,-788C1227,-794 1221,-800 1215,-800"/>
<polyline fill="none" stroke="black" points="1215,-800 1071,-800 "/>
<path fill="none" stroke="black" d="M1071,-800C1065,-800 1059,-794 1059,-788"/>
<polyline fill="none" stroke="black" points="1059,-788 1059,-670 "/>
<path fill="none" stroke="black" d="M1059,-670C1059,-664 1065,-658 1071,-658"/>
<text text-anchor="middle" x="1143" y="-783.4" font-family="Times Roman,serif" font-size="14.00">ApiKey</text>
<polyline fill="none" stroke="black" points="1059,-774 1227,-774 "/>
<text text-anchor="start" x="1067" y="-757.4" font-family="Times Roman,serif" font-size="14.00">id :INTEGER</text>
<text text-anchor="start" x="1067" y="-739.4" font-family="Times Roman,serif" font-size="14.00">access_token :varchar</text>
<text text-anchor="start" x="1067" y="-721.4" font-family="Times Roman,serif" font-size="14.00">expire_at :datetime</text>
<text text-anchor="start" x="1067" y="-703.4" font-family="Times Roman,serif" font-size="14.00">created_at :datetime</text>
<text text-anchor="start" x="1067" y="-685.4" font-family="Times Roman,serif" font-size="14.00">updated_at :datetime</text>
<text text-anchor="start" x="1067" y="-667.4" font-family="Times Roman,serif" font-size="14.00">application :varchar</text>
</g>
</g>
</svg>
