<?xml version="1.0" encoding="UTF-8" standalone="no"?>
<!DOCTYPE svg PUBLIC "-//W3C//DTD SVG 1.1//EN"
 "http://www.w3.org/Graphics/SVG/1.1/DTD/svg11.dtd">
<!-- Generated by graphviz version 2.26.3 (20100126.1600)
 -->
<!-- Title: models_diagram Pages: 1 -->
<svg width="926pt" height="250pt"
 viewBox="0.00 0.00 926.00 250.00" xmlns="http://www.w3.org/2000/svg" xmlns:xlink="http://www.w3.org/1999/xlink">
<g id="graph1" class="graph" transform="scale(1 1) rotate(0) translate(4 246)">
<title>models_diagram</title>
<polygon fill="none" stroke="none" points="-4,5 -4,-246 923,-246 923,5 -4,5"/>
<!-- _diagram_info -->
<g id="node1" class="node"><title>_diagram_info</title>
<text text-anchor="start" x="8" y="-225.8" font-family="Times Roman,serif" font-size="13.00">Models diagram</text>
<text text-anchor="start" x="8" y="-208.8" font-family="Times Roman,serif" font-size="13.00">Date: Jun 21 2016 &#45; 01:13</text>
<text text-anchor="start" x="8" y="-191.8" font-family="Times Roman,serif" font-size="13.00">Migration version: 20160618001733</text>
<text text-anchor="start" x="8" y="-174.8" font-family="Times Roman,serif" font-size="13.00">Generated by RailRoady 1.4.2</text>
<text text-anchor="start" x="8" y="-157.8" font-family="Times Roman,serif" font-size="13.00">http://railroady.prestonlee.com</text>
</g>
<!-- Source -->
<g id="node2" class="node"><title>Source</title>
<ellipse fill="none" stroke="black" cx="313" cy="-195" rx="44.7575" ry="18.3848"/>
<text text-anchor="middle" x="313" y="-191.4" font-family="Times Roman,serif" font-size="14.00">Source</text>
</g>
<!-- ProjectSource -->
<g id="node6" class="node"><title>ProjectSource</title>
<ellipse fill="none" stroke="black" cx="260" cy="-19" rx="79.196" ry="18.3848"/>
<text text-anchor="middle" x="260" y="-15.4" font-family="Times Roman,serif" font-size="14.00">ProjectSource</text>
</g>
<!-- Source&#45;&gt;ProjectSource -->
<g id="edge4" class="edge"><title>Source&#45;&gt;ProjectSource</title>
<path fill="none" stroke="#7ba99b" d="M291.703,-171.176C279.218,-155.556 264.632,-134.014 258,-112 251.701,-91.0916 252.614,-66.3252 254.878,-47.6093"/>
<ellipse fill="none" stroke="#7ba99b" cx="294.356" cy="-174.402" rx="4.00002" ry="4.00002"/>
<polygon fill="#7ba99b" stroke="#7ba99b" points="254.888,-47.5336 260.736,-38.2569 255.584,-42.5822 256.28,-37.6308 256.28,-37.6308 256.28,-37.6308 255.584,-42.5822 251.823,-37.0048 254.888,-47.5336 254.888,-47.5336"/>
</g>
<!-- Account -->
<g id="node7" class="node"><title>Account</title>
<ellipse fill="none" stroke="black" cx="428" cy="-93" rx="50.9117" ry="18.3848"/>
<text text-anchor="middle" x="428" y="-89.4" font-family="Times Roman,serif" font-size="14.00">Account</text>
</g>
<!-- Source&#45;&gt;Account -->
<g id="edge2" class="edge"><title>Source&#45;&gt;Account</title>
<path fill="none" stroke="#b23a05" d="M337.992,-172.833C356.624,-156.307 382.038,-133.766 401.11,-116.85"/>
<ellipse fill="none" stroke="#b23a05" cx="334.982" cy="-175.503" rx="4.00002" ry="4.00002"/>
<polygon fill="#b23a05" stroke="#b23a05" points="401.116,-116.845 411.584,-113.576 404.857,-113.527 408.598,-110.209 408.598,-110.209 408.598,-110.209 404.857,-113.527 405.611,-106.843 401.116,-116.845 401.116,-116.845"/>
</g>
<!-- Project -->
<g id="node8" class="node"><title>Project</title>
<ellipse fill="none" stroke="black" cx="313" cy="-93" rx="45.9619" ry="18.3848"/>
<text text-anchor="middle" x="313" y="-89.4" font-family="Times Roman,serif" font-size="14.00">Project</text>
</g>
<!-- Source&#45;&gt;Project -->
<g id="edge6" class="edge"><title>Source&#45;&gt;Project</title>
<path fill="none" stroke="#93b5f8" d="M313,-166.054C313,-152.256 313,-135.791 313,-121.987"/>
<polygon fill="#93b5f8" stroke="#93b5f8" points="313,-166.292 308.5,-176.292 313,-171.292 313,-176.292 313,-176.292 313,-176.292 313,-171.292 317.5,-176.292 313,-166.292 313,-166.292"/>
<polygon fill="#93b5f8" stroke="#93b5f8" points="313,-121.59 317.5,-111.59 313,-116.59 313,-111.59 313,-111.59 313,-111.59 313,-116.59 308.5,-111.59 313,-121.59 313,-121.59"/>
</g>
<!-- Comment -->
<g id="node3" class="node"><title>Comment</title>
<ellipse fill="none" stroke="black" cx="434" cy="-195" rx="58.1882" ry="18.3848"/>
<text text-anchor="middle" x="434" y="-191.4" font-family="Times Roman,serif" font-size="14.00">Comment</text>
</g>
<!-- Annotation -->
<g id="node4" class="node"><title>Annotation</title>
<ellipse fill="none" stroke="black" cx="576" cy="-195" rx="65.9683" ry="18.3848"/>
<text text-anchor="middle" x="576" y="-191.4" font-family="Times Roman,serif" font-size="14.00">Annotation</text>
</g>
<!-- Team -->
<g id="node5" class="node"><title>Team</title>
<ellipse fill="none" stroke="black" cx="697" cy="-195" rx="36.977" ry="18.3848"/>
<text text-anchor="middle" x="697" y="-191.4" font-family="Times Roman,serif" font-size="14.00">Team</text>
</g>
<!-- TeamUser -->
<g id="node10" class="node"><title>TeamUser</title>
<ellipse fill="none" stroke="black" cx="641" cy="-93" rx="58.8978" ry="18.3848"/>
<text text-anchor="middle" x="641" y="-89.4" font-family="Times Roman,serif" font-size="14.00">TeamUser</text>
</g>
<!-- Team&#45;&gt;TeamUser -->
<g id="edge8" class="edge"><title>Team&#45;&gt;TeamUser</title>
<path fill="none" stroke="#f0c29f" d="M682.955,-169.419C674.751,-154.475 664.399,-135.62 656.031,-120.378"/>
<ellipse fill="none" stroke="#f0c29f" cx="685.063" cy="-173.258" rx="4.00002" ry="4.00002"/>
<polygon fill="#f0c29f" stroke="#f0c29f" points="655.926,-120.187 655.058,-109.256 653.52,-115.804 651.114,-111.422 651.114,-111.422 651.114,-111.422 653.52,-115.804 647.169,-113.587 655.926,-120.187 655.926,-120.187"/>
</g>
<!-- User -->
<g id="node11" class="node"><title>User</title>
<ellipse fill="none" stroke="black" cx="752" cy="-93" rx="33.9411" ry="18.3848"/>
<text text-anchor="middle" x="752" y="-89.4" font-family="Times Roman,serif" font-size="14.00">User</text>
</g>
<!-- Team&#45;&gt;User -->
<g id="edge10" class="edge"><title>Team&#45;&gt;User</title>
<path fill="none" stroke="#a2e1de" d="M711.613,-167.899C719.563,-153.156 729.369,-134.971 737.327,-120.212"/>
<polygon fill="#a2e1de" stroke="#a2e1de" points="711.579,-167.962 702.872,-174.629 709.206,-172.363 706.833,-176.764 706.833,-176.764 706.833,-176.764 709.206,-172.363 710.794,-178.9 711.579,-167.962 711.579,-167.962"/>
<polygon fill="#a2e1de" stroke="#a2e1de" points="737.506,-119.88 746.213,-113.213 739.879,-115.479 742.252,-111.078 742.252,-111.078 742.252,-111.078 739.879,-115.479 738.291,-108.942 737.506,-119.88 737.506,-119.88"/>
</g>
<!-- Medium -->
<g id="node12" class="node"><title>Medium</title>
<ellipse fill="none" stroke="black" cx="417" cy="-19" rx="50.2046" ry="18.3848"/>
<text text-anchor="middle" x="417" y="-15.4" font-family="Times Roman,serif" font-size="14.00">Medium</text>
</g>
<!-- Account&#45;&gt;Medium -->
<g id="edge12" class="edge"><title>Account&#45;&gt;Medium</title>
<path fill="none" stroke="#28cb99" d="M424.032,-66.309C423.129,-60.2286 422.165,-53.7446 421.25,-47.5886"/>
<ellipse fill="none" stroke="#28cb99" cx="424.636" cy="-70.3701" rx="4.00001" ry="4.00001"/>
<polygon fill="#28cb99" stroke="#28cb99" points="421.245,-47.5587 424.226,-37.0057 420.51,-42.613 419.775,-37.6674 419.775,-37.6674 419.775,-37.6674 420.51,-42.613 415.324,-38.329 421.245,-47.5587 421.245,-47.5587"/>
</g>
<!-- Project&#45;&gt;ProjectSource -->
<g id="edge16" class="edge"><title>Project&#45;&gt;ProjectSource</title>
<path fill="none" stroke="#b6a276" d="M295.329,-68.3273C290.104,-61.0325 284.363,-53.0158 279.055,-45.6047"/>
<ellipse fill="none" stroke="#b6a276" cx="297.841" cy="-71.8347" rx="4.00002" ry="4.00002"/>
<polygon fill="#b6a276" stroke="#b6a276" points="278.903,-45.3924 276.738,-34.6422 275.991,-41.3274 273.08,-37.2625 273.08,-37.2625 273.08,-37.2625 275.991,-41.3274 269.421,-39.8827 278.903,-45.3924 278.903,-45.3924"/>
</g>
<!-- Project&#45;&gt;Medium -->
<g id="edge14" class="edge"><title>Project&#45;&gt;Medium</title>
<path fill="none" stroke="#36d911" d="M342.552,-71.9724C356.032,-62.3813 372.002,-51.0182 385.687,-41.2803"/>
<ellipse fill="none" stroke="#36d911" cx="339.082" cy="-74.4413" rx="4.00002" ry="4.00002"/>
<polygon fill="#36d911" stroke="#36d911" points="385.723,-41.255 396.48,-39.124 389.797,-38.3563 393.871,-35.4575 393.871,-35.4575 393.871,-35.4575 389.797,-38.3563 391.262,-31.7909 385.723,-41.255 385.723,-41.255"/>
</g>
<!-- Ability -->
<g id="node9" class="node"><title>Ability</title>
<polygon fill="none" stroke="black" points="812,-213 752,-213 752,-177 812,-177 812,-213"/>
<text text-anchor="middle" x="782" y="-191.4" font-family="Times Roman,serif" font-size="14.00">Ability</text>
</g>
<!-- ApiKey -->
<g id="node13" class="node"><title>ApiKey</title>
<ellipse fill="none" stroke="black" cx="874" cy="-195" rx="44.0472" ry="18.3848"/>
<text text-anchor="middle" x="874" y="-191.4" font-family="Times Roman,serif" font-size="14.00">ApiKey</text>
</g>
</g>
</svg>
