<?xml version="1.0" encoding="UTF-8" standalone="no"?>
<!DOCTYPE svg PUBLIC "-//W3C//DTD SVG 1.1//EN"
 "http://www.w3.org/Graphics/SVG/1.1/DTD/svg11.dtd">
<!-- Generated by graphviz version 2.26.3 (20100126.1600)
 -->
<!-- Title: models_diagram Pages: 1 -->
<svg width="1181pt" height="782pt"
 viewBox="0.00 0.00 1181.00 782.00" xmlns="http://www.w3.org/2000/svg" xmlns:xlink="http://www.w3.org/1999/xlink">
<g id="graph1" class="graph" transform="scale(1 1) rotate(0) translate(4 778)">
<title>models_diagram</title>
<polygon fill="none" stroke="none" points="-4,5 -4,-778 1178,-778 1178,5 -4,5"/>
<!-- _diagram_info -->
<g id="node1" class="node"><title>_diagram_info</title>
<text text-anchor="start" x="8" y="-732.8" font-family="Times Roman,serif" font-size="13.00">Models diagram</text>
<text text-anchor="start" x="8" y="-715.8" font-family="Times Roman,serif" font-size="13.00">Date: Jun 21 2016 &#45; 01:13</text>
<text text-anchor="start" x="8" y="-698.8" font-family="Times Roman,serif" font-size="13.00">Migration version: 20160618001733</text>
<text text-anchor="start" x="8" y="-681.8" font-family="Times Roman,serif" font-size="13.00">Generated by RailRoady 1.4.2</text>
<text text-anchor="start" x="8" y="-664.8" font-family="Times Roman,serif" font-size="13.00">http://railroady.prestonlee.com</text>
</g>
<!-- Source -->
<g id="node2" class="node"><title>Source</title>
<polyline fill="none" stroke="black" points="279.5,-631 420.5,-631 "/>
<path fill="none" stroke="black" d="M420.5,-631C426.5,-631 432.5,-637 432.5,-643"/>
<polyline fill="none" stroke="black" points="432.5,-643 432.5,-761 "/>
<path fill="none" stroke="black" d="M432.5,-761C432.5,-767 426.5,-773 420.5,-773"/>
<polyline fill="none" stroke="black" points="420.5,-773 279.5,-773 "/>
<path fill="none" stroke="black" d="M279.5,-773C273.5,-773 267.5,-767 267.5,-761"/>
<polyline fill="none" stroke="black" points="267.5,-761 267.5,-643 "/>
<path fill="none" stroke="black" d="M267.5,-643C267.5,-637 273.5,-631 279.5,-631"/>
<text text-anchor="middle" x="350" y="-756.4" font-family="Times Roman,serif" font-size="14.00">Source</text>
<polyline fill="none" stroke="black" points="267.5,-747 432.5,-747 "/>
<text text-anchor="start" x="275.5" y="-730.4" font-family="Times Roman,serif" font-size="14.00">id :INTEGER</text>
<text text-anchor="start" x="275.5" y="-712.4" font-family="Times Roman,serif" font-size="14.00">name :varchar</text>
<text text-anchor="start" x="275.5" y="-694.4" font-family="Times Roman,serif" font-size="14.00">slogan :varchar</text>
<text text-anchor="start" x="275.5" y="-676.4" font-family="Times Roman,serif" font-size="14.00">avatar :varchar</text>
<text text-anchor="start" x="275.5" y="-658.4" font-family="Times Roman,serif" font-size="14.00">created_at :datetime</text>
<text text-anchor="start" x="275.5" y="-640.4" font-family="Times Roman,serif" font-size="14.00">updated_at :datetime</text>
</g>
<!-- ProjectSource -->
<g id="node4" class="node"><title>ProjectSource</title>
<polyline fill="none" stroke="black" points="224.5,-28 365.5,-28 "/>
<path fill="none" stroke="black" d="M365.5,-28C371.5,-28 377.5,-34 377.5,-40"/>
<polyline fill="none" stroke="black" points="377.5,-40 377.5,-140 "/>
<path fill="none" stroke="black" d="M377.5,-140C377.5,-146 371.5,-152 365.5,-152"/>
<polyline fill="none" stroke="black" points="365.5,-152 224.5,-152 "/>
<path fill="none" stroke="black" d="M224.5,-152C218.5,-152 212.5,-146 212.5,-140"/>
<polyline fill="none" stroke="black" points="212.5,-140 212.5,-40 "/>
<path fill="none" stroke="black" d="M212.5,-40C212.5,-34 218.5,-28 224.5,-28"/>
<text text-anchor="middle" x="295" y="-135.4" font-family="Times Roman,serif" font-size="14.00">ProjectSource</text>
<polyline fill="none" stroke="black" points="212.5,-126 377.5,-126 "/>
<text text-anchor="start" x="220.5" y="-109.4" font-family="Times Roman,serif" font-size="14.00">id :INTEGER</text>
<text text-anchor="start" x="220.5" y="-91.4" font-family="Times Roman,serif" font-size="14.00">project_id :integer</text>
<text text-anchor="start" x="220.5" y="-73.4" font-family="Times Roman,serif" font-size="14.00">source_id :integer</text>
<text text-anchor="start" x="220.5" y="-55.4" font-family="Times Roman,serif" font-size="14.00">created_at :datetime</text>
<text text-anchor="start" x="220.5" y="-37.4" font-family="Times Roman,serif" font-size="14.00">updated_at :datetime</text>
</g>
<!-- Source&#45;&gt;ProjectSource -->
<g id="edge4" class="edge"><title>Source&#45;&gt;ProjectSource</title>
<path fill="none" stroke="#1f8ce7" d="M274.185,-624C268.065,-614.45 262.789,-604.378 259,-594 205.642,-447.865 243.488,-262.328 271.782,-162.112"/>
<ellipse fill="none" stroke="#1f8ce7" cx="276.554" cy="-627.536" rx="4.00002" ry="4.00002"/>
<polygon fill="#1f8ce7" stroke="#1f8ce7" points="271.814,-162.001 278.898,-153.631 273.193,-157.195 274.573,-152.389 274.573,-152.389 274.573,-152.389 273.193,-157.195 270.247,-151.147 271.814,-162.001 271.814,-162.001"/>
</g>
<!-- Account -->
<g id="node5" class="node"><title>Account</title>
<polyline fill="none" stroke="black" points="461.5,-325 602.5,-325 "/>
<path fill="none" stroke="black" d="M602.5,-325C608.5,-325 614.5,-331 614.5,-337"/>
<polyline fill="none" stroke="black" points="614.5,-337 614.5,-473 "/>
<path fill="none" stroke="black" d="M614.5,-473C614.5,-479 608.5,-485 602.5,-485"/>
<polyline fill="none" stroke="black" points="602.5,-485 461.5,-485 "/>
<path fill="none" stroke="black" d="M461.5,-485C455.5,-485 449.5,-479 449.5,-473"/>
<polyline fill="none" stroke="black" points="449.5,-473 449.5,-337 "/>
<path fill="none" stroke="black" d="M449.5,-337C449.5,-331 455.5,-325 461.5,-325"/>
<text text-anchor="middle" x="532" y="-468.4" font-family="Times Roman,serif" font-size="14.00">Account</text>
<polyline fill="none" stroke="black" points="449.5,-459 614.5,-459 "/>
<text text-anchor="start" x="457.5" y="-442.4" font-family="Times Roman,serif" font-size="14.00">id :INTEGER</text>
<text text-anchor="start" x="457.5" y="-424.4" font-family="Times Roman,serif" font-size="14.00">user_id :integer</text>
<text text-anchor="start" x="457.5" y="-406.4" font-family="Times Roman,serif" font-size="14.00">source_id :integer</text>
<text text-anchor="start" x="457.5" y="-388.4" font-family="Times Roman,serif" font-size="14.00">url :varchar</text>
<text text-anchor="start" x="457.5" y="-370.4" font-family="Times Roman,serif" font-size="14.00">data :text</text>
<text text-anchor="start" x="457.5" y="-352.4" font-family="Times Roman,serif" font-size="14.00">created_at :datetime</text>
<text text-anchor="start" x="457.5" y="-334.4" font-family="Times Roman,serif" font-size="14.00">updated_at :datetime</text>
</g>
<!-- Source&#45;&gt;Account -->
<g id="edge2" class="edge"><title>Source&#45;&gt;Account</title>
<path fill="none" stroke="#d1c94e" d="M419.367,-624.271C427.043,-614.358 434.443,-604.131 441,-594 461.082,-562.974 479.542,-526.846 494.511,-494.537"/>
<ellipse fill="none" stroke="#d1c94e" cx="416.761" cy="-627.589" rx="4.00002" ry="4.00002"/>
<polygon fill="#d1c94e" stroke="#d1c94e" points="494.675,-494.18 502.931,-486.963 496.757,-489.635 498.84,-485.089 498.84,-485.089 498.84,-485.089 496.757,-489.635 494.749,-483.214 494.675,-494.18 494.675,-494.18"/>
</g>
<!-- Project -->
<g id="node6" class="node"><title>Project</title>
<polyline fill="none" stroke="black" points="279.5,-325 420.5,-325 "/>
<path fill="none" stroke="black" d="M420.5,-325C426.5,-325 432.5,-331 432.5,-337"/>
<polyline fill="none" stroke="black" points="432.5,-337 432.5,-473 "/>
<path fill="none" stroke="black" d="M432.5,-473C432.5,-479 426.5,-485 420.5,-485"/>
<polyline fill="none" stroke="black" points="420.5,-485 279.5,-485 "/>
<path fill="none" stroke="black" d="M279.5,-485C273.5,-485 267.5,-479 267.5,-473"/>
<polyline fill="none" stroke="black" points="267.5,-473 267.5,-337 "/>
<path fill="none" stroke="black" d="M267.5,-337C267.5,-331 273.5,-325 279.5,-325"/>
<text text-anchor="middle" x="350" y="-468.4" font-family="Times Roman,serif" font-size="14.00">Project</text>
<polyline fill="none" stroke="black" points="267.5,-459 432.5,-459 "/>
<text text-anchor="start" x="275.5" y="-442.4" font-family="Times Roman,serif" font-size="14.00">id :INTEGER</text>
<text text-anchor="start" x="275.5" y="-424.4" font-family="Times Roman,serif" font-size="14.00">user_id :integer</text>
<text text-anchor="start" x="275.5" y="-406.4" font-family="Times Roman,serif" font-size="14.00">title :varchar</text>
<text text-anchor="start" x="275.5" y="-388.4" font-family="Times Roman,serif" font-size="14.00">description :text</text>
<text text-anchor="start" x="275.5" y="-370.4" font-family="Times Roman,serif" font-size="14.00">lead_image :varchar</text>
<text text-anchor="start" x="275.5" y="-352.4" font-family="Times Roman,serif" font-size="14.00">created_at :datetime</text>
<text text-anchor="start" x="275.5" y="-334.4" font-family="Times Roman,serif" font-size="14.00">updated_at :datetime</text>
</g>
<!-- Source&#45;&gt;Project -->
<g id="edge6" class="edge"><title>Source&#45;&gt;Project</title>
<path fill="none" stroke="#d36575" d="M350,-620.634C350,-581.87 350,-535.376 350,-495.501"/>
<polygon fill="#d36575" stroke="#d36575" points="350,-620.861 345.5,-630.861 350,-625.861 350,-630.861 350,-630.861 350,-630.861 350,-625.861 354.5,-630.861 350,-620.861 350,-620.861"/>
<polygon fill="#d36575" stroke="#d36575" points="350,-495.248 354.5,-485.248 350,-490.248 350,-485.248 350,-485.248 350,-485.248 350,-490.248 345.5,-485.248 350,-495.248 350,-495.248"/>
</g>
<!-- Team -->
<g id="node3" class="node"><title>Team</title>
<polyline fill="none" stroke="black" points="756.5,-631 897.5,-631 "/>
<path fill="none" stroke="black" d="M897.5,-631C903.5,-631 909.5,-637 909.5,-643"/>
<polyline fill="none" stroke="black" points="909.5,-643 909.5,-761 "/>
<path fill="none" stroke="black" d="M909.5,-761C909.5,-767 903.5,-773 897.5,-773"/>
<polyline fill="none" stroke="black" points="897.5,-773 756.5,-773 "/>
<path fill="none" stroke="black" d="M756.5,-773C750.5,-773 744.5,-767 744.5,-761"/>
<polyline fill="none" stroke="black" points="744.5,-761 744.5,-643 "/>
<path fill="none" stroke="black" d="M744.5,-643C744.5,-637 750.5,-631 756.5,-631"/>
<text text-anchor="middle" x="827" y="-756.4" font-family="Times Roman,serif" font-size="14.00">Team</text>
<polyline fill="none" stroke="black" points="744.5,-747 909.5,-747 "/>
<text text-anchor="start" x="752.5" y="-730.4" font-family="Times Roman,serif" font-size="14.00">id :INTEGER</text>
<text text-anchor="start" x="752.5" y="-712.4" font-family="Times Roman,serif" font-size="14.00">name :varchar</text>
<text text-anchor="start" x="752.5" y="-694.4" font-family="Times Roman,serif" font-size="14.00">logo :varchar</text>
<text text-anchor="start" x="752.5" y="-676.4" font-family="Times Roman,serif" font-size="14.00">archived :boolean</text>
<text text-anchor="start" x="752.5" y="-658.4" font-family="Times Roman,serif" font-size="14.00">created_at :datetime</text>
<text text-anchor="start" x="752.5" y="-640.4" font-family="Times Roman,serif" font-size="14.00">updated_at :datetime</text>
</g>
<!-- TeamUser -->
<g id="node8" class="node"><title>TeamUser</title>
<polyline fill="none" stroke="black" points="643.5,-343 784.5,-343 "/>
<path fill="none" stroke="black" d="M784.5,-343C790.5,-343 796.5,-349 796.5,-355"/>
<polyline fill="none" stroke="black" points="796.5,-355 796.5,-455 "/>
<path fill="none" stroke="black" d="M796.5,-455C796.5,-461 790.5,-467 784.5,-467"/>
<polyline fill="none" stroke="black" points="784.5,-467 643.5,-467 "/>
<path fill="none" stroke="black" d="M643.5,-467C637.5,-467 631.5,-461 631.5,-455"/>
<polyline fill="none" stroke="black" points="631.5,-455 631.5,-355 "/>
<path fill="none" stroke="black" d="M631.5,-355C631.5,-349 637.5,-343 643.5,-343"/>
<text text-anchor="middle" x="714" y="-450.4" font-family="Times Roman,serif" font-size="14.00">TeamUser</text>
<polyline fill="none" stroke="black" points="631.5,-441 796.5,-441 "/>
<text text-anchor="start" x="639.5" y="-424.4" font-family="Times Roman,serif" font-size="14.00">id :INTEGER</text>
<text text-anchor="start" x="639.5" y="-406.4" font-family="Times Roman,serif" font-size="14.00">team_id :integer</text>
<text text-anchor="start" x="639.5" y="-388.4" font-family="Times Roman,serif" font-size="14.00">user_id :integer</text>
<text text-anchor="start" x="639.5" y="-370.4" font-family="Times Roman,serif" font-size="14.00">created_at :datetime</text>
<text text-anchor="start" x="639.5" y="-352.4" font-family="Times Roman,serif" font-size="14.00">updated_at :datetime</text>
</g>
<!-- Team&#45;&gt;TeamUser -->
<g id="edge8" class="edge"><title>Team&#45;&gt;TeamUser</title>
<path fill="none" stroke="#2de809" d="M796.993,-623.132C779.667,-577.594 758.045,-520.764 741.214,-476.527"/>
<ellipse fill="none" stroke="#2de809" cx="798.511" cy="-627.123" rx="4.00001" ry="4.00001"/>
<polygon fill="#2de809" stroke="#2de809" points="741.146,-476.349 741.796,-465.402 739.368,-471.676 737.59,-467.002 737.59,-467.002 737.59,-467.002 739.368,-471.676 733.384,-468.603 741.146,-476.349 741.146,-476.349"/>
</g>
<!-- User -->
<g id="node9" class="node"><title>User</title>
<polyline fill="none" stroke="black" points="826,-217 1056,-217 "/>
<path fill="none" stroke="black" d="M1056,-217C1062,-217 1068,-223 1068,-229"/>
<polyline fill="none" stroke="black" points="1068,-229 1068,-581 "/>
<path fill="none" stroke="black" d="M1068,-581C1068,-587 1062,-593 1056,-593"/>
<polyline fill="none" stroke="black" points="1056,-593 826,-593 "/>
<path fill="none" stroke="black" d="M826,-593C820,-593 814,-587 814,-581"/>
<polyline fill="none" stroke="black" points="814,-581 814,-229 "/>
<path fill="none" stroke="black" d="M814,-229C814,-223 820,-217 826,-217"/>
<text text-anchor="middle" x="941" y="-576.4" font-family="Times Roman,serif" font-size="14.00">User</text>
<polyline fill="none" stroke="black" points="814,-567 1068,-567 "/>
<text text-anchor="start" x="822" y="-550.4" font-family="Times Roman,serif" font-size="14.00">id :INTEGER</text>
<text text-anchor="start" x="822" y="-532.4" font-family="Times Roman,serif" font-size="14.00">name :varchar</text>
<text text-anchor="start" x="822" y="-514.4" font-family="Times Roman,serif" font-size="14.00">login :varchar</text>
<text text-anchor="start" x="822" y="-496.4" font-family="Times Roman,serif" font-size="14.00">profile_image :varchar</text>
<text text-anchor="start" x="822" y="-478.4" font-family="Times Roman,serif" font-size="14.00">uuid :varchar</text>
<text text-anchor="start" x="822" y="-460.4" font-family="Times Roman,serif" font-size="14.00">provider :varchar</text>
<text text-anchor="start" x="822" y="-442.4" font-family="Times Roman,serif" font-size="14.00">token :varchar</text>
<text text-anchor="start" x="822" y="-424.4" font-family="Times Roman,serif" font-size="14.00">email :varchar</text>
<text text-anchor="start" x="822" y="-406.4" font-family="Times Roman,serif" font-size="14.00">encrypted_password :varchar</text>
<text text-anchor="start" x="822" y="-388.4" font-family="Times Roman,serif" font-size="14.00">reset_password_token :varchar</text>
<text text-anchor="start" x="822" y="-370.4" font-family="Times Roman,serif" font-size="14.00">reset_password_sent_at :datetime</text>
<text text-anchor="start" x="822" y="-352.4" font-family="Times Roman,serif" font-size="14.00">remember_created_at :datetime</text>
<text text-anchor="start" x="822" y="-334.4" font-family="Times Roman,serif" font-size="14.00">sign_in_count :integer</text>
<text text-anchor="start" x="822" y="-316.4" font-family="Times Roman,serif" font-size="14.00">current_sign_in_at :datetime</text>
<text text-anchor="start" x="822" y="-298.4" font-family="Times Roman,serif" font-size="14.00">last_sign_in_at :datetime</text>
<text text-anchor="start" x="822" y="-280.4" font-family="Times Roman,serif" font-size="14.00">current_sign_in_ip :varchar</text>
<text text-anchor="start" x="822" y="-262.4" font-family="Times Roman,serif" font-size="14.00">last_sign_in_ip :varchar</text>
<text text-anchor="start" x="822" y="-244.4" font-family="Times Roman,serif" font-size="14.00">created_at :datetime</text>
<text text-anchor="start" x="822" y="-226.4" font-family="Times Roman,serif" font-size="14.00">updated_at :datetime</text>
</g>
<!-- Team&#45;&gt;User -->
<g id="edge10" class="edge"><title>Team&#45;&gt;User</title>
<path fill="none" stroke="#eec28a" d="M857.998,-621.241C860.326,-615.176 862.728,-608.919 865.182,-602.525"/>
<polygon fill="#eec28a" stroke="#eec28a" points="857.889,-621.525 850.105,-629.249 856.098,-626.193 854.306,-630.861 854.306,-630.861 854.306,-630.861 856.098,-626.193 858.507,-632.474 857.889,-621.525 857.889,-621.525"/>
<polygon fill="#eec28a" stroke="#eec28a" points="865.229,-602.403 873.014,-594.679 867.021,-597.735 868.813,-593.067 868.813,-593.067 868.813,-593.067 867.021,-597.735 864.612,-591.454 865.229,-602.403 865.229,-602.403"/>
</g>
<!-- Medium -->
<g id="node10" class="node"><title>Medium</title>
<polyline fill="none" stroke="black" points="433.5,-1 574.5,-1 "/>
<path fill="none" stroke="black" d="M574.5,-1C580.5,-1 586.5,-7 586.5,-13"/>
<polyline fill="none" stroke="black" points="586.5,-13 586.5,-167 "/>
<path fill="none" stroke="black" d="M586.5,-167C586.5,-173 580.5,-179 574.5,-179"/>
<polyline fill="none" stroke="black" points="574.5,-179 433.5,-179 "/>
<path fill="none" stroke="black" d="M433.5,-179C427.5,-179 421.5,-173 421.5,-167"/>
<polyline fill="none" stroke="black" points="421.5,-167 421.5,-13 "/>
<path fill="none" stroke="black" d="M421.5,-13C421.5,-7 427.5,-1 433.5,-1"/>
<text text-anchor="middle" x="504" y="-162.4" font-family="Times Roman,serif" font-size="14.00">Medium</text>
<polyline fill="none" stroke="black" points="421.5,-153 586.5,-153 "/>
<text text-anchor="start" x="429.5" y="-136.4" font-family="Times Roman,serif" font-size="14.00">id :INTEGER</text>
<text text-anchor="start" x="429.5" y="-118.4" font-family="Times Roman,serif" font-size="14.00">user_id :integer</text>
<text text-anchor="start" x="429.5" y="-100.4" font-family="Times Roman,serif" font-size="14.00">project_id :integer</text>
<text text-anchor="start" x="429.5" y="-82.4" font-family="Times Roman,serif" font-size="14.00">account_id :integer</text>
<text text-anchor="start" x="429.5" y="-64.4" font-family="Times Roman,serif" font-size="14.00">url :varchar</text>
<text text-anchor="start" x="429.5" y="-46.4" font-family="Times Roman,serif" font-size="14.00">data :text</text>
<text text-anchor="start" x="429.5" y="-28.4" font-family="Times Roman,serif" font-size="14.00">created_at :datetime</text>
<text text-anchor="start" x="429.5" y="-10.4" font-family="Times Roman,serif" font-size="14.00">updated_at :datetime</text>
</g>
<!-- Account&#45;&gt;Medium -->
<g id="edge12" class="edge"><title>Account&#45;&gt;Medium</title>
<path fill="none" stroke="#7c4922" d="M524.134,-316.503C520.606,-276.821 516.432,-229.855 512.801,-189.008"/>
<ellipse fill="none" stroke="#7c4922" cx="524.508" cy="-320.713" rx="4" ry="4"/>
<polygon fill="#7c4922" stroke="#7c4922" points="512.8,-188.997 516.397,-178.638 512.357,-184.016 511.914,-179.036 511.914,-179.036 511.914,-179.036 512.357,-184.016 507.432,-179.435 512.8,-188.997 512.8,-188.997"/>
</g>
<!-- Project&#45;&gt;ProjectSource -->
<g id="edge16" class="edge"><title>Project&#45;&gt;ProjectSource</title>
<path fill="none" stroke="#91011d" d="M334.587,-316.724C326.054,-267.855 315.583,-207.887 307.554,-161.901"/>
<ellipse fill="none" stroke="#91011d" cx="335.291" cy="-320.757" rx="4.00001" ry="4.00001"/>
<polygon fill="#91011d" stroke="#91011d" points="307.548,-161.865 310.261,-151.24 306.688,-156.94 305.828,-152.014 305.828,-152.014 305.828,-152.014 306.688,-156.94 301.395,-152.788 307.548,-161.865 307.548,-161.865"/>
</g>
<!-- Project&#45;&gt;Medium -->
<g id="edge14" class="edge"><title>Project&#45;&gt;Medium</title>
<path fill="none" stroke="#4119ca" d="M391.904,-317.273C407.245,-285.34 424.811,-248.991 441,-216 445.45,-206.932 450.103,-197.51 454.78,-188.085"/>
<ellipse fill="none" stroke="#4119ca" cx="389.99" cy="-321.258" rx="4.00002" ry="4.00002"/>
<polygon fill="#4119ca" stroke="#4119ca" points="454.814,-188.015 463.294,-181.061 457.039,-183.537 459.264,-179.059 459.264,-179.059 459.264,-179.059 457.039,-183.537 455.234,-177.057 454.814,-188.015 454.814,-188.015"/>
</g>
<!-- Ability -->
<g id="node7" class="node"><title>Ability</title>
<polygon fill="none" stroke="black" points="927,-676 927,-728 987,-728 987,-676 927,-676"/>
<text text-anchor="middle" x="957" y="-711.4" font-family="Times Roman,serif" font-size="14.00">Ability</text>
<polyline fill="none" stroke="black" points="927,-702 987,-702 "/>
<text text-anchor="middle" x="957" y="-685.4" font-family="Times Roman,serif" font-size="14.00"> </text>
</g>
<!-- ApiKey -->
<g id="node11" class="node"><title>ApiKey</title>
<polyline fill="none" stroke="black" points="1017,-631 1161,-631 "/>
<path fill="none" stroke="black" d="M1161,-631C1167,-631 1173,-637 1173,-643"/>
<polyline fill="none" stroke="black" points="1173,-643 1173,-761 "/>
<path fill="none" stroke="black" d="M1173,-761C1173,-767 1167,-773 1161,-773"/>
<polyline fill="none" stroke="black" points="1161,-773 1017,-773 "/>
<path fill="none" stroke="black" d="M1017,-773C1011,-773 1005,-767 1005,-761"/>
<polyline fill="none" stroke="black" points="1005,-761 1005,-643 "/>
<path fill="none" stroke="black" d="M1005,-643C1005,-637 1011,-631 1017,-631"/>
<text text-anchor="middle" x="1089" y="-756.4" font-family="Times Roman,serif" font-size="14.00">ApiKey</text>
<polyline fill="none" stroke="black" points="1005,-747 1173,-747 "/>
<text text-anchor="start" x="1013" y="-730.4" font-family="Times Roman,serif" font-size="14.00">id :INTEGER</text>
<text text-anchor="start" x="1013" y="-712.4" font-family="Times Roman,serif" font-size="14.00">access_token :varchar</text>
<text text-anchor="start" x="1013" y="-694.4" font-family="Times Roman,serif" font-size="14.00">expire_at :datetime</text>
<text text-anchor="start" x="1013" y="-676.4" font-family="Times Roman,serif" font-size="14.00">created_at :datetime</text>
<text text-anchor="start" x="1013" y="-658.4" font-family="Times Roman,serif" font-size="14.00">updated_at :datetime</text>
<text text-anchor="start" x="1013" y="-640.4" font-family="Times Roman,serif" font-size="14.00">application :varchar</text>
</g>
</g>
</svg>
