<?xml version="1.0" encoding="UTF-8" standalone="no"?>
<!DOCTYPE svg PUBLIC "-//W3C//DTD SVG 1.1//EN"
 "http://www.w3.org/Graphics/SVG/1.1/DTD/svg11.dtd">
<!-- Generated by graphviz version 2.26.3 (20100126.1600)
 -->
<!-- Title: models_diagram Pages: 1 -->
<svg width="649pt" height="474pt"
 viewBox="0.00 0.00 649.00 474.00" xmlns="http://www.w3.org/2000/svg" xmlns:xlink="http://www.w3.org/1999/xlink">
<g id="graph1" class="graph" transform="scale(1 1) rotate(0) translate(4 470)">
<title>models_diagram</title>
<polygon fill="none" stroke="none" points="-4,5 -4,-470 646,-470 646,5 -4,5"/>
<!-- Comment -->
<g id="node1" class="node"><title>Comment</title>
<ellipse fill="none" stroke="black" cx="72" cy="-447" rx="58.1882" ry="18.3848"/>
<text text-anchor="middle" x="72" y="-443.4" font-family="Times Roman,serif" font-size="14.00">Comment</text>
</g>
<!-- Annotation -->
<g id="node2" class="node"><title>Annotation</title>
<ellipse fill="none" stroke="black" cx="214" cy="-447" rx="65.9683" ry="18.3848"/>
<text text-anchor="middle" x="214" y="-443.4" font-family="Times Roman,serif" font-size="14.00">Annotation</text>
</g>
<!-- Source -->
<g id="node3" class="node"><title>Source</title>
<ellipse fill="none" stroke="black" cx="435" cy="-295" rx="44.7575" ry="18.3848"/>
<text text-anchor="middle" x="435" y="-291.4" font-family="Times Roman,serif" font-size="14.00">Source</text>
</g>
<!-- ProjectSource -->
<g id="node5" class="node"><title>ProjectSource</title>
<ellipse fill="none" stroke="black" cx="79" cy="-111" rx="79.196" ry="18.3848"/>
<text text-anchor="middle" x="79" y="-107.4" font-family="Times Roman,serif" font-size="14.00">ProjectSource</text>
</g>
<!-- Source&#45;&gt;ProjectSource -->
<g id="edge6" class="edge"><title>Source&#45;&gt;ProjectSource</title>
<path fill="none" stroke="#aa415d" d="M409.756,-272.624C381.151,-248.185 332.333,-209.175 285,-184 239.1,-159.587 183.323,-140.396 141.39,-127.829"/>
<ellipse fill="none" stroke="#aa415d" cx="412.859" cy="-275.297" rx="4.00002" ry="4.00002"/>
<polygon fill="#aa415d" stroke="#aa415d" points="141.175,-127.766 132.857,-120.619 136.379,-126.35 131.584,-124.935 131.584,-124.935 131.584,-124.935 136.379,-126.35 130.31,-129.251 141.175,-127.766 141.175,-127.766"/>
</g>
<!-- Account -->
<g id="node6" class="node"><title>Account</title>
<ellipse fill="none" stroke="black" cx="431" cy="-203" rx="50.9117" ry="18.3848"/>
<text text-anchor="middle" x="431" y="-199.4" font-family="Times Roman,serif" font-size="14.00">Account</text>
</g>
<!-- Source&#45;&gt;Account -->
<g id="edge4" class="edge"><title>Source&#45;&gt;Account</title>
<path fill="none" stroke="#585a31" d="M433.827,-268.029C433.33,-256.599 432.751,-243.267 432.246,-231.66"/>
<ellipse fill="none" stroke="#585a31" cx="434.017" cy="-272.386" rx="4" ry="4"/>
<polygon fill="#585a31" stroke="#585a31" points="432.243,-231.58 436.304,-221.394 432.025,-226.585 431.808,-221.59 431.808,-221.59 431.808,-221.59 432.025,-226.585 427.313,-221.785 432.243,-231.58 432.243,-231.58"/>
</g>
<!-- Project -->
<g id="node7" class="node"><title>Project</title>
<ellipse fill="none" stroke="black" cx="230" cy="-203" rx="45.9619" ry="18.3848"/>
<text text-anchor="middle" x="230" y="-199.4" font-family="Times Roman,serif" font-size="14.00">Project</text>
</g>
<!-- Source&#45;&gt;Project -->
<g id="edge8" class="edge"><title>Source&#45;&gt;Project</title>
<path fill="none" stroke="#d1a884" d="M390.973,-279.338C374.227,-273.087 355.076,-265.579 338,-258 313.817,-247.267 287.335,-233.808 266.646,-222.891"/>
<polygon fill="#d1a884" stroke="#d1a884" points="391.14,-279.4 398.962,-287.086 395.83,-281.132 400.521,-282.865 400.521,-282.865 400.521,-282.865 395.83,-281.132 402.08,-278.643 391.14,-279.4 391.14,-279.4"/>
<polygon fill="#d1a884" stroke="#d1a884" points="266.408,-222.765 259.688,-214.099 261.993,-220.419 257.577,-218.073 257.577,-218.073 257.577,-218.073 261.993,-220.419 255.466,-222.047 266.408,-222.765 266.408,-222.765"/>
</g>
<!-- PaperTrail::Version -->
<g id="node14" class="node"><title>PaperTrail::Version</title>
<ellipse fill="none" stroke="black" cx="424" cy="-19" rx="101.823" ry="18.3848"/>
<text text-anchor="middle" x="424" y="-15.4" font-family="Times Roman,serif" font-size="14.00">PaperTrail::Version</text>
</g>
<!-- Source&#45;&gt;PaperTrail::Version -->
<g id="edge2" class="edge"><title>Source&#45;&gt;PaperTrail::Version</title>
<path fill="none" stroke="#8b1db8" d="M459.308,-271.669C471.351,-258.398 484.647,-240.718 491,-222 497.456,-202.978 504.114,-128.069 490,-92 482.818,-73.6454 468.707,-57.0093 455.37,-44.2701"/>
<ellipse fill="none" stroke="#8b1db8" cx="456.272" cy="-274.9" rx="4.00002" ry="4.00002"/>
<polygon fill="#8b1db8" stroke="#8b1db8" points="455.05,-43.9784 450.698,-33.9128 451.357,-40.6073 447.665,-37.2362 447.665,-37.2362 447.665,-37.2362 451.357,-40.6073 444.631,-40.5597 455.05,-43.9784 455.05,-43.9784"/>
<text text-anchor="middle" x="527" y="-153.4" font-family="Times Roman,serif" font-size="14.00">versions</text>
</g>
<!-- Team -->
<g id="node4" class="node"><title>Team</title>
<ellipse fill="none" stroke="black" cx="335" cy="-447" rx="36.977" ry="18.3848"/>
<text text-anchor="middle" x="335" y="-443.4" font-family="Times Roman,serif" font-size="14.00">Team</text>
</g>
<!-- Team&#45;&gt;Project -->
<g id="edge12" class="edge"><title>Team&#45;&gt;Project</title>
<path fill="none" stroke="#4611e7" d="M314.21,-423.664C293.057,-398.498 261.153,-356.322 245,-314 234.823,-287.338 231.385,-254.766 230.304,-231.822"/>
<ellipse fill="none" stroke="#4611e7" cx="317.01" cy="-426.948" rx="4.00002" ry="4.00002"/>
<polygon fill="#4611e7" stroke="#4611e7" points="230.3,-231.701 234.447,-221.55 230.125,-226.704 229.95,-221.707 229.95,-221.707 229.95,-221.707 230.125,-226.704 225.453,-221.865 230.3,-231.701 230.3,-231.701"/>
</g>
<!-- TeamUser -->
<g id="node8" class="node"><title>TeamUser</title>
<ellipse fill="none" stroke="black" cx="313" cy="-295" rx="58.8978" ry="18.3848"/>
<text text-anchor="middle" x="313" y="-291.4" font-family="Times Roman,serif" font-size="14.00">TeamUser</text>
</g>
<!-- Team&#45;&gt;TeamUser -->
<g id="edge14" class="edge"><title>Team&#45;&gt;TeamUser</title>
<path fill="none" stroke="#880e7e" d="M331.132,-420.278C327.23,-393.318 321.223,-351.816 317.205,-324.054"/>
<ellipse fill="none" stroke="#880e7e" cx="331.729" cy="-424.403" rx="4.00001" ry="4.00001"/>
<polygon fill="#880e7e" stroke="#880e7e" points="317.152,-323.688 320.173,-313.146 316.436,-318.739 315.72,-313.791 315.72,-313.791 315.72,-313.791 316.436,-318.739 311.266,-314.435 317.152,-323.688 317.152,-323.688"/>
</g>
<!-- User -->
<g id="node11" class="node"><title>User</title>
<ellipse fill="none" stroke="black" cx="375" cy="-371" rx="33.9411" ry="18.3848"/>
<text text-anchor="middle" x="375" y="-367.4" font-family="Times Roman,serif" font-size="14.00">User</text>
</g>
<!-- Team&#45;&gt;User -->
<g id="edge16" class="edge"><title>Team&#45;&gt;User</title>
<path fill="none" stroke="#e023d3" d="M349.24,-419.944C352.973,-412.852 356.998,-405.204 360.732,-398.109"/>
<polygon fill="#e023d3" stroke="#e023d3" points="349.137,-420.14 340.497,-426.893 346.808,-424.564 344.479,-428.989 344.479,-428.989 344.479,-428.989 346.808,-424.564 348.462,-431.085 349.137,-420.14 349.137,-420.14"/>
<polygon fill="#e023d3" stroke="#e023d3" points="360.931,-397.731 369.571,-390.978 363.26,-393.306 365.589,-388.882 365.589,-388.882 365.589,-388.882 363.26,-393.306 361.606,-386.786 360.931,-397.731 360.931,-397.731"/>
</g>
<!-- Team&#45;&gt;PaperTrail::Version -->
<g id="edge10" class="edge"><title>Team&#45;&gt;PaperTrail::Version</title>
<path fill="none" stroke="#1d75af" d="M370.597,-431.819C374.092,-430.473 377.601,-429.177 381,-428 469.148,-397.475 583,-464.284 583,-371 583,-371 583,-371 583,-111 583,-71.0154 544.864,-48.129 505.945,-35.1838"/>
<ellipse fill="none" stroke="#1d75af" cx="366.739" cy="-433.346" rx="4.00001" ry="4.00001"/>
<polygon fill="#1d75af" stroke="#1d75af" points="505.604,-35.0774 497.395,-27.8061 500.83,-33.5899 496.057,-32.1024 496.057,-32.1024 496.057,-32.1024 500.83,-33.5899 494.718,-36.3987 505.604,-35.0774 505.604,-35.0774"/>
<text text-anchor="middle" x="612" y="-245.4" font-family="Times Roman,serif" font-size="14.00">versions</text>
</g>
<!-- Media -->
<g id="node10" class="node"><title>Media</title>
<ellipse fill="none" stroke="black" cx="254" cy="-111" rx="39.8075" ry="18.3848"/>
<text text-anchor="middle" x="254" y="-107.4" font-family="Times Roman,serif" font-size="14.00">Media</text>
</g>
<!-- Account&#45;&gt;Media -->
<g id="edge20" class="edge"><title>Account&#45;&gt;Media</title>
<path fill="none" stroke="#9d9b10" d="M408.395,-179.932C396.61,-168.983 381.453,-156.474 366,-148 342.334,-135.022 333.624,-138.481 308,-130 303.913,-128.647 299.664,-127.209 295.424,-125.752"/>
<ellipse fill="none" stroke="#9d9b10" cx="411.336" cy="-182.729" rx="4.00002" ry="4.00002"/>
<polygon fill="#9d9b10" stroke="#9d9b10" points="295.074,-125.63 287.103,-118.099 290.351,-123.99 285.627,-122.351 285.627,-122.351 285.627,-122.351 290.351,-123.99 284.151,-126.602 295.074,-125.63 295.074,-125.63"/>
</g>
<!-- Account&#45;&gt;PaperTrail::Version -->
<g id="edge18" class="edge"><title>Account&#45;&gt;PaperTrail::Version</title>
<path fill="none" stroke="#c0c5f6" d="M429.985,-176.329C428.684,-142.121 426.436,-83.0209 425.096,-47.8111"/>
<ellipse fill="none" stroke="#c0c5f6" cx="430.138" cy="-180.347" rx="4" ry="4"/>
<polygon fill="#c0c5f6" stroke="#c0c5f6" points="425.092,-47.6976 429.208,-37.5337 424.902,-42.7012 424.712,-37.7049 424.712,-37.7049 424.712,-37.7049 424.902,-42.7012 420.215,-37.876 425.092,-47.6976 425.092,-47.6976"/>
<text text-anchor="middle" x="457" y="-107.4" font-family="Times Roman,serif" font-size="14.00">versions</text>
</g>
<!-- Project&#45;&gt;ProjectSource -->
<g id="edge24" class="edge"><title>Project&#45;&gt;ProjectSource</title>
<path fill="none" stroke="#99b3b4" d="M197.488,-183.192C173.663,-168.675 141.272,-148.941 116.378,-133.773"/>
<ellipse fill="none" stroke="#99b3b4" cx="200.969" cy="-185.312" rx="4.00002" ry="4.00002"/>
<polygon fill="#99b3b4" stroke="#99b3b4" points="116.115,-133.613 109.917,-124.567 111.845,-131.012 107.575,-128.41 107.575,-128.41 107.575,-128.41 111.845,-131.012 105.234,-132.253 116.115,-133.613 116.115,-133.613"/>
</g>
<!-- ProjectMedia -->
<g id="node9" class="node"><title>ProjectMedia</title>
<ellipse fill="none" stroke="black" cx="202" cy="-19" rx="74.2462" ry="18.3848"/>
<text text-anchor="middle" x="202" y="-15.4" font-family="Times Roman,serif" font-size="14.00">ProjectMedia</text>
</g>
<!-- Project&#45;&gt;ProjectMedia -->
<g id="edge26" class="edge"><title>Project&#45;&gt;ProjectMedia</title>
<path fill="none" stroke="#2b204e" d="M218.904,-176.889C213.64,-163.193 207.883,-145.98 205,-130 200.029,-102.447 199.733,-70.4308 200.407,-47.8839"/>
<ellipse fill="none" stroke="#2b204e" cx="220.449" cy="-180.791" rx="4.00001" ry="4.00001"/>
<polygon fill="#2b204e" stroke="#2b204e" points="200.417,-47.6297 205.297,-37.8094 200.608,-42.6334 200.8,-37.6371 200.8,-37.6371 200.8,-37.6371 200.608,-42.6334 196.303,-37.4647 200.417,-47.6297 200.417,-47.6297"/>
</g>
<!-- Project&#45;&gt;Media -->
<g id="edge28" class="edge"><title>Project&#45;&gt;Media</title>
<path fill="none" stroke="#59d134" d="M237.476,-174.342C240.361,-163.283 243.655,-150.657 246.538,-139.604"/>
<polygon fill="#59d134" stroke="#59d134" points="237.381,-174.706 230.502,-183.246 236.119,-179.544 234.857,-184.382 234.857,-184.382 234.857,-184.382 236.119,-179.544 239.211,-185.518 237.381,-174.706 237.381,-174.706"/>
<polygon fill="#59d134" stroke="#59d134" points="246.626,-139.266 253.505,-130.726 247.888,-134.428 249.15,-129.59 249.15,-129.59 249.15,-129.59 247.888,-134.428 244.796,-128.454 246.626,-139.266 246.626,-139.266"/>
</g>
<!-- Project&#45;&gt;PaperTrail::Version -->
<g id="edge22" class="edge"><title>Project&#45;&gt;PaperTrail::Version</title>
<path fill="none" stroke="#118069" d="M254.182,-180.064C290.604,-145.52 359.297,-80.3674 397.199,-44.419"/>
<ellipse fill="none" stroke="#118069" cx="251.153" cy="-182.937" rx="4.00002" ry="4.00002"/>
<polygon fill="#118069" stroke="#118069" points="397.542,-44.0945 407.894,-40.4779 401.17,-40.6537 404.797,-37.2128 404.797,-37.2128 404.797,-37.2128 401.17,-40.6537 401.701,-33.9478 397.542,-44.0945 397.542,-44.0945"/>
<text text-anchor="middle" x="375" y="-107.4" font-family="Times Roman,serif" font-size="14.00">versions</text>
</g>
<!-- Media&#45;&gt;ProjectMedia -->
<g id="edge32" class="edge"><title>Media&#45;&gt;ProjectMedia</title>
<path fill="none" stroke="#195606" d="M239.686,-85.6754C232.808,-73.5064 224.552,-58.8999 217.523,-46.4639"/>
<ellipse fill="none" stroke="#195606" cx="241.758" cy="-89.3415" rx="4.00002" ry="4.00002"/>
<polygon fill="#195606" stroke="#195606" points="217.351,-46.159 216.348,-35.2391 214.89,-41.8062 212.43,-37.4534 212.43,-37.4534 212.43,-37.4534 214.89,-41.8062 208.513,-39.6677 217.351,-46.159 217.351,-46.159"/>
</g>
<!-- Media&#45;&gt;PaperTrail::Version -->
<g id="edge30" class="edge"><title>Media&#45;&gt;PaperTrail::Version</title>
<path fill="none" stroke="#194d6d" d="M249.682,-84.4632C249.535,-74.4833 251.354,-63.7006 258,-56 267.879,-44.5537 296.422,-36.3441 327.114,-30.6133"/>
<ellipse fill="none" stroke="#194d6d" cx="249.948" cy="-88.5805" rx="4" ry="4"/>
<polygon fill="#194d6d" stroke="#194d6d" points="327.287,-30.5828 337.919,-33.2698 332.21,-29.7108 337.134,-28.8388 337.134,-28.8388 337.134,-28.8388 332.21,-29.7108 336.349,-24.4077 327.287,-30.5828 327.287,-30.5828"/>
<text text-anchor="middle" x="287" y="-61.4" font-family="Times Roman,serif" font-size="14.00">versions</text>
</g>
<!-- User&#45;&gt;Source -->
<g id="edge34" class="edge"><title>User&#45;&gt;Source</title>
<path fill="none" stroke="#7c291f" d="M393.616,-347.419C400.736,-338.401 408.86,-328.111 416.013,-319.05"/>
<ellipse fill="none" stroke="#7c291f" cx="391.094" cy="-350.615" rx="4.00002" ry="4.00002"/>
<ellipse fill="#7c291f" stroke="#7c291f" cx="418.544" cy="-315.844" rx="4.00002" ry="4.00002"/>
</g>
<!-- User&#45;&gt;TeamUser -->
<g id="edge36" class="edge"><title>User&#45;&gt;TeamUser</title>
<path fill="none" stroke="#cf0fc4" d="M355.802,-347.466C348.926,-339.039 341.14,-329.495 334.112,-320.879"/>
<ellipse fill="none" stroke="#cf0fc4" cx="358.403" cy="-350.655" rx="4.00002" ry="4.00002"/>
<polygon fill="#cf0fc4" stroke="#cf0fc4" points="333.981,-320.719 331.147,-310.126 330.821,-316.845 327.66,-312.97 327.66,-312.97 327.66,-312.97 330.821,-316.845 324.173,-315.815 333.981,-320.719 333.981,-320.719"/>
</g>
<!-- ApiKey -->
<g id="node12" class="node"><title>ApiKey</title>
<ellipse fill="none" stroke="black" cx="434" cy="-447" rx="44.0472" ry="18.3848"/>
<text text-anchor="middle" x="434" y="-443.4" font-family="Times Roman,serif" font-size="14.00">ApiKey</text>
</g>
</g>
</svg>
