<?xml version="1.0" encoding="UTF-8" standalone="no"?>
<!DOCTYPE svg PUBLIC "-//W3C//DTD SVG 1.1//EN"
 "http://www.w3.org/Graphics/SVG/1.1/DTD/svg11.dtd">
<!-- Generated by graphviz version 2.36.0 (20140111.2315)
 -->
<!-- Title: models_diagram Pages: 1 -->
<svg width="1876pt" height="766pt"
 viewBox="0.00 0.00 1876.00 766.00" xmlns="http://www.w3.org/2000/svg" xmlns:xlink="http://www.w3.org/1999/xlink">
<g id="graph0" class="graph" transform="scale(1 1) rotate(0) translate(4 762)">
<title>models_diagram</title>
<polygon fill="none" stroke="none" points="-4,4 -4,-762 1872,-762 1872,4 -4,4"/>
<!-- Embed -->
<g id="node1" class="node"><title>Embed</title>
<ellipse fill="none" stroke="black" cx="1825" cy="-106" rx="43.319" ry="18"/>
<text text-anchor="middle" x="1825" y="-102.3" font-family="Times,serif" font-size="14.00">Embed</text>
</g>
<!-- PaperTrail::Version -->
<g id="node28" class="node"><title>PaperTrail::Version</title>
<ellipse fill="none" stroke="black" cx="879" cy="-18" rx="99.1619" ry="18"/>
<text text-anchor="middle" x="879" y="-14.3" font-family="Times,serif" font-size="14.00">PaperTrail::Version</text>
</g>
<!-- Embed&#45;&gt;PaperTrail::Version -->
<g id="edge1" class="edge"><title>Embed&#45;&gt;PaperTrail::Version</title>
<path fill="none" stroke="#99cd66" d="M1806.03,-82.2693C1795.7,-71.625 1781.99,-59.9918 1767,-54 1696.5,-25.8135 1209.37,-20.28 988.024,-19.2278"/>
<ellipse fill="none" stroke="#99cd66" cx="1808.98" cy="-85.4425" rx="4.00002" ry="4.00002"/>
<polygon fill="#99cd66" stroke="#99cd66" points="988.009,-19.2278 978.029,-14.6824 983.009,-19.2051 978.009,-19.1824 978.009,-19.1824 978.009,-19.1824 983.009,-19.2051 977.988,-23.6823 988.009,-19.2278 988.009,-19.2278"/>
<text text-anchor="middle" x="1821.5" y="-58.3" font-family="Times,serif" font-size="14.00">versions</text>
</g>
<!-- Task -->
<g id="node2" class="node"><title>Task</title>
<ellipse fill="none" stroke="black" cx="277" cy="-106" rx="32.2457" ry="18"/>
<text text-anchor="middle" x="277" y="-102.3" font-family="Times,serif" font-size="14.00">Task</text>
</g>
<!-- Task&#45;&gt;PaperTrail::Version -->
<g id="edge2" class="edge"><title>Task&#45;&gt;PaperTrail::Version</title>
<path fill="none" stroke="#9d0e64" d="M294.028,-82.8789C303.623,-72.1614 316.568,-60.2779 331,-54 370.203,-36.9467 623.522,-26.6076 771.649,-21.9463"/>
<ellipse fill="none" stroke="#9d0e64" cx="291.383" cy="-85.9659" rx="4.00002" ry="4.00002"/>
<polygon fill="#9d0e64" stroke="#9d0e64" points="771.693,-21.945 781.829,-26.1318 776.691,-21.7895 781.689,-21.6339 781.689,-21.6339 781.689,-21.6339 776.691,-21.7895 781.549,-17.1361 771.693,-21.945 771.693,-21.945"/>
<text text-anchor="middle" x="361.5" y="-58.3" font-family="Times,serif" font-size="14.00">versions</text>
</g>
<!-- Tag -->
<g id="node3" class="node"><title>Tag</title>
<ellipse fill="none" stroke="black" cx="358" cy="-106" rx="26.949" ry="18"/>
<text text-anchor="middle" x="358" y="-102.3" font-family="Times,serif" font-size="14.00">Tag</text>
</g>
<!-- Tag&#45;&gt;PaperTrail::Version -->
<g id="edge3" class="edge"><title>Tag&#45;&gt;PaperTrail::Version</title>
<path fill="none" stroke="#b53e5a" d="M377.38,-84.422C389.142,-73.3518 405.111,-60.6409 422,-54 483.101,-29.9746 655.322,-22.38 770.017,-20.0163"/>
<ellipse fill="none" stroke="#b53e5a" cx="374.496" cy="-87.2301" rx="4.00002" ry="4.00002"/>
<polygon fill="#b53e5a" stroke="#b53e5a" points="770.242,-20.012 780.328,-24.3154 775.241,-19.9141 780.24,-19.8163 780.24,-19.8163 780.24,-19.8163 775.241,-19.9141 780.152,-15.3171 770.242,-20.012 770.242,-20.012"/>
<text text-anchor="middle" x="452.5" y="-58.3" font-family="Times,serif" font-size="14.00">versions</text>
</g>
<!-- Flag -->
<g id="node4" class="node"><title>Flag</title>
<ellipse fill="none" stroke="black" cx="434" cy="-106" rx="31.2965" ry="18"/>
<text text-anchor="middle" x="434" y="-102.3" font-family="Times,serif" font-size="14.00">Flag</text>
</g>
<!-- Flag&#45;&gt;PaperTrail::Version -->
<g id="edge4" class="edge"><title>Flag&#45;&gt;PaperTrail::Version</title>
<path fill="none" stroke="#d05a16" d="M458.952,-86.6443C475.863,-75.2167 499.204,-61.3396 522,-54 567.45,-39.3667 686.538,-29.7063 774.741,-24.3115"/>
<ellipse fill="none" stroke="#d05a16" cx="455.41" cy="-89.0919" rx="4.00002" ry="4.00002"/>
<polygon fill="#d05a16" stroke="#d05a16" points="774.813,-24.3072 785.066,-28.1986 779.804,-24.007 784.795,-23.7067 784.795,-23.7067 784.795,-23.7067 779.804,-24.007 784.525,-19.2149 774.813,-24.3072 774.813,-24.3072"/>
<text text-anchor="middle" x="552.5" y="-58.3" font-family="Times,serif" font-size="14.00">versions</text>
</g>
<!-- Dynamic -->
<g id="node5" class="node"><title>Dynamic</title>
<ellipse fill="none" stroke="black" cx="153" cy="-106" rx="51.4931" ry="18"/>
<text text-anchor="middle" x="153" y="-102.3" font-family="Times,serif" font-size="14.00">Dynamic</text>
</g>
<!-- Dynamic&#45;&gt;PaperTrail::Version -->
<g id="edge5" class="edge"><title>Dynamic&#45;&gt;PaperTrail::Version</title>
<path fill="none" stroke="#478068" d="M180.861,-84.7425C197.914,-73.5187 220.683,-60.5448 243,-54 338.593,-25.9663 614.652,-20.056 769.81,-19.0144"/>
<ellipse fill="none" stroke="#478068" cx="177.237" cy="-87.1856" rx="4.00002" ry="4.00002"/>
<polygon fill="#478068" stroke="#478068" points="769.852,-19.0142 779.879,-23.4525 774.852,-18.9834 779.852,-18.9526 779.852,-18.9526 779.852,-18.9526 774.852,-18.9834 779.824,-14.4527 769.852,-19.0142 769.852,-19.0142"/>
<text text-anchor="middle" x="273.5" y="-58.3" font-family="Times,serif" font-size="14.00">versions</text>
</g>
<!-- DynamicAnnotation::Field -->
<g id="node29" class="node"><title>DynamicAnnotation::Field</title>
<ellipse fill="none" stroke="black" cx="131" cy="-18" rx="131.408" ry="18"/>
<text text-anchor="middle" x="131" y="-14.3" font-family="Times,serif" font-size="14.00">DynamicAnnotation::Field</text>
</g>
<!-- Dynamic&#45;&gt;DynamicAnnotation::Field -->
<g id="edge6" class="edge"><title>Dynamic&#45;&gt;DynamicAnnotation::Field</title>
<path fill="none" stroke="#86abbc" d="M136.564,-81.2383C134.708,-77.6082 133.093,-73.801 132,-70 129.846,-62.5104 129.055,-54.1435 128.944,-46.3875"/>
<ellipse fill="none" stroke="#86abbc" cx="138.649" cy="-84.9048" rx="4.00002" ry="4.00002"/>
<polygon fill="#86abbc" stroke="#86abbc" points="128.945,-46.3274 133.649,-36.4218 129.048,-41.3284 129.15,-36.3295 129.15,-36.3295 129.15,-36.3295 129.048,-41.3284 124.651,-36.2371 128.945,-46.3274 128.945,-46.3274"/>
<text text-anchor="middle" x="151.5" y="-58.3" font-family="Times,serif" font-size="14.00">fields</text>
</g>
<!-- Comment -->
<g id="node6" class="node"><title>Comment</title>
<ellipse fill="none" stroke="black" cx="539" cy="-106" rx="55.3436" ry="18"/>
<text text-anchor="middle" x="539" y="-102.3" font-family="Times,serif" font-size="14.00">Comment</text>
</g>
<!-- Comment&#45;&gt;PaperTrail::Version -->
<g id="edge7" class="edge"><title>Comment&#45;&gt;PaperTrail::Version</title>
<path fill="none" stroke="#87c614" d="M564.166,-83.7974C578.237,-73.1014 596.607,-60.9532 615,-54 664.462,-35.302 722.422,-26.3252 771.414,-22.1156"/>
<ellipse fill="none" stroke="#87c614" cx="560.776" cy="-86.4419" rx="4.00002" ry="4.00002"/>
<polygon fill="#87c614" stroke="#87c614" points="771.439,-22.1137 781.767,-25.7973 776.423,-21.7128 781.406,-21.3118 781.406,-21.3118 781.406,-21.3118 776.423,-21.7128 781.046,-16.8263 771.439,-22.1137 771.439,-22.1137"/>
<text text-anchor="middle" x="645.5" y="-58.3" font-family="Times,serif" font-size="14.00">versions</text>
</g>
<!-- Annotation -->
<g id="node7" class="node"><title>Annotation</title>
<ellipse fill="none" stroke="black" cx="675" cy="-106" rx="61.6163" ry="18"/>
<text text-anchor="middle" x="675" y="-102.3" font-family="Times,serif" font-size="14.00">Annotation</text>
</g>
<!-- Annotation&#45;&gt;PaperTrail::Version -->
<g id="edge8" class="edge"><title>Annotation&#45;&gt;PaperTrail::Version</title>
<path fill="none" stroke="#998c5d" d="M676.892,-79.933C678.863,-70.5595 682.685,-60.5979 690,-54 703.961,-41.4073 742.248,-33.1192 780.743,-27.7861"/>
<ellipse fill="none" stroke="#998c5d" cx="676.236" cy="-83.9713" rx="4.00001" ry="4.00001"/>
<polygon fill="#998c5d" stroke="#998c5d" points="781.136,-27.7343 791.639,-30.8876 786.093,-27.0803 791.05,-26.4262 791.05,-26.4262 791.05,-26.4262 786.093,-27.0803 790.462,-21.9649 781.136,-27.7343 781.136,-27.7343"/>
<text text-anchor="middle" x="720.5" y="-58.3" font-family="Times,serif" font-size="14.00">versions</text>
</g>
<!-- User -->
<g id="node8" class="node"><title>User</title>
<ellipse fill="none" stroke="black" cx="1402" cy="-666" rx="32.2457" ry="18"/>
<text text-anchor="middle" x="1402" y="-662.3" font-family="Times,serif" font-size="14.00">User</text>
</g>
<!-- Account -->
<g id="node13" class="node"><title>Account</title>
<ellipse fill="none" stroke="black" cx="1497" cy="-518" rx="49.0941" ry="18"/>
<text text-anchor="middle" x="1497" y="-514.3" font-family="Times,serif" font-size="14.00">Account</text>
</g>
<!-- User&#45;&gt;Account -->
<g id="edge12" class="edge"><title>User&#45;&gt;Account</title>
<path fill="none" stroke="#740d54" d="M1438.55,-654.345C1451.17,-648.955 1464.32,-641.124 1473,-630 1491.71,-606.039 1496.59,-570.676 1497.51,-546.337"/>
<ellipse fill="none" stroke="#740d54" cx="1434.52" cy="-655.929" rx="4.00001" ry="4.00001"/>
<polygon fill="#740d54" stroke="#740d54" points="1497.51,-546.327 1502.19,-536.411 1497.6,-541.328 1497.69,-536.329 1497.69,-536.329 1497.69,-536.329 1497.6,-541.328 1493.19,-536.247 1497.51,-546.327 1497.51,-546.327"/>
</g>
<!-- Team -->
<g id="node14" class="node"><title>Team</title>
<ellipse fill="none" stroke="black" cx="1319" cy="-592" rx="35.6194" ry="18"/>
<text text-anchor="middle" x="1319" y="-588.3" font-family="Times,serif" font-size="14.00">Team</text>
</g>
<!-- User&#45;&gt;Team -->
<g id="edge10" class="edge"><title>User&#45;&gt;Team</title>
<path fill="none" stroke="#b0ed4a" d="M1377.34,-643.612C1366.75,-634.418 1354.38,-623.693 1343.77,-614.488"/>
<polygon fill="#b0ed4a" stroke="#b0ed4a" points="1377.65,-643.877 1382.25,-653.829 1381.43,-647.153 1385.2,-650.43 1385.2,-650.43 1385.2,-650.43 1381.43,-647.153 1388.15,-647.03 1377.65,-643.877 1377.65,-643.877"/>
<polygon fill="#b0ed4a" stroke="#b0ed4a" points="1343.61,-614.349 1339,-604.396 1339.83,-611.072 1336.06,-607.796 1336.06,-607.796 1336.06,-607.796 1339.83,-611.072 1333.11,-611.195 1343.61,-614.349 1343.61,-614.349"/>
</g>
<!-- Project -->
<g id="node19" class="node"><title>Project</title>
<ellipse fill="none" stroke="black" cx="1156" cy="-370" rx="44.2946" ry="18"/>
<text text-anchor="middle" x="1156" y="-366.3" font-family="Times,serif" font-size="14.00">Project</text>
</g>
<!-- User&#45;&gt;Project -->
<g id="edge11" class="edge"><title>User&#45;&gt;Project</title>
<path fill="none" stroke="#2f98fb" d="M1407.39,-640.008C1407.68,-635.987 1407.63,-631.875 1407,-628 1396.78,-565.02 1392.7,-538.729 1342,-500 1330.63,-491.317 1230.54,-470.455 1219,-462 1206.69,-452.975 1185.39,-420.092 1171,-396.446"/>
<ellipse fill="none" stroke="#2f98fb" cx="1406.89" cy="-644.056" rx="4.00001" ry="4.00001"/>
<polygon fill="#2f98fb" stroke="#2f98fb" points="1170.83,-396.164 1169.53,-385.275 1168.25,-391.88 1165.67,-387.596 1165.67,-387.596 1165.67,-387.596 1168.25,-391.88 1161.82,-389.916 1170.83,-396.164 1170.83,-396.164"/>
</g>
<!-- TeamUser -->
<g id="node21" class="node"><title>TeamUser</title>
<ellipse fill="none" stroke="black" cx="1256" cy="-518" rx="57.2688" ry="18"/>
<text text-anchor="middle" x="1256" y="-514.3" font-family="Times,serif" font-size="14.00">TeamUser</text>
</g>
<!-- User&#45;&gt;TeamUser -->
<g id="edge9" class="edge"><title>User&#45;&gt;TeamUser</title>
<path fill="none" stroke="#0c4e26" d="M1396.36,-640.227C1390.75,-620.312 1380.41,-592.673 1363,-574 1347.01,-556.856 1324.48,-544.173 1304.21,-535.335"/>
<ellipse fill="none" stroke="#0c4e26" cx="1397.39" cy="-644.109" rx="4.00001" ry="4.00001"/>
<polygon fill="#0c4e26" stroke="#0c4e26" points="1304.02,-535.257 1296.51,-527.267 1299.41,-533.34 1294.79,-531.423 1294.79,-531.423 1294.79,-531.423 1299.41,-533.34 1293.06,-535.579 1304.02,-535.257 1304.02,-535.257"/>
</g>
<!-- Relationship -->
<g id="node9" class="node"><title>Relationship</title>
<ellipse fill="none" stroke="black" cx="1073" cy="-106" rx="68.3417" ry="18"/>
<text text-anchor="middle" x="1073" y="-102.3" font-family="Times,serif" font-size="14.00">Relationship</text>
</g>
<!-- Relationship&#45;&gt;PaperTrail::Version -->
<g id="edge13" class="edge"><title>Relationship&#45;&gt;PaperTrail::Version</title>
<path fill="none" stroke="#c60afe" d="M1032.04,-86.8417C1000.45,-72.8373 956.786,-53.4824 924.181,-39.0289"/>
<ellipse fill="none" stroke="#c60afe" cx="1035.99" cy="-88.595" rx="4.00002" ry="4.00002"/>
<polygon fill="#c60afe" stroke="#c60afe" points="924.013,-38.9545 916.695,-30.7879 919.442,-36.9281 914.871,-34.9018 914.871,-34.9018 914.871,-34.9018 919.442,-36.9281 913.048,-39.0157 924.013,-38.9545 924.013,-38.9545"/>
<text text-anchor="middle" x="1024.5" y="-58.3" font-family="Times,serif" font-size="14.00">versions</text>
</g>
<!-- UploadedFile -->
<g id="node10" class="node"><title>UploadedFile</title>
<ellipse fill="none" stroke="black" cx="848" cy="-444" rx="72.2155" ry="18"/>
<text text-anchor="middle" x="848" y="-440.3" font-family="Times,serif" font-size="14.00">UploadedFile</text>
</g>
<!-- ProjectMedia -->
<g id="node12" class="node"><title>ProjectMedia</title>
<ellipse fill="none" stroke="black" cx="991" cy="-194" rx="73.1654" ry="18"/>
<text text-anchor="middle" x="991" y="-190.3" font-family="Times,serif" font-size="14.00">ProjectMedia</text>
</g>
<!-- UploadedFile&#45;&gt;ProjectMedia -->
<g id="edge15" class="edge"><title>UploadedFile&#45;&gt;ProjectMedia</title>
<path fill="none" stroke="#ee2586" d="M866.572,-420.042C901.181,-376.754 973.281,-284.011 987,-246 989.695,-238.534 990.995,-230.065 991.547,-222.203"/>
<ellipse fill="none" stroke="#ee2586" cx="864.054" cy="-423.183" rx="4.00002" ry="4.00002"/>
<polygon fill="#ee2586" stroke="#ee2586" points="991.554,-222.004 996.393,-212.164 991.725,-217.007 991.895,-212.01 991.895,-212.01 991.895,-212.01 991.725,-217.007 987.398,-211.856 991.554,-222.004 991.554,-222.004"/>
</g>
<!-- UploadedFile&#45;&gt;Project -->
<g id="edge16" class="edge"><title>UploadedFile&#45;&gt;Project</title>
<path fill="none" stroke="#9183d2" d="M908.975,-428.746C967.653,-415.029 1055.15,-394.576 1108.73,-382.051"/>
<polygon fill="#9183d2" stroke="#9183d2" points="908.597,-428.834 897.836,-426.729 903.729,-429.972 898.86,-431.111 898.86,-431.111 898.86,-431.111 903.729,-429.972 899.884,-435.493 908.597,-428.834 908.597,-428.834"/>
<polygon fill="#9183d2" stroke="#9183d2" points="1108.91,-382.008 1119.67,-384.114 1113.78,-380.87 1118.65,-379.732 1118.65,-379.732 1118.65,-379.732 1113.78,-380.87 1117.62,-375.35 1108.91,-382.008 1108.91,-382.008"/>
</g>
<!-- UploadedFile&#45;&gt;PaperTrail::Version -->
<g id="edge14" class="edge"><title>UploadedFile&#45;&gt;PaperTrail::Version</title>
<path fill="none" stroke="#87f7da" d="M836.136,-418.585C812.6,-369.932 761.918,-264.005 758,-246 756.488,-239.052 756.679,-236.987 758,-230 773.605,-147.443 774.431,-119.542 827,-54 830.751,-49.3231 835.296,-45.0381 840.12,-41.1931"/>
<ellipse fill="none" stroke="#87f7da" cx="837.926" cy="-422.28" rx="4.00002" ry="4.00002"/>
<polygon fill="#87f7da" stroke="#87f7da" points="840.33,-41.0396 851.061,-38.7814 844.37,-38.0928 848.409,-35.146 848.409,-35.146 848.409,-35.146 844.37,-38.0928 845.757,-31.5105 840.33,-41.0396 840.33,-41.0396"/>
<text text-anchor="middle" x="788.5" y="-234.3" font-family="Times,serif" font-size="14.00">versions</text>
</g>
<!-- ApiKey -->
<g id="node11" class="node"><title>ApiKey</title>
<ellipse fill="none" stroke="black" cx="1279" cy="-740" rx="43.319" ry="18"/>
<text text-anchor="middle" x="1279" y="-736.3" font-family="Times,serif" font-size="14.00">ApiKey</text>
</g>
<!-- BotUser -->
<g id="node24" class="node"><title>BotUser</title>
<ellipse fill="none" stroke="black" cx="1279" cy="-666" rx="48.6179" ry="18"/>
<text text-anchor="middle" x="1279" y="-662.3" font-family="Times,serif" font-size="14.00">BotUser</text>
</g>
<!-- ApiKey&#45;&gt;BotUser -->
<g id="edge17" class="edge"><title>ApiKey&#45;&gt;BotUser</title>
<path fill="none" stroke="#f4186e" d="M1279,-713.792C1279,-706.974 1279,-699.588 1279,-692.741"/>
<ellipse fill="none" stroke="#f4186e" cx="1279" cy="-717.937" rx="4" ry="4"/>
<ellipse fill="#f4186e" stroke="#f4186e" cx="1279" cy="-688.441" rx="4" ry="4"/>
</g>
<!-- ProjectMedia&#45;&gt;Relationship -->
<g id="edge18" class="edge"><title>ProjectMedia&#45;&gt;Relationship</title>
<path fill="none" stroke="#1164c8" d="M952.467,-173.179C940.06,-164.169 931.472,-153.063 940,-142 944.69,-135.916 978.273,-127.105 1010.52,-119.845"/>
<ellipse fill="none" stroke="#1164c8" cx="955.905" cy="-175.47" rx="4.00002" ry="4.00002"/>
<polygon fill="#1164c8" stroke="#1164c8" points="1010.68,-119.808 1021.42,-122.04 1015.56,-118.728 1020.45,-117.647 1020.45,-117.647 1020.45,-117.647 1015.56,-118.728 1019.47,-113.253 1010.68,-119.808 1010.68,-119.808"/>
<text text-anchor="middle" x="1012.5" y="-146.3" font-family="Times,serif" font-size="14.00">target_relationships</text>
</g>
<!-- ProjectMedia&#45;&gt;Relationship -->
<g id="edge19" class="edge"><title>ProjectMedia&#45;&gt;Relationship</title>
<path fill="none" stroke="#0c2501" d="M1057.58,-179.887C1068.37,-174.805 1078.22,-167.761 1085,-158 1090,-150.805 1089.54,-141.806 1087.02,-133.377"/>
<ellipse fill="none" stroke="#0c2501" cx="1053.66" cy="-181.543" rx="4.00002" ry="4.00002"/>
<polygon fill="#0c2501" stroke="#0c2501" points="1086.95,-133.205 1087.51,-122.253 1085.13,-128.546 1083.32,-123.888 1083.32,-123.888 1083.32,-123.888 1085.13,-128.546 1079.12,-125.523 1086.95,-133.205 1086.95,-133.205"/>
<text text-anchor="middle" x="1163.5" y="-146.3" font-family="Times,serif" font-size="14.00">source_relationships</text>
</g>
<!-- ProjectMedia&#45;&gt;ProjectMedia -->
<g id="edge20" class="edge"><title>ProjectMedia&#45;&gt;ProjectMedia</title>
<path fill="none" stroke="#2e5f51" d="M1073.07,-196.974C1078.63,-196.288 1082,-195.297 1082,-194 1082,-192.703 1078.63,-191.712 1073.07,-191.026"/>
<polygon fill="#2e5f51" stroke="#2e5f51" points="1072.69,-197.004 1062.36,-193.313 1067.7,-197.401 1062.72,-197.799 1062.72,-197.799 1062.72,-197.799 1067.7,-197.401 1063.08,-202.284 1072.69,-197.004 1072.69,-197.004"/>
<polygon fill="#2e5f51" stroke="#2e5f51" points="1072.69,-190.996 1063.08,-185.716 1067.7,-190.599 1062.72,-190.201 1062.72,-190.201 1062.72,-190.201 1067.7,-190.599 1062.36,-194.687 1072.69,-190.996 1072.69,-190.996"/>
<text text-anchor="middle" x="1110" y="-190.3" font-family="Times,serif" font-size="14.00">sources</text>
</g>
<!-- ProjectMedia&#45;&gt;ProjectMedia -->
<g id="edge21" class="edge"><title>ProjectMedia&#45;&gt;ProjectMedia</title>
<path fill="none" stroke="#e72c5d" d="M1067.32,-202.149C1103.88,-202.824 1138,-200.107 1138,-194 1138,-187.893 1103.88,-185.176 1067.32,-185.851"/>
<polygon fill="#e72c5d" stroke="#e72c5d" points="1066.96,-202.14 1057.09,-197.371 1061.96,-202.005 1056.97,-201.869 1056.97,-201.869 1056.97,-201.869 1061.96,-202.005 1056.84,-206.368 1066.96,-202.14 1066.96,-202.14"/>
<polygon fill="#e72c5d" stroke="#e72c5d" points="1066.96,-185.86 1056.84,-181.632 1061.96,-185.995 1056.97,-186.131 1056.97,-186.131 1056.97,-186.131 1061.96,-185.995 1057.09,-190.629 1066.96,-185.86 1066.96,-185.86"/>
<text text-anchor="middle" x="1164" y="-190.3" font-family="Times,serif" font-size="14.00">targets</text>
</g>
<!-- ProjectMedia&#45;&gt;PaperTrail::Version -->
<g id="edge22" class="edge"><title>ProjectMedia&#45;&gt;PaperTrail::Version</title>
<path fill="none" stroke="#e03ee6" d="M950.407,-173.331C943.995,-168.94 937.882,-163.825 933,-158 901.191,-120.043 911.086,-100.103 893,-54 891.925,-51.2584 890.795,-48.3992 889.662,-45.5484"/>
<ellipse fill="none" stroke="#e03ee6" cx="954.064" cy="-175.662" rx="4.00002" ry="4.00002"/>
<polygon fill="#e03ee6" stroke="#e03ee6" points="889.587,-45.3598 890.061,-34.4042 887.734,-40.7158 885.882,-36.0718 885.882,-36.0718 885.882,-36.0718 887.734,-40.7158 881.702,-37.7393 889.587,-45.3598 889.587,-45.3598"/>
<text text-anchor="middle" x="943.5" y="-102.3" font-family="Times,serif" font-size="14.00">versions</text>
</g>
<!-- Source -->
<g id="node15" class="node"><title>Source</title>
<ellipse fill="none" stroke="black" cx="1497" cy="-444" rx="42.3456" ry="18"/>
<text text-anchor="middle" x="1497" y="-440.3" font-family="Times,serif" font-size="14.00">Source</text>
</g>
<!-- Account&#45;&gt;Source -->
<g id="edge26" class="edge"><title>Account&#45;&gt;Source</title>
<path fill="none" stroke="#0b2a4a" d="M1497,-489.719C1497,-484.145 1497,-478.274 1497,-472.686"/>
<polygon fill="#0b2a4a" stroke="#0b2a4a" points="1497,-489.937 1492.5,-499.937 1497,-494.937 1497,-499.937 1497,-499.937 1497,-499.937 1497,-494.937 1501.5,-499.937 1497,-489.937 1497,-489.937"/>
<polygon fill="#0b2a4a" stroke="#0b2a4a" points="1497,-472.441 1501.5,-462.441 1497,-467.441 1497,-462.441 1497,-462.441 1497,-462.441 1497,-467.441 1492.5,-462.441 1497,-472.441 1497,-472.441"/>
</g>
<!-- Media -->
<g id="node22" class="node"><title>Media</title>
<ellipse fill="none" stroke="black" cx="1258" cy="-282" rx="39.9464" ry="18"/>
<text text-anchor="middle" x="1258" y="-278.3" font-family="Times,serif" font-size="14.00">Media</text>
</g>
<!-- Account&#45;&gt;Media -->
<g id="edge24" class="edge"><title>Account&#45;&gt;Media</title>
<path fill="none" stroke="#39991e" d="M1474.8,-495.267C1429.64,-451.047 1327.43,-350.977 1281.33,-305.841"/>
<ellipse fill="none" stroke="#39991e" cx="1477.71" cy="-498.118" rx="4.00002" ry="4.00002"/>
<polygon fill="#39991e" stroke="#39991e" points="1281.06,-305.576 1277.06,-295.365 1277.49,-302.078 1273.91,-298.58 1273.91,-298.58 1273.91,-298.58 1277.49,-302.078 1270.76,-301.796 1281.06,-305.576 1281.06,-305.576"/>
</g>
<!-- AccountSource -->
<g id="node23" class="node"><title>AccountSource</title>
<ellipse fill="none" stroke="black" cx="1644" cy="-370" rx="81.3646" ry="18"/>
<text text-anchor="middle" x="1644" y="-366.3" font-family="Times,serif" font-size="14.00">AccountSource</text>
</g>
<!-- Account&#45;&gt;AccountSource -->
<g id="edge25" class="edge"><title>Account&#45;&gt;AccountSource</title>
<path fill="none" stroke="#c58484" d="M1519.26,-494.889C1546.34,-467.996 1591.88,-422.765 1619.8,-395.032"/>
<ellipse fill="none" stroke="#c58484" cx="1516.13" cy="-497.999" rx="4.00002" ry="4.00002"/>
<polygon fill="#c58484" stroke="#c58484" points="1620.09,-394.751 1630.35,-390.896 1623.63,-391.227 1627.18,-387.704 1627.18,-387.704 1627.18,-387.704 1623.63,-391.227 1624.01,-384.511 1620.09,-394.751 1620.09,-394.751"/>
</g>
<!-- Account&#45;&gt;PaperTrail::Version -->
<g id="edge23" class="edge"><title>Account&#45;&gt;PaperTrail::Version</title>
<path fill="none" stroke="#e6917a" d="M1552.58,-512.589C1627.87,-505.054 1753,-486.316 1753,-445 1753,-445 1753,-445 1753,-105 1753,-29.0372 1223.35,-19.2265 988.676,-18.6078"/>
<ellipse fill="none" stroke="#e6917a" cx="1548.53" cy="-512.982" rx="4" ry="4"/>
<polygon fill="#e6917a" stroke="#e6917a" points="988.408,-18.6073 978.418,-14.0861 983.408,-18.5967 978.408,-18.5861 978.408,-18.5861 978.408,-18.5861 983.408,-18.5967 978.398,-23.0861 988.408,-18.6073 988.408,-18.6073"/>
<text text-anchor="middle" x="1783.5" y="-278.3" font-family="Times,serif" font-size="14.00">versions</text>
</g>
<!-- Team&#45;&gt;Account -->
<g id="edge29" class="edge"><title>Team&#45;&gt;Account</title>
<path fill="none" stroke="#51b980" d="M1353.49,-577.048C1382.67,-565.247 1424.55,-548.307 1455.54,-535.77"/>
<ellipse fill="none" stroke="#51b980" cx="1349.74" cy="-578.565" rx="4.00002" ry="4.00002"/>
<polygon fill="#51b980" stroke="#51b980" points="1455.92,-535.616 1466.88,-536.038 1460.56,-533.741 1465.19,-531.866 1465.19,-531.866 1465.19,-531.866 1460.56,-533.741 1463.5,-527.695 1455.92,-535.616 1455.92,-535.616"/>
</g>
<!-- Team&#45;&gt;Source -->
<g id="edge32" class="edge"><title>Team&#45;&gt;Source</title>
<path fill="none" stroke="#90d924" d="M1343.4,-570.987C1376.74,-543.643 1436.29,-494.797 1470.63,-466.633"/>
<ellipse fill="none" stroke="#90d924" cx="1340.14" cy="-573.661" rx="4.00002" ry="4.00002"/>
<polygon fill="#90d924" stroke="#90d924" points="1470.64,-466.622 1481.22,-463.759 1474.51,-463.451 1478.37,-460.28 1478.37,-460.28 1478.37,-460.28 1474.51,-463.451 1475.52,-456.801 1470.64,-466.622 1470.64,-466.622"/>
</g>
<!-- Contact -->
<g id="node16" class="node"><title>Contact</title>
<ellipse fill="none" stroke="black" cx="1132" cy="-518" rx="48.1437" ry="18"/>
<text text-anchor="middle" x="1132" y="-514.3" font-family="Times,serif" font-size="14.00">Contact</text>
</g>
<!-- Team&#45;&gt;Contact -->
<g id="edge31" class="edge"><title>Team&#45;&gt;Contact</title>
<path fill="none" stroke="#7ee9d1" d="M1283.94,-577.501C1252.71,-565.478 1206.97,-547.865 1173.84,-535.109"/>
<ellipse fill="none" stroke="#7ee9d1" cx="1287.67" cy="-578.939" rx="4.00001" ry="4.00001"/>
<polygon fill="#7ee9d1" stroke="#7ee9d1" points="1173.75,-535.077 1166.04,-527.284 1169.09,-533.28 1164.42,-531.484 1164.42,-531.484 1164.42,-531.484 1169.09,-533.28 1162.81,-535.683 1173.75,-535.077 1173.75,-535.077"/>
</g>
<!-- Team&#45;&gt;Project -->
<g id="edge28" class="edge"><title>Team&#45;&gt;Project</title>
<path fill="none" stroke="#e20ffe" d="M1327.65,-566.243C1332.91,-546.338 1336.19,-518.703 1322,-500 1303.03,-475.003 1208.69,-483.673 1186,-462 1168.66,-445.444 1161.34,-418.693 1158.25,-398.47"/>
<ellipse fill="none" stroke="#e20ffe" cx="1326.51" cy="-570.145" rx="4.00001" ry="4.00001"/>
<polygon fill="#e20ffe" stroke="#e20ffe" points="1158.22,-398.217 1161.42,-387.73 1157.59,-393.257 1156.96,-388.297 1156.96,-388.297 1156.96,-388.297 1157.59,-393.257 1152.49,-388.863 1158.22,-398.217 1158.22,-398.217"/>
</g>
<!-- Team&#45;&gt;TeamUser -->
<g id="edge30" class="edge"><title>Team&#45;&gt;TeamUser</title>
<path fill="none" stroke="#0e0731" d="M1303.82,-567.871C1300.43,-563.149 1296.73,-558.31 1293,-554 1289.62,-550.087 1285.85,-546.134 1282.05,-542.365"/>
<ellipse fill="none" stroke="#0e0731" cx="1306.25" cy="-571.351" rx="4.00002" ry="4.00002"/>
<polygon fill="#0e0731" stroke="#0e0731" points="1282,-542.324 1277.9,-532.153 1278.4,-538.862 1274.79,-535.4 1274.79,-535.4 1274.79,-535.4 1278.4,-538.862 1271.67,-538.648 1282,-542.324 1282,-542.324"/>
</g>
<!-- Team&#45;&gt;PaperTrail::Version -->
<g id="edge27" class="edge"><title>Team&#45;&gt;PaperTrail::Version</title>
<path fill="none" stroke="#0c1db7" d="M1275.3,-590.299C1137.95,-587.522 724,-574.545 724,-519 724,-519 724,-519 724,-281 724,-191.684 735.718,-165.565 780,-88 791.98,-67.0158 813.26,-50.9342 833.029,-39.597"/>
<ellipse fill="none" stroke="#0c1db7" cx="1279.56" cy="-590.382" rx="4" ry="4"/>
<polygon fill="#0c1db7" stroke="#0c1db7" points="833.188,-39.5103 844.121,-38.6717 837.577,-37.1158 841.966,-34.7212 841.966,-34.7212 841.966,-34.7212 837.577,-37.1158 839.811,-30.7708 833.188,-39.5103 833.188,-39.5103"/>
<text text-anchor="middle" x="754.5" y="-322.3" font-family="Times,serif" font-size="14.00">versions</text>
</g>
<!-- Source&#45;&gt;Project -->
<g id="edge36" class="edge"><title>Source&#45;&gt;Project</title>
<path fill="none" stroke="#6814a9" d="M1449.82,-433.038C1385.1,-419.373 1269.39,-394.942 1204.16,-381.168"/>
<polygon fill="#6814a9" stroke="#6814a9" points="1450.07,-433.092 1458.93,-439.561 1454.97,-434.125 1459.86,-435.158 1459.86,-435.158 1459.86,-435.158 1454.97,-434.125 1460.79,-430.755 1450.07,-433.092 1450.07,-433.092"/>
<polygon fill="#6814a9" stroke="#6814a9" points="1203.92,-381.118 1195.07,-374.65 1199.03,-380.085 1194.14,-379.052 1194.14,-379.052 1194.14,-379.052 1199.03,-380.085 1193.21,-383.455 1203.92,-381.118 1203.92,-381.118"/>
</g>
<!-- Source&#45;&gt;AccountSource -->
<g id="edge35" class="edge"><title>Source&#45;&gt;AccountSource</title>
<path fill="none" stroke="#16497c" d="M1530.93,-426.381C1552.45,-415.843 1580.41,-402.149 1603.14,-391.014"/>
<ellipse fill="none" stroke="#16497c" cx="1527.21" cy="-428.202" rx="4.00002" ry="4.00002"/>
<polygon fill="#16497c" stroke="#16497c" points="1603.23,-390.971 1614.19,-390.614 1607.72,-388.772 1612.21,-386.573 1612.21,-386.573 1612.21,-386.573 1607.72,-388.772 1610.23,-382.531 1603.23,-390.971 1603.23,-390.971"/>
</g>
<!-- ProjectSource -->
<g id="node26" class="node"><title>ProjectSource</title>
<ellipse fill="none" stroke="black" cx="1393" cy="-282" rx="76.5394" ry="18"/>
<text text-anchor="middle" x="1393" y="-278.3" font-family="Times,serif" font-size="14.00">ProjectSource</text>
</g>
<!-- Source&#45;&gt;ProjectSource -->
<g id="edge34" class="edge"><title>Source&#45;&gt;ProjectSource</title>
<path fill="none" stroke="#266c55" d="M1488.28,-418.269C1478.14,-391.729 1459.62,-349.188 1435,-318 1431.7,-313.823 1427.84,-309.797 1423.81,-306.057"/>
<ellipse fill="none" stroke="#266c55" cx="1489.75" cy="-422.214" rx="4.00001" ry="4.00001"/>
<polygon fill="#266c55" stroke="#266c55" points="1423.52,-305.805 1418.91,-295.851 1419.74,-302.527 1415.96,-299.249 1415.96,-299.249 1415.96,-299.249 1419.74,-302.527 1413.01,-302.648 1423.52,-305.805 1423.52,-305.805"/>
</g>
<!-- Source&#45;&gt;PaperTrail::Version -->
<g id="edge33" class="edge"><title>Source&#45;&gt;PaperTrail::Version</title>
<path fill="none" stroke="#be3293" d="M1508.1,-418.831C1524.95,-378.701 1552.81,-296.185 1531,-230 1506.43,-155.453 1485.46,-139.235 1426,-88 1401.6,-66.9754 1392.95,-62.9116 1362,-54 1294.14,-34.4628 1107.38,-25.4955 986.969,-21.6387"/>
<ellipse fill="none" stroke="#be3293" cx="1506.48" cy="-422.601" rx="4.00002" ry="4.00002"/>
<polygon fill="#be3293" stroke="#be3293" points="986.61,-21.6275 976.755,-16.8166 981.612,-21.4709 976.614,-21.3144 976.614,-21.3144 976.614,-21.3144 981.612,-21.4709 976.474,-25.8122 986.61,-21.6275 986.61,-21.6275"/>
<text text-anchor="middle" x="1565.5" y="-234.3" font-family="Times,serif" font-size="14.00">versions</text>
</g>
<!-- ClaimSource -->
<g id="node17" class="node"><title>ClaimSource</title>
<ellipse fill="none" stroke="black" cx="1411" cy="-740" rx="70.2909" ry="18"/>
<text text-anchor="middle" x="1411" y="-736.3" font-family="Times,serif" font-size="14.00">ClaimSource</text>
</g>
<!-- Link -->
<g id="node18" class="node"><title>Link</title>
<ellipse fill="none" stroke="black" cx="970" cy="-444" rx="31.2735" ry="18"/>
<text text-anchor="middle" x="970" y="-440.3" font-family="Times,serif" font-size="14.00">Link</text>
</g>
<!-- Link&#45;&gt;ProjectMedia -->
<g id="edge38" class="edge"><title>Link&#45;&gt;ProjectMedia</title>
<path fill="none" stroke="#64f548" d="M977.023,-418.282C987.152,-381.221 1005.37,-308.886 1012,-246 1012.75,-238.928 1013.9,-236.853 1012,-230 1011.16,-226.957 1009.97,-223.913 1008.59,-220.96"/>
<ellipse fill="none" stroke="#64f548" cx="975.938" cy="-422.21" rx="4.00001" ry="4.00001"/>
<polygon fill="#64f548" stroke="#64f548" points="1008.46,-220.73 1007.62,-209.796 1006.07,-216.341 1003.67,-211.953 1003.67,-211.953 1003.67,-211.953 1006.07,-216.341 999.721,-214.109 1008.46,-220.73 1008.46,-220.73"/>
</g>
<!-- Link&#45;&gt;Project -->
<g id="edge39" class="edge"><title>Link&#45;&gt;Project</title>
<path fill="none" stroke="#81894d" d="M1004.15,-428.749C1006.46,-427.811 1008.76,-426.887 1011,-426 1045.96,-412.125 1085.95,-397.014 1115.06,-386.148"/>
<polygon fill="#81894d" stroke="#81894d" points="1003.92,-428.842 992.962,-428.465 999.294,-430.736 994.667,-432.63 994.667,-432.63 994.667,-432.63 999.294,-430.736 996.371,-436.794 1003.92,-428.842 1003.92,-428.842"/>
<polygon fill="#81894d" stroke="#81894d" points="1115.13,-386.125 1126.07,-386.851 1119.81,-384.379 1124.5,-382.634 1124.5,-382.634 1124.5,-382.634 1119.81,-384.379 1122.93,-378.417 1115.13,-386.125 1115.13,-386.125"/>
</g>
<!-- Link&#45;&gt;PaperTrail::Version -->
<g id="edge37" class="edge"><title>Link&#45;&gt;PaperTrail::Version</title>
<path fill="none" stroke="#6fef2d" d="M949.791,-421.432C919.388,-387.338 863.186,-317.49 842,-246 821.046,-175.292 849.586,-88.4556 867.11,-45.5666"/>
<ellipse fill="none" stroke="#6fef2d" cx="952.829" cy="-424.795" rx="4.00002" ry="4.00002"/>
<polygon fill="#6fef2d" stroke="#6fef2d" points="867.202,-45.3469 875.229,-37.8753 869.142,-40.7384 871.081,-36.1298 871.081,-36.1298 871.081,-36.1298 869.142,-40.7384 866.934,-34.3843 867.202,-45.3469 867.202,-45.3469"/>
<text text-anchor="middle" x="872.5" y="-234.3" font-family="Times,serif" font-size="14.00">versions</text>
</g>
<!-- Project&#45;&gt;ProjectMedia -->
<g id="edge42" class="edge"><title>Project&#45;&gt;ProjectMedia</title>
<path fill="none" stroke="#52b61f" d="M1142.56,-345.221C1122.46,-310.256 1084.8,-247.242 1065,-230 1057.68,-223.627 1049,-218.164 1040.21,-213.579"/>
<ellipse fill="none" stroke="#52b61f" cx="1144.59" cy="-348.759" rx="4.00002" ry="4.00002"/>
<polygon fill="#52b61f" stroke="#52b61f" points="1040.05,-213.499 1033.03,-205.072 1035.55,-211.308 1031.06,-209.116 1031.06,-209.116 1031.06,-209.116 1035.55,-211.308 1029.09,-213.161 1040.05,-213.499 1040.05,-213.499"/>
</g>
<!-- Project&#45;&gt;Media -->
<g id="edge43" class="edge"><title>Project&#45;&gt;Media</title>
<path fill="none" stroke="#3db7bf" d="M1172.35,-344.234C1179.01,-335.296 1187.2,-325.558 1196,-318 1203.8,-311.294 1213.09,-305.248 1222.07,-300.142"/>
<polygon fill="#3db7bf" stroke="#3db7bf" points="1172.29,-344.324 1162.81,-349.846 1169.38,-348.393 1166.48,-352.462 1166.48,-352.462 1166.48,-352.462 1169.38,-348.393 1170.14,-355.077 1172.29,-344.324 1172.29,-344.324"/>
<polygon fill="#3db7bf" stroke="#3db7bf" points="1222.09,-300.131 1233.02,-299.315 1226.48,-297.746 1230.88,-295.36 1230.88,-295.36 1230.88,-295.36 1226.48,-297.746 1228.73,-291.406 1222.09,-300.131 1222.09,-300.131"/>
</g>
<!-- Project&#45;&gt;ProjectSource -->
<g id="edge41" class="edge"><title>Project&#45;&gt;ProjectSource</title>
<path fill="none" stroke="#5d20ae" d="M1195.55,-354.649C1236.23,-339.886 1299.7,-316.857 1343.64,-300.91"/>
<ellipse fill="none" stroke="#5d20ae" cx="1191.72" cy="-356.037" rx="4.00001" ry="4.00001"/>
<polygon fill="#5d20ae" stroke="#5d20ae" points="1343.86,-300.831 1354.8,-301.65 1348.56,-299.125 1353.26,-297.419 1353.26,-297.419 1353.26,-297.419 1348.56,-299.125 1351.73,-293.189 1343.86,-300.831 1343.86,-300.831"/>
</g>
<!-- Project&#45;&gt;PaperTrail::Version -->
<g id="edge40" class="edge"><title>Project&#45;&gt;PaperTrail::Version</title>
<path fill="none" stroke="#4b6763" d="M1166.56,-344.623C1188.69,-293.302 1238.23,-177.247 1242,-158 1243.37,-151.022 1245.53,-148.171 1242,-142 1197.16,-63.6811 1145.86,-78.4899 1059,-54 1027.75,-45.1907 992.841,-37.8461 962.14,-32.197"/>
<ellipse fill="none" stroke="#4b6763" cx="1164.96" cy="-348.321" rx="4.00002" ry="4.00002"/>
<polygon fill="#4b6763" stroke="#4b6763" points="961.741,-32.1251 952.701,-25.9183 956.821,-31.2359 951.9,-30.3466 951.9,-30.3466 951.9,-30.3466 956.821,-31.2359 951.1,-34.7749 961.741,-32.1251 961.741,-32.1251"/>
<text text-anchor="middle" x="1267.5" y="-190.3" font-family="Times,serif" font-size="14.00">versions</text>
</g>
<!-- Claim -->
<g id="node20" class="node"><title>Claim</title>
<ellipse fill="none" stroke="black" cx="1058" cy="-444" rx="38.0212" ry="18"/>
<text text-anchor="middle" x="1058" y="-440.3" font-family="Times,serif" font-size="14.00">Claim</text>
</g>
<!-- Claim&#45;&gt;ProjectMedia -->
<g id="edge45" class="edge"><title>Claim&#45;&gt;ProjectMedia</title>
<path fill="none" stroke="#b6cc59" d="M1059.41,-417.674C1060.64,-376.101 1058.57,-291.835 1027,-230 1024.94,-225.96 1022.23,-222.117 1019.22,-218.557"/>
<ellipse fill="none" stroke="#b6cc59" cx="1059.25" cy="-421.877" rx="4" ry="4"/>
<polygon fill="#b6cc59" stroke="#b6cc59" points="1019.16,-218.503 1015.54,-208.152 1015.72,-214.877 1012.28,-211.25 1012.28,-211.25 1012.28,-211.25 1015.72,-214.877 1009.02,-214.348 1019.16,-218.503 1019.16,-218.503"/>
</g>
<!-- Claim&#45;&gt;Project -->
<g id="edge46" class="edge"><title>Claim&#45;&gt;Project</title>
<path fill="none" stroke="#e257c7" d="M1086.17,-422.305C1099.09,-412.809 1114.4,-401.566 1127.38,-392.03"/>
<polygon fill="#e257c7" stroke="#e257c7" points="1085.89,-422.509 1075.17,-424.803 1081.86,-425.469 1077.83,-428.43 1077.83,-428.43 1077.83,-428.43 1081.86,-425.469 1080.5,-432.056 1085.89,-422.509 1085.89,-422.509"/>
<polygon fill="#e257c7" stroke="#e257c7" points="1127.46,-391.965 1138.19,-389.671 1131.49,-389.005 1135.52,-386.044 1135.52,-386.044 1135.52,-386.044 1131.49,-389.005 1132.86,-382.418 1127.46,-391.965 1127.46,-391.965"/>
</g>
<!-- Claim&#45;&gt;PaperTrail::Version -->
<g id="edge44" class="edge"><title>Claim&#45;&gt;PaperTrail::Version</title>
<path fill="none" stroke="#d62ca4" d="M1038.86,-420.586C1006.39,-381.235 940.923,-295.908 909,-212 887.6,-155.751 881.453,-84.731 879.696,-46.4568"/>
<ellipse fill="none" stroke="#d62ca4" cx="1041.59" cy="-423.87" rx="4.00002" ry="4.00002"/>
<polygon fill="#d62ca4" stroke="#d62ca4" points="879.683,-46.1177 883.79,-35.95 879.488,-41.1215 879.293,-36.1253 879.293,-36.1253 879.293,-36.1253 879.488,-41.1215 874.797,-36.3005 879.683,-46.1177 879.683,-46.1177"/>
<text text-anchor="middle" x="953.5" y="-234.3" font-family="Times,serif" font-size="14.00">versions</text>
</g>
<!-- Media&#45;&gt;ProjectMedia -->
<g id="edge48" class="edge"><title>Media&#45;&gt;ProjectMedia</title>
<path fill="none" stroke="#c45cdd" d="M1239.63,-258.299C1230.09,-248.038 1217.59,-236.73 1204,-230 1163.91,-210.144 1114.89,-201.196 1073.99,-197.3"/>
<ellipse fill="none" stroke="#c45cdd" cx="1242.51" cy="-261.519" rx="4.00002" ry="4.00002"/>
<polygon fill="#c45cdd" stroke="#c45cdd" points="1073.73,-197.279 1064.16,-191.932 1068.75,-196.847 1063.77,-196.415 1063.77,-196.415 1063.77,-196.415 1068.75,-196.847 1063.38,-200.898 1073.73,-197.279 1073.73,-197.279"/>
</g>
<!-- Media&#45;&gt;PaperTrail::Version -->
<g id="edge47" class="edge"><title>Media&#45;&gt;PaperTrail::Version</title>
<path fill="none" stroke="#b0e619" d="M1279.77,-259.235C1290.84,-246.599 1303.17,-229.711 1309,-212 1316.72,-188.561 1294.13,-62.1881 1285,-54 1263.18,-34.4225 1099.42,-25.5242 986.669,-21.6833"/>
<ellipse fill="none" stroke="#b0e619" cx="1276.83" cy="-262.476" rx="4.00002" ry="4.00002"/>
<polygon fill="#b0e619" stroke="#b0e619" points="986.599,-21.6811 976.754,-16.8517 981.602,-21.5152 976.605,-21.3492 976.605,-21.3492 976.605,-21.3492 981.602,-21.5152 976.455,-25.8467 986.599,-21.6811 986.599,-21.6811"/>
<text text-anchor="middle" x="1338.5" y="-146.3" font-family="Times,serif" font-size="14.00">versions</text>
</g>
<!-- BotUser&#45;&gt;Account -->
<g id="edge52" class="edge"><title>BotUser&#45;&gt;Account</title>
<path fill="none" stroke="#a4ee44" d="M1309.3,-645.336C1325.31,-634.901 1345.27,-621.825 1363,-610 1398.68,-586.207 1439.4,-558.47 1466.5,-539.93"/>
<ellipse fill="none" stroke="#a4ee44" cx="1305.6" cy="-647.748" rx="4.00002" ry="4.00002"/>
<polygon fill="#a4ee44" stroke="#a4ee44" points="1466.54,-539.9 1477.33,-537.964 1470.66,-537.075 1474.79,-534.25 1474.79,-534.25 1474.79,-534.25 1470.66,-537.075 1472.25,-530.537 1466.54,-539.9 1466.54,-539.9"/>
</g>
<!-- BotUser&#45;&gt;Team -->
<g id="edge50" class="edge"><title>BotUser&#45;&gt;Team</title>
<path fill="none" stroke="#7ee68d" d="M1293.29,-639.287C1297.06,-632.497 1301.12,-625.175 1304.89,-618.402"/>
<polygon fill="#7ee68d" stroke="#7ee68d" points="1293.13,-639.559 1284.34,-646.115 1290.71,-643.93 1288.28,-648.301 1288.28,-648.301 1288.28,-648.301 1290.71,-643.93 1292.21,-650.486 1293.13,-639.559 1293.13,-639.559"/>
<polygon fill="#7ee68d" stroke="#7ee68d" points="1304.92,-618.35 1313.71,-611.794 1307.34,-613.979 1309.77,-609.609 1309.77,-609.609 1309.77,-609.609 1307.34,-613.979 1305.84,-607.423 1304.92,-618.35 1304.92,-618.35"/>
</g>
<!-- BotUser&#45;&gt;Project -->
<g id="edge51" class="edge"><title>BotUser&#45;&gt;Project</title>
<path fill="none" stroke="#51a3a5" d="M1234.89,-651.463C1185.78,-633.749 1108.87,-597.493 1075,-536 1067.28,-521.985 1069.75,-515.115 1075,-500 1082.06,-479.672 1093.04,-479.885 1105,-462 1119.15,-440.849 1133.13,-415.502 1142.86,-396.938"/>
<ellipse fill="none" stroke="#51a3a5" cx="1238.75" cy="-652.82" rx="4.00001" ry="4.00001"/>
<polygon fill="#51a3a5" stroke="#51a3a5" points="1142.94,-396.783 1151.54,-389.977 1145.25,-392.345 1147.55,-387.906 1147.55,-387.906 1147.55,-387.906 1145.25,-392.345 1143.55,-385.834 1142.94,-396.783 1142.94,-396.783"/>
</g>
<!-- BotUser&#45;&gt;TeamUser -->
<g id="edge49" class="edge"><title>BotUser&#45;&gt;TeamUser</title>
<path fill="none" stroke="#8c674d" d="M1275.03,-639.8C1270.92,-613.712 1264.52,-573.09 1260.3,-546.265"/>
<ellipse fill="none" stroke="#8c674d" cx="1275.69" cy="-644.015" rx="4.00001" ry="4.00001"/>
<polygon fill="#8c674d" stroke="#8c674d" points="1260.29,-546.256 1263.18,-535.678 1259.52,-541.317 1258.74,-536.378 1258.74,-536.378 1258.74,-536.378 1259.52,-541.317 1254.29,-537.078 1260.29,-546.256 1260.29,-546.256"/>
</g>
<!-- UploadedImage -->
<g id="node25" class="node"><title>UploadedImage</title>
<ellipse fill="none" stroke="black" cx="1312" cy="-444" rx="83.2649" ry="18"/>
<text text-anchor="middle" x="1312" y="-440.3" font-family="Times,serif" font-size="14.00">UploadedImage</text>
</g>
<!-- UploadedImage&#45;&gt;ProjectMedia -->
<g id="edge54" class="edge"><title>UploadedImage&#45;&gt;ProjectMedia</title>
<path fill="none" stroke="#0ba2ea" d="M1293.27,-420.028C1257.25,-377.192 1174.08,-284.534 1086,-230 1074.09,-222.629 1060.4,-216.456 1047.18,-211.449"/>
<ellipse fill="none" stroke="#0ba2ea" cx="1295.87" cy="-423.149" rx="4.00002" ry="4.00002"/>
<polygon fill="#0ba2ea" stroke="#0ba2ea" points="1047.08,-211.412 1039.2,-203.778 1042.37,-209.71 1037.67,-208.009 1037.67,-208.009 1037.67,-208.009 1042.37,-209.71 1036.14,-212.241 1047.08,-211.412 1047.08,-211.412"/>
</g>
<!-- UploadedImage&#45;&gt;Project -->
<g id="edge55" class="edge"><title>UploadedImage&#45;&gt;Project</title>
<path fill="none" stroke="#e13290" d="M1266.69,-423.56C1255.32,-418.578 1243.18,-413.165 1232,-408 1218.94,-401.968 1204.74,-395.131 1192.19,-388.99"/>
<polygon fill="#e13290" stroke="#e13290" points="1266.85,-423.63 1274.22,-431.753 1271.44,-425.629 1276.02,-427.628 1276.02,-427.628 1276.02,-427.628 1271.44,-425.629 1277.82,-423.504 1266.85,-423.63 1266.85,-423.63"/>
<polygon fill="#e13290" stroke="#e13290" points="1191.93,-388.864 1184.94,-380.415 1187.44,-386.659 1182.96,-384.454 1182.96,-384.454 1182.96,-384.454 1187.44,-386.659 1180.97,-388.493 1191.93,-388.864 1191.93,-388.864"/>
</g>
<!-- UploadedImage&#45;&gt;PaperTrail::Version -->
<g id="edge53" class="edge"><title>UploadedImage&#45;&gt;PaperTrail::Version</title>
<path fill="none" stroke="#439a51" d="M1350.03,-423.303C1390.38,-400.012 1451.83,-357.084 1478,-300 1484.67,-285.456 1481.32,-279.651 1478,-264 1476.18,-255.436 1472.96,-254.238 1470,-246 1453.77,-200.843 1467.63,-181.916 1441,-142 1405.86,-89.3405 1387.98,-76.9979 1329,-54 1269.03,-30.615 1100.69,-22.8302 987.784,-20.2536"/>
<ellipse fill="none" stroke="#439a51" cx="1346.49" cy="-425.313" rx="4.00002" ry="4.00002"/>
<polygon fill="#439a51" stroke="#439a51" points="987.715,-20.2522 977.815,-15.5354 982.716,-20.1433 977.717,-20.0343 977.717,-20.0343 977.717,-20.0343 982.716,-20.1433 977.619,-24.5332 987.715,-20.2522 987.715,-20.2522"/>
<text text-anchor="middle" x="1500.5" y="-234.3" font-family="Times,serif" font-size="14.00">versions</text>
</g>
<!-- ProjectSource&#45;&gt;PaperTrail::Version -->
<g id="edge56" class="edge"><title>ProjectSource&#45;&gt;PaperTrail::Version</title>
<path fill="none" stroke="#adb691" d="M1392.51,-255.726C1389.94,-205.29 1375.9,-93.5993 1303,-54 1250.66,-25.5653 1095.95,-19.0676 988.654,-18.1516"/>
<ellipse fill="none" stroke="#adb691" cx="1392.68" cy="-259.842" rx="4" ry="4"/>
<polygon fill="#adb691" stroke="#adb691" points="988.423,-18.1501 978.455,-13.5799 983.423,-18.1149 978.424,-18.0798 978.424,-18.0798 978.424,-18.0798 983.423,-18.1149 978.392,-22.5797 988.423,-18.1501 988.423,-18.1501"/>
<text text-anchor="middle" x="1406.5" y="-146.3" font-family="Times,serif" font-size="14.00">versions</text>
</g>
<!-- Bounce -->
<g id="node27" class="node"><title>Bounce</title>
<ellipse fill="none" stroke="black" cx="1545" cy="-740" rx="45.244" ry="18"/>
<text text-anchor="middle" x="1545" y="-736.3" font-family="Times,serif" font-size="14.00">Bounce</text>
</g>
</g>
</svg>
