<?xml version="1.0" encoding="UTF-8" standalone="no"?>
<!DOCTYPE svg PUBLIC "-//W3C//DTD SVG 1.1//EN"
 "http://www.w3.org/Graphics/SVG/1.1/DTD/svg11.dtd">
<!-- Generated by graphviz version 2.26.3 (20100126.1600)
 -->
<!-- Title: models_diagram Pages: 1 -->
<svg width="1433pt" height="1506pt"
 viewBox="0.00 0.00 1433.00 1506.00" xmlns="http://www.w3.org/2000/svg" xmlns:xlink="http://www.w3.org/1999/xlink">
<g id="graph1" class="graph" transform="scale(1 1) rotate(0) translate(4 1502)">
<title>models_diagram</title>
<polygon fill="none" stroke="none" points="-4,5 -4,-1502 1430,-1502 1430,5 -4,5"/>
<!-- Tag -->
<g id="node1" class="node"><title>Tag</title>
<polyline fill="none" stroke="black" points="12,-1265 170,-1265 "/>
<path fill="none" stroke="black" d="M170,-1265C176,-1265 182,-1271 182,-1277"/>
<polyline fill="none" stroke="black" points="182,-1277 182,-1485 "/>
<path fill="none" stroke="black" d="M182,-1485C182,-1491 176,-1497 170,-1497"/>
<polyline fill="none" stroke="black" points="170,-1497 12,-1497 "/>
<path fill="none" stroke="black" d="M12,-1497C6,-1497 0,-1491 0,-1485"/>
<polyline fill="none" stroke="black" points="0,-1485 0,-1277 "/>
<path fill="none" stroke="black" d="M0,-1277C0,-1271 6,-1265 12,-1265"/>
<text text-anchor="middle" x="91" y="-1480.4" font-family="Times Roman,serif" font-size="14.00">Tag</text>
<polyline fill="none" stroke="black" points="0,-1471 182,-1471 "/>
<text text-anchor="start" x="8" y="-1454.4" font-family="Times Roman,serif" font-size="14.00">created_at :Time</text>
<text text-anchor="start" x="8" y="-1436.4" font-family="Times Roman,serif" font-size="14.00">updated_at :Time</text>
<text text-anchor="start" x="8" y="-1418.4" font-family="Times Roman,serif" font-size="14.00">annotation_type :String</text>
<text text-anchor="start" x="8" y="-1400.4" font-family="Times Roman,serif" font-size="14.00">version_index :Integer</text>
<text text-anchor="start" x="8" y="-1382.4" font-family="Times Roman,serif" font-size="14.00">annotated_type :String</text>
<text text-anchor="start" x="8" y="-1364.4" font-family="Times Roman,serif" font-size="14.00">annotated_id :String</text>
<text text-anchor="start" x="8" y="-1346.4" font-family="Times Roman,serif" font-size="14.00">context_type :String</text>
<text text-anchor="start" x="8" y="-1328.4" font-family="Times Roman,serif" font-size="14.00">context_id :String</text>
<text text-anchor="start" x="8" y="-1310.4" font-family="Times Roman,serif" font-size="14.00">annotator_type :String</text>
<text text-anchor="start" x="8" y="-1292.4" font-family="Times Roman,serif" font-size="14.00">annotator_id :String</text>
<text text-anchor="start" x="8" y="-1274.4" font-family="Times Roman,serif" font-size="14.00">tag :String</text>
</g>
<!-- Status -->
<g id="node2" class="node"><title>Status</title>
<polyline fill="none" stroke="black" points="212,-1265 370,-1265 "/>
<path fill="none" stroke="black" d="M370,-1265C376,-1265 382,-1271 382,-1277"/>
<polyline fill="none" stroke="black" points="382,-1277 382,-1485 "/>
<path fill="none" stroke="black" d="M382,-1485C382,-1491 376,-1497 370,-1497"/>
<polyline fill="none" stroke="black" points="370,-1497 212,-1497 "/>
<path fill="none" stroke="black" d="M212,-1497C206,-1497 200,-1491 200,-1485"/>
<polyline fill="none" stroke="black" points="200,-1485 200,-1277 "/>
<path fill="none" stroke="black" d="M200,-1277C200,-1271 206,-1265 212,-1265"/>
<text text-anchor="middle" x="291" y="-1480.4" font-family="Times Roman,serif" font-size="14.00">Status</text>
<polyline fill="none" stroke="black" points="200,-1471 382,-1471 "/>
<text text-anchor="start" x="208" y="-1454.4" font-family="Times Roman,serif" font-size="14.00">created_at :Time</text>
<text text-anchor="start" x="208" y="-1436.4" font-family="Times Roman,serif" font-size="14.00">updated_at :Time</text>
<text text-anchor="start" x="208" y="-1418.4" font-family="Times Roman,serif" font-size="14.00">annotation_type :String</text>
<text text-anchor="start" x="208" y="-1400.4" font-family="Times Roman,serif" font-size="14.00">version_index :Integer</text>
<text text-anchor="start" x="208" y="-1382.4" font-family="Times Roman,serif" font-size="14.00">annotated_type :String</text>
<text text-anchor="start" x="208" y="-1364.4" font-family="Times Roman,serif" font-size="14.00">annotated_id :String</text>
<text text-anchor="start" x="208" y="-1346.4" font-family="Times Roman,serif" font-size="14.00">context_type :String</text>
<text text-anchor="start" x="208" y="-1328.4" font-family="Times Roman,serif" font-size="14.00">context_id :String</text>
<text text-anchor="start" x="208" y="-1310.4" font-family="Times Roman,serif" font-size="14.00">annotator_type :String</text>
<text text-anchor="start" x="208" y="-1292.4" font-family="Times Roman,serif" font-size="14.00">annotator_id :String</text>
<text text-anchor="start" x="208" y="-1274.4" font-family="Times Roman,serif" font-size="14.00">status :String</text>
</g>
<!-- Flag -->
<g id="node3" class="node"><title>Flag</title>
<polyline fill="none" stroke="black" points="412,-1265 570,-1265 "/>
<path fill="none" stroke="black" d="M570,-1265C576,-1265 582,-1271 582,-1277"/>
<polyline fill="none" stroke="black" points="582,-1277 582,-1485 "/>
<path fill="none" stroke="black" d="M582,-1485C582,-1491 576,-1497 570,-1497"/>
<polyline fill="none" stroke="black" points="570,-1497 412,-1497 "/>
<path fill="none" stroke="black" d="M412,-1497C406,-1497 400,-1491 400,-1485"/>
<polyline fill="none" stroke="black" points="400,-1485 400,-1277 "/>
<path fill="none" stroke="black" d="M400,-1277C400,-1271 406,-1265 412,-1265"/>
<text text-anchor="middle" x="491" y="-1480.4" font-family="Times Roman,serif" font-size="14.00">Flag</text>
<polyline fill="none" stroke="black" points="400,-1471 582,-1471 "/>
<text text-anchor="start" x="408" y="-1454.4" font-family="Times Roman,serif" font-size="14.00">created_at :Time</text>
<text text-anchor="start" x="408" y="-1436.4" font-family="Times Roman,serif" font-size="14.00">updated_at :Time</text>
<text text-anchor="start" x="408" y="-1418.4" font-family="Times Roman,serif" font-size="14.00">annotation_type :String</text>
<text text-anchor="start" x="408" y="-1400.4" font-family="Times Roman,serif" font-size="14.00">version_index :Integer</text>
<text text-anchor="start" x="408" y="-1382.4" font-family="Times Roman,serif" font-size="14.00">annotated_type :String</text>
<text text-anchor="start" x="408" y="-1364.4" font-family="Times Roman,serif" font-size="14.00">annotated_id :String</text>
<text text-anchor="start" x="408" y="-1346.4" font-family="Times Roman,serif" font-size="14.00">context_type :String</text>
<text text-anchor="start" x="408" y="-1328.4" font-family="Times Roman,serif" font-size="14.00">context_id :String</text>
<text text-anchor="start" x="408" y="-1310.4" font-family="Times Roman,serif" font-size="14.00">annotator_type :String</text>
<text text-anchor="start" x="408" y="-1292.4" font-family="Times Roman,serif" font-size="14.00">annotator_id :String</text>
<text text-anchor="start" x="408" y="-1274.4" font-family="Times Roman,serif" font-size="14.00">flag :String</text>
</g>
<!-- Comment -->
<g id="node4" class="node"><title>Comment</title>
<polyline fill="none" stroke="black" points="612,-1265 770,-1265 "/>
<path fill="none" stroke="black" d="M770,-1265C776,-1265 782,-1271 782,-1277"/>
<polyline fill="none" stroke="black" points="782,-1277 782,-1485 "/>
<path fill="none" stroke="black" d="M782,-1485C782,-1491 776,-1497 770,-1497"/>
<polyline fill="none" stroke="black" points="770,-1497 612,-1497 "/>
<path fill="none" stroke="black" d="M612,-1497C606,-1497 600,-1491 600,-1485"/>
<polyline fill="none" stroke="black" points="600,-1485 600,-1277 "/>
<path fill="none" stroke="black" d="M600,-1277C600,-1271 606,-1265 612,-1265"/>
<text text-anchor="middle" x="691" y="-1480.4" font-family="Times Roman,serif" font-size="14.00">Comment</text>
<polyline fill="none" stroke="black" points="600,-1471 782,-1471 "/>
<text text-anchor="start" x="608" y="-1454.4" font-family="Times Roman,serif" font-size="14.00">created_at :Time</text>
<text text-anchor="start" x="608" y="-1436.4" font-family="Times Roman,serif" font-size="14.00">updated_at :Time</text>
<text text-anchor="start" x="608" y="-1418.4" font-family="Times Roman,serif" font-size="14.00">annotation_type :String</text>
<text text-anchor="start" x="608" y="-1400.4" font-family="Times Roman,serif" font-size="14.00">version_index :Integer</text>
<text text-anchor="start" x="608" y="-1382.4" font-family="Times Roman,serif" font-size="14.00">annotated_type :String</text>
<text text-anchor="start" x="608" y="-1364.4" font-family="Times Roman,serif" font-size="14.00">annotated_id :String</text>
<text text-anchor="start" x="608" y="-1346.4" font-family="Times Roman,serif" font-size="14.00">context_type :String</text>
<text text-anchor="start" x="608" y="-1328.4" font-family="Times Roman,serif" font-size="14.00">context_id :String</text>
<text text-anchor="start" x="608" y="-1310.4" font-family="Times Roman,serif" font-size="14.00">annotator_type :String</text>
<text text-anchor="start" x="608" y="-1292.4" font-family="Times Roman,serif" font-size="14.00">annotator_id :String</text>
<text text-anchor="start" x="608" y="-1274.4" font-family="Times Roman,serif" font-size="14.00">text :String</text>
</g>
<!-- Annotation -->
<g id="node5" class="node"><title>Annotation</title>
<polyline fill="none" stroke="black" points="812,-1274 970,-1274 "/>
<path fill="none" stroke="black" d="M970,-1274C976,-1274 982,-1280 982,-1286"/>
<polyline fill="none" stroke="black" points="982,-1286 982,-1476 "/>
<path fill="none" stroke="black" d="M982,-1476C982,-1482 976,-1488 970,-1488"/>
<polyline fill="none" stroke="black" points="970,-1488 812,-1488 "/>
<path fill="none" stroke="black" d="M812,-1488C806,-1488 800,-1482 800,-1476"/>
<polyline fill="none" stroke="black" points="800,-1476 800,-1286 "/>
<path fill="none" stroke="black" d="M800,-1286C800,-1280 806,-1274 812,-1274"/>
<text text-anchor="middle" x="891" y="-1471.4" font-family="Times Roman,serif" font-size="14.00">Annotation</text>
<polyline fill="none" stroke="black" points="800,-1462 982,-1462 "/>
<text text-anchor="start" x="808" y="-1445.4" font-family="Times Roman,serif" font-size="14.00">created_at :Time</text>
<text text-anchor="start" x="808" y="-1427.4" font-family="Times Roman,serif" font-size="14.00">updated_at :Time</text>
<text text-anchor="start" x="808" y="-1409.4" font-family="Times Roman,serif" font-size="14.00">annotation_type :String</text>
<text text-anchor="start" x="808" y="-1391.4" font-family="Times Roman,serif" font-size="14.00">version_index :Integer</text>
<text text-anchor="start" x="808" y="-1373.4" font-family="Times Roman,serif" font-size="14.00">annotated_type :String</text>
<text text-anchor="start" x="808" y="-1355.4" font-family="Times Roman,serif" font-size="14.00">annotated_id :String</text>
<text text-anchor="start" x="808" y="-1337.4" font-family="Times Roman,serif" font-size="14.00">context_type :String</text>
<text text-anchor="start" x="808" y="-1319.4" font-family="Times Roman,serif" font-size="14.00">context_id :String</text>
<text text-anchor="start" x="808" y="-1301.4" font-family="Times Roman,serif" font-size="14.00">annotator_type :String</text>
<text text-anchor="start" x="808" y="-1283.4" font-family="Times Roman,serif" font-size="14.00">annotator_id :String</text>
</g>
<!-- Source -->
<g id="node6" class="node"><title>Source</title>
<polyline fill="none" stroke="black" points="1004.5,-649 1145.5,-649 "/>
<path fill="none" stroke="black" d="M1145.5,-649C1151.5,-649 1157.5,-655 1157.5,-661"/>
<polyline fill="none" stroke="black" points="1157.5,-661 1157.5,-797 "/>
<path fill="none" stroke="black" d="M1157.5,-797C1157.5,-803 1151.5,-809 1145.5,-809"/>
<polyline fill="none" stroke="black" points="1145.5,-809 1004.5,-809 "/>
<path fill="none" stroke="black" d="M1004.5,-809C998.5,-809 992.5,-803 992.5,-797"/>
<polyline fill="none" stroke="black" points="992.5,-797 992.5,-661 "/>
<path fill="none" stroke="black" d="M992.5,-661C992.5,-655 998.5,-649 1004.5,-649"/>
<text text-anchor="middle" x="1075" y="-792.4" font-family="Times Roman,serif" font-size="14.00">Source</text>
<polyline fill="none" stroke="black" points="992.5,-783 1157.5,-783 "/>
<text text-anchor="start" x="1000.5" y="-766.4" font-family="Times Roman,serif" font-size="14.00">id :INTEGER</text>
<text text-anchor="start" x="1000.5" y="-748.4" font-family="Times Roman,serif" font-size="14.00">user_id :integer</text>
<text text-anchor="start" x="1000.5" y="-730.4" font-family="Times Roman,serif" font-size="14.00">name :varchar</text>
<text text-anchor="start" x="1000.5" y="-712.4" font-family="Times Roman,serif" font-size="14.00">slogan :varchar</text>
<text text-anchor="start" x="1000.5" y="-694.4" font-family="Times Roman,serif" font-size="14.00">avatar :varchar</text>
<text text-anchor="start" x="1000.5" y="-676.4" font-family="Times Roman,serif" font-size="14.00">created_at :datetime</text>
<text text-anchor="start" x="1000.5" y="-658.4" font-family="Times Roman,serif" font-size="14.00">updated_at :datetime</text>
</g>
<!-- ProjectSource -->
<g id="node8" class="node"><title>ProjectSource</title>
<polyline fill="none" stroke="black" points="1113.5,-199 1254.5,-199 "/>
<path fill="none" stroke="black" d="M1254.5,-199C1260.5,-199 1266.5,-205 1266.5,-211"/>
<polyline fill="none" stroke="black" points="1266.5,-211 1266.5,-311 "/>
<path fill="none" stroke="black" d="M1266.5,-311C1266.5,-317 1260.5,-323 1254.5,-323"/>
<polyline fill="none" stroke="black" points="1254.5,-323 1113.5,-323 "/>
<path fill="none" stroke="black" d="M1113.5,-323C1107.5,-323 1101.5,-317 1101.5,-311"/>
<polyline fill="none" stroke="black" points="1101.5,-311 1101.5,-211 "/>
<path fill="none" stroke="black" d="M1101.5,-211C1101.5,-205 1107.5,-199 1113.5,-199"/>
<text text-anchor="middle" x="1184" y="-306.4" font-family="Times Roman,serif" font-size="14.00">ProjectSource</text>
<polyline fill="none" stroke="black" points="1101.5,-297 1266.5,-297 "/>
<text text-anchor="start" x="1109.5" y="-280.4" font-family="Times Roman,serif" font-size="14.00">id :INTEGER</text>
<text text-anchor="start" x="1109.5" y="-262.4" font-family="Times Roman,serif" font-size="14.00">project_id :integer</text>
<text text-anchor="start" x="1109.5" y="-244.4" font-family="Times Roman,serif" font-size="14.00">source_id :integer</text>
<text text-anchor="start" x="1109.5" y="-226.4" font-family="Times Roman,serif" font-size="14.00">created_at :datetime</text>
<text text-anchor="start" x="1109.5" y="-208.4" font-family="Times Roman,serif" font-size="14.00">updated_at :datetime</text>
</g>
<!-- Source&#45;&gt;ProjectSource -->
<g id="edge6" class="edge"><title>Source&#45;&gt;ProjectSource</title>
<path fill="none" stroke="#6fbc55" d="M1140,-641.878C1148.78,-626.569 1156.61,-610.3 1162,-594 1190.49,-507.794 1192.35,-402.35 1189.5,-333.522"/>
<ellipse fill="none" stroke="#6fbc55" cx="1137.93" cy="-645.394" rx="4.00002" ry="4.00002"/>
<polygon fill="#6fbc55" stroke="#6fbc55" points="1189.48,-333.209 1193.52,-323.013 1189.25,-328.214 1189.02,-323.22 1189.02,-323.22 1189.02,-323.22 1189.25,-328.214 1184.53,-323.426 1189.48,-333.209 1189.48,-333.209"/>
</g>
<!-- Account -->
<g id="node9" class="node"><title>Account</title>
<polyline fill="none" stroke="black" points="1000.5,-406 1141.5,-406 "/>
<path fill="none" stroke="black" d="M1141.5,-406C1147.5,-406 1153.5,-412 1153.5,-418"/>
<polyline fill="none" stroke="black" points="1153.5,-418 1153.5,-572 "/>
<path fill="none" stroke="black" d="M1153.5,-572C1153.5,-578 1147.5,-584 1141.5,-584"/>
<polyline fill="none" stroke="black" points="1141.5,-584 1000.5,-584 "/>
<path fill="none" stroke="black" d="M1000.5,-584C994.5,-584 988.5,-578 988.5,-572"/>
<polyline fill="none" stroke="black" points="988.5,-572 988.5,-418 "/>
<path fill="none" stroke="black" d="M988.5,-418C988.5,-412 994.5,-406 1000.5,-406"/>
<text text-anchor="middle" x="1071" y="-567.4" font-family="Times Roman,serif" font-size="14.00">Account</text>
<polyline fill="none" stroke="black" points="988.5,-558 1153.5,-558 "/>
<text text-anchor="start" x="996.5" y="-541.4" font-family="Times Roman,serif" font-size="14.00">id :INTEGER</text>
<text text-anchor="start" x="996.5" y="-523.4" font-family="Times Roman,serif" font-size="14.00">user_id :integer</text>
<text text-anchor="start" x="996.5" y="-505.4" font-family="Times Roman,serif" font-size="14.00">source_id :integer</text>
<text text-anchor="start" x="996.5" y="-487.4" font-family="Times Roman,serif" font-size="14.00">url :varchar</text>
<text text-anchor="start" x="996.5" y="-469.4" font-family="Times Roman,serif" font-size="14.00">data :text</text>
<text text-anchor="start" x="996.5" y="-451.4" font-family="Times Roman,serif" font-size="14.00">created_at :datetime</text>
<text text-anchor="start" x="996.5" y="-433.4" font-family="Times Roman,serif" font-size="14.00">updated_at :datetime</text>
<text text-anchor="start" x="996.5" y="-415.4" font-family="Times Roman,serif" font-size="14.00">team_id :integer</text>
</g>
<!-- Source&#45;&gt;Account -->
<g id="edge4" class="edge"><title>Source&#45;&gt;Account</title>
<path fill="none" stroke="#41a345" d="M1073.49,-640.438C1073.23,-625.517 1072.96,-609.94 1072.71,-594.759"/>
<ellipse fill="none" stroke="#41a345" cx="1073.56" cy="-644.798" rx="4" ry="4"/>
<polygon fill="#41a345" stroke="#41a345" points="1072.7,-594.324 1077.03,-584.248 1072.61,-589.325 1072.53,-584.325 1072.53,-584.325 1072.53,-584.325 1072.61,-589.325 1068.03,-584.402 1072.7,-594.324 1072.7,-594.324"/>
</g>
<!-- Project -->
<g id="node10" class="node"><title>Project</title>
<polyline fill="none" stroke="black" points="818.5,-397 959.5,-397 "/>
<path fill="none" stroke="black" d="M959.5,-397C965.5,-397 971.5,-403 971.5,-409"/>
<polyline fill="none" stroke="black" points="971.5,-409 971.5,-581 "/>
<path fill="none" stroke="black" d="M971.5,-581C971.5,-587 965.5,-593 959.5,-593"/>
<polyline fill="none" stroke="black" points="959.5,-593 818.5,-593 "/>
<path fill="none" stroke="black" d="M818.5,-593C812.5,-593 806.5,-587 806.5,-581"/>
<polyline fill="none" stroke="black" points="806.5,-581 806.5,-409 "/>
<path fill="none" stroke="black" d="M806.5,-409C806.5,-403 812.5,-397 818.5,-397"/>
<text text-anchor="middle" x="889" y="-576.4" font-family="Times Roman,serif" font-size="14.00">Project</text>
<polyline fill="none" stroke="black" points="806.5,-567 971.5,-567 "/>
<text text-anchor="start" x="814.5" y="-550.4" font-family="Times Roman,serif" font-size="14.00">id :INTEGER</text>
<text text-anchor="start" x="814.5" y="-532.4" font-family="Times Roman,serif" font-size="14.00">user_id :integer</text>
<text text-anchor="start" x="814.5" y="-514.4" font-family="Times Roman,serif" font-size="14.00">team_id :integer</text>
<text text-anchor="start" x="814.5" y="-496.4" font-family="Times Roman,serif" font-size="14.00">title :varchar</text>
<text text-anchor="start" x="814.5" y="-478.4" font-family="Times Roman,serif" font-size="14.00">description :text</text>
<text text-anchor="start" x="814.5" y="-460.4" font-family="Times Roman,serif" font-size="14.00">lead_image :varchar</text>
<text text-anchor="start" x="814.5" y="-442.4" font-family="Times Roman,serif" font-size="14.00">created_at :datetime</text>
<text text-anchor="start" x="814.5" y="-424.4" font-family="Times Roman,serif" font-size="14.00">updated_at :datetime</text>
<text text-anchor="start" x="814.5" y="-406.4" font-family="Times Roman,serif" font-size="14.00">archived :boolean</text>
</g>
<!-- Source&#45;&gt;Project -->
<g id="edge8" class="edge"><title>Source&#45;&gt;Project</title>
<path fill="none" stroke="#8bcf3f" d="M1004.87,-640.766C994.666,-627.934 984.074,-614.61 973.625,-601.464"/>
<polygon fill="#8bcf3f" stroke="#8bcf3f" points="1005.03,-640.97 1007.73,-651.598 1008.14,-644.884 1011.25,-648.798 1011.25,-648.798 1011.25,-648.798 1008.14,-644.884 1014.77,-645.998 1005.03,-640.97 1005.03,-640.97"/>
<polygon fill="#8bcf3f" stroke="#8bcf3f" points="973.365,-601.136 970.665,-590.508 970.253,-597.222 967.142,-593.308 967.142,-593.308 967.142,-593.308 970.253,-597.222 963.62,-596.108 973.365,-601.136 973.365,-601.136"/>
</g>
<!-- PaperTrail::Version -->
<g id="node17" class="node"><title>PaperTrail::Version</title>
<ellipse fill="none" stroke="black" cx="1026" cy="-63" rx="101.823" ry="18.3848"/>
<text text-anchor="middle" x="1026" y="-59.4" font-family="Times Roman,serif" font-size="14.00">PaperTrail::Version</text>
</g>
<!-- Source&#45;&gt;PaperTrail::Version -->
<g id="edge2" class="edge"><title>Source&#45;&gt;PaperTrail::Version</title>
<path fill="none" stroke="#ebc928" d="M1158.67,-642.267C1170.44,-627.003 1181.43,-610.647 1190,-594 1232.99,-510.496 1325.35,-259.284 1275,-180 1238.94,-123.207 1167.18,-93.491 1109.92,-78.2486"/>
<ellipse fill="none" stroke="#ebc928" cx="1156.05" cy="-645.595" rx="4.00002" ry="4.00002"/>
<polygon fill="#ebc928" stroke="#ebc928" points="1109.83,-78.2247 1101.26,-71.3865 1104.99,-76.9854 1100.14,-75.7461 1100.14,-75.7461 1100.14,-75.7461 1104.99,-76.9854 1099.03,-80.1057 1109.83,-78.2247 1109.83,-78.2247"/>
<text text-anchor="middle" x="1302" y="-365.4" font-family="Times Roman,serif" font-size="14.00">versions</text>
</g>
<!-- Team -->
<g id="node7" class="node"><title>Team</title>
<polyline fill="none" stroke="black" points="1011.5,-1292 1152.5,-1292 "/>
<path fill="none" stroke="black" d="M1152.5,-1292C1158.5,-1292 1164.5,-1298 1164.5,-1304"/>
<polyline fill="none" stroke="black" points="1164.5,-1304 1164.5,-1458 "/>
<path fill="none" stroke="black" d="M1164.5,-1458C1164.5,-1464 1158.5,-1470 1152.5,-1470"/>
<polyline fill="none" stroke="black" points="1152.5,-1470 1011.5,-1470 "/>
<path fill="none" stroke="black" d="M1011.5,-1470C1005.5,-1470 999.5,-1464 999.5,-1458"/>
<polyline fill="none" stroke="black" points="999.5,-1458 999.5,-1304 "/>
<path fill="none" stroke="black" d="M999.5,-1304C999.5,-1298 1005.5,-1292 1011.5,-1292"/>
<text text-anchor="middle" x="1082" y="-1453.4" font-family="Times Roman,serif" font-size="14.00">Team</text>
<polyline fill="none" stroke="black" points="999.5,-1444 1164.5,-1444 "/>
<text text-anchor="start" x="1007.5" y="-1427.4" font-family="Times Roman,serif" font-size="14.00">id :INTEGER</text>
<text text-anchor="start" x="1007.5" y="-1409.4" font-family="Times Roman,serif" font-size="14.00">name :varchar</text>
<text text-anchor="start" x="1007.5" y="-1391.4" font-family="Times Roman,serif" font-size="14.00">logo :varchar</text>
<text text-anchor="start" x="1007.5" y="-1373.4" font-family="Times Roman,serif" font-size="14.00">private :boolean</text>
<text text-anchor="start" x="1007.5" y="-1355.4" font-family="Times Roman,serif" font-size="14.00">archived :boolean</text>
<text text-anchor="start" x="1007.5" y="-1337.4" font-family="Times Roman,serif" font-size="14.00">created_at :datetime</text>
<text text-anchor="start" x="1007.5" y="-1319.4" font-family="Times Roman,serif" font-size="14.00">updated_at :datetime</text>
<text text-anchor="start" x="1007.5" y="-1301.4" font-family="Times Roman,serif" font-size="14.00">description :text</text>
</g>
<!-- Team&#45;&gt;Account -->
<g id="edge14" class="edge"><title>Team&#45;&gt;Account</title>
<path fill="none" stroke="#60fd5d" d="M1010.49,-1285.53C1004.09,-1278.08 997.546,-1270.81 991,-1264 972.866,-1245.12 957.026,-1249.74 946,-1226 891.782,-1109.25 939.572,-768.812 984,-648 990.736,-629.684 999.526,-610.984 1008.93,-593.231"/>
<ellipse fill="none" stroke="#60fd5d" cx="1013.24" cy="-1288.77" rx="4.00002" ry="4.00002"/>
<polygon fill="#60fd5d" stroke="#60fd5d" points="1009.14,-592.84 1017.85,-586.18 1011.51,-588.441 1013.89,-584.042 1013.89,-584.042 1013.89,-584.042 1011.51,-588.441 1009.93,-581.903 1009.14,-592.84 1009.14,-592.84"/>
</g>
<!-- Team&#45;&gt;Project -->
<g id="edge12" class="edge"><title>Team&#45;&gt;Project</title>
<path fill="none" stroke="#54f9a4" d="M1014.03,-1285.85C1006.69,-1278.03 998.973,-1270.61 991,-1264 962.535,-1240.41 936.868,-1257.18 917,-1226 795.203,-1034.86 829.608,-754.983 861.626,-602.967"/>
<ellipse fill="none" stroke="#54f9a4" cx="1016.87" cy="-1288.94" rx="4.00002" ry="4.00002"/>
<polygon fill="#54f9a4" stroke="#54f9a4" points="861.636,-602.919 868.13,-594.083 862.683,-598.03 863.73,-593.141 863.73,-593.141 863.73,-593.141 862.683,-598.03 859.329,-592.199 861.636,-602.919 861.636,-602.919"/>
</g>
<!-- TeamUser -->
<g id="node11" class="node"><title>TeamUser</title>
<polyline fill="none" stroke="black" points="1186.5,-667 1327.5,-667 "/>
<path fill="none" stroke="black" d="M1327.5,-667C1333.5,-667 1339.5,-673 1339.5,-679"/>
<polyline fill="none" stroke="black" points="1339.5,-679 1339.5,-779 "/>
<path fill="none" stroke="black" d="M1339.5,-779C1339.5,-785 1333.5,-791 1327.5,-791"/>
<polyline fill="none" stroke="black" points="1327.5,-791 1186.5,-791 "/>
<path fill="none" stroke="black" d="M1186.5,-791C1180.5,-791 1174.5,-785 1174.5,-779"/>
<polyline fill="none" stroke="black" points="1174.5,-779 1174.5,-679 "/>
<path fill="none" stroke="black" d="M1174.5,-679C1174.5,-673 1180.5,-667 1186.5,-667"/>
<text text-anchor="middle" x="1257" y="-774.4" font-family="Times Roman,serif" font-size="14.00">TeamUser</text>
<polyline fill="none" stroke="black" points="1174.5,-765 1339.5,-765 "/>
<text text-anchor="start" x="1182.5" y="-748.4" font-family="Times Roman,serif" font-size="14.00">id :INTEGER</text>
<text text-anchor="start" x="1182.5" y="-730.4" font-family="Times Roman,serif" font-size="14.00">team_id :integer</text>
<text text-anchor="start" x="1182.5" y="-712.4" font-family="Times Roman,serif" font-size="14.00">user_id :integer</text>
<text text-anchor="start" x="1182.5" y="-694.4" font-family="Times Roman,serif" font-size="14.00">created_at :datetime</text>
<text text-anchor="start" x="1182.5" y="-676.4" font-family="Times Roman,serif" font-size="14.00">updated_at :datetime</text>
</g>
<!-- Team&#45;&gt;TeamUser -->
<g id="edge16" class="edge"><title>Team&#45;&gt;TeamUser</title>
<path fill="none" stroke="#30a180" d="M1153.51,-1285.53C1159.91,-1278.08 1166.45,-1270.81 1173,-1264 1191.13,-1245.12 1206.05,-1249.29 1218,-1226 1288.27,-1089 1279.71,-902.417 1267.95,-801.31"/>
<ellipse fill="none" stroke="#30a180" cx="1150.76" cy="-1288.77" rx="4.00002" ry="4.00002"/>
<polygon fill="#30a180" stroke="#30a180" points="1267.93,-801.128 1271.2,-790.661 1267.33,-796.165 1266.73,-791.201 1266.73,-791.201 1266.73,-791.201 1267.33,-796.165 1262.26,-791.74 1267.93,-801.128 1267.93,-801.128"/>
</g>
<!-- User -->
<g id="node14" class="node"><title>User</title>
<polyline fill="none" stroke="black" points="967,-849 1197,-849 "/>
<path fill="none" stroke="black" d="M1197,-849C1203,-849 1209,-855 1209,-861"/>
<polyline fill="none" stroke="black" points="1209,-861 1209,-1213 "/>
<path fill="none" stroke="black" d="M1209,-1213C1209,-1219 1203,-1225 1197,-1225"/>
<polyline fill="none" stroke="black" points="1197,-1225 967,-1225 "/>
<path fill="none" stroke="black" d="M967,-1225C961,-1225 955,-1219 955,-1213"/>
<polyline fill="none" stroke="black" points="955,-1213 955,-861 "/>
<path fill="none" stroke="black" d="M955,-861C955,-855 961,-849 967,-849"/>
<text text-anchor="middle" x="1082" y="-1208.4" font-family="Times Roman,serif" font-size="14.00">User</text>
<polyline fill="none" stroke="black" points="955,-1199 1209,-1199 "/>
<text text-anchor="start" x="963" y="-1182.4" font-family="Times Roman,serif" font-size="14.00">id :INTEGER</text>
<text text-anchor="start" x="963" y="-1164.4" font-family="Times Roman,serif" font-size="14.00">name :varchar</text>
<text text-anchor="start" x="963" y="-1146.4" font-family="Times Roman,serif" font-size="14.00">login :varchar</text>
<text text-anchor="start" x="963" y="-1128.4" font-family="Times Roman,serif" font-size="14.00">uuid :varchar</text>
<text text-anchor="start" x="963" y="-1110.4" font-family="Times Roman,serif" font-size="14.00">provider :varchar</text>
<text text-anchor="start" x="963" y="-1092.4" font-family="Times Roman,serif" font-size="14.00">token :varchar</text>
<text text-anchor="start" x="963" y="-1074.4" font-family="Times Roman,serif" font-size="14.00">email :varchar</text>
<text text-anchor="start" x="963" y="-1056.4" font-family="Times Roman,serif" font-size="14.00">encrypted_password :varchar</text>
<text text-anchor="start" x="963" y="-1038.4" font-family="Times Roman,serif" font-size="14.00">reset_password_token :varchar</text>
<text text-anchor="start" x="963" y="-1020.4" font-family="Times Roman,serif" font-size="14.00">reset_password_sent_at :datetime</text>
<text text-anchor="start" x="963" y="-1002.4" font-family="Times Roman,serif" font-size="14.00">remember_created_at :datetime</text>
<text text-anchor="start" x="963" y="-984.4" font-family="Times Roman,serif" font-size="14.00">sign_in_count :integer</text>
<text text-anchor="start" x="963" y="-966.4" font-family="Times Roman,serif" font-size="14.00">current_sign_in_at :datetime</text>
<text text-anchor="start" x="963" y="-948.4" font-family="Times Roman,serif" font-size="14.00">last_sign_in_at :datetime</text>
<text text-anchor="start" x="963" y="-930.4" font-family="Times Roman,serif" font-size="14.00">current_sign_in_ip :varchar</text>
<text text-anchor="start" x="963" y="-912.4" font-family="Times Roman,serif" font-size="14.00">last_sign_in_ip :varchar</text>
<text text-anchor="start" x="963" y="-894.4" font-family="Times Roman,serif" font-size="14.00">created_at :datetime</text>
<text text-anchor="start" x="963" y="-876.4" font-family="Times Roman,serif" font-size="14.00">updated_at :datetime</text>
<text text-anchor="start" x="963" y="-858.4" font-family="Times Roman,serif" font-size="14.00">profile_image :varchar</text>
</g>
<!-- Team&#45;&gt;User -->
<g id="edge18" class="edge"><title>Team&#45;&gt;User</title>
<path fill="none" stroke="#d420dc" d="M1082,-1281.86C1082,-1267.02 1082,-1251.3 1082,-1235.26"/>
<polygon fill="#d420dc" stroke="#d420dc" points="1082,-1281.96 1077.5,-1291.96 1082,-1286.96 1082,-1291.96 1082,-1291.96 1082,-1291.96 1082,-1286.96 1086.5,-1291.96 1082,-1281.96 1082,-1281.96"/>
<polygon fill="#d420dc" stroke="#d420dc" points="1082,-1235.24 1086.5,-1225.24 1082,-1230.24 1082,-1225.24 1082,-1225.24 1082,-1225.24 1082,-1230.24 1077.5,-1225.24 1082,-1235.24 1082,-1235.24"/>
</g>
<!-- Team&#45;&gt;PaperTrail::Version -->
<g id="edge10" class="edge"><title>Team&#45;&gt;PaperTrail::Version</title>
<path fill="none" stroke="#1be36f" d="M1149.1,-1285.77C1156.66,-1277.89 1164.66,-1270.48 1173,-1264 1206.31,-1238.1 1228.66,-1254.26 1260,-1226 1331.69,-1161.36 1367,-1133.53 1367,-1037 1367,-1037 1367,-1037 1367,-261 1367,-145.391 1218.61,-96.147 1117.6,-76.0189"/>
<ellipse fill="none" stroke="#1be36f" cx="1146.13" cy="-1288.95" rx="4.00002" ry="4.00002"/>
<polygon fill="#1be36f" stroke="#1be36f" points="1117.5,-75.9984 1108.53,-69.6851 1112.59,-75.051 1107.68,-74.1036 1107.68,-74.1036 1107.68,-74.1036 1112.59,-75.051 1106.83,-78.5221 1117.5,-75.9984 1117.5,-75.9984"/>
<text text-anchor="middle" x="1396" y="-617.4" font-family="Times Roman,serif" font-size="14.00">versions</text>
</g>
<!-- Media -->
<g id="node13" class="node"><title>Media</title>
<polyline fill="none" stroke="black" points="837.5,-181 978.5,-181 "/>
<path fill="none" stroke="black" d="M978.5,-181C984.5,-181 990.5,-187 990.5,-193"/>
<polyline fill="none" stroke="black" points="990.5,-193 990.5,-329 "/>
<path fill="none" stroke="black" d="M990.5,-329C990.5,-335 984.5,-341 978.5,-341"/>
<polyline fill="none" stroke="black" points="978.5,-341 837.5,-341 "/>
<path fill="none" stroke="black" d="M837.5,-341C831.5,-341 825.5,-335 825.5,-329"/>
<polyline fill="none" stroke="black" points="825.5,-329 825.5,-193 "/>
<path fill="none" stroke="black" d="M825.5,-193C825.5,-187 831.5,-181 837.5,-181"/>
<text text-anchor="middle" x="908" y="-324.4" font-family="Times Roman,serif" font-size="14.00">Media</text>
<polyline fill="none" stroke="black" points="825.5,-315 990.5,-315 "/>
<text text-anchor="start" x="833.5" y="-298.4" font-family="Times Roman,serif" font-size="14.00">id :INTEGER</text>
<text text-anchor="start" x="833.5" y="-280.4" font-family="Times Roman,serif" font-size="14.00">user_id :integer</text>
<text text-anchor="start" x="833.5" y="-262.4" font-family="Times Roman,serif" font-size="14.00">account_id :integer</text>
<text text-anchor="start" x="833.5" y="-244.4" font-family="Times Roman,serif" font-size="14.00">url :varchar</text>
<text text-anchor="start" x="833.5" y="-226.4" font-family="Times Roman,serif" font-size="14.00">data :text</text>
<text text-anchor="start" x="833.5" y="-208.4" font-family="Times Roman,serif" font-size="14.00">created_at :datetime</text>
<text text-anchor="start" x="833.5" y="-190.4" font-family="Times Roman,serif" font-size="14.00">updated_at :datetime</text>
</g>
<!-- Account&#45;&gt;Media -->
<g id="edge22" class="edge"><title>Account&#45;&gt;Media</title>
<path fill="none" stroke="#374038" d="M1004.19,-399.084C992.75,-382.666 980.915,-365.675 969.621,-349.463"/>
<ellipse fill="none" stroke="#374038" cx="1006.63" cy="-402.585" rx="4.00002" ry="4.00002"/>
<polygon fill="#374038" stroke="#374038" points="969.486,-349.268 967.463,-338.491 966.628,-345.166 963.77,-341.063 963.77,-341.063 963.77,-341.063 966.628,-345.166 960.078,-343.635 969.486,-349.268 969.486,-349.268"/>
</g>
<!-- Account&#45;&gt;PaperTrail::Version -->
<g id="edge20" class="edge"><title>Account&#45;&gt;PaperTrail::Version</title>
<path fill="none" stroke="#2fc9c9" d="M1045.1,-397.899C1041.05,-379.456 1037.41,-360.226 1035,-342 1023,-251.363 1023.8,-142.794 1025.05,-91.9463"/>
<ellipse fill="none" stroke="#2fc9c9" cx="1045.98" cy="-401.847" rx="4.00001" ry="4.00001"/>
<polygon fill="#2fc9c9" stroke="#2fc9c9" points="1025.06,-91.7119 1029.83,-81.8378 1025.19,-86.7137 1025.33,-81.7156 1025.33,-81.7156 1025.33,-81.7156 1025.19,-86.7137 1020.83,-81.5933 1025.06,-91.7119 1025.06,-91.7119"/>
<text text-anchor="middle" x="1064" y="-257.4" font-family="Times Roman,serif" font-size="14.00">versions</text>
</g>
<!-- Project&#45;&gt;ProjectSource -->
<g id="edge26" class="edge"><title>Project&#45;&gt;ProjectSource</title>
<path fill="none" stroke="#7e243a" d="M978.167,-397.396C978.777,-396.926 979.388,-396.461 980,-396 1022.87,-363.712 1043.18,-371.511 1088,-342 1094.01,-338.043 1100.07,-333.76 1106.06,-329.301"/>
<ellipse fill="none" stroke="#7e243a" cx="974.79" cy="-400.088" rx="4.00002" ry="4.00002"/>
<polygon fill="#7e243a" stroke="#7e243a" points="1106.22,-329.18 1116.9,-326.707 1110.19,-326.153 1114.17,-323.125 1114.17,-323.125 1114.17,-323.125 1110.19,-326.153 1111.45,-319.544 1106.22,-329.18 1106.22,-329.18"/>
</g>
<!-- ProjectMedia -->
<g id="node12" class="node"><title>ProjectMedia</title>
<polyline fill="none" stroke="black" points="681.5,-1 822.5,-1 "/>
<path fill="none" stroke="black" d="M822.5,-1C828.5,-1 834.5,-7 834.5,-13"/>
<polyline fill="none" stroke="black" points="834.5,-13 834.5,-113 "/>
<path fill="none" stroke="black" d="M834.5,-113C834.5,-119 828.5,-125 822.5,-125"/>
<polyline fill="none" stroke="black" points="822.5,-125 681.5,-125 "/>
<path fill="none" stroke="black" d="M681.5,-125C675.5,-125 669.5,-119 669.5,-113"/>
<polyline fill="none" stroke="black" points="669.5,-113 669.5,-13 "/>
<path fill="none" stroke="black" d="M669.5,-13C669.5,-7 675.5,-1 681.5,-1"/>
<text text-anchor="middle" x="752" y="-108.4" font-family="Times Roman,serif" font-size="14.00">ProjectMedia</text>
<polyline fill="none" stroke="black" points="669.5,-99 834.5,-99 "/>
<text text-anchor="start" x="677.5" y="-82.4" font-family="Times Roman,serif" font-size="14.00">id :INTEGER</text>
<text text-anchor="start" x="677.5" y="-64.4" font-family="Times Roman,serif" font-size="14.00">project_id :integer</text>
<text text-anchor="start" x="677.5" y="-46.4" font-family="Times Roman,serif" font-size="14.00">media_id :integer</text>
<text text-anchor="start" x="677.5" y="-28.4" font-family="Times Roman,serif" font-size="14.00">created_at :datetime</text>
<text text-anchor="start" x="677.5" y="-10.4" font-family="Times Roman,serif" font-size="14.00">updated_at :datetime</text>
</g>
<!-- Project&#45;&gt;ProjectMedia -->
<g id="edge28" class="edge"><title>Project&#45;&gt;ProjectMedia</title>
<path fill="none" stroke="#b52a9f" d="M800.394,-434.529C771.896,-409.665 744.068,-378.165 730,-342 704.025,-275.222 715.276,-192.798 729.484,-134.912"/>
<ellipse fill="none" stroke="#b52a9f" cx="803.44" cy="-437.134" rx="4.00002" ry="4.00002"/>
<polygon fill="#b52a9f" stroke="#b52a9f" points="729.51,-134.812 736.335,-126.228 730.742,-129.966 731.973,-125.12 731.973,-125.12 731.973,-125.12 730.742,-129.966 727.612,-124.011 729.51,-134.812 729.51,-134.812"/>
</g>
<!-- Project&#45;&gt;Media -->
<g id="edge30" class="edge"><title>Project&#45;&gt;Media</title>
<path fill="none" stroke="#b77bdc" d="M897.789,-386.75C898.752,-374.899 899.724,-362.927 900.666,-351.324"/>
<polygon fill="#b77bdc" stroke="#b77bdc" points="897.785,-386.813 892.49,-396.416 897.38,-391.796 896.975,-396.78 896.975,-396.78 896.975,-396.78 897.38,-391.796 901.46,-397.144 897.785,-386.813 897.785,-386.813"/>
<polygon fill="#b77bdc" stroke="#b77bdc" points="900.676,-351.203 905.97,-341.6 901.08,-346.219 901.485,-341.235 901.485,-341.235 901.485,-341.235 901.08,-346.219 897,-340.871 900.676,-351.203 900.676,-351.203"/>
</g>
<!-- Project&#45;&gt;PaperTrail::Version -->
<g id="edge24" class="edge"><title>Project&#45;&gt;PaperTrail::Version</title>
<path fill="none" stroke="#6e42dc" d="M801.331,-412.82C784.036,-391.579 768.356,-367.46 759,-342 734.166,-274.418 719.609,-240.269 759,-180 782.404,-144.193 891.326,-104.657 962.617,-81.9312"/>
<ellipse fill="none" stroke="#6e42dc" cx="803.937" cy="-415.95" rx="4.00002" ry="4.00002"/>
<polygon fill="#6e42dc" stroke="#6e42dc" points="962.878,-81.8488 973.769,-83.1294 967.646,-80.3435 972.414,-78.8381 972.414,-78.8381 972.414,-78.8381 967.646,-80.3435 971.059,-74.5469 962.878,-81.8488 962.878,-81.8488"/>
<text text-anchor="middle" x="788" y="-257.4" font-family="Times Roman,serif" font-size="14.00">versions</text>
</g>
<!-- Media&#45;&gt;ProjectMedia -->
<g id="edge34" class="edge"><title>Media&#45;&gt;ProjectMedia</title>
<path fill="none" stroke="#ef84c7" d="M839.611,-174.198C828.827,-160.512 817.795,-146.509 807.355,-133.259"/>
<ellipse fill="none" stroke="#ef84c7" cx="842.298" cy="-177.609" rx="4.00002" ry="4.00002"/>
<polygon fill="#ef84c7" stroke="#ef84c7" points="807.128,-132.97 804.474,-122.33 804.034,-129.043 800.939,-125.115 800.939,-125.115 800.939,-125.115 804.034,-129.043 797.405,-127.9 807.128,-132.97 807.128,-132.97"/>
</g>
<!-- Media&#45;&gt;PaperTrail::Version -->
<g id="edge32" class="edge"><title>Media&#45;&gt;PaperTrail::Version</title>
<path fill="none" stroke="#c13943" d="M938.475,-173.397C943.163,-163.223 948.349,-153.205 954,-144 966.407,-123.792 984.048,-103.849 998.763,-88.8085"/>
<ellipse fill="none" stroke="#c13943" cx="936.784" cy="-177.172" rx="4.00002" ry="4.00002"/>
<polygon fill="#c13943" stroke="#c13943" points="999.081,-88.4899 1009.33,-84.5945 1002.61,-84.9522 1006.15,-81.4145 1006.15,-81.4145 1006.15,-81.4145 1002.61,-84.9522 1002.96,-78.2344 999.081,-88.4899 999.081,-88.4899"/>
<text text-anchor="middle" x="983" y="-149.4" font-family="Times Roman,serif" font-size="14.00">versions</text>
</g>
<!-- User&#45;&gt;Source -->
<g id="edge36" class="edge"><title>User&#45;&gt;Source</title>
<path fill="none" stroke="#dc7d2b" d="M1077.54,-840.938C1077.36,-832.895 1077.18,-825.018 1077.01,-817.405"/>
<ellipse fill="none" stroke="#dc7d2b" cx="1077.64" cy="-844.964" rx="4" ry="4"/>
<ellipse fill="#dc7d2b" stroke="#dc7d2b" cx="1076.91" cy="-813.25" rx="4" ry="4"/>
</g>
<!-- User&#45;&gt;Project -->
<g id="edge40" class="edge"><title>User&#45;&gt;Project</title>
<path fill="none" stroke="#affe7c" d="M995.784,-841.125C991.688,-830.642 987.733,-820.22 984,-810 959.164,-742.011 935.638,-664.147 918.211,-602.845"/>
<ellipse fill="none" stroke="#affe7c" cx="997.326" cy="-845.045" rx="4.00001" ry="4.00001"/>
<polygon fill="#affe7c" stroke="#affe7c" points="918.191,-602.774 919.797,-591.927 916.829,-597.963 915.467,-593.152 915.467,-593.152 915.467,-593.152 916.829,-597.963 911.137,-594.378 918.191,-602.774 918.191,-602.774"/>
</g>
<!-- User&#45;&gt;TeamUser -->
<g id="edge38" class="edge"><title>User&#45;&gt;TeamUser</title>
<path fill="none" stroke="#259b9f" d="M1192.95,-841.736C1201.28,-827.073 1209.3,-812.949 1216.69,-799.951"/>
<ellipse fill="none" stroke="#259b9f" cx="1190.82" cy="-845.485" rx="4.00002" ry="4.00002"/>
<polygon fill="#259b9f" stroke="#259b9f" points="1216.75,-799.835 1225.61,-793.363 1219.22,-795.487 1221.69,-791.14 1221.69,-791.14 1221.69,-791.14 1219.22,-795.487 1217.78,-788.917 1216.75,-799.835 1216.75,-799.835"/>
</g>
<!-- ApiKey -->
<g id="node15" class="node"><title>ApiKey</title>
<polyline fill="none" stroke="black" points="1194,-1310 1338,-1310 "/>
<path fill="none" stroke="black" d="M1338,-1310C1344,-1310 1350,-1316 1350,-1322"/>
<polyline fill="none" stroke="black" points="1350,-1322 1350,-1440 "/>
<path fill="none" stroke="black" d="M1350,-1440C1350,-1446 1344,-1452 1338,-1452"/>
<polyline fill="none" stroke="black" points="1338,-1452 1194,-1452 "/>
<path fill="none" stroke="black" d="M1194,-1452C1188,-1452 1182,-1446 1182,-1440"/>
<polyline fill="none" stroke="black" points="1182,-1440 1182,-1322 "/>
<path fill="none" stroke="black" d="M1182,-1322C1182,-1316 1188,-1310 1194,-1310"/>
<text text-anchor="middle" x="1266" y="-1435.4" font-family="Times Roman,serif" font-size="14.00">ApiKey</text>
<polyline fill="none" stroke="black" points="1182,-1426 1350,-1426 "/>
<text text-anchor="start" x="1190" y="-1409.4" font-family="Times Roman,serif" font-size="14.00">id :INTEGER</text>
<text text-anchor="start" x="1190" y="-1391.4" font-family="Times Roman,serif" font-size="14.00">access_token :varchar</text>
<text text-anchor="start" x="1190" y="-1373.4" font-family="Times Roman,serif" font-size="14.00">expire_at :datetime</text>
<text text-anchor="start" x="1190" y="-1355.4" font-family="Times Roman,serif" font-size="14.00">created_at :datetime</text>
<text text-anchor="start" x="1190" y="-1337.4" font-family="Times Roman,serif" font-size="14.00">updated_at :datetime</text>
<text text-anchor="start" x="1190" y="-1319.4" font-family="Times Roman,serif" font-size="14.00">application :varchar</text>
</g>
</g>
</svg>
