<?xml version="1.0" encoding="UTF-8" standalone="no"?>
<!DOCTYPE svg PUBLIC "-//W3C//DTD SVG 1.1//EN"
 "http://www.w3.org/Graphics/SVG/1.1/DTD/svg11.dtd">
<!-- Generated by graphviz version 2.26.3 (20100126.1600)
 -->
<!-- Title: models_diagram Pages: 1 -->
<svg width="810pt" height="474pt"
 viewBox="0.00 0.00 809.66 474.00" xmlns="http://www.w3.org/2000/svg" xmlns:xlink="http://www.w3.org/1999/xlink">
<g id="graph1" class="graph" transform="scale(1 1) rotate(0) translate(4 470)">
<title>models_diagram</title>
<polygon fill="none" stroke="none" points="-4,5 -4,-470 806.665,-470 806.665,5 -4,5"/>
<!-- Tag -->
<g id="node1" class="node"><title>Tag</title>
<ellipse fill="none" stroke="black" cx="28" cy="-447" rx="27.7881" ry="18.3848"/>
<text text-anchor="middle" x="28" y="-443.4" font-family="Times Roman,serif" font-size="14.00">Tag</text>
</g>
<!-- Status -->
<g id="node2" class="node"><title>Status</title>
<ellipse fill="none" stroke="black" cx="118" cy="-447" rx="43.8406" ry="18.3848"/>
<text text-anchor="middle" x="118" y="-443.4" font-family="Times Roman,serif" font-size="14.00">Status</text>
</g>
<!-- Flag -->
<g id="node3" class="node"><title>Flag</title>
<ellipse fill="none" stroke="black" cx="212" cy="-447" rx="31.8198" ry="18.3848"/>
<text text-anchor="middle" x="212" y="-443.4" font-family="Times Roman,serif" font-size="14.00">Flag</text>
</g>
<!-- Comment -->
<g id="node4" class="node"><title>Comment</title>
<ellipse fill="none" stroke="black" cx="320" cy="-447" rx="58.1882" ry="18.3848"/>
<text text-anchor="middle" x="320" y="-443.4" font-family="Times Roman,serif" font-size="14.00">Comment</text>
</g>
<!-- Annotation -->
<g id="node5" class="node"><title>Annotation</title>
<ellipse fill="none" stroke="black" cx="462" cy="-447" rx="65.9683" ry="18.3848"/>
<text text-anchor="middle" x="462" y="-443.4" font-family="Times Roman,serif" font-size="14.00">Annotation</text>
</g>
<!-- Source -->
<g id="node6" class="node"><title>Source</title>
<ellipse fill="none" stroke="black" cx="469" cy="-295" rx="44.7575" ry="18.3848"/>
<text text-anchor="middle" x="469" y="-291.4" font-family="Times Roman,serif" font-size="14.00">Source</text>
</g>
<!-- ProjectSource -->
<g id="node8" class="node"><title>ProjectSource</title>
<ellipse fill="none" stroke="black" cx="619" cy="-111" rx="79.196" ry="18.3848"/>
<text text-anchor="middle" x="619" y="-107.4" font-family="Times Roman,serif" font-size="14.00">ProjectSource</text>
</g>
<!-- Source&#45;&gt;ProjectSource -->
<g id="edge6" class="edge"><title>Source&#45;&gt;ProjectSource</title>
<path fill="none" stroke="#876364" d="M484.667,-270.277C491.024,-260.637 498.603,-249.615 506,-240 534.793,-202.576 571.279,-162.012 594.876,-136.562"/>
<ellipse fill="none" stroke="#876364" cx="482.459" cy="-273.662" rx="4.00002" ry="4.00002"/>
<polygon fill="#876364" stroke="#876364" points="594.947,-136.486 605.056,-132.236 598.355,-132.827 601.763,-129.169 601.763,-129.169 601.763,-129.169 598.355,-132.827 598.47,-126.101 594.947,-136.486 594.947,-136.486"/>
</g>
<!-- Account -->
<g id="node9" class="node"><title>Account</title>
<ellipse fill="none" stroke="black" cx="413" cy="-203" rx="50.9117" ry="18.3848"/>
<text text-anchor="middle" x="413" y="-199.4" font-family="Times Roman,serif" font-size="14.00">Account</text>
</g>
<!-- Source&#45;&gt;Account -->
<g id="edge4" class="edge"><title>Source&#45;&gt;Account</title>
<path fill="none" stroke="#8cd684" d="M453.555,-269.626C446.022,-257.251 436.961,-242.364 429.315,-229.804"/>
<ellipse fill="none" stroke="#8cd684" cx="455.856" cy="-273.407" rx="4.00002" ry="4.00002"/>
<polygon fill="#8cd684" stroke="#8cd684" points="429.24,-229.68 427.885,-218.799 426.641,-225.409 424.041,-221.138 424.041,-221.138 424.041,-221.138 426.641,-225.409 420.197,-223.478 429.24,-229.68 429.24,-229.68"/>
</g>
<!-- Project -->
<g id="node10" class="node"><title>Project</title>
<ellipse fill="none" stroke="black" cx="619" cy="-203" rx="45.9619" ry="18.3848"/>
<text text-anchor="middle" x="619" y="-199.4" font-family="Times Roman,serif" font-size="14.00">Project</text>
</g>
<!-- Source&#45;&gt;Project -->
<g id="edge8" class="edge"><title>Source&#45;&gt;Project</title>
<path fill="none" stroke="#666b25" d="M492.88,-270.479C503.826,-260.155 517.38,-248.574 531,-240 544.219,-231.679 559.633,-224.469 573.833,-218.681"/>
<polygon fill="#666b25" stroke="#666b25" points="492.592,-270.757 482.277,-274.48 489,-274.235 485.407,-277.713 485.407,-277.713 485.407,-277.713 489,-274.235 488.537,-280.946 492.592,-270.757 492.592,-270.757"/>
<polygon fill="#666b25" stroke="#666b25" points="574.123,-218.567 585.076,-219.092 578.776,-216.736 583.428,-214.905 583.428,-214.905 583.428,-214.905 578.776,-216.736 581.78,-210.717 574.123,-218.567 574.123,-218.567"/>
</g>
<!-- PaperTrail::Version -->
<g id="node17" class="node"><title>PaperTrail::Version</title>
<ellipse fill="none" stroke="black" cx="366" cy="-19" rx="101.823" ry="18.3848"/>
<text text-anchor="middle" x="366" y="-15.4" font-family="Times Roman,serif" font-size="14.00">PaperTrail::Version</text>
</g>
<!-- Source&#45;&gt;PaperTrail::Version -->
<g id="edge2" class="edge"><title>Source&#45;&gt;PaperTrail::Version</title>
<path fill="none" stroke="#33c7dd" d="M430.058,-277.688C390.859,-257.529 334.097,-219.957 319,-166 307.209,-123.858 329.593,-75.6554 347.345,-46.278"/>
<ellipse fill="none" stroke="#33c7dd" cx="434.069" cy="-279.697" rx="4.00002" ry="4.00002"/>
<polygon fill="#33c7dd" stroke="#33c7dd" points="347.581,-45.9028 356.708,-39.8253 350.239,-41.6679 352.897,-37.433 352.897,-37.433 352.897,-37.433 350.239,-41.6679 349.085,-35.0406 347.581,-45.9028 347.581,-45.9028"/>
<text text-anchor="middle" x="348" y="-153.4" font-family="Times Roman,serif" font-size="14.00">versions</text>
</g>
<!-- Team -->
<g id="node7" class="node"><title>Team</title>
<ellipse fill="none" stroke="black" cx="583" cy="-447" rx="36.977" ry="18.3848"/>
<text text-anchor="middle" x="583" y="-443.4" font-family="Times Roman,serif" font-size="14.00">Team</text>
</g>
<!-- Team&#45;&gt;Project -->
<g id="edge12" class="edge"><title>Team&#45;&gt;Project</title>
<path fill="none" stroke="#6669bb" d="M609.953,-425.879C637.847,-402.135 679.71,-360.738 697,-314 702.86,-298.16 703.72,-291.494 697,-276 687.95,-255.135 669.673,-237.509 653.086,-224.807"/>
<ellipse fill="none" stroke="#6669bb" cx="606.602" cy="-428.679" rx="4.00002" ry="4.00002"/>
<polygon fill="#6669bb" stroke="#6669bb" points="652.697,-224.523 647.278,-214.989 648.66,-221.572 644.623,-218.622 644.623,-218.622 644.623,-218.622 648.66,-221.572 641.968,-222.255 652.697,-224.523 652.697,-224.523"/>
</g>
<!-- TeamUser -->
<g id="node11" class="node"><title>TeamUser</title>
<ellipse fill="none" stroke="black" cx="629" cy="-295" rx="58.8978" ry="18.3848"/>
<text text-anchor="middle" x="629" y="-291.4" font-family="Times Roman,serif" font-size="14.00">TeamUser</text>
</g>
<!-- Team&#45;&gt;TeamUser -->
<g id="edge14" class="edge"><title>Team&#45;&gt;TeamUser</title>
<path fill="none" stroke="#4bed9d" d="M590.87,-420.994C599.077,-393.876 611.902,-351.497 620.378,-323.49"/>
<ellipse fill="none" stroke="#4bed9d" cx="589.707" cy="-424.837" rx="4.00001" ry="4.00001"/>
<polygon fill="#4bed9d" stroke="#4bed9d" points="620.391,-323.448 627.594,-315.18 621.839,-318.662 623.287,-313.877 623.287,-313.877 623.287,-313.877 621.839,-318.662 618.98,-312.573 620.391,-323.448 620.391,-323.448"/>
</g>
<!-- User -->
<g id="node14" class="node"><title>User</title>
<ellipse fill="none" stroke="black" cx="549" cy="-371" rx="33.9411" ry="18.3848"/>
<text text-anchor="middle" x="549" y="-367.4" font-family="Times Roman,serif" font-size="14.00">User</text>
</g>
<!-- Team&#45;&gt;User -->
<g id="edge16" class="edge"><title>Team&#45;&gt;User</title>
<path fill="none" stroke="#d332b3" d="M570.651,-419.396C567.632,-412.647 564.401,-405.425 561.38,-398.673"/>
<polygon fill="#d332b3" stroke="#d332b3" points="570.686,-419.474 570.662,-430.44 572.728,-424.038 574.77,-428.603 574.77,-428.603 574.77,-428.603 572.728,-424.038 578.877,-426.765 570.686,-419.474 570.686,-419.474"/>
<polygon fill="#d332b3" stroke="#d332b3" points="561.238,-398.356 561.262,-387.39 559.197,-393.792 557.155,-389.228 557.155,-389.228 557.155,-389.228 559.197,-393.792 553.047,-391.066 561.238,-398.356 561.238,-398.356"/>
</g>
<!-- Team&#45;&gt;PaperTrail::Version -->
<g id="edge10" class="edge"><title>Team&#45;&gt;PaperTrail::Version</title>
<path fill="none" stroke="#37afed" d="M547.497,-431.528C543.983,-430.241 540.443,-429.038 537,-428 474.119,-409.038 247,-436.677 247,-371 247,-371 247,-371 247,-111 247,-77.2763 277.283,-54.1651 307.295,-39.5412"/>
<ellipse fill="none" stroke="#37afed" cx="551.366" cy="-433.013" rx="4.00001" ry="4.00001"/>
<polygon fill="#37afed" stroke="#37afed" points="307.483,-39.4546 318.449,-39.3605 312.025,-37.3637 316.567,-35.2728 316.567,-35.2728 316.567,-35.2728 312.025,-37.3637 314.685,-31.1852 307.483,-39.4546 307.483,-39.4546"/>
<text text-anchor="middle" x="276" y="-245.4" font-family="Times Roman,serif" font-size="14.00">versions</text>
</g>
<!-- Media -->
<g id="node13" class="node"><title>Media</title>
<ellipse fill="none" stroke="black" cx="482" cy="-111" rx="39.8075" ry="18.3848"/>
<text text-anchor="middle" x="482" y="-107.4" font-family="Times Roman,serif" font-size="14.00">Media</text>
</g>
<!-- Account&#45;&gt;Media -->
<g id="edge20" class="edge"><title>Account&#45;&gt;Media</title>
<path fill="none" stroke="#51d90b" d="M431.469,-178.375C441.146,-165.472 452.987,-149.684 462.773,-136.636"/>
<ellipse fill="none" stroke="#51d90b" cx="429.032" cy="-181.624" rx="4.00002" ry="4.00002"/>
<polygon fill="#51d90b" stroke="#51d90b" points="462.864,-136.514 472.464,-131.214 465.864,-132.514 468.864,-128.514 468.864,-128.514 468.864,-128.514 465.864,-132.514 465.264,-125.814 462.864,-136.514 462.864,-136.514"/>
</g>
<!-- Account&#45;&gt;PaperTrail::Version -->
<g id="edge18" class="edge"><title>Account&#45;&gt;PaperTrail::Version</title>
<path fill="none" stroke="#7cd5f8" d="M396.698,-177.818C388.731,-164.213 379.838,-146.798 375,-130 367.193,-102.894 365.361,-70.6326 365.23,-47.895"/>
<ellipse fill="none" stroke="#7cd5f8" cx="398.933" cy="-181.531" rx="4.00002" ry="4.00002"/>
<polygon fill="#7cd5f8" stroke="#7cd5f8" points="365.23,-47.8669 369.778,-37.8889 365.254,-42.867 365.279,-37.8671 365.279,-37.8671 365.279,-37.8671 365.254,-42.867 360.779,-37.8453 365.23,-47.8669 365.23,-47.8669"/>
<text text-anchor="middle" x="404" y="-107.4" font-family="Times Roman,serif" font-size="14.00">versions</text>
</g>
<!-- Project&#45;&gt;ProjectSource -->
<g id="edge24" class="edge"><title>Project&#45;&gt;ProjectSource</title>
<path fill="none" stroke="#17a740" d="M619,-176.029C619,-164.599 619,-151.267 619,-139.66"/>
<ellipse fill="none" stroke="#17a740" cx="619" cy="-180.382" rx="4" ry="4"/>
<polygon fill="#17a740" stroke="#17a740" points="619,-139.59 623.5,-129.59 619,-134.59 619,-129.59 619,-129.59 619,-129.59 619,-134.59 614.5,-129.59 619,-139.59 619,-139.59"/>
</g>
<!-- ProjectMedia -->
<g id="node12" class="node"><title>ProjectMedia</title>
<ellipse fill="none" stroke="black" cx="690" cy="-19" rx="74.2462" ry="18.3848"/>
<text text-anchor="middle" x="690" y="-15.4" font-family="Times Roman,serif" font-size="14.00">ProjectMedia</text>
</g>
<!-- Project&#45;&gt;ProjectMedia -->
<g id="edge26" class="edge"><title>Project&#45;&gt;ProjectMedia</title>
<path fill="none" stroke="#d0a2a4" d="M668.614,-193.241C693.275,-187.29 723.057,-178.402 748,-166 771.878,-154.128 784.074,-153.851 796,-130 803.553,-114.894 803.553,-107.106 796,-92 784.231,-68.4622 760.856,-51.1313 739.045,-39.2781"/>
<ellipse fill="none" stroke="#d0a2a4" cx="664.695" cy="-194.159" rx="4.00001" ry="4.00001"/>
<polygon fill="#d0a2a4" stroke="#d0a2a4" points="739.039,-39.2752 732.217,-30.69 734.596,-36.982 730.153,-34.6888 730.153,-34.6888 730.153,-34.6888 734.596,-36.982 728.089,-38.6876 739.039,-39.2752 739.039,-39.2752"/>
</g>
<!-- Project&#45;&gt;Media -->
<g id="edge28" class="edge"><title>Project&#45;&gt;Media</title>
<path fill="none" stroke="#b70969" d="M586.686,-181.3C564.566,-166.446 535.384,-146.849 513.451,-132.121"/>
<polygon fill="#b70969" stroke="#b70969" points="586.835,-181.4 592.628,-190.711 590.986,-184.187 595.136,-186.975 595.136,-186.975 595.136,-186.975 590.986,-184.187 597.645,-183.239 586.835,-181.4 586.835,-181.4"/>
<polygon fill="#b70969" stroke="#b70969" points="513.435,-132.11 507.642,-122.799 509.285,-129.322 505.134,-126.535 505.134,-126.535 505.134,-126.535 509.285,-129.322 502.625,-130.271 513.435,-132.11 513.435,-132.11"/>
</g>
<!-- Project&#45;&gt;PaperTrail::Version -->
<g id="edge22" class="edge"><title>Project&#45;&gt;PaperTrail::Version</title>
<path fill="none" stroke="#c8b84e" d="M653.387,-183.331C687.949,-161.073 732.695,-123.778 707,-92 677.585,-55.6217 559.412,-36.5617 470.364,-27.1679"/>
<ellipse fill="none" stroke="#c8b84e" cx="649.583" cy="-185.719" rx="4.00002" ry="4.00002"/>
<polygon fill="#c8b84e" stroke="#c8b84e" points="470.153,-27.1462 460.665,-21.648 465.179,-26.6353 460.205,-26.1244 460.205,-26.1244 460.205,-26.1244 465.179,-26.6353 459.745,-30.6009 470.153,-27.1462 470.153,-27.1462"/>
<text text-anchor="middle" x="743" y="-107.4" font-family="Times Roman,serif" font-size="14.00">versions</text>
</g>
<!-- Media&#45;&gt;ProjectMedia -->
<g id="edge32" class="edge"><title>Media&#45;&gt;ProjectMedia</title>
<path fill="none" stroke="#a541df" d="M518.674,-94.7787C553.603,-79.3294 606.301,-56.0206 644.023,-39.3362"/>
<ellipse fill="none" stroke="#a541df" cx="514.58" cy="-96.5897" rx="4.00002" ry="4.00002"/>
<polygon fill="#a541df" stroke="#a541df" points="644.125,-39.291 655.09,-39.3613 648.697,-37.2684 653.27,-35.2459 653.27,-35.2459 653.27,-35.2459 648.697,-37.2684 651.45,-31.1305 644.125,-39.291 644.125,-39.291"/>
</g>
<!-- Media&#45;&gt;PaperTrail::Version -->
<g id="edge30" class="edge"><title>Media&#45;&gt;PaperTrail::Version</title>
<path fill="none" stroke="#af8930" d="M455.265,-89.7964C437.81,-75.9526 414.966,-57.8351 396.757,-43.3939"/>
<ellipse fill="none" stroke="#af8930" cx="458.66" cy="-92.4892" rx="4.00002" ry="4.00002"/>
<polygon fill="#af8930" stroke="#af8930" points="396.589,-43.2599 391.55,-33.5202 392.671,-40.1529 388.754,-37.0459 388.754,-37.0459 388.754,-37.0459 392.671,-40.1529 385.957,-40.5717 396.589,-43.2599 396.589,-43.2599"/>
<text text-anchor="middle" x="463" y="-61.4" font-family="Times Roman,serif" font-size="14.00">versions</text>
</g>
<!-- User&#45;&gt;Source -->
<g id="edge34" class="edge"><title>User&#45;&gt;Source</title>
<path fill="none" stroke="#c3c706" d="M526.187,-349.328C515.811,-339.471 503.53,-327.804 493.014,-317.813"/>
<ellipse fill="none" stroke="#c3c706" cx="529.134" cy="-352.127" rx="4.00002" ry="4.00002"/>
<ellipse fill="#c3c706" stroke="#c3c706" cx="489.953" cy="-314.906" rx="4.00002" ry="4.00002"/>
</g>
<!-- User&#45;&gt;Project -->
<g id="edge38" class="edge"><title>User&#45;&gt;Project</title>
<path fill="none" stroke="#835f4c" d="M548.57,-344.2C549.15,-324.602 551.84,-297.755 561,-276 568.614,-257.917 582.02,-240.593 594.027,-227.362"/>
<ellipse fill="none" stroke="#835f4c" cx="548.502" cy="-348.385" rx="4" ry="4"/>
<polygon fill="#835f4c" stroke="#835f4c" points="594.032,-227.357 604.159,-223.153 597.456,-223.714 600.88,-220.071 600.88,-220.071 600.88,-220.071 597.456,-223.714 597.601,-216.989 594.032,-227.357 594.032,-227.357"/>
</g>
<!-- User&#45;&gt;TeamUser -->
<g id="edge36" class="edge"><title>User&#45;&gt;TeamUser</title>
<path fill="none" stroke="#6a1100" d="M572.062,-349.091C581.755,-339.882 593.076,-329.127 603.059,-319.644"/>
<ellipse fill="none" stroke="#6a1100" cx="568.866" cy="-352.127" rx="4.00002" ry="4.00002"/>
<polygon fill="#6a1100" stroke="#6a1100" points="603.132,-319.574 613.482,-315.949 606.757,-316.131 610.382,-312.687 610.382,-312.687 610.382,-312.687 606.757,-316.131 607.283,-309.424 603.132,-319.574 603.132,-319.574"/>
</g>
<!-- ApiKey -->
<g id="node15" class="node"><title>ApiKey</title>
<ellipse fill="none" stroke="black" cx="682" cy="-447" rx="44.0472" ry="18.3848"/>
<text text-anchor="middle" x="682" y="-443.4" font-family="Times Roman,serif" font-size="14.00">ApiKey</text>
</g>
</g>
</svg>
