<?xml version="1.0" encoding="UTF-8" standalone="no"?>
<!DOCTYPE svg PUBLIC "-//W3C//DTD SVG 1.1//EN"
 "http://www.w3.org/Graphics/SVG/1.1/DTD/svg11.dtd">
<!-- Generated by graphviz version 2.40.1 (20161225.0304)
 -->
<!-- Title: models_diagram Pages: 1 -->
<svg width="2005pt" height="715pt"
 viewBox="0.00 0.00 2005.34 715.00" xmlns="http://www.w3.org/2000/svg" xmlns:xlink="http://www.w3.org/1999/xlink">
<g id="graph0" class="graph" transform="scale(1 1) rotate(0) translate(4 711)">
<title>models_diagram</title>
<!-- Annotation -->
<g id="node1" class="node">
<title>Annotation</title>
<ellipse fill="none" stroke="#000000" cx="232.1459" cy="-178" rx="50.0912" ry="18"/>
<text text-anchor="middle" x="232.1459" y="-174.3" font-family="Times,serif" font-size="14.00" fill="#000000">Annotation</text>
</g>
<!-- Version -->
<g id="node9" class="node">
<title>Version</title>
<ellipse fill="none" stroke="#000000" cx="789.1459" cy="-18" rx="38.1938" ry="18"/>
<text text-anchor="middle" x="789.1459" y="-14.3" font-family="Times,serif" font-size="14.00" fill="#000000">Version</text>
</g>
<!-- Annotation&#45;&gt;Version -->
<g id="edge2" class="edge">
<title>Annotation&#45;&gt;Version</title>
<path fill="none" stroke="#76916c" d="M238.154,-151.8545C245.2534,-127.2936 259.6105,-91.6146 286.1459,-73 322.883,-47.2289 621.4284,-27.5579 740.4393,-20.6674"/>
<ellipse fill="none" stroke="#76916c" cx="237.0664" cy="-155.8569" rx="4" ry="4"/>
<polygon fill="#76916c" stroke="#76916c" points="740.7286,-20.6509 750.9697,-24.5713 745.7204,-20.3648 750.7122,-20.0787 750.7122,-20.0787 750.7122,-20.0787 745.7204,-20.3648 750.4546,-15.586 740.7286,-20.6509 740.7286,-20.6509"/>
</g>
<!-- Assignment -->
<g id="node17" class="node">
<title>Assignment</title>
<ellipse fill="none" stroke="#000000" cx="348.1459" cy="-91" rx="53.0913" ry="18"/>
<text text-anchor="middle" x="348.1459" y="-87.3" font-family="Times,serif" font-size="14.00" fill="#000000">Assignment</text>
</g>
<!-- Annotation&#45;&gt;Assignment -->
<g id="edge1" class="edge">
<title>Annotation&#45;&gt;Assignment</title>
<path fill="none" stroke="#0135dc" d="M258.7657,-156.13C270.1442,-146.9542 283.6591,-136.2812 296.1459,-127 302.3256,-122.4067 309.0216,-117.6286 315.4873,-113.1116"/>
<ellipse fill="none" stroke="#0135dc" cx="255.4452" cy="-158.8198" rx="4" ry="4"/>
<polygon fill="#0135dc" stroke="#0135dc" points="315.8691,-112.8473 326.6526,-110.8557 319.9802,-110.0015 324.0914,-107.1557 324.0914,-107.1557 324.0914,-107.1557 319.9802,-110.0015 321.5301,-103.4557 315.8691,-112.8473 315.8691,-112.8473"/>
</g>
<!-- Comment -->
<g id="node2" class="node">
<title>Comment</title>
<ellipse fill="none" stroke="#000000" cx="46.1459" cy="-178" rx="46.2923" ry="18"/>
<text text-anchor="middle" x="46.1459" y="-174.3" font-family="Times,serif" font-size="14.00" fill="#000000">Comment</text>
</g>
<!-- Comment&#45;&gt;Version -->
<g id="edge4" class="edge">
<title>Comment&#45;&gt;Version</title>
<path fill="none" stroke="#abe220" d="M70.8134,-155.8528C99.3437,-131.5221 148.7504,-93.2204 198.1459,-73 296.0239,-32.9328 616.9079,-21.7586 740.246,-18.9033"/>
<ellipse fill="none" stroke="#abe220" cx="67.7363" cy="-158.507" rx="4" ry="4"/>
<polygon fill="#abe220" stroke="#abe220" points="740.519,-18.8973 750.6168,-23.1732 745.5177,-18.7858 750.5165,-18.6743 750.5165,-18.6743 750.5165,-18.6743 745.5177,-18.7858 750.4162,-14.1754 740.519,-18.8973 740.519,-18.8973"/>
</g>
<!-- Comment&#45;&gt;Assignment -->
<g id="edge3" class="edge">
<title>Comment&#45;&gt;Assignment</title>
<path fill="none" stroke="#bd5ff6" d="M89.0966,-163.8185C93.1648,-162.5129 97.2303,-161.2225 101.1459,-160 150.2744,-144.6611 162.5967,-140.92 212.1459,-127 239.6509,-119.273 270.4146,-111.0912 295.7165,-104.4835"/>
<ellipse fill="none" stroke="#bd5ff6" cx="85.1153" cy="-165.1044" rx="4" ry="4"/>
<polygon fill="#bd5ff6" stroke="#bd5ff6" points="295.8061,-104.4602 306.6174,-106.2948 300.6447,-103.2001 305.4833,-101.9401 305.4833,-101.9401 305.4833,-101.9401 300.6447,-103.2001 304.3492,-97.5853 295.8061,-104.4602 295.8061,-104.4602"/>
</g>
<!-- Tag -->
<g id="node3" class="node">
<title>Tag</title>
<ellipse fill="none" stroke="#000000" cx="137.1459" cy="-178" rx="27" ry="18"/>
<text text-anchor="middle" x="137.1459" y="-174.3" font-family="Times,serif" font-size="14.00" fill="#000000">Tag</text>
</g>
<!-- Tag&#45;&gt;Version -->
<g id="edge6" class="edge">
<title>Tag&#45;&gt;Version</title>
<path fill="none" stroke="#8468d7" d="M154.8537,-155.7043C175.5039,-131.3378 211.9727,-93.0977 252.1459,-73 337.1813,-30.4588 624.7957,-20.802 740.4199,-18.6264"/>
<ellipse fill="none" stroke="#8468d7" cx="152.2663" cy="-158.8087" rx="4" ry="4"/>
<polygon fill="#8468d7" stroke="#8468d7" points="740.7361,-18.6209 750.8142,-22.943 745.7353,-18.5323 750.7345,-18.4437 750.7345,-18.4437 750.7345,-18.4437 745.7353,-18.5323 750.6548,-13.9444 740.7361,-18.6209 740.7361,-18.6209"/>
</g>
<!-- Tag&#45;&gt;Assignment -->
<g id="edge5" class="edge">
<title>Tag&#45;&gt;Assignment</title>
<path fill="none" stroke="#c9785f" d="M165.9234,-163.3319C168.3541,-162.1782 170.7847,-161.0533 173.1459,-160 216.3562,-140.7237 266.7073,-121.1663 302.2773,-107.8197"/>
<ellipse fill="none" stroke="#c9785f" cx="162.299" cy="-165.0906" rx="4" ry="4"/>
<polygon fill="#c9785f" stroke="#c9785f" points="302.5319,-107.7247 313.4744,-108.4409 307.2158,-105.975 311.8997,-104.2254 311.8997,-104.2254 311.8997,-104.2254 307.2158,-105.975 310.3251,-100.0099 302.5319,-107.7247 302.5319,-107.7247"/>
</g>
<!-- Task -->
<g id="node4" class="node">
<title>Task</title>
<ellipse fill="none" stroke="#000000" cx="442.1459" cy="-178" rx="27.8951" ry="18"/>
<text text-anchor="middle" x="442.1459" y="-174.3" font-family="Times,serif" font-size="14.00" fill="#000000">Task</text>
</g>
<!-- Task&#45;&gt;Version -->
<g id="edge8" class="edge">
<title>Task&#45;&gt;Version</title>
<path fill="none" stroke="#3db0cc" d="M443.1716,-151.8942C445.8119,-123.141 454.7294,-77.8295 484.1459,-54 503.649,-38.2011 659.4686,-26.1671 740.5234,-20.907"/>
<ellipse fill="none" stroke="#3db0cc" cx="442.8649" cy="-155.9001" rx="4" ry="4"/>
<polygon fill="#3db0cc" stroke="#3db0cc" points="740.9901,-20.8773 751.2566,-24.7305 745.9799,-20.5585 750.9697,-20.2397 750.9697,-20.2397 750.9697,-20.2397 745.9799,-20.5585 750.6828,-15.7488 740.9901,-20.8773 740.9901,-20.8773"/>
</g>
<!-- Task&#45;&gt;Assignment -->
<g id="edge7" class="edge">
<title>Task&#45;&gt;Assignment</title>
<path fill="none" stroke="#5ed818" d="M425.3709,-154.9374C418.1341,-145.7411 409.2483,-135.3734 400.1459,-127 394.7014,-121.9915 388.5208,-117.1257 382.3688,-112.6745"/>
<ellipse fill="none" stroke="#5ed818" cx="427.8895" cy="-158.2112" rx="4" ry="4"/>
<polygon fill="#5ed818" stroke="#5ed818" points="382.2719,-112.607 376.6432,-103.1959 378.1706,-109.747 374.0692,-106.8871 374.0692,-106.8871 374.0692,-106.8871 378.1706,-109.747 371.4953,-110.5783 382.2719,-112.607 382.2719,-112.607"/>
</g>
<!-- Dynamic -->
<g id="node5" class="node">
<title>Dynamic</title>
<ellipse fill="none" stroke="#000000" cx="1214.1459" cy="-178" rx="43.5923" ry="18"/>
<text text-anchor="middle" x="1214.1459" y="-174.3" font-family="Times,serif" font-size="14.00" fill="#000000">Dynamic</text>
</g>
<!-- Dynamic&#45;&gt;Version -->
<g id="edge10" class="edge">
<title>Dynamic&#45;&gt;Version</title>
<path fill="none" stroke="#d39fe1" d="M1191.9147,-155.4776C1167.1922,-131.6656 1125.0578,-94.6211 1082.1459,-73 1039.8536,-51.6911 908.3026,-32.7422 836.7164,-23.6681"/>
<ellipse fill="none" stroke="#d39fe1" cx="1194.9504" cy="-158.4368" rx="4" ry="4"/>
<polygon fill="#d39fe1" stroke="#d39fe1" points="836.5298,-23.6448 827.1667,-17.9367 831.5686,-23.0233 826.6074,-22.4018 826.6074,-22.4018 826.6074,-22.4018 831.5686,-23.0233 826.048,-26.867 836.5298,-23.6448 836.5298,-23.6448"/>
</g>
<!-- Dynamic&#45;&gt;Assignment -->
<g id="edge9" class="edge">
<title>Dynamic&#45;&gt;Assignment</title>
<path fill="none" stroke="#73df5a" d="M1180.0067,-159.9461C1156.1133,-148.2669 1123.0608,-133.9831 1092.1459,-127 1083.8709,-125.1308 588.8787,-102.1197 410.9682,-93.8971"/>
<ellipse fill="none" stroke="#73df5a" cx="1183.846" cy="-161.8539" rx="4" ry="4"/>
<polygon fill="#73df5a" stroke="#73df5a" points="410.9607,-93.8968 401.1791,-88.94 405.9661,-93.666 400.9714,-93.4352 400.9714,-93.4352 400.9714,-93.4352 405.9661,-93.666 400.7636,-97.9304 410.9607,-93.8968 410.9607,-93.8968"/>
</g>
<!-- DynamicAnnotation::Field -->
<g id="node35" class="node">
<title>DynamicAnnotation::Field</title>
<ellipse fill="none" stroke="#000000" cx="1256.1459" cy="-91" rx="105.8812" ry="18"/>
<text text-anchor="middle" x="1256.1459" y="-87.3" font-family="Times,serif" font-size="14.00" fill="#000000">DynamicAnnotation::Field</text>
</g>
<!-- Dynamic&#45;&gt;DynamicAnnotation::Field -->
<g id="edge11" class="edge">
<title>Dynamic&#45;&gt;DynamicAnnotation::Field</title>
<path fill="none" stroke="#742ba6" d="M1226.423,-152.5688C1231.6405,-141.7611 1237.7317,-129.1436 1243.0367,-118.1547"/>
<ellipse fill="none" stroke="#742ba6" cx="1224.5874" cy="-156.3713" rx="4" ry="4"/>
<polygon fill="#742ba6" stroke="#742ba6" points="1243.1071,-118.0089 1251.5071,-110.9598 1245.2809,-113.5061 1247.4546,-109.0034 1247.4546,-109.0034 1247.4546,-109.0034 1245.2809,-113.5061 1243.4021,-107.047 1243.1071,-118.0089 1243.1071,-118.0089"/>
<text text-anchor="middle" x="1252.6459" y="-130.8" font-family="Times,serif" font-size="14.00" fill="#000000">fields</text>
</g>
<!-- PublicTeam -->
<g id="node6" class="node">
<title>PublicTeam</title>
<ellipse fill="none" stroke="#000000" cx="1533.1459" cy="-689" rx="53.8905" ry="18"/>
<text text-anchor="middle" x="1533.1459" y="-685.3" font-family="Times,serif" font-size="14.00" fill="#000000">PublicTeam</text>
</g>
<!-- TeamTask -->
<g id="node7" class="node">
<title>TeamTask</title>
<ellipse fill="none" stroke="#000000" cx="1710.1459" cy="-470" rx="48.1917" ry="18"/>
<text text-anchor="middle" x="1710.1459" y="-466.3" font-family="Times,serif" font-size="14.00" fill="#000000">TeamTask</text>
</g>
<!-- PublicTeam&#45;&gt;TeamTask -->
<g id="edge20" class="edge">
<title>PublicTeam&#45;&gt;TeamTask</title>
<path fill="none" stroke="#70895f" d="M1574.1909,-671.4807C1625.162,-648.7864 1707.4596,-608.7349 1724.1459,-580 1738.78,-554.7992 1731.2125,-520.9403 1722.5827,-497.4738"/>
<ellipse fill="none" stroke="#70895f" cx="1570.2605" cy="-673.2177" rx="4" ry="4"/>
<polygon fill="#70895f" stroke="#70895f" points="1722.5569,-497.4084 1723.0657,-486.4543 1720.7188,-492.7585 1718.8808,-488.1086 1718.8808,-488.1086 1718.8808,-488.1086 1720.7188,-492.7585 1714.6958,-489.7628 1722.5569,-497.4084 1722.5569,-497.4084"/>
</g>
<!-- TagText -->
<g id="node8" class="node">
<title>TagText</title>
<ellipse fill="none" stroke="#000000" cx="1358.1459" cy="-470" rx="40.0939" ry="18"/>
<text text-anchor="middle" x="1358.1459" y="-466.3" font-family="Times,serif" font-size="14.00" fill="#000000">TagText</text>
</g>
<!-- PublicTeam&#45;&gt;TagText -->
<g id="edge19" class="edge">
<title>PublicTeam&#45;&gt;TagText</title>
<path fill="none" stroke="#fb13fd" d="M1540.8788,-663.1868C1551.6021,-621.4319 1564.6186,-540.2952 1516.1459,-506 1511.5019,-502.7143 1449.6385,-489.2065 1404.7236,-479.7071"/>
<ellipse fill="none" stroke="#fb13fd" cx="1539.8213" cy="-667.1241" rx="4" ry="4"/>
<polygon fill="#fb13fd" stroke="#fb13fd" points="1404.6407,-479.6897 1395.7841,-473.2236 1399.7482,-478.6582 1394.8558,-477.6268 1394.8558,-477.6268 1394.8558,-477.6268 1399.7482,-478.6582 1393.9274,-482.03 1404.6407,-479.6897 1404.6407,-479.6897"/>
</g>
<!-- PublicTeam&#45;&gt;Version -->
<g id="edge12" class="edge">
<title>PublicTeam&#45;&gt;Version</title>
<path fill="none" stroke="#87886b" d="M1581.4388,-674.8074C1586.3927,-673.4699 1591.3615,-672.1764 1596.1459,-671 1654.7615,-656.5876 1862.1459,-676.3615 1862.1459,-616 1862.1459,-616 1862.1459,-616 1862.1459,-91 1862.1459,-38.9278 1047.1562,-22.1726 837.7327,-18.7268"/>
<ellipse fill="none" stroke="#87886b" cx="1577.5522" cy="-675.875" rx="4" ry="4"/>
<polygon fill="#87886b" stroke="#87886b" points="837.6496,-18.7255 827.7238,-14.0641 832.6502,-18.6445 827.6509,-18.5635 827.6509,-18.5635 827.6509,-18.5635 832.6502,-18.6445 827.578,-23.0629 837.6496,-18.7255 837.6496,-18.7255"/>
</g>
<!-- ProjectMedia -->
<g id="node15" class="node">
<title>ProjectMedia</title>
<ellipse fill="none" stroke="#000000" cx="980.1459" cy="-178" rx="58.4896" ry="18"/>
<text text-anchor="middle" x="980.1459" y="-174.3" font-family="Times,serif" font-size="14.00" fill="#000000">ProjectMedia</text>
</g>
<!-- PublicTeam&#45;&gt;ProjectMedia -->
<g id="edge21" class="edge">
<title>PublicTeam&#45;&gt;ProjectMedia</title>
<path fill="none" stroke="#ecadc4" d="M1470.8717,-688.2756C1327.3413,-685.898 977.2414,-675.8538 868.1459,-634 818.1012,-614.8007 798.8567,-607.4717 772.1459,-561 743.7933,-511.6719 741.8282,-482.3482 770.1459,-433 798.518,-383.5569 909.4597,-257.1334 957.6245,-203.1018"/>
<ellipse fill="none" stroke="#ecadc4" cx="1475.2003" cy="-688.3447" rx="4" ry="4"/>
<polygon fill="#ecadc4" stroke="#ecadc4" points="957.8653,-202.8321 967.8826,-198.3706 961.1957,-199.1026 964.5261,-195.3732 964.5261,-195.3732 964.5261,-195.3732 961.1957,-199.1026 961.1696,-192.3759 957.8653,-202.8321 957.8653,-202.8321"/>
</g>
<!-- Contact -->
<g id="node22" class="node">
<title>Contact</title>
<ellipse fill="none" stroke="#000000" cx="1492.1459" cy="-470" rx="38.1938" ry="18"/>
<text text-anchor="middle" x="1492.1459" y="-466.3" font-family="Times,serif" font-size="14.00" fill="#000000">Contact</text>
</g>
<!-- PublicTeam&#45;&gt;Contact -->
<g id="edge17" class="edge">
<title>PublicTeam&#45;&gt;Contact</title>
<path fill="none" stroke="#cb402c" d="M1558.6868,-665.8601C1561.7259,-661.8857 1564.3737,-657.5559 1566.1459,-653 1589.8357,-592.0983 1601.5954,-558.838 1563.1459,-506 1555.9671,-496.1347 1545.2961,-488.7924 1534.3952,-483.406"/>
<ellipse fill="none" stroke="#cb402c" cx="1555.8838" cy="-669.147" rx="4" ry="4"/>
<polygon fill="#cb402c" stroke="#cb402c" points="1534.3886,-483.4031 1527.0893,-475.2195 1529.8223,-481.3661 1525.256,-479.3292 1525.256,-479.3292 1525.256,-479.3292 1529.8223,-481.3661 1523.4227,-483.4388 1534.3886,-483.4031 1534.3886,-483.4031"/>
</g>
<!-- TeamUser -->
<g id="node24" class="node">
<title>TeamUser</title>
<ellipse fill="none" stroke="#000000" cx="860.1459" cy="-470" rx="48.1917" ry="18"/>
<text text-anchor="middle" x="860.1459" y="-466.3" font-family="Times,serif" font-size="14.00" fill="#000000">TeamUser</text>
</g>
<!-- PublicTeam&#45;&gt;TeamUser -->
<g id="edge15" class="edge">
<title>PublicTeam&#45;&gt;TeamUser</title>
<path fill="none" stroke="#7319fd" d="M1470.8446,-688.6151C1282.8514,-687.1506 732.4952,-680.5212 706.1459,-653 651.9279,-596.3705 761.453,-523.73 822.6823,-489.4993"/>
<ellipse fill="none" stroke="#7319fd" cx="1474.9858" cy="-688.6465" rx="4" ry="4"/>
<polygon fill="#7319fd" stroke="#7319fd" points="822.9392,-489.358 833.87,-488.4816 827.3203,-486.9483 831.7013,-484.5387 831.7013,-484.5387 831.7013,-484.5387 827.3203,-486.9483 829.5326,-480.5957 822.9392,-489.358 822.9392,-489.358"/>
</g>
<!-- Source -->
<g id="node26" class="node">
<title>Source</title>
<ellipse fill="none" stroke="#000000" cx="1265.1459" cy="-470" rx="35.194" ry="18"/>
<text text-anchor="middle" x="1265.1459" y="-466.3" font-family="Times,serif" font-size="14.00" fill="#000000">Source</text>
</g>
<!-- PublicTeam&#45;&gt;Source -->
<g id="edge18" class="edge">
<title>PublicTeam&#45;&gt;Source</title>
<path fill="none" stroke="#e3f5eb" d="M1516.3262,-664.2323C1487.6599,-624.1061 1425.2856,-545.4139 1352.1459,-506 1350.8891,-505.3227 1325.0794,-494.6573 1301.8974,-485.1103"/>
<ellipse fill="none" stroke="#e3f5eb" cx="1518.976" cy="-667.9891" rx="4" ry="4"/>
<polygon fill="#e3f5eb" stroke="#e3f5eb" points="1301.7834,-485.0634 1294.2492,-477.0956 1297.1598,-483.1601 1292.5362,-481.2569 1292.5362,-481.2569 1292.5362,-481.2569 1297.1598,-483.1601 1290.8233,-485.4181 1301.7834,-485.0634 1301.7834,-485.0634"/>
</g>
<!-- User -->
<g id="node27" class="node">
<title>User</title>
<ellipse fill="none" stroke="#000000" cx="1400.1459" cy="-616" rx="27.0966" ry="18"/>
<text text-anchor="middle" x="1400.1459" y="-612.3" font-family="Times,serif" font-size="14.00" fill="#000000">User</text>
</g>
<!-- PublicTeam&#45;&gt;User -->
<g id="edge16" class="edge">
<title>PublicTeam&#45;&gt;User</title>
<path fill="none" stroke="#1963f7" d="M1496.0536,-668.6411C1475.2458,-657.2203 1449.6279,-643.1593 1430.1044,-632.4434"/>
<polygon fill="#1963f7" stroke="#1963f7" points="1496.1737,-668.7069 1502.7748,-677.4634 1500.5569,-671.1128 1504.94,-673.5186 1504.94,-673.5186 1504.94,-673.5186 1500.5569,-671.1128 1507.1053,-669.5737 1496.1737,-668.7069 1496.1737,-668.7069"/>
<polygon fill="#1963f7" stroke="#1963f7" points="1430.0968,-632.4392 1423.4957,-623.6827 1425.7136,-630.0334 1421.3304,-627.6276 1421.3304,-627.6276 1421.3304,-627.6276 1425.7136,-630.0334 1419.1652,-631.5724 1430.0968,-632.4392 1430.0968,-632.4392"/>
</g>
<!-- Project -->
<g id="node30" class="node">
<title>Project</title>
<ellipse fill="none" stroke="#000000" cx="852.1459" cy="-251" rx="35.9954" ry="18"/>
<text text-anchor="middle" x="852.1459" y="-247.3" font-family="Times,serif" font-size="14.00" fill="#000000">Project</text>
</g>
<!-- PublicTeam&#45;&gt;Project -->
<g id="edge13" class="edge">
<title>PublicTeam&#45;&gt;Project</title>
<path fill="none" stroke="#07b684" d="M1471.1885,-687.7752C1284.1487,-683.8857 735.9346,-671.0022 702.1459,-653 594.599,-595.7004 613.9593,-472.4689 692.1459,-379 718.0597,-348.0212 742.846,-366.2471 775.1459,-342 781.9117,-336.921 811.4489,-301.2041 831.9075,-276.0603"/>
<ellipse fill="none" stroke="#07b684" cx="1475.2887" cy="-687.8599" rx="4" ry="4"/>
<polygon fill="#07b684" stroke="#07b684" points="832.1493,-275.7623 841.9454,-270.8341 835.3004,-271.8802 838.4515,-267.9981 838.4515,-267.9981 838.4515,-267.9981 835.3004,-271.8802 834.9576,-265.1621 832.1493,-275.7623 832.1493,-275.7623"/>
</g>
<!-- Account -->
<g id="node33" class="node">
<title>Account</title>
<ellipse fill="none" stroke="#000000" cx="1410.1459" cy="-397" rx="40.0939" ry="18"/>
<text text-anchor="middle" x="1410.1459" y="-393.3" font-family="Times,serif" font-size="14.00" fill="#000000">Account</text>
</g>
<!-- PublicTeam&#45;&gt;Account -->
<g id="edge14" class="edge">
<title>PublicTeam&#45;&gt;Account</title>
<path fill="none" stroke="#3046e9" d="M1581.8742,-675.018C1655.3833,-653.9147 1786.1459,-616.3287 1786.1459,-616 1786.1459,-616 1786.1459,-616 1786.1459,-506.5 1786.1459,-480.848 1786.8627,-468.4095 1767.1459,-452 1721.4647,-413.9814 1547.7193,-402.1101 1460.5925,-398.5088"/>
<ellipse fill="none" stroke="#3046e9" cx="1577.9206" cy="-676.1528" rx="4" ry="4"/>
<polygon fill="#3046e9" stroke="#3046e9" points="1460.4034,-398.5014 1450.5875,-393.6128 1455.4072,-398.3054 1450.4111,-398.1094 1450.4111,-398.1094 1450.4111,-398.1094 1455.4072,-398.3054 1450.2346,-402.6059 1460.4034,-398.5014 1460.4034,-398.5014"/>
</g>
<!-- Claim -->
<g id="node10" class="node">
<title>Claim</title>
<ellipse fill="none" stroke="#000000" cx="446.1459" cy="-324" rx="32.4942" ry="18"/>
<text text-anchor="middle" x="446.1459" y="-320.3" font-family="Times,serif" font-size="14.00" fill="#000000">Claim</text>
</g>
<!-- Claim&#45;&gt;Version -->
<g id="edge22" class="edge">
<title>Claim&#45;&gt;Version</title>
<path fill="none" stroke="#fc1691" d="M458.9409,-299.6541C485.7606,-250.6824 552.3753,-139.2935 636.1459,-73 667.2033,-48.4221 710.1793,-34.2637 742.6783,-26.4865"/>
<ellipse fill="none" stroke="#fc1691" cx="457.0344" cy="-303.1713" rx="4" ry="4"/>
<polygon fill="#fc1691" stroke="#fc1691" points="743.0817,-26.395 753.83,-28.5688 747.9576,-25.2878 752.8335,-24.1806 752.8335,-24.1806 752.8335,-24.1806 747.9576,-25.2878 751.837,-19.7923 743.0817,-26.395 743.0817,-26.395"/>
</g>
<!-- Claim&#45;&gt;ProjectMedia -->
<g id="edge23" class="edge">
<title>Claim&#45;&gt;ProjectMedia</title>
<path fill="none" stroke="#38765c" d="M479.3861,-309.1202C482.0007,-308.0376 484.6097,-306.9853 487.1459,-306 510.3345,-296.9915 516.9221,-296.9174 540.1459,-288 597.9494,-265.8048 608.8159,-250.7153 668.1459,-233 751.4398,-208.1294 850.8033,-193.0046 914.6485,-185.0714"/>
<ellipse fill="none" stroke="#38765c" cx="475.2759" cy="-310.8617" rx="4" ry="4"/>
<polygon fill="#38765c" stroke="#38765c" points="914.656,-185.0705 925.1273,-188.3264 919.6192,-184.465 924.5824,-183.8595 924.5824,-183.8595 924.5824,-183.8595 919.6192,-184.465 924.0374,-179.3926 914.656,-185.0705 914.656,-185.0705"/>
</g>
<!-- Claim&#45;&gt;Project -->
<g id="edge24" class="edge">
<title>Claim&#45;&gt;Project</title>
<path fill="none" stroke="#7ecd47" d="M479.8015,-308.3618C482.2598,-307.4868 484.7245,-306.6862 487.1459,-306 542.8412,-290.2156 558.8821,-296.4834 616.1459,-288 683.0318,-278.0911 760.4438,-265.7964 807.8459,-258.1738"/>
<polygon fill="#7ecd47" stroke="#7ecd47" points="479.7683,-308.3747 468.8159,-307.8308 475.1126,-310.1978 470.4568,-312.021 470.4568,-312.021 470.4568,-312.021 475.1126,-310.1978 472.0976,-316.2112 479.7683,-308.3747 479.7683,-308.3747"/>
<polygon fill="#7ecd47" stroke="#7ecd47" points="807.9068,-258.164 818.4951,-261.0168 812.8432,-257.3691 817.7796,-256.5741 817.7796,-256.5741 817.7796,-256.5741 812.8432,-257.3691 817.0641,-252.1313 807.9068,-258.164 807.9068,-258.164"/>
</g>
<!-- UploadedImage -->
<g id="node11" class="node">
<title>UploadedImage</title>
<ellipse fill="none" stroke="#000000" cx="564.1459" cy="-324" rx="67.6881" ry="18"/>
<text text-anchor="middle" x="564.1459" y="-320.3" font-family="Times,serif" font-size="14.00" fill="#000000">UploadedImage</text>
</g>
<!-- UploadedImage&#45;&gt;Version -->
<g id="edge25" class="edge">
<title>UploadedImage&#45;&gt;Version</title>
<path fill="none" stroke="#735485" d="M569.3232,-297.9576C580.0201,-249.4177 608.3638,-143.647 664.1459,-73 683.578,-48.3896 716.2952,-34.5283 743.3839,-26.8781"/>
<ellipse fill="none" stroke="#735485" cx="568.4816" cy="-301.8784" rx="4" ry="4"/>
<polygon fill="#735485" stroke="#735485" points="743.4024,-26.8733 754.2177,-28.6845 748.2383,-25.6028 753.0742,-24.3322 753.0742,-24.3322 753.0742,-24.3322 748.2383,-25.6028 751.9308,-19.9799 743.4024,-26.8733 743.4024,-26.8733"/>
</g>
<!-- UploadedImage&#45;&gt;ProjectMedia -->
<g id="edge26" class="edge">
<title>UploadedImage&#45;&gt;ProjectMedia</title>
<path fill="none" stroke="#e50981" d="M600.6716,-303.8213C638.4212,-283.636 699.5132,-252.8161 755.1459,-233 809.5573,-213.6189 873.743,-198.6719 919.6052,-189.2846"/>
<ellipse fill="none" stroke="#e50981" cx="596.9642" cy="-305.8154" rx="4" ry="4"/>
<polygon fill="#e50981" stroke="#e50981" points="919.882,-189.2288 930.5746,-191.6617 924.7832,-188.2397 929.6844,-187.2506 929.6844,-187.2506 929.6844,-187.2506 924.7832,-188.2397 928.7942,-182.8395 919.882,-189.2288 919.882,-189.2288"/>
</g>
<!-- UploadedImage&#45;&gt;Project -->
<g id="edge27" class="edge">
<title>UploadedImage&#45;&gt;Project</title>
<path fill="none" stroke="#d7af01" d="M625.0567,-309.7668C652.3456,-303.2909 684.9018,-295.4283 714.1459,-288 746.6553,-279.7423 783.3249,-269.8847 810.6889,-262.4215"/>
<polygon fill="#d7af01" stroke="#d7af01" points="624.9881,-309.7829 614.2204,-307.7075 620.1226,-310.9347 615.2571,-312.0865 615.2571,-312.0865 615.2571,-312.0865 620.1226,-310.9347 616.2937,-316.4655 624.9881,-309.7829 624.9881,-309.7829"/>
<polygon fill="#d7af01" stroke="#d7af01" points="811.0466,-262.3237 821.8794,-264.0274 815.8697,-261.0052 820.6927,-259.6867 820.6927,-259.6867 820.6927,-259.6867 815.8697,-261.0052 819.506,-255.346 811.0466,-262.3237 811.0466,-262.3237"/>
</g>
<!-- ClaimSource -->
<g id="node12" class="node">
<title>ClaimSource</title>
<ellipse fill="none" stroke="#000000" cx="1662.1459" cy="-689" rx="57.3905" ry="18"/>
<text text-anchor="middle" x="1662.1459" y="-685.3" font-family="Times,serif" font-size="14.00" fill="#000000">ClaimSource</text>
</g>
<!-- UploadedFile -->
<g id="node13" class="node">
<title>UploadedFile</title>
<ellipse fill="none" stroke="#000000" cx="708.1459" cy="-324" rx="58.4896" ry="18"/>
<text text-anchor="middle" x="708.1459" y="-320.3" font-family="Times,serif" font-size="14.00" fill="#000000">UploadedFile</text>
</g>
<!-- UploadedFile&#45;&gt;Version -->
<g id="edge28" class="edge">
<title>UploadedFile&#45;&gt;Version</title>
<path fill="none" stroke="#970dc4" d="M692.3004,-299.0718C685.0925,-285.4174 678.1459,-267.8793 678.1459,-251 678.1459,-251 678.1459,-251 678.1459,-91 678.1459,-57.7002 713.4502,-38.7421 744.238,-28.5405"/>
<ellipse fill="none" stroke="#970dc4" cx="694.3419" cy="-302.7351" rx="4" ry="4"/>
<polygon fill="#970dc4" stroke="#970dc4" points="744.4671,-28.4701 755.3483,-29.8299 749.2459,-26.9995 754.0248,-25.5289 754.0248,-25.5289 754.0248,-25.5289 749.2459,-26.9995 752.7013,-21.2279 744.4671,-28.4701 744.4671,-28.4701"/>
</g>
<!-- UploadedFile&#45;&gt;ProjectMedia -->
<g id="edge29" class="edge">
<title>UploadedFile&#45;&gt;ProjectMedia</title>
<path fill="none" stroke="#407508" d="M728.2661,-300.4259C746.8608,-279.9838 776.2165,-250.9383 807.1459,-233 842.2567,-212.6366 885.8243,-198.8422 920.454,-190.161"/>
<ellipse fill="none" stroke="#407508" cx="725.5197" cy="-303.4923" rx="4" ry="4"/>
<polygon fill="#407508" stroke="#407508" points="920.7135,-190.0981 931.493,-192.1112 925.5723,-188.9182 930.4311,-187.7383 930.4311,-187.7383 930.4311,-187.7383 925.5723,-188.9182 929.3692,-183.3654 920.7135,-190.0981 920.7135,-190.0981"/>
</g>
<!-- UploadedFile&#45;&gt;Project -->
<g id="edge30" class="edge">
<title>UploadedFile&#45;&gt;Project</title>
<path fill="none" stroke="#d7edc3" d="M747.6681,-303.9645C769.7068,-292.792 796.8817,-279.0159 817.992,-268.3141"/>
<polygon fill="#d7edc3" stroke="#d7edc3" points="747.604,-303.9969 736.6498,-304.5049 743.1443,-306.2577 738.6846,-308.5186 738.6846,-308.5186 738.6846,-308.5186 743.1443,-306.2577 740.7194,-312.5323 747.604,-303.9969 747.604,-303.9969"/>
<polygon fill="#d7edc3" stroke="#d7edc3" points="818.0098,-268.3052 828.9639,-267.7972 822.4695,-266.0443 826.9292,-263.7835 826.9292,-263.7835 826.9292,-263.7835 822.4695,-266.0443 824.8944,-259.7698 818.0098,-268.3052 818.0098,-268.3052"/>
</g>
<!-- Relationship -->
<g id="node14" class="node">
<title>Relationship</title>
<ellipse fill="none" stroke="#000000" cx="983.1459" cy="-91" rx="55.4913" ry="18"/>
<text text-anchor="middle" x="983.1459" y="-87.3" font-family="Times,serif" font-size="14.00" fill="#000000">Relationship</text>
</g>
<!-- Relationship&#45;&gt;Version -->
<g id="edge31" class="edge">
<title>Relationship&#45;&gt;Version</title>
<path fill="none" stroke="#c16b19" d="M939.064,-74.4125C905.8326,-61.9079 860.66,-44.9099 828.6102,-32.85"/>
<ellipse fill="none" stroke="#c16b19" cx="942.9123" cy="-75.8605" rx="4" ry="4"/>
<polygon fill="#c16b19" stroke="#c16b19" points="828.4721,-32.7981 820.6976,-25.0645 823.7925,-31.0371 819.1128,-29.2762 819.1128,-29.2762 819.1128,-29.2762 823.7925,-31.0371 817.528,-33.4879 828.4721,-32.7981 828.4721,-32.7981"/>
</g>
<!-- ProjectMedia&#45;&gt;Version -->
<g id="edge37" class="edge">
<title>ProjectMedia&#45;&gt;Version</title>
<path fill="none" stroke="#100cbf" d="M1036.3281,-165.649C1059.0526,-159.4128 1081.5041,-151.2151 1088.1459,-142 1108.5555,-113.6832 1080.7007,-94.3053 1047.1459,-73 1012.6482,-51.096 900.8776,-33.004 836.3285,-24.0531"/>
<ellipse fill="none" stroke="#100cbf" cx="1032.1712" cy="-166.7485" rx="4" ry="4"/>
<polygon fill="#100cbf" stroke="#100cbf" points="836.3013,-24.0494 827.0024,-18.2372 831.3473,-23.3726 826.3933,-22.6958 826.3933,-22.6958 826.3933,-22.6958 831.3473,-23.3726 825.7842,-27.1544 836.3013,-24.0494 836.3013,-24.0494"/>
</g>
<!-- ProjectMedia&#45;&gt;Relationship -->
<g id="edge32" class="edge">
<title>ProjectMedia&#45;&gt;Relationship</title>
<path fill="none" stroke="#33d43c" d="M914.2687,-173.6268C870.1174,-168.0785 823.8192,-155.5006 846.1459,-127 866.7531,-100.6944 886.8354,-117.5248 919.1459,-109 923.2264,-107.9234 927.4468,-106.7872 931.6839,-105.6303"/>
<ellipse fill="none" stroke="#33d43c" cx="918.4976" cy="-174.1199" rx="4" ry="4"/>
<polygon fill="#33d43c" stroke="#33d43c" points="931.9027,-105.57 942.7391,-107.2499 936.7228,-104.2409 941.5429,-102.9118 941.5429,-102.9118 941.5429,-102.9118 936.7228,-104.2409 940.3467,-98.5737 931.9027,-105.57 931.9027,-105.57"/>
<text text-anchor="middle" x="899.6459" y="-130.8" font-family="Times,serif" font-size="14.00" fill="#000000">target_relationships</text>
</g>
<!-- ProjectMedia&#45;&gt;Relationship -->
<g id="edge33" class="edge">
<title>ProjectMedia&#45;&gt;Relationship</title>
<path fill="none" stroke="#0939d5" d="M976.3057,-151.4075C975.644,-143.5436 975.383,-134.9205 976.1459,-127 976.3916,-124.4491 976.7331,-121.8104 977.1342,-119.1745"/>
<ellipse fill="none" stroke="#0939d5" cx="976.7394" cy="-155.5948" rx="4" ry="4"/>
<polygon fill="#0939d5" stroke="#0939d5" points="977.1542,-119.0612 983.3307,-110.0003 978.027,-114.138 978.8997,-109.2148 978.8997,-109.2148 978.8997,-109.2148 978.027,-114.138 974.4688,-108.4292 977.1542,-119.0612 977.1542,-119.0612"/>
<text text-anchor="middle" x="1032.1459" y="-130.8" font-family="Times,serif" font-size="14.00" fill="#000000">source_relationships</text>
</g>
<!-- ProjectMedia&#45;&gt;ProjectMedia -->
<g id="edge34" class="edge">
<title>ProjectMedia&#45;&gt;ProjectMedia</title>
<path fill="none" stroke="#67a210" d="M1047.8757,-180.5736C1053.2895,-180.0114 1056.6407,-179.1536 1056.6407,-178 1056.6407,-176.8464 1053.2895,-175.9886 1047.8757,-175.4264"/>
<polygon fill="#67a210" stroke="#67a210" points="1047.8355,-180.576 1037.5689,-176.7227 1042.8456,-180.8948 1037.8558,-181.2135 1037.8558,-181.2135 1037.8558,-181.2135 1042.8456,-180.8948 1038.1427,-185.7044 1047.8355,-180.576 1047.8355,-180.576"/>
<polygon fill="#67a210" stroke="#67a210" points="1047.8355,-175.424 1038.1427,-170.2956 1042.8456,-175.1052 1037.8558,-174.7865 1037.8558,-174.7865 1037.8558,-174.7865 1042.8456,-175.1052 1037.5689,-179.2773 1047.8355,-175.424 1047.8355,-175.424"/>
<text text-anchor="middle" x="1077.1407" y="-174.3" font-family="Times,serif" font-size="14.00" fill="#000000">sources</text>
</g>
<!-- ProjectMedia&#45;&gt;ProjectMedia -->
<g id="edge35" class="edge">
<title>ProjectMedia&#45;&gt;ProjectMedia</title>
<path fill="none" stroke="#abe001" d="M1045.1925,-184.7155C1072.9558,-185.0604 1097.6407,-182.8219 1097.6407,-178 1097.6407,-173.1781 1072.9558,-170.9396 1045.1925,-171.2845"/>
<polygon fill="#abe001" stroke="#abe001" points="1044.8619,-184.7077 1034.971,-179.9728 1039.8633,-184.5896 1034.8647,-184.4715 1034.8647,-184.4715 1034.8647,-184.4715 1039.8633,-184.5896 1034.7584,-188.9702 1044.8619,-184.7077 1044.8619,-184.7077"/>
<polygon fill="#abe001" stroke="#abe001" points="1044.8619,-171.2923 1034.7584,-167.0298 1039.8633,-171.4104 1034.8647,-171.5285 1034.8647,-171.5285 1034.8647,-171.5285 1039.8633,-171.4104 1034.971,-176.0272 1044.8619,-171.2923 1044.8619,-171.2923"/>
<text text-anchor="middle" x="1116.1407" y="-174.3" font-family="Times,serif" font-size="14.00" fill="#000000">targets</text>
</g>
<!-- ProjectMediaProject -->
<g id="node20" class="node">
<title>ProjectMediaProject</title>
<ellipse fill="none" stroke="#000000" cx="827.1459" cy="-91" rx="83.3857" ry="18"/>
<text text-anchor="middle" x="827.1459" y="-87.3" font-family="Times,serif" font-size="14.00" fill="#000000">ProjectMediaProject</text>
</g>
<!-- ProjectMedia&#45;&gt;ProjectMediaProject -->
<g id="edge36" class="edge">
<title>ProjectMedia&#45;&gt;ProjectMediaProject</title>
<path fill="none" stroke="#36dccf" d="M918.1891,-169.3367C884.5629,-163.3552 847.5728,-154.2599 836.1459,-142 830.4563,-135.8956 827.7092,-127.514 826.5189,-119.3087"/>
<ellipse fill="none" stroke="#36dccf" cx="922.2547" cy="-170.0366" rx="4" ry="4"/>
<polygon fill="#36dccf" stroke="#36dccf" points="826.5079,-119.1648 830.2262,-108.8486 826.1237,-114.1796 825.7395,-109.1943 825.7395,-109.1943 825.7395,-109.1943 826.1237,-114.1796 821.2528,-109.5401 826.5079,-119.1648 826.5079,-119.1648"/>
</g>
<!-- Bounce -->
<g id="node16" class="node">
<title>Bounce</title>
<ellipse fill="none" stroke="#000000" cx="1775.1459" cy="-689" rx="37.8943" ry="18"/>
<text text-anchor="middle" x="1775.1459" y="-685.3" font-family="Times,serif" font-size="14.00" fill="#000000">Bounce</text>
</g>
<!-- Assignment&#45;&gt;Version -->
<g id="edge38" class="edge">
<title>Assignment&#45;&gt;Version</title>
<path fill="none" stroke="#730c97" d="M386.6164,-72.7317C402.8035,-65.7872 422.0505,-58.4778 440.1459,-54 495.9276,-40.1964 659.0659,-27.1844 741.0088,-21.2955"/>
<ellipse fill="none" stroke="#730c97" cx="382.598" cy="-74.4922" rx="4" ry="4"/>
<polygon fill="#730c97" stroke="#730c97" points="741.0878,-21.29 751.3823,-25.0681 746.0752,-20.9347 751.0626,-20.5795 751.0626,-20.5795 751.0626,-20.5795 746.0752,-20.9347 750.7428,-16.0908 741.0878,-21.29 741.0878,-21.29"/>
</g>
<!-- BotUser -->
<g id="node18" class="node">
<title>BotUser</title>
<ellipse fill="none" stroke="#000000" cx="917.1459" cy="-616" rx="40.0939" ry="18"/>
<text text-anchor="middle" x="917.1459" y="-612.3" font-family="Times,serif" font-size="14.00" fill="#000000">BotUser</text>
</g>
<!-- BotUser&#45;&gt;ProjectMedia -->
<g id="edge46" class="edge">
<title>BotUser&#45;&gt;ProjectMedia</title>
<path fill="none" stroke="#82344f" d="M886.573,-596.6663C843.9744,-567.1264 774.9849,-508.2455 803.1459,-452 855.3832,-347.6674 961.5778,-394.9833 1008.1459,-288 1019.9827,-260.8067 1008.2248,-227.5691 996.5234,-204.7923"/>
<ellipse fill="none" stroke="#82344f" cx="890.1127" cy="-599.0726" rx="4" ry="4"/>
<polygon fill="#82344f" stroke="#82344f" points="996.3648,-204.501 995.5326,-193.5668 993.9728,-200.1103 991.5809,-195.7195 991.5809,-195.7195 991.5809,-195.7195 993.9728,-200.1103 987.6292,-197.8722 996.3648,-204.501 996.3648,-204.501"/>
</g>
<!-- BotUser&#45;&gt;Assignment -->
<g id="edge43" class="edge">
<title>BotUser&#45;&gt;Assignment</title>
<path fill="none" stroke="#5b5716" d="M875.0465,-604.1965C853.3268,-597.7333 826.5491,-589.181 803.1459,-580 565.9696,-486.9565 310.1459,-542.2738 310.1459,-287.5 310.1459,-287.5 310.1459,-287.5 310.1459,-178 310.1459,-156.3055 320.1916,-133.9205 329.9528,-117.2902"/>
<ellipse fill="none" stroke="#5b5716" cx="878.967" cy="-605.3507" rx="4" ry="4"/>
<polygon fill="#5b5716" stroke="#5b5716" points="330.0169,-117.1866 339.1069,-111.053 332.6489,-112.9354 335.2808,-108.6842 335.2808,-108.6842 335.2808,-108.6842 332.6489,-112.9354 331.4547,-106.3154 330.0169,-117.1866 330.0169,-117.1866"/>
</g>
<!-- LoginActivity -->
<g id="node19" class="node">
<title>LoginActivity</title>
<ellipse fill="none" stroke="#000000" cx="1024.1459" cy="-543" rx="60.3893" ry="18"/>
<text text-anchor="middle" x="1024.1459" y="-539.3" font-family="Times,serif" font-size="14.00" fill="#000000">LoginActivity</text>
</g>
<!-- BotUser&#45;&gt;LoginActivity -->
<g id="edge48" class="edge">
<title>BotUser&#45;&gt;LoginActivity</title>
<path fill="none" stroke="#e32db2" d="M946.2295,-596.1579C960.1209,-586.6806 976.8082,-575.2958 991.1698,-565.4977"/>
<ellipse fill="none" stroke="#e32db2" cx="942.6206" cy="-598.62" rx="4" ry="4"/>
<polygon fill="#e32db2" stroke="#e32db2" points="991.5049,-565.2691 1002.3017,-563.3506 995.6352,-562.4512 999.7656,-559.6333 999.7656,-559.6333 999.7656,-559.6333 995.6352,-562.4512 997.2294,-555.916 991.5049,-565.2691 991.5049,-565.2691"/>
</g>
<!-- ProjectSource -->
<g id="node21" class="node">
<title>ProjectSource</title>
<ellipse fill="none" stroke="#000000" cx="1642.1459" cy="-178" rx="59.5901" ry="18"/>
<text text-anchor="middle" x="1642.1459" y="-174.3" font-family="Times,serif" font-size="14.00" fill="#000000">ProjectSource</text>
</g>
<!-- BotUser&#45;&gt;ProjectSource -->
<g id="edge45" class="edge">
<title>BotUser&#45;&gt;ProjectSource</title>
<path fill="none" stroke="#78d179" d="M965.6911,-614.0596C1031.9623,-610.6839 1154.1709,-601.8614 1256.1459,-580 1282.6689,-574.314 1290.2252,-573.7907 1314.1459,-561 1360.4835,-536.2227 1367.3634,-522.3284 1407.1459,-488 1424.7594,-472.8013 1425.0863,-463.7833 1445.1459,-452 1492.5367,-424.162 1522.6458,-452.1562 1563.1459,-415 1573.211,-405.7659 1635.4073,-264.4861 1645.1459,-215 1645.7059,-212.1545 1645.9763,-209.1661 1646.0417,-206.1729"/>
<ellipse fill="none" stroke="#78d179" cx="961.4959" cy="-614.2664" rx="4" ry="4"/>
<polygon fill="#78d179" stroke="#78d179" points="1646.0416,-206.1692 1650.0922,-195.9789 1645.8191,-201.1742 1645.5967,-196.1791 1645.5967,-196.1791 1645.5967,-196.1791 1645.8191,-201.1742 1641.1011,-196.3794 1646.0416,-206.1692 1646.0416,-206.1692"/>
</g>
<!-- Media -->
<g id="node23" class="node">
<title>Media</title>
<ellipse fill="none" stroke="#000000" cx="1492.1459" cy="-324" rx="33.5952" ry="18"/>
<text text-anchor="middle" x="1492.1459" y="-320.3" font-family="Times,serif" font-size="14.00" fill="#000000">Media</text>
</g>
<!-- BotUser&#45;&gt;Media -->
<g id="edge44" class="edge">
<title>BotUser&#45;&gt;Media</title>
<path fill="none" stroke="#41d6b5" d="M913.7151,-589.6747C912.5717,-570.1476 914.1235,-543.7689 927.1459,-525 966.6996,-467.9919 1000.7813,-477.9155 1065.1459,-452 1229.8291,-385.6926 1281.6429,-400.8216 1449.1459,-342 1451.5512,-341.1553 1454.0156,-340.246 1456.4881,-339.3007"/>
<ellipse fill="none" stroke="#41d6b5" cx="914.0511" cy="-593.8595" rx="4" ry="4"/>
<polygon fill="#41d6b5" stroke="#41d6b5" points="1456.6643,-339.2308 1467.6193,-339.7191 1461.3108,-337.384 1465.9572,-335.5373 1465.9572,-335.5373 1465.9572,-335.5373 1461.3108,-337.384 1464.2952,-331.3555 1456.6643,-339.2308 1456.6643,-339.2308"/>
</g>
<!-- BotUser&#45;&gt;TeamUser -->
<g id="edge39" class="edge">
<title>BotUser&#45;&gt;TeamUser</title>
<path fill="none" stroke="#6ac1f7" d="M893.601,-593.8541C890.0071,-589.5485 886.6634,-584.8548 884.1459,-580 870.7852,-554.2347 864.8493,-521.3518 862.2199,-498.276"/>
<ellipse fill="none" stroke="#6ac1f7" cx="896.3096" cy="-596.8785" rx="4" ry="4"/>
<polygon fill="#6ac1f7" stroke="#6ac1f7" points="862.1992,-498.0678 865.6808,-487.6693 861.7012,-493.0926 861.2032,-488.1175 861.2032,-488.1175 861.2032,-488.1175 861.7012,-493.0926 856.7255,-488.5657 862.1992,-498.0678 862.1992,-498.0678"/>
</g>
<!-- BotUser&#45;&gt;Source -->
<g id="edge47" class="edge">
<title>BotUser&#45;&gt;Source</title>
<path fill="none" stroke="#38549f" d="M964.9379,-611.9187C1058.4285,-603.8773 1257.7161,-584.6911 1278.1459,-561 1293.3795,-543.3345 1284.6188,-516.8763 1275.5646,-497.0358"/>
<ellipse fill="none" stroke="#38549f" cx="960.7553" cy="-612.2758" rx="4" ry="4"/>
<polygon fill="#38549f" stroke="#38549f" points="1275.509,-496.9191 1275.2609,-485.956 1273.3545,-492.4071 1271.2001,-487.895 1271.2001,-487.895 1271.2001,-487.895 1273.3545,-492.4071 1267.1392,-489.834 1275.509,-496.9191 1275.509,-496.9191"/>
</g>
<!-- BotUser&#45;&gt;Project -->
<g id="edge41" class="edge">
<title>BotUser&#45;&gt;Project</title>
<path fill="none" stroke="#59847c" d="M870.0392,-609.5633C848.9262,-604.5658 825.0345,-595.7033 808.1459,-580 775.7476,-549.8755 778.7549,-531.3938 770.1459,-488 767.0323,-472.3059 767.0664,-467.7009 770.1459,-452 777.0025,-417.041 818.4519,-324.0975 839.6621,-277.8765"/>
<ellipse fill="none" stroke="#59847c" cx="874.0665" cy="-610.4424" rx="4" ry="4"/>
<polygon fill="#59847c" stroke="#59847c" points="839.6774,-277.8431 847.9484,-270.643 841.7693,-273.3017 843.8611,-268.7603 843.8611,-268.7603 843.8611,-268.7603 841.7693,-273.3017 839.7739,-266.8776 839.6774,-277.8431 839.6774,-277.8431"/>
</g>
<!-- Team -->
<g id="node31" class="node">
<title>Team</title>
<ellipse fill="none" stroke="#000000" cx="1247.1459" cy="-543" rx="31.3957" ry="18"/>
<text text-anchor="middle" x="1247.1459" y="-539.3" font-family="Times,serif" font-size="14.00" fill="#000000">Team</text>
</g>
<!-- BotUser&#45;&gt;Team -->
<g id="edge40" class="edge">
<title>BotUser&#45;&gt;Team</title>
<path fill="none" stroke="#c4717d" d="M963.5424,-605.7365C1028.7137,-591.3198 1146.2395,-565.3217 1207.5305,-551.7634"/>
<polygon fill="#c4717d" stroke="#c4717d" points="963.1696,-605.8189 952.4337,-603.5851 958.2876,-606.8989 953.4057,-607.9789 953.4057,-607.9789 953.4057,-607.9789 958.2876,-606.8989 954.3777,-612.3727 963.1696,-605.8189 963.1696,-605.8189"/>
<polygon fill="#c4717d" stroke="#c4717d" points="1207.8182,-551.6998 1218.5541,-553.9336 1212.7001,-550.6199 1217.5821,-549.5399 1217.5821,-549.5399 1217.5821,-549.5399 1212.7001,-550.6199 1216.6101,-545.1461 1207.8182,-551.6998 1207.8182,-551.6998"/>
</g>
<!-- BotUser&#45;&gt;Account -->
<g id="edge42" class="edge">
<title>BotUser&#45;&gt;Account</title>
<path fill="none" stroke="#a8b084" d="M921.7881,-590.075C926.7273,-569.7289 936.5067,-542.0778 955.1459,-525 958.2517,-522.1543 1240.0761,-434.0865 1244.1459,-433 1283.9094,-422.3846 1329.6537,-412.6441 1363.0398,-405.9796"/>
<ellipse fill="none" stroke="#a8b084" cx="920.8844" cy="-594.1182" rx="4" ry="4"/>
<polygon fill="#a8b084" stroke="#a8b084" points="1363.174,-405.9531 1373.8572,-408.4269 1368.079,-404.9827 1372.9839,-404.0124 1372.9839,-404.0124 1372.9839,-404.0124 1368.079,-404.9827 1372.1106,-399.598 1363.174,-405.9531 1363.174,-405.9531"/>
</g>
<!-- ProjectSource&#45;&gt;Version -->
<g id="edge49" class="edge">
<title>ProjectSource&#45;&gt;Version</title>
<path fill="none" stroke="#e24db1" d="M1634.768,-151.8845C1624.9044,-122.3804 1604.3222,-75.6589 1568.1459,-54 1536.7816,-35.2221 1003.7277,-22.5023 837.9443,-18.9864"/>
<ellipse fill="none" stroke="#e24db1" cx="1636.0524" cy="-155.9043" rx="4" ry="4"/>
<polygon fill="#e24db1" stroke="#e24db1" points="837.5626,-18.9785 827.6594,-14.2692 832.5637,-18.8733 827.5648,-18.7682 827.5648,-18.7682 827.5648,-18.7682 832.5637,-18.8733 827.4701,-23.2672 837.5626,-18.9785 837.5626,-18.9785"/>
</g>
<!-- Media&#45;&gt;Version -->
<g id="edge50" class="edge">
<title>Media&#45;&gt;Version</title>
<path fill="none" stroke="#53a567" d="M1491.0822,-297.841C1490.6043,-283.9314 1490.1459,-266.5389 1490.1459,-251 1490.1459,-251 1490.1459,-251 1490.1459,-91 1490.1459,-49.2512 1463.9595,-67.0627 1351.1459,-54 1161.8595,-32.0826 935.0474,-22.6716 837.5604,-19.4278"/>
<ellipse fill="none" stroke="#53a567" cx="1491.2333" cy="-302.0065" rx="4" ry="4"/>
<polygon fill="#53a567" stroke="#53a567" points="837.4218,-19.4233 827.5738,-14.5998 832.4245,-19.2604 827.4271,-19.0974 827.4271,-19.0974 827.4271,-19.0974 832.4245,-19.2604 827.2805,-23.595 837.4218,-19.4233 837.4218,-19.4233"/>
</g>
<!-- Media&#45;&gt;ProjectMedia -->
<g id="edge51" class="edge">
<title>Media&#45;&gt;ProjectMedia</title>
<path fill="none" stroke="#cb0f88" d="M1460.4941,-307.9289C1419.4319,-287.6951 1345.1123,-253.1507 1278.1459,-233 1199.5672,-209.3551 1106.1165,-194.1056 1045.0867,-185.7988"/>
<ellipse fill="none" stroke="#cb0f88" cx="1464.1814" cy="-309.757" rx="4" ry="4"/>
<polygon fill="#cb0f88" stroke="#cb0f88" points="1044.7412,-185.7527 1035.4262,-179.9663 1039.7853,-185.0896 1034.8295,-184.4266 1034.8295,-184.4266 1034.8295,-184.4266 1039.7853,-185.0896 1034.2327,-188.8868 1044.7412,-185.7527 1044.7412,-185.7527"/>
</g>
<!-- Media&#45;&gt;Project -->
<g id="edge52" class="edge">
<title>Media&#45;&gt;Project</title>
<path fill="none" stroke="#ee4c2f" d="M1457.1315,-308.3317C1454.4602,-307.4489 1451.7791,-306.656 1449.1459,-306 1344.6295,-279.9624 1018.8981,-260.0768 897.9562,-253.4145"/>
<polygon fill="#ee4c2f" stroke="#ee4c2f" points="1457.2743,-308.3842 1465.105,-316.0609 1461.9667,-310.111 1466.6591,-311.8377 1466.6591,-311.8377 1466.6591,-311.8377 1461.9667,-310.111 1468.2131,-307.6146 1457.2743,-308.3842 1457.2743,-308.3842"/>
<polygon fill="#ee4c2f" stroke="#ee4c2f" points="897.8989,-253.4115 888.1593,-248.3726 892.9063,-253.1387 887.9138,-252.8659 887.9138,-252.8659 887.9138,-252.8659 892.9063,-253.1387 887.6682,-257.3592 897.8989,-253.4115 897.8989,-253.4115"/>
</g>
<!-- UploadedVideo -->
<g id="node25" class="node">
<title>UploadedVideo</title>
<ellipse fill="none" stroke="#000000" cx="1374.1459" cy="-324" rx="66.0889" ry="18"/>
<text text-anchor="middle" x="1374.1459" y="-320.3" font-family="Times,serif" font-size="14.00" fill="#000000">UploadedVideo</text>
</g>
<!-- UploadedVideo&#45;&gt;Version -->
<g id="edge53" class="edge">
<title>UploadedVideo&#45;&gt;Version</title>
<path fill="none" stroke="#ae9c46" d="M1402.0914,-301.4106C1423.7672,-281.1847 1450.1459,-249.4008 1450.1459,-214.5 1450.1459,-214.5 1450.1459,-214.5 1450.1459,-91 1450.1459,-37.7315 1388.458,-64.0486 1336.1459,-54 1241.3215,-35.7853 953.1536,-23.828 837.7208,-19.6523"/>
<ellipse fill="none" stroke="#ae9c46" cx="1399.0954" cy="-304.1193" rx="4" ry="4"/>
<polygon fill="#ae9c46" stroke="#ae9c46" points="837.4196,-19.6416 827.5869,-14.7869 832.4228,-19.4628 827.426,-19.284 827.426,-19.284 827.426,-19.284 832.4228,-19.4628 827.2651,-23.7811 837.4196,-19.6416 837.4196,-19.6416"/>
</g>
<!-- UploadedVideo&#45;&gt;ProjectMedia -->
<g id="edge54" class="edge">
<title>UploadedVideo&#45;&gt;ProjectMedia</title>
<path fill="none" stroke="#e746fd" d="M1354.7213,-300.4159C1349.7347,-295.4473 1344.0867,-290.6205 1338.1459,-287 1244.3593,-229.8437 1118.3273,-200.643 1043.5326,-187.4007"/>
<ellipse fill="none" stroke="#e746fd" cx="1357.498" cy="-303.3465" rx="4" ry="4"/>
<polygon fill="#e746fd" stroke="#e746fd" points="1043.1814,-187.34 1034.094,-181.2025 1038.2544,-186.4884 1033.3275,-185.6368 1033.3275,-185.6368 1033.3275,-185.6368 1038.2544,-186.4884 1032.561,-190.071 1043.1814,-187.34 1043.1814,-187.34"/>
</g>
<!-- UploadedVideo&#45;&gt;Project -->
<g id="edge55" class="edge">
<title>UploadedVideo&#45;&gt;Project</title>
<path fill="none" stroke="#35ddca" d="M1315.8348,-309.3274C1310.2123,-308.1172 1304.5813,-306.9834 1299.1459,-306 1153.5341,-279.6556 978.921,-262.2039 897.7657,-254.8944"/>
<polygon fill="#35ddca" stroke="#35ddca" points="1316.1417,-309.3958 1324.9225,-315.9646 1321.0219,-310.4841 1325.902,-311.5724 1325.902,-311.5724 1325.902,-311.5724 1321.0219,-310.4841 1326.8815,-307.1803 1316.1417,-309.3958 1316.1417,-309.3958"/>
<polygon fill="#35ddca" stroke="#35ddca" points="897.3713,-254.8593 887.8104,-249.489 892.3911,-254.4153 887.4108,-253.9713 887.4108,-253.9713 887.4108,-253.9713 892.3911,-254.4153 887.0112,-258.4535 897.3713,-254.8593 897.3713,-254.8593"/>
</g>
<!-- Source&#45;&gt;Version -->
<g id="edge56" class="edge">
<title>Source&#45;&gt;Version</title>
<path fill="none" stroke="#643a57" d="M1299.3682,-455.1962C1302.6416,-454.0243 1305.9367,-452.9348 1309.1459,-452 1398.0349,-426.108 1431.2794,-456.2891 1514.1459,-415 1642.33,-351.1309 1779.1271,-286.0515 1711.1459,-160 1675.9217,-94.6868 1653.6369,-73.89 1582.1459,-54 1510.7305,-34.131 999.2357,-22.2313 837.8198,-18.9396"/>
<ellipse fill="none" stroke="#643a57" cx="1295.5623" cy="-456.6332" rx="4" ry="4"/>
<polygon fill="#643a57" stroke="#643a57" points="837.7002,-18.9373 827.7932,-14.2362 832.7012,-18.8363 827.7023,-18.7353 827.7023,-18.7353 827.7023,-18.7353 832.7012,-18.8363 827.6113,-23.2344 837.7002,-18.9373 837.7002,-18.9373"/>
</g>
<!-- Source&#45;&gt;BotUser -->
<g id="edge61" class="edge">
<title>Source&#45;&gt;BotUser</title>
<path fill="none" stroke="#ae81f5" d="M1287.4673,-492.5039C1301.0996,-512.6786 1312.5724,-541.9512 1296.1459,-561 1275.0259,-585.4915 1062.7587,-605.1686 965.3557,-612.6953"/>
<ellipse fill="none" stroke="#ae81f5" cx="1284.9436" cy="-489.0188" rx="4" ry="4"/>
<ellipse fill="#ae81f5" stroke="#ae81f5" cx="961.1278" cy="-613.0179" rx="4" ry="4"/>
</g>
<!-- Source&#45;&gt;ProjectSource -->
<g id="edge57" class="edge">
<title>Source&#45;&gt;ProjectSource</title>
<path fill="none" stroke="#c77006" d="M1299.4345,-455.4111C1302.6941,-454.1945 1305.9678,-453.0358 1309.1459,-452 1428.0521,-413.2441 1490.249,-439.8405 1568.1459,-342 1601.5586,-300.0328 1623.444,-240.5682 1634.2315,-205.9682"/>
<ellipse fill="none" stroke="#c77006" cx="1295.6364" cy="-456.8809" rx="4" ry="4"/>
<polygon fill="#c77006" stroke="#c77006" points="1634.3285,-205.6472 1641.5309,-197.3782 1635.7761,-200.8613 1637.2236,-196.0754 1637.2236,-196.0754 1637.2236,-196.0754 1635.7761,-200.8613 1632.9163,-194.7727 1634.3285,-205.6472 1634.3285,-205.6472"/>
</g>
<!-- Source&#45;&gt;Project -->
<g id="edge59" class="edge">
<title>Source&#45;&gt;Project</title>
<path fill="none" stroke="#30257c" d="M1232.0571,-451.8952C1176.208,-421.4074 1059.593,-358.0505 960.1459,-306 935.6248,-293.1657 907.7901,-279.0002 886.5204,-268.2596"/>
<polygon fill="#30257c" stroke="#30257c" points="1232.3485,-452.0543 1238.9676,-460.7972 1236.7366,-454.4511 1241.1247,-456.8479 1241.1247,-456.8479 1241.1247,-456.8479 1236.7366,-454.4511 1243.2819,-452.8986 1232.3485,-452.0543 1232.3485,-452.0543"/>
<polygon fill="#30257c" stroke="#30257c" points="886.4702,-268.2344 879.5672,-259.7138 882.0056,-265.9831 877.5411,-263.7319 877.5411,-263.7319 877.5411,-263.7319 882.0056,-265.9831 875.515,-267.7499 886.4702,-268.2344 886.4702,-268.2344"/>
</g>
<!-- Source&#45;&gt;Account -->
<g id="edge60" class="edge">
<title>Source&#45;&gt;Account</title>
<path fill="none" stroke="#662f6a" d="M1299.3998,-452.7549C1321.9136,-441.4204 1351.3217,-426.6149 1374.1749,-415.1096"/>
<polygon fill="#662f6a" stroke="#662f6a" points="1299.3349,-452.7876 1288.3794,-453.265 1294.8689,-455.036 1290.403,-457.2844 1290.403,-457.2844 1290.403,-457.2844 1294.8689,-455.036 1292.4265,-461.3037 1299.3349,-452.7876 1299.3349,-452.7876"/>
<polygon fill="#662f6a" stroke="#662f6a" points="1374.2804,-415.0565 1385.2359,-414.579 1378.7464,-412.8081 1383.2123,-410.5597 1383.2123,-410.5597 1383.2123,-410.5597 1378.7464,-412.8081 1381.1888,-406.5403 1374.2804,-415.0565 1374.2804,-415.0565"/>
</g>
<!-- AccountSource -->
<g id="node34" class="node">
<title>AccountSource</title>
<ellipse fill="none" stroke="#000000" cx="1225.1459" cy="-324" rx="64.9885" ry="18"/>
<text text-anchor="middle" x="1225.1459" y="-320.3" font-family="Times,serif" font-size="14.00" fill="#000000">AccountSource</text>
</g>
<!-- Source&#45;&gt;AccountSource -->
<g id="edge58" class="edge">
<title>Source&#45;&gt;AccountSource</title>
<path fill="none" stroke="#2406cc" d="M1258.1137,-444.3324C1251.0192,-418.4373 1240.0976,-378.5737 1232.7917,-351.9072"/>
<ellipse fill="none" stroke="#2406cc" cx="1259.1841" cy="-448.2397" rx="4" ry="4"/>
<polygon fill="#2406cc" stroke="#2406cc" points="1232.7332,-351.6935 1234.4309,-340.8598 1231.412,-346.8712 1230.0908,-342.0489 1230.0908,-342.0489 1230.0908,-342.0489 1231.412,-346.8712 1225.7507,-343.238 1232.7332,-351.6935 1232.7332,-351.6935"/>
</g>
<!-- User&#45;&gt;ProjectMedia -->
<g id="edge69" class="edge">
<title>User&#45;&gt;ProjectMedia</title>
<path fill="none" stroke="#c66f02" d="M1433.4422,-607.3326C1460.6871,-598.954 1499.0159,-584.0922 1526.1459,-561 1615.3785,-485.048 1645.2164,-410.9754 1593.1459,-306 1517.2728,-153.0378 1388.8983,-240.0155 1220.1459,-214 1160.083,-204.7405 1091.5125,-194.4866 1043.0892,-187.2985"/>
<ellipse fill="none" stroke="#c66f02" cx="1429.5539" cy="-608.4872" rx="4" ry="4"/>
<polygon fill="#c66f02" stroke="#c66f02" points="1042.964,-187.28 1033.7326,-181.3613 1038.0182,-186.5463 1033.0723,-185.8126 1033.0723,-185.8126 1033.0723,-185.8126 1038.0182,-186.5463 1032.4119,-190.2639 1042.964,-187.28 1042.964,-187.28"/>
</g>
<!-- User&#45;&gt;Assignment -->
<g id="edge66" class="edge">
<title>User&#45;&gt;Assignment</title>
<path fill="none" stroke="#603710" d="M1364.6647,-613.0739C1313.7262,-607.8545 1217.7914,-594.1856 1143.1459,-561 1118.1242,-549.876 1117.2067,-538.0731 1093.1459,-525 1053.3317,-503.3676 1039.9716,-505.4284 998.1459,-488 961.7812,-472.8472 954.7667,-463.6907 917.1459,-452 706.4567,-386.528 636.6254,-436.0255 429.1459,-361 383.4311,-344.4693 348.1459,-336.1118 348.1459,-287.5 348.1459,-287.5 348.1459,-287.5 348.1459,-178 348.1459,-158.5475 348.1459,-136.6484 348.1459,-119.6877"/>
<ellipse fill="none" stroke="#603710" cx="1368.7614" cy="-613.4771" rx="4" ry="4"/>
<polygon fill="#603710" stroke="#603710" points="348.146,-119.3306 352.6459,-109.3305 348.146,-114.3306 348.1459,-109.3306 348.1459,-109.3306 348.1459,-109.3306 348.146,-114.3306 343.6459,-109.3306 348.146,-119.3306 348.146,-119.3306"/>
</g>
<!-- User&#45;&gt;LoginActivity -->
<g id="edge71" class="edge">
<title>User&#45;&gt;LoginActivity</title>
<path fill="none" stroke="#1f9436" d="M1364.4247,-613.2916C1295.6398,-607.8216 1147.2573,-594.7168 1098.1459,-580 1085.2263,-576.1285 1071.8286,-570.1192 1060.0418,-564.0613"/>
<ellipse fill="none" stroke="#1f9436" cx="1368.812" cy="-613.637" rx="4" ry="4"/>
<polygon fill="#1f9436" stroke="#1f9436" points="1059.8006,-563.9329 1053.0894,-555.2605 1055.3874,-561.5827 1050.9742,-559.2324 1050.9742,-559.2324 1050.9742,-559.2324 1055.3874,-561.5827 1048.859,-563.2043 1059.8006,-563.9329 1059.8006,-563.9329"/>
</g>
<!-- User&#45;&gt;ProjectSource -->
<g id="edge68" class="edge">
<title>User&#45;&gt;ProjectSource</title>
<path fill="none" stroke="#36f5c2" d="M1434.5418,-609.5011C1518.48,-592.8408 1729.6854,-545.8225 1767.1459,-488 1809.7222,-422.281 1934.8108,-491.4817 1717.1459,-214 1711.1253,-206.3249 1703.0612,-200.1938 1694.4509,-195.3263"/>
<ellipse fill="none" stroke="#36f5c2" cx="1430.5159" cy="-610.2923" rx="4" ry="4"/>
<polygon fill="#36f5c2" stroke="#36f5c2" points="1694.2587,-195.2286 1687.3813,-186.6874 1689.8009,-192.964 1685.3432,-190.6994 1685.3432,-190.6994 1685.3432,-190.6994 1689.8009,-192.964 1683.305,-194.7114 1694.2587,-195.2286 1694.2587,-195.2286"/>
</g>
<!-- User&#45;&gt;Media -->
<g id="edge67" class="edge">
<title>User&#45;&gt;Media</title>
<path fill="none" stroke="#2aca24" d="M1429.9468,-601.9442C1467.447,-582.3915 1530.0943,-543.0744 1556.1459,-488 1579.0599,-439.5586 1540.5659,-380.543 1514.0311,-348.1602"/>
<ellipse fill="none" stroke="#2aca24" cx="1426.3634" cy="-603.7723" rx="4" ry="4"/>
<polygon fill="#2aca24" stroke="#2aca24" points="1513.711,-347.7814 1510.6934,-337.2388 1510.4836,-343.9624 1507.2563,-340.1434 1507.2563,-340.1434 1507.2563,-340.1434 1510.4836,-343.9624 1503.8192,-343.048 1513.711,-347.7814 1513.711,-347.7814"/>
</g>
<!-- User&#45;&gt;TeamUser -->
<g id="edge62" class="edge">
<title>User&#45;&gt;TeamUser</title>
<path fill="none" stroke="#045b3e" d="M1365.6685,-609.6161C1320.8709,-600.868 1240.5341,-583.6264 1174.1459,-561 1136.8567,-548.2911 1130.4788,-537.5799 1093.1459,-525 1032.9668,-504.7217 961.6247,-489.0574 913.8808,-479.7228"/>
<ellipse fill="none" stroke="#045b3e" cx="1369.6809" cy="-610.3912" rx="4" ry="4"/>
<polygon fill="#045b3e" stroke="#045b3e" points="913.5849,-479.6658 904.6187,-473.3525 908.6755,-478.7184 903.766,-477.771 903.766,-477.771 903.766,-477.771 908.6755,-478.7184 902.9134,-482.1895 913.5849,-479.6658 913.5849,-479.6658"/>
</g>
<!-- User&#45;&gt;Source -->
<g id="edge70" class="edge">
<title>User&#45;&gt;Source</title>
<path fill="none" stroke="#587726" d="M1390.9282,-590.5063C1381.0518,-566.1865 1363.3228,-529.8266 1338.1459,-506 1332.2388,-500.4097 1316.8846,-492.5682 1301.7734,-485.6302"/>
<ellipse fill="none" stroke="#587726" cx="1392.512" cy="-594.5343" rx="4" ry="4"/>
<polygon fill="#587726" stroke="#587726" points="1301.604,-485.5541 1294.327,-477.3506 1297.0433,-483.5047 1292.4825,-481.4553 1292.4825,-481.4553 1292.4825,-481.4553 1297.0433,-483.5047 1290.6381,-485.5599 1301.604,-485.5541 1301.604,-485.5541"/>
</g>
<!-- User&#45;&gt;Project -->
<g id="edge64" class="edge">
<title>User&#45;&gt;Project</title>
<path fill="none" stroke="#920dce" d="M1365.8217,-609.0875C1326.486,-600.5174 1260.567,-584.1561 1207.1459,-561 1178.6127,-548.6319 1175.7004,-537.3189 1147.1459,-525 1120.015,-513.2953 1109.4586,-520.4436 1083.1459,-507 1024.5491,-477.0618 1012.2827,-462.8806 967.1459,-415 925.7187,-371.0545 887.5734,-311.2563 867.3234,-277.3398"/>
<ellipse fill="none" stroke="#920dce" cx="1369.8869" cy="-609.959" rx="4" ry="4"/>
<polygon fill="#920dce" stroke="#920dce" points="867.1845,-277.1047 865.973,-266.2059 864.6415,-272.7996 862.0985,-268.4946 862.0985,-268.4946 862.0985,-268.4946 864.6415,-272.7996 858.224,-270.7833 867.1845,-277.1047 867.1845,-277.1047"/>
</g>
<!-- User&#45;&gt;Team -->
<g id="edge63" class="edge">
<title>User&#45;&gt;Team</title>
<path fill="none" stroke="#68d0e3" d="M1371.282,-598.8403C1359.8748,-592.3184 1346.5493,-585.0167 1334.1459,-579 1317.5819,-570.9651 1298.7536,-563.0322 1282.8592,-556.6667"/>
<polygon fill="#68d0e3" stroke="#68d0e3" points="1371.3093,-598.856 1377.7112,-607.7592 1375.637,-601.3601 1379.9648,-603.8642 1379.9648,-603.8642 1379.9648,-603.8642 1375.637,-601.3601 1382.2185,-599.9692 1371.3093,-598.856 1371.3093,-598.856"/>
<polygon fill="#68d0e3" stroke="#68d0e3" points="1282.6868,-556.5985 1275.0441,-548.7347 1278.0376,-554.7588 1273.3883,-552.919 1273.3883,-552.919 1273.3883,-552.919 1278.0376,-554.7588 1271.7325,-557.1033 1282.6868,-556.5985 1282.6868,-556.5985"/>
</g>
<!-- User&#45;&gt;Account -->
<g id="edge65" class="edge">
<title>User&#45;&gt;Account</title>
<path fill="none" stroke="#141e7f" d="M1412.2743,-591.3188C1423.0978,-571.3423 1440.5552,-543.5702 1462.1459,-525 1490.9313,-500.2416 1518.9319,-520.1399 1539.1459,-488 1547.6642,-474.4561 1547.9663,-465.3492 1539.1459,-452 1521.3771,-425.1077 1487.4862,-411.3207 1458.9005,-404.2763"/>
<ellipse fill="none" stroke="#141e7f" cx="1410.3223" cy="-595.0198" rx="4" ry="4"/>
<polygon fill="#141e7f" stroke="#141e7f" points="1458.8011,-404.254 1450.0351,-397.6655 1453.9234,-403.1547 1449.0457,-402.0554 1449.0457,-402.0554 1449.0457,-402.0554 1453.9234,-403.1547 1448.0564,-406.4453 1458.8011,-404.254 1458.8011,-404.254"/>
</g>
<!-- TeamBotInstallation -->
<g id="node28" class="node">
<title>TeamBotInstallation</title>
<ellipse fill="none" stroke="#000000" cx="1914.1459" cy="-689" rx="83.3857" ry="18"/>
<text text-anchor="middle" x="1914.1459" y="-685.3" font-family="Times,serif" font-size="14.00" fill="#000000">TeamBotInstallation</text>
</g>
<!-- ApiKey -->
<g id="node29" class="node">
<title>ApiKey</title>
<ellipse fill="none" stroke="#000000" cx="695.1459" cy="-689" rx="38.1938" ry="18"/>
<text text-anchor="middle" x="695.1459" y="-685.3" font-family="Times,serif" font-size="14.00" fill="#000000">ApiKey</text>
</g>
<!-- ApiKey&#45;&gt;BotUser -->
<g id="edge72" class="edge">
<title>ApiKey&#45;&gt;BotUser</title>
<path fill="none" stroke="#7d6016" d="M734.6412,-676.0128C774.7445,-662.8257 836.5284,-642.5094 876.8998,-629.2341"/>
<ellipse fill="none" stroke="#7d6016" cx="730.7529" cy="-677.2913" rx="4" ry="4"/>
<ellipse fill="#7d6016" stroke="#7d6016" cx="880.876" cy="-627.9266" rx="4" ry="4"/>
</g>
<!-- Project&#45;&gt;Version -->
<g id="edge74" class="edge">
<title>Project&#45;&gt;Version</title>
<path fill="none" stroke="#302801" d="M826.741,-230.2262C798.1424,-205.0274 753.3036,-159.5919 735.1459,-109 729.741,-93.9406 729.0908,-87.81 735.1459,-73 740.3406,-60.2943 750.0424,-48.9402 759.8053,-39.8946"/>
<ellipse fill="none" stroke="#302801" cx="829.9091" cy="-232.9707" rx="4" ry="4"/>
<polygon fill="#302801" stroke="#302801" points="760.0148,-39.7125 770.5148,-36.55 763.789,-36.4329 767.5631,-33.1533 767.5631,-33.1533 767.5631,-33.1533 763.789,-36.4329 764.6115,-29.7566 760.0148,-39.7125 760.0148,-39.7125"/>
</g>
<!-- Project&#45;&gt;ProjectMedia -->
<g id="edge76" class="edge">
<title>Project&#45;&gt;ProjectMedia</title>
<path fill="none" stroke="#64408e" d="M883.0574,-233.3708C901.1961,-223.0261 924.2259,-209.8919 943.3033,-199.0118"/>
<ellipse fill="none" stroke="#64408e" cx="879.3964" cy="-235.4587" rx="4" ry="4"/>
<polygon fill="#64408e" stroke="#64408e" points="943.3481,-198.9863 954.2641,-197.9411 947.6914,-196.5092 952.0347,-194.0322 952.0347,-194.0322 952.0347,-194.0322 947.6914,-196.5092 949.8054,-190.1232 943.3481,-198.9863 943.3481,-198.9863"/>
</g>
<!-- Project&#45;&gt;Assignment -->
<g id="edge73" class="edge">
<title>Project&#45;&gt;Assignment</title>
<path fill="none" stroke="#8fac08" d="M808.3513,-247.8899C702.3224,-240.04 438.0999,-218.4456 405.1459,-196 391.1143,-186.4428 371.7206,-146.1742 359.5599,-118.3789"/>
<ellipse fill="none" stroke="#8fac08" cx="812.6204" cy="-248.2038" rx="4" ry="4"/>
<polygon fill="#8fac08" stroke="#8fac08" points="359.5359,-118.323 359.7139,-107.3585 357.5583,-113.7307 355.5808,-109.1383 355.5808,-109.1383 355.5808,-109.1383 357.5583,-113.7307 351.4477,-110.9181 359.5359,-118.323 359.5359,-118.323"/>
</g>
<!-- Project&#45;&gt;ProjectMediaProject -->
<g id="edge77" class="edge">
<title>Project&#45;&gt;ProjectMediaProject</title>
<path fill="none" stroke="#459184" d="M843.5902,-225.3041C836.7849,-203.438 827.8172,-171.0477 824.1459,-142 823.31,-135.386 823.8688,-133.6609 824.1459,-127 824.2471,-124.5679 824.3865,-122.0458 824.5503,-119.5168"/>
<ellipse fill="none" stroke="#459184" cx="844.867" cy="-229.3276" rx="4" ry="4"/>
<polygon fill="#459184" stroke="#459184" points="824.5691,-119.2671 829.8121,-109.6359 824.9471,-114.2814 825.325,-109.2957 825.325,-109.2957 825.325,-109.2957 824.9471,-114.2814 820.8379,-108.9556 824.5691,-119.2671 824.5691,-119.2671"/>
</g>
<!-- Project&#45;&gt;ProjectSource -->
<g id="edge75" class="edge">
<title>Project&#45;&gt;ProjectSource</title>
<path fill="none" stroke="#3e28f9" d="M895.3842,-247.0046C1025.9168,-234.9427 1416.7059,-198.8318 1574.7298,-184.2296"/>
<ellipse fill="none" stroke="#3e28f9" cx="891.3505" cy="-247.3772" rx="4" ry="4"/>
<polygon fill="#3e28f9" stroke="#3e28f9" points="1574.8391,-184.2196 1585.2108,-187.7803 1579.8179,-183.7595 1584.7967,-183.2994 1584.7967,-183.2994 1584.7967,-183.2994 1579.8179,-183.7595 1584.3826,-178.8184 1574.8391,-184.2196 1574.8391,-184.2196"/>
</g>
<!-- Team&#45;&gt;TeamTask -->
<g id="edge85" class="edge">
<title>Team&#45;&gt;TeamTask</title>
<path fill="none" stroke="#989828" d="M1285.6299,-536.9323C1367.8152,-523.9744 1560.6918,-493.564 1655.535,-478.6104"/>
<ellipse fill="none" stroke="#989828" cx="1281.4758" cy="-537.5873" rx="4" ry="4"/>
<polygon fill="#989828" stroke="#989828" points="1655.624,-478.5964 1666.2028,-481.484 1660.5629,-477.8177 1665.5019,-477.0389 1665.5019,-477.0389 1665.5019,-477.0389 1660.5629,-477.8177 1664.801,-472.5938 1655.624,-478.5964 1655.624,-478.5964"/>
</g>
<!-- Team&#45;&gt;TagText -->
<g id="edge84" class="edge">
<title>Team&#45;&gt;TagText</title>
<path fill="none" stroke="#1a0790" d="M1274.865,-524.7703C1290.6036,-514.4197 1310.3584,-501.4278 1326.6777,-490.6953"/>
<ellipse fill="none" stroke="#1a0790" cx="1271.1061" cy="-527.2424" rx="4" ry="4"/>
<polygon fill="#1a0790" stroke="#1a0790" points="1326.9881,-490.4912 1337.8158,-488.7562 1331.1656,-487.7438 1335.3432,-484.9964 1335.3432,-484.9964 1335.3432,-484.9964 1331.1656,-487.7438 1332.8705,-481.2366 1326.9881,-490.4912 1326.9881,-490.4912"/>
</g>
<!-- Team&#45;&gt;Version -->
<g id="edge78" class="edge">
<title>Team&#45;&gt;Version</title>
<path fill="none" stroke="#442e10" d="M1212.5659,-530.8872C1108.96,-494.6651 805.3761,-389.0556 759.1459,-379 681.8579,-362.189 458.0879,-400.7639 405.1459,-342 394.4364,-330.1128 399.8751,-321.1069 405.1459,-306 416.1044,-274.5915 565.2574,-91.1332 593.1459,-73 638.4477,-43.5446 699.5498,-29.6549 741.4201,-23.2445"/>
<ellipse fill="none" stroke="#442e10" cx="1216.4723" cy="-532.2534" rx="4" ry="4"/>
<polygon fill="#442e10" stroke="#442e10" points="741.468,-23.2376 752.009,-26.2605 746.4166,-22.5222 751.3651,-21.8068 751.3651,-21.8068 751.3651,-21.8068 746.4166,-22.5222 750.7213,-17.3531 741.468,-23.2376 741.468,-23.2376"/>
</g>
<!-- Team&#45;&gt;ProjectMedia -->
<g id="edge86" class="edge">
<title>Team&#45;&gt;ProjectMedia</title>
<path fill="none" stroke="#6749d8" d="M1224.9173,-522.0298C1189.5266,-487.5468 1120.1884,-415.3486 1079.1459,-342 1049.8411,-289.6282 1073.0251,-261.3445 1036.1459,-214 1031.8034,-208.4252 1026.3409,-203.4598 1020.541,-199.1307"/>
<ellipse fill="none" stroke="#6749d8" cx="1227.8312" cy="-524.8479" rx="4" ry="4"/>
<polygon fill="#6749d8" stroke="#6749d8" points="1020.161,-198.8722 1014.425,-189.5262 1016.0272,-196.0594 1011.8934,-193.2466 1011.8934,-193.2466 1011.8934,-193.2466 1016.0272,-196.0594 1009.3619,-196.967 1020.161,-198.8722 1020.161,-198.8722"/>
</g>
<!-- Team&#45;&gt;Contact -->
<g id="edge82" class="edge">
<title>Team&#45;&gt;Contact</title>
<path fill="none" stroke="#83cb6f" d="M1283.1424,-532.2745C1327.5939,-519.0298 1403.0778,-496.5387 1450.134,-482.5178"/>
<ellipse fill="none" stroke="#83cb6f" cx="1279.084" cy="-533.4837" rx="4" ry="4"/>
<polygon fill="#83cb6f" stroke="#83cb6f" points="1450.1388,-482.5165 1461.0075,-483.9735 1454.9306,-481.0887 1459.7224,-479.6609 1459.7224,-479.6609 1459.7224,-479.6609 1454.9306,-481.0887 1458.4374,-475.3482 1450.1388,-482.5165 1450.1388,-482.5165"/>
</g>
<!-- Team&#45;&gt;TeamUser -->
<g id="edge81" class="edge">
<title>Team&#45;&gt;TeamUser</title>
<path fill="none" stroke="#101ea7" d="M1209.8754,-534.63C1195.595,-531.4985 1179.1362,-527.9806 1164.1459,-525 1076.8733,-507.6474 975.0429,-489.687 914.1756,-479.1943"/>
<ellipse fill="none" stroke="#101ea7" cx="1214.098" cy="-535.5609" rx="4" ry="4"/>
<polygon fill="#101ea7" stroke="#101ea7" points="913.8892,-479.1451 904.7968,-473.0149 908.9616,-478.2974 904.0339,-477.4497 904.0339,-477.4497 904.0339,-477.4497 908.9616,-478.2974 903.2711,-481.8846 913.8892,-479.1451 913.8892,-479.1451"/>
</g>
<!-- Team&#45;&gt;Source -->
<g id="edge83" class="edge">
<title>Team&#45;&gt;Source</title>
<path fill="none" stroke="#571cb6" d="M1253.5796,-516.9079C1255.0872,-510.7936 1256.6997,-504.2541 1258.2275,-498.058"/>
<ellipse fill="none" stroke="#571cb6" cx="1252.553" cy="-521.0714" rx="4" ry="4"/>
<polygon fill="#571cb6" stroke="#571cb6" points="1258.2911,-497.7996 1265.0544,-489.1677 1259.4882,-492.945 1260.6853,-488.0904 1260.6853,-488.0904 1260.6853,-488.0904 1259.4882,-492.945 1256.3161,-487.013 1258.2911,-497.7996 1258.2911,-497.7996"/>
</g>
<!-- Team&#45;&gt;Project -->
<g id="edge79" class="edge">
<title>Team&#45;&gt;Project</title>
<path fill="none" stroke="#27ef99" d="M1213.9772,-529.5272C1210.001,-527.973 1205.9894,-526.433 1202.1459,-525 1179.2303,-516.4561 1170.4235,-520.6726 1150.1459,-507 1123.2453,-488.8617 1129.9965,-468.643 1102.1459,-452 1071.2338,-433.5275 1053.5913,-453.2319 1023.1459,-434 961.8794,-395.2989 973.4402,-357.1884 922.1459,-306 909.7617,-293.6413 894.6422,-281.4579 881.6282,-271.7114"/>
<ellipse fill="none" stroke="#27ef99" cx="1217.8062" cy="-531.0397" rx="4" ry="4"/>
<polygon fill="#27ef99" stroke="#27ef99" points="881.4855,-271.6065 876.0965,-262.0562 877.4578,-268.6438 873.43,-265.6811 873.43,-265.6811 873.43,-265.6811 877.4578,-268.6438 870.7636,-269.3061 881.4855,-271.6065 881.4855,-271.6065"/>
</g>
<!-- Team&#45;&gt;Account -->
<g id="edge80" class="edge">
<title>Team&#45;&gt;Account</title>
<path fill="none" stroke="#44ab16" d="M1229.9795,-519.4567C1217.9004,-499.7583 1206.3013,-471.7802 1221.1459,-452 1238.0335,-429.4975 1311.3849,-413.1887 1361.5802,-404.4152"/>
<ellipse fill="none" stroke="#44ab16" cx="1232.2338" cy="-522.9483" rx="4" ry="4"/>
<polygon fill="#44ab16" stroke="#44ab16" points="1361.7407,-404.388 1372.3541,-407.1458 1366.6698,-403.5488 1371.5988,-402.7097 1371.5988,-402.7097 1371.5988,-402.7097 1366.6698,-403.5488 1370.8436,-398.2735 1361.7407,-404.388 1361.7407,-404.388"/>
</g>
<!-- Link -->
<g id="node32" class="node">
<title>Link</title>
<ellipse fill="none" stroke="#000000" cx="1115.1459" cy="-324" rx="27.0966" ry="18"/>
<text text-anchor="middle" x="1115.1459" y="-320.3" font-family="Times,serif" font-size="14.00" fill="#000000">Link</text>
</g>
<!-- Link&#45;&gt;Version -->
<g id="edge87" class="edge">
<title>Link&#45;&gt;Version</title>
<path fill="none" stroke="#dffcfc" d="M1141.5122,-307.0994C1215.1943,-258.9238 1415.0758,-121.2771 1371.1459,-73 1335.5241,-33.8531 971.5211,-21.985 837.9498,-18.9322"/>
<ellipse fill="none" stroke="#dffcfc" cx="1138.1405" cy="-309.2942" rx="4" ry="4"/>
<polygon fill="#dffcfc" stroke="#dffcfc" points="837.6136,-18.9248 827.7158,-14.2043 832.6148,-18.814 827.6161,-18.7032 827.6161,-18.7032 827.6161,-18.7032 832.6148,-18.814 827.5163,-23.2021 837.6136,-18.9248 837.6136,-18.9248"/>
</g>
<!-- Link&#45;&gt;ProjectMedia -->
<g id="edge88" class="edge">
<title>Link&#45;&gt;ProjectMedia</title>
<path fill="none" stroke="#64880b" d="M1111.6374,-297.7737C1107.0449,-273.1524 1096.7327,-236.7903 1074.1459,-214 1064.3461,-204.1119 1051.5427,-196.8918 1038.5541,-191.6367"/>
<ellipse fill="none" stroke="#64880b" cx="1112.3606" cy="-302.0085" rx="4" ry="4"/>
<polygon fill="#64880b" stroke="#64880b" points="1038.4849,-191.6112 1030.6626,-183.9259 1033.7944,-189.8793 1029.1039,-188.1474 1029.1039,-188.1474 1029.1039,-188.1474 1033.7944,-189.8793 1027.5452,-192.3688 1038.4849,-191.6112 1038.4849,-191.6112"/>
</g>
<!-- Link&#45;&gt;Project -->
<g id="edge89" class="edge">
<title>Link&#45;&gt;Project</title>
<path fill="none" stroke="#e6c0f8" d="M1078.7558,-316.5423C1047.3867,-309.8643 1000.9925,-299.3909 961.1459,-288 937.4258,-281.2191 911.2357,-272.3741 890.4736,-265.0325"/>
<polygon fill="#e6c0f8" stroke="#e6c0f8" points="1079.0019,-316.5941 1087.8584,-323.0605 1083.8944,-317.6257 1088.7868,-318.6573 1088.7868,-318.6573 1088.7868,-318.6573 1083.8944,-317.6257 1089.7153,-314.2541 1079.0019,-316.5941 1079.0019,-316.5941"/>
<polygon fill="#e6c0f8" stroke="#e6c0f8" points="890.4681,-265.0306 882.5606,-257.4331 885.7586,-263.3511 881.0491,-261.6717 881.0491,-261.6717 881.0491,-261.6717 885.7586,-263.3511 879.5376,-265.9103 890.4681,-265.0306 890.4681,-265.0306"/>
</g>
<!-- Account&#45;&gt;Version -->
<g id="edge90" class="edge">
<title>Account&#45;&gt;Version</title>
<path fill="none" stroke="#696ff2" d="M1450.3161,-383.299C1482.0929,-371.7576 1523.0576,-355.0839 1535.1459,-342 1552.5536,-323.1586 1554.1459,-313.152 1554.1459,-287.5 1554.1459,-287.5 1554.1459,-287.5 1554.1459,-91 1554.1459,-61.9177 1484.0794,-65.6851 1368.1459,-54 1171.92,-34.2222 937.1129,-23.6375 837.5607,-19.7541"/>
<ellipse fill="none" stroke="#696ff2" cx="1446.2236" cy="-384.7669" rx="4" ry="4"/>
<polygon fill="#696ff2" stroke="#696ff2" points="837.5,-19.7518 827.6806,-14.8702 832.5037,-19.5593 827.5074,-19.3668 827.5074,-19.3668 827.5074,-19.3668 832.5037,-19.5593 827.3341,-23.8635 837.5,-19.7518 837.5,-19.7518"/>
</g>
<!-- Account&#45;&gt;Media -->
<g id="edge91" class="edge">
<title>Account&#45;&gt;Media</title>
<path fill="none" stroke="#871fdd" d="M1434.4271,-375.3838C1444.6938,-366.2439 1456.6482,-355.6016 1467.0061,-346.3806"/>
<ellipse fill="none" stroke="#871fdd" cx="1431.332" cy="-378.1392" rx="4" ry="4"/>
<polygon fill="#871fdd" stroke="#871fdd" points="1467.092,-346.3041 1477.5533,-343.0158 1470.8266,-342.9794 1474.5611,-339.6547 1474.5611,-339.6547 1474.5611,-339.6547 1470.8266,-342.9794 1471.5689,-336.2936 1467.092,-346.3041 1467.092,-346.3041"/>
</g>
<!-- Account&#45;&gt;AccountSource -->
<g id="edge92" class="edge">
<title>Account&#45;&gt;AccountSource</title>
<path fill="none" stroke="#82de39" d="M1371.773,-381.8583C1342.9288,-370.4765 1303.2516,-354.8201 1272.4443,-342.6637"/>
<ellipse fill="none" stroke="#82de39" cx="1375.8761" cy="-383.4773" rx="4" ry="4"/>
<polygon fill="#82de39" stroke="#82de39" points="1272.0805,-342.5202 1264.4303,-334.6637 1267.4295,-340.6849 1262.7785,-338.8496 1262.7785,-338.8496 1262.7785,-338.8496 1267.4295,-340.6849 1261.1267,-343.0355 1272.0805,-342.5202 1272.0805,-342.5202"/>
</g>
</g>
</svg>
