<?xml version="1.0" encoding="UTF-8" standalone="no"?>
<!DOCTYPE svg PUBLIC "-//W3C//DTD SVG 1.1//EN"
 "http://www.w3.org/Graphics/SVG/1.1/DTD/svg11.dtd">
<!-- Generated by graphviz version 2.26.3 (20100126.1600)
 -->
<!-- Title: models_diagram Pages: 1 -->
<svg width="1158pt" height="1506pt"
 viewBox="0.00 0.00 1158.00 1506.00" xmlns="http://www.w3.org/2000/svg" xmlns:xlink="http://www.w3.org/1999/xlink">
<g id="graph1" class="graph" transform="scale(1 1) rotate(0) translate(4 1502)">
<title>models_diagram</title>
<polygon fill="none" stroke="none" points="-4,5 -4,-1502 1155,-1502 1155,5 -4,5"/>
<!-- Tag -->
<g id="node1" class="node"><title>Tag</title>
<polyline fill="none" stroke="black" points="12,-1265 170,-1265 "/>
<path fill="none" stroke="black" d="M170,-1265C176,-1265 182,-1271 182,-1277"/>
<polyline fill="none" stroke="black" points="182,-1277 182,-1485 "/>
<path fill="none" stroke="black" d="M182,-1485C182,-1491 176,-1497 170,-1497"/>
<polyline fill="none" stroke="black" points="170,-1497 12,-1497 "/>
<path fill="none" stroke="black" d="M12,-1497C6,-1497 0,-1491 0,-1485"/>
<polyline fill="none" stroke="black" points="0,-1485 0,-1277 "/>
<path fill="none" stroke="black" d="M0,-1277C0,-1271 6,-1265 12,-1265"/>
<text text-anchor="middle" x="91" y="-1480.4" font-family="Times Roman,serif" font-size="14.00">Tag</text>
<polyline fill="none" stroke="black" points="0,-1471 182,-1471 "/>
<text text-anchor="start" x="8" y="-1454.4" font-family="Times Roman,serif" font-size="14.00">created_at :Time</text>
<text text-anchor="start" x="8" y="-1436.4" font-family="Times Roman,serif" font-size="14.00">updated_at :Time</text>
<text text-anchor="start" x="8" y="-1418.4" font-family="Times Roman,serif" font-size="14.00">annotation_type :String</text>
<text text-anchor="start" x="8" y="-1400.4" font-family="Times Roman,serif" font-size="14.00">version_index :Integer</text>
<text text-anchor="start" x="8" y="-1382.4" font-family="Times Roman,serif" font-size="14.00">annotated_type :String</text>
<text text-anchor="start" x="8" y="-1364.4" font-family="Times Roman,serif" font-size="14.00">annotated_id :String</text>
<text text-anchor="start" x="8" y="-1346.4" font-family="Times Roman,serif" font-size="14.00">context_type :String</text>
<text text-anchor="start" x="8" y="-1328.4" font-family="Times Roman,serif" font-size="14.00">context_id :String</text>
<text text-anchor="start" x="8" y="-1310.4" font-family="Times Roman,serif" font-size="14.00">annotator_type :String</text>
<text text-anchor="start" x="8" y="-1292.4" font-family="Times Roman,serif" font-size="14.00">annotator_id :String</text>
<text text-anchor="start" x="8" y="-1274.4" font-family="Times Roman,serif" font-size="14.00">tag :String</text>
</g>
<!-- Status -->
<g id="node2" class="node"><title>Status</title>
<polyline fill="none" stroke="black" points="212,-1265 370,-1265 "/>
<path fill="none" stroke="black" d="M370,-1265C376,-1265 382,-1271 382,-1277"/>
<polyline fill="none" stroke="black" points="382,-1277 382,-1485 "/>
<path fill="none" stroke="black" d="M382,-1485C382,-1491 376,-1497 370,-1497"/>
<polyline fill="none" stroke="black" points="370,-1497 212,-1497 "/>
<path fill="none" stroke="black" d="M212,-1497C206,-1497 200,-1491 200,-1485"/>
<polyline fill="none" stroke="black" points="200,-1485 200,-1277 "/>
<path fill="none" stroke="black" d="M200,-1277C200,-1271 206,-1265 212,-1265"/>
<text text-anchor="middle" x="291" y="-1480.4" font-family="Times Roman,serif" font-size="14.00">Status</text>
<polyline fill="none" stroke="black" points="200,-1471 382,-1471 "/>
<text text-anchor="start" x="208" y="-1454.4" font-family="Times Roman,serif" font-size="14.00">created_at :Time</text>
<text text-anchor="start" x="208" y="-1436.4" font-family="Times Roman,serif" font-size="14.00">updated_at :Time</text>
<text text-anchor="start" x="208" y="-1418.4" font-family="Times Roman,serif" font-size="14.00">annotation_type :String</text>
<text text-anchor="start" x="208" y="-1400.4" font-family="Times Roman,serif" font-size="14.00">version_index :Integer</text>
<text text-anchor="start" x="208" y="-1382.4" font-family="Times Roman,serif" font-size="14.00">annotated_type :String</text>
<text text-anchor="start" x="208" y="-1364.4" font-family="Times Roman,serif" font-size="14.00">annotated_id :String</text>
<text text-anchor="start" x="208" y="-1346.4" font-family="Times Roman,serif" font-size="14.00">context_type :String</text>
<text text-anchor="start" x="208" y="-1328.4" font-family="Times Roman,serif" font-size="14.00">context_id :String</text>
<text text-anchor="start" x="208" y="-1310.4" font-family="Times Roman,serif" font-size="14.00">annotator_type :String</text>
<text text-anchor="start" x="208" y="-1292.4" font-family="Times Roman,serif" font-size="14.00">annotator_id :String</text>
<text text-anchor="start" x="208" y="-1274.4" font-family="Times Roman,serif" font-size="14.00">status :String</text>
</g>
<!-- Comment -->
<g id="node3" class="node"><title>Comment</title>
<polyline fill="none" stroke="black" points="412,-1265 570,-1265 "/>
<path fill="none" stroke="black" d="M570,-1265C576,-1265 582,-1271 582,-1277"/>
<polyline fill="none" stroke="black" points="582,-1277 582,-1485 "/>
<path fill="none" stroke="black" d="M582,-1485C582,-1491 576,-1497 570,-1497"/>
<polyline fill="none" stroke="black" points="570,-1497 412,-1497 "/>
<path fill="none" stroke="black" d="M412,-1497C406,-1497 400,-1491 400,-1485"/>
<polyline fill="none" stroke="black" points="400,-1485 400,-1277 "/>
<path fill="none" stroke="black" d="M400,-1277C400,-1271 406,-1265 412,-1265"/>
<text text-anchor="middle" x="491" y="-1480.4" font-family="Times Roman,serif" font-size="14.00">Comment</text>
<polyline fill="none" stroke="black" points="400,-1471 582,-1471 "/>
<text text-anchor="start" x="408" y="-1454.4" font-family="Times Roman,serif" font-size="14.00">created_at :Time</text>
<text text-anchor="start" x="408" y="-1436.4" font-family="Times Roman,serif" font-size="14.00">updated_at :Time</text>
<text text-anchor="start" x="408" y="-1418.4" font-family="Times Roman,serif" font-size="14.00">annotation_type :String</text>
<text text-anchor="start" x="408" y="-1400.4" font-family="Times Roman,serif" font-size="14.00">version_index :Integer</text>
<text text-anchor="start" x="408" y="-1382.4" font-family="Times Roman,serif" font-size="14.00">annotated_type :String</text>
<text text-anchor="start" x="408" y="-1364.4" font-family="Times Roman,serif" font-size="14.00">annotated_id :String</text>
<text text-anchor="start" x="408" y="-1346.4" font-family="Times Roman,serif" font-size="14.00">context_type :String</text>
<text text-anchor="start" x="408" y="-1328.4" font-family="Times Roman,serif" font-size="14.00">context_id :String</text>
<text text-anchor="start" x="408" y="-1310.4" font-family="Times Roman,serif" font-size="14.00">annotator_type :String</text>
<text text-anchor="start" x="408" y="-1292.4" font-family="Times Roman,serif" font-size="14.00">annotator_id :String</text>
<text text-anchor="start" x="408" y="-1274.4" font-family="Times Roman,serif" font-size="14.00">text :String</text>
</g>
<!-- Annotation -->
<g id="node4" class="node"><title>Annotation</title>
<polyline fill="none" stroke="black" points="612,-1274 770,-1274 "/>
<path fill="none" stroke="black" d="M770,-1274C776,-1274 782,-1280 782,-1286"/>
<polyline fill="none" stroke="black" points="782,-1286 782,-1476 "/>
<path fill="none" stroke="black" d="M782,-1476C782,-1482 776,-1488 770,-1488"/>
<polyline fill="none" stroke="black" points="770,-1488 612,-1488 "/>
<path fill="none" stroke="black" d="M612,-1488C606,-1488 600,-1482 600,-1476"/>
<polyline fill="none" stroke="black" points="600,-1476 600,-1286 "/>
<path fill="none" stroke="black" d="M600,-1286C600,-1280 606,-1274 612,-1274"/>
<text text-anchor="middle" x="691" y="-1471.4" font-family="Times Roman,serif" font-size="14.00">Annotation</text>
<polyline fill="none" stroke="black" points="600,-1462 782,-1462 "/>
<text text-anchor="start" x="608" y="-1445.4" font-family="Times Roman,serif" font-size="14.00">created_at :Time</text>
<text text-anchor="start" x="608" y="-1427.4" font-family="Times Roman,serif" font-size="14.00">updated_at :Time</text>
<text text-anchor="start" x="608" y="-1409.4" font-family="Times Roman,serif" font-size="14.00">annotation_type :String</text>
<text text-anchor="start" x="608" y="-1391.4" font-family="Times Roman,serif" font-size="14.00">version_index :Integer</text>
<text text-anchor="start" x="608" y="-1373.4" font-family="Times Roman,serif" font-size="14.00">annotated_type :String</text>
<text text-anchor="start" x="608" y="-1355.4" font-family="Times Roman,serif" font-size="14.00">annotated_id :String</text>
<text text-anchor="start" x="608" y="-1337.4" font-family="Times Roman,serif" font-size="14.00">context_type :String</text>
<text text-anchor="start" x="608" y="-1319.4" font-family="Times Roman,serif" font-size="14.00">context_id :String</text>
<text text-anchor="start" x="608" y="-1301.4" font-family="Times Roman,serif" font-size="14.00">annotator_type :String</text>
<text text-anchor="start" x="608" y="-1283.4" font-family="Times Roman,serif" font-size="14.00">annotator_id :String</text>
</g>
<!-- Source -->
<g id="node5" class="node"><title>Source</title>
<polyline fill="none" stroke="black" points="633.5,-649 774.5,-649 "/>
<path fill="none" stroke="black" d="M774.5,-649C780.5,-649 786.5,-655 786.5,-661"/>
<polyline fill="none" stroke="black" points="786.5,-661 786.5,-797 "/>
<path fill="none" stroke="black" d="M786.5,-797C786.5,-803 780.5,-809 774.5,-809"/>
<polyline fill="none" stroke="black" points="774.5,-809 633.5,-809 "/>
<path fill="none" stroke="black" d="M633.5,-809C627.5,-809 621.5,-803 621.5,-797"/>
<polyline fill="none" stroke="black" points="621.5,-797 621.5,-661 "/>
<path fill="none" stroke="black" d="M621.5,-661C621.5,-655 627.5,-649 633.5,-649"/>
<text text-anchor="middle" x="704" y="-792.4" font-family="Times Roman,serif" font-size="14.00">Source</text>
<polyline fill="none" stroke="black" points="621.5,-783 786.5,-783 "/>
<text text-anchor="start" x="629.5" y="-766.4" font-family="Times Roman,serif" font-size="14.00">id :INTEGER</text>
<text text-anchor="start" x="629.5" y="-748.4" font-family="Times Roman,serif" font-size="14.00">user_id :integer</text>
<text text-anchor="start" x="629.5" y="-730.4" font-family="Times Roman,serif" font-size="14.00">name :varchar</text>
<text text-anchor="start" x="629.5" y="-712.4" font-family="Times Roman,serif" font-size="14.00">slogan :varchar</text>
<text text-anchor="start" x="629.5" y="-694.4" font-family="Times Roman,serif" font-size="14.00">avatar :varchar</text>
<text text-anchor="start" x="629.5" y="-676.4" font-family="Times Roman,serif" font-size="14.00">created_at :datetime</text>
<text text-anchor="start" x="629.5" y="-658.4" font-family="Times Roman,serif" font-size="14.00">updated_at :datetime</text>
</g>
<!-- ProjectSource -->
<g id="node7" class="node"><title>ProjectSource</title>
<polyline fill="none" stroke="black" points="831.5,-199 972.5,-199 "/>
<path fill="none" stroke="black" d="M972.5,-199C978.5,-199 984.5,-205 984.5,-211"/>
<polyline fill="none" stroke="black" points="984.5,-211 984.5,-311 "/>
<path fill="none" stroke="black" d="M984.5,-311C984.5,-317 978.5,-323 972.5,-323"/>
<polyline fill="none" stroke="black" points="972.5,-323 831.5,-323 "/>
<path fill="none" stroke="black" d="M831.5,-323C825.5,-323 819.5,-317 819.5,-311"/>
<polyline fill="none" stroke="black" points="819.5,-311 819.5,-211 "/>
<path fill="none" stroke="black" d="M819.5,-211C819.5,-205 825.5,-199 831.5,-199"/>
<text text-anchor="middle" x="902" y="-306.4" font-family="Times Roman,serif" font-size="14.00">ProjectSource</text>
<polyline fill="none" stroke="black" points="819.5,-297 984.5,-297 "/>
<text text-anchor="start" x="827.5" y="-280.4" font-family="Times Roman,serif" font-size="14.00">id :INTEGER</text>
<text text-anchor="start" x="827.5" y="-262.4" font-family="Times Roman,serif" font-size="14.00">project_id :integer</text>
<text text-anchor="start" x="827.5" y="-244.4" font-family="Times Roman,serif" font-size="14.00">source_id :integer</text>
<text text-anchor="start" x="827.5" y="-226.4" font-family="Times Roman,serif" font-size="14.00">created_at :datetime</text>
<text text-anchor="start" x="827.5" y="-208.4" font-family="Times Roman,serif" font-size="14.00">updated_at :datetime</text>
</g>
<!-- Source&#45;&gt;ProjectSource -->
<g id="edge6" class="edge"><title>Source&#45;&gt;ProjectSource</title>
<path fill="none" stroke="#343e57" d="M730.831,-641.129C758.801,-550.263 800.063,-418.525 811,-396 821.586,-374.197 835.291,-351.853 848.836,-331.778"/>
<ellipse fill="none" stroke="#343e57" cx="729.596" cy="-645.143" rx="4.00001" ry="4.00001"/>
<polygon fill="#343e57" stroke="#343e57" points="848.976,-331.574 858.336,-325.862 851.799,-327.447 854.622,-323.321 854.622,-323.321 854.622,-323.321 851.799,-327.447 850.909,-320.78 848.976,-331.574 848.976,-331.574"/>
</g>
<!-- Account -->
<g id="node8" class="node"><title>Account</title>
<polyline fill="none" stroke="black" points="583.5,-415 724.5,-415 "/>
<path fill="none" stroke="black" d="M724.5,-415C730.5,-415 736.5,-421 736.5,-427"/>
<polyline fill="none" stroke="black" points="736.5,-427 736.5,-563 "/>
<path fill="none" stroke="black" d="M736.5,-563C736.5,-569 730.5,-575 724.5,-575"/>
<polyline fill="none" stroke="black" points="724.5,-575 583.5,-575 "/>
<path fill="none" stroke="black" d="M583.5,-575C577.5,-575 571.5,-569 571.5,-563"/>
<polyline fill="none" stroke="black" points="571.5,-563 571.5,-427 "/>
<path fill="none" stroke="black" d="M571.5,-427C571.5,-421 577.5,-415 583.5,-415"/>
<text text-anchor="middle" x="654" y="-558.4" font-family="Times Roman,serif" font-size="14.00">Account</text>
<polyline fill="none" stroke="black" points="571.5,-549 736.5,-549 "/>
<text text-anchor="start" x="579.5" y="-532.4" font-family="Times Roman,serif" font-size="14.00">id :INTEGER</text>
<text text-anchor="start" x="579.5" y="-514.4" font-family="Times Roman,serif" font-size="14.00">user_id :integer</text>
<text text-anchor="start" x="579.5" y="-496.4" font-family="Times Roman,serif" font-size="14.00">source_id :integer</text>
<text text-anchor="start" x="579.5" y="-478.4" font-family="Times Roman,serif" font-size="14.00">url :varchar</text>
<text text-anchor="start" x="579.5" y="-460.4" font-family="Times Roman,serif" font-size="14.00">data :text</text>
<text text-anchor="start" x="579.5" y="-442.4" font-family="Times Roman,serif" font-size="14.00">created_at :datetime</text>
<text text-anchor="start" x="579.5" y="-424.4" font-family="Times Roman,serif" font-size="14.00">updated_at :datetime</text>
</g>
<!-- Source&#45;&gt;Account -->
<g id="edge4" class="edge"><title>Source&#45;&gt;Account</title>
<path fill="none" stroke="#2ff641" d="M685.177,-640.908C681.264,-622.597 677.136,-603.278 673.21,-584.902"/>
<ellipse fill="none" stroke="#2ff641" cx="686.027" cy="-644.886" rx="4.00001" ry="4.00001"/>
<polygon fill="#2ff641" stroke="#2ff641" points="673.204,-584.877 675.515,-574.157 672.16,-579.987 671.115,-575.097 671.115,-575.097 671.115,-575.097 672.16,-579.987 666.714,-576.038 673.204,-584.877 673.204,-584.877"/>
</g>
<!-- Project -->
<g id="node9" class="node"><title>Project</title>
<polyline fill="none" stroke="black" points="831.5,-397 972.5,-397 "/>
<path fill="none" stroke="black" d="M972.5,-397C978.5,-397 984.5,-403 984.5,-409"/>
<polyline fill="none" stroke="black" points="984.5,-409 984.5,-581 "/>
<path fill="none" stroke="black" d="M984.5,-581C984.5,-587 978.5,-593 972.5,-593"/>
<polyline fill="none" stroke="black" points="972.5,-593 831.5,-593 "/>
<path fill="none" stroke="black" d="M831.5,-593C825.5,-593 819.5,-587 819.5,-581"/>
<polyline fill="none" stroke="black" points="819.5,-581 819.5,-409 "/>
<path fill="none" stroke="black" d="M819.5,-409C819.5,-403 825.5,-397 831.5,-397"/>
<text text-anchor="middle" x="902" y="-576.4" font-family="Times Roman,serif" font-size="14.00">Project</text>
<polyline fill="none" stroke="black" points="819.5,-567 984.5,-567 "/>
<text text-anchor="start" x="827.5" y="-550.4" font-family="Times Roman,serif" font-size="14.00">id :INTEGER</text>
<text text-anchor="start" x="827.5" y="-532.4" font-family="Times Roman,serif" font-size="14.00">user_id :integer</text>
<text text-anchor="start" x="827.5" y="-514.4" font-family="Times Roman,serif" font-size="14.00">team_id :integer</text>
<text text-anchor="start" x="827.5" y="-496.4" font-family="Times Roman,serif" font-size="14.00">title :varchar</text>
<text text-anchor="start" x="827.5" y="-478.4" font-family="Times Roman,serif" font-size="14.00">description :text</text>
<text text-anchor="start" x="827.5" y="-460.4" font-family="Times Roman,serif" font-size="14.00">lead_image :varchar</text>
<text text-anchor="start" x="827.5" y="-442.4" font-family="Times Roman,serif" font-size="14.00">created_at :datetime</text>
<text text-anchor="start" x="827.5" y="-424.4" font-family="Times Roman,serif" font-size="14.00">updated_at :datetime</text>
<text text-anchor="start" x="827.5" y="-406.4" font-family="Times Roman,serif" font-size="14.00">archived :boolean</text>
</g>
<!-- Source&#45;&gt;Project -->
<g id="edge8" class="edge"><title>Source&#45;&gt;Project</title>
<path fill="none" stroke="#2e8a0a" d="M778.347,-641.136C789.481,-627.977 801.06,-614.292 812.47,-600.808"/>
<polygon fill="#2e8a0a" stroke="#2e8a0a" points="778.323,-641.164 768.428,-645.891 775.093,-644.981 771.863,-648.798 771.863,-648.798 771.863,-648.798 775.093,-644.981 775.299,-651.705 778.323,-641.164 778.323,-641.164"/>
<polygon fill="#2e8a0a" stroke="#2e8a0a" points="812.705,-600.531 822.599,-595.804 815.934,-596.714 819.164,-592.897 819.164,-592.897 819.164,-592.897 815.934,-596.714 815.729,-589.99 812.705,-600.531 812.705,-600.531"/>
</g>
<!-- PaperTrail::Version -->
<g id="node16" class="node"><title>PaperTrail::Version</title>
<ellipse fill="none" stroke="black" cx="562" cy="-63" rx="101.823" ry="18.3848"/>
<text text-anchor="middle" x="562" y="-59.4" font-family="Times Roman,serif" font-size="14.00">PaperTrail::Version</text>
</g>
<!-- Source&#45;&gt;PaperTrail::Version -->
<g id="edge2" class="edge"><title>Source&#45;&gt;PaperTrail::Version</title>
<path fill="none" stroke="#0f50ad" d="M615.302,-659.528C595.534,-640.219 576.471,-617.92 563,-594 467.777,-424.917 528.473,-174.882 553.058,-91.339"/>
<ellipse fill="none" stroke="#0f50ad" cx="618.285" cy="-662.388" rx="4.00002" ry="4.00002"/>
<polygon fill="#0f50ad" stroke="#0f50ad" points="553.121,-91.1294 560.309,-82.8479 554.56,-86.341 556,-81.5526 556,-81.5526 556,-81.5526 554.56,-86.341 551.69,-80.2573 553.121,-91.1294 553.121,-91.1294"/>
<text text-anchor="middle" x="540" y="-365.4" font-family="Times Roman,serif" font-size="14.00">versions</text>
</g>
<!-- Team -->
<g id="node6" class="node"><title>Team</title>
<polyline fill="none" stroke="black" points="811.5,-1292 952.5,-1292 "/>
<path fill="none" stroke="black" d="M952.5,-1292C958.5,-1292 964.5,-1298 964.5,-1304"/>
<polyline fill="none" stroke="black" points="964.5,-1304 964.5,-1458 "/>
<path fill="none" stroke="black" d="M964.5,-1458C964.5,-1464 958.5,-1470 952.5,-1470"/>
<polyline fill="none" stroke="black" points="952.5,-1470 811.5,-1470 "/>
<path fill="none" stroke="black" d="M811.5,-1470C805.5,-1470 799.5,-1464 799.5,-1458"/>
<polyline fill="none" stroke="black" points="799.5,-1458 799.5,-1304 "/>
<path fill="none" stroke="black" d="M799.5,-1304C799.5,-1298 805.5,-1292 811.5,-1292"/>
<text text-anchor="middle" x="882" y="-1453.4" font-family="Times Roman,serif" font-size="14.00">Team</text>
<polyline fill="none" stroke="black" points="799.5,-1444 964.5,-1444 "/>
<text text-anchor="start" x="807.5" y="-1427.4" font-family="Times Roman,serif" font-size="14.00">id :INTEGER</text>
<text text-anchor="start" x="807.5" y="-1409.4" font-family="Times Roman,serif" font-size="14.00">name :varchar</text>
<text text-anchor="start" x="807.5" y="-1391.4" font-family="Times Roman,serif" font-size="14.00">logo :varchar</text>
<text text-anchor="start" x="807.5" y="-1373.4" font-family="Times Roman,serif" font-size="14.00">private :boolean</text>
<text text-anchor="start" x="807.5" y="-1355.4" font-family="Times Roman,serif" font-size="14.00">archived :boolean</text>
<text text-anchor="start" x="807.5" y="-1337.4" font-family="Times Roman,serif" font-size="14.00">created_at :datetime</text>
<text text-anchor="start" x="807.5" y="-1319.4" font-family="Times Roman,serif" font-size="14.00">updated_at :datetime</text>
<text text-anchor="start" x="807.5" y="-1301.4" font-family="Times Roman,serif" font-size="14.00">description :text</text>
</g>
<!-- Team&#45;&gt;Project -->
<g id="edge12" class="edge"><title>Team&#45;&gt;Project</title>
<path fill="none" stroke="#f78710" d="M937.479,-1284.6C946.546,-1265.65 954.941,-1245.57 961,-1226 1037.3,-979.533 1095.69,-893.066 1015,-648 1009.11,-630.105 1000.23,-612.586 989.988,-596.166"/>
<ellipse fill="none" stroke="#f78710" cx="935.724" cy="-1288.21" rx="4.00002" ry="4.00002"/>
<polygon fill="#f78710" stroke="#f78710" points="989.937,-596.086 988.299,-585.244 987.227,-591.885 984.517,-587.683 984.517,-587.683 984.517,-587.683 987.227,-591.885 980.735,-590.122 989.937,-596.086 989.937,-596.086"/>
</g>
<!-- TeamUser -->
<g id="node10" class="node"><title>TeamUser</title>
<polyline fill="none" stroke="black" points="853.5,-667 994.5,-667 "/>
<path fill="none" stroke="black" d="M994.5,-667C1000.5,-667 1006.5,-673 1006.5,-679"/>
<polyline fill="none" stroke="black" points="1006.5,-679 1006.5,-779 "/>
<path fill="none" stroke="black" d="M1006.5,-779C1006.5,-785 1000.5,-791 994.5,-791"/>
<polyline fill="none" stroke="black" points="994.5,-791 853.5,-791 "/>
<path fill="none" stroke="black" d="M853.5,-791C847.5,-791 841.5,-785 841.5,-779"/>
<polyline fill="none" stroke="black" points="841.5,-779 841.5,-679 "/>
<path fill="none" stroke="black" d="M841.5,-679C841.5,-673 847.5,-667 853.5,-667"/>
<text text-anchor="middle" x="924" y="-774.4" font-family="Times Roman,serif" font-size="14.00">TeamUser</text>
<polyline fill="none" stroke="black" points="841.5,-765 1006.5,-765 "/>
<text text-anchor="start" x="849.5" y="-748.4" font-family="Times Roman,serif" font-size="14.00">id :INTEGER</text>
<text text-anchor="start" x="849.5" y="-730.4" font-family="Times Roman,serif" font-size="14.00">team_id :integer</text>
<text text-anchor="start" x="849.5" y="-712.4" font-family="Times Roman,serif" font-size="14.00">user_id :integer</text>
<text text-anchor="start" x="849.5" y="-694.4" font-family="Times Roman,serif" font-size="14.00">created_at :datetime</text>
<text text-anchor="start" x="849.5" y="-676.4" font-family="Times Roman,serif" font-size="14.00">updated_at :datetime</text>
</g>
<!-- Team&#45;&gt;TeamUser -->
<g id="edge14" class="edge"><title>Team&#45;&gt;TeamUser</title>
<path fill="none" stroke="#264af8" d="M924.235,-1284.2C930.778,-1265.24 936.515,-1245.26 940,-1226 966.986,-1076.88 949.441,-898.584 935.746,-801.236"/>
<ellipse fill="none" stroke="#264af8" cx="922.821" cy="-1288.2" rx="4.00001" ry="4.00001"/>
<polygon fill="#264af8" stroke="#264af8" points="935.728,-801.109 938.763,-790.571 935.018,-796.159 934.309,-791.21 934.309,-791.21 934.309,-791.21 935.018,-796.159 929.854,-791.848 935.728,-801.109 935.728,-801.109"/>
</g>
<!-- User -->
<g id="node13" class="node"><title>User</title>
<polyline fill="none" stroke="black" points="689,-849 919,-849 "/>
<path fill="none" stroke="black" d="M919,-849C925,-849 931,-855 931,-861"/>
<polyline fill="none" stroke="black" points="931,-861 931,-1213 "/>
<path fill="none" stroke="black" d="M931,-1213C931,-1219 925,-1225 919,-1225"/>
<polyline fill="none" stroke="black" points="919,-1225 689,-1225 "/>
<path fill="none" stroke="black" d="M689,-1225C683,-1225 677,-1219 677,-1213"/>
<polyline fill="none" stroke="black" points="677,-1213 677,-861 "/>
<path fill="none" stroke="black" d="M677,-861C677,-855 683,-849 689,-849"/>
<text text-anchor="middle" x="804" y="-1208.4" font-family="Times Roman,serif" font-size="14.00">User</text>
<polyline fill="none" stroke="black" points="677,-1199 931,-1199 "/>
<text text-anchor="start" x="685" y="-1182.4" font-family="Times Roman,serif" font-size="14.00">id :INTEGER</text>
<text text-anchor="start" x="685" y="-1164.4" font-family="Times Roman,serif" font-size="14.00">name :varchar</text>
<text text-anchor="start" x="685" y="-1146.4" font-family="Times Roman,serif" font-size="14.00">login :varchar</text>
<text text-anchor="start" x="685" y="-1128.4" font-family="Times Roman,serif" font-size="14.00">uuid :varchar</text>
<text text-anchor="start" x="685" y="-1110.4" font-family="Times Roman,serif" font-size="14.00">provider :varchar</text>
<text text-anchor="start" x="685" y="-1092.4" font-family="Times Roman,serif" font-size="14.00">token :varchar</text>
<text text-anchor="start" x="685" y="-1074.4" font-family="Times Roman,serif" font-size="14.00">email :varchar</text>
<text text-anchor="start" x="685" y="-1056.4" font-family="Times Roman,serif" font-size="14.00">encrypted_password :varchar</text>
<text text-anchor="start" x="685" y="-1038.4" font-family="Times Roman,serif" font-size="14.00">reset_password_token :varchar</text>
<text text-anchor="start" x="685" y="-1020.4" font-family="Times Roman,serif" font-size="14.00">reset_password_sent_at :datetime</text>
<text text-anchor="start" x="685" y="-1002.4" font-family="Times Roman,serif" font-size="14.00">remember_created_at :datetime</text>
<text text-anchor="start" x="685" y="-984.4" font-family="Times Roman,serif" font-size="14.00">sign_in_count :integer</text>
<text text-anchor="start" x="685" y="-966.4" font-family="Times Roman,serif" font-size="14.00">current_sign_in_at :datetime</text>
<text text-anchor="start" x="685" y="-948.4" font-family="Times Roman,serif" font-size="14.00">last_sign_in_at :datetime</text>
<text text-anchor="start" x="685" y="-930.4" font-family="Times Roman,serif" font-size="14.00">current_sign_in_ip :varchar</text>
<text text-anchor="start" x="685" y="-912.4" font-family="Times Roman,serif" font-size="14.00">last_sign_in_ip :varchar</text>
<text text-anchor="start" x="685" y="-894.4" font-family="Times Roman,serif" font-size="14.00">created_at :datetime</text>
<text text-anchor="start" x="685" y="-876.4" font-family="Times Roman,serif" font-size="14.00">updated_at :datetime</text>
<text text-anchor="start" x="685" y="-858.4" font-family="Times Roman,serif" font-size="14.00">profile_image :varchar</text>
</g>
<!-- Team&#45;&gt;User -->
<g id="edge16" class="edge"><title>Team&#45;&gt;User</title>
<path fill="none" stroke="#656f23" d="M859.578,-1282.11C856.2,-1267.21 852.618,-1251.42 848.964,-1235.3"/>
<polygon fill="#656f23" stroke="#656f23" points="859.6,-1282.21 857.423,-1292.96 860.706,-1287.09 861.812,-1291.96 861.812,-1291.96 861.812,-1291.96 860.706,-1287.09 866.2,-1290.97 859.6,-1282.21 859.6,-1282.21"/>
<polygon fill="#656f23" stroke="#656f23" points="848.893,-1234.99 851.07,-1224.24 847.787,-1230.11 846.682,-1225.24 846.682,-1225.24 846.682,-1225.24 847.787,-1230.11 842.293,-1226.23 848.893,-1234.99 848.893,-1234.99"/>
</g>
<!-- Team&#45;&gt;PaperTrail::Version -->
<g id="edge10" class="edge"><title>Team&#45;&gt;PaperTrail::Version</title>
<path fill="none" stroke="#afbad4" d="M816.54,-1285.65C808.568,-1277.64 800.025,-1270.24 791,-1264 743.93,-1231.47 718.235,-1253.39 668,-1226 553.336,-1163.49 443,-1167.6 443,-1037 443,-1037 443,-1037 443,-261 443,-190.716 498.765,-123.873 533.947,-88.6956"/>
<ellipse fill="none" stroke="#afbad4" cx="819.752" cy="-1289" rx="4.00002" ry="4.00002"/>
<polygon fill="#afbad4" stroke="#afbad4" points="534.392,-88.2602 544.689,-84.4877 537.968,-84.765 541.543,-81.2698 541.543,-81.2698 541.543,-81.2698 537.968,-84.765 538.397,-78.0519 534.392,-88.2602 534.392,-88.2602"/>
<text text-anchor="middle" x="472" y="-617.4" font-family="Times Roman,serif" font-size="14.00">versions</text>
</g>
<!-- Media -->
<g id="node12" class="node"><title>Media</title>
<polyline fill="none" stroke="black" points="649.5,-181 790.5,-181 "/>
<path fill="none" stroke="black" d="M790.5,-181C796.5,-181 802.5,-187 802.5,-193"/>
<polyline fill="none" stroke="black" points="802.5,-193 802.5,-329 "/>
<path fill="none" stroke="black" d="M802.5,-329C802.5,-335 796.5,-341 790.5,-341"/>
<polyline fill="none" stroke="black" points="790.5,-341 649.5,-341 "/>
<path fill="none" stroke="black" d="M649.5,-341C643.5,-341 637.5,-335 637.5,-329"/>
<polyline fill="none" stroke="black" points="637.5,-329 637.5,-193 "/>
<path fill="none" stroke="black" d="M637.5,-193C637.5,-187 643.5,-181 649.5,-181"/>
<text text-anchor="middle" x="720" y="-324.4" font-family="Times Roman,serif" font-size="14.00">Media</text>
<polyline fill="none" stroke="black" points="637.5,-315 802.5,-315 "/>
<text text-anchor="start" x="645.5" y="-298.4" font-family="Times Roman,serif" font-size="14.00">id :INTEGER</text>
<text text-anchor="start" x="645.5" y="-280.4" font-family="Times Roman,serif" font-size="14.00">user_id :integer</text>
<text text-anchor="start" x="645.5" y="-262.4" font-family="Times Roman,serif" font-size="14.00">account_id :integer</text>
<text text-anchor="start" x="645.5" y="-244.4" font-family="Times Roman,serif" font-size="14.00">url :varchar</text>
<text text-anchor="start" x="645.5" y="-226.4" font-family="Times Roman,serif" font-size="14.00">data :text</text>
<text text-anchor="start" x="645.5" y="-208.4" font-family="Times Roman,serif" font-size="14.00">created_at :datetime</text>
<text text-anchor="start" x="645.5" y="-190.4" font-family="Times Roman,serif" font-size="14.00">updated_at :datetime</text>
</g>
<!-- Account&#45;&gt;Media -->
<g id="edge20" class="edge"><title>Account&#45;&gt;Media</title>
<path fill="none" stroke="#ac4bb8" d="M678.846,-406.908C684.011,-388.597 689.46,-369.278 694.643,-350.902"/>
<ellipse fill="none" stroke="#ac4bb8" cx="677.707" cy="-410.948" rx="4.00001" ry="4.00001"/>
<polygon fill="#ac4bb8" stroke="#ac4bb8" points="694.694,-350.722 701.739,-342.319 696.051,-345.91 697.408,-341.097 697.408,-341.097 697.408,-341.097 696.051,-345.91 693.077,-339.876 694.694,-350.722 694.694,-350.722"/>
</g>
<!-- Account&#45;&gt;PaperTrail::Version -->
<g id="edge18" class="edge"><title>Account&#45;&gt;PaperTrail::Version</title>
<path fill="none" stroke="#d7341a" d="M597.717,-407.718C586.887,-386.943 577.046,-364.308 571,-342 546.976,-253.351 553.59,-143.049 558.645,-91.7388"/>
<ellipse fill="none" stroke="#d7341a" cx="599.705" cy="-411.454" rx="4.00002" ry="4.00002"/>
<polygon fill="#d7341a" stroke="#d7341a" points="558.653,-91.6604 564.164,-82.1801 559.171,-86.6873 559.689,-81.7141 559.689,-81.7141 559.689,-81.7141 559.171,-86.6873 555.213,-81.2482 558.653,-91.6604 558.653,-91.6604"/>
<text text-anchor="middle" x="600" y="-257.4" font-family="Times Roman,serif" font-size="14.00">versions</text>
</g>
<!-- Project&#45;&gt;ProjectSource -->
<g id="edge24" class="edge"><title>Project&#45;&gt;ProjectSource</title>
<path fill="none" stroke="#b200d0" d="M902,-388.578C902,-369.899 902,-350.859 902,-333.38"/>
<ellipse fill="none" stroke="#b200d0" cx="902" cy="-392.78" rx="4" ry="4"/>
<polygon fill="#b200d0" stroke="#b200d0" points="902,-333.285 906.5,-323.285 902,-328.285 902,-323.285 902,-323.285 902,-323.285 902,-328.285 897.5,-323.285 902,-333.285 902,-333.285"/>
</g>
<!-- ProjectMedia -->
<g id="node11" class="node"><title>ProjectMedia</title>
<polyline fill="none" stroke="black" points="737.5,-1 878.5,-1 "/>
<path fill="none" stroke="black" d="M878.5,-1C884.5,-1 890.5,-7 890.5,-13"/>
<polyline fill="none" stroke="black" points="890.5,-13 890.5,-113 "/>
<path fill="none" stroke="black" d="M890.5,-113C890.5,-119 884.5,-125 878.5,-125"/>
<polyline fill="none" stroke="black" points="878.5,-125 737.5,-125 "/>
<path fill="none" stroke="black" d="M737.5,-125C731.5,-125 725.5,-119 725.5,-113"/>
<polyline fill="none" stroke="black" points="725.5,-113 725.5,-13 "/>
<path fill="none" stroke="black" d="M725.5,-13C725.5,-7 731.5,-1 737.5,-1"/>
<text text-anchor="middle" x="808" y="-108.4" font-family="Times Roman,serif" font-size="14.00">ProjectMedia</text>
<polyline fill="none" stroke="black" points="725.5,-99 890.5,-99 "/>
<text text-anchor="start" x="733.5" y="-82.4" font-family="Times Roman,serif" font-size="14.00">id :INTEGER</text>
<text text-anchor="start" x="733.5" y="-64.4" font-family="Times Roman,serif" font-size="14.00">project_id :integer</text>
<text text-anchor="start" x="733.5" y="-46.4" font-family="Times Roman,serif" font-size="14.00">media_id :integer</text>
<text text-anchor="start" x="733.5" y="-28.4" font-family="Times Roman,serif" font-size="14.00">created_at :datetime</text>
<text text-anchor="start" x="733.5" y="-10.4" font-family="Times Roman,serif" font-size="14.00">updated_at :datetime</text>
</g>
<!-- Project&#45;&gt;ProjectMedia -->
<g id="edge26" class="edge"><title>Project&#45;&gt;ProjectMedia</title>
<path fill="none" stroke="#03d22e" d="M991.352,-443.178C1026.46,-417.626 1062.88,-383.353 1082,-342 1112.22,-276.649 1114.2,-244.399 1082,-180 1064.59,-145.188 972.963,-110.872 900.39,-88.4995"/>
<ellipse fill="none" stroke="#03d22e" cx="988.071" cy="-445.522" rx="4.00002" ry="4.00002"/>
<polygon fill="#03d22e" stroke="#03d22e" points="900.305,-88.4735 892.05,-81.2546 895.522,-87.0164 890.739,-85.5593 890.739,-85.5593 890.739,-85.5593 895.522,-87.0164 889.427,-89.864 900.305,-88.4735 900.305,-88.4735"/>
</g>
<!-- Project&#45;&gt;Media -->
<g id="edge28" class="edge"><title>Project&#45;&gt;Media</title>
<path fill="none" stroke="#754a40" d="M819.167,-388.501C808.933,-375.342 798.559,-362.005 788.57,-349.162"/>
<polygon fill="#754a40" stroke="#754a40" points="819.467,-388.886 822.055,-399.543 822.537,-392.833 825.607,-396.78 825.607,-396.78 825.607,-396.78 822.537,-392.833 829.159,-394.017 819.467,-388.886 819.467,-388.886"/>
<polygon fill="#754a40" stroke="#754a40" points="788.545,-349.129 785.957,-338.473 785.475,-345.182 782.405,-341.235 782.405,-341.235 782.405,-341.235 785.475,-345.182 778.853,-343.998 788.545,-349.129 788.545,-349.129"/>
</g>
<!-- Project&#45;&gt;PaperTrail::Version -->
<g id="edge22" class="edge"><title>Project&#45;&gt;PaperTrail::Version</title>
<path fill="none" stroke="#e7273a" d="M976.843,-389.571C1014.03,-323.176 1041.7,-239.149 993,-180 913.554,-83.5041 836.786,-161.698 717,-126 679.572,-114.846 638.705,-98.031 608.334,-84.5776"/>
<ellipse fill="none" stroke="#e7273a" cx="974.725" cy="-393.282" rx="4.00002" ry="4.00002"/>
<polygon fill="#e7273a" stroke="#e7273a" points="607.989,-84.423 600.698,-76.2316 603.424,-82.3811 598.86,-80.3392 598.86,-80.3392 598.86,-80.3392 603.424,-82.3811 597.023,-84.4469 607.989,-84.423 607.989,-84.423"/>
<text text-anchor="middle" x="1048" y="-257.4" font-family="Times Roman,serif" font-size="14.00">versions</text>
</g>
<!-- Media&#45;&gt;ProjectMedia -->
<g id="edge32" class="edge"><title>Media&#45;&gt;ProjectMedia</title>
<path fill="none" stroke="#b9a908" d="M758.969,-173.32C764.724,-160.371 770.596,-147.16 776.183,-134.589"/>
<ellipse fill="none" stroke="#b9a908" cx="757.291" cy="-177.096" rx="4.00002" ry="4.00002"/>
<polygon fill="#b9a908" stroke="#b9a908" points="776.332,-134.253 784.505,-126.943 778.362,-129.684 780.393,-125.115 780.393,-125.115 780.393,-125.115 778.362,-129.684 776.281,-123.288 776.332,-134.253 776.332,-134.253"/>
</g>
<!-- Media&#45;&gt;PaperTrail::Version -->
<g id="edge30" class="edge"><title>Media&#45;&gt;PaperTrail::Version</title>
<path fill="none" stroke="#07e16b" d="M650.825,-174.312C626.32,-143.603 600.533,-111.288 583.095,-89.4358"/>
<ellipse fill="none" stroke="#07e16b" cx="653.468" cy="-177.625" rx="4.00002" ry="4.00002"/>
<polygon fill="#07e16b" stroke="#07e16b" points="583.078,-89.4145 580.358,-78.7913 579.96,-85.5063 576.841,-81.5981 576.841,-81.5981 576.841,-81.5981 579.96,-85.5063 573.324,-84.4049 583.078,-89.4145 583.078,-89.4145"/>
<text text-anchor="middle" x="670" y="-149.4" font-family="Times Roman,serif" font-size="14.00">versions</text>
</g>
<!-- User&#45;&gt;Source -->
<g id="edge34" class="edge"><title>User&#45;&gt;Source</title>
<path fill="none" stroke="#53efb1" d="M740.447,-841.257C737.753,-832.959 735.116,-824.836 732.57,-816.995"/>
<ellipse fill="none" stroke="#53efb1" cx="741.714" cy="-845.158" rx="4.00001" ry="4.00001"/>
<ellipse fill="#53efb1" stroke="#53efb1" cx="731.291" cy="-813.056" rx="4.00001" ry="4.00001"/>
</g>
<!-- User&#45;&gt;Project -->
<g id="edge38" class="edge"><title>User&#45;&gt;Project</title>
<path fill="none" stroke="#fc86fa" d="M805.318,-840.524C809.268,-778.221 817.345,-709.556 833,-648 836.836,-632.916 842.075,-617.466 847.965,-602.459"/>
<ellipse fill="none" stroke="#fc86fa" cx="805.054" cy="-844.883" rx="4" ry="4"/>
<polygon fill="#fc86fa" stroke="#fc86fa" points="847.968,-602.453 855.883,-594.863 849.839,-597.816 851.71,-593.179 851.71,-593.179 851.71,-593.179 849.839,-597.816 847.537,-591.495 847.968,-602.453 847.968,-602.453"/>
</g>
<!-- User&#45;&gt;TeamUser -->
<g id="edge36" class="edge"><title>User&#45;&gt;TeamUser</title>
<path fill="none" stroke="#700c57" d="M880.264,-841.257C885.812,-827.015 891.161,-813.288 896.098,-800.616"/>
<ellipse fill="none" stroke="#700c57" cx="878.713" cy="-845.236" rx="4.00001" ry="4.00001"/>
<polygon fill="#700c57" stroke="#700c57" points="896.159,-800.458 903.983,-792.774 897.974,-795.799 899.79,-791.14 899.79,-791.14 899.79,-791.14 897.974,-795.799 895.597,-789.506 896.159,-800.458 896.159,-800.458"/>
</g>
<!-- ApiKey -->
<g id="node14" class="node"><title>ApiKey</title>
<polyline fill="none" stroke="black" points="994,-1310 1138,-1310 "/>
<path fill="none" stroke="black" d="M1138,-1310C1144,-1310 1150,-1316 1150,-1322"/>
<polyline fill="none" stroke="black" points="1150,-1322 1150,-1440 "/>
<path fill="none" stroke="black" d="M1150,-1440C1150,-1446 1144,-1452 1138,-1452"/>
<polyline fill="none" stroke="black" points="1138,-1452 994,-1452 "/>
<path fill="none" stroke="black" d="M994,-1452C988,-1452 982,-1446 982,-1440"/>
<polyline fill="none" stroke="black" points="982,-1440 982,-1322 "/>
<path fill="none" stroke="black" d="M982,-1322C982,-1316 988,-1310 994,-1310"/>
<text text-anchor="middle" x="1066" y="-1435.4" font-family="Times Roman,serif" font-size="14.00">ApiKey</text>
<polyline fill="none" stroke="black" points="982,-1426 1150,-1426 "/>
<text text-anchor="start" x="990" y="-1409.4" font-family="Times Roman,serif" font-size="14.00">id :INTEGER</text>
<text text-anchor="start" x="990" y="-1391.4" font-family="Times Roman,serif" font-size="14.00">access_token :varchar</text>
<text text-anchor="start" x="990" y="-1373.4" font-family="Times Roman,serif" font-size="14.00">expire_at :datetime</text>
<text text-anchor="start" x="990" y="-1355.4" font-family="Times Roman,serif" font-size="14.00">created_at :datetime</text>
<text text-anchor="start" x="990" y="-1337.4" font-family="Times Roman,serif" font-size="14.00">updated_at :datetime</text>
<text text-anchor="start" x="990" y="-1319.4" font-family="Times Roman,serif" font-size="14.00">application :varchar</text>
</g>
</g>
</svg>
