<?xml version="1.0" encoding="UTF-8" standalone="no"?>
<!DOCTYPE svg PUBLIC "-//W3C//DTD SVG 1.1//EN"
 "http://www.w3.org/Graphics/SVG/1.1/DTD/svg11.dtd">
<!-- Generated by graphviz version 2.36.0 (20140111.2315)
 -->
<!-- Title: models_diagram Pages: 1 -->
<svg width="2217pt" height="1278pt"
 viewBox="0.00 0.00 2217.00 1278.00" xmlns="http://www.w3.org/2000/svg" xmlns:xlink="http://www.w3.org/1999/xlink">
<g id="graph0" class="graph" transform="scale(1 1) rotate(0) translate(4 1274)">
<title>models_diagram</title>
<polygon fill="none" stroke="none" points="-4,4 -4,-1274 2213,-1274 2213,4 -4,4"/>
<!-- Annotation -->
<g id="node1" class="node"><title>Annotation</title>
<path fill="none" stroke="black" d="M11.5,-1020.5C11.5,-1020.5 172.5,-1020.5 172.5,-1020.5 178.5,-1020.5 184.5,-1026.5 184.5,-1032.5 184.5,-1032.5 184.5,-1189.5 184.5,-1189.5 184.5,-1195.5 178.5,-1201.5 172.5,-1201.5 172.5,-1201.5 11.5,-1201.5 11.5,-1201.5 5.5,-1201.5 -0.5,-1195.5 -0.5,-1189.5 -0.5,-1189.5 -0.5,-1032.5 -0.5,-1032.5 -0.5,-1026.5 5.5,-1020.5 11.5,-1020.5"/>
<text text-anchor="middle" x="92" y="-1186.3" font-family="Times,serif" font-size="14.00">Annotation</text>
<polyline fill="none" stroke="black" points="-0.5,-1178.5 184.5,-1178.5 "/>
<text text-anchor="start" x="7.5" y="-1163.3" font-family="Times,serif" font-size="14.00">created_at :Time</text>
<text text-anchor="start" x="7.5" y="-1148.3" font-family="Times,serif" font-size="14.00">updated_at :Time</text>
<text text-anchor="start" x="7.5" y="-1133.3" font-family="Times,serif" font-size="14.00">annotation_type :String</text>
<text text-anchor="start" x="7.5" y="-1118.3" font-family="Times,serif" font-size="14.00">version_index :Integer</text>
<text text-anchor="start" x="7.5" y="-1103.3" font-family="Times,serif" font-size="14.00">annotated_type :String</text>
<text text-anchor="start" x="7.5" y="-1088.3" font-family="Times,serif" font-size="14.00">annotated_id :String</text>
<text text-anchor="start" x="7.5" y="-1073.3" font-family="Times,serif" font-size="14.00">context_type :String</text>
<text text-anchor="start" x="7.5" y="-1058.3" font-family="Times,serif" font-size="14.00">context_id :String</text>
<text text-anchor="start" x="7.5" y="-1043.3" font-family="Times,serif" font-size="14.00">annotator_type :String</text>
<text text-anchor="start" x="7.5" y="-1028.3" font-family="Times,serif" font-size="14.00">annotator_id :String</text>
</g>
<!-- Comment -->
<g id="node2" class="node"><title>Comment</title>
<path fill="none" stroke="black" d="M214.5,-1013C214.5,-1013 375.5,-1013 375.5,-1013 381.5,-1013 387.5,-1019 387.5,-1025 387.5,-1025 387.5,-1197 387.5,-1197 387.5,-1203 381.5,-1209 375.5,-1209 375.5,-1209 214.5,-1209 214.5,-1209 208.5,-1209 202.5,-1203 202.5,-1197 202.5,-1197 202.5,-1025 202.5,-1025 202.5,-1019 208.5,-1013 214.5,-1013"/>
<text text-anchor="middle" x="295" y="-1193.8" font-family="Times,serif" font-size="14.00">Comment</text>
<polyline fill="none" stroke="black" points="202.5,-1186 387.5,-1186 "/>
<text text-anchor="start" x="210.5" y="-1170.8" font-family="Times,serif" font-size="14.00">created_at :Time</text>
<text text-anchor="start" x="210.5" y="-1155.8" font-family="Times,serif" font-size="14.00">updated_at :Time</text>
<text text-anchor="start" x="210.5" y="-1140.8" font-family="Times,serif" font-size="14.00">annotation_type :String</text>
<text text-anchor="start" x="210.5" y="-1125.8" font-family="Times,serif" font-size="14.00">version_index :Integer</text>
<text text-anchor="start" x="210.5" y="-1110.8" font-family="Times,serif" font-size="14.00">annotated_type :String</text>
<text text-anchor="start" x="210.5" y="-1095.8" font-family="Times,serif" font-size="14.00">annotated_id :String</text>
<text text-anchor="start" x="210.5" y="-1080.8" font-family="Times,serif" font-size="14.00">context_type :String</text>
<text text-anchor="start" x="210.5" y="-1065.8" font-family="Times,serif" font-size="14.00">context_id :String</text>
<text text-anchor="start" x="210.5" y="-1050.8" font-family="Times,serif" font-size="14.00">annotator_type :String</text>
<text text-anchor="start" x="210.5" y="-1035.8" font-family="Times,serif" font-size="14.00">annotator_id :String</text>
<text text-anchor="start" x="210.5" y="-1020.8" font-family="Times,serif" font-size="14.00">text :String</text>
</g>
<!-- Tag -->
<g id="node3" class="node"><title>Tag</title>
<path fill="none" stroke="black" d="M417.5,-1013C417.5,-1013 578.5,-1013 578.5,-1013 584.5,-1013 590.5,-1019 590.5,-1025 590.5,-1025 590.5,-1197 590.5,-1197 590.5,-1203 584.5,-1209 578.5,-1209 578.5,-1209 417.5,-1209 417.5,-1209 411.5,-1209 405.5,-1203 405.5,-1197 405.5,-1197 405.5,-1025 405.5,-1025 405.5,-1019 411.5,-1013 417.5,-1013"/>
<text text-anchor="middle" x="498" y="-1193.8" font-family="Times,serif" font-size="14.00">Tag</text>
<polyline fill="none" stroke="black" points="405.5,-1186 590.5,-1186 "/>
<text text-anchor="start" x="413.5" y="-1170.8" font-family="Times,serif" font-size="14.00">created_at :Time</text>
<text text-anchor="start" x="413.5" y="-1155.8" font-family="Times,serif" font-size="14.00">updated_at :Time</text>
<text text-anchor="start" x="413.5" y="-1140.8" font-family="Times,serif" font-size="14.00">annotation_type :String</text>
<text text-anchor="start" x="413.5" y="-1125.8" font-family="Times,serif" font-size="14.00">version_index :Integer</text>
<text text-anchor="start" x="413.5" y="-1110.8" font-family="Times,serif" font-size="14.00">annotated_type :String</text>
<text text-anchor="start" x="413.5" y="-1095.8" font-family="Times,serif" font-size="14.00">annotated_id :String</text>
<text text-anchor="start" x="413.5" y="-1080.8" font-family="Times,serif" font-size="14.00">context_type :String</text>
<text text-anchor="start" x="413.5" y="-1065.8" font-family="Times,serif" font-size="14.00">context_id :String</text>
<text text-anchor="start" x="413.5" y="-1050.8" font-family="Times,serif" font-size="14.00">annotator_type :String</text>
<text text-anchor="start" x="413.5" y="-1035.8" font-family="Times,serif" font-size="14.00">annotator_id :String</text>
<text text-anchor="start" x="413.5" y="-1020.8" font-family="Times,serif" font-size="14.00">tag :String</text>
</g>
<!-- Flag -->
<g id="node4" class="node"><title>Flag</title>
<path fill="none" stroke="black" d="M620.5,-1013C620.5,-1013 781.5,-1013 781.5,-1013 787.5,-1013 793.5,-1019 793.5,-1025 793.5,-1025 793.5,-1197 793.5,-1197 793.5,-1203 787.5,-1209 781.5,-1209 781.5,-1209 620.5,-1209 620.5,-1209 614.5,-1209 608.5,-1203 608.5,-1197 608.5,-1197 608.5,-1025 608.5,-1025 608.5,-1019 614.5,-1013 620.5,-1013"/>
<text text-anchor="middle" x="701" y="-1193.8" font-family="Times,serif" font-size="14.00">Flag</text>
<polyline fill="none" stroke="black" points="608.5,-1186 793.5,-1186 "/>
<text text-anchor="start" x="616.5" y="-1170.8" font-family="Times,serif" font-size="14.00">created_at :Time</text>
<text text-anchor="start" x="616.5" y="-1155.8" font-family="Times,serif" font-size="14.00">updated_at :Time</text>
<text text-anchor="start" x="616.5" y="-1140.8" font-family="Times,serif" font-size="14.00">annotation_type :String</text>
<text text-anchor="start" x="616.5" y="-1125.8" font-family="Times,serif" font-size="14.00">version_index :Integer</text>
<text text-anchor="start" x="616.5" y="-1110.8" font-family="Times,serif" font-size="14.00">annotated_type :String</text>
<text text-anchor="start" x="616.5" y="-1095.8" font-family="Times,serif" font-size="14.00">annotated_id :String</text>
<text text-anchor="start" x="616.5" y="-1080.8" font-family="Times,serif" font-size="14.00">context_type :String</text>
<text text-anchor="start" x="616.5" y="-1065.8" font-family="Times,serif" font-size="14.00">context_id :String</text>
<text text-anchor="start" x="616.5" y="-1050.8" font-family="Times,serif" font-size="14.00">annotator_type :String</text>
<text text-anchor="start" x="616.5" y="-1035.8" font-family="Times,serif" font-size="14.00">annotator_id :String</text>
<text text-anchor="start" x="616.5" y="-1020.8" font-family="Times,serif" font-size="14.00">flag :String</text>
</g>
<!-- Status -->
<g id="node5" class="node"><title>Status</title>
<path fill="none" stroke="black" d="M823.5,-1013C823.5,-1013 984.5,-1013 984.5,-1013 990.5,-1013 996.5,-1019 996.5,-1025 996.5,-1025 996.5,-1197 996.5,-1197 996.5,-1203 990.5,-1209 984.5,-1209 984.5,-1209 823.5,-1209 823.5,-1209 817.5,-1209 811.5,-1203 811.5,-1197 811.5,-1197 811.5,-1025 811.5,-1025 811.5,-1019 817.5,-1013 823.5,-1013"/>
<text text-anchor="middle" x="904" y="-1193.8" font-family="Times,serif" font-size="14.00">Status</text>
<polyline fill="none" stroke="black" points="811.5,-1186 996.5,-1186 "/>
<text text-anchor="start" x="819.5" y="-1170.8" font-family="Times,serif" font-size="14.00">created_at :Time</text>
<text text-anchor="start" x="819.5" y="-1155.8" font-family="Times,serif" font-size="14.00">updated_at :Time</text>
<text text-anchor="start" x="819.5" y="-1140.8" font-family="Times,serif" font-size="14.00">annotation_type :String</text>
<text text-anchor="start" x="819.5" y="-1125.8" font-family="Times,serif" font-size="14.00">version_index :Integer</text>
<text text-anchor="start" x="819.5" y="-1110.8" font-family="Times,serif" font-size="14.00">annotated_type :String</text>
<text text-anchor="start" x="819.5" y="-1095.8" font-family="Times,serif" font-size="14.00">annotated_id :String</text>
<text text-anchor="start" x="819.5" y="-1080.8" font-family="Times,serif" font-size="14.00">context_type :String</text>
<text text-anchor="start" x="819.5" y="-1065.8" font-family="Times,serif" font-size="14.00">context_id :String</text>
<text text-anchor="start" x="819.5" y="-1050.8" font-family="Times,serif" font-size="14.00">annotator_type :String</text>
<text text-anchor="start" x="819.5" y="-1035.8" font-family="Times,serif" font-size="14.00">annotator_id :String</text>
<text text-anchor="start" x="819.5" y="-1020.8" font-family="Times,serif" font-size="14.00">status :String</text>
</g>
<!-- ProjectMedia -->
<g id="node6" class="node"><title>ProjectMedia</title>
<path fill="none" stroke="black" d="M1046,-1C1046,-1 1338,-1 1338,-1 1344,-1 1350,-7 1350,-13 1350,-13 1350,-95 1350,-95 1350,-101 1344,-107 1338,-107 1338,-107 1046,-107 1046,-107 1040,-107 1034,-101 1034,-95 1034,-95 1034,-13 1034,-13 1034,-7 1040,-1 1046,-1"/>
<text text-anchor="middle" x="1192" y="-91.8" font-family="Times,serif" font-size="14.00">ProjectMedia</text>
<polyline fill="none" stroke="black" points="1034,-84 1350,-84 "/>
<text text-anchor="start" x="1042" y="-68.8" font-family="Times,serif" font-size="14.00">id :integer</text>
<text text-anchor="start" x="1042" y="-53.8" font-family="Times,serif" font-size="14.00">project_id :integer</text>
<text text-anchor="start" x="1042" y="-38.8" font-family="Times,serif" font-size="14.00">media_id :integer</text>
<text text-anchor="start" x="1042" y="-23.8" font-family="Times,serif" font-size="14.00">created_at :timestamp without time zone</text>
<text text-anchor="start" x="1042" y="-8.8" font-family="Times,serif" font-size="14.00">updated_at :timestamp without time zone</text>
</g>
<!-- ProjectSource -->
<g id="node7" class="node"><title>ProjectSource</title>
<path fill="none" stroke="black" d="M712,-1C712,-1 1004,-1 1004,-1 1010,-1 1016,-7 1016,-13 1016,-13 1016,-95 1016,-95 1016,-101 1010,-107 1004,-107 1004,-107 712,-107 712,-107 706,-107 700,-101 700,-95 700,-95 700,-13 700,-13 700,-7 706,-1 712,-1"/>
<text text-anchor="middle" x="858" y="-91.8" font-family="Times,serif" font-size="14.00">ProjectSource</text>
<polyline fill="none" stroke="black" points="700,-84 1016,-84 "/>
<text text-anchor="start" x="708" y="-68.8" font-family="Times,serif" font-size="14.00">id :integer</text>
<text text-anchor="start" x="708" y="-53.8" font-family="Times,serif" font-size="14.00">project_id :integer</text>
<text text-anchor="start" x="708" y="-38.8" font-family="Times,serif" font-size="14.00">source_id :integer</text>
<text text-anchor="start" x="708" y="-23.8" font-family="Times,serif" font-size="14.00">created_at :timestamp without time zone</text>
<text text-anchor="start" x="708" y="-8.8" font-family="Times,serif" font-size="14.00">updated_at :timestamp without time zone</text>
</g>
<!-- Contact -->
<g id="node8" class="node"><title>Contact</title>
<path fill="none" stroke="black" d="M1571,-564C1571,-564 1863,-564 1863,-564 1869,-564 1875,-570 1875,-576 1875,-576 1875,-688 1875,-688 1875,-694 1869,-700 1863,-700 1863,-700 1571,-700 1571,-700 1565,-700 1559,-694 1559,-688 1559,-688 1559,-576 1559,-576 1559,-570 1565,-564 1571,-564"/>
<text text-anchor="middle" x="1717" y="-684.8" font-family="Times,serif" font-size="14.00">Contact</text>
<polyline fill="none" stroke="black" points="1559,-677 1875,-677 "/>
<text text-anchor="start" x="1567" y="-661.8" font-family="Times,serif" font-size="14.00">id :integer</text>
<text text-anchor="start" x="1567" y="-646.8" font-family="Times,serif" font-size="14.00">team_id :integer</text>
<text text-anchor="start" x="1567" y="-631.8" font-family="Times,serif" font-size="14.00">location :character varying</text>
<text text-anchor="start" x="1567" y="-616.8" font-family="Times,serif" font-size="14.00">phone :character varying</text>
<text text-anchor="start" x="1567" y="-601.8" font-family="Times,serif" font-size="14.00">web :character varying</text>
<text text-anchor="start" x="1567" y="-586.8" font-family="Times,serif" font-size="14.00">created_at :timestamp without time zone</text>
<text text-anchor="start" x="1567" y="-571.8" font-family="Times,serif" font-size="14.00">updated_at :timestamp without time zone</text>
</g>
<!-- Media -->
<g id="node9" class="node"><title>Media</title>
<path fill="none" stroke="black" d="M1181,-381C1181,-381 1473,-381 1473,-381 1479,-381 1485,-387 1485,-393 1485,-393 1485,-505 1485,-505 1485,-511 1479,-517 1473,-517 1473,-517 1181,-517 1181,-517 1175,-517 1169,-511 1169,-505 1169,-505 1169,-393 1169,-393 1169,-387 1175,-381 1181,-381"/>
<text text-anchor="middle" x="1327" y="-501.8" font-family="Times,serif" font-size="14.00">Media</text>
<polyline fill="none" stroke="black" points="1169,-494 1485,-494 "/>
<text text-anchor="start" x="1177" y="-478.8" font-family="Times,serif" font-size="14.00">id :integer</text>
<text text-anchor="start" x="1177" y="-463.8" font-family="Times,serif" font-size="14.00">user_id :integer</text>
<text text-anchor="start" x="1177" y="-448.8" font-family="Times,serif" font-size="14.00">account_id :integer</text>
<text text-anchor="start" x="1177" y="-433.8" font-family="Times,serif" font-size="14.00">url :character varying</text>
<text text-anchor="start" x="1177" y="-418.8" font-family="Times,serif" font-size="14.00">data :json</text>
<text text-anchor="start" x="1177" y="-403.8" font-family="Times,serif" font-size="14.00">created_at :timestamp without time zone</text>
<text text-anchor="start" x="1177" y="-388.8" font-family="Times,serif" font-size="14.00">updated_at :timestamp without time zone</text>
</g>
<!-- Media&#45;&gt;ProjectMedia -->
<g id="edge2" class="edge"><title>Media&#45;&gt;ProjectMedia</title>
<path fill="none" stroke="#4d5957" d="M1305.05,-372.873C1285.29,-307.145 1254.59,-209.412 1223,-126 1221.83,-122.918 1220.61,-119.776 1219.34,-116.613"/>
<ellipse fill="none" stroke="#4d5957" cx="1306.25" cy="-376.895" rx="4.00001" ry="4.00001"/>
<polygon fill="#4d5957" stroke="#4d5957" points="1219.24,-116.359 1219.61,-105.399 1217.34,-111.731 1215.45,-107.103 1215.45,-107.103 1215.45,-107.103 1217.34,-111.731 1211.28,-108.807 1219.24,-116.359 1219.24,-116.359"/>
</g>
<!-- Project -->
<g id="node14" class="node"><title>Project</title>
<path fill="none" stroke="black" d="M898,-161C898,-161 1190,-161 1190,-161 1196,-161 1202,-167 1202,-173 1202,-173 1202,-315 1202,-315 1202,-321 1196,-327 1190,-327 1190,-327 898,-327 898,-327 892,-327 886,-321 886,-315 886,-315 886,-173 886,-173 886,-167 892,-161 898,-161"/>
<text text-anchor="middle" x="1044" y="-311.8" font-family="Times,serif" font-size="14.00">Project</text>
<polyline fill="none" stroke="black" points="886,-304 1202,-304 "/>
<text text-anchor="start" x="894" y="-288.8" font-family="Times,serif" font-size="14.00">id :integer</text>
<text text-anchor="start" x="894" y="-273.8" font-family="Times,serif" font-size="14.00">user_id :integer</text>
<text text-anchor="start" x="894" y="-258.8" font-family="Times,serif" font-size="14.00">team_id :integer</text>
<text text-anchor="start" x="894" y="-243.8" font-family="Times,serif" font-size="14.00">title :character varying</text>
<text text-anchor="start" x="894" y="-228.8" font-family="Times,serif" font-size="14.00">description :text</text>
<text text-anchor="start" x="894" y="-213.8" font-family="Times,serif" font-size="14.00">lead_image :character varying</text>
<text text-anchor="start" x="894" y="-198.8" font-family="Times,serif" font-size="14.00">created_at :timestamp without time zone</text>
<text text-anchor="start" x="894" y="-183.8" font-family="Times,serif" font-size="14.00">updated_at :timestamp without time zone</text>
<text text-anchor="start" x="894" y="-168.8" font-family="Times,serif" font-size="14.00">archived :boolean</text>
</g>
<!-- Media&#45;&gt;Project -->
<g id="edge3" class="edge"><title>Media&#45;&gt;Project</title>
<path fill="none" stroke="#43cd12" d="M1225.32,-375.065C1206.37,-361.474 1186.39,-347.139 1166.89,-333.148"/>
<polygon fill="#43cd12" stroke="#43cd12" points="1225.43,-375.139 1230.93,-384.624 1229.49,-378.053 1233.55,-380.968 1233.55,-380.968 1233.55,-380.968 1229.49,-378.053 1236.17,-377.311 1225.43,-375.139 1225.43,-375.139"/>
<polygon fill="#43cd12" stroke="#43cd12" points="1166.69,-333.005 1161.18,-323.519 1162.62,-330.09 1158.56,-327.176 1158.56,-327.176 1158.56,-327.176 1162.62,-330.09 1155.94,-330.832 1166.69,-333.005 1166.69,-333.005"/>
</g>
<!-- PaperTrail::Version -->
<g id="node17" class="node"><title>PaperTrail::Version</title>
<ellipse fill="none" stroke="black" cx="1467" cy="-54" rx="99.1619" ry="18"/>
<text text-anchor="middle" x="1467" y="-50.3" font-family="Times,serif" font-size="14.00">PaperTrail::Version</text>
</g>
<!-- Media&#45;&gt;PaperTrail::Version -->
<g id="edge1" class="edge"><title>Media&#45;&gt;PaperTrail::Version</title>
<path fill="none" stroke="#896517" d="M1342.94,-372.911C1356.71,-313.812 1378.97,-230.024 1408,-160 1419.72,-131.733 1437.32,-101.471 1450.25,-80.7324"/>
<ellipse fill="none" stroke="#896517" cx="1342.04" cy="-376.821" rx="4.00001" ry="4.00001"/>
<polygon fill="#896517" stroke="#896517" points="1450.31,-80.6425 1459.45,-74.5921 1452.98,-76.4155 1455.65,-72.1885 1455.65,-72.1885 1455.65,-72.1885 1452.98,-76.4155 1451.84,-69.7849 1450.31,-80.6425 1450.31,-80.6425"/>
<text text-anchor="middle" x="1438.5" y="-240.3" font-family="Times,serif" font-size="14.00">versions</text>
</g>
<!-- TeamUser -->
<g id="node10" class="node"><title>TeamUser</title>
<path fill="none" stroke="black" d="M1905,-571.5C1905,-571.5 2197,-571.5 2197,-571.5 2203,-571.5 2209,-577.5 2209,-583.5 2209,-583.5 2209,-680.5 2209,-680.5 2209,-686.5 2203,-692.5 2197,-692.5 2197,-692.5 1905,-692.5 1905,-692.5 1899,-692.5 1893,-686.5 1893,-680.5 1893,-680.5 1893,-583.5 1893,-583.5 1893,-577.5 1899,-571.5 1905,-571.5"/>
<text text-anchor="middle" x="2051" y="-677.3" font-family="Times,serif" font-size="14.00">TeamUser</text>
<polyline fill="none" stroke="black" points="1893,-669.5 2209,-669.5 "/>
<text text-anchor="start" x="1901" y="-654.3" font-family="Times,serif" font-size="14.00">id :integer</text>
<text text-anchor="start" x="1901" y="-639.3" font-family="Times,serif" font-size="14.00">team_id :integer</text>
<text text-anchor="start" x="1901" y="-624.3" font-family="Times,serif" font-size="14.00">user_id :integer</text>
<text text-anchor="start" x="1901" y="-609.3" font-family="Times,serif" font-size="14.00">created_at :timestamp without time zone</text>
<text text-anchor="start" x="1901" y="-594.3" font-family="Times,serif" font-size="14.00">updated_at :timestamp without time zone</text>
<text text-anchor="start" x="1901" y="-579.3" font-family="Times,serif" font-size="14.00">status :character varying</text>
</g>
<!-- Source -->
<g id="node11" class="node"><title>Source</title>
<path fill="none" stroke="black" d="M944,-762C944,-762 1236,-762 1236,-762 1242,-762 1248,-768 1248,-774 1248,-774 1248,-886 1248,-886 1248,-892 1242,-898 1236,-898 1236,-898 944,-898 944,-898 938,-898 932,-892 932,-886 932,-886 932,-774 932,-774 932,-768 938,-762 944,-762"/>
<text text-anchor="middle" x="1090" y="-882.8" font-family="Times,serif" font-size="14.00">Source</text>
<polyline fill="none" stroke="black" points="932,-875 1248,-875 "/>
<text text-anchor="start" x="940" y="-859.8" font-family="Times,serif" font-size="14.00">id :integer</text>
<text text-anchor="start" x="940" y="-844.8" font-family="Times,serif" font-size="14.00">user_id :integer</text>
<text text-anchor="start" x="940" y="-829.8" font-family="Times,serif" font-size="14.00">name :character varying</text>
<text text-anchor="start" x="940" y="-814.8" font-family="Times,serif" font-size="14.00">slogan :character varying</text>
<text text-anchor="start" x="940" y="-799.8" font-family="Times,serif" font-size="14.00">avatar :character varying</text>
<text text-anchor="start" x="940" y="-784.8" font-family="Times,serif" font-size="14.00">created_at :timestamp without time zone</text>
<text text-anchor="start" x="940" y="-769.8" font-family="Times,serif" font-size="14.00">updated_at :timestamp without time zone</text>
</g>
<!-- Source&#45;&gt;ProjectSource -->
<g id="edge6" class="edge"><title>Source&#45;&gt;ProjectSource</title>
<path fill="none" stroke="#93e687" d="M1040.08,-755.072C1030.8,-739.842 1021.63,-723.664 1014,-708 935.358,-546.611 914.03,-503.669 877,-328 861.986,-256.773 858.138,-173.017 857.468,-117.242"/>
<ellipse fill="none" stroke="#93e687" cx="1042.25" cy="-758.593" rx="4.00002" ry="4.00002"/>
<polygon fill="#93e687" stroke="#93e687" points="857.467,-117.162 861.878,-107.122 857.423,-112.162 857.378,-107.162 857.378,-107.162 857.378,-107.162 857.423,-112.162 852.878,-107.203 857.467,-117.162 857.467,-117.162"/>
</g>
<!-- Source&#45;&gt;Project -->
<g id="edge7" class="edge"><title>Source&#45;&gt;Project</title>
<path fill="none" stroke="#1f36b4" d="M1050.54,-752.457C1044.64,-738.024 1039.4,-722.806 1036,-708 1007.1,-582.124 1017.62,-431.905 1029.47,-337.463"/>
<polygon fill="#1f36b4" stroke="#1f36b4" points="1050.6,-752.608 1050.36,-763.571 1052.55,-757.212 1054.5,-761.816 1054.5,-761.816 1054.5,-761.816 1052.55,-757.212 1058.65,-760.062 1050.6,-752.608 1050.6,-752.608"/>
<polygon fill="#1f36b4" stroke="#1f36b4" points="1029.49,-337.284 1035.23,-327.94 1030.13,-332.325 1030.77,-327.366 1030.77,-327.366 1030.77,-327.366 1030.13,-332.325 1026.3,-326.792 1029.49,-337.284 1029.49,-337.284"/>
</g>
<!-- Account -->
<g id="node16" class="node"><title>Account</title>
<path fill="none" stroke="black" d="M1194,-556.5C1194,-556.5 1486,-556.5 1486,-556.5 1492,-556.5 1498,-562.5 1498,-568.5 1498,-568.5 1498,-695.5 1498,-695.5 1498,-701.5 1492,-707.5 1486,-707.5 1486,-707.5 1194,-707.5 1194,-707.5 1188,-707.5 1182,-701.5 1182,-695.5 1182,-695.5 1182,-568.5 1182,-568.5 1182,-562.5 1188,-556.5 1194,-556.5"/>
<text text-anchor="middle" x="1340" y="-692.3" font-family="Times,serif" font-size="14.00">Account</text>
<polyline fill="none" stroke="black" points="1182,-684.5 1498,-684.5 "/>
<text text-anchor="start" x="1190" y="-669.3" font-family="Times,serif" font-size="14.00">id :integer</text>
<text text-anchor="start" x="1190" y="-654.3" font-family="Times,serif" font-size="14.00">user_id :integer</text>
<text text-anchor="start" x="1190" y="-639.3" font-family="Times,serif" font-size="14.00">source_id :integer</text>
<text text-anchor="start" x="1190" y="-624.3" font-family="Times,serif" font-size="14.00">url :character varying</text>
<text text-anchor="start" x="1190" y="-609.3" font-family="Times,serif" font-size="14.00">data :json</text>
<text text-anchor="start" x="1190" y="-594.3" font-family="Times,serif" font-size="14.00">created_at :timestamp without time zone</text>
<text text-anchor="start" x="1190" y="-579.3" font-family="Times,serif" font-size="14.00">updated_at :timestamp without time zone</text>
<text text-anchor="start" x="1190" y="-564.3" font-family="Times,serif" font-size="14.00">team_id :integer</text>
</g>
<!-- Source&#45;&gt;Account -->
<g id="edge5" class="edge"><title>Source&#45;&gt;Account</title>
<path fill="none" stroke="#82b1d3" d="M1182.24,-756.686C1199.86,-742.87 1218.42,-728.322 1236.37,-714.248"/>
<ellipse fill="none" stroke="#82b1d3" cx="1178.83" cy="-759.354" rx="4.00002" ry="4.00002"/>
<polygon fill="#82b1d3" stroke="#82b1d3" points="1236.7,-713.989 1247.34,-711.361 1240.63,-710.904 1244.57,-707.82 1244.57,-707.82 1244.57,-707.82 1240.63,-710.904 1241.79,-704.278 1236.7,-713.989 1236.7,-713.989"/>
</g>
<!-- Source&#45;&gt;PaperTrail::Version -->
<g id="edge4" class="edge"><title>Source&#45;&gt;PaperTrail::Version</title>
<path fill="none" stroke="#bc1f4e" d="M1082.16,-753.401C1072.12,-641.754 1060.29,-439.55 1099,-380 1128.69,-334.323 1166.87,-361.276 1210,-328 1286.96,-268.633 1282.54,-229.975 1350,-160 1378.76,-130.165 1414.56,-98.7842 1438.94,-78.1864"/>
<ellipse fill="none" stroke="#bc1f4e" cx="1082.55" cy="-757.626" rx="4" ry="4"/>
<polygon fill="#bc1f4e" stroke="#bc1f4e" points="1439.08,-78.065 1449.63,-75.0777 1442.91,-74.8486 1446.74,-71.6323 1446.74,-71.6323 1446.74,-71.6323 1442.91,-74.8486 1443.84,-68.1869 1439.08,-78.065 1439.08,-78.065"/>
<text text-anchor="middle" x="1129.5" y="-445.3" font-family="Times,serif" font-size="14.00">versions</text>
</g>
<!-- User -->
<g id="node12" class="node"><title>User</title>
<path fill="none" stroke="black" d="M1026,-953C1026,-953 1410,-953 1410,-953 1416,-953 1422,-959 1422,-965 1422,-965 1422,-1257 1422,-1257 1422,-1263 1416,-1269 1410,-1269 1410,-1269 1026,-1269 1026,-1269 1020,-1269 1014,-1263 1014,-1257 1014,-1257 1014,-965 1014,-965 1014,-959 1020,-953 1026,-953"/>
<text text-anchor="middle" x="1218" y="-1253.8" font-family="Times,serif" font-size="14.00">User</text>
<polyline fill="none" stroke="black" points="1014,-1246 1422,-1246 "/>
<text text-anchor="start" x="1022" y="-1230.8" font-family="Times,serif" font-size="14.00">id :integer</text>
<text text-anchor="start" x="1022" y="-1215.8" font-family="Times,serif" font-size="14.00">name :character varying</text>
<text text-anchor="start" x="1022" y="-1200.8" font-family="Times,serif" font-size="14.00">login :character varying</text>
<text text-anchor="start" x="1022" y="-1185.8" font-family="Times,serif" font-size="14.00">uuid :character varying</text>
<text text-anchor="start" x="1022" y="-1170.8" font-family="Times,serif" font-size="14.00">provider :character varying</text>
<text text-anchor="start" x="1022" y="-1155.8" font-family="Times,serif" font-size="14.00">token :character varying</text>
<text text-anchor="start" x="1022" y="-1140.8" font-family="Times,serif" font-size="14.00">email :character varying</text>
<text text-anchor="start" x="1022" y="-1125.8" font-family="Times,serif" font-size="14.00">encrypted_password :character varying</text>
<text text-anchor="start" x="1022" y="-1110.8" font-family="Times,serif" font-size="14.00">reset_password_token :character varying</text>
<text text-anchor="start" x="1022" y="-1095.8" font-family="Times,serif" font-size="14.00">reset_password_sent_at :timestamp without time zone</text>
<text text-anchor="start" x="1022" y="-1080.8" font-family="Times,serif" font-size="14.00">remember_created_at :timestamp without time zone</text>
<text text-anchor="start" x="1022" y="-1065.8" font-family="Times,serif" font-size="14.00">sign_in_count :integer</text>
<text text-anchor="start" x="1022" y="-1050.8" font-family="Times,serif" font-size="14.00">current_sign_in_at :timestamp without time zone</text>
<text text-anchor="start" x="1022" y="-1035.8" font-family="Times,serif" font-size="14.00">last_sign_in_at :timestamp without time zone</text>
<text text-anchor="start" x="1022" y="-1020.8" font-family="Times,serif" font-size="14.00">current_sign_in_ip :character varying</text>
<text text-anchor="start" x="1022" y="-1005.8" font-family="Times,serif" font-size="14.00">last_sign_in_ip :character varying</text>
<text text-anchor="start" x="1022" y="-990.8" font-family="Times,serif" font-size="14.00">created_at :timestamp without time zone</text>
<text text-anchor="start" x="1022" y="-975.8" font-family="Times,serif" font-size="14.00">updated_at :timestamp without time zone</text>
<text text-anchor="start" x="1022" y="-960.8" font-family="Times,serif" font-size="14.00">profile_image :character varying</text>
</g>
<!-- User&#45;&gt;TeamUser -->
<g id="edge9" class="edge"><title>User&#45;&gt;TeamUser</title>
<path fill="none" stroke="#2982e3" d="M1429.61,-952.593C1430.07,-952.394 1430.54,-952.196 1431,-952 1526.81,-911.422 1565.94,-953.972 1662,-914 1785.38,-862.661 1906.87,-765.336 1980.4,-699.809"/>
<ellipse fill="none" stroke="#2982e3" cx="1425.77" cy="-954.295" rx="4.00002" ry="4.00002"/>
<polygon fill="#2982e3" stroke="#2982e3" points="1980.79,-699.452 1991.24,-696.127 1984.52,-696.114 1988.24,-692.776 1988.24,-692.776 1988.24,-692.776 1984.52,-696.114 1985.24,-689.426 1980.79,-699.452 1980.79,-699.452"/>
</g>
<!-- User&#45;&gt;Source -->
<g id="edge8" class="edge"><title>User&#45;&gt;Source</title>
<path fill="none" stroke="#00c403" d="M1142.46,-945.343C1136.12,-931.526 1129.94,-918.049 1124.17,-905.48"/>
<ellipse fill="none" stroke="#00c403" cx="1144.29" cy="-949.332" rx="4.00002" ry="4.00002"/>
<ellipse fill="#00c403" stroke="#00c403" cx="1122.49" cy="-901.824" rx="4.00002" ry="4.00002"/>
</g>
<!-- User&#45;&gt;Project -->
<g id="edge11" class="edge"><title>User&#45;&gt;Project</title>
<path fill="none" stroke="#0bf641" d="M1006.95,-953.162C1006.3,-952.773 1005.65,-952.386 1005,-952 970.467,-931.483 951.617,-942.187 923,-914 893.826,-885.264 883,-871.949 883,-831 883,-831 883,-831 883,-448 883,-405.524 904.906,-366.763 932.557,-334.756"/>
<ellipse fill="none" stroke="#0bf641" cx="1010.51" cy="-955.314" rx="4.00002" ry="4.00002"/>
<polygon fill="#0bf641" stroke="#0bf641" points="932.651,-334.651 942.667,-330.187 935.981,-330.921 939.31,-327.19 939.31,-327.19 939.31,-327.19 935.981,-330.921 935.953,-324.194 932.651,-334.651 932.651,-334.651"/>
</g>
<!-- Team -->
<g id="node15" class="node"><title>Team</title>
<path fill="none" stroke="black" d="M1350,-747C1350,-747 1642,-747 1642,-747 1648,-747 1654,-753 1654,-759 1654,-759 1654,-901 1654,-901 1654,-907 1648,-913 1642,-913 1642,-913 1350,-913 1350,-913 1344,-913 1338,-907 1338,-901 1338,-901 1338,-759 1338,-759 1338,-753 1344,-747 1350,-747"/>
<text text-anchor="middle" x="1496" y="-897.8" font-family="Times,serif" font-size="14.00">Team</text>
<polyline fill="none" stroke="black" points="1338,-890 1654,-890 "/>
<text text-anchor="start" x="1346" y="-874.8" font-family="Times,serif" font-size="14.00">id :integer</text>
<text text-anchor="start" x="1346" y="-859.8" font-family="Times,serif" font-size="14.00">name :character varying</text>
<text text-anchor="start" x="1346" y="-844.8" font-family="Times,serif" font-size="14.00">logo :character varying</text>
<text text-anchor="start" x="1346" y="-829.8" font-family="Times,serif" font-size="14.00">private :boolean</text>
<text text-anchor="start" x="1346" y="-814.8" font-family="Times,serif" font-size="14.00">archived :boolean</text>
<text text-anchor="start" x="1346" y="-799.8" font-family="Times,serif" font-size="14.00">created_at :timestamp without time zone</text>
<text text-anchor="start" x="1346" y="-784.8" font-family="Times,serif" font-size="14.00">updated_at :timestamp without time zone</text>
<text text-anchor="start" x="1346" y="-769.8" font-family="Times,serif" font-size="14.00">description :text</text>
<text text-anchor="start" x="1346" y="-754.8" font-family="Times,serif" font-size="14.00">subdomain :character varying</text>
</g>
<!-- User&#45;&gt;Team -->
<g id="edge10" class="edge"><title>User&#45;&gt;Team</title>
<path fill="none" stroke="#c5cb0b" d="M1381.77,-945.645C1390.23,-937.147 1398.57,-928.776 1406.66,-920.663"/>
<polygon fill="#c5cb0b" stroke="#c5cb0b" points="1381.53,-945.884 1371.28,-949.791 1378,-949.426 1374.47,-952.968 1374.47,-952.968 1374.47,-952.968 1378,-949.426 1377.66,-956.144 1381.53,-945.884 1381.53,-945.884"/>
<polygon fill="#c5cb0b" stroke="#c5cb0b" points="1406.95,-920.374 1417.19,-916.466 1410.48,-916.832 1414.01,-913.29 1414.01,-913.29 1414.01,-913.29 1410.48,-916.832 1410.82,-910.114 1406.95,-920.374 1406.95,-920.374"/>
</g>
<!-- ApiKey -->
<g id="node13" class="node"><title>ApiKey</title>
<path fill="none" stroke="black" d="M1452,-1050.5C1452,-1050.5 1744,-1050.5 1744,-1050.5 1750,-1050.5 1756,-1056.5 1756,-1062.5 1756,-1062.5 1756,-1159.5 1756,-1159.5 1756,-1165.5 1750,-1171.5 1744,-1171.5 1744,-1171.5 1452,-1171.5 1452,-1171.5 1446,-1171.5 1440,-1165.5 1440,-1159.5 1440,-1159.5 1440,-1062.5 1440,-1062.5 1440,-1056.5 1446,-1050.5 1452,-1050.5"/>
<text text-anchor="middle" x="1598" y="-1156.3" font-family="Times,serif" font-size="14.00">ApiKey</text>
<polyline fill="none" stroke="black" points="1440,-1148.5 1756,-1148.5 "/>
<text text-anchor="start" x="1448" y="-1133.3" font-family="Times,serif" font-size="14.00">id :integer</text>
<text text-anchor="start" x="1448" y="-1118.3" font-family="Times,serif" font-size="14.00">access_token :character varying</text>
<text text-anchor="start" x="1448" y="-1103.3" font-family="Times,serif" font-size="14.00">expire_at :timestamp without time zone</text>
<text text-anchor="start" x="1448" y="-1088.3" font-family="Times,serif" font-size="14.00">created_at :timestamp without time zone</text>
<text text-anchor="start" x="1448" y="-1073.3" font-family="Times,serif" font-size="14.00">updated_at :timestamp without time zone</text>
<text text-anchor="start" x="1448" y="-1058.3" font-family="Times,serif" font-size="14.00">application :character varying</text>
</g>
<!-- Project&#45;&gt;ProjectMedia -->
<g id="edge14" class="edge"><title>Project&#45;&gt;ProjectMedia</title>
<path fill="none" stroke="#e25610" d="M1078.6,-153.731C1084.07,-143.935 1090.2,-134.461 1097,-126 1100.22,-121.991 1103.72,-118.088 1107.41,-114.309"/>
<ellipse fill="none" stroke="#e25610" cx="1076.63" cy="-157.389" rx="4.00002" ry="4.00002"/>
<polygon fill="#e25610" stroke="#e25610" points="1107.55,-114.171 1117.86,-110.424 1111.14,-110.684 1114.72,-107.198 1114.72,-107.198 1114.72,-107.198 1111.14,-110.684 1111.58,-103.972 1107.55,-114.171 1107.55,-114.171"/>
</g>
<!-- Project&#45;&gt;ProjectSource -->
<g id="edge13" class="edge"><title>Project&#45;&gt;ProjectSource</title>
<path fill="none" stroke="#7425d9" d="M956.769,-154.831C943.306,-141.223 929.68,-127.451 917.028,-114.663"/>
<ellipse fill="none" stroke="#7425d9" cx="959.875" cy="-157.97" rx="4.00002" ry="4.00002"/>
<polygon fill="#7425d9" stroke="#7425d9" points="916.733,-114.364 912.898,-104.09 913.216,-110.81 909.699,-107.255 909.699,-107.255 909.699,-107.255 913.216,-110.81 906.5,-110.42 916.733,-114.364 916.733,-114.364"/>
</g>
<!-- Project&#45;&gt;PaperTrail::Version -->
<g id="edge12" class="edge"><title>Project&#45;&gt;PaperTrail::Version</title>
<path fill="none" stroke="#22d967" d="M1134.79,-156.085C1151.17,-144.246 1168.84,-133.579 1187,-126 1257.53,-96.5716 1284.53,-129.026 1358,-108 1383.55,-100.688 1410.42,-87.6888 1431.09,-76.395"/>
<ellipse fill="none" stroke="#22d967" cx="1131.56" cy="-158.478" rx="4.00002" ry="4.00002"/>
<polygon fill="#22d967" stroke="#22d967" points="1431.1,-76.3888 1442.03,-75.447 1435.47,-73.953 1439.84,-71.5171 1439.84,-71.5171 1439.84,-71.5171 1435.47,-73.953 1437.65,-67.5872 1431.1,-76.3888 1431.1,-76.3888"/>
<text text-anchor="middle" x="1217.5" y="-130.3" font-family="Times,serif" font-size="14.00">versions</text>
</g>
<!-- Team&#45;&gt;Contact -->
<g id="edge19" class="edge"><title>Team&#45;&gt;Contact</title>
<path fill="none" stroke="#3c3209" d="M1594.93,-741.26C1607.8,-729.848 1620.88,-718.249 1633.46,-707.091"/>
<ellipse fill="none" stroke="#3c3209" cx="1591.76" cy="-744.076" rx="4.00002" ry="4.00002"/>
<polygon fill="#3c3209" stroke="#3c3209" points="1633.74,-706.841 1644.21,-703.572 1637.48,-703.523 1641.22,-700.206 1641.22,-700.206 1641.22,-700.206 1637.48,-703.523 1638.24,-696.839 1633.74,-706.841 1633.74,-706.841"/>
</g>
<!-- Team&#45;&gt;TeamUser -->
<g id="edge18" class="edge"><title>Team&#45;&gt;TeamUser</title>
<path fill="none" stroke="#090233" d="M1662.1,-781.72C1731.06,-760.892 1811.51,-735.027 1883,-708 1892.51,-704.405 1902.25,-700.544 1912.02,-696.54"/>
<ellipse fill="none" stroke="#090233" cx="1658.01" cy="-782.952" rx="4.00001" ry="4.00001"/>
<polygon fill="#090233" stroke="#090233" points="1912.15,-696.487 1923.11,-696.818 1916.77,-694.574 1921.39,-692.661 1921.39,-692.661 1921.39,-692.661 1916.77,-694.574 1919.67,-688.503 1912.15,-696.487 1912.15,-696.487"/>
</g>
<!-- Team&#45;&gt;Project -->
<g id="edge16" class="edge"><title>Team&#45;&gt;Project</title>
<path fill="none" stroke="#7b4aae" d="M1329.8,-772.389C1257.7,-746.787 1186.53,-719.681 1173,-708 1066.38,-615.952 1044.28,-443.983 1041.59,-337.515"/>
<ellipse fill="none" stroke="#7b4aae" cx="1333.92" cy="-773.845" rx="4.00001" ry="4.00001"/>
<polygon fill="#7b4aae" stroke="#7b4aae" points="1041.59,-337.419 1045.89,-327.331 1041.49,-332.42 1041.39,-327.421 1041.39,-327.421 1041.39,-327.421 1041.49,-332.42 1036.89,-327.511 1041.59,-337.419 1041.59,-337.419"/>
</g>
<!-- Team&#45;&gt;Account -->
<g id="edge17" class="edge"><title>Team&#45;&gt;Account</title>
<path fill="none" stroke="#094521" d="M1425.41,-740.31C1418.81,-732.018 1412.14,-723.637 1405.59,-715.406"/>
<ellipse fill="none" stroke="#094521" cx="1428.03" cy="-743.601" rx="4.00002" ry="4.00002"/>
<polygon fill="#094521" stroke="#094521" points="1405.58,-715.393 1402.87,-704.766 1402.46,-711.481 1399.35,-707.569 1399.35,-707.569 1399.35,-707.569 1402.46,-711.481 1395.83,-710.371 1405.58,-715.393 1405.58,-715.393"/>
</g>
<!-- Team&#45;&gt;PaperTrail::Version -->
<g id="edge15" class="edge"><title>Team&#45;&gt;PaperTrail::Version</title>
<path fill="none" stroke="#f9e473" d="M1517.65,-738.737C1538.04,-641.567 1562.98,-482.547 1545,-346 1531.87,-246.303 1494.47,-132.228 1476.66,-81.5987"/>
<ellipse fill="none" stroke="#f9e473" cx="1516.77" cy="-742.871" rx="4.00001" ry="4.00001"/>
<polygon fill="#f9e473" stroke="#f9e473" points="1476.62,-81.4864 1477.51,-70.5568 1474.94,-76.7749 1473.27,-72.0635 1473.27,-72.0635 1473.27,-72.0635 1474.94,-76.7749 1469.03,-73.5702 1476.62,-81.4864 1476.62,-81.4864"/>
<text text-anchor="middle" x="1581.5" y="-445.3" font-family="Times,serif" font-size="14.00">versions</text>
</g>
<!-- Account&#45;&gt;Media -->
<g id="edge21" class="edge"><title>Account&#45;&gt;Media</title>
<path fill="none" stroke="#130b96" d="M1334.05,-548.09C1333.55,-541.15 1333.04,-534.15 1332.55,-527.255"/>
<ellipse fill="none" stroke="#130b96" cx="1334.35" cy="-552.346" rx="4" ry="4"/>
<polygon fill="#130b96" stroke="#130b96" points="1332.55,-527.221 1336.32,-516.925 1332.19,-522.234 1331.83,-517.247 1331.83,-517.247 1331.83,-517.247 1332.19,-522.234 1327.34,-517.569 1332.55,-527.221 1332.55,-527.221"/>
</g>
<!-- Account&#45;&gt;PaperTrail::Version -->
<g id="edge20" class="edge"><title>Account&#45;&gt;PaperTrail::Version</title>
<path fill="none" stroke="#0d870f" d="M1470.42,-550.413C1479.32,-540.523 1487.09,-529.719 1493,-518 1520.63,-463.243 1507.09,-439.693 1493,-380 1490.95,-371.295 1486.29,-370.645 1484,-362 1476.95,-335.432 1470.24,-152.866 1467.89,-82.538"/>
<ellipse fill="none" stroke="#0d870f" cx="1467.48" cy="-553.54" rx="4.00002" ry="4.00002"/>
<polygon fill="#0d870f" stroke="#0d870f" points="1467.88,-82.25 1472.04,-72.1069 1467.71,-77.2527 1467.55,-72.2554 1467.55,-72.2554 1467.55,-72.2554 1467.71,-77.2527 1463.05,-72.404 1467.88,-82.25 1467.88,-82.25"/>
<text text-anchor="middle" x="1514.5" y="-350.3" font-family="Times,serif" font-size="14.00">versions</text>
</g>
</g>
</svg>
