<?xml version="1.0" encoding="UTF-8" standalone="no"?>
<!DOCTYPE svg PUBLIC "-//W3C//DTD SVG 1.1//EN"
 "http://www.w3.org/Graphics/SVG/1.1/DTD/svg11.dtd">
<!-- Generated by graphviz version 2.26.3 (20100126.1600)
 -->
<!-- Title: models_diagram Pages: 1 -->
<svg width="1935pt" height="534pt"
 viewBox="0.00 0.00 1935.00 534.00" xmlns="http://www.w3.org/2000/svg" xmlns:xlink="http://www.w3.org/1999/xlink">
<g id="graph1" class="graph" transform="scale(1 1) rotate(0) translate(4 530)">
<title>models_diagram</title>
<polygon fill="none" stroke="none" points="-4,5 -4,-530 1932,-530 1932,5 -4,5"/>
<!-- Task -->
<g id="node1" class="node"><title>Task</title>
<ellipse fill="none" stroke="black" cx="1894" cy="-111" rx="33.234" ry="18.3848"/>
<text text-anchor="middle" x="1894" y="-107.4" font-family="Times Roman,serif" font-size="14.00">Task</text>
</g>
<!-- PaperTrail::Version -->
<g id="node27" class="node"><title>PaperTrail::Version</title>
<ellipse fill="none" stroke="black" cx="963" cy="-19" rx="101.823" ry="18.3848"/>
<text text-anchor="middle" x="963" y="-15.4" font-family="Times Roman,serif" font-size="14.00">PaperTrail::Version</text>
</g>
<!-- Task&#45;&gt;PaperTrail::Version -->
<g id="edge2" class="edge"><title>Task&#45;&gt;PaperTrail::Version</title>
<path fill="none" stroke="#e9a9e7" d="M1879.62,-86.2933C1871.59,-74.9342 1860.47,-62.552 1847,-56 1812.89,-39.4063 1304.94,-26.3883 1074.83,-21.3097"/>
<ellipse fill="none" stroke="#e9a9e7" cx="1882" cy="-89.8471" rx="4.00002" ry="4.00002"/>
<polygon fill="#e9a9e7" stroke="#e9a9e7" points="1074.75,-21.3081 1064.85,-16.5896 1069.75,-21.1983 1064.75,-21.0885 1064.75,-21.0885 1064.75,-21.0885 1069.75,-21.1983 1064.65,-25.5874 1074.75,-21.3081 1074.75,-21.3081"/>
<text text-anchor="middle" x="1897" y="-61.4" font-family="Times Roman,serif" font-size="14.00">versions</text>
</g>
<!-- Tag -->
<g id="node2" class="node"><title>Tag</title>
<ellipse fill="none" stroke="black" cx="272" cy="-111" rx="27.7881" ry="18.3848"/>
<text text-anchor="middle" x="272" y="-107.4" font-family="Times Roman,serif" font-size="14.00">Tag</text>
</g>
<!-- Tag&#45;&gt;PaperTrail::Version -->
<g id="edge4" class="edge"><title>Tag&#45;&gt;PaperTrail::Version</title>
<path fill="none" stroke="#fe464f" d="M294.709,-90.647C310.022,-78.2392 331.32,-63.3905 353,-56 398.8,-40.3868 689.098,-28.2366 852.167,-22.5426"/>
<ellipse fill="none" stroke="#fe464f" cx="291.605" cy="-93.2285" rx="4.00002" ry="4.00002"/>
<polygon fill="#fe464f" stroke="#fe464f" points="852.245,-22.5399 862.395,-26.6907 857.242,-22.3667 862.239,-22.1934 862.239,-22.1934 862.239,-22.1934 857.242,-22.3667 862.083,-17.6961 852.245,-22.5399 852.245,-22.5399"/>
<text text-anchor="middle" x="382" y="-61.4" font-family="Times Roman,serif" font-size="14.00">versions</text>
</g>
<!-- Status -->
<g id="node3" class="node"><title>Status</title>
<ellipse fill="none" stroke="black" cx="362" cy="-111" rx="43.8406" ry="18.3848"/>
<text text-anchor="middle" x="362" y="-107.4" font-family="Times Roman,serif" font-size="14.00">Status</text>
</g>
<!-- Status&#45;&gt;PaperTrail::Version -->
<g id="edge6" class="edge"><title>Status&#45;&gt;PaperTrail::Version</title>
<path fill="none" stroke="#3cbd57" d="M388.87,-89.8574C405.937,-77.6749 429.064,-63.3575 452,-56 523.588,-33.0355 723.452,-24.2659 850.965,-20.958"/>
<ellipse fill="none" stroke="#3cbd57" cx="385.64" cy="-92.2161" rx="4.00002" ry="4.00002"/>
<polygon fill="#3cbd57" stroke="#3cbd57" points="851.164,-20.9531 861.275,-25.1997 856.163,-20.8271 861.161,-20.7011 861.161,-20.7011 861.161,-20.7011 856.163,-20.8271 861.048,-16.2025 851.164,-20.9531 851.164,-20.9531"/>
<text text-anchor="middle" x="481" y="-61.4" font-family="Times Roman,serif" font-size="14.00">versions</text>
</g>
<!-- Dynamic -->
<g id="node4" class="node"><title>Dynamic</title>
<ellipse fill="none" stroke="black" cx="152" cy="-111" rx="53.9477" ry="18.3848"/>
<text text-anchor="middle" x="152" y="-107.4" font-family="Times Roman,serif" font-size="14.00">Dynamic</text>
</g>
<!-- Dynamic&#45;&gt;PaperTrail::Version -->
<g id="edge8" class="edge"><title>Dynamic&#45;&gt;PaperTrail::Version</title>
<path fill="none" stroke="#c574de" d="M183.015,-90.1987C203.177,-77.8578 230.547,-63.2482 257,-56 312.648,-40.7524 667.459,-27.9416 851.919,-22.2145"/>
<ellipse fill="none" stroke="#c574de" cx="179.591" cy="-92.3357" rx="4.00002" ry="4.00002"/>
<polygon fill="#c574de" stroke="#c574de" points="851.93,-22.2142 862.064,-26.4034 856.927,-22.0599 861.925,-21.9056 861.925,-21.9056 861.925,-21.9056 856.927,-22.0599 861.786,-17.4077 851.93,-22.2142 851.93,-22.2142"/>
<text text-anchor="middle" x="286" y="-61.4" font-family="Times Roman,serif" font-size="14.00">versions</text>
</g>
<!-- DynamicAnnotation::Field -->
<g id="node32" class="node"><title>DynamicAnnotation::Field</title>
<ellipse fill="none" stroke="black" cx="137" cy="-19" rx="137.179" ry="18.3848"/>
<text text-anchor="middle" x="137" y="-15.4" font-family="Times Roman,serif" font-size="14.00">DynamicAnnotation::Field</text>
</g>
<!-- Dynamic&#45;&gt;DynamicAnnotation::Field -->
<g id="edge10" class="edge"><title>Dynamic&#45;&gt;DynamicAnnotation::Field</title>
<path fill="none" stroke="#60d8ba" d="M140.861,-84.8822C139.697,-81.281 138.69,-77.5872 138,-74 136.39,-65.6254 135.781,-56.4012 135.671,-47.939"/>
<ellipse fill="none" stroke="#60d8ba" cx="142.249" cy="-88.7734" rx="4.00001" ry="4.00001"/>
<polygon fill="#60d8ba" stroke="#60d8ba" points="135.673,-47.7488 140.261,-37.7889 135.717,-42.749 135.761,-37.7492 135.761,-37.7492 135.761,-37.7492 135.717,-42.749 131.262,-37.7095 135.673,-47.7488 135.673,-47.7488"/>
<text text-anchor="middle" x="156" y="-61.4" font-family="Times Roman,serif" font-size="14.00">fields</text>
</g>
<!-- Flag -->
<g id="node5" class="node"><title>Flag</title>
<ellipse fill="none" stroke="black" cx="456" cy="-111" rx="31.8198" ry="18.3848"/>
<text text-anchor="middle" x="456" y="-107.4" font-family="Times Roman,serif" font-size="14.00">Flag</text>
</g>
<!-- Flag&#45;&gt;PaperTrail::Version -->
<g id="edge12" class="edge"><title>Flag&#45;&gt;PaperTrail::Version</title>
<path fill="none" stroke="#a4b616" d="M483.109,-91.6495C502.031,-79.2126 528.389,-63.9454 554,-56 607.956,-39.2609 751.841,-29.0674 853.641,-23.7301"/>
<ellipse fill="none" stroke="#a4b616" cx="479.561" cy="-94.0287" rx="4.00002" ry="4.00002"/>
<polygon fill="#a4b616" stroke="#a4b616" points="853.679,-23.7283 863.898,-27.7071 858.672,-23.4706 863.666,-23.213 863.666,-23.213 863.666,-23.213 858.672,-23.4706 863.434,-18.719 853.679,-23.7283 853.679,-23.7283"/>
<text text-anchor="middle" x="583" y="-61.4" font-family="Times Roman,serif" font-size="14.00">versions</text>
</g>
<!-- Embed -->
<g id="node6" class="node"><title>Embed</title>
<ellipse fill="none" stroke="black" cx="550" cy="-111" rx="44.0472" ry="18.3848"/>
<text text-anchor="middle" x="550" y="-107.4" font-family="Times Roman,serif" font-size="14.00">Embed</text>
</g>
<!-- Embed&#45;&gt;PaperTrail::Version -->
<g id="edge14" class="edge"><title>Embed&#45;&gt;PaperTrail::Version</title>
<path fill="none" stroke="#f6e293" d="M581.994,-91.5155C603.55,-79.3151 633.049,-64.3704 661,-56 697.307,-45.127 787.803,-34.8177 860.329,-27.8567"/>
<ellipse fill="none" stroke="#f6e293" cx="578.469" cy="-93.5411" rx="4.00002" ry="4.00002"/>
<polygon fill="#f6e293" stroke="#f6e293" points="860.481,-27.8423 870.862,-31.3768 865.458,-27.3696 870.436,-26.8969 870.436,-26.8969 870.436,-26.8969 865.458,-27.3696 870.011,-22.4171 860.481,-27.8423 860.481,-27.8423"/>
<text text-anchor="middle" x="690" y="-61.4" font-family="Times Roman,serif" font-size="14.00">versions</text>
</g>
<!-- Comment -->
<g id="node7" class="node"><title>Comment</title>
<ellipse fill="none" stroke="black" cx="670" cy="-111" rx="58.1882" ry="18.3848"/>
<text text-anchor="middle" x="670" y="-107.4" font-family="Times Roman,serif" font-size="14.00">Comment</text>
</g>
<!-- Comment&#45;&gt;PaperTrail::Version -->
<g id="edge16" class="edge"><title>Comment&#45;&gt;PaperTrail::Version</title>
<path fill="none" stroke="#c61dad" d="M699.362,-88.959C716.044,-77.4661 737.782,-64.1439 759,-56 791.955,-43.3511 829.599,-34.9636 863.503,-29.4287"/>
<ellipse fill="none" stroke="#c61dad" cx="695.812" cy="-91.4528" rx="4.00002" ry="4.00002"/>
<polygon fill="#c61dad" stroke="#c61dad" points="863.546,-29.4219 874.123,-32.3172 868.486,-28.6468 873.425,-27.8716 873.425,-27.8716 873.425,-27.8716 868.486,-28.6468 872.728,-23.426 863.546,-29.4219 863.546,-29.4219"/>
<text text-anchor="middle" x="788" y="-61.4" font-family="Times Roman,serif" font-size="14.00">versions</text>
</g>
<!-- Annotation -->
<g id="node8" class="node"><title>Annotation</title>
<ellipse fill="none" stroke="black" cx="812" cy="-111" rx="65.9683" ry="18.3848"/>
<text text-anchor="middle" x="812" y="-107.4" font-family="Times Roman,serif" font-size="14.00">Annotation</text>
</g>
<!-- Annotation&#45;&gt;PaperTrail::Version -->
<g id="edge18" class="edge"><title>Annotation&#45;&gt;PaperTrail::Version</title>
<path fill="none" stroke="#b6357c" d="M817.285,-84.6024C820.546,-74.4195 825.751,-63.4536 834,-56 842.357,-48.4481 862.805,-41.3226 885.016,-35.3787"/>
<ellipse fill="none" stroke="#b6357c" cx="816.145" cy="-88.6675" rx="4.00001" ry="4.00001"/>
<polygon fill="#b6357c" stroke="#b6357c" points="885.275,-35.3122 896.081,-37.178 890.118,-34.0661 894.96,-32.82 894.96,-32.82 894.96,-32.82 890.118,-34.0661 893.838,-28.462 885.275,-35.3122 885.275,-35.3122"/>
<text text-anchor="middle" x="863" y="-61.4" font-family="Times Roman,serif" font-size="14.00">versions</text>
</g>
<!-- Source -->
<g id="node9" class="node"><title>Source</title>
<ellipse fill="none" stroke="black" cx="1024" cy="-355" rx="44.7575" ry="18.3848"/>
<text text-anchor="middle" x="1024" y="-351.4" font-family="Times Roman,serif" font-size="14.00">Source</text>
</g>
<!-- ProjectSource -->
<g id="node13" class="node"><title>ProjectSource</title>
<ellipse fill="none" stroke="black" cx="1302" cy="-203" rx="79.196" ry="18.3848"/>
<text text-anchor="middle" x="1302" y="-199.4" font-family="Times Roman,serif" font-size="14.00">ProjectSource</text>
</g>
<!-- Source&#45;&gt;ProjectSource -->
<g id="edge24" class="edge"><title>Source&#45;&gt;ProjectSource</title>
<path fill="none" stroke="#183133" d="M1058.5,-336.138C1109.96,-307.999 1206.64,-255.138 1261.43,-225.184"/>
<ellipse fill="none" stroke="#183133" cx="1054.67" cy="-338.23" rx="4.00002" ry="4.00002"/>
<polygon fill="#183133" stroke="#183133" points="1261.72,-225.022 1272.66,-224.173 1266.11,-222.623 1270.5,-220.224 1270.5,-220.224 1270.5,-220.224 1266.11,-222.623 1268.34,-216.276 1261.72,-225.022 1261.72,-225.022"/>
</g>
<!-- Account -->
<g id="node15" class="node"><title>Account</title>
<ellipse fill="none" stroke="black" cx="951" cy="-279" rx="50.9117" ry="18.3848"/>
<text text-anchor="middle" x="951" y="-275.4" font-family="Times Roman,serif" font-size="14.00">Account</text>
</g>
<!-- Source&#45;&gt;Account -->
<g id="edge22" class="edge"><title>Source&#45;&gt;Account</title>
<path fill="none" stroke="#c2d0f1" d="M1001.65,-331.733C993.276,-323.013 983.724,-313.069 975.189,-304.183"/>
<ellipse fill="none" stroke="#c2d0f1" cx="1004.66" cy="-334.87" rx="4.00002" ry="4.00002"/>
<polygon fill="#c2d0f1" stroke="#c2d0f1" points="974.933,-303.917 971.251,-293.587 971.47,-300.311 968.006,-296.705 968.006,-296.705 968.006,-296.705 971.47,-300.311 964.76,-299.822 974.933,-303.917 974.933,-303.917"/>
</g>
<!-- Project -->
<g id="node16" class="node"><title>Project</title>
<ellipse fill="none" stroke="black" cx="1447" cy="-279" rx="45.9619" ry="18.3848"/>
<text text-anchor="middle" x="1447" y="-275.4" font-family="Times Roman,serif" font-size="14.00">Project</text>
</g>
<!-- Source&#45;&gt;Project -->
<g id="edge26" class="edge"><title>Source&#45;&gt;Project</title>
<path fill="none" stroke="#8e1b38" d="M1066.9,-339.105C1070.63,-337.968 1074.36,-336.912 1078,-336 1187.67,-308.489 1319.19,-292.006 1391.88,-284.294"/>
<polygon fill="#8e1b38" stroke="#8e1b38" points="1066.64,-339.19 1055.74,-337.982 1061.88,-340.727 1057.12,-342.264 1057.12,-342.264 1057.12,-342.264 1061.88,-340.727 1058.5,-346.546 1066.64,-339.19 1066.64,-339.19"/>
<polygon fill="#8e1b38" stroke="#8e1b38" points="1392.22,-284.259 1402.63,-287.696 1397.19,-283.74 1402.17,-283.22 1402.17,-283.22 1402.17,-283.22 1397.19,-283.74 1401.7,-278.744 1392.22,-284.259 1392.22,-284.259"/>
</g>
<!-- Source&#45;&gt;PaperTrail::Version -->
<g id="edge20" class="edge"><title>Source&#45;&gt;PaperTrail::Version</title>
<path fill="none" stroke="#f552ea" d="M1025.14,-328.325C1024.89,-308.418 1022.15,-281.126 1011,-260 999.249,-237.738 979.366,-244.939 969,-222 968.153,-220.127 968.054,-150.055 968,-148 967.103,-113.692 965.491,-74.2733 964.339,-48.1321"/>
<ellipse fill="none" stroke="#f552ea" cx="1025.12" cy="-332.365" rx="4" ry="4"/>
<polygon fill="#f552ea" stroke="#f552ea" points="964.324,-47.7853 968.373,-37.5944 964.1,-42.7903 963.877,-37.7953 963.877,-37.7953 963.877,-37.7953 964.1,-42.7903 959.382,-37.9962 964.324,-47.7853 964.324,-47.7853"/>
<text text-anchor="middle" x="998" y="-199.4" font-family="Times Roman,serif" font-size="14.00">versions</text>
</g>
<!-- Bot -->
<g id="node10" class="node"><title>Bot</title>
<ellipse fill="none" stroke="black" cx="1367" cy="-507" rx="28.9914" ry="18.3848"/>
<text text-anchor="middle" x="1367" y="-503.4" font-family="Times Roman,serif" font-size="14.00">Bot</text>
</g>
<!-- Team -->
<g id="node11" class="node"><title>Team</title>
<ellipse fill="none" stroke="black" cx="1283" cy="-507" rx="36.977" ry="18.3848"/>
<text text-anchor="middle" x="1283" y="-503.4" font-family="Times Roman,serif" font-size="14.00">Team</text>
</g>
<!-- Team&#45;&gt;Account -->
<g id="edge32" class="edge"><title>Team&#45;&gt;Account</title>
<path fill="none" stroke="#a0bd69" d="M1237.73,-504.114C1162.83,-496.64 1014.68,-469.858 947,-374 933.479,-354.85 936.189,-327.713 941.284,-307.343"/>
<ellipse fill="none" stroke="#a0bd69" cx="1242.07" cy="-504.521" rx="4" ry="4"/>
<polygon fill="#a0bd69" stroke="#a0bd69" points="941.297,-307.296 948.336,-298.887 942.651,-302.482 944.004,-297.669 944.004,-297.669 944.004,-297.669 942.651,-302.482 939.672,-296.451 941.297,-307.296 941.297,-307.296"/>
</g>
<!-- Team&#45;&gt;Project -->
<g id="edge30" class="edge"><title>Team&#45;&gt;Project</title>
<path fill="none" stroke="#315101" d="M1319.23,-491.771C1322.52,-490.467 1325.81,-489.192 1329,-488 1378.63,-469.431 1410.45,-492.569 1442,-450 1472.82,-408.411 1463.99,-344.187 1455.22,-307.428"/>
<ellipse fill="none" stroke="#315101" cx="1315.3" cy="-493.349" rx="4.00001" ry="4.00001"/>
<polygon fill="#315101" stroke="#315101" points="1455.13,-307.083 1457.02,-296.281 1453.89,-302.238 1452.66,-297.393 1452.66,-297.393 1452.66,-297.393 1453.89,-302.238 1448.3,-298.506 1455.13,-307.083 1455.13,-307.083"/>
</g>
<!-- Contact -->
<g id="node17" class="node"><title>Contact</title>
<ellipse fill="none" stroke="black" cx="1383" cy="-431" rx="50.2046" ry="18.3848"/>
<text text-anchor="middle" x="1383" y="-427.4" font-family="Times Roman,serif" font-size="14.00">Contact</text>
</g>
<!-- Team&#45;&gt;Contact -->
<g id="edge38" class="edge"><title>Team&#45;&gt;Contact</title>
<path fill="none" stroke="#0c774b" d="M1310.27,-486.272C1323.45,-476.258 1339.3,-464.212 1352.84,-453.925"/>
<ellipse fill="none" stroke="#0c774b" cx="1306.9" cy="-488.832" rx="4.00002" ry="4.00002"/>
<polygon fill="#0c774b" stroke="#0c774b" points="1352.96,-453.832 1363.64,-451.364 1356.94,-450.807 1360.92,-447.781 1360.92,-447.781 1360.92,-447.781 1356.94,-450.807 1358.2,-444.199 1352.96,-453.832 1352.96,-453.832"/>
</g>
<!-- TeamUser -->
<g id="node19" class="node"><title>TeamUser</title>
<ellipse fill="none" stroke="black" cx="1374" cy="-355" rx="58.8978" ry="18.3848"/>
<text text-anchor="middle" x="1374" y="-351.4" font-family="Times Roman,serif" font-size="14.00">TeamUser</text>
</g>
<!-- Team&#45;&gt;TeamUser -->
<g id="edge34" class="edge"><title>Team&#45;&gt;TeamUser</title>
<path fill="none" stroke="#5a3912" d="M1291.72,-480.973C1298.91,-461.244 1310.16,-433.886 1324,-412 1331.03,-400.873 1340.2,-389.742 1348.76,-380.307"/>
<ellipse fill="none" stroke="#5a3912" cx="1290.32" cy="-484.891" rx="4.00001" ry="4.00001"/>
<polygon fill="#5a3912" stroke="#5a3912" points="1348.93,-380.129 1359.04,-375.889 1352.34,-376.474 1355.75,-372.818 1355.75,-372.818 1355.75,-372.818 1352.34,-376.474 1352.46,-369.748 1348.93,-380.129 1348.93,-380.129"/>
</g>
<!-- User -->
<g id="node23" class="node"><title>User</title>
<ellipse fill="none" stroke="black" cx="1243" cy="-431" rx="33.9411" ry="18.3848"/>
<text text-anchor="middle" x="1243" y="-427.4" font-family="Times Roman,serif" font-size="14.00">User</text>
</g>
<!-- Team&#45;&gt;User -->
<g id="edge36" class="edge"><title>Team&#45;&gt;User</title>
<path fill="none" stroke="#8af8c0" d="M1268.76,-479.944C1265.03,-472.852 1261,-465.204 1257.27,-458.109"/>
<polygon fill="#8af8c0" stroke="#8af8c0" points="1268.86,-480.14 1269.54,-491.085 1271.19,-484.564 1273.52,-488.989 1273.52,-488.989 1273.52,-488.989 1271.19,-484.564 1277.5,-486.893 1268.86,-480.14 1268.86,-480.14"/>
<polygon fill="#8af8c0" stroke="#8af8c0" points="1257.07,-457.731 1256.39,-446.786 1254.74,-453.306 1252.41,-448.882 1252.41,-448.882 1252.41,-448.882 1254.74,-453.306 1248.43,-450.978 1257.07,-457.731 1257.07,-457.731"/>
</g>
<!-- Team&#45;&gt;PaperTrail::Version -->
<g id="edge28" class="edge"><title>Team&#45;&gt;PaperTrail::Version</title>
<path fill="none" stroke="#1f685b" d="M1238.23,-504.256C1122.78,-496.586 824,-472.707 824,-431 824,-431 824,-431 824,-317 824,-208.278 869.628,-188.349 920,-92 928.382,-75.9672 929.846,-71.6048 939,-56 940.893,-52.7722 942.939,-49.4283 945.009,-46.1302"/>
<ellipse fill="none" stroke="#1f685b" cx="1242.22" cy="-504.519" rx="4" ry="4"/>
<polygon fill="#1f685b" stroke="#1f685b" points="945.067,-46.0398 954.249,-40.045 947.763,-41.8291 950.459,-37.6183 950.459,-37.6183 950.459,-37.6183 947.763,-41.8291 946.67,-35.1917 945.067,-46.0398 945.067,-46.0398"/>
<text text-anchor="middle" x="858" y="-275.4" font-family="Times Roman,serif" font-size="14.00">versions</text>
</g>
<!-- Bounce -->
<g id="node12" class="node"><title>Bounce</title>
<ellipse fill="none" stroke="black" cx="1462" cy="-507" rx="48.0833" ry="18.3848"/>
<text text-anchor="middle" x="1462" y="-503.4" font-family="Times Roman,serif" font-size="14.00">Bounce</text>
</g>
<!-- UploadedImage -->
<g id="node14" class="node"><title>UploadedImage</title>
<ellipse fill="none" stroke="black" cx="1173" cy="-355" rx="85.7684" ry="18.3848"/>
<text text-anchor="middle" x="1173" y="-351.4" font-family="Times Roman,serif" font-size="14.00">UploadedImage</text>
</g>
<!-- UploadedImage&#45;&gt;Project -->
<g id="edge44" class="edge"><title>UploadedImage&#45;&gt;Project</title>
<path fill="none" stroke="#242f7b" d="M1238.18,-338.134C1261.78,-331.931 1288.62,-324.767 1313,-318 1341.96,-309.961 1374.31,-300.556 1399.97,-292.997"/>
<polygon fill="#242f7b" stroke="#242f7b" points="1237.95,-338.194 1227.13,-336.377 1233.11,-339.462 1228.27,-340.73 1228.27,-340.73 1228.27,-340.73 1233.11,-339.462 1229.42,-345.083 1237.95,-338.194 1237.95,-338.194"/>
<polygon fill="#242f7b" stroke="#242f7b" points="1400.22,-292.923 1411.09,-294.408 1405.02,-291.507 1409.81,-290.092 1409.81,-290.092 1409.81,-290.092 1405.02,-291.507 1408.54,-285.776 1400.22,-292.923 1400.22,-292.923"/>
</g>
<!-- ProjectMedia -->
<g id="node20" class="node"><title>ProjectMedia</title>
<ellipse fill="none" stroke="black" cx="1485" cy="-111" rx="74.2462" ry="18.3848"/>
<text text-anchor="middle" x="1485" y="-107.4" font-family="Times Roman,serif" font-size="14.00">ProjectMedia</text>
</g>
<!-- UploadedImage&#45;&gt;ProjectMedia -->
<g id="edge42" class="edge"><title>UploadedImage&#45;&gt;ProjectMedia</title>
<path fill="none" stroke="#3ed60e" d="M1215.28,-334.191C1261.01,-310.568 1334.76,-269.137 1390,-222 1419.73,-196.632 1448.09,-161.592 1465.95,-137.711"/>
<ellipse fill="none" stroke="#3ed60e" cx="1211.47" cy="-336.143" rx="4.00002" ry="4.00002"/>
<polygon fill="#3ed60e" stroke="#3ed60e" points="1466.11,-137.503 1475.66,-132.128 1469.08,-133.479 1472.04,-129.456 1472.04,-129.456 1472.04,-129.456 1469.08,-133.479 1468.42,-126.784 1466.11,-137.503 1466.11,-137.503"/>
</g>
<!-- UploadedImage&#45;&gt;PaperTrail::Version -->
<g id="edge40" class="edge"><title>UploadedImage&#45;&gt;PaperTrail::Version</title>
<path fill="none" stroke="#276c8a" d="M1148.33,-330.723C1123.37,-305.252 1084.75,-263.256 1058,-222 1047.78,-206.243 998.947,-98.8027 975.551,-46.9229"/>
<ellipse fill="none" stroke="#276c8a" cx="1151.25" cy="-333.675" rx="4.00002" ry="4.00002"/>
<polygon fill="#276c8a" stroke="#276c8a" points="975.47,-46.7413 975.465,-35.7754 973.416,-42.1826 971.362,-37.6238 971.362,-37.6238 971.362,-37.6238 973.416,-42.1826 967.259,-39.4723 975.47,-46.7413 975.47,-46.7413"/>
<text text-anchor="middle" x="1087" y="-199.4" font-family="Times Roman,serif" font-size="14.00">versions</text>
</g>
<!-- Media -->
<g id="node22" class="node"><title>Media</title>
<ellipse fill="none" stroke="black" cx="1165" cy="-203" rx="39.8075" ry="18.3848"/>
<text text-anchor="middle" x="1165" y="-199.4" font-family="Times Roman,serif" font-size="14.00">Media</text>
</g>
<!-- Account&#45;&gt;Media -->
<g id="edge48" class="edge"><title>Account&#45;&gt;Media</title>
<path fill="none" stroke="#6e8b28" d="M995.002,-263.202C1014.85,-256.089 1038.6,-247.6 1060,-240 1072.01,-235.737 1099.49,-226.052 1123.33,-217.66"/>
<ellipse fill="none" stroke="#6e8b28" cx="991.083" cy="-264.607" rx="4.00001" ry="4.00001"/>
<polygon fill="#6e8b28" stroke="#6e8b28" points="1123.5,-217.603 1134.42,-218.527 1128.21,-215.943 1132.93,-214.283 1132.93,-214.283 1132.93,-214.283 1128.21,-215.943 1131.43,-210.038 1123.5,-217.603 1123.5,-217.603"/>
</g>
<!-- Account&#45;&gt;PaperTrail::Version -->
<g id="edge46" class="edge"><title>Account&#45;&gt;PaperTrail::Version</title>
<path fill="none" stroke="#831665" d="M934.499,-253.998C919.257,-227.793 900.329,-185.323 910,-148 912.296,-139.141 916.116,-138.286 920,-130 932.855,-102.576 945.084,-70.1731 953.191,-47.4796"/>
<ellipse fill="none" stroke="#831665" cx="936.612" cy="-257.511" rx="4.00002" ry="4.00002"/>
<polygon fill="#831665" stroke="#831665" points="953.283,-47.2182 960.856,-39.2873 954.948,-42.5035 956.613,-37.7888 956.613,-37.7888 956.613,-37.7888 954.948,-42.5035 952.37,-36.2904 953.283,-47.2182 953.283,-47.2182"/>
<text text-anchor="middle" x="939" y="-153.4" font-family="Times Roman,serif" font-size="14.00">versions</text>
</g>
<!-- Project&#45;&gt;ProjectSource -->
<g id="edge52" class="edge"><title>Project&#45;&gt;ProjectSource</title>
<path fill="none" stroke="#637d3d" d="M1411.31,-260.295C1390.69,-249.487 1364.66,-235.843 1343.18,-224.582"/>
<ellipse fill="none" stroke="#637d3d" cx="1415.16" cy="-262.309" rx="4.00002" ry="4.00002"/>
<polygon fill="#637d3d" stroke="#637d3d" points="1343.13,-224.559 1336.36,-215.931 1338.7,-222.237 1334.27,-219.916 1334.27,-219.916 1334.27,-219.916 1338.7,-222.237 1332.19,-223.902 1343.13,-224.559 1343.13,-224.559"/>
</g>
<!-- Project&#45;&gt;ProjectMedia -->
<g id="edge54" class="edge"><title>Project&#45;&gt;ProjectMedia</title>
<path fill="none" stroke="#6f11a2" d="M1457.59,-252.754C1458.84,-249.173 1460.02,-245.519 1461,-242 1470.59,-207.544 1477.35,-166.897 1481.2,-140.122"/>
<ellipse fill="none" stroke="#6f11a2" cx="1456.17" cy="-256.641" rx="4.00001" ry="4.00001"/>
<polygon fill="#6f11a2" stroke="#6f11a2" points="1481.25,-139.802 1487.09,-130.519 1481.94,-134.85 1482.63,-129.898 1482.63,-129.898 1482.63,-129.898 1481.94,-134.85 1478.17,-129.276 1481.25,-139.802 1481.25,-139.802"/>
</g>
<!-- Project&#45;&gt;Media -->
<g id="edge56" class="edge"><title>Project&#45;&gt;Media</title>
<path fill="none" stroke="#073aaf" d="M1395.67,-268.456C1348.11,-258.212 1275.62,-241.393 1214,-222 1210.91,-221.028 1207.74,-219.96 1204.56,-218.841"/>
<polygon fill="#073aaf" stroke="#073aaf" points="1395.95,-268.515 1404.79,-275.004 1400.84,-269.559 1405.73,-270.603 1405.73,-270.603 1405.73,-270.603 1400.84,-269.559 1406.67,-266.203 1395.95,-268.515 1395.95,-268.515"/>
<polygon fill="#073aaf" stroke="#073aaf" points="1204.49,-218.817 1196.65,-211.154 1199.8,-217.098 1195.1,-215.379 1195.1,-215.379 1195.1,-215.379 1199.8,-217.098 1193.56,-219.605 1204.49,-218.817 1204.49,-218.817"/>
</g>
<!-- Project&#45;&gt;PaperTrail::Version -->
<g id="edge50" class="edge"><title>Project&#45;&gt;PaperTrail::Version</title>
<path fill="none" stroke="#8a5899" d="M1436.65,-253.075C1427.17,-232.126 1411.37,-203.084 1390,-184 1292.05,-96.5404 1142.66,-53.2433 1049.04,-33.535"/>
<ellipse fill="none" stroke="#8a5899" cx="1438.37" cy="-257.005" rx="4.00002" ry="4.00002"/>
<polygon fill="#8a5899" stroke="#8a5899" points="1048.82,-33.4913 1039.94,-27.0661 1043.93,-32.4824 1039.03,-31.4736 1039.03,-31.4736 1039.03,-31.4736 1043.93,-32.4824 1038.12,-35.881 1048.82,-33.4913 1048.82,-33.4913"/>
<text text-anchor="middle" x="1397" y="-153.4" font-family="Times Roman,serif" font-size="14.00">versions</text>
</g>
<!-- UploadedFile -->
<g id="node18" class="node"><title>UploadedFile</title>
<ellipse fill="none" stroke="black" cx="1562" cy="-355" rx="73.0388" ry="18.3848"/>
<text text-anchor="middle" x="1562" y="-351.4" font-family="Times Roman,serif" font-size="14.00">UploadedFile</text>
</g>
<!-- UploadedFile&#45;&gt;Project -->
<g id="edge62" class="edge"><title>UploadedFile&#45;&gt;Project</title>
<path fill="none" stroke="#511227" d="M1522.66,-332.818C1514.73,-328.087 1506.52,-323.004 1499,-318 1491.44,-312.967 1483.49,-307.242 1476.15,-301.759"/>
<polygon fill="#511227" stroke="#511227" points="1522.83,-332.918 1529.17,-341.865 1527.14,-335.452 1531.45,-337.986 1531.45,-337.986 1531.45,-337.986 1527.14,-335.452 1533.73,-334.107 1522.83,-332.918 1522.83,-332.918"/>
<polygon fill="#511227" stroke="#511227" points="1475.84,-301.525 1470.58,-291.902 1471.85,-298.507 1467.86,-295.49 1467.86,-295.49 1467.86,-295.49 1471.85,-298.507 1465.15,-299.078 1475.84,-301.525 1475.84,-301.525"/>
</g>
<!-- UploadedFile&#45;&gt;ProjectMedia -->
<g id="edge60" class="edge"><title>UploadedFile&#45;&gt;ProjectMedia</title>
<path fill="none" stroke="#1583bd" d="M1553.63,-328.489C1538.99,-282.095 1508.86,-186.611 1493.87,-139.113"/>
<ellipse fill="none" stroke="#1583bd" cx="1554.88" cy="-332.444" rx="4.00001" ry="4.00001"/>
<polygon fill="#1583bd" stroke="#1583bd" points="1493.84,-139.007 1495.12,-128.117 1492.33,-134.239 1490.83,-129.471 1490.83,-129.471 1490.83,-129.471 1492.33,-134.239 1486.54,-130.825 1493.84,-139.007 1493.84,-139.007"/>
</g>
<!-- UploadedFile&#45;&gt;PaperTrail::Version -->
<g id="edge58" class="edge"><title>UploadedFile&#45;&gt;PaperTrail::Version</title>
<path fill="none" stroke="#c6371d" d="M1572.01,-328.624C1589.51,-277.611 1619.19,-164.118 1568,-92 1539.93,-52.4557 1512.48,-65.8672 1465,-56 1392.75,-40.9854 1197.37,-29.6789 1072.75,-23.7222"/>
<ellipse fill="none" stroke="#c6371d" cx="1570.65" cy="-332.486" rx="4.00001" ry="4.00001"/>
<polygon fill="#c6371d" stroke="#c6371d" points="1072.4,-23.7058 1062.62,-18.7376 1067.4,-23.4692 1062.41,-23.2326 1062.41,-23.2326 1062.41,-23.2326 1067.4,-23.4692 1062.2,-27.7275 1072.4,-23.7058 1072.4,-23.7058"/>
<text text-anchor="middle" x="1625" y="-199.4" font-family="Times Roman,serif" font-size="14.00">versions</text>
</g>
<!-- ProjectMedia&#45;&gt;PaperTrail::Version -->
<g id="edge64" class="edge"><title>ProjectMedia&#45;&gt;PaperTrail::Version</title>
<path fill="none" stroke="#d30fde" d="M1444.61,-90.7599C1418.55,-78.6298 1383.55,-64.0445 1351,-56 1299.61,-43.2998 1166.1,-32.3027 1070.05,-25.671"/>
<ellipse fill="none" stroke="#d30fde" cx="1448.44" cy="-92.5653" rx="4.00002" ry="4.00002"/>
<polygon fill="#d30fde" stroke="#d30fde" points="1069.98,-25.666 1060.31,-20.494 1064.99,-25.3247 1060,-24.9835 1060,-24.9835 1060,-24.9835 1064.99,-25.3247 1059.69,-29.473 1069.98,-25.666 1069.98,-25.666"/>
<text text-anchor="middle" x="1432" y="-61.4" font-family="Times Roman,serif" font-size="14.00">versions</text>
</g>
<!-- Claim -->
<g id="node21" class="node"><title>Claim</title>
<ellipse fill="none" stroke="black" cx="1692" cy="-355" rx="38.8909" ry="18.3848"/>
<text text-anchor="middle" x="1692" y="-351.4" font-family="Times Roman,serif" font-size="14.00">Claim</text>
</g>
<!-- Claim&#45;&gt;Project -->
<g id="edge70" class="edge"><title>Claim&#45;&gt;Project</title>
<path fill="none" stroke="#409074" d="M1652.92,-339.177C1649.92,-338.068 1646.92,-336.997 1644,-336 1593.99,-318.912 1535.75,-302.479 1495.64,-291.685"/>
<polygon fill="#409074" stroke="#409074" points="1653.11,-339.249 1660.87,-347.005 1657.79,-341.023 1662.46,-342.797 1662.46,-342.797 1662.46,-342.797 1657.79,-341.023 1664.06,-338.59 1653.11,-339.249 1653.11,-339.249"/>
<polygon fill="#409074" stroke="#409074" points="1495.5,-291.649 1487.01,-284.718 1490.67,-290.357 1485.84,-289.065 1485.84,-289.065 1485.84,-289.065 1490.67,-290.357 1484.68,-293.412 1495.5,-291.649 1495.5,-291.649"/>
</g>
<!-- Claim&#45;&gt;ProjectMedia -->
<g id="edge68" class="edge"><title>Claim&#45;&gt;ProjectMedia</title>
<path fill="none" stroke="#fe4ced" d="M1671.89,-331.298C1632.97,-285.424 1547.63,-184.829 1507.15,-137.11"/>
<ellipse fill="none" stroke="#fe4ced" cx="1674.53" cy="-334.402" rx="4.00002" ry="4.00002"/>
<polygon fill="#fe4ced" stroke="#fe4ced" points="1507.06,-137.006 1504.02,-126.469 1503.83,-133.193 1500.59,-129.38 1500.59,-129.38 1500.59,-129.38 1503.83,-133.193 1497.16,-132.291 1507.06,-137.006 1507.06,-137.006"/>
</g>
<!-- Claim&#45;&gt;PaperTrail::Version -->
<g id="edge66" class="edge"><title>Claim&#45;&gt;PaperTrail::Version</title>
<path fill="none" stroke="#f7f44c" d="M1700.4,-328.902C1710.07,-294.069 1721.97,-231.286 1700,-184 1658.79,-95.3007 1615.24,-82.1447 1521,-56 1440,-33.5286 1213.26,-24.5282 1075.01,-21.0564"/>
<ellipse fill="none" stroke="#f7f44c" cx="1699.25" cy="-332.876" rx="4.00001" ry="4.00001"/>
<polygon fill="#f7f44c" stroke="#f7f44c" points="1074.8,-21.0513 1064.92,-16.3074 1069.8,-20.9287 1064.8,-20.806 1064.8,-20.806 1064.8,-20.806 1069.8,-20.9287 1064.69,-25.3047 1074.8,-21.0513 1074.8,-21.0513"/>
<text text-anchor="middle" x="1739" y="-199.4" font-family="Times Roman,serif" font-size="14.00">versions</text>
</g>
<!-- Media&#45;&gt;ProjectMedia -->
<g id="edge74" class="edge"><title>Media&#45;&gt;ProjectMedia</title>
<path fill="none" stroke="#035d8c" d="M1201.83,-187.505C1205.89,-186.163 1210,-184.955 1214,-184 1293.06,-165.134 1319.23,-192.72 1396,-166 1409.97,-161.137 1411.45,-155.837 1424,-148 1431.63,-143.233 1439.85,-138.191 1447.7,-133.415"/>
<ellipse fill="none" stroke="#035d8c" cx="1197.9" cy="-188.891" rx="4.00001" ry="4.00001"/>
<polygon fill="#035d8c" stroke="#035d8c" points="1447.8,-133.35 1458.69,-132.012 1452.08,-130.757 1456.36,-128.164 1456.36,-128.164 1456.36,-128.164 1452.08,-130.757 1454.02,-124.316 1447.8,-133.35 1447.8,-133.35"/>
</g>
<!-- Media&#45;&gt;PaperTrail::Version -->
<g id="edge72" class="edge"><title>Media&#45;&gt;PaperTrail::Version</title>
<path fill="none" stroke="#9a9cfa" d="M1153.22,-177.112C1137.17,-144.555 1105.51,-88.9408 1063,-56 1053.63,-48.7358 1042.68,-42.7903 1031.54,-37.9583"/>
<ellipse fill="none" stroke="#9a9cfa" cx="1155.03" cy="-180.872" rx="4.00002" ry="4.00002"/>
<polygon fill="#9a9cfa" stroke="#9a9cfa" points="1031.43,-37.9144 1023.86,-29.9866 1026.8,-36.0356 1022.16,-34.1568 1022.16,-34.1568 1022.16,-34.1568 1026.8,-36.0356 1020.47,-38.3271 1031.43,-37.9144 1031.43,-37.9144"/>
<text text-anchor="middle" x="1155" y="-107.4" font-family="Times Roman,serif" font-size="14.00">versions</text>
</g>
<!-- User&#45;&gt;Source -->
<g id="edge76" class="edge"><title>User&#45;&gt;Source</title>
<path fill="none" stroke="#52540b" d="M1206.37,-418.414C1172.92,-406.904 1122.11,-389.38 1078,-374 1074.11,-372.644 1070.07,-371.23 1066.02,-369.811"/>
<ellipse fill="none" stroke="#52540b" cx="1210.29" cy="-419.761" rx="4.00001" ry="4.00001"/>
<ellipse fill="#52540b" stroke="#52540b" cx="1062.04" cy="-368.416" rx="4.00001" ry="4.00001"/>
</g>
<!-- User&#45;&gt;Account -->
<g id="edge82" class="edge"><title>User&#45;&gt;Account</title>
<path fill="none" stroke="#4d8378" d="M1201.3,-427.829C1133.05,-421.767 1001.9,-406.171 970,-374 952.979,-356.835 949.081,-329.002 948.936,-307.888"/>
<ellipse fill="none" stroke="#4d8378" cx="1205.31" cy="-428.177" rx="4" ry="4"/>
<polygon fill="#4d8378" stroke="#4d8378" points="948.937,-307.844 953.638,-297.937 949.038,-302.845 949.139,-297.846 949.139,-297.846 949.139,-297.846 949.038,-302.845 944.64,-297.755 948.937,-307.844 948.937,-307.844"/>
</g>
<!-- User&#45;&gt;Project -->
<g id="edge80" class="edge"><title>User&#45;&gt;Project</title>
<path fill="none" stroke="#793a73" d="M1254.52,-405.499C1265.21,-384.365 1282.93,-354.839 1306,-336 1332.44,-314.415 1368.12,-300.096 1396.98,-291.208"/>
<ellipse fill="none" stroke="#793a73" cx="1252.67" cy="-409.279" rx="4.00002" ry="4.00002"/>
<polygon fill="#793a73" stroke="#793a73" points="1397.28,-291.118 1408.15,-292.603 1402.08,-289.703 1406.88,-288.287 1406.88,-288.287 1406.88,-288.287 1402.08,-289.703 1405.6,-283.972 1397.28,-291.118 1397.28,-291.118"/>
</g>
<!-- User&#45;&gt;TeamUser -->
<g id="edge78" class="edge"><title>User&#45;&gt;TeamUser</title>
<path fill="none" stroke="#63209d" d="M1273.17,-413.414C1284.69,-406.705 1297.95,-398.991 1310,-392 1318.65,-386.981 1327.97,-381.589 1336.74,-376.517"/>
<ellipse fill="none" stroke="#63209d" cx="1269.7" cy="-415.433" rx="4.00002" ry="4.00002"/>
<polygon fill="#63209d" stroke="#63209d" points="1336.98,-376.379 1347.89,-375.271 1341.31,-373.877 1345.63,-371.375 1345.63,-371.375 1345.63,-371.375 1341.31,-373.877 1343.38,-367.479 1336.98,-376.379 1336.98,-376.379"/>
</g>
<!-- Link -->
<g id="node24" class="node"><title>Link</title>
<ellipse fill="none" stroke="black" cx="1781" cy="-355" rx="32.0265" ry="18.3848"/>
<text text-anchor="middle" x="1781" y="-351.4" font-family="Times Roman,serif" font-size="14.00">Link</text>
</g>
<!-- Link&#45;&gt;Project -->
<g id="edge88" class="edge"><title>Link&#45;&gt;Project</title>
<path fill="none" stroke="#21096c" d="M1747.33,-338.625C1744.88,-337.67 1742.42,-336.782 1740,-336 1658.9,-309.75 1561.06,-293.701 1501.47,-285.581"/>
<polygon fill="#21096c" stroke="#21096c" points="1747.46,-338.677 1754.93,-346.703 1752.06,-340.616 1756.67,-342.556 1756.67,-342.556 1756.67,-342.556 1752.06,-340.616 1758.42,-338.408 1747.46,-338.677 1747.46,-338.677"/>
<polygon fill="#21096c" stroke="#21096c" points="1501.43,-285.576 1492.12,-279.791 1496.48,-284.914 1491.52,-284.251 1491.52,-284.251 1491.52,-284.251 1496.48,-284.914 1490.93,-288.711 1501.43,-285.576 1501.43,-285.576"/>
</g>
<!-- Link&#45;&gt;ProjectMedia -->
<g id="edge86" class="edge"><title>Link&#45;&gt;ProjectMedia</title>
<path fill="none" stroke="#a8e078" d="M1770.39,-329.525C1753.83,-292.655 1718.55,-224.422 1669,-184 1634.53,-155.881 1587.88,-137.535 1550.18,-126.267"/>
<ellipse fill="none" stroke="#a8e078" cx="1772.02" cy="-333.235" rx="4.00002" ry="4.00002"/>
<polygon fill="#a8e078" stroke="#a8e078" points="1549.91,-126.189 1541.55,-119.091 1545.11,-124.802 1540.3,-123.414 1540.3,-123.414 1540.3,-123.414 1545.11,-124.802 1539.05,-127.738 1549.91,-126.189 1549.91,-126.189"/>
</g>
<!-- Link&#45;&gt;PaperTrail::Version -->
<g id="edge84" class="edge"><title>Link&#45;&gt;PaperTrail::Version</title>
<path fill="none" stroke="#949551" d="M1805.21,-334.227C1818.78,-320.205 1833,-300.403 1833,-279 1833,-279 1833,-279 1833,-111 1833,10.5935 1685.54,-71.9916 1565,-56 1394.88,-33.4299 1195.84,-24.5939 1074.64,-21.1573"/>
<ellipse fill="none" stroke="#949551" cx="1802.33" cy="-337.064" rx="4.00002" ry="4.00002"/>
<polygon fill="#949551" stroke="#949551" points="1074.61,-21.1563 1064.73,-16.3818 1069.61,-21.0182 1064.61,-20.8801 1064.61,-20.8801 1064.61,-20.8801 1069.61,-21.0182 1064.49,-25.3784 1074.61,-21.1563 1074.61,-21.1563"/>
<text text-anchor="middle" x="1862" y="-199.4" font-family="Times Roman,serif" font-size="14.00">versions</text>
</g>
<!-- ApiKey -->
<g id="node25" class="node"><title>ApiKey</title>
<ellipse fill="none" stroke="black" cx="1572" cy="-507" rx="44.0472" ry="18.3848"/>
<text text-anchor="middle" x="1572" y="-503.4" font-family="Times Roman,serif" font-size="14.00">ApiKey</text>
</g>
</g>
</svg>
