<?xml version="1.0" encoding="UTF-8" standalone="no"?>
<!DOCTYPE svg PUBLIC "-//W3C//DTD SVG 1.1//EN"
 "http://www.w3.org/Graphics/SVG/1.1/DTD/svg11.dtd">
<!-- Generated by graphviz version 2.26.3 (20100126.1600)
 -->
<!-- Title: models_diagram Pages: 1 -->
<svg width="1697pt" height="1614pt"
 viewBox="0.00 0.00 1697.00 1614.00" xmlns="http://www.w3.org/2000/svg" xmlns:xlink="http://www.w3.org/1999/xlink">
<g id="graph1" class="graph" transform="scale(1 1) rotate(0) translate(4 1610)">
<title>models_diagram</title>
<polygon fill="none" stroke="none" points="-4,5 -4,-1610 1694,-1610 1694,5 -4,5"/>
<!-- Tag -->
<g id="node1" class="node"><title>Tag</title>
<polyline fill="none" stroke="black" points="12,-1373 170,-1373 "/>
<path fill="none" stroke="black" d="M170,-1373C176,-1373 182,-1379 182,-1385"/>
<polyline fill="none" stroke="black" points="182,-1385 182,-1593 "/>
<path fill="none" stroke="black" d="M182,-1593C182,-1599 176,-1605 170,-1605"/>
<polyline fill="none" stroke="black" points="170,-1605 12,-1605 "/>
<path fill="none" stroke="black" d="M12,-1605C6,-1605 0,-1599 0,-1593"/>
<polyline fill="none" stroke="black" points="0,-1593 0,-1385 "/>
<path fill="none" stroke="black" d="M0,-1385C0,-1379 6,-1373 12,-1373"/>
<text text-anchor="middle" x="91" y="-1588.4" font-family="Times Roman,serif" font-size="14.00">Tag</text>
<polyline fill="none" stroke="black" points="0,-1579 182,-1579 "/>
<text text-anchor="start" x="8" y="-1562.4" font-family="Times Roman,serif" font-size="14.00">created_at :Time</text>
<text text-anchor="start" x="8" y="-1544.4" font-family="Times Roman,serif" font-size="14.00">updated_at :Time</text>
<text text-anchor="start" x="8" y="-1526.4" font-family="Times Roman,serif" font-size="14.00">annotation_type :String</text>
<text text-anchor="start" x="8" y="-1508.4" font-family="Times Roman,serif" font-size="14.00">version_index :Integer</text>
<text text-anchor="start" x="8" y="-1490.4" font-family="Times Roman,serif" font-size="14.00">annotated_type :String</text>
<text text-anchor="start" x="8" y="-1472.4" font-family="Times Roman,serif" font-size="14.00">annotated_id :String</text>
<text text-anchor="start" x="8" y="-1454.4" font-family="Times Roman,serif" font-size="14.00">context_type :String</text>
<text text-anchor="start" x="8" y="-1436.4" font-family="Times Roman,serif" font-size="14.00">context_id :String</text>
<text text-anchor="start" x="8" y="-1418.4" font-family="Times Roman,serif" font-size="14.00">annotator_type :String</text>
<text text-anchor="start" x="8" y="-1400.4" font-family="Times Roman,serif" font-size="14.00">annotator_id :String</text>
<text text-anchor="start" x="8" y="-1382.4" font-family="Times Roman,serif" font-size="14.00">tag :String</text>
</g>
<!-- Status -->
<g id="node2" class="node"><title>Status</title>
<polyline fill="none" stroke="black" points="212,-1373 370,-1373 "/>
<path fill="none" stroke="black" d="M370,-1373C376,-1373 382,-1379 382,-1385"/>
<polyline fill="none" stroke="black" points="382,-1385 382,-1593 "/>
<path fill="none" stroke="black" d="M382,-1593C382,-1599 376,-1605 370,-1605"/>
<polyline fill="none" stroke="black" points="370,-1605 212,-1605 "/>
<path fill="none" stroke="black" d="M212,-1605C206,-1605 200,-1599 200,-1593"/>
<polyline fill="none" stroke="black" points="200,-1593 200,-1385 "/>
<path fill="none" stroke="black" d="M200,-1385C200,-1379 206,-1373 212,-1373"/>
<text text-anchor="middle" x="291" y="-1588.4" font-family="Times Roman,serif" font-size="14.00">Status</text>
<polyline fill="none" stroke="black" points="200,-1579 382,-1579 "/>
<text text-anchor="start" x="208" y="-1562.4" font-family="Times Roman,serif" font-size="14.00">created_at :Time</text>
<text text-anchor="start" x="208" y="-1544.4" font-family="Times Roman,serif" font-size="14.00">updated_at :Time</text>
<text text-anchor="start" x="208" y="-1526.4" font-family="Times Roman,serif" font-size="14.00">annotation_type :String</text>
<text text-anchor="start" x="208" y="-1508.4" font-family="Times Roman,serif" font-size="14.00">version_index :Integer</text>
<text text-anchor="start" x="208" y="-1490.4" font-family="Times Roman,serif" font-size="14.00">annotated_type :String</text>
<text text-anchor="start" x="208" y="-1472.4" font-family="Times Roman,serif" font-size="14.00">annotated_id :String</text>
<text text-anchor="start" x="208" y="-1454.4" font-family="Times Roman,serif" font-size="14.00">context_type :String</text>
<text text-anchor="start" x="208" y="-1436.4" font-family="Times Roman,serif" font-size="14.00">context_id :String</text>
<text text-anchor="start" x="208" y="-1418.4" font-family="Times Roman,serif" font-size="14.00">annotator_type :String</text>
<text text-anchor="start" x="208" y="-1400.4" font-family="Times Roman,serif" font-size="14.00">annotator_id :String</text>
<text text-anchor="start" x="208" y="-1382.4" font-family="Times Roman,serif" font-size="14.00">status :String</text>
</g>
<!-- Flag -->
<g id="node3" class="node"><title>Flag</title>
<polyline fill="none" stroke="black" points="412,-1373 570,-1373 "/>
<path fill="none" stroke="black" d="M570,-1373C576,-1373 582,-1379 582,-1385"/>
<polyline fill="none" stroke="black" points="582,-1385 582,-1593 "/>
<path fill="none" stroke="black" d="M582,-1593C582,-1599 576,-1605 570,-1605"/>
<polyline fill="none" stroke="black" points="570,-1605 412,-1605 "/>
<path fill="none" stroke="black" d="M412,-1605C406,-1605 400,-1599 400,-1593"/>
<polyline fill="none" stroke="black" points="400,-1593 400,-1385 "/>
<path fill="none" stroke="black" d="M400,-1385C400,-1379 406,-1373 412,-1373"/>
<text text-anchor="middle" x="491" y="-1588.4" font-family="Times Roman,serif" font-size="14.00">Flag</text>
<polyline fill="none" stroke="black" points="400,-1579 582,-1579 "/>
<text text-anchor="start" x="408" y="-1562.4" font-family="Times Roman,serif" font-size="14.00">created_at :Time</text>
<text text-anchor="start" x="408" y="-1544.4" font-family="Times Roman,serif" font-size="14.00">updated_at :Time</text>
<text text-anchor="start" x="408" y="-1526.4" font-family="Times Roman,serif" font-size="14.00">annotation_type :String</text>
<text text-anchor="start" x="408" y="-1508.4" font-family="Times Roman,serif" font-size="14.00">version_index :Integer</text>
<text text-anchor="start" x="408" y="-1490.4" font-family="Times Roman,serif" font-size="14.00">annotated_type :String</text>
<text text-anchor="start" x="408" y="-1472.4" font-family="Times Roman,serif" font-size="14.00">annotated_id :String</text>
<text text-anchor="start" x="408" y="-1454.4" font-family="Times Roman,serif" font-size="14.00">context_type :String</text>
<text text-anchor="start" x="408" y="-1436.4" font-family="Times Roman,serif" font-size="14.00">context_id :String</text>
<text text-anchor="start" x="408" y="-1418.4" font-family="Times Roman,serif" font-size="14.00">annotator_type :String</text>
<text text-anchor="start" x="408" y="-1400.4" font-family="Times Roman,serif" font-size="14.00">annotator_id :String</text>
<text text-anchor="start" x="408" y="-1382.4" font-family="Times Roman,serif" font-size="14.00">flag :String</text>
</g>
<!-- Comment -->
<g id="node4" class="node"><title>Comment</title>
<polyline fill="none" stroke="black" points="612,-1373 770,-1373 "/>
<path fill="none" stroke="black" d="M770,-1373C776,-1373 782,-1379 782,-1385"/>
<polyline fill="none" stroke="black" points="782,-1385 782,-1593 "/>
<path fill="none" stroke="black" d="M782,-1593C782,-1599 776,-1605 770,-1605"/>
<polyline fill="none" stroke="black" points="770,-1605 612,-1605 "/>
<path fill="none" stroke="black" d="M612,-1605C606,-1605 600,-1599 600,-1593"/>
<polyline fill="none" stroke="black" points="600,-1593 600,-1385 "/>
<path fill="none" stroke="black" d="M600,-1385C600,-1379 606,-1373 612,-1373"/>
<text text-anchor="middle" x="691" y="-1588.4" font-family="Times Roman,serif" font-size="14.00">Comment</text>
<polyline fill="none" stroke="black" points="600,-1579 782,-1579 "/>
<text text-anchor="start" x="608" y="-1562.4" font-family="Times Roman,serif" font-size="14.00">created_at :Time</text>
<text text-anchor="start" x="608" y="-1544.4" font-family="Times Roman,serif" font-size="14.00">updated_at :Time</text>
<text text-anchor="start" x="608" y="-1526.4" font-family="Times Roman,serif" font-size="14.00">annotation_type :String</text>
<text text-anchor="start" x="608" y="-1508.4" font-family="Times Roman,serif" font-size="14.00">version_index :Integer</text>
<text text-anchor="start" x="608" y="-1490.4" font-family="Times Roman,serif" font-size="14.00">annotated_type :String</text>
<text text-anchor="start" x="608" y="-1472.4" font-family="Times Roman,serif" font-size="14.00">annotated_id :String</text>
<text text-anchor="start" x="608" y="-1454.4" font-family="Times Roman,serif" font-size="14.00">context_type :String</text>
<text text-anchor="start" x="608" y="-1436.4" font-family="Times Roman,serif" font-size="14.00">context_id :String</text>
<text text-anchor="start" x="608" y="-1418.4" font-family="Times Roman,serif" font-size="14.00">annotator_type :String</text>
<text text-anchor="start" x="608" y="-1400.4" font-family="Times Roman,serif" font-size="14.00">annotator_id :String</text>
<text text-anchor="start" x="608" y="-1382.4" font-family="Times Roman,serif" font-size="14.00">text :String</text>
</g>
<!-- Annotation -->
<g id="node5" class="node"><title>Annotation</title>
<polyline fill="none" stroke="black" points="812,-1382 970,-1382 "/>
<path fill="none" stroke="black" d="M970,-1382C976,-1382 982,-1388 982,-1394"/>
<polyline fill="none" stroke="black" points="982,-1394 982,-1584 "/>
<path fill="none" stroke="black" d="M982,-1584C982,-1590 976,-1596 970,-1596"/>
<polyline fill="none" stroke="black" points="970,-1596 812,-1596 "/>
<path fill="none" stroke="black" d="M812,-1596C806,-1596 800,-1590 800,-1584"/>
<polyline fill="none" stroke="black" points="800,-1584 800,-1394 "/>
<path fill="none" stroke="black" d="M800,-1394C800,-1388 806,-1382 812,-1382"/>
<text text-anchor="middle" x="891" y="-1579.4" font-family="Times Roman,serif" font-size="14.00">Annotation</text>
<polyline fill="none" stroke="black" points="800,-1570 982,-1570 "/>
<text text-anchor="start" x="808" y="-1553.4" font-family="Times Roman,serif" font-size="14.00">created_at :Time</text>
<text text-anchor="start" x="808" y="-1535.4" font-family="Times Roman,serif" font-size="14.00">updated_at :Time</text>
<text text-anchor="start" x="808" y="-1517.4" font-family="Times Roman,serif" font-size="14.00">annotation_type :String</text>
<text text-anchor="start" x="808" y="-1499.4" font-family="Times Roman,serif" font-size="14.00">version_index :Integer</text>
<text text-anchor="start" x="808" y="-1481.4" font-family="Times Roman,serif" font-size="14.00">annotated_type :String</text>
<text text-anchor="start" x="808" y="-1463.4" font-family="Times Roman,serif" font-size="14.00">annotated_id :String</text>
<text text-anchor="start" x="808" y="-1445.4" font-family="Times Roman,serif" font-size="14.00">context_type :String</text>
<text text-anchor="start" x="808" y="-1427.4" font-family="Times Roman,serif" font-size="14.00">context_id :String</text>
<text text-anchor="start" x="808" y="-1409.4" font-family="Times Roman,serif" font-size="14.00">annotator_type :String</text>
<text text-anchor="start" x="808" y="-1391.4" font-family="Times Roman,serif" font-size="14.00">annotator_id :String</text>
</g>
<!-- Source -->
<g id="node6" class="node"><title>Source</title>
<polyline fill="none" stroke="black" points="897.5,-703 1182.5,-703 "/>
<path fill="none" stroke="black" d="M1182.5,-703C1188.5,-703 1194.5,-709 1194.5,-715"/>
<polyline fill="none" stroke="black" points="1194.5,-715 1194.5,-851 "/>
<path fill="none" stroke="black" d="M1194.5,-851C1194.5,-857 1188.5,-863 1182.5,-863"/>
<polyline fill="none" stroke="black" points="1182.5,-863 897.5,-863 "/>
<path fill="none" stroke="black" d="M897.5,-863C891.5,-863 885.5,-857 885.5,-851"/>
<polyline fill="none" stroke="black" points="885.5,-851 885.5,-715 "/>
<path fill="none" stroke="black" d="M885.5,-715C885.5,-709 891.5,-703 897.5,-703"/>
<text text-anchor="middle" x="1040" y="-846.4" font-family="Times Roman,serif" font-size="14.00">Source</text>
<polyline fill="none" stroke="black" points="885.5,-837 1194.5,-837 "/>
<text text-anchor="start" x="893.5" y="-820.4" font-family="Times Roman,serif" font-size="14.00">id :integer</text>
<text text-anchor="start" x="893.5" y="-802.4" font-family="Times Roman,serif" font-size="14.00">user_id :integer</text>
<text text-anchor="start" x="893.5" y="-784.4" font-family="Times Roman,serif" font-size="14.00">name :character varying</text>
<text text-anchor="start" x="893.5" y="-766.4" font-family="Times Roman,serif" font-size="14.00">slogan :character varying</text>
<text text-anchor="start" x="893.5" y="-748.4" font-family="Times Roman,serif" font-size="14.00">avatar :character varying</text>
<text text-anchor="start" x="893.5" y="-730.4" font-family="Times Roman,serif" font-size="14.00">created_at :timestamp without time zone</text>
<text text-anchor="start" x="893.5" y="-712.4" font-family="Times Roman,serif" font-size="14.00">updated_at :timestamp without time zone</text>
</g>
<!-- ProjectSource -->
<g id="node8" class="node"><title>ProjectSource</title>
<polyline fill="none" stroke="black" points="1143.5,-217 1428.5,-217 "/>
<path fill="none" stroke="black" d="M1428.5,-217C1434.5,-217 1440.5,-223 1440.5,-229"/>
<polyline fill="none" stroke="black" points="1440.5,-229 1440.5,-329 "/>
<path fill="none" stroke="black" d="M1440.5,-329C1440.5,-335 1434.5,-341 1428.5,-341"/>
<polyline fill="none" stroke="black" points="1428.5,-341 1143.5,-341 "/>
<path fill="none" stroke="black" d="M1143.5,-341C1137.5,-341 1131.5,-335 1131.5,-329"/>
<polyline fill="none" stroke="black" points="1131.5,-329 1131.5,-229 "/>
<path fill="none" stroke="black" d="M1131.5,-229C1131.5,-223 1137.5,-217 1143.5,-217"/>
<text text-anchor="middle" x="1286" y="-324.4" font-family="Times Roman,serif" font-size="14.00">ProjectSource</text>
<polyline fill="none" stroke="black" points="1131.5,-315 1440.5,-315 "/>
<text text-anchor="start" x="1139.5" y="-298.4" font-family="Times Roman,serif" font-size="14.00">id :integer</text>
<text text-anchor="start" x="1139.5" y="-280.4" font-family="Times Roman,serif" font-size="14.00">project_id :integer</text>
<text text-anchor="start" x="1139.5" y="-262.4" font-family="Times Roman,serif" font-size="14.00">source_id :integer</text>
<text text-anchor="start" x="1139.5" y="-244.4" font-family="Times Roman,serif" font-size="14.00">created_at :timestamp without time zone</text>
<text text-anchor="start" x="1139.5" y="-226.4" font-family="Times Roman,serif" font-size="14.00">updated_at :timestamp without time zone</text>
</g>
<!-- Source&#45;&gt;ProjectSource -->
<g id="edge6" class="edge"><title>Source&#45;&gt;ProjectSource</title>
<path fill="none" stroke="#febdd6" d="M1177.2,-697.542C1193.23,-682.717 1207.82,-666.152 1219,-648 1275.21,-556.748 1286.84,-430.282 1287.97,-351.616"/>
<ellipse fill="none" stroke="#febdd6" cx="1174.2" cy="-700.246" rx="4.00002" ry="4.00002"/>
<polygon fill="#febdd6" stroke="#febdd6" points="1287.98,-351.316 1292.56,-341.357 1288.02,-346.316 1288.07,-341.317 1288.07,-341.317 1288.07,-341.317 1288.02,-346.316 1283.57,-341.276 1287.98,-351.316 1287.98,-351.316"/>
</g>
<!-- Account -->
<g id="node9" class="node"><title>Account</title>
<polyline fill="none" stroke="black" points="913.5,-451 1198.5,-451 "/>
<path fill="none" stroke="black" d="M1198.5,-451C1204.5,-451 1210.5,-457 1210.5,-463"/>
<polyline fill="none" stroke="black" points="1210.5,-463 1210.5,-617 "/>
<path fill="none" stroke="black" d="M1210.5,-617C1210.5,-623 1204.5,-629 1198.5,-629"/>
<polyline fill="none" stroke="black" points="1198.5,-629 913.5,-629 "/>
<path fill="none" stroke="black" d="M913.5,-629C907.5,-629 901.5,-623 901.5,-617"/>
<polyline fill="none" stroke="black" points="901.5,-617 901.5,-463 "/>
<path fill="none" stroke="black" d="M901.5,-463C901.5,-457 907.5,-451 913.5,-451"/>
<text text-anchor="middle" x="1056" y="-612.4" font-family="Times Roman,serif" font-size="14.00">Account</text>
<polyline fill="none" stroke="black" points="901.5,-603 1210.5,-603 "/>
<text text-anchor="start" x="909.5" y="-586.4" font-family="Times Roman,serif" font-size="14.00">id :integer</text>
<text text-anchor="start" x="909.5" y="-568.4" font-family="Times Roman,serif" font-size="14.00">user_id :integer</text>
<text text-anchor="start" x="909.5" y="-550.4" font-family="Times Roman,serif" font-size="14.00">source_id :integer</text>
<text text-anchor="start" x="909.5" y="-532.4" font-family="Times Roman,serif" font-size="14.00">url :character varying</text>
<text text-anchor="start" x="909.5" y="-514.4" font-family="Times Roman,serif" font-size="14.00">data :json</text>
<text text-anchor="start" x="909.5" y="-496.4" font-family="Times Roman,serif" font-size="14.00">created_at :timestamp without time zone</text>
<text text-anchor="start" x="909.5" y="-478.4" font-family="Times Roman,serif" font-size="14.00">updated_at :timestamp without time zone</text>
<text text-anchor="start" x="909.5" y="-460.4" font-family="Times Roman,serif" font-size="14.00">team_id :integer</text>
</g>
<!-- Source&#45;&gt;Account -->
<g id="edge4" class="edge"><title>Source&#45;&gt;Account</title>
<path fill="none" stroke="#3f01ec" d="M1045.81,-694.689C1047,-676.749 1048.25,-657.764 1049.45,-639.469"/>
<ellipse fill="none" stroke="#3f01ec" cx="1045.55" cy="-698.768" rx="4" ry="4"/>
<polygon fill="#3f01ec" stroke="#3f01ec" points="1049.46,-639.365 1054.6,-629.683 1049.79,-634.376 1050.11,-629.387 1050.11,-629.387 1050.11,-629.387 1049.79,-634.376 1045.62,-629.091 1049.46,-639.365 1049.46,-639.365"/>
</g>
<!-- Project -->
<g id="node10" class="node"><title>Project</title>
<polyline fill="none" stroke="black" points="587.5,-433 872.5,-433 "/>
<path fill="none" stroke="black" d="M872.5,-433C878.5,-433 884.5,-439 884.5,-445"/>
<polyline fill="none" stroke="black" points="884.5,-445 884.5,-635 "/>
<path fill="none" stroke="black" d="M884.5,-635C884.5,-641 878.5,-647 872.5,-647"/>
<polyline fill="none" stroke="black" points="872.5,-647 587.5,-647 "/>
<path fill="none" stroke="black" d="M587.5,-647C581.5,-647 575.5,-641 575.5,-635"/>
<polyline fill="none" stroke="black" points="575.5,-635 575.5,-445 "/>
<path fill="none" stroke="black" d="M575.5,-445C575.5,-439 581.5,-433 587.5,-433"/>
<text text-anchor="middle" x="730" y="-630.4" font-family="Times Roman,serif" font-size="14.00">Project</text>
<polyline fill="none" stroke="black" points="575.5,-621 884.5,-621 "/>
<text text-anchor="start" x="583.5" y="-604.4" font-family="Times Roman,serif" font-size="14.00">id :integer</text>
<text text-anchor="start" x="583.5" y="-586.4" font-family="Times Roman,serif" font-size="14.00">user_id :integer</text>
<text text-anchor="start" x="583.5" y="-568.4" font-family="Times Roman,serif" font-size="14.00">team_id :integer</text>
<text text-anchor="start" x="583.5" y="-550.4" font-family="Times Roman,serif" font-size="14.00">title :character varying</text>
<text text-anchor="start" x="583.5" y="-532.4" font-family="Times Roman,serif" font-size="14.00">description :text</text>
<text text-anchor="start" x="583.5" y="-514.4" font-family="Times Roman,serif" font-size="14.00">lead_image :character varying</text>
<text text-anchor="start" x="583.5" y="-496.4" font-family="Times Roman,serif" font-size="14.00">created_at :timestamp without time zone</text>
<text text-anchor="start" x="583.5" y="-478.4" font-family="Times Roman,serif" font-size="14.00">updated_at :timestamp without time zone</text>
<text text-anchor="start" x="583.5" y="-460.4" font-family="Times Roman,serif" font-size="14.00">archived :boolean</text>
<text text-anchor="start" x="583.5" y="-442.4" font-family="Times Roman,serif" font-size="14.00">settings :text</text>
</g>
<!-- Source&#45;&gt;Project -->
<g id="edge8" class="edge"><title>Source&#45;&gt;Project</title>
<path fill="none" stroke="#b2c74d" d="M929.57,-696.437C911.71,-682.437 892.987,-667.761 874.466,-653.242"/>
<polygon fill="#b2c74d" stroke="#b2c74d" points="929.765,-696.59 934.859,-706.301 933.7,-699.675 937.635,-702.759 937.635,-702.759 937.635,-702.759 933.7,-699.675 940.411,-699.218 929.765,-696.59 929.765,-696.59"/>
<polygon fill="#b2c74d" stroke="#b2c74d" points="874.413,-653.202 869.319,-643.491 870.478,-650.117 866.543,-647.032 866.543,-647.032 866.543,-647.032 870.478,-650.117 863.767,-650.574 874.413,-653.202 874.413,-653.202"/>
</g>
<!-- PaperTrail::Version -->
<g id="node18" class="node"><title>PaperTrail::Version</title>
<ellipse fill="none" stroke="black" cx="1056" cy="-63" rx="101.823" ry="18.3848"/>
<text text-anchor="middle" x="1056" y="-59.4" font-family="Times Roman,serif" font-size="14.00">PaperTrail::Version</text>
</g>
<!-- Source&#45;&gt;PaperTrail::Version -->
<g id="edge2" class="edge"><title>Source&#45;&gt;PaperTrail::Version</title>
<path fill="none" stroke="#e04e09" d="M1201.35,-699.166C1223.75,-683.818 1245.42,-666.674 1264,-648 1421.77,-489.466 1582.7,-359.302 1449,-180 1412.46,-131.003 1248.13,-95.0966 1143.88,-76.7638"/>
<ellipse fill="none" stroke="#e04e09" cx="1198.01" cy="-701.42" rx="4.00002" ry="4.00002"/>
<polygon fill="#e04e09" stroke="#e04e09" points="1143.83,-76.7565 1134.75,-70.6111 1138.91,-75.9006 1133.98,-75.0447 1133.98,-75.0447 1133.98,-75.0447 1138.91,-75.9006 1133.21,-79.4783 1143.83,-76.7565 1143.83,-76.7565"/>
<text text-anchor="middle" x="1507" y="-401.4" font-family="Times Roman,serif" font-size="14.00">versions</text>
</g>
<!-- Team -->
<g id="node7" class="node"><title>Team</title>
<polyline fill="none" stroke="black" points="1011.5,-1382 1296.5,-1382 "/>
<path fill="none" stroke="black" d="M1296.5,-1382C1302.5,-1382 1308.5,-1388 1308.5,-1394"/>
<polyline fill="none" stroke="black" points="1308.5,-1394 1308.5,-1584 "/>
<path fill="none" stroke="black" d="M1308.5,-1584C1308.5,-1590 1302.5,-1596 1296.5,-1596"/>
<polyline fill="none" stroke="black" points="1296.5,-1596 1011.5,-1596 "/>
<path fill="none" stroke="black" d="M1011.5,-1596C1005.5,-1596 999.5,-1590 999.5,-1584"/>
<polyline fill="none" stroke="black" points="999.5,-1584 999.5,-1394 "/>
<path fill="none" stroke="black" d="M999.5,-1394C999.5,-1388 1005.5,-1382 1011.5,-1382"/>
<text text-anchor="middle" x="1154" y="-1579.4" font-family="Times Roman,serif" font-size="14.00">Team</text>
<polyline fill="none" stroke="black" points="999.5,-1570 1308.5,-1570 "/>
<text text-anchor="start" x="1007.5" y="-1553.4" font-family="Times Roman,serif" font-size="14.00">id :integer</text>
<text text-anchor="start" x="1007.5" y="-1535.4" font-family="Times Roman,serif" font-size="14.00">name :character varying</text>
<text text-anchor="start" x="1007.5" y="-1517.4" font-family="Times Roman,serif" font-size="14.00">logo :character varying</text>
<text text-anchor="start" x="1007.5" y="-1499.4" font-family="Times Roman,serif" font-size="14.00">private :boolean</text>
<text text-anchor="start" x="1007.5" y="-1481.4" font-family="Times Roman,serif" font-size="14.00">archived :boolean</text>
<text text-anchor="start" x="1007.5" y="-1463.4" font-family="Times Roman,serif" font-size="14.00">created_at :timestamp without time zone</text>
<text text-anchor="start" x="1007.5" y="-1445.4" font-family="Times Roman,serif" font-size="14.00">updated_at :timestamp without time zone</text>
<text text-anchor="start" x="1007.5" y="-1427.4" font-family="Times Roman,serif" font-size="14.00">description :text</text>
<text text-anchor="start" x="1007.5" y="-1409.4" font-family="Times Roman,serif" font-size="14.00">subdomain :character varying</text>
<text text-anchor="start" x="1007.5" y="-1391.4" font-family="Times Roman,serif" font-size="14.00">settings :text</text>
</g>
<!-- Team&#45;&gt;Account -->
<g id="edge14" class="edge"><title>Team&#45;&gt;Account</title>
<path fill="none" stroke="#41400c" d="M1003.78,-1378.18C999.527,-1376.01 995.262,-1373.95 991,-1372 924.915,-1341.81 877.011,-1391.04 832,-1334 744.775,-1223.47 806.032,-823.607 877,-702 890.829,-678.303 909.29,-656.132 929.11,-636.257"/>
<ellipse fill="none" stroke="#41400c" cx="1007.39" cy="-1380.06" rx="4.00002" ry="4.00002"/>
<polygon fill="#41400c" stroke="#41400c" points="929.328,-636.043 939.618,-632.252 932.898,-632.541 936.467,-629.04 936.467,-629.04 936.467,-629.04 932.898,-632.541 933.316,-625.828 929.328,-636.043 929.328,-636.043"/>
</g>
<!-- Team&#45;&gt;Project -->
<g id="edge12" class="edge"><title>Team&#45;&gt;Project</title>
<path fill="none" stroke="#34cc02" d="M1005.99,-1378.42C1001.01,-1376.11 996.013,-1373.96 991,-1372 904.303,-1338.07 842.196,-1407.46 785,-1334 632.374,-1137.98 667.003,-825.654 701.145,-657.079"/>
<ellipse fill="none" stroke="#34cc02" cx="1009.65" cy="-1380.19" rx="4.00002" ry="4.00002"/>
<polygon fill="#34cc02" stroke="#34cc02" points="701.167,-656.972 707.591,-648.085 702.175,-652.075 703.183,-647.178 703.183,-647.178 703.183,-647.178 702.175,-652.075 698.776,-646.27 701.167,-656.972 701.167,-656.972"/>
</g>
<!-- Contact -->
<g id="node11" class="node"><title>Contact</title>
<polyline fill="none" stroke="black" points="1306.5,-1038 1591.5,-1038 "/>
<path fill="none" stroke="black" d="M1591.5,-1038C1597.5,-1038 1603.5,-1044 1603.5,-1050"/>
<polyline fill="none" stroke="black" points="1603.5,-1050 1603.5,-1186 "/>
<path fill="none" stroke="black" d="M1603.5,-1186C1603.5,-1192 1597.5,-1198 1591.5,-1198"/>
<polyline fill="none" stroke="black" points="1591.5,-1198 1306.5,-1198 "/>
<path fill="none" stroke="black" d="M1306.5,-1198C1300.5,-1198 1294.5,-1192 1294.5,-1186"/>
<polyline fill="none" stroke="black" points="1294.5,-1186 1294.5,-1050 "/>
<path fill="none" stroke="black" d="M1294.5,-1050C1294.5,-1044 1300.5,-1038 1306.5,-1038"/>
<text text-anchor="middle" x="1449" y="-1181.4" font-family="Times Roman,serif" font-size="14.00">Contact</text>
<polyline fill="none" stroke="black" points="1294.5,-1172 1603.5,-1172 "/>
<text text-anchor="start" x="1302.5" y="-1155.4" font-family="Times Roman,serif" font-size="14.00">id :integer</text>
<text text-anchor="start" x="1302.5" y="-1137.4" font-family="Times Roman,serif" font-size="14.00">team_id :integer</text>
<text text-anchor="start" x="1302.5" y="-1119.4" font-family="Times Roman,serif" font-size="14.00">location :character varying</text>
<text text-anchor="start" x="1302.5" y="-1101.4" font-family="Times Roman,serif" font-size="14.00">phone :character varying</text>
<text text-anchor="start" x="1302.5" y="-1083.4" font-family="Times Roman,serif" font-size="14.00">web :character varying</text>
<text text-anchor="start" x="1302.5" y="-1065.4" font-family="Times Roman,serif" font-size="14.00">created_at :timestamp without time zone</text>
<text text-anchor="start" x="1302.5" y="-1047.4" font-family="Times Roman,serif" font-size="14.00">updated_at :timestamp without time zone</text>
</g>
<!-- Team&#45;&gt;Contact -->
<g id="edge20" class="edge"><title>Team&#45;&gt;Contact</title>
<path fill="none" stroke="#a52f87" d="M1262.59,-1375.76C1268.92,-1368.48 1275.1,-1361.19 1281,-1354 1319.57,-1306.95 1359.21,-1251.67 1390.28,-1206.44"/>
<ellipse fill="none" stroke="#a52f87" cx="1259.87" cy="-1378.85" rx="4.00002" ry="4.00002"/>
<polygon fill="#a52f87" stroke="#a52f87" points="1390.33,-1206.37 1399.7,-1200.66 1393.16,-1202.24 1395.98,-1198.12 1395.98,-1198.12 1395.98,-1198.12 1393.16,-1202.24 1392.27,-1195.58 1390.33,-1206.37 1390.33,-1206.37"/>
</g>
<!-- TeamUser -->
<g id="node12" class="node"><title>TeamUser</title>
<polyline fill="none" stroke="black" points="1223.5,-703 1508.5,-703 "/>
<path fill="none" stroke="black" d="M1508.5,-703C1514.5,-703 1520.5,-709 1520.5,-715"/>
<polyline fill="none" stroke="black" points="1520.5,-715 1520.5,-851 "/>
<path fill="none" stroke="black" d="M1520.5,-851C1520.5,-857 1514.5,-863 1508.5,-863"/>
<polyline fill="none" stroke="black" points="1508.5,-863 1223.5,-863 "/>
<path fill="none" stroke="black" d="M1223.5,-863C1217.5,-863 1211.5,-857 1211.5,-851"/>
<polyline fill="none" stroke="black" points="1211.5,-851 1211.5,-715 "/>
<path fill="none" stroke="black" d="M1211.5,-715C1211.5,-709 1217.5,-703 1223.5,-703"/>
<text text-anchor="middle" x="1366" y="-846.4" font-family="Times Roman,serif" font-size="14.00">TeamUser</text>
<polyline fill="none" stroke="black" points="1211.5,-837 1520.5,-837 "/>
<text text-anchor="start" x="1219.5" y="-820.4" font-family="Times Roman,serif" font-size="14.00">id :integer</text>
<text text-anchor="start" x="1219.5" y="-802.4" font-family="Times Roman,serif" font-size="14.00">team_id :integer</text>
<text text-anchor="start" x="1219.5" y="-784.4" font-family="Times Roman,serif" font-size="14.00">user_id :integer</text>
<text text-anchor="start" x="1219.5" y="-766.4" font-family="Times Roman,serif" font-size="14.00">created_at :timestamp without time zone</text>
<text text-anchor="start" x="1219.5" y="-748.4" font-family="Times Roman,serif" font-size="14.00">updated_at :timestamp without time zone</text>
<text text-anchor="start" x="1219.5" y="-730.4" font-family="Times Roman,serif" font-size="14.00">role :character varying</text>
<text text-anchor="start" x="1219.5" y="-712.4" font-family="Times Roman,serif" font-size="14.00">status :character varying</text>
</g>
<!-- Team&#45;&gt;TeamUser -->
<g id="edge16" class="edge"><title>Team&#45;&gt;TeamUser</title>
<path fill="none" stroke="#73bbe3" d="M1231.08,-1374.61C1237.69,-1361.31 1243.54,-1347.63 1248,-1334 1307.98,-1150.83 1221.76,-1083.72 1286,-902 1289.59,-891.847 1294.25,-881.727 1299.52,-871.92"/>
<ellipse fill="none" stroke="#73bbe3" cx="1229.16" cy="-1378.38" rx="4.00002" ry="4.00002"/>
<polygon fill="#73bbe3" stroke="#73bbe3" points="1299.62,-871.732 1308.44,-865.209 1302.07,-867.37 1304.51,-863.009 1304.51,-863.009 1304.51,-863.009 1302.07,-867.37 1300.59,-860.809 1299.62,-871.732 1299.62,-871.732"/>
</g>
<!-- User -->
<g id="node15" class="node"><title>User</title>
<polyline fill="none" stroke="black" points="853,-903 1227,-903 "/>
<path fill="none" stroke="black" d="M1227,-903C1233,-903 1239,-909 1239,-915"/>
<polyline fill="none" stroke="black" points="1239,-915 1239,-1321 "/>
<path fill="none" stroke="black" d="M1239,-1321C1239,-1327 1233,-1333 1227,-1333"/>
<polyline fill="none" stroke="black" points="1227,-1333 853,-1333 "/>
<path fill="none" stroke="black" d="M853,-1333C847,-1333 841,-1327 841,-1321"/>
<polyline fill="none" stroke="black" points="841,-1321 841,-915 "/>
<path fill="none" stroke="black" d="M841,-915C841,-909 847,-903 853,-903"/>
<text text-anchor="middle" x="1040" y="-1316.4" font-family="Times Roman,serif" font-size="14.00">User</text>
<polyline fill="none" stroke="black" points="841,-1307 1239,-1307 "/>
<text text-anchor="start" x="849" y="-1290.4" font-family="Times Roman,serif" font-size="14.00">id :integer</text>
<text text-anchor="start" x="849" y="-1272.4" font-family="Times Roman,serif" font-size="14.00">name :character varying</text>
<text text-anchor="start" x="849" y="-1254.4" font-family="Times Roman,serif" font-size="14.00">login :character varying</text>
<text text-anchor="start" x="849" y="-1236.4" font-family="Times Roman,serif" font-size="14.00">uuid :character varying</text>
<text text-anchor="start" x="849" y="-1218.4" font-family="Times Roman,serif" font-size="14.00">provider :character varying</text>
<text text-anchor="start" x="849" y="-1200.4" font-family="Times Roman,serif" font-size="14.00">token :character varying</text>
<text text-anchor="start" x="849" y="-1182.4" font-family="Times Roman,serif" font-size="14.00">email :character varying</text>
<text text-anchor="start" x="849" y="-1164.4" font-family="Times Roman,serif" font-size="14.00">encrypted_password :character varying</text>
<text text-anchor="start" x="849" y="-1146.4" font-family="Times Roman,serif" font-size="14.00">reset_password_token :character varying</text>
<text text-anchor="start" x="849" y="-1128.4" font-family="Times Roman,serif" font-size="14.00">reset_password_sent_at :timestamp without time zone</text>
<text text-anchor="start" x="849" y="-1110.4" font-family="Times Roman,serif" font-size="14.00">remember_created_at :timestamp without time zone</text>
<text text-anchor="start" x="849" y="-1092.4" font-family="Times Roman,serif" font-size="14.00">sign_in_count :integer</text>
<text text-anchor="start" x="849" y="-1074.4" font-family="Times Roman,serif" font-size="14.00">current_sign_in_at :timestamp without time zone</text>
<text text-anchor="start" x="849" y="-1056.4" font-family="Times Roman,serif" font-size="14.00">last_sign_in_at :timestamp without time zone</text>
<text text-anchor="start" x="849" y="-1038.4" font-family="Times Roman,serif" font-size="14.00">current_sign_in_ip :character varying</text>
<text text-anchor="start" x="849" y="-1020.4" font-family="Times Roman,serif" font-size="14.00">last_sign_in_ip :character varying</text>
<text text-anchor="start" x="849" y="-1002.4" font-family="Times Roman,serif" font-size="14.00">created_at :timestamp without time zone</text>
<text text-anchor="start" x="849" y="-984.4" font-family="Times Roman,serif" font-size="14.00">updated_at :timestamp without time zone</text>
<text text-anchor="start" x="849" y="-966.4" font-family="Times Roman,serif" font-size="14.00">profile_image :character varying</text>
<text text-anchor="start" x="849" y="-948.4" font-family="Times Roman,serif" font-size="14.00">image :character varying</text>
<text text-anchor="start" x="849" y="-930.4" font-family="Times Roman,serif" font-size="14.00">current_team_id :integer</text>
<text text-anchor="start" x="849" y="-912.4" font-family="Times Roman,serif" font-size="14.00">settings :text</text>
</g>
<!-- Team&#45;&gt;User -->
<g id="edge18" class="edge"><title>Team&#45;&gt;User</title>
<path fill="none" stroke="#3a9ed5" d="M1118.09,-1372.13C1115.15,-1362.56 1112.12,-1352.7 1109.04,-1342.68"/>
<polygon fill="#3a9ed5" stroke="#3a9ed5" points="1118.09,-1372.13 1116.72,-1383.01 1119.56,-1376.91 1121.03,-1381.69 1121.03,-1381.69 1121.03,-1381.69 1119.56,-1376.91 1125.33,-1380.37 1118.09,-1372.13 1118.09,-1372.13"/>
<polygon fill="#3a9ed5" stroke="#3a9ed5" points="1109.01,-1342.59 1110.38,-1331.71 1107.54,-1337.81 1106.07,-1333.03 1106.07,-1333.03 1106.07,-1333.03 1107.54,-1337.81 1101.77,-1334.35 1109.01,-1342.59 1109.01,-1342.59"/>
</g>
<!-- Team&#45;&gt;PaperTrail::Version -->
<g id="edge10" class="edge"><title>Team&#45;&gt;PaperTrail::Version</title>
<path fill="none" stroke="#1be6fd" d="M1302.02,-1378.45C1306.99,-1376.13 1311.99,-1373.97 1317,-1372 1378.5,-1347.77 1566.22,-1381.67 1612,-1334 1678.76,-1264.49 1631,-1214.37 1631,-1118 1631,-1118 1631,-1118 1631,-279 1631,-175.92 1303.08,-105.343 1142.51,-76.9648"/>
<ellipse fill="none" stroke="#1be6fd" cx="1298.37" cy="-1380.22" rx="4.00002" ry="4.00002"/>
<polygon fill="#1be6fd" stroke="#1be6fd" points="1142.5,-76.963 1133.43,-70.8053 1137.58,-76.1005 1132.65,-75.2379 1132.65,-75.2379 1132.65,-75.2379 1137.58,-76.1005 1131.88,-79.6704 1142.5,-76.963 1142.5,-76.963"/>
<text text-anchor="middle" x="1660" y="-671.4" font-family="Times Roman,serif" font-size="14.00">versions</text>
</g>
<!-- Media -->
<g id="node14" class="node"><title>Media</title>
<polyline fill="none" stroke="black" points="723.5,-181 1008.5,-181 "/>
<path fill="none" stroke="black" d="M1008.5,-181C1014.5,-181 1020.5,-187 1020.5,-193"/>
<polyline fill="none" stroke="black" points="1020.5,-193 1020.5,-365 "/>
<path fill="none" stroke="black" d="M1020.5,-365C1020.5,-371 1014.5,-377 1008.5,-377"/>
<polyline fill="none" stroke="black" points="1008.5,-377 723.5,-377 "/>
<path fill="none" stroke="black" d="M723.5,-377C717.5,-377 711.5,-371 711.5,-365"/>
<polyline fill="none" stroke="black" points="711.5,-365 711.5,-193 "/>
<path fill="none" stroke="black" d="M711.5,-193C711.5,-187 717.5,-181 723.5,-181"/>
<text text-anchor="middle" x="866" y="-360.4" font-family="Times Roman,serif" font-size="14.00">Media</text>
<polyline fill="none" stroke="black" points="711.5,-351 1020.5,-351 "/>
<text text-anchor="start" x="719.5" y="-334.4" font-family="Times Roman,serif" font-size="14.00">id :integer</text>
<text text-anchor="start" x="719.5" y="-316.4" font-family="Times Roman,serif" font-size="14.00">user_id :integer</text>
<text text-anchor="start" x="719.5" y="-298.4" font-family="Times Roman,serif" font-size="14.00">account_id :integer</text>
<text text-anchor="start" x="719.5" y="-280.4" font-family="Times Roman,serif" font-size="14.00">url :character varying</text>
<text text-anchor="start" x="719.5" y="-262.4" font-family="Times Roman,serif" font-size="14.00">data :json</text>
<text text-anchor="start" x="719.5" y="-244.4" font-family="Times Roman,serif" font-size="14.00">created_at :timestamp without time zone</text>
<text text-anchor="start" x="719.5" y="-226.4" font-family="Times Roman,serif" font-size="14.00">updated_at :timestamp without time zone</text>
<text text-anchor="start" x="719.5" y="-208.4" font-family="Times Roman,serif" font-size="14.00">title :character varying</text>
<text text-anchor="start" x="719.5" y="-190.4" font-family="Times Roman,serif" font-size="14.00">description :character varying</text>
</g>
<!-- Account&#45;&gt;Media -->
<g id="edge24" class="edge"><title>Account&#45;&gt;Media</title>
<path fill="none" stroke="#67f52f" d="M986.239,-444.171C972.312,-425.039 957.604,-404.834 943.436,-385.372"/>
<ellipse fill="none" stroke="#67f52f" cx="988.79" cy="-447.675" rx="4.00002" ry="4.00002"/>
<polygon fill="#67f52f" stroke="#67f52f" points="943.286,-385.166 941.039,-374.433 940.343,-381.124 937.401,-377.082 937.401,-377.082 937.401,-377.082 940.343,-381.124 933.762,-379.73 943.286,-385.166 943.286,-385.166"/>
</g>
<!-- Account&#45;&gt;PaperTrail::Version -->
<g id="edge22" class="edge"><title>Account&#45;&gt;PaperTrail::Version</title>
<path fill="none" stroke="#c41ec2" d="M1056,-442.599C1056,-332.559 1056,-159.949 1056,-91.9314"/>
<ellipse fill="none" stroke="#c41ec2" cx="1056" cy="-446.84" rx="4" ry="4"/>
<polygon fill="#c41ec2" stroke="#c41ec2" points="1056,-91.5731 1060.5,-81.5731 1056,-86.5731 1056,-81.5731 1056,-81.5731 1056,-81.5731 1056,-86.5731 1051.5,-81.5732 1056,-91.5731 1056,-91.5731"/>
<text text-anchor="middle" x="1085" y="-275.4" font-family="Times Roman,serif" font-size="14.00">versions</text>
</g>
<!-- Project&#45;&gt;ProjectSource -->
<g id="edge28" class="edge"><title>Project&#45;&gt;ProjectSource</title>
<path fill="none" stroke="#f7212c" d="M891.949,-432.459C892.3,-432.305 892.65,-432.152 893,-432 987.302,-390.974 1022.65,-416.529 1118,-378 1139.7,-369.232 1161.93,-357.982 1182.82,-346.228"/>
<ellipse fill="none" stroke="#f7212c" cx="888.229" cy="-434.144" rx="4.00002" ry="4.00002"/>
<polygon fill="#f7212c" stroke="#f7212c" points="1183,-346.124 1193.91,-345.073 1187.34,-343.645 1191.68,-341.165 1191.68,-341.165 1191.68,-341.165 1187.34,-343.645 1189.45,-337.257 1183,-346.124 1183,-346.124"/>
</g>
<!-- ProjectMedia -->
<g id="node13" class="node"><title>ProjectMedia</title>
<polyline fill="none" stroke="black" points="513.5,-1 798.5,-1 "/>
<path fill="none" stroke="black" d="M798.5,-1C804.5,-1 810.5,-7 810.5,-13"/>
<polyline fill="none" stroke="black" points="810.5,-13 810.5,-113 "/>
<path fill="none" stroke="black" d="M810.5,-113C810.5,-119 804.5,-125 798.5,-125"/>
<polyline fill="none" stroke="black" points="798.5,-125 513.5,-125 "/>
<path fill="none" stroke="black" d="M513.5,-125C507.5,-125 501.5,-119 501.5,-113"/>
<polyline fill="none" stroke="black" points="501.5,-113 501.5,-13 "/>
<path fill="none" stroke="black" d="M501.5,-13C501.5,-7 507.5,-1 513.5,-1"/>
<text text-anchor="middle" x="656" y="-108.4" font-family="Times Roman,serif" font-size="14.00">ProjectMedia</text>
<polyline fill="none" stroke="black" points="501.5,-99 810.5,-99 "/>
<text text-anchor="start" x="509.5" y="-82.4" font-family="Times Roman,serif" font-size="14.00">id :integer</text>
<text text-anchor="start" x="509.5" y="-64.4" font-family="Times Roman,serif" font-size="14.00">project_id :integer</text>
<text text-anchor="start" x="509.5" y="-46.4" font-family="Times Roman,serif" font-size="14.00">media_id :integer</text>
<text text-anchor="start" x="509.5" y="-28.4" font-family="Times Roman,serif" font-size="14.00">created_at :timestamp without time zone</text>
<text text-anchor="start" x="509.5" y="-10.4" font-family="Times Roman,serif" font-size="14.00">updated_at :timestamp without time zone</text>
</g>
<!-- Project&#45;&gt;ProjectMedia -->
<g id="edge30" class="edge"><title>Project&#45;&gt;ProjectMedia</title>
<path fill="none" stroke="#5a7c2b" d="M628.345,-425.762C626.096,-421.871 623.973,-417.946 622,-414 614.67,-399.34 615.788,-394.292 614,-378 602.645,-274.561 590.449,-243.162 622,-144 622.941,-141.043 623.947,-138.045 625.001,-135.031"/>
<ellipse fill="none" stroke="#5a7c2b" cx="630.466" cy="-429.299" rx="4.00002" ry="4.00002"/>
<polygon fill="#5a7c2b" stroke="#5a7c2b" points="625.095,-134.775 632.745,-126.918 626.806,-130.077 628.517,-125.379 628.517,-125.379 628.517,-125.379 626.806,-130.077 624.288,-123.839 625.095,-134.775 625.095,-134.775"/>
</g>
<!-- Project&#45;&gt;Media -->
<g id="edge32" class="edge"><title>Project&#45;&gt;Media</title>
<path fill="none" stroke="#2ca8c2" d="M790.652,-423.601C797.167,-411.099 803.773,-398.421 810.227,-386.036"/>
<polygon fill="#2ca8c2" stroke="#2ca8c2" points="790.526,-423.843 781.914,-430.632 788.216,-428.277 785.905,-432.711 785.905,-432.711 785.905,-432.711 788.216,-428.277 789.896,-434.791 790.526,-423.843 790.526,-423.843"/>
<polygon fill="#2ca8c2" stroke="#2ca8c2" points="810.275,-385.943 818.886,-379.155 812.585,-381.509 814.896,-377.075 814.896,-377.075 814.896,-377.075 812.585,-381.509 810.905,-374.996 810.275,-385.943 810.275,-385.943"/>
</g>
<!-- Project&#45;&gt;PaperTrail::Version -->
<g id="edge26" class="edge"><title>Project&#45;&gt;PaperTrail::Version</title>
<path fill="none" stroke="#e47735" d="M658.072,-425.404C620.288,-349.184 591.768,-250.501 645,-180 650.301,-172.979 873.475,-112.106 988.682,-81.0553"/>
<ellipse fill="none" stroke="#e47735" cx="659.954" cy="-429.136" rx="4.00002" ry="4.00002"/>
<polygon fill="#e47735" stroke="#e47735" points="988.816,-81.0192 999.642,-82.7635 993.644,-79.7188 998.472,-78.4184 998.472,-78.4184 998.472,-78.4184 993.644,-79.7188 997.301,-74.0732 988.816,-81.0192 988.816,-81.0192"/>
<text text-anchor="middle" x="674" y="-275.4" font-family="Times Roman,serif" font-size="14.00">versions</text>
</g>
<!-- Media&#45;&gt;ProjectMedia -->
<g id="edge36" class="edge"><title>Media&#45;&gt;ProjectMedia</title>
<path fill="none" stroke="#335c63" d="M764.903,-175.014C750.897,-160.608 736.799,-146.107 723.606,-132.538"/>
<ellipse fill="none" stroke="#335c63" cx="767.736" cy="-177.929" rx="4.00002" ry="4.00002"/>
<polygon fill="#335c63" stroke="#335c63" points="723.347,-132.272 719.603,-121.965 719.862,-128.687 716.376,-125.102 716.376,-125.102 716.376,-125.102 719.862,-128.687 713.15,-128.238 723.347,-132.272 723.347,-132.272"/>
</g>
<!-- Media&#45;&gt;PaperTrail::Version -->
<g id="edge34" class="edge"><title>Media&#45;&gt;PaperTrail::Version</title>
<path fill="none" stroke="#8330d3" d="M956.984,-174.732C966.099,-164.339 975.225,-153.956 984,-144 1000.21,-125.61 1018.57,-104.958 1032.69,-89.1104"/>
<ellipse fill="none" stroke="#8330d3" cx="954.258" cy="-177.842" rx="4.00002" ry="4.00002"/>
<polygon fill="#8330d3" stroke="#8330d3" points="1033,-88.7623 1043.02,-84.2928 1036.33,-85.0302 1039.66,-81.2981 1039.66,-81.2981 1039.66,-81.2981 1036.33,-85.0302 1036.3,-78.3035 1033,-88.7623 1033,-88.7623"/>
<text text-anchor="middle" x="1013" y="-149.4" font-family="Times Roman,serif" font-size="14.00">versions</text>
</g>
<!-- User&#45;&gt;Source -->
<g id="edge38" class="edge"><title>User&#45;&gt;Source</title>
<path fill="none" stroke="#85f859" d="M1040,-894.916C1040,-886.828 1040,-878.935 1040,-871.325"/>
<ellipse fill="none" stroke="#85f859" cx="1040" cy="-898.996" rx="4" ry="4"/>
<ellipse fill="#85f859" stroke="#85f859" cx="1040" cy="-867.183" rx="4" ry="4"/>
</g>
<!-- User&#45;&gt;Project -->
<g id="edge42" class="edge"><title>User&#45;&gt;Project</title>
<path fill="none" stroke="#4363b9" d="M894.831,-895.758C888.675,-885.1 882.7,-874.477 877,-864 840.571,-797.036 805.102,-719.337 778.133,-656.816"/>
<ellipse fill="none" stroke="#4363b9" cx="896.892" cy="-899.308" rx="4.00002" ry="4.00002"/>
<polygon fill="#4363b9" stroke="#4363b9" points="777.997,-656.498 778.183,-645.534 776.023,-651.904 774.048,-647.311 774.048,-647.311 774.048,-647.311 776.023,-651.904 769.914,-649.088 777.997,-656.498 777.997,-656.498"/>
</g>
<!-- User&#45;&gt;TeamUser -->
<g id="edge40" class="edge"><title>User&#45;&gt;TeamUser</title>
<path fill="none" stroke="#ddf920" d="M1238.1,-896.869C1243.08,-891.836 1248.06,-886.872 1253,-882 1256.95,-878.11 1261.02,-874.184 1265.17,-870.254"/>
<ellipse fill="none" stroke="#ddf920" cx="1235.04" cy="-899.962" rx="4.00002" ry="4.00002"/>
<polygon fill="#ddf920" stroke="#ddf920" points="1265.41,-870.026 1275.78,-866.465 1269.05,-866.604 1272.7,-863.183 1272.7,-863.183 1272.7,-863.183 1269.05,-866.604 1269.62,-859.902 1265.41,-870.026 1265.41,-870.026"/>
</g>
<!-- ApiKey -->
<g id="node16" class="node"><title>ApiKey</title>
<polyline fill="none" stroke="black" points="1337.5,-1418 1622.5,-1418 "/>
<path fill="none" stroke="black" d="M1622.5,-1418C1628.5,-1418 1634.5,-1424 1634.5,-1430"/>
<polyline fill="none" stroke="black" points="1634.5,-1430 1634.5,-1548 "/>
<path fill="none" stroke="black" d="M1634.5,-1548C1634.5,-1554 1628.5,-1560 1622.5,-1560"/>
<polyline fill="none" stroke="black" points="1622.5,-1560 1337.5,-1560 "/>
<path fill="none" stroke="black" d="M1337.5,-1560C1331.5,-1560 1325.5,-1554 1325.5,-1548"/>
<polyline fill="none" stroke="black" points="1325.5,-1548 1325.5,-1430 "/>
<path fill="none" stroke="black" d="M1325.5,-1430C1325.5,-1424 1331.5,-1418 1337.5,-1418"/>
<text text-anchor="middle" x="1480" y="-1543.4" font-family="Times Roman,serif" font-size="14.00">ApiKey</text>
<polyline fill="none" stroke="black" points="1325.5,-1534 1634.5,-1534 "/>
<text text-anchor="start" x="1333.5" y="-1517.4" font-family="Times Roman,serif" font-size="14.00">id :integer</text>
<text text-anchor="start" x="1333.5" y="-1499.4" font-family="Times Roman,serif" font-size="14.00">access_token :character varying</text>
<text text-anchor="start" x="1333.5" y="-1481.4" font-family="Times Roman,serif" font-size="14.00">expire_at :timestamp without time zone</text>
<text text-anchor="start" x="1333.5" y="-1463.4" font-family="Times Roman,serif" font-size="14.00">created_at :timestamp without time zone</text>
<text text-anchor="start" x="1333.5" y="-1445.4" font-family="Times Roman,serif" font-size="14.00">updated_at :timestamp without time zone</text>
<text text-anchor="start" x="1333.5" y="-1427.4" font-family="Times Roman,serif" font-size="14.00">application :character varying</text>
</g>
</g>
</svg>
