<?xml version="1.0" encoding="UTF-8" standalone="no"?>
<!DOCTYPE svg PUBLIC "-//W3C//DTD SVG 1.1//EN"
 "http://www.w3.org/Graphics/SVG/1.1/DTD/svg11.dtd">
<!-- Generated by graphviz version 2.36.0 (20140111.2315)
 -->
<!-- Title: models_diagram Pages: 1 -->
<svg width="1948pt" height="678pt"
 viewBox="0.00 0.00 1948.00 678.00" xmlns="http://www.w3.org/2000/svg" xmlns:xlink="http://www.w3.org/1999/xlink">
<g id="graph0" class="graph" transform="scale(1 1) rotate(0) translate(4 674)">
<title>models_diagram</title>
<polygon fill="none" stroke="none" points="-4,4 -4,-674 1944,-674 1944,4 -4,4"/>
<!-- Embed -->
<g id="node1" class="node"><title>Embed</title>
<ellipse fill="none" stroke="black" cx="1897" cy="-106" rx="43.319" ry="18"/>
<text text-anchor="middle" x="1897" y="-102.3" font-family="Times,serif" font-size="14.00">Embed</text>
</g>
<!-- PaperTrail::Version -->
<g id="node27" class="node"><title>PaperTrail::Version</title>
<ellipse fill="none" stroke="black" cx="912" cy="-18" rx="99.1619" ry="18"/>
<text text-anchor="middle" x="912" y="-14.3" font-family="Times,serif" font-size="14.00">PaperTrail::Version</text>
</g>
<!-- Embed&#45;&gt;PaperTrail::Version -->
<g id="edge1" class="edge"><title>Embed&#45;&gt;PaperTrail::Version</title>
<path fill="none" stroke="#236c77" d="M1878.04,-82.2589C1867.71,-71.6118 1853.99,-59.9794 1839,-54 1764.88,-24.4401 1249.98,-19.6719 1021.17,-19.026"/>
<ellipse fill="none" stroke="#236c77" cx="1880.98" cy="-85.4333" rx="4.00002" ry="4.00002"/>
<polygon fill="#236c77" stroke="#236c77" points="1021.15,-19.0261 1011.17,-14.4999 1016.15,-19.013 1011.15,-18.9999 1011.15,-18.9999 1011.15,-18.9999 1016.15,-19.013 1011.14,-23.4999 1021.15,-19.0261 1021.15,-19.0261"/>
<text text-anchor="middle" x="1893.5" y="-58.3" font-family="Times,serif" font-size="14.00">versions</text>
</g>
<!-- Task -->
<g id="node2" class="node"><title>Task</title>
<ellipse fill="none" stroke="black" cx="277" cy="-106" rx="32.2457" ry="18"/>
<text text-anchor="middle" x="277" y="-102.3" font-family="Times,serif" font-size="14.00">Task</text>
</g>
<!-- Task&#45;&gt;PaperTrail::Version -->
<g id="edge2" class="edge"><title>Task&#45;&gt;PaperTrail::Version</title>
<path fill="none" stroke="#bc4270" d="M293.485,-82.5652C302.653,-71.9235 315.027,-60.2037 329,-54 371.111,-35.304 647.313,-25.5129 803.969,-21.4063"/>
<ellipse fill="none" stroke="#bc4270" cx="290.745" cy="-85.9019" rx="4.00002" ry="4.00002"/>
<polygon fill="#bc4270" stroke="#bc4270" points="804.115,-21.4026 814.228,-25.6425 809.113,-21.2733 814.112,-21.144 814.112,-21.144 814.112,-21.144 809.113,-21.2733 813.995,-16.6455 804.115,-21.4026 804.115,-21.4026"/>
<text text-anchor="middle" x="359.5" y="-58.3" font-family="Times,serif" font-size="14.00">versions</text>
</g>
<!-- Tag -->
<g id="node3" class="node"><title>Tag</title>
<ellipse fill="none" stroke="black" cx="358" cy="-106" rx="26.949" ry="18"/>
<text text-anchor="middle" x="358" y="-102.3" font-family="Times,serif" font-size="14.00">Tag</text>
</g>
<!-- Tag&#45;&gt;PaperTrail::Version -->
<g id="edge3" class="edge"><title>Tag&#45;&gt;PaperTrail::Version</title>
<path fill="none" stroke="#391f33" d="M376.957,-84.0846C388.279,-73.0765 403.616,-60.5379 420,-54 487.061,-27.2393 679.262,-20.5474 802.637,-19.0965"/>
<ellipse fill="none" stroke="#391f33" cx="373.915" cy="-87.1539" rx="4.00002" ry="4.00002"/>
<polygon fill="#391f33" stroke="#391f33" points="802.875,-19.0941 812.923,-23.486 807.875,-19.0402 812.875,-18.9863 812.875,-18.9863 812.875,-18.9863 807.875,-19.0402 812.826,-14.4865 802.875,-19.0941 802.875,-19.0941"/>
<text text-anchor="middle" x="450.5" y="-58.3" font-family="Times,serif" font-size="14.00">versions</text>
</g>
<!-- Flag -->
<g id="node4" class="node"><title>Flag</title>
<ellipse fill="none" stroke="black" cx="434" cy="-106" rx="31.2965" ry="18"/>
<text text-anchor="middle" x="434" y="-102.3" font-family="Times,serif" font-size="14.00">Flag</text>
</g>
<!-- Flag&#45;&gt;PaperTrail::Version -->
<g id="edge4" class="edge"><title>Flag&#45;&gt;PaperTrail::Version</title>
<path fill="none" stroke="#fc3cdd" d="M458.301,-86.3447C474.561,-74.928 496.949,-61.1762 519,-54 570.429,-37.2633 707.945,-27.8571 805.776,-23.1061"/>
<ellipse fill="none" stroke="#fc3cdd" cx="454.975" cy="-88.7346" rx="4.00002" ry="4.00002"/>
<polygon fill="#fc3cdd" stroke="#fc3cdd" points="806.019,-23.0946 816.221,-27.114 811.013,-22.8568 816.007,-22.6191 816.007,-22.6191 816.007,-22.6191 811.013,-22.8568 815.793,-18.1242 806.019,-23.0946 806.019,-23.0946"/>
<text text-anchor="middle" x="549.5" y="-58.3" font-family="Times,serif" font-size="14.00">versions</text>
</g>
<!-- Dynamic -->
<g id="node5" class="node"><title>Dynamic</title>
<ellipse fill="none" stroke="black" cx="153" cy="-106" rx="51.4931" ry="18"/>
<text text-anchor="middle" x="153" y="-102.3" font-family="Times,serif" font-size="14.00">Dynamic</text>
</g>
<!-- Dynamic&#45;&gt;PaperTrail::Version -->
<g id="edge5" class="edge"><title>Dynamic&#45;&gt;PaperTrail::Version</title>
<path fill="none" stroke="#c25150" d="M180.512,-84.7186C197.361,-73.4865 219.877,-60.5122 242,-54 343.853,-24.0186 640.426,-18.9891 802.728,-18.5779"/>
<ellipse fill="none" stroke="#c25150" cx="176.958" cy="-87.1457" rx="4.00002" ry="4.00002"/>
<polygon fill="#c25150" stroke="#c25150" points="802.743,-18.5779 812.752,-23.0579 807.743,-18.5679 812.743,-18.5579 812.743,-18.5579 812.743,-18.5579 807.743,-18.5679 812.734,-14.0579 802.743,-18.5779 802.743,-18.5779"/>
<text text-anchor="middle" x="272.5" y="-58.3" font-family="Times,serif" font-size="14.00">versions</text>
</g>
<!-- DynamicAnnotation::Field -->
<g id="node28" class="node"><title>DynamicAnnotation::Field</title>
<ellipse fill="none" stroke="black" cx="131" cy="-18" rx="131.408" ry="18"/>
<text text-anchor="middle" x="131" y="-14.3" font-family="Times,serif" font-size="14.00">DynamicAnnotation::Field</text>
</g>
<!-- Dynamic&#45;&gt;DynamicAnnotation::Field -->
<g id="edge6" class="edge"><title>Dynamic&#45;&gt;DynamicAnnotation::Field</title>
<path fill="none" stroke="#b66708" d="M136.564,-81.2383C134.708,-77.6082 133.093,-73.801 132,-70 129.846,-62.5104 129.055,-54.1435 128.944,-46.3875"/>
<ellipse fill="none" stroke="#b66708" cx="138.649" cy="-84.9048" rx="4.00002" ry="4.00002"/>
<polygon fill="#b66708" stroke="#b66708" points="128.945,-46.3274 133.649,-36.4218 129.048,-41.3284 129.15,-36.3295 129.15,-36.3295 129.15,-36.3295 129.048,-41.3284 124.651,-36.2371 128.945,-46.3274 128.945,-46.3274"/>
<text text-anchor="middle" x="151.5" y="-58.3" font-family="Times,serif" font-size="14.00">fields</text>
</g>
<!-- Comment -->
<g id="node6" class="node"><title>Comment</title>
<ellipse fill="none" stroke="black" cx="539" cy="-106" rx="55.3436" ry="18"/>
<text text-anchor="middle" x="539" y="-102.3" font-family="Times,serif" font-size="14.00">Comment</text>
</g>
<!-- Comment&#45;&gt;PaperTrail::Version -->
<g id="edge7" class="edge"><title>Comment&#45;&gt;PaperTrail::Version</title>
<path fill="none" stroke="#2cfcdf" d="M564.126,-83.6904C578.185,-72.9634 596.557,-60.8196 615,-54 649.94,-41.0805 739.031,-31.6475 810.585,-25.8518"/>
<ellipse fill="none" stroke="#2cfcdf" cx="560.737" cy="-86.3458" rx="4.00002" ry="4.00002"/>
<polygon fill="#2cfcdf" stroke="#2cfcdf" points="810.59,-25.8516 820.915,-29.544 815.574,-25.4549 820.558,-25.0582 820.558,-25.0582 820.558,-25.0582 815.574,-25.4549 820.201,-20.5723 810.59,-25.8516 810.59,-25.8516"/>
<text text-anchor="middle" x="645.5" y="-58.3" font-family="Times,serif" font-size="14.00">versions</text>
</g>
<!-- Annotation -->
<g id="node7" class="node"><title>Annotation</title>
<ellipse fill="none" stroke="black" cx="675" cy="-106" rx="61.6163" ry="18"/>
<text text-anchor="middle" x="675" y="-102.3" font-family="Times,serif" font-size="14.00">Annotation</text>
</g>
<!-- Annotation&#45;&gt;PaperTrail::Version -->
<g id="edge8" class="edge"><title>Annotation&#45;&gt;PaperTrail::Version</title>
<path fill="none" stroke="#36f019" d="M676.802,-79.8326C678.761,-70.4448 682.598,-60.4995 690,-54 707.898,-38.2847 759.217,-29.5985 808.008,-24.8112"/>
<ellipse fill="none" stroke="#36f019" cx="676.154" cy="-83.8886" rx="4.00001" ry="4.00001"/>
<polygon fill="#36f019" stroke="#36f019" points="808.088,-24.8038 818.462,-28.3568 813.066,-24.34 818.045,-23.8762 818.045,-23.8762 818.045,-23.8762 813.066,-24.34 817.627,-19.3956 808.088,-24.8038 808.088,-24.8038"/>
<text text-anchor="middle" x="720.5" y="-58.3" font-family="Times,serif" font-size="14.00">versions</text>
</g>
<!-- User -->
<g id="node8" class="node"><title>User</title>
<ellipse fill="none" stroke="black" cx="1474" cy="-578" rx="32.2457" ry="18"/>
<text text-anchor="middle" x="1474" y="-574.3" font-family="Times,serif" font-size="14.00">User</text>
</g>
<!-- Account -->
<g id="node12" class="node"><title>Account</title>
<ellipse fill="none" stroke="black" cx="1569" cy="-430" rx="49.0941" ry="18"/>
<text text-anchor="middle" x="1569" y="-426.3" font-family="Times,serif" font-size="14.00">Account</text>
</g>
<!-- User&#45;&gt;Account -->
<g id="edge12" class="edge"><title>User&#45;&gt;Account</title>
<path fill="none" stroke="#826828" d="M1510.55,-566.345C1523.17,-560.955 1536.32,-553.124 1545,-542 1563.71,-518.039 1568.59,-482.676 1569.51,-458.337"/>
<ellipse fill="none" stroke="#826828" cx="1506.52" cy="-567.929" rx="4.00001" ry="4.00001"/>
<polygon fill="#826828" stroke="#826828" points="1569.51,-458.327 1574.19,-448.411 1569.6,-453.328 1569.69,-448.329 1569.69,-448.329 1569.69,-448.329 1569.6,-453.328 1565.19,-448.247 1569.51,-458.327 1569.51,-458.327"/>
</g>
<!-- Team -->
<g id="node13" class="node"><title>Team</title>
<ellipse fill="none" stroke="black" cx="1391" cy="-504" rx="35.6194" ry="18"/>
<text text-anchor="middle" x="1391" y="-500.3" font-family="Times,serif" font-size="14.00">Team</text>
</g>
<!-- User&#45;&gt;Team -->
<g id="edge10" class="edge"><title>User&#45;&gt;Team</title>
<path fill="none" stroke="#5edee5" d="M1449.34,-555.612C1438.75,-546.418 1426.38,-535.693 1415.77,-526.488"/>
<polygon fill="#5edee5" stroke="#5edee5" points="1449.65,-555.877 1454.25,-565.829 1453.43,-559.153 1457.2,-562.43 1457.2,-562.43 1457.2,-562.43 1453.43,-559.153 1460.15,-559.03 1449.65,-555.877 1449.65,-555.877"/>
<polygon fill="#5edee5" stroke="#5edee5" points="1415.61,-526.349 1411,-516.396 1411.83,-523.072 1408.06,-519.796 1408.06,-519.796 1408.06,-519.796 1411.83,-523.072 1405.11,-523.195 1415.61,-526.349 1415.61,-526.349"/>
</g>
<!-- Project -->
<g id="node18" class="node"><title>Project</title>
<ellipse fill="none" stroke="black" cx="1218" cy="-282" rx="44.2946" ry="18"/>
<text text-anchor="middle" x="1218" y="-278.3" font-family="Times,serif" font-size="14.00">Project</text>
</g>
<!-- User&#45;&gt;Project -->
<g id="edge11" class="edge"><title>User&#45;&gt;Project</title>
<path fill="none" stroke="#c3e79e" d="M1479.39,-552.008C1479.68,-547.987 1479.63,-543.875 1479,-540 1468.78,-477.02 1464.7,-450.729 1414,-412 1368.53,-377.269 1338.31,-406.173 1291,-374 1284.08,-369.293 1255.66,-332.719 1236.39,-307.396"/>
<ellipse fill="none" stroke="#c3e79e" cx="1478.89" cy="-556.056" rx="4.00001" ry="4.00001"/>
<polygon fill="#c3e79e" stroke="#c3e79e" points="1236.29,-307.27 1233.83,-296.583 1233.27,-303.286 1230.25,-299.302 1230.25,-299.302 1230.25,-299.302 1233.27,-303.286 1226.66,-302.022 1236.29,-307.27 1236.29,-307.27"/>
</g>
<!-- TeamUser -->
<g id="node20" class="node"><title>TeamUser</title>
<ellipse fill="none" stroke="black" cx="1328" cy="-430" rx="57.2688" ry="18"/>
<text text-anchor="middle" x="1328" y="-426.3" font-family="Times,serif" font-size="14.00">TeamUser</text>
</g>
<!-- User&#45;&gt;TeamUser -->
<g id="edge9" class="edge"><title>User&#45;&gt;TeamUser</title>
<path fill="none" stroke="#022321" d="M1468.36,-552.227C1462.75,-532.312 1452.41,-504.673 1435,-486 1419.01,-468.856 1396.48,-456.173 1376.21,-447.335"/>
<ellipse fill="none" stroke="#022321" cx="1469.39" cy="-556.109" rx="4.00001" ry="4.00001"/>
<polygon fill="#022321" stroke="#022321" points="1376.02,-447.257 1368.51,-439.267 1371.41,-445.34 1366.79,-443.423 1366.79,-443.423 1366.79,-443.423 1371.41,-445.34 1365.06,-447.579 1376.02,-447.257 1376.02,-447.257"/>
</g>
<!-- UploadedFile -->
<g id="node9" class="node"><title>UploadedFile</title>
<ellipse fill="none" stroke="black" cx="920" cy="-356" rx="72.2155" ry="18"/>
<text text-anchor="middle" x="920" y="-352.3" font-family="Times,serif" font-size="14.00">UploadedFile</text>
</g>
<!-- ProjectMedia -->
<g id="node11" class="node"><title>ProjectMedia</title>
<ellipse fill="none" stroke="black" cx="1092" cy="-106" rx="73.1654" ry="18"/>
<text text-anchor="middle" x="1092" y="-102.3" font-family="Times,serif" font-size="14.00">ProjectMedia</text>
</g>
<!-- UploadedFile&#45;&gt;ProjectMedia -->
<g id="edge14" class="edge"><title>UploadedFile&#45;&gt;ProjectMedia</title>
<path fill="none" stroke="#62ed5f" d="M938.31,-331.471C959.904,-303.457 996.583,-255.043 1026,-212 1044.18,-185.402 1063.65,-154.027 1076.7,-132.545"/>
<ellipse fill="none" stroke="#62ed5f" cx="935.604" cy="-334.972" rx="4.00002" ry="4.00002"/>
<polygon fill="#62ed5f" stroke="#62ed5f" points="1076.7,-132.544 1085.73,-126.315 1079.29,-128.265 1081.87,-123.987 1081.87,-123.987 1081.87,-123.987 1079.29,-128.265 1078.02,-121.658 1076.7,-132.544 1076.7,-132.544"/>
</g>
<!-- UploadedFile&#45;&gt;Project -->
<g id="edge15" class="edge"><title>UploadedFile&#45;&gt;Project</title>
<path fill="none" stroke="#9c734f" d="M979.626,-340.594C1036.02,-326.968 1119.51,-306.795 1171.25,-294.296"/>
<polygon fill="#9c734f" stroke="#9c734f" points="979.599,-340.6 968.822,-338.575 974.739,-341.775 969.878,-342.949 969.878,-342.949 969.878,-342.949 974.739,-341.775 970.935,-347.323 979.599,-340.6 979.599,-340.6"/>
<polygon fill="#9c734f" stroke="#9c734f" points="1171.43,-294.252 1182.21,-296.277 1176.29,-293.077 1181.15,-291.903 1181.15,-291.903 1181.15,-291.903 1176.29,-293.077 1180.09,-287.529 1171.43,-294.252 1171.43,-294.252"/>
</g>
<!-- UploadedFile&#45;&gt;PaperTrail::Version -->
<g id="edge13" class="edge"><title>UploadedFile&#45;&gt;PaperTrail::Version</title>
<path fill="none" stroke="#0ce339" d="M888.804,-334.33C854.9,-309.788 802.67,-265.383 781,-212 754.844,-147.566 848.044,-55.9546 850,-54 855.17,-48.8344 861.259,-44.1879 867.566,-40.0963"/>
<ellipse fill="none" stroke="#0ce339" cx="892.067" cy="-336.652" rx="4.00002" ry="4.00002"/>
<polygon fill="#0ce339" stroke="#0ce339" points="867.676,-40.0305 878.563,-38.7171 871.957,-37.4473 876.238,-34.8641 876.238,-34.8641 876.238,-34.8641 871.957,-37.4473 873.913,-31.0112 867.676,-40.0305 867.676,-40.0305"/>
<text text-anchor="middle" x="811.5" y="-190.3" font-family="Times,serif" font-size="14.00">versions</text>
</g>
<!-- ApiKey -->
<g id="node10" class="node"><title>ApiKey</title>
<ellipse fill="none" stroke="black" cx="1349" cy="-652" rx="43.319" ry="18"/>
<text text-anchor="middle" x="1349" y="-648.3" font-family="Times,serif" font-size="14.00">ApiKey</text>
</g>
<!-- BotUser -->
<g id="node23" class="node"><title>BotUser</title>
<ellipse fill="none" stroke="black" cx="1349" cy="-578" rx="48.6179" ry="18"/>
<text text-anchor="middle" x="1349" y="-574.3" font-family="Times,serif" font-size="14.00">BotUser</text>
</g>
<!-- ApiKey&#45;&gt;BotUser -->
<g id="edge16" class="edge"><title>ApiKey&#45;&gt;BotUser</title>
<path fill="none" stroke="#e88c94" d="M1349,-625.792C1349,-618.974 1349,-611.588 1349,-604.741"/>
<ellipse fill="none" stroke="#e88c94" cx="1349" cy="-629.937" rx="4" ry="4"/>
<ellipse fill="#e88c94" stroke="#e88c94" cx="1349" cy="-600.441" rx="4" ry="4"/>
</g>
<!-- ProjectMedia&#45;&gt;PaperTrail::Version -->
<g id="edge17" class="edge"><title>ProjectMedia&#45;&gt;PaperTrail::Version</title>
<path fill="none" stroke="#883d8b" d="M1052.37,-86.0643C1023.44,-72.2459 984.288,-53.5374 954.679,-39.3911"/>
<ellipse fill="none" stroke="#883d8b" cx="1056.21" cy="-87.9005" rx="4.00002" ry="4.00002"/>
<polygon fill="#883d8b" stroke="#883d8b" points="954.45,-39.2815 947.367,-30.9101 949.938,-37.126 945.427,-34.9705 945.427,-34.9705 945.427,-34.9705 949.938,-37.126 943.487,-39.0308 954.45,-39.2815 954.45,-39.2815"/>
<text text-anchor="middle" x="1049.5" y="-58.3" font-family="Times,serif" font-size="14.00">versions</text>
</g>
<!-- Source -->
<g id="node14" class="node"><title>Source</title>
<ellipse fill="none" stroke="black" cx="1569" cy="-356" rx="42.3456" ry="18"/>
<text text-anchor="middle" x="1569" y="-352.3" font-family="Times,serif" font-size="14.00">Source</text>
</g>
<!-- Account&#45;&gt;Source -->
<g id="edge21" class="edge"><title>Account&#45;&gt;Source</title>
<path fill="none" stroke="#9a0261" d="M1569,-401.719C1569,-396.145 1569,-390.274 1569,-384.686"/>
<polygon fill="#9a0261" stroke="#9a0261" points="1569,-401.937 1564.5,-411.937 1569,-406.937 1569,-411.937 1569,-411.937 1569,-411.937 1569,-406.937 1573.5,-411.937 1569,-401.937 1569,-401.937"/>
<polygon fill="#9a0261" stroke="#9a0261" points="1569,-384.441 1573.5,-374.441 1569,-379.441 1569,-374.441 1569,-374.441 1569,-374.441 1569,-379.441 1564.5,-374.441 1569,-384.441 1569,-384.441"/>
</g>
<!-- Media -->
<g id="node21" class="node"><title>Media</title>
<ellipse fill="none" stroke="black" cx="1308" cy="-194" rx="39.9464" ry="18"/>
<text text-anchor="middle" x="1308" y="-190.3" font-family="Times,serif" font-size="14.00">Media</text>
</g>
<!-- Account&#45;&gt;Media -->
<g id="edge19" class="edge"><title>Account&#45;&gt;Media</title>
<path fill="none" stroke="#3d212b" d="M1547.26,-406.879C1528.67,-388.174 1501.03,-360.85 1476,-338 1427.23,-293.484 1367.96,-244.076 1334.45,-216.552"/>
<ellipse fill="none" stroke="#3d212b" cx="1550.38" cy="-410.032" rx="4.00002" ry="4.00002"/>
<polygon fill="#3d212b" stroke="#3d212b" points="1334.24,-216.38 1329.36,-206.561 1330.37,-213.211 1326.51,-210.042 1326.51,-210.042 1326.51,-210.042 1330.37,-213.211 1323.65,-213.522 1334.24,-216.38 1334.24,-216.38"/>
</g>
<!-- AccountSource -->
<g id="node22" class="node"><title>AccountSource</title>
<ellipse fill="none" stroke="black" cx="1716" cy="-282" rx="81.3646" ry="18"/>
<text text-anchor="middle" x="1716" y="-278.3" font-family="Times,serif" font-size="14.00">AccountSource</text>
</g>
<!-- Account&#45;&gt;AccountSource -->
<g id="edge20" class="edge"><title>Account&#45;&gt;AccountSource</title>
<path fill="none" stroke="#35cc36" d="M1591.26,-406.889C1618.34,-379.996 1663.88,-334.765 1691.8,-307.032"/>
<ellipse fill="none" stroke="#35cc36" cx="1588.13" cy="-409.999" rx="4.00002" ry="4.00002"/>
<polygon fill="#35cc36" stroke="#35cc36" points="1692.09,-306.751 1702.35,-302.896 1695.63,-303.227 1699.18,-299.704 1699.18,-299.704 1699.18,-299.704 1695.63,-303.227 1696.01,-296.511 1692.09,-306.751 1692.09,-306.751"/>
</g>
<!-- Account&#45;&gt;PaperTrail::Version -->
<g id="edge18" class="edge"><title>Account&#45;&gt;PaperTrail::Version</title>
<path fill="none" stroke="#87dbf3" d="M1624.58,-424.589C1699.87,-417.054 1825,-398.316 1825,-357 1825,-357 1825,-357 1825,-105 1825,-25.1496 1264.3,-17.6359 1021.7,-18.122"/>
<ellipse fill="none" stroke="#87dbf3" cx="1620.53" cy="-424.982" rx="4" ry="4"/>
<polygon fill="#87dbf3" stroke="#87dbf3" points="1021.44,-18.1225 1011.43,-13.6477 1016.44,-18.1351 1011.45,-18.1477 1011.45,-18.1477 1011.45,-18.1477 1016.44,-18.1351 1011.46,-22.6477 1021.44,-18.1225 1021.44,-18.1225"/>
<text text-anchor="middle" x="1855.5" y="-234.3" font-family="Times,serif" font-size="14.00">versions</text>
</g>
<!-- Team&#45;&gt;Account -->
<g id="edge24" class="edge"><title>Team&#45;&gt;Account</title>
<path fill="none" stroke="#0d1262" d="M1425.49,-489.048C1454.67,-477.247 1496.55,-460.307 1527.54,-447.77"/>
<ellipse fill="none" stroke="#0d1262" cx="1421.74" cy="-490.565" rx="4.00002" ry="4.00002"/>
<polygon fill="#0d1262" stroke="#0d1262" points="1527.92,-447.616 1538.88,-448.038 1532.56,-445.741 1537.19,-443.866 1537.19,-443.866 1537.19,-443.866 1532.56,-445.741 1535.5,-439.695 1527.92,-447.616 1527.92,-447.616"/>
</g>
<!-- Team&#45;&gt;Source -->
<g id="edge27" class="edge"><title>Team&#45;&gt;Source</title>
<path fill="none" stroke="#f00b52" d="M1415.4,-482.987C1448.74,-455.643 1508.29,-406.797 1542.63,-378.633"/>
<ellipse fill="none" stroke="#f00b52" cx="1412.14" cy="-485.661" rx="4.00002" ry="4.00002"/>
<polygon fill="#f00b52" stroke="#f00b52" points="1542.64,-378.622 1553.22,-375.759 1546.51,-375.451 1550.37,-372.28 1550.37,-372.28 1550.37,-372.28 1546.51,-375.451 1547.52,-368.801 1542.64,-378.622 1542.64,-378.622"/>
</g>
<!-- Contact -->
<g id="node15" class="node"><title>Contact</title>
<ellipse fill="none" stroke="black" cx="1204" cy="-430" rx="48.1437" ry="18"/>
<text text-anchor="middle" x="1204" y="-426.3" font-family="Times,serif" font-size="14.00">Contact</text>
</g>
<!-- Team&#45;&gt;Contact -->
<g id="edge26" class="edge"><title>Team&#45;&gt;Contact</title>
<path fill="none" stroke="#4bfd3c" d="M1355.94,-489.501C1324.71,-477.478 1278.97,-459.865 1245.84,-447.109"/>
<ellipse fill="none" stroke="#4bfd3c" cx="1359.67" cy="-490.939" rx="4.00001" ry="4.00001"/>
<polygon fill="#4bfd3c" stroke="#4bfd3c" points="1245.75,-447.077 1238.04,-439.284 1241.09,-445.28 1236.42,-443.484 1236.42,-443.484 1236.42,-443.484 1241.09,-445.28 1234.81,-447.683 1245.75,-447.077 1245.75,-447.077"/>
</g>
<!-- Team&#45;&gt;Project -->
<g id="edge23" class="edge"><title>Team&#45;&gt;Project</title>
<path fill="none" stroke="#c5f079" d="M1399.65,-478.243C1404.91,-458.338 1408.19,-430.703 1394,-412 1375.03,-387.003 1281.7,-394.563 1258,-374 1239.02,-357.533 1228.69,-330.356 1223.31,-309.981"/>
<ellipse fill="none" stroke="#c5f079" cx="1398.51" cy="-482.145" rx="4.00001" ry="4.00001"/>
<polygon fill="#c5f079" stroke="#c5f079" points="1223.26,-309.764 1225.3,-298.991 1222.09,-304.902 1220.93,-300.039 1220.93,-300.039 1220.93,-300.039 1222.09,-304.902 1216.55,-301.087 1223.26,-309.764 1223.26,-309.764"/>
</g>
<!-- Team&#45;&gt;TeamUser -->
<g id="edge25" class="edge"><title>Team&#45;&gt;TeamUser</title>
<path fill="none" stroke="#07955c" d="M1375.82,-479.871C1372.43,-475.149 1368.73,-470.31 1365,-466 1361.62,-462.087 1357.85,-458.134 1354.05,-454.365"/>
<ellipse fill="none" stroke="#07955c" cx="1378.25" cy="-483.351" rx="4.00002" ry="4.00002"/>
<polygon fill="#07955c" stroke="#07955c" points="1354,-454.324 1349.9,-444.153 1350.4,-450.862 1346.79,-447.4 1346.79,-447.4 1346.79,-447.4 1350.4,-450.862 1343.67,-450.648 1354,-454.324 1354,-454.324"/>
</g>
<!-- Team&#45;&gt;PaperTrail::Version -->
<g id="edge22" class="edge"><title>Team&#45;&gt;PaperTrail::Version</title>
<path fill="none" stroke="#0c54a2" d="M1347.38,-502.905C1198.7,-502.012 721,-494.222 721,-431 721,-431 721,-431 721,-237 721,-141.874 751.643,-104.909 832,-54 840.928,-48.3436 850.927,-43.1722 860.751,-38.6412"/>
<ellipse fill="none" stroke="#0c54a2" cx="1351.45" cy="-502.927" rx="4" ry="4"/>
<polygon fill="#0c54a2" stroke="#0c54a2" points="860.937,-38.5586 871.903,-38.6107 865.506,-36.5285 870.076,-34.4983 870.076,-34.4983 870.076,-34.4983 865.506,-36.5285 868.249,-30.3859 860.937,-38.5586 860.937,-38.5586"/>
<text text-anchor="middle" x="751.5" y="-278.3" font-family="Times,serif" font-size="14.00">versions</text>
</g>
<!-- Source&#45;&gt;Project -->
<g id="edge31" class="edge"><title>Source&#45;&gt;Project</title>
<path fill="none" stroke="#5fe56b" d="M1521.53,-345.263C1454.8,-331.574 1333.88,-306.769 1266.55,-292.96"/>
<polygon fill="#5fe56b" stroke="#5fe56b" points="1521.64,-345.285 1530.53,-351.703 1526.54,-346.29 1531.44,-347.295 1531.44,-347.295 1531.44,-347.295 1526.54,-346.29 1532.34,-342.887 1521.64,-345.285 1521.64,-345.285"/>
<polygon fill="#5fe56b" stroke="#5fe56b" points="1266.42,-292.933 1257.53,-286.515 1261.52,-291.928 1256.63,-290.923 1256.63,-290.923 1256.63,-290.923 1261.52,-291.928 1255.72,-295.331 1266.42,-292.933 1266.42,-292.933"/>
</g>
<!-- Source&#45;&gt;AccountSource -->
<g id="edge30" class="edge"><title>Source&#45;&gt;AccountSource</title>
<path fill="none" stroke="#e3ddc5" d="M1602.93,-338.381C1624.45,-327.843 1652.41,-314.149 1675.14,-303.014"/>
<ellipse fill="none" stroke="#e3ddc5" cx="1599.21" cy="-340.202" rx="4.00002" ry="4.00002"/>
<polygon fill="#e3ddc5" stroke="#e3ddc5" points="1675.23,-302.971 1686.19,-302.614 1679.72,-300.772 1684.21,-298.573 1684.21,-298.573 1684.21,-298.573 1679.72,-300.772 1682.23,-294.531 1675.23,-302.971 1675.23,-302.971"/>
</g>
<!-- ProjectSource -->
<g id="node25" class="node"><title>ProjectSource</title>
<ellipse fill="none" stroke="black" cx="1443" cy="-194" rx="76.5394" ry="18"/>
<text text-anchor="middle" x="1443" y="-190.3" font-family="Times,serif" font-size="14.00">ProjectSource</text>
</g>
<!-- Source&#45;&gt;ProjectSource -->
<g id="edge29" class="edge"><title>Source&#45;&gt;ProjectSource</title>
<path fill="none" stroke="#df7d3a" d="M1561.7,-330.189C1552.62,-302.865 1534.83,-258.97 1507,-230 1501.51,-224.285 1494.88,-219.273 1487.99,-214.961"/>
<ellipse fill="none" stroke="#df7d3a" cx="1563.02" cy="-334.293" rx="4.00001" ry="4.00001"/>
<polygon fill="#df7d3a" stroke="#df7d3a" points="1487.86,-214.883 1481.46,-205.979 1483.53,-212.379 1479.2,-209.874 1479.2,-209.874 1479.2,-209.874 1483.53,-212.379 1476.95,-213.769 1487.86,-214.883 1487.86,-214.883"/>
</g>
<!-- Source&#45;&gt;PaperTrail::Version -->
<g id="edge28" class="edge"><title>Source&#45;&gt;PaperTrail::Version</title>
<path fill="none" stroke="#35f00c" d="M1581.69,-330.913C1598.54,-295.445 1623.56,-227.775 1600,-176 1575.34,-121.809 1550.51,-117.858 1499,-88 1459.11,-64.8795 1446.16,-63.281 1401,-54 1272.44,-27.578 1121.33,-20.2878 1021.48,-18.6678"/>
<ellipse fill="none" stroke="#35f00c" cx="1579.79" cy="-334.795" rx="4.00002" ry="4.00002"/>
<polygon fill="#35f00c" stroke="#35f00c" points="1021.38,-18.6664 1011.45,-14.0209 1016.38,-18.5934 1011.38,-18.5204 1011.38,-18.5204 1011.38,-18.5204 1016.38,-18.5934 1011.32,-23.02 1021.38,-18.6664 1021.38,-18.6664"/>
<text text-anchor="middle" x="1639.5" y="-190.3" font-family="Times,serif" font-size="14.00">versions</text>
</g>
<!-- ClaimSource -->
<g id="node16" class="node"><title>ClaimSource</title>
<ellipse fill="none" stroke="black" cx="1481" cy="-652" rx="70.2909" ry="18"/>
<text text-anchor="middle" x="1481" y="-648.3" font-family="Times,serif" font-size="14.00">ClaimSource</text>
</g>
<!-- Link -->
<g id="node17" class="node"><title>Link</title>
<ellipse fill="none" stroke="black" cx="1042" cy="-356" rx="31.2735" ry="18"/>
<text text-anchor="middle" x="1042" y="-352.3" font-family="Times,serif" font-size="14.00">Link</text>
</g>
<!-- Link&#45;&gt;ProjectMedia -->
<g id="edge33" class="edge"><title>Link&#45;&gt;ProjectMedia</title>
<path fill="none" stroke="#ba95cd" d="M1047.07,-329.849C1056.52,-282.968 1076.76,-182.608 1086.51,-134.209"/>
<ellipse fill="none" stroke="#ba95cd" cx="1046.23" cy="-334.033" rx="4.00001" ry="4.00001"/>
<polygon fill="#ba95cd" stroke="#ba95cd" points="1086.56,-133.968 1092.95,-125.055 1087.55,-129.067 1088.54,-124.165 1088.54,-124.165 1088.54,-124.165 1087.55,-129.067 1084.13,-123.276 1086.56,-133.968 1086.56,-133.968"/>
</g>
<!-- Link&#45;&gt;Project -->
<g id="edge34" class="edge"><title>Link&#45;&gt;Project</title>
<path fill="none" stroke="#7022ab" d="M1076.17,-340.812C1078.48,-339.859 1080.77,-338.915 1083,-338 1115.11,-324.804 1151.56,-309.961 1178.49,-299.023"/>
<polygon fill="#7022ab" stroke="#7022ab" points="1075.95,-340.906 1064.99,-340.569 1071.33,-342.816 1066.71,-344.727 1066.71,-344.727 1066.71,-344.727 1071.33,-342.816 1068.43,-348.886 1075.95,-340.906 1075.95,-340.906"/>
<polygon fill="#7022ab" stroke="#7022ab" points="1178.69,-298.942 1189.64,-299.349 1183.32,-297.061 1187.95,-295.18 1187.95,-295.18 1187.95,-295.18 1183.32,-297.061 1186.26,-291.011 1178.69,-298.942 1178.69,-298.942"/>
</g>
<!-- Link&#45;&gt;PaperTrail::Version -->
<g id="edge32" class="edge"><title>Link&#45;&gt;PaperTrail::Version</title>
<path fill="none" stroke="#718f6d" d="M1011.57,-339.303C972.195,-317.064 905.418,-272.284 878,-212 852.722,-156.42 879.594,-83.9185 897.921,-45.5345"/>
<ellipse fill="none" stroke="#718f6d" cx="1015.55" cy="-341.512" rx="4.00002" ry="4.00002"/>
<polygon fill="#718f6d" stroke="#718f6d" points="898.155,-45.0623 906.621,-38.0924 900.371,-40.5802 902.587,-36.0981 902.587,-36.0981 902.587,-36.0981 900.371,-40.5802 898.553,-34.1037 898.155,-45.0623 898.155,-45.0623"/>
<text text-anchor="middle" x="908.5" y="-190.3" font-family="Times,serif" font-size="14.00">versions</text>
</g>
<!-- Project&#45;&gt;ProjectMedia -->
<g id="edge37" class="edge"><title>Project&#45;&gt;ProjectMedia</title>
<path fill="none" stroke="#13fa88" d="M1197.4,-258.803C1194.06,-254.696 1190.78,-250.332 1188,-246 1160.51,-203.155 1172.27,-181.373 1140,-142 1136.23,-137.401 1131.72,-133.098 1127,-129.192"/>
<ellipse fill="none" stroke="#13fa88" cx="1200.08" cy="-261.953" rx="4.00002" ry="4.00002"/>
<polygon fill="#13fa88" stroke="#13fa88" points="1126.88,-129.099 1121.69,-119.439 1122.92,-126.053 1118.95,-123.008 1118.95,-123.008 1118.95,-123.008 1122.92,-126.053 1116.21,-126.578 1126.88,-129.099 1126.88,-129.099"/>
</g>
<!-- Project&#45;&gt;Media -->
<g id="edge38" class="edge"><title>Project&#45;&gt;Media</title>
<path fill="none" stroke="#d36b7f" d="M1239.02,-257.487C1247.21,-248.64 1256.82,-238.638 1266,-230 1270.72,-225.56 1275.9,-220.999 1280.98,-216.698"/>
<polygon fill="#d36b7f" stroke="#d36b7f" points="1238.98,-257.525 1228.91,-261.862 1235.61,-261.213 1232.23,-264.901 1232.23,-264.901 1232.23,-264.901 1235.61,-261.213 1235.55,-267.94 1238.98,-257.525 1238.98,-257.525"/>
<polygon fill="#d36b7f" stroke="#d36b7f" points="1281.08,-216.609 1291.65,-213.665 1284.92,-213.409 1288.76,-210.208 1288.76,-210.208 1288.76,-210.208 1284.92,-213.409 1285.88,-206.751 1281.08,-216.609 1281.08,-216.609"/>
</g>
<!-- Project&#45;&gt;ProjectSource -->
<g id="edge36" class="edge"><title>Project&#45;&gt;ProjectSource</title>
<path fill="none" stroke="#5e1e74" d="M1256.97,-266.103C1295.26,-251.471 1353.75,-229.113 1394.9,-213.383"/>
<ellipse fill="none" stroke="#5e1e74" cx="1253.02" cy="-267.614" rx="4.00001" ry="4.00001"/>
<polygon fill="#5e1e74" stroke="#5e1e74" points="1395.11,-213.305 1406.06,-213.938 1399.78,-211.52 1404.45,-209.735 1404.45,-209.735 1404.45,-209.735 1399.78,-211.52 1402.84,-205.532 1395.11,-213.305 1395.11,-213.305"/>
</g>
<!-- Project&#45;&gt;PaperTrail::Version -->
<g id="edge35" class="edge"><title>Project&#45;&gt;PaperTrail::Version</title>
<path fill="none" stroke="#1aeccc" d="M1219.36,-255.713C1220.15,-215.317 1215.76,-135.912 1174,-88 1150.96,-61.5655 1065.89,-42.5176 998.854,-31.2189"/>
<ellipse fill="none" stroke="#1aeccc" cx="1219.24" cy="-259.949" rx="4" ry="4"/>
<polygon fill="#1aeccc" stroke="#1aeccc" points="998.551,-31.1688 989.417,-25.1002 993.618,-30.3545 988.684,-29.5401 988.684,-29.5401 988.684,-29.5401 993.618,-30.3545 987.951,-33.98 998.551,-31.1688 998.551,-31.1688"/>
<text text-anchor="middle" x="1239.5" y="-146.3" font-family="Times,serif" font-size="14.00">versions</text>
</g>
<!-- Claim -->
<g id="node19" class="node"><title>Claim</title>
<ellipse fill="none" stroke="black" cx="1130" cy="-356" rx="38.0212" ry="18"/>
<text text-anchor="middle" x="1130" y="-352.3" font-family="Times,serif" font-size="14.00">Claim</text>
</g>
<!-- Claim&#45;&gt;ProjectMedia -->
<g id="edge40" class="edge"><title>Claim&#45;&gt;ProjectMedia</title>
<path fill="none" stroke="#19a579" d="M1127.88,-329.572C1124.26,-289.425 1115.9,-209.027 1102,-142 1101.44,-139.308 1100.78,-136.521 1100.08,-133.748"/>
<ellipse fill="none" stroke="#19a579" cx="1128.25" cy="-333.754" rx="4" ry="4"/>
<polygon fill="#19a579" stroke="#19a579" points="1100.04,-133.608 1101.73,-122.773 1098.72,-128.786 1097.39,-123.964 1097.39,-123.964 1097.39,-123.964 1098.72,-128.786 1093.05,-125.156 1100.04,-133.608 1100.04,-133.608"/>
</g>
<!-- Claim&#45;&gt;Project -->
<g id="edge41" class="edge"><title>Claim&#45;&gt;Project</title>
<path fill="none" stroke="#6e3323" d="M1156.01,-333.722C1167.16,-324.599 1180.17,-313.953 1191.39,-304.776"/>
<polygon fill="#6e3323" stroke="#6e3323" points="1155.97,-333.749 1145.38,-336.599 1152.1,-336.915 1148.23,-340.082 1148.23,-340.082 1148.23,-340.082 1152.1,-336.915 1151.08,-343.564 1155.97,-333.749 1155.97,-333.749"/>
<polygon fill="#6e3323" stroke="#6e3323" points="1191.44,-304.729 1202.03,-301.879 1195.31,-301.562 1199.18,-298.396 1199.18,-298.396 1199.18,-298.396 1195.31,-301.562 1196.33,-294.913 1191.44,-304.729 1191.44,-304.729"/>
</g>
<!-- Claim&#45;&gt;PaperTrail::Version -->
<g id="edge39" class="edge"><title>Claim&#45;&gt;PaperTrail::Version</title>
<path fill="none" stroke="#0f713c" d="M1114.73,-331.459C1075.2,-270.541 969.79,-108.07 928.714,-44.7607"/>
<ellipse fill="none" stroke="#0f713c" cx="1117.01" cy="-334.982" rx="4.00002" ry="4.00002"/>
<polygon fill="#0f713c" stroke="#0f713c" points="928.579,-44.5523 926.911,-33.714 925.857,-40.3578 923.136,-36.1633 923.136,-36.1633 923.136,-36.1633 925.857,-40.3578 919.361,-38.6126 928.579,-44.5523 928.579,-44.5523"/>
<text text-anchor="middle" x="1067.5" y="-190.3" font-family="Times,serif" font-size="14.00">versions</text>
</g>
<!-- Media&#45;&gt;ProjectMedia -->
<g id="edge43" class="edge"><title>Media&#45;&gt;ProjectMedia</title>
<path fill="none" stroke="#1f1770" d="M1299.72,-168.219C1295.31,-158.638 1288.91,-148.448 1280,-142 1262.28,-129.18 1213.02,-120.286 1169.36,-114.672"/>
<ellipse fill="none" stroke="#1f1770" cx="1301.29" cy="-171.999" rx="4.00002" ry="4.00002"/>
<polygon fill="#1f1770" stroke="#1f1770" points="1169.2,-114.653 1159.83,-108.954 1164.24,-114.036 1159.28,-113.42 1159.28,-113.42 1159.28,-113.42 1164.24,-114.036 1158.72,-117.885 1169.2,-114.653 1169.2,-114.653"/>
</g>
<!-- Media&#45;&gt;PaperTrail::Version -->
<g id="edge42" class="edge"><title>Media&#45;&gt;PaperTrail::Version</title>
<path fill="none" stroke="#6fb178" d="M1307.88,-167.459C1306.97,-158.982 1305,-149.74 1301,-142 1274.71,-91.1698 1258.89,-78.1304 1207,-54 1173.9,-38.6101 1087.23,-29.539 1016.34,-24.504"/>
<ellipse fill="none" stroke="#6fb178" cx="1308.17" cy="-171.607" rx="4" ry="4"/>
<polygon fill="#6fb178" stroke="#6fb178" points="1015.98,-24.4792 1006.31,-19.3008 1010.99,-24.1347 1006,-23.7901 1006,-23.7901 1006,-23.7901 1010.99,-24.1347 1005.69,-28.2794 1015.98,-24.4792 1015.98,-24.4792"/>
<text text-anchor="middle" x="1321.5" y="-102.3" font-family="Times,serif" font-size="14.00">versions</text>
</g>
<!-- BotUser&#45;&gt;Account -->
<g id="edge47" class="edge"><title>BotUser&#45;&gt;Account</title>
<path fill="none" stroke="#1cd0a2" d="M1379.28,-557.921C1395.82,-547.43 1416.61,-534.119 1435,-522 1470.81,-498.399 1511.5,-470.625 1538.56,-452.024"/>
<ellipse fill="none" stroke="#1cd0a2" cx="1375.85" cy="-560.093" rx="4.00002" ry="4.00002"/>
<polygon fill="#1cd0a2" stroke="#1cd0a2" points="1538.6,-451.994 1549.39,-450.031 1542.72,-449.159 1546.84,-446.324 1546.84,-446.324 1546.84,-446.324 1542.72,-449.159 1544.29,-442.617 1538.6,-451.994 1538.6,-451.994"/>
</g>
<!-- BotUser&#45;&gt;Team -->
<g id="edge45" class="edge"><title>BotUser&#45;&gt;Team</title>
<path fill="none" stroke="#d1dd5c" d="M1363.82,-551.592C1367.81,-544.749 1372.13,-537.345 1376.13,-530.497"/>
<polygon fill="#d1dd5c" stroke="#d1dd5c" points="1363.78,-551.663 1354.85,-558.033 1361.26,-555.982 1358.74,-560.301 1358.74,-560.301 1358.74,-560.301 1361.26,-555.982 1362.63,-562.568 1363.78,-551.663 1363.78,-551.663"/>
<polygon fill="#d1dd5c" stroke="#d1dd5c" points="1376.27,-530.246 1385.2,-523.876 1378.79,-525.928 1381.31,-521.609 1381.31,-521.609 1381.31,-521.609 1378.79,-525.928 1377.42,-519.341 1376.27,-530.246 1376.27,-530.246"/>
</g>
<!-- BotUser&#45;&gt;Project -->
<g id="edge46" class="edge"><title>BotUser&#45;&gt;Project</title>
<path fill="none" stroke="#5ed474" d="M1304.89,-563.184C1256.24,-545.297 1180.4,-508.965 1147,-448 1139.31,-433.968 1141.75,-427.115 1147,-412 1154.06,-391.672 1165.83,-392.391 1177,-374 1189.58,-353.286 1200.65,-328.043 1208.11,-309.403"/>
<ellipse fill="none" stroke="#5ed474" cx="1308.69" cy="-564.546" rx="4.00001" ry="4.00001"/>
<polygon fill="#5ed474" stroke="#5ed474" points="1208.12,-309.37 1215.96,-301.698 1209.94,-304.713 1211.77,-300.057 1211.77,-300.057 1211.77,-300.057 1209.94,-304.713 1207.58,-298.417 1208.12,-309.37 1208.12,-309.37"/>
</g>
<!-- BotUser&#45;&gt;TeamUser -->
<g id="edge44" class="edge"><title>BotUser&#45;&gt;TeamUser</title>
<path fill="none" stroke="#ca5202" d="M1345.38,-551.8C1341.64,-525.827 1335.83,-485.449 1331.97,-458.622"/>
<ellipse fill="none" stroke="#ca5202" cx="1345.98" cy="-556.007" rx="4.00001" ry="4.00001"/>
<polygon fill="#ca5202" stroke="#ca5202" points="1331.92,-458.276 1334.95,-447.737 1331.21,-453.327 1330.5,-448.378 1330.5,-448.378 1330.5,-448.378 1331.21,-453.327 1326.05,-449.019 1331.92,-458.276 1331.92,-458.276"/>
</g>
<!-- UploadedImage -->
<g id="node24" class="node"><title>UploadedImage</title>
<ellipse fill="none" stroke="black" cx="1384" cy="-356" rx="83.2649" ry="18"/>
<text text-anchor="middle" x="1384" y="-352.3" font-family="Times,serif" font-size="14.00">UploadedImage</text>
</g>
<!-- UploadedImage&#45;&gt;ProjectMedia -->
<g id="edge49" class="edge"><title>UploadedImage&#45;&gt;ProjectMedia</title>
<path fill="none" stroke="#24c2a2" d="M1356.29,-333.277C1326.21,-307.855 1279.72,-262.729 1259,-212 1253.11,-197.576 1265.13,-153.834 1255,-142 1243.47,-128.537 1205.66,-119.944 1169.36,-114.644"/>
<ellipse fill="none" stroke="#24c2a2" cx="1359.36" cy="-335.838" rx="4.00002" ry="4.00002"/>
<polygon fill="#24c2a2" stroke="#24c2a2" points="1169.09,-114.606 1159.8,-108.777 1164.13,-113.921 1159.18,-113.235 1159.18,-113.235 1159.18,-113.235 1164.13,-113.921 1158.56,-117.692 1169.09,-114.606 1169.09,-114.606"/>
</g>
<!-- UploadedImage&#45;&gt;Project -->
<g id="edge50" class="edge"><title>UploadedImage&#45;&gt;Project</title>
<path fill="none" stroke="#655eaa" d="M1339.21,-335.572C1313.4,-324.377 1281.28,-310.449 1256.6,-299.741"/>
<polygon fill="#655eaa" stroke="#655eaa" points="1339.21,-335.575 1346.6,-343.683 1343.8,-337.565 1348.39,-339.554 1348.39,-339.554 1348.39,-339.554 1343.8,-337.565 1350.18,-335.426 1339.21,-335.575 1339.21,-335.575"/>
<polygon fill="#655eaa" stroke="#655eaa" points="1256.37,-299.641 1248.98,-291.533 1251.78,-297.651 1247.19,-295.662 1247.19,-295.662 1247.19,-295.662 1251.78,-297.651 1245.4,-299.79 1256.37,-299.641 1256.37,-299.641"/>
</g>
<!-- UploadedImage&#45;&gt;PaperTrail::Version -->
<g id="edge48" class="edge"><title>UploadedImage&#45;&gt;PaperTrail::Version</title>
<path fill="none" stroke="#cd960d" d="M1416.88,-334.191C1451.99,-309.811 1505.6,-265.823 1528,-212 1552.07,-154.169 1513.96,-121.458 1461,-88 1389.79,-43.0119 1158.53,-27.281 1019.9,-21.8344"/>
<ellipse fill="none" stroke="#cd960d" cx="1413.43" cy="-336.549" rx="4.00002" ry="4.00002"/>
<polygon fill="#cd960d" stroke="#cd960d" points="1019.67,-21.8255 1009.85,-16.9478 1014.67,-21.635 1009.68,-21.4445 1009.68,-21.4445 1009.68,-21.4445 1014.67,-21.635 1009.5,-25.9413 1019.67,-21.8255 1019.67,-21.8255"/>
<text text-anchor="middle" x="1565.5" y="-190.3" font-family="Times,serif" font-size="14.00">versions</text>
</g>
<!-- ProjectSource&#45;&gt;PaperTrail::Version -->
<g id="edge51" class="edge"><title>ProjectSource&#45;&gt;PaperTrail::Version</title>
<path fill="none" stroke="#d44007" d="M1429.22,-169.103C1414.2,-145.139 1387.97,-108.883 1356,-88 1301.32,-52.2851 1128.21,-33.7712 1015,-25.2364"/>
<ellipse fill="none" stroke="#d44007" cx="1431.43" cy="-172.704" rx="4.00002" ry="4.00002"/>
<polygon fill="#d44007" stroke="#d44007" points="1014.89,-25.2284 1005.25,-20.0029 1009.9,-24.8595 1004.92,-24.4907 1004.92,-24.4907 1004.92,-24.4907 1009.9,-24.8595 1004.58,-28.9784 1014.89,-25.2284 1014.89,-25.2284"/>
<text text-anchor="middle" x="1426.5" y="-102.3" font-family="Times,serif" font-size="14.00">versions</text>
</g>
<!-- Bounce -->
<g id="node26" class="node"><title>Bounce</title>
<ellipse fill="none" stroke="black" cx="1615" cy="-652" rx="45.244" ry="18"/>
<text text-anchor="middle" x="1615" y="-648.3" font-family="Times,serif" font-size="14.00">Bounce</text>
</g>
</g>
</svg>
