<?xml version="1.0" encoding="UTF-8" standalone="no"?>
<!DOCTYPE svg PUBLIC "-//W3C//DTD SVG 1.1//EN"
 "http://www.w3.org/Graphics/SVG/1.1/DTD/svg11.dtd">
<!-- Generated by graphviz version 2.26.3 (20100126.1600)
 -->
<!-- Title: models_diagram Pages: 1 -->
<svg width="964pt" height="474pt"
 viewBox="0.00 0.00 964.00 474.00" xmlns="http://www.w3.org/2000/svg" xmlns:xlink="http://www.w3.org/1999/xlink">
<g id="graph1" class="graph" transform="scale(1 1) rotate(0) translate(4 470)">
<title>models_diagram</title>
<polygon fill="none" stroke="none" points="-4,5 -4,-470 961,-470 961,5 -4,5"/>
<!-- Tag -->
<g id="node1" class="node"><title>Tag</title>
<ellipse fill="none" stroke="black" cx="28" cy="-447" rx="27.7881" ry="18.3848"/>
<text text-anchor="middle" x="28" y="-443.4" font-family="Times Roman,serif" font-size="14.00">Tag</text>
</g>
<!-- Status -->
<g id="node2" class="node"><title>Status</title>
<ellipse fill="none" stroke="black" cx="118" cy="-447" rx="43.8406" ry="18.3848"/>
<text text-anchor="middle" x="118" y="-443.4" font-family="Times Roman,serif" font-size="14.00">Status</text>
</g>
<!-- Flag -->
<g id="node3" class="node"><title>Flag</title>
<ellipse fill="none" stroke="black" cx="212" cy="-447" rx="31.8198" ry="18.3848"/>
<text text-anchor="middle" x="212" y="-443.4" font-family="Times Roman,serif" font-size="14.00">Flag</text>
</g>
<!-- Embed -->
<g id="node4" class="node"><title>Embed</title>
<ellipse fill="none" stroke="black" cx="306" cy="-447" rx="44.0472" ry="18.3848"/>
<text text-anchor="middle" x="306" y="-443.4" font-family="Times Roman,serif" font-size="14.00">Embed</text>
</g>
<!-- Comment -->
<g id="node5" class="node"><title>Comment</title>
<ellipse fill="none" stroke="black" cx="426" cy="-447" rx="58.1882" ry="18.3848"/>
<text text-anchor="middle" x="426" y="-443.4" font-family="Times Roman,serif" font-size="14.00">Comment</text>
</g>
<!-- Annotation -->
<g id="node6" class="node"><title>Annotation</title>
<ellipse fill="none" stroke="black" cx="568" cy="-447" rx="65.9683" ry="18.3848"/>
<text text-anchor="middle" x="568" y="-443.4" font-family="Times Roman,serif" font-size="14.00">Annotation</text>
</g>
<!-- Source -->
<g id="node7" class="node"><title>Source</title>
<ellipse fill="none" stroke="black" cx="658" cy="-295" rx="44.7575" ry="18.3848"/>
<text text-anchor="middle" x="658" y="-291.4" font-family="Times Roman,serif" font-size="14.00">Source</text>
</g>
<!-- ProjectSource -->
<g id="node10" class="node"><title>ProjectSource</title>
<ellipse fill="none" stroke="black" cx="718" cy="-111" rx="79.196" ry="18.3848"/>
<text text-anchor="middle" x="718" y="-107.4" font-family="Times Roman,serif" font-size="14.00">ProjectSource</text>
</g>
<!-- Source&#45;&gt;ProjectSource -->
<g id="edge6" class="edge"><title>Source&#45;&gt;ProjectSource</title>
<path fill="none" stroke="#02081a" d="M666.697,-268.329C677.9,-233.974 697.29,-174.511 708.753,-139.357"/>
<ellipse fill="none" stroke="#02081a" cx="665.323" cy="-272.542" rx="4.00001" ry="4.00001"/>
<polygon fill="#02081a" stroke="#02081a" points="708.8,-139.212 716.179,-131.1 710.35,-134.459 711.901,-129.705 711.901,-129.705 711.901,-129.705 710.35,-134.459 707.622,-128.31 708.8,-139.212 708.8,-139.212"/>
</g>
<!-- Account -->
<g id="node11" class="node"><title>Account</title>
<ellipse fill="none" stroke="black" cx="602" cy="-203" rx="50.9117" ry="18.3848"/>
<text text-anchor="middle" x="602" y="-199.4" font-family="Times Roman,serif" font-size="14.00">Account</text>
</g>
<!-- Source&#45;&gt;Account -->
<g id="edge4" class="edge"><title>Source&#45;&gt;Account</title>
<path fill="none" stroke="#1e5232" d="M642.555,-269.626C635.022,-257.251 625.961,-242.364 618.315,-229.804"/>
<ellipse fill="none" stroke="#1e5232" cx="644.856" cy="-273.407" rx="4.00002" ry="4.00002"/>
<polygon fill="#1e5232" stroke="#1e5232" points="618.24,-229.68 616.885,-218.799 615.641,-225.409 613.041,-221.138 613.041,-221.138 613.041,-221.138 615.641,-225.409 609.197,-223.478 618.24,-229.68 618.24,-229.68"/>
</g>
<!-- Project -->
<g id="node12" class="node"><title>Project</title>
<ellipse fill="none" stroke="black" cx="487" cy="-203" rx="45.9619" ry="18.3848"/>
<text text-anchor="middle" x="487" y="-199.4" font-family="Times Roman,serif" font-size="14.00">Project</text>
</g>
<!-- Source&#45;&gt;Project -->
<g id="edge8" class="edge"><title>Source&#45;&gt;Project</title>
<path fill="none" stroke="#4521e4" d="M621.488,-275.356C592.632,-259.831 552.54,-238.261 523.648,-222.717"/>
<polygon fill="#4521e4" stroke="#4521e4" points="621.72,-275.481 628.394,-284.181 626.123,-277.85 630.526,-280.219 630.526,-280.219 630.526,-280.219 626.123,-277.85 632.658,-276.256 621.72,-275.481 621.72,-275.481"/>
<polygon fill="#4521e4" stroke="#4521e4" points="523.496,-222.635 516.822,-213.934 519.093,-220.266 514.689,-217.897 514.689,-217.897 514.689,-217.897 519.093,-220.266 512.557,-221.86 523.496,-222.635 523.496,-222.635"/>
</g>
<!-- PaperTrail::Version -->
<g id="node20" class="node"><title>PaperTrail::Version</title>
<ellipse fill="none" stroke="black" cx="563" cy="-19" rx="101.823" ry="18.3848"/>
<text text-anchor="middle" x="563" y="-15.4" font-family="Times Roman,serif" font-size="14.00">PaperTrail::Version</text>
</g>
<!-- Source&#45;&gt;PaperTrail::Version -->
<g id="edge2" class="edge"><title>Source&#45;&gt;PaperTrail::Version</title>
<path fill="none" stroke="#09d50b" d="M691.108,-275.493C748.505,-239.212 855.797,-158.955 806,-92 786.786,-66.1657 710.283,-46.0327 648.182,-33.5134"/>
<ellipse fill="none" stroke="#09d50b" cx="687.428" cy="-277.787" rx="4.00002" ry="4.00002"/>
<polygon fill="#09d50b" stroke="#09d50b" points="648.159,-33.5091 639.222,-27.1553 643.254,-32.5395 638.349,-31.5698 638.349,-31.5698 638.349,-31.5698 643.254,-32.5395 637.477,-35.9844 648.159,-33.5091 648.159,-33.5091"/>
<text text-anchor="middle" x="844" y="-153.4" font-family="Times Roman,serif" font-size="14.00">versions</text>
</g>
<!-- Bot -->
<g id="node8" class="node"><title>Bot</title>
<ellipse fill="none" stroke="black" cx="773" cy="-447" rx="28.9914" ry="18.3848"/>
<text text-anchor="middle" x="773" y="-443.4" font-family="Times Roman,serif" font-size="14.00">Bot</text>
</g>
<!-- Team -->
<g id="node9" class="node"><title>Team</title>
<ellipse fill="none" stroke="black" cx="689" cy="-447" rx="36.977" ry="18.3848"/>
<text text-anchor="middle" x="689" y="-443.4" font-family="Times Roman,serif" font-size="14.00">Team</text>
</g>
<!-- Team&#45;&gt;Account -->
<g id="edge14" class="edge"><title>Team&#45;&gt;Account</title>
<path fill="none" stroke="#0484b1" d="M655.665,-429.291C640.822,-419.664 624.567,-406.362 615,-390 586.021,-340.439 590.809,-270.381 596.586,-231.612"/>
<ellipse fill="none" stroke="#0484b1" cx="659.403" cy="-431.61" rx="4.00002" ry="4.00002"/>
<polygon fill="#0484b1" stroke="#0484b1" points="596.617,-231.422 602.657,-222.269 597.416,-226.486 598.214,-221.55 598.214,-221.55 598.214,-221.55 597.416,-226.486 593.772,-220.831 596.617,-231.422 596.617,-231.422"/>
</g>
<!-- Team&#45;&gt;Project -->
<g id="edge12" class="edge"><title>Team&#45;&gt;Project</title>
<path fill="none" stroke="#fc8cd9" d="M653.332,-431.253C634.244,-421.481 611.366,-407.453 595,-390 549.351,-341.319 514.968,-269.925 498.254,-230.941"/>
<ellipse fill="none" stroke="#fc8cd9" cx="657.126" cy="-433.138" rx="4.00002" ry="4.00002"/>
<polygon fill="#fc8cd9" stroke="#fc8cd9" points="498.174,-230.75 498.443,-219.788 496.235,-226.142 494.296,-221.533 494.296,-221.533 494.296,-221.533 496.235,-226.142 490.148,-223.279 498.174,-230.75 498.174,-230.75"/>
</g>
<!-- Contact -->
<g id="node13" class="node"><title>Contact</title>
<ellipse fill="none" stroke="black" cx="798" cy="-371" rx="50.2046" ry="18.3848"/>
<text text-anchor="middle" x="798" y="-367.4" font-family="Times Roman,serif" font-size="14.00">Contact</text>
</g>
<!-- Team&#45;&gt;Contact -->
<g id="edge20" class="edge"><title>Team&#45;&gt;Contact</title>
<path fill="none" stroke="#1e7500" d="M717.561,-427.086C732.341,-416.781 750.44,-404.161 765.725,-393.504"/>
<ellipse fill="none" stroke="#1e7500" cx="714.077" cy="-429.515" rx="4.00002" ry="4.00002"/>
<polygon fill="#1e7500" stroke="#1e7500" points="766.15,-393.207 776.927,-391.179 770.251,-390.348 774.353,-387.488 774.353,-387.488 774.353,-387.488 770.251,-390.348 771.779,-383.797 766.15,-393.207 766.15,-393.207"/>
</g>
<!-- TeamUser -->
<g id="node14" class="node"><title>TeamUser</title>
<ellipse fill="none" stroke="black" cx="780" cy="-295" rx="58.8978" ry="18.3848"/>
<text text-anchor="middle" x="780" y="-291.4" font-family="Times Roman,serif" font-size="14.00">TeamUser</text>
</g>
<!-- Team&#45;&gt;TeamUser -->
<g id="edge16" class="edge"><title>Team&#45;&gt;TeamUser</title>
<path fill="none" stroke="#5b80ba" d="M701.249,-421.425C710.844,-401.991 724.89,-374.808 739,-352 745.383,-341.682 753,-330.771 759.927,-321.288"/>
<ellipse fill="none" stroke="#5b80ba" cx="699.433" cy="-425.133" rx="4.00002" ry="4.00002"/>
<polygon fill="#5b80ba" stroke="#5b80ba" points="760.086,-321.073 769.655,-315.717 763.063,-317.056 766.039,-313.038 766.039,-313.038 766.039,-313.038 763.063,-317.056 762.424,-310.359 760.086,-321.073 760.086,-321.073"/>
</g>
<!-- User -->
<g id="node17" class="node"><title>User</title>
<ellipse fill="none" stroke="black" cx="658" cy="-371" rx="33.9411" ry="18.3848"/>
<text text-anchor="middle" x="658" y="-367.4" font-family="Times Roman,serif" font-size="14.00">User</text>
</g>
<!-- Team&#45;&gt;User -->
<g id="edge18" class="edge"><title>Team&#45;&gt;User</title>
<path fill="none" stroke="#6557c0" d="M677.614,-419.085C674.883,-412.392 671.97,-405.249 669.246,-398.571"/>
<polygon fill="#6557c0" stroke="#6557c0" points="677.719,-419.343 677.329,-430.302 679.607,-423.973 681.496,-428.603 681.496,-428.603 681.496,-428.603 679.607,-423.973 685.662,-426.903 677.719,-419.343 677.719,-419.343"/>
<polygon fill="#6557c0" stroke="#6557c0" points="669.212,-398.487 669.602,-387.528 667.324,-393.858 665.435,-389.228 665.435,-389.228 665.435,-389.228 667.324,-393.858 661.268,-390.928 669.212,-398.487 669.212,-398.487"/>
</g>
<!-- Team&#45;&gt;PaperTrail::Version -->
<g id="edge10" class="edge"><title>Team&#45;&gt;PaperTrail::Version</title>
<path fill="none" stroke="#760a8d" d="M724.631,-431.916C728.119,-430.55 731.618,-429.223 735,-428 807.176,-401.913 898,-447.746 898,-371 898,-371 898,-371 898,-111 898,-62.3836 765.148,-38.5139 666.769,-27.5029"/>
<ellipse fill="none" stroke="#760a8d" cx="720.777" cy="-433.456" rx="4.00001" ry="4.00001"/>
<polygon fill="#760a8d" stroke="#760a8d" points="666.703,-27.4958 657.249,-21.9399 661.732,-26.9546 656.762,-26.4134 656.762,-26.4134 656.762,-26.4134 661.732,-26.9546 656.275,-30.887 666.703,-27.4958 666.703,-27.4958"/>
<text text-anchor="middle" x="927" y="-245.4" font-family="Times Roman,serif" font-size="14.00">versions</text>
</g>
<!-- Media -->
<g id="node16" class="node"><title>Media</title>
<ellipse fill="none" stroke="black" cx="487" cy="-111" rx="39.8075" ry="18.3848"/>
<text text-anchor="middle" x="487" y="-107.4" font-family="Times Roman,serif" font-size="14.00">Media</text>
</g>
<!-- Account&#45;&gt;Media -->
<g id="edge24" class="edge"><title>Account&#45;&gt;Media</title>
<path fill="none" stroke="#b3844f" d="M571.625,-181.59C564.761,-176.58 557.566,-171.188 551,-166 538.205,-155.889 524.437,-144.172 512.961,-134.158"/>
<ellipse fill="none" stroke="#b3844f" cx="575.101" cy="-184.106" rx="4.00002" ry="4.00002"/>
<polygon fill="#b3844f" stroke="#b3844f" points="512.936,-134.136 508.392,-124.156 509.179,-130.837 505.422,-127.537 505.422,-127.537 505.422,-127.537 509.179,-130.837 502.453,-130.919 512.936,-134.136 512.936,-134.136"/>
</g>
<!-- Account&#45;&gt;PaperTrail::Version -->
<g id="edge22" class="edge"><title>Account&#45;&gt;PaperTrail::Version</title>
<path fill="none" stroke="#fb22fb" d="M589.029,-177.031C582.805,-163.372 575.874,-146.15 572,-130 565.451,-102.695 563.436,-70.6454 562.918,-48.0232"/>
<ellipse fill="none" stroke="#fb22fb" cx="590.889" cy="-181.003" rx="4.00002" ry="4.00002"/>
<polygon fill="#fb22fb" stroke="#fb22fb" points="562.914,-47.7361 567.271,-37.6727 562.843,-42.7366 562.771,-37.7371 562.771,-37.7371 562.771,-37.7371 562.843,-42.7366 558.272,-37.8014 562.914,-47.7361 562.914,-47.7361"/>
<text text-anchor="middle" x="601" y="-107.4" font-family="Times Roman,serif" font-size="14.00">versions</text>
</g>
<!-- Project&#45;&gt;ProjectSource -->
<g id="edge28" class="edge"><title>Project&#45;&gt;ProjectSource</title>
<path fill="none" stroke="#a1d68b" d="M527.693,-186.793C566.845,-171.2 626.122,-147.592 668.102,-130.873"/>
<ellipse fill="none" stroke="#a1d68b" cx="523.813" cy="-188.339" rx="4.00001" ry="4.00001"/>
<polygon fill="#a1d68b" stroke="#a1d68b" points="668.289,-130.798 679.244,-131.279 672.934,-128.948 677.579,-127.098 677.579,-127.098 677.579,-127.098 672.934,-128.948 675.914,-122.918 668.289,-130.798 668.289,-130.798"/>
</g>
<!-- ProjectMedia -->
<g id="node15" class="node"><title>ProjectMedia</title>
<ellipse fill="none" stroke="black" cx="347" cy="-19" rx="74.2462" ry="18.3848"/>
<text text-anchor="middle" x="347" y="-15.4" font-family="Times Roman,serif" font-size="14.00">ProjectMedia</text>
</g>
<!-- Project&#45;&gt;ProjectMedia -->
<g id="edge30" class="edge"><title>Project&#45;&gt;ProjectMedia</title>
<path fill="none" stroke="#0edf50" d="M438.246,-192.014C421.254,-186.373 402.965,-178.06 389,-166 354.923,-136.57 347.566,-81.5941 346.48,-47.8518"/>
<ellipse fill="none" stroke="#0edf50" cx="442.124" cy="-193.227" rx="4.00001" ry="4.00001"/>
<polygon fill="#0edf50" stroke="#0edf50" points="346.478,-47.7007 350.822,-37.6318 346.4,-42.7013 346.322,-37.7019 346.322,-37.7019 346.322,-37.7019 346.4,-42.7013 341.823,-37.772 346.478,-47.7007 346.478,-47.7007"/>
</g>
<!-- Project&#45;&gt;Media -->
<g id="edge32" class="edge"><title>Project&#45;&gt;Media</title>
<path fill="none" stroke="#9177ee" d="M487,-174.342C487,-163.283 487,-150.657 487,-139.604"/>
<polygon fill="#9177ee" stroke="#9177ee" points="487,-174.382 482.5,-184.382 487,-179.382 487,-184.382 487,-184.382 487,-184.382 487,-179.382 491.5,-184.382 487,-174.382 487,-174.382"/>
<polygon fill="#9177ee" stroke="#9177ee" points="487,-139.59 491.5,-129.59 487,-134.59 487,-129.59 487,-129.59 487,-129.59 487,-134.59 482.5,-129.59 487,-139.59 487,-139.59"/>
</g>
<!-- Project&#45;&gt;PaperTrail::Version -->
<g id="edge26" class="edge"><title>Project&#45;&gt;PaperTrail::Version</title>
<path fill="none" stroke="#52f2b5" d="M448.511,-185.707C408.461,-165.21 354.837,-129.129 380,-92 400.961,-61.0711 437.351,-43.2456 472.188,-32.9724"/>
<ellipse fill="none" stroke="#52f2b5" cx="452.23" cy="-187.563" rx="4.00002" ry="4.00002"/>
<polygon fill="#52f2b5" stroke="#52f2b5" points="472.32,-32.9359 483.158,-34.6077 477.139,-31.6032 481.958,-30.2704 481.958,-30.2704 481.958,-30.2704 477.139,-31.6032 480.759,-25.9332 472.32,-32.9359 472.32,-32.9359"/>
<text text-anchor="middle" x="409" y="-107.4" font-family="Times Roman,serif" font-size="14.00">versions</text>
</g>
<!-- Media&#45;&gt;ProjectMedia -->
<g id="edge36" class="edge"><title>Media&#45;&gt;ProjectMedia</title>
<path fill="none" stroke="#ca755b" d="M457.169,-91.3968C435.16,-76.9339 405.144,-57.2087 382,-42"/>
<ellipse fill="none" stroke="#ca755b" cx="460.539" cy="-93.6113" rx="4.00002" ry="4.00002"/>
<polygon fill="#ca755b" stroke="#ca755b" points="381.855,-41.9045 375.969,-32.652 377.676,-39.1586 373.498,-36.4127 373.498,-36.4127 373.498,-36.4127 377.676,-39.1586 371.026,-40.1733 381.855,-41.9045 381.855,-41.9045"/>
</g>
<!-- Media&#45;&gt;PaperTrail::Version -->
<g id="edge34" class="edge"><title>Media&#45;&gt;PaperTrail::Version</title>
<path fill="none" stroke="#8dde7c" d="M483.75,-84.3221C483.854,-74.7075 485.567,-64.2142 491,-56 494.855,-50.172 499.928,-45.2121 505.601,-41.003"/>
<ellipse fill="none" stroke="#8dde7c" cx="483.886" cy="-88.4678" rx="4" ry="4"/>
<polygon fill="#8dde7c" stroke="#8dde7c" points="505.889,-40.8155 516.725,-39.131 510.079,-38.0876 514.27,-35.3597 514.27,-35.3597 514.27,-35.3597 510.079,-38.0876 511.814,-31.5885 505.889,-40.8155 505.889,-40.8155"/>
<text text-anchor="middle" x="520" y="-61.4" font-family="Times Roman,serif" font-size="14.00">versions</text>
</g>
<!-- User&#45;&gt;Source -->
<g id="edge38" class="edge"><title>User&#45;&gt;Source</title>
<path fill="none" stroke="#8b8964" d="M658,-344.073C658,-336.818 658,-328.972 658,-321.727"/>
<ellipse fill="none" stroke="#8b8964" cx="658" cy="-348.213" rx="4" ry="4"/>
<ellipse fill="#8b8964" stroke="#8b8964" cx="658" cy="-317.57" rx="4" ry="4"/>
</g>
<!-- User&#45;&gt;Project -->
<g id="edge42" class="edge"><title>User&#45;&gt;Project</title>
<path fill="none" stroke="#001eed" d="M635.206,-348.606C603.203,-317.165 545.165,-260.144 512.008,-227.57"/>
<ellipse fill="none" stroke="#001eed" cx="638.439" cy="-351.782" rx="4.00002" ry="4.00002"/>
<polygon fill="#001eed" stroke="#001eed" points="511.673,-227.24 507.694,-217.022 508.107,-223.736 504.54,-220.232 504.54,-220.232 504.54,-220.232 508.107,-223.736 501.386,-223.442 511.673,-227.24 511.673,-227.24"/>
</g>
<!-- User&#45;&gt;TeamUser -->
<g id="edge40" class="edge"><title>User&#45;&gt;TeamUser</title>
<path fill="none" stroke="#262d1f" d="M682.424,-349.44C689.757,-343.447 697.987,-337.17 706,-332 715.518,-325.859 726.194,-319.991 736.411,-314.809"/>
<ellipse fill="none" stroke="#262d1f" cx="679.045" cy="-352.261" rx="4.00002" ry="4.00002"/>
<polygon fill="#262d1f" stroke="#262d1f" points="736.656,-314.689 747.614,-314.29 741.138,-312.472 745.62,-310.256 745.62,-310.256 745.62,-310.256 741.138,-312.472 743.625,-306.222 736.656,-314.689 736.656,-314.689"/>
</g>
<!-- ApiKey -->
<g id="node18" class="node"><title>ApiKey</title>
<ellipse fill="none" stroke="black" cx="864" cy="-447" rx="44.0472" ry="18.3848"/>
<text text-anchor="middle" x="864" y="-443.4" font-family="Times Roman,serif" font-size="14.00">ApiKey</text>
</g>
</g>
</svg>
