<?xml version="1.0" encoding="UTF-8" standalone="no"?>
<!DOCTYPE svg PUBLIC "-//W3C//DTD SVG 1.1//EN"
 "http://www.w3.org/Graphics/SVG/1.1/DTD/svg11.dtd">
<!-- Generated by graphviz version 2.26.3 (20100126.1600)
 -->
<!-- Title: models_diagram Pages: 1 -->
<svg width="827pt" height="1506pt"
 viewBox="0.00 0.00 827.00 1506.00" xmlns="http://www.w3.org/2000/svg" xmlns:xlink="http://www.w3.org/1999/xlink">
<g id="graph1" class="graph" transform="scale(1 1) rotate(0) translate(4 1502)">
<title>models_diagram</title>
<polygon fill="none" stroke="none" points="-4,5 -4,-1502 824,-1502 824,5 -4,5"/>
<!-- Comment -->
<g id="node1" class="node"><title>Comment</title>
<polyline fill="none" stroke="black" points="12,-1265 170,-1265 "/>
<path fill="none" stroke="black" d="M170,-1265C176,-1265 182,-1271 182,-1277"/>
<polyline fill="none" stroke="black" points="182,-1277 182,-1485 "/>
<path fill="none" stroke="black" d="M182,-1485C182,-1491 176,-1497 170,-1497"/>
<polyline fill="none" stroke="black" points="170,-1497 12,-1497 "/>
<path fill="none" stroke="black" d="M12,-1497C6,-1497 0,-1491 0,-1485"/>
<polyline fill="none" stroke="black" points="0,-1485 0,-1277 "/>
<path fill="none" stroke="black" d="M0,-1277C0,-1271 6,-1265 12,-1265"/>
<text text-anchor="middle" x="91" y="-1480.4" font-family="Times Roman,serif" font-size="14.00">Comment</text>
<polyline fill="none" stroke="black" points="0,-1471 182,-1471 "/>
<text text-anchor="start" x="8" y="-1454.4" font-family="Times Roman,serif" font-size="14.00">created_at :Time</text>
<text text-anchor="start" x="8" y="-1436.4" font-family="Times Roman,serif" font-size="14.00">updated_at :Time</text>
<text text-anchor="start" x="8" y="-1418.4" font-family="Times Roman,serif" font-size="14.00">annotation_type :String</text>
<text text-anchor="start" x="8" y="-1400.4" font-family="Times Roman,serif" font-size="14.00">version_index :Integer</text>
<text text-anchor="start" x="8" y="-1382.4" font-family="Times Roman,serif" font-size="14.00">annotated_type :String</text>
<text text-anchor="start" x="8" y="-1364.4" font-family="Times Roman,serif" font-size="14.00">annotated_id :String</text>
<text text-anchor="start" x="8" y="-1346.4" font-family="Times Roman,serif" font-size="14.00">context_type :String</text>
<text text-anchor="start" x="8" y="-1328.4" font-family="Times Roman,serif" font-size="14.00">context_id :String</text>
<text text-anchor="start" x="8" y="-1310.4" font-family="Times Roman,serif" font-size="14.00">annotator_type :String</text>
<text text-anchor="start" x="8" y="-1292.4" font-family="Times Roman,serif" font-size="14.00">annotator_id :String</text>
<text text-anchor="start" x="8" y="-1274.4" font-family="Times Roman,serif" font-size="14.00">text :String</text>
</g>
<!-- Annotation -->
<g id="node2" class="node"><title>Annotation</title>
<polyline fill="none" stroke="black" points="212,-1274 370,-1274 "/>
<path fill="none" stroke="black" d="M370,-1274C376,-1274 382,-1280 382,-1286"/>
<polyline fill="none" stroke="black" points="382,-1286 382,-1476 "/>
<path fill="none" stroke="black" d="M382,-1476C382,-1482 376,-1488 370,-1488"/>
<polyline fill="none" stroke="black" points="370,-1488 212,-1488 "/>
<path fill="none" stroke="black" d="M212,-1488C206,-1488 200,-1482 200,-1476"/>
<polyline fill="none" stroke="black" points="200,-1476 200,-1286 "/>
<path fill="none" stroke="black" d="M200,-1286C200,-1280 206,-1274 212,-1274"/>
<text text-anchor="middle" x="291" y="-1471.4" font-family="Times Roman,serif" font-size="14.00">Annotation</text>
<polyline fill="none" stroke="black" points="200,-1462 382,-1462 "/>
<text text-anchor="start" x="208" y="-1445.4" font-family="Times Roman,serif" font-size="14.00">created_at :Time</text>
<text text-anchor="start" x="208" y="-1427.4" font-family="Times Roman,serif" font-size="14.00">updated_at :Time</text>
<text text-anchor="start" x="208" y="-1409.4" font-family="Times Roman,serif" font-size="14.00">annotation_type :String</text>
<text text-anchor="start" x="208" y="-1391.4" font-family="Times Roman,serif" font-size="14.00">version_index :Integer</text>
<text text-anchor="start" x="208" y="-1373.4" font-family="Times Roman,serif" font-size="14.00">annotated_type :String</text>
<text text-anchor="start" x="208" y="-1355.4" font-family="Times Roman,serif" font-size="14.00">annotated_id :String</text>
<text text-anchor="start" x="208" y="-1337.4" font-family="Times Roman,serif" font-size="14.00">context_type :String</text>
<text text-anchor="start" x="208" y="-1319.4" font-family="Times Roman,serif" font-size="14.00">context_id :String</text>
<text text-anchor="start" x="208" y="-1301.4" font-family="Times Roman,serif" font-size="14.00">annotator_type :String</text>
<text text-anchor="start" x="208" y="-1283.4" font-family="Times Roman,serif" font-size="14.00">annotator_id :String</text>
</g>
<!-- Source -->
<g id="node3" class="node"><title>Source</title>
<polyline fill="none" stroke="black" points="548.5,-649 689.5,-649 "/>
<path fill="none" stroke="black" d="M689.5,-649C695.5,-649 701.5,-655 701.5,-661"/>
<polyline fill="none" stroke="black" points="701.5,-661 701.5,-797 "/>
<path fill="none" stroke="black" d="M701.5,-797C701.5,-803 695.5,-809 689.5,-809"/>
<polyline fill="none" stroke="black" points="689.5,-809 548.5,-809 "/>
<path fill="none" stroke="black" d="M548.5,-809C542.5,-809 536.5,-803 536.5,-797"/>
<polyline fill="none" stroke="black" points="536.5,-797 536.5,-661 "/>
<path fill="none" stroke="black" d="M536.5,-661C536.5,-655 542.5,-649 548.5,-649"/>
<text text-anchor="middle" x="619" y="-792.4" font-family="Times Roman,serif" font-size="14.00">Source</text>
<polyline fill="none" stroke="black" points="536.5,-783 701.5,-783 "/>
<text text-anchor="start" x="544.5" y="-766.4" font-family="Times Roman,serif" font-size="14.00">id :INTEGER</text>
<text text-anchor="start" x="544.5" y="-748.4" font-family="Times Roman,serif" font-size="14.00">user_id :integer</text>
<text text-anchor="start" x="544.5" y="-730.4" font-family="Times Roman,serif" font-size="14.00">name :varchar</text>
<text text-anchor="start" x="544.5" y="-712.4" font-family="Times Roman,serif" font-size="14.00">slogan :varchar</text>
<text text-anchor="start" x="544.5" y="-694.4" font-family="Times Roman,serif" font-size="14.00">avatar :varchar</text>
<text text-anchor="start" x="544.5" y="-676.4" font-family="Times Roman,serif" font-size="14.00">created_at :datetime</text>
<text text-anchor="start" x="544.5" y="-658.4" font-family="Times Roman,serif" font-size="14.00">updated_at :datetime</text>
</g>
<!-- ProjectSource -->
<g id="node5" class="node"><title>ProjectSource</title>
<polyline fill="none" stroke="black" points="87.5,-199 228.5,-199 "/>
<path fill="none" stroke="black" d="M228.5,-199C234.5,-199 240.5,-205 240.5,-211"/>
<polyline fill="none" stroke="black" points="240.5,-211 240.5,-311 "/>
<path fill="none" stroke="black" d="M240.5,-311C240.5,-317 234.5,-323 228.5,-323"/>
<polyline fill="none" stroke="black" points="228.5,-323 87.5,-323 "/>
<path fill="none" stroke="black" d="M87.5,-323C81.5,-323 75.5,-317 75.5,-311"/>
<polyline fill="none" stroke="black" points="75.5,-311 75.5,-211 "/>
<path fill="none" stroke="black" d="M75.5,-211C75.5,-205 81.5,-199 87.5,-199"/>
<text text-anchor="middle" x="158" y="-306.4" font-family="Times Roman,serif" font-size="14.00">ProjectSource</text>
<polyline fill="none" stroke="black" points="75.5,-297 240.5,-297 "/>
<text text-anchor="start" x="83.5" y="-280.4" font-family="Times Roman,serif" font-size="14.00">id :INTEGER</text>
<text text-anchor="start" x="83.5" y="-262.4" font-family="Times Roman,serif" font-size="14.00">project_id :integer</text>
<text text-anchor="start" x="83.5" y="-244.4" font-family="Times Roman,serif" font-size="14.00">source_id :integer</text>
<text text-anchor="start" x="83.5" y="-226.4" font-family="Times Roman,serif" font-size="14.00">created_at :datetime</text>
<text text-anchor="start" x="83.5" y="-208.4" font-family="Times Roman,serif" font-size="14.00">updated_at :datetime</text>
</g>
<!-- Source&#45;&gt;ProjectSource -->
<g id="edge6" class="edge"><title>Source&#45;&gt;ProjectSource</title>
<path fill="none" stroke="#b1842a" d="M530.593,-644.863C511.105,-624.924 494.129,-605.988 487,-594 439.934,-514.856 488.736,-463.403 426,-396 380.845,-347.486 346.221,-371.756 287,-342 274.521,-335.73 261.7,-328.599 249.21,-321.23"/>
<ellipse fill="none" stroke="#b1842a" cx="533.624" cy="-647.942" rx="4.00002" ry="4.00002"/>
<polygon fill="#b1842a" stroke="#b1842a" points="249.208,-321.229 242.933,-312.235 244.916,-318.663 240.624,-316.098 240.624,-316.098 240.624,-316.098 244.916,-318.663 238.316,-319.961 249.208,-321.229 249.208,-321.229"/>
</g>
<!-- Account -->
<g id="node6" class="node"><title>Account</title>
<polyline fill="none" stroke="black" points="507.5,-415 648.5,-415 "/>
<path fill="none" stroke="black" d="M648.5,-415C654.5,-415 660.5,-421 660.5,-427"/>
<polyline fill="none" stroke="black" points="660.5,-427 660.5,-563 "/>
<path fill="none" stroke="black" d="M660.5,-563C660.5,-569 654.5,-575 648.5,-575"/>
<polyline fill="none" stroke="black" points="648.5,-575 507.5,-575 "/>
<path fill="none" stroke="black" d="M507.5,-575C501.5,-575 495.5,-569 495.5,-563"/>
<polyline fill="none" stroke="black" points="495.5,-563 495.5,-427 "/>
<path fill="none" stroke="black" d="M495.5,-427C495.5,-421 501.5,-415 507.5,-415"/>
<text text-anchor="middle" x="578" y="-558.4" font-family="Times Roman,serif" font-size="14.00">Account</text>
<polyline fill="none" stroke="black" points="495.5,-549 660.5,-549 "/>
<text text-anchor="start" x="503.5" y="-532.4" font-family="Times Roman,serif" font-size="14.00">id :INTEGER</text>
<text text-anchor="start" x="503.5" y="-514.4" font-family="Times Roman,serif" font-size="14.00">user_id :integer</text>
<text text-anchor="start" x="503.5" y="-496.4" font-family="Times Roman,serif" font-size="14.00">source_id :integer</text>
<text text-anchor="start" x="503.5" y="-478.4" font-family="Times Roman,serif" font-size="14.00">url :varchar</text>
<text text-anchor="start" x="503.5" y="-460.4" font-family="Times Roman,serif" font-size="14.00">data :text</text>
<text text-anchor="start" x="503.5" y="-442.4" font-family="Times Roman,serif" font-size="14.00">created_at :datetime</text>
<text text-anchor="start" x="503.5" y="-424.4" font-family="Times Roman,serif" font-size="14.00">updated_at :datetime</text>
</g>
<!-- Source&#45;&gt;Account -->
<g id="edge4" class="edge"><title>Source&#45;&gt;Account</title>
<path fill="none" stroke="#c163b5" d="M603.565,-640.908C600.372,-622.681 597.003,-603.456 593.797,-585.156"/>
<ellipse fill="none" stroke="#c163b5" cx="604.257" cy="-644.858" rx="4.00001" ry="4.00001"/>
<polygon fill="#c163b5" stroke="#c163b5" points="593.76,-584.947 596.467,-574.321 592.897,-580.022 592.034,-575.097 592.034,-575.097 592.034,-575.097 592.897,-580.022 587.602,-575.874 593.76,-584.947 593.76,-584.947"/>
</g>
<!-- Project -->
<g id="node7" class="node"><title>Project</title>
<polyline fill="none" stroke="black" points="264.5,-397 405.5,-397 "/>
<path fill="none" stroke="black" d="M405.5,-397C411.5,-397 417.5,-403 417.5,-409"/>
<polyline fill="none" stroke="black" points="417.5,-409 417.5,-581 "/>
<path fill="none" stroke="black" d="M417.5,-581C417.5,-587 411.5,-593 405.5,-593"/>
<polyline fill="none" stroke="black" points="405.5,-593 264.5,-593 "/>
<path fill="none" stroke="black" d="M264.5,-593C258.5,-593 252.5,-587 252.5,-581"/>
<polyline fill="none" stroke="black" points="252.5,-581 252.5,-409 "/>
<path fill="none" stroke="black" d="M252.5,-409C252.5,-403 258.5,-397 264.5,-397"/>
<text text-anchor="middle" x="335" y="-576.4" font-family="Times Roman,serif" font-size="14.00">Project</text>
<polyline fill="none" stroke="black" points="252.5,-567 417.5,-567 "/>
<text text-anchor="start" x="260.5" y="-550.4" font-family="Times Roman,serif" font-size="14.00">id :INTEGER</text>
<text text-anchor="start" x="260.5" y="-532.4" font-family="Times Roman,serif" font-size="14.00">user_id :integer</text>
<text text-anchor="start" x="260.5" y="-514.4" font-family="Times Roman,serif" font-size="14.00">team_id :integer</text>
<text text-anchor="start" x="260.5" y="-496.4" font-family="Times Roman,serif" font-size="14.00">title :varchar</text>
<text text-anchor="start" x="260.5" y="-478.4" font-family="Times Roman,serif" font-size="14.00">description :text</text>
<text text-anchor="start" x="260.5" y="-460.4" font-family="Times Roman,serif" font-size="14.00">lead_image :varchar</text>
<text text-anchor="start" x="260.5" y="-442.4" font-family="Times Roman,serif" font-size="14.00">created_at :datetime</text>
<text text-anchor="start" x="260.5" y="-424.4" font-family="Times Roman,serif" font-size="14.00">updated_at :datetime</text>
<text text-anchor="start" x="260.5" y="-406.4" font-family="Times Roman,serif" font-size="14.00">archived :boolean</text>
</g>
<!-- Source&#45;&gt;Project -->
<g id="edge8" class="edge"><title>Source&#45;&gt;Project</title>
<path fill="none" stroke="#af2693" d="M526.977,-648.196C495.334,-634.655 480.482,-645.999 454,-630 440.38,-621.772 427.47,-611.474 415.526,-600.257"/>
<polygon fill="#af2693" stroke="#af2693" points="527.361,-648.381 534.419,-656.774 531.866,-650.55 536.371,-652.719 536.371,-652.719 536.371,-652.719 531.866,-650.55 538.323,-648.664 527.361,-648.381 527.361,-648.381"/>
<polygon fill="#af2693" stroke="#af2693" points="415.393,-600.128 411.35,-589.934 411.804,-596.646 408.216,-593.164 408.216,-593.164 408.216,-593.164 411.804,-596.646 405.082,-596.393 415.393,-600.128 415.393,-600.128"/>
</g>
<!-- PaperTrail::Version -->
<g id="node14" class="node"><title>PaperTrail::Version</title>
<ellipse fill="none" stroke="black" cx="590" cy="-63" rx="101.823" ry="18.3848"/>
<text text-anchor="middle" x="590" y="-59.4" font-family="Times Roman,serif" font-size="14.00">PaperTrail::Version</text>
</g>
<!-- Source&#45;&gt;PaperTrail::Version -->
<g id="edge2" class="edge"><title>Source&#45;&gt;PaperTrail::Version</title>
<path fill="none" stroke="#3d7d1d" d="M656.666,-640.942C661.781,-625.553 666.221,-609.503 669,-594 685.252,-503.327 673.331,-268.567 648,-180 638.74,-147.623 620.7,-113.429 607.186,-90.4267"/>
<ellipse fill="none" stroke="#3d7d1d" cx="655.229" cy="-645.139" rx="4.00001" ry="4.00001"/>
<polygon fill="#3d7d1d" stroke="#3d7d1d" points="607.031,-90.1689 605.753,-79.2778 604.462,-85.8796 601.892,-81.5903 601.892,-81.5903 601.892,-81.5903 604.462,-85.8796 598.032,-83.9028 607.031,-90.1689 607.031,-90.1689"/>
<text text-anchor="middle" x="702" y="-365.4" font-family="Times Roman,serif" font-size="14.00">versions</text>
</g>
<!-- Team -->
<g id="node4" class="node"><title>Team</title>
<polyline fill="none" stroke="black" points="411.5,-1292 552.5,-1292 "/>
<path fill="none" stroke="black" d="M552.5,-1292C558.5,-1292 564.5,-1298 564.5,-1304"/>
<polyline fill="none" stroke="black" points="564.5,-1304 564.5,-1458 "/>
<path fill="none" stroke="black" d="M564.5,-1458C564.5,-1464 558.5,-1470 552.5,-1470"/>
<polyline fill="none" stroke="black" points="552.5,-1470 411.5,-1470 "/>
<path fill="none" stroke="black" d="M411.5,-1470C405.5,-1470 399.5,-1464 399.5,-1458"/>
<polyline fill="none" stroke="black" points="399.5,-1458 399.5,-1304 "/>
<path fill="none" stroke="black" d="M399.5,-1304C399.5,-1298 405.5,-1292 411.5,-1292"/>
<text text-anchor="middle" x="482" y="-1453.4" font-family="Times Roman,serif" font-size="14.00">Team</text>
<polyline fill="none" stroke="black" points="399.5,-1444 564.5,-1444 "/>
<text text-anchor="start" x="407.5" y="-1427.4" font-family="Times Roman,serif" font-size="14.00">id :INTEGER</text>
<text text-anchor="start" x="407.5" y="-1409.4" font-family="Times Roman,serif" font-size="14.00">name :varchar</text>
<text text-anchor="start" x="407.5" y="-1391.4" font-family="Times Roman,serif" font-size="14.00">logo :varchar</text>
<text text-anchor="start" x="407.5" y="-1373.4" font-family="Times Roman,serif" font-size="14.00">private :boolean</text>
<text text-anchor="start" x="407.5" y="-1355.4" font-family="Times Roman,serif" font-size="14.00">archived :boolean</text>
<text text-anchor="start" x="407.5" y="-1337.4" font-family="Times Roman,serif" font-size="14.00">created_at :datetime</text>
<text text-anchor="start" x="407.5" y="-1319.4" font-family="Times Roman,serif" font-size="14.00">updated_at :datetime</text>
<text text-anchor="start" x="407.5" y="-1301.4" font-family="Times Roman,serif" font-size="14.00">description :text</text>
</g>
<!-- Team&#45;&gt;Project -->
<g id="edge12" class="edge"><title>Team&#45;&gt;Project</title>
<path fill="none" stroke="#d6de1a" d="M449.657,-1283.86C443.767,-1264.78 437.934,-1244.84 433,-1226 385.139,-1043.28 368.713,-997.518 346,-810 337.71,-741.559 334.916,-664.191 334.215,-603.258"/>
<ellipse fill="none" stroke="#d6de1a" cx="450.905" cy="-1287.87" rx="4.00001" ry="4.00001"/>
<polygon fill="#d6de1a" stroke="#d6de1a" points="334.215,-603.238 338.617,-593.195 334.166,-598.239 334.117,-593.239 334.117,-593.239 334.117,-593.239 334.166,-598.239 329.618,-593.283 334.215,-603.238 334.215,-603.238"/>
</g>
<!-- TeamUser -->
<g id="node8" class="node"><title>TeamUser</title>
<polyline fill="none" stroke="black" points="366.5,-667 507.5,-667 "/>
<path fill="none" stroke="black" d="M507.5,-667C513.5,-667 519.5,-673 519.5,-679"/>
<polyline fill="none" stroke="black" points="519.5,-679 519.5,-779 "/>
<path fill="none" stroke="black" d="M519.5,-779C519.5,-785 513.5,-791 507.5,-791"/>
<polyline fill="none" stroke="black" points="507.5,-791 366.5,-791 "/>
<path fill="none" stroke="black" d="M366.5,-791C360.5,-791 354.5,-785 354.5,-779"/>
<polyline fill="none" stroke="black" points="354.5,-779 354.5,-679 "/>
<path fill="none" stroke="black" d="M354.5,-679C354.5,-673 360.5,-667 366.5,-667"/>
<text text-anchor="middle" x="437" y="-774.4" font-family="Times Roman,serif" font-size="14.00">TeamUser</text>
<polyline fill="none" stroke="black" points="354.5,-765 519.5,-765 "/>
<text text-anchor="start" x="362.5" y="-748.4" font-family="Times Roman,serif" font-size="14.00">id :INTEGER</text>
<text text-anchor="start" x="362.5" y="-730.4" font-family="Times Roman,serif" font-size="14.00">team_id :integer</text>
<text text-anchor="start" x="362.5" y="-712.4" font-family="Times Roman,serif" font-size="14.00">user_id :integer</text>
<text text-anchor="start" x="362.5" y="-694.4" font-family="Times Roman,serif" font-size="14.00">created_at :datetime</text>
<text text-anchor="start" x="362.5" y="-676.4" font-family="Times Roman,serif" font-size="14.00">updated_at :datetime</text>
</g>
<!-- Team&#45;&gt;TeamUser -->
<g id="edge14" class="edge"><title>Team&#45;&gt;TeamUser</title>
<path fill="none" stroke="#e4d9f5" d="M463.74,-1283.79C460.705,-1264.69 457.924,-1244.76 456,-1226 440.573,-1075.58 437.361,-898.386 436.871,-801.437"/>
<ellipse fill="none" stroke="#e4d9f5" cx="464.415" cy="-1287.98" rx="4.00001" ry="4.00001"/>
<polygon fill="#e4d9f5" stroke="#e4d9f5" points="436.87,-801.164 441.328,-791.145 436.849,-796.164 436.828,-791.164 436.828,-791.164 436.828,-791.164 436.849,-796.164 432.328,-791.183 436.87,-801.164 436.87,-801.164"/>
</g>
<!-- User -->
<g id="node11" class="node"><title>User</title>
<polyline fill="none" stroke="black" points="477,-849 707,-849 "/>
<path fill="none" stroke="black" d="M707,-849C713,-849 719,-855 719,-861"/>
<polyline fill="none" stroke="black" points="719,-861 719,-1213 "/>
<path fill="none" stroke="black" d="M719,-1213C719,-1219 713,-1225 707,-1225"/>
<polyline fill="none" stroke="black" points="707,-1225 477,-1225 "/>
<path fill="none" stroke="black" d="M477,-1225C471,-1225 465,-1219 465,-1213"/>
<polyline fill="none" stroke="black" points="465,-1213 465,-861 "/>
<path fill="none" stroke="black" d="M465,-861C465,-855 471,-849 477,-849"/>
<text text-anchor="middle" x="592" y="-1208.4" font-family="Times Roman,serif" font-size="14.00">User</text>
<polyline fill="none" stroke="black" points="465,-1199 719,-1199 "/>
<text text-anchor="start" x="473" y="-1182.4" font-family="Times Roman,serif" font-size="14.00">id :INTEGER</text>
<text text-anchor="start" x="473" y="-1164.4" font-family="Times Roman,serif" font-size="14.00">name :varchar</text>
<text text-anchor="start" x="473" y="-1146.4" font-family="Times Roman,serif" font-size="14.00">login :varchar</text>
<text text-anchor="start" x="473" y="-1128.4" font-family="Times Roman,serif" font-size="14.00">uuid :varchar</text>
<text text-anchor="start" x="473" y="-1110.4" font-family="Times Roman,serif" font-size="14.00">provider :varchar</text>
<text text-anchor="start" x="473" y="-1092.4" font-family="Times Roman,serif" font-size="14.00">token :varchar</text>
<text text-anchor="start" x="473" y="-1074.4" font-family="Times Roman,serif" font-size="14.00">email :varchar</text>
<text text-anchor="start" x="473" y="-1056.4" font-family="Times Roman,serif" font-size="14.00">encrypted_password :varchar</text>
<text text-anchor="start" x="473" y="-1038.4" font-family="Times Roman,serif" font-size="14.00">reset_password_token :varchar</text>
<text text-anchor="start" x="473" y="-1020.4" font-family="Times Roman,serif" font-size="14.00">reset_password_sent_at :datetime</text>
<text text-anchor="start" x="473" y="-1002.4" font-family="Times Roman,serif" font-size="14.00">remember_created_at :datetime</text>
<text text-anchor="start" x="473" y="-984.4" font-family="Times Roman,serif" font-size="14.00">sign_in_count :integer</text>
<text text-anchor="start" x="473" y="-966.4" font-family="Times Roman,serif" font-size="14.00">current_sign_in_at :datetime</text>
<text text-anchor="start" x="473" y="-948.4" font-family="Times Roman,serif" font-size="14.00">last_sign_in_at :datetime</text>
<text text-anchor="start" x="473" y="-930.4" font-family="Times Roman,serif" font-size="14.00">current_sign_in_ip :varchar</text>
<text text-anchor="start" x="473" y="-912.4" font-family="Times Roman,serif" font-size="14.00">last_sign_in_ip :varchar</text>
<text text-anchor="start" x="473" y="-894.4" font-family="Times Roman,serif" font-size="14.00">created_at :datetime</text>
<text text-anchor="start" x="473" y="-876.4" font-family="Times Roman,serif" font-size="14.00">updated_at :datetime</text>
<text text-anchor="start" x="473" y="-858.4" font-family="Times Roman,serif" font-size="14.00">profile_image :varchar</text>
</g>
<!-- Team&#45;&gt;User -->
<g id="edge16" class="edge"><title>Team&#45;&gt;User</title>
<path fill="none" stroke="#2f95b8" d="M513.621,-1282.11C518.43,-1267.07 523.532,-1251.12 528.734,-1234.85"/>
<polygon fill="#2f95b8" stroke="#2f95b8" points="513.517,-1282.44 506.185,-1290.59 511.994,-1287.2 510.471,-1291.96 510.471,-1291.96 510.471,-1291.96 511.994,-1287.2 514.757,-1293.33 513.517,-1282.44 513.517,-1282.44"/>
<polygon fill="#2f95b8" stroke="#2f95b8" points="528.762,-1234.76 536.094,-1226.61 530.285,-1230 531.808,-1225.24 531.808,-1225.24 531.808,-1225.24 530.285,-1230 527.522,-1223.87 528.762,-1234.76 528.762,-1234.76"/>
</g>
<!-- Team&#45;&gt;PaperTrail::Version -->
<g id="edge10" class="edge"><title>Team&#45;&gt;PaperTrail::Version</title>
<path fill="none" stroke="#09b3a9" d="M546.153,-1286.01C554.461,-1277.75 563.438,-1270.2 573,-1264 632.52,-1225.42 679.568,-1277.82 728,-1226 786.225,-1163.7 761,-1122.27 761,-1037 761,-1037 761,-1037 761,-261 761,-181.518 681.098,-118.18 630.531,-86.0545"/>
<ellipse fill="none" stroke="#09b3a9" cx="543.294" cy="-1288.96" rx="4.00002" ry="4.00002"/>
<polygon fill="#09b3a9" stroke="#09b3a9" points="630.258,-85.8851 624.137,-76.7861 626.01,-83.2469 621.763,-80.6087 621.763,-80.6087 621.763,-80.6087 626.01,-83.2469 619.389,-84.4313 630.258,-85.8851 630.258,-85.8851"/>
<text text-anchor="middle" x="790" y="-617.4" font-family="Times Roman,serif" font-size="14.00">versions</text>
</g>
<!-- Media -->
<g id="node10" class="node"><title>Media</title>
<polyline fill="none" stroke="black" points="307.5,-181 448.5,-181 "/>
<path fill="none" stroke="black" d="M448.5,-181C454.5,-181 460.5,-187 460.5,-193"/>
<polyline fill="none" stroke="black" points="460.5,-193 460.5,-329 "/>
<path fill="none" stroke="black" d="M460.5,-329C460.5,-335 454.5,-341 448.5,-341"/>
<polyline fill="none" stroke="black" points="448.5,-341 307.5,-341 "/>
<path fill="none" stroke="black" d="M307.5,-341C301.5,-341 295.5,-335 295.5,-329"/>
<polyline fill="none" stroke="black" points="295.5,-329 295.5,-193 "/>
<path fill="none" stroke="black" d="M295.5,-193C295.5,-187 301.5,-181 307.5,-181"/>
<text text-anchor="middle" x="378" y="-324.4" font-family="Times Roman,serif" font-size="14.00">Media</text>
<polyline fill="none" stroke="black" points="295.5,-315 460.5,-315 "/>
<text text-anchor="start" x="303.5" y="-298.4" font-family="Times Roman,serif" font-size="14.00">id :INTEGER</text>
<text text-anchor="start" x="303.5" y="-280.4" font-family="Times Roman,serif" font-size="14.00">user_id :integer</text>
<text text-anchor="start" x="303.5" y="-262.4" font-family="Times Roman,serif" font-size="14.00">account_id :integer</text>
<text text-anchor="start" x="303.5" y="-244.4" font-family="Times Roman,serif" font-size="14.00">url :varchar</text>
<text text-anchor="start" x="303.5" y="-226.4" font-family="Times Roman,serif" font-size="14.00">data :text</text>
<text text-anchor="start" x="303.5" y="-208.4" font-family="Times Roman,serif" font-size="14.00">created_at :datetime</text>
<text text-anchor="start" x="303.5" y="-190.4" font-family="Times Roman,serif" font-size="14.00">updated_at :datetime</text>
</g>
<!-- Account&#45;&gt;Media -->
<g id="edge20" class="edge"><title>Account&#45;&gt;Media</title>
<path fill="none" stroke="#d45dd5" d="M520.124,-408.355C508.074,-391.861 495.053,-375.061 482,-360 477.503,-354.811 472.769,-349.592 467.902,-344.41"/>
<ellipse fill="none" stroke="#d45dd5" cx="522.521" cy="-411.663" rx="4.00002" ry="4.00002"/>
<polygon fill="#d45dd5" stroke="#d45dd5" points="467.592,-344.086 463.943,-333.745 464.14,-340.469 460.688,-336.852 460.688,-336.852 460.688,-336.852 464.14,-340.469 457.433,-339.959 467.592,-344.086 467.592,-344.086"/>
</g>
<!-- Account&#45;&gt;PaperTrail::Version -->
<g id="edge18" class="edge"><title>Account&#45;&gt;PaperTrail::Version</title>
<path fill="none" stroke="#6d844c" d="M580.46,-406.45C583.189,-308.196 587.44,-155.166 589.198,-91.8879"/>
<ellipse fill="none" stroke="#6d844c" cx="580.34" cy="-410.758" rx="4" ry="4"/>
<polygon fill="#6d844c" stroke="#6d844c" points="589.199,-91.831 593.975,-81.9598 589.338,-86.8329 589.477,-81.8348 589.477,-81.8348 589.477,-81.8348 589.338,-86.8329 584.979,-81.7098 589.199,-91.831 589.199,-91.831"/>
<text text-anchor="middle" x="615" y="-257.4" font-family="Times Roman,serif" font-size="14.00">versions</text>
</g>
<!-- Project&#45;&gt;ProjectSource -->
<g id="edge24" class="edge"><title>Project&#45;&gt;ProjectSource</title>
<path fill="none" stroke="#c18710" d="M255.834,-390.34C240.744,-370.391 225.288,-349.957 211.247,-331.395"/>
<ellipse fill="none" stroke="#c18710" cx="258.292" cy="-393.59" rx="4.00002" ry="4.00002"/>
<polygon fill="#c18710" stroke="#c18710" points="211.145,-331.26 208.702,-320.57 208.129,-327.272 205.113,-323.285 205.113,-323.285 205.113,-323.285 208.129,-327.272 201.524,-325.999 211.145,-331.26 211.145,-331.26"/>
</g>
<!-- ProjectMedia -->
<g id="node9" class="node"><title>ProjectMedia</title>
<polyline fill="none" stroke="black" points="233.5,-1 374.5,-1 "/>
<path fill="none" stroke="black" d="M374.5,-1C380.5,-1 386.5,-7 386.5,-13"/>
<polyline fill="none" stroke="black" points="386.5,-13 386.5,-113 "/>
<path fill="none" stroke="black" d="M386.5,-113C386.5,-119 380.5,-125 374.5,-125"/>
<polyline fill="none" stroke="black" points="374.5,-125 233.5,-125 "/>
<path fill="none" stroke="black" d="M233.5,-125C227.5,-125 221.5,-119 221.5,-113"/>
<polyline fill="none" stroke="black" points="221.5,-113 221.5,-13 "/>
<path fill="none" stroke="black" d="M221.5,-13C221.5,-7 227.5,-1 233.5,-1"/>
<text text-anchor="middle" x="304" y="-108.4" font-family="Times Roman,serif" font-size="14.00">ProjectMedia</text>
<polyline fill="none" stroke="black" points="221.5,-99 386.5,-99 "/>
<text text-anchor="start" x="229.5" y="-82.4" font-family="Times Roman,serif" font-size="14.00">id :INTEGER</text>
<text text-anchor="start" x="229.5" y="-64.4" font-family="Times Roman,serif" font-size="14.00">project_id :integer</text>
<text text-anchor="start" x="229.5" y="-46.4" font-family="Times Roman,serif" font-size="14.00">media_id :integer</text>
<text text-anchor="start" x="229.5" y="-28.4" font-family="Times Roman,serif" font-size="14.00">created_at :datetime</text>
<text text-anchor="start" x="229.5" y="-10.4" font-family="Times Roman,serif" font-size="14.00">updated_at :datetime</text>
</g>
<!-- Project&#45;&gt;ProjectMedia -->
<g id="edge26" class="edge"><title>Project&#45;&gt;ProjectMedia</title>
<path fill="none" stroke="#6e63c0" d="M297.158,-388.792C292.956,-373.272 289.351,-357.349 287,-342 276.098,-270.83 281.81,-251.813 287,-180 288.052,-165.445 289.831,-149.951 291.851,-135.162"/>
<ellipse fill="none" stroke="#6e63c0" cx="298.333" cy="-393.012" rx="4.00001" ry="4.00001"/>
<polygon fill="#6e63c0" stroke="#6e63c0" points="291.88,-134.957 297.739,-125.687 292.582,-130.007 293.283,-125.056 293.283,-125.056 293.283,-125.056 292.582,-130.007 288.828,-124.425 291.88,-134.957 291.88,-134.957"/>
</g>
<!-- Project&#45;&gt;Media -->
<g id="edge28" class="edge"><title>Project&#45;&gt;Media</title>
<path fill="none" stroke="#b696c3" d="M354.892,-386.75C357.07,-374.899 359.27,-362.927 361.402,-351.324"/>
<polygon fill="#b696c3" stroke="#b696c3" points="354.856,-386.945 348.623,-395.967 353.953,-391.862 353.049,-396.78 353.049,-396.78 353.049,-396.78 353.953,-391.862 357.475,-397.593 354.856,-386.945 354.856,-386.945"/>
<polygon fill="#b696c3" stroke="#b696c3" points="361.448,-351.071 367.682,-342.049 362.352,-346.153 363.256,-341.235 363.256,-341.235 363.256,-341.235 362.352,-346.153 358.83,-340.422 361.448,-351.071 361.448,-351.071"/>
</g>
<!-- Project&#45;&gt;PaperTrail::Version -->
<g id="edge22" class="edge"><title>Project&#45;&gt;PaperTrail::Version</title>
<path fill="none" stroke="#060865" d="M422.88,-407.008C439.863,-386.811 456.298,-364.594 469,-342 505.99,-276.201 489.078,-248.859 520,-180 534.467,-147.784 555.847,-113.38 571.168,-90.2799"/>
<ellipse fill="none" stroke="#060865" cx="420.19" cy="-410.165" rx="4.00002" ry="4.00002"/>
<polygon fill="#060865" stroke="#060865" points="571.347,-90.0136 580.656,-84.2175 574.133,-85.8618 576.919,-81.7099 576.919,-81.7099 576.919,-81.7099 574.133,-85.8618 573.183,-79.2024 571.347,-90.0136 571.347,-90.0136"/>
<text text-anchor="middle" x="549" y="-257.4" font-family="Times Roman,serif" font-size="14.00">versions</text>
</g>
<!-- Media&#45;&gt;ProjectMedia -->
<g id="edge32" class="edge"><title>Media&#45;&gt;ProjectMedia</title>
<path fill="none" stroke="#b4bcec" d="M345.067,-172.881C340.268,-160.043 335.378,-146.957 330.723,-134.502"/>
<ellipse fill="none" stroke="#b4bcec" cx="346.608" cy="-177.004" rx="4.00001" ry="4.00001"/>
<polygon fill="#b4bcec" stroke="#b4bcec" points="330.716,-134.482 331.43,-123.54 328.965,-129.799 327.215,-125.115 327.215,-125.115 327.215,-125.115 328.965,-129.799 323,-126.691 330.716,-134.482 330.716,-134.482"/>
</g>
<!-- Media&#45;&gt;PaperTrail::Version -->
<g id="edge30" class="edge"><title>Media&#45;&gt;PaperTrail::Version</title>
<path fill="none" stroke="#a5135a" d="M403.902,-173.37C409.426,-162.728 416.059,-152.598 424,-144 450.932,-114.841 490.629,-94.943 524.45,-82.1671"/>
<ellipse fill="none" stroke="#a5135a" cx="402.015" cy="-177.216" rx="4.00002" ry="4.00002"/>
<polygon fill="#a5135a" stroke="#a5135a" points="524.88,-82.0108 535.816,-82.8183 529.578,-80.3003 534.276,-78.5898 534.276,-78.5898 534.276,-78.5898 529.578,-80.3003 532.737,-74.3613 524.88,-82.0108 524.88,-82.0108"/>
<text text-anchor="middle" x="453" y="-149.4" font-family="Times Roman,serif" font-size="14.00">versions</text>
</g>
<!-- User&#45;&gt;Source -->
<g id="edge34" class="edge"><title>User&#45;&gt;Source</title>
<path fill="none" stroke="#759a24" d="M609.187,-840.938C609.892,-832.895 610.583,-825.018 611.25,-817.405"/>
<ellipse fill="none" stroke="#759a24" cx="608.833" cy="-844.978" rx="4" ry="4"/>
<ellipse fill="#759a24" stroke="#759a24" cx="611.616" cy="-813.236" rx="4" ry="4"/>
</g>
<!-- User&#45;&gt;TeamUser -->
<g id="edge36" class="edge"><title>User&#45;&gt;TeamUser</title>
<path fill="none" stroke="#d7b1b2" d="M493.734,-841.736C486.426,-827.214 479.384,-813.221 472.895,-800.327"/>
<ellipse fill="none" stroke="#d7b1b2" cx="495.573" cy="-845.39" rx="4.00002" ry="4.00002"/>
<polygon fill="#d7b1b2" stroke="#d7b1b2" points="472.767,-800.073 472.292,-789.117 470.52,-795.606 468.272,-791.14 468.272,-791.14 468.272,-791.14 470.52,-795.606 464.252,-793.163 472.767,-800.073 472.767,-800.073"/>
</g>
<!-- ApiKey -->
<g id="node12" class="node"><title>ApiKey</title>
<polyline fill="none" stroke="black" points="594,-1310 738,-1310 "/>
<path fill="none" stroke="black" d="M738,-1310C744,-1310 750,-1316 750,-1322"/>
<polyline fill="none" stroke="black" points="750,-1322 750,-1440 "/>
<path fill="none" stroke="black" d="M750,-1440C750,-1446 744,-1452 738,-1452"/>
<polyline fill="none" stroke="black" points="738,-1452 594,-1452 "/>
<path fill="none" stroke="black" d="M594,-1452C588,-1452 582,-1446 582,-1440"/>
<polyline fill="none" stroke="black" points="582,-1440 582,-1322 "/>
<path fill="none" stroke="black" d="M582,-1322C582,-1316 588,-1310 594,-1310"/>
<text text-anchor="middle" x="666" y="-1435.4" font-family="Times Roman,serif" font-size="14.00">ApiKey</text>
<polyline fill="none" stroke="black" points="582,-1426 750,-1426 "/>
<text text-anchor="start" x="590" y="-1409.4" font-family="Times Roman,serif" font-size="14.00">id :INTEGER</text>
<text text-anchor="start" x="590" y="-1391.4" font-family="Times Roman,serif" font-size="14.00">access_token :varchar</text>
<text text-anchor="start" x="590" y="-1373.4" font-family="Times Roman,serif" font-size="14.00">expire_at :datetime</text>
<text text-anchor="start" x="590" y="-1355.4" font-family="Times Roman,serif" font-size="14.00">created_at :datetime</text>
<text text-anchor="start" x="590" y="-1337.4" font-family="Times Roman,serif" font-size="14.00">updated_at :datetime</text>
<text text-anchor="start" x="590" y="-1319.4" font-family="Times Roman,serif" font-size="14.00">application :varchar</text>
</g>
</g>
</svg>
