<?xml version="1.0" encoding="UTF-8" standalone="no"?>
<!DOCTYPE svg PUBLIC "-//W3C//DTD SVG 1.1//EN"
 "http://www.w3.org/Graphics/SVG/1.1/DTD/svg11.dtd">
<!-- Generated by graphviz version 2.36.0 (20140111.2315)
 -->
<!-- Title: models_diagram Pages: 1 -->
<svg width="2210pt" height="780pt"
 viewBox="0.00 0.00 2210.00 780.00" xmlns="http://www.w3.org/2000/svg" xmlns:xlink="http://www.w3.org/1999/xlink">
<g id="graph0" class="graph" transform="scale(1 1) rotate(0) translate(4 776)">
<title>models_diagram</title>
<polygon fill="none" stroke="none" points="-4,4 -4,-776 2206,-776 2206,4 -4,4"/>
<!-- Tag -->
<g id="node1" class="node"><title>Tag</title>
<ellipse fill="none" stroke="black" cx="27" cy="-194" rx="26.949" ry="18"/>
<text text-anchor="middle" x="27" y="-190.3" font-family="Times,serif" font-size="14.00">Tag</text>
</g>
<!-- Assignment -->
<g id="node31" class="node"><title>Assignment</title>
<ellipse fill="none" stroke="black" cx="551" cy="-106" rx="65.4659" ry="18"/>
<text text-anchor="middle" x="551" y="-102.3" font-family="Times,serif" font-size="14.00">Assignment</text>
</g>
<!-- Tag&#45;&gt;Assignment -->
<g id="edge1" class="edge"><title>Tag&#45;&gt;Assignment</title>
<path fill="none" stroke="#b53b7c" d="M57.7954,-181.43C63.4753,-179.486 69.3853,-177.587 75,-176 144.539,-156.34 162.476,-152.315 234,-142 338.555,-126.921 366.435,-139.012 471,-124 478.15,-122.973 485.618,-121.683 492.995,-120.275"/>
<ellipse fill="none" stroke="#b53b7c" cx="54.0158" cy="-182.758" rx="4.00001" ry="4.00001"/>
<polygon fill="#b53b7c" stroke="#b53b7c" points="493.151,-120.244 503.837,-122.709 498.055,-119.27 502.96,-118.296 502.96,-118.296 502.96,-118.296 498.055,-119.27 502.083,-113.882 493.151,-120.244 493.151,-120.244"/>
</g>
<!-- PaperTrail::Version -->
<g id="node32" class="node"><title>PaperTrail::Version</title>
<ellipse fill="none" stroke="black" cx="1100" cy="-18" rx="99.1619" ry="18"/>
<text text-anchor="middle" x="1100" y="-14.3" font-family="Times,serif" font-size="14.00">PaperTrail::Version</text>
</g>
<!-- Tag&#45;&gt;PaperTrail::Version -->
<g id="edge2" class="edge"><title>Tag&#45;&gt;PaperTrail::Version</title>
<path fill="none" stroke="#110569" d="M34.8075,-168.439C43.6858,-144.441 60.4887,-108.604 87,-88 131.783,-53.196 153.959,-62.7278 210,-54 357.344,-31.053 787.839,-22.8162 991.203,-20.1492"/>
<ellipse fill="none" stroke="#110569" cx="33.4341" cy="-172.314" rx="4.00001" ry="4.00001"/>
<polygon fill="#110569" stroke="#110569" points="991.306,-20.1479 1001.36,-24.5185 996.306,-20.0834 1001.31,-20.0188 1001.31,-20.0188 1001.31,-20.0188 996.306,-20.0834 1001.25,-15.5192 991.306,-20.1479 991.306,-20.1479"/>
<text text-anchor="middle" x="117.5" y="-102.3" font-family="Times,serif" font-size="14.00">versions</text>
</g>
<!-- Comment -->
<g id="node2" class="node"><title>Comment</title>
<ellipse fill="none" stroke="black" cx="377" cy="-194" rx="55.3436" ry="18"/>
<text text-anchor="middle" x="377" y="-190.3" font-family="Times,serif" font-size="14.00">Comment</text>
</g>
<!-- Comment&#45;&gt;Assignment -->
<g id="edge3" class="edge"><title>Comment&#45;&gt;Assignment</title>
<path fill="none" stroke="#bbad0f" d="M413.485,-174.967C442.153,-160.798 482.02,-141.094 511.45,-126.548"/>
<ellipse fill="none" stroke="#bbad0f" cx="409.71" cy="-176.833" rx="4.00002" ry="4.00002"/>
<polygon fill="#bbad0f" stroke="#bbad0f" points="511.646,-126.451 522.605,-126.054 516.128,-124.235 520.611,-122.02 520.611,-122.02 520.611,-122.02 516.128,-124.235 518.617,-117.986 511.646,-126.451 511.646,-126.451"/>
</g>
<!-- Comment&#45;&gt;PaperTrail::Version -->
<g id="edge4" class="edge"><title>Comment&#45;&gt;PaperTrail::Version</title>
<path fill="none" stroke="#d1ab8f" d="M358.231,-169.649C342.473,-147.019 325.161,-112.601 343,-88 371.548,-48.6319 399.198,-62.9337 447,-54 548.284,-35.071 834.228,-25.389 992.049,-21.3574"/>
<ellipse fill="none" stroke="#d1ab8f" cx="360.683" cy="-173.031" rx="4.00002" ry="4.00002"/>
<polygon fill="#d1ab8f" stroke="#d1ab8f" points="992.259,-21.3522 1002.37,-25.5985 997.258,-21.226 1002.26,-21.0999 1002.26,-21.0999 1002.26,-21.0999 997.258,-21.226 1002.14,-16.6014 992.259,-21.3522 992.259,-21.3522"/>
<text text-anchor="middle" x="373.5" y="-102.3" font-family="Times,serif" font-size="14.00">versions</text>
</g>
<!-- Flag -->
<g id="node3" class="node"><title>Flag</title>
<ellipse fill="none" stroke="black" cx="503" cy="-194" rx="31.2965" ry="18"/>
<text text-anchor="middle" x="503" y="-190.3" font-family="Times,serif" font-size="14.00">Flag</text>
</g>
<!-- Flag&#45;&gt;Assignment -->
<g id="edge5" class="edge"><title>Flag&#45;&gt;Assignment</title>
<path fill="none" stroke="#3bf06d" d="M516.253,-169.256C522.604,-157.877 530.22,-144.231 536.701,-132.619"/>
<ellipse fill="none" stroke="#3bf06d" cx="514.204" cy="-172.926" rx="4.00002" ry="4.00002"/>
<polygon fill="#3bf06d" stroke="#3bf06d" points="536.736,-132.556 545.539,-126.017 539.173,-128.19 541.61,-123.824 541.61,-123.824 541.61,-123.824 539.173,-128.19 537.68,-121.631 536.736,-132.556 536.736,-132.556"/>
</g>
<!-- Flag&#45;&gt;PaperTrail::Version -->
<g id="edge6" class="edge"><title>Flag&#45;&gt;PaperTrail::Version</title>
<path fill="none" stroke="#bbb199" d="M473.336,-177.31C438.8,-157.003 389.542,-120.381 415,-88 449.96,-43.5332 807.756,-27.1002 991.837,-21.5556"/>
<ellipse fill="none" stroke="#bbb199" cx="476.98" cy="-179.398" rx="4.00002" ry="4.00002"/>
<polygon fill="#bbb199" stroke="#bbb199" points="992.093,-21.5482 1002.22,-25.7507 997.09,-21.4004 1002.09,-21.2527 1002.09,-21.2527 1002.09,-21.2527 997.09,-21.4004 1001.96,-16.7547 992.093,-21.5482 992.093,-21.5482"/>
<text text-anchor="middle" x="445.5" y="-102.3" font-family="Times,serif" font-size="14.00">versions</text>
</g>
<!-- Task -->
<g id="node4" class="node"><title>Task</title>
<ellipse fill="none" stroke="black" cx="116" cy="-194" rx="32.2457" ry="18"/>
<text text-anchor="middle" x="116" y="-190.3" font-family="Times,serif" font-size="14.00">Task</text>
</g>
<!-- Task&#45;&gt;Assignment -->
<g id="edge7" class="edge"><title>Task&#45;&gt;Assignment</title>
<path fill="none" stroke="#5b854b" d="M149.002,-179.716C153.007,-178.347 157.071,-177.069 161,-176 295.803,-139.325 333.665,-149.611 471,-124 477.659,-122.758 484.613,-121.389 491.523,-119.983"/>
<ellipse fill="none" stroke="#5b854b" cx="145.188" cy="-181.082" rx="4.00001" ry="4.00001"/>
<polygon fill="#5b854b" stroke="#5b854b" points="491.781,-119.93 502.484,-122.314 496.677,-118.918 501.574,-117.907 501.574,-117.907 501.574,-117.907 496.677,-118.918 500.664,-113.5 491.781,-119.93 491.781,-119.93"/>
</g>
<!-- Task&#45;&gt;PaperTrail::Version -->
<g id="edge8" class="edge"><title>Task&#45;&gt;PaperTrail::Version</title>
<path fill="none" stroke="#e54ad4" d="M125.878,-168.636C136.739,-144.792 156.39,-109.071 184,-88 223.667,-57.7273 241.867,-62.71 291,-54 422.166,-30.7476 802.482,-22.7412 991.182,-20.1509"/>
<ellipse fill="none" stroke="#e54ad4" cx="124.145" cy="-172.568" rx="4.00002" ry="4.00002"/>
<polygon fill="#e54ad4" stroke="#e54ad4" points="991.401,-20.1481 1001.46,-24.513 996.4,-20.0807 1001.4,-20.0134 1001.4,-20.0134 1001.4,-20.0134 996.4,-20.0807 1001.34,-15.5138 991.401,-20.1481 991.401,-20.1481"/>
<text text-anchor="middle" x="214.5" y="-102.3" font-family="Times,serif" font-size="14.00">versions</text>
</g>
<!-- Annotation -->
<g id="node5" class="node"><title>Annotation</title>
<ellipse fill="none" stroke="black" cx="232" cy="-194" rx="61.6163" ry="18"/>
<text text-anchor="middle" x="232" y="-190.3" font-family="Times,serif" font-size="14.00">Annotation</text>
</g>
<!-- Annotation&#45;&gt;Assignment -->
<g id="edge9" class="edge"><title>Annotation&#45;&gt;Assignment</title>
<path fill="none" stroke="#cbbeab" d="M283.744,-179.05C342.058,-163.329 436.47,-137.877 496.064,-121.81"/>
<ellipse fill="none" stroke="#cbbeab" cx="279.549" cy="-180.181" rx="4.00001" ry="4.00001"/>
<polygon fill="#cbbeab" stroke="#cbbeab" points="496.388,-121.723 507.215,-123.465 501.216,-120.421 506.043,-119.12 506.043,-119.12 506.043,-119.12 501.216,-120.421 504.872,-114.775 496.388,-121.723 496.388,-121.723"/>
</g>
<!-- Annotation&#45;&gt;PaperTrail::Version -->
<g id="edge10" class="edge"><title>Annotation&#45;&gt;PaperTrail::Version</title>
<path fill="none" stroke="#c55bb0" d="M235.404,-167.691C239.808,-144.22 249.629,-109.735 271,-88 300.106,-58.3975 317.396,-62.6478 358,-54 475.468,-28.9817 814.791,-21.841 990.954,-19.8071"/>
<ellipse fill="none" stroke="#c55bb0" cx="234.691" cy="-171.854" rx="4.00001" ry="4.00001"/>
<polygon fill="#c55bb0" stroke="#c55bb0" points="991.027,-19.8064 1001.08,-24.1941 996.026,-19.7504 1001.03,-19.6944 1001.03,-19.6944 1001.03,-19.6944 996.026,-19.7504 1000.98,-15.1946 991.027,-19.8064 991.027,-19.8064"/>
<text text-anchor="middle" x="301.5" y="-102.3" font-family="Times,serif" font-size="14.00">versions</text>
</g>
<!-- Dynamic -->
<g id="node6" class="node"><title>Dynamic</title>
<ellipse fill="none" stroke="black" cx="837" cy="-194" rx="51.4931" ry="18"/>
<text text-anchor="middle" x="837" y="-190.3" font-family="Times,serif" font-size="14.00">Dynamic</text>
</g>
<!-- Dynamic&#45;&gt;Assignment -->
<g id="edge11" class="edge"><title>Dynamic&#45;&gt;Assignment</title>
<path fill="none" stroke="#3a1d52" d="M790.755,-179.519C768.709,-173.062 741.975,-165.186 718,-158 679.315,-146.404 635.669,-133.066 602.7,-122.939"/>
<ellipse fill="none" stroke="#3a1d52" cx="794.813" cy="-180.707" rx="4.00001" ry="4.00001"/>
<polygon fill="#3a1d52" stroke="#3a1d52" points="602.388,-122.843 594.151,-115.604 597.608,-121.374 592.829,-119.905 592.829,-119.905 592.829,-119.905 597.608,-121.374 591.507,-124.207 602.388,-122.843 602.388,-122.843"/>
</g>
<!-- Dynamic&#45;&gt;PaperTrail::Version -->
<g id="edge12" class="edge"><title>Dynamic&#45;&gt;PaperTrail::Version</title>
<path fill="none" stroke="#8921eb" d="M878.071,-177.356C908.297,-164.965 949.741,-146.098 983,-124 992.85,-117.456 1042.99,-71.6476 1074.35,-42.7385"/>
<ellipse fill="none" stroke="#8921eb" cx="874.348" cy="-178.864" rx="4.00002" ry="4.00002"/>
<polygon fill="#8921eb" stroke="#8921eb" points="1074.53,-42.5689 1084.93,-39.094 1078.21,-39.1779 1081.88,-35.787 1081.88,-35.787 1081.88,-35.787 1078.21,-39.1779 1078.83,-32.48 1074.53,-42.5689 1074.53,-42.5689"/>
<text text-anchor="middle" x="1054.5" y="-102.3" font-family="Times,serif" font-size="14.00">versions</text>
</g>
<!-- DynamicAnnotation::Field -->
<g id="node33" class="node"><title>DynamicAnnotation::Field</title>
<ellipse fill="none" stroke="black" cx="843" cy="-106" rx="131.408" ry="18"/>
<text text-anchor="middle" x="843" y="-102.3" font-family="Times,serif" font-size="14.00">DynamicAnnotation::Field</text>
</g>
<!-- Dynamic&#45;&gt;DynamicAnnotation::Field -->
<g id="edge13" class="edge"><title>Dynamic&#45;&gt;DynamicAnnotation::Field</title>
<path fill="none" stroke="#e0dc07" d="M838.79,-167.339C839.522,-156.855 840.368,-144.718 841.11,-134.091"/>
<ellipse fill="none" stroke="#e0dc07" cx="838.493" cy="-171.606" rx="4" ry="4"/>
<polygon fill="#e0dc07" stroke="#e0dc07" points="841.112,-134.06 846.297,-124.397 841.46,-129.072 841.808,-124.084 841.808,-124.084 841.808,-124.084 841.46,-129.072 837.319,-123.771 841.112,-134.06 841.112,-134.06"/>
<text text-anchor="middle" x="860.5" y="-146.3" font-family="Times,serif" font-size="14.00">fields</text>
</g>
<!-- TeamTask -->
<g id="node7" class="node"><title>TeamTask</title>
<ellipse fill="none" stroke="black" cx="1174" cy="-532" rx="57.2927" ry="18"/>
<text text-anchor="middle" x="1174" y="-528.3" font-family="Times,serif" font-size="14.00">TeamTask</text>
</g>
<!-- Source -->
<g id="node8" class="node"><title>Source</title>
<ellipse fill="none" stroke="black" cx="768" cy="-754" rx="42.3456" ry="18"/>
<text text-anchor="middle" x="768" y="-750.3" font-family="Times,serif" font-size="14.00">Source</text>
</g>
<!-- BotUser -->
<g id="node14" class="node"><title>BotUser</title>
<ellipse fill="none" stroke="black" cx="1411" cy="-680" rx="48.6179" ry="18"/>
<text text-anchor="middle" x="1411" y="-676.3" font-family="Times,serif" font-size="14.00">BotUser</text>
</g>
<!-- Source&#45;&gt;BotUser -->
<g id="edge19" class="edge"><title>Source&#45;&gt;BotUser</title>
<path fill="none" stroke="#ce64a5" d="M816.556,-747.125C934.228,-733.522 1233.6,-700.003 1356.83,-686.636"/>
<ellipse fill="none" stroke="#ce64a5" cx="812.538" cy="-747.591" rx="4.00001" ry="4.00001"/>
<ellipse fill="#ce64a5" stroke="#ce64a5" cx="1361.06" cy="-686.178" rx="4" ry="4"/>
</g>
<!-- ProjectSource -->
<g id="node15" class="node"><title>ProjectSource</title>
<ellipse fill="none" stroke="black" cx="1119" cy="-194" rx="76.5394" ry="18"/>
<text text-anchor="middle" x="1119" y="-190.3" font-family="Times,serif" font-size="14.00">ProjectSource</text>
</g>
<!-- Source&#45;&gt;ProjectSource -->
<g id="edge15" class="edge"><title>Source&#45;&gt;ProjectSource</title>
<path fill="none" stroke="#b53d1b" d="M717.965,-749.672C673.67,-743.683 616,-727.044 616,-681 616,-681 616,-681 616,-457 616,-410.122 596.57,-388.489 626,-352 653.933,-317.367 933.943,-242.298 1059.1,-210.13"/>
<ellipse fill="none" stroke="#b53d1b" cx="722.093" cy="-750.181" rx="4.00001" ry="4.00001"/>
<polygon fill="#b53d1b" stroke="#b53d1b" points="1059.23,-210.096 1070.04,-211.972 1064.08,-208.854 1068.92,-207.613 1068.92,-207.613 1068.92,-207.613 1064.08,-208.854 1067.8,-203.254 1059.23,-210.096 1059.23,-210.096"/>
</g>
<!-- AccountSource -->
<g id="node17" class="node"><title>AccountSource</title>
<ellipse fill="none" stroke="black" cx="716" cy="-370" rx="81.3646" ry="18"/>
<text text-anchor="middle" x="716" y="-366.3" font-family="Times,serif" font-size="14.00">AccountSource</text>
</g>
<!-- Source&#45;&gt;AccountSource -->
<g id="edge16" class="edge"><title>Source&#45;&gt;AccountSource</title>
<path fill="none" stroke="#014bc3" d="M722.417,-743.313C690.672,-733.583 654,-714.988 654,-681 654,-681 654,-681 654,-457 654,-432.641 670.57,-410.483 686.577,-394.761"/>
<ellipse fill="none" stroke="#014bc3" cx="726.512" cy="-744.492" rx="4.00001" ry="4.00001"/>
<polygon fill="#014bc3" stroke="#014bc3" points="686.986,-394.382 697.377,-390.877 690.651,-390.981 694.315,-387.579 694.315,-387.579 694.315,-387.579 690.651,-390.981 691.254,-384.281 686.986,-394.382 686.986,-394.382"/>
</g>
<!-- Project -->
<g id="node23" class="node"><title>Project</title>
<ellipse fill="none" stroke="black" cx="1262" cy="-282" rx="44.2946" ry="18"/>
<text text-anchor="middle" x="1262" y="-278.3" font-family="Times,serif" font-size="14.00">Project</text>
</g>
<!-- Source&#45;&gt;Project -->
<g id="edge17" class="edge"><title>Source&#45;&gt;Project</title>
<path fill="none" stroke="#f11785" d="M820.502,-751.425C1008.79,-745.435 1639,-722.301 1639,-681 1639,-681 1639,-681 1639,-568 1639,-486.896 1624.03,-448.578 1555,-406 1503.63,-374.315 1329.56,-427.583 1284,-388 1262.2,-369.06 1258.74,-334.544 1259.4,-310.268"/>
<polygon fill="#f11785" stroke="#f11785" points="820.3,-751.431 810.163,-747.248 815.302,-751.589 810.304,-751.746 810.304,-751.746 810.304,-751.746 815.302,-751.589 810.446,-756.244 820.3,-751.431 820.3,-751.431"/>
<polygon fill="#f11785" stroke="#f11785" points="1259.4,-310.234 1264.41,-300.479 1259.65,-305.241 1259.91,-300.247 1259.91,-300.247 1259.91,-300.247 1259.65,-305.241 1255.42,-300.016 1259.4,-310.234 1259.4,-310.234"/>
</g>
<!-- Account -->
<g id="node24" class="node"><title>Account</title>
<ellipse fill="none" stroke="black" cx="786" cy="-458" rx="49.0941" ry="18"/>
<text text-anchor="middle" x="786" y="-454.3" font-family="Times,serif" font-size="14.00">Account</text>
</g>
<!-- Source&#45;&gt;Account -->
<g id="edge18" class="edge"><title>Source&#45;&gt;Account</title>
<path fill="none" stroke="#43b7e1" d="M768.156,-725.943C768.673,-678.728 770.859,-578.28 780,-494 780.279,-491.426 780.628,-488.754 781.017,-486.086"/>
<polygon fill="#43b7e1" stroke="#43b7e1" points="768.156,-725.975 763.563,-735.932 768.109,-730.974 768.063,-735.974 768.063,-735.974 768.063,-735.974 768.109,-730.974 772.563,-736.016 768.156,-725.975 768.156,-725.975"/>
<polygon fill="#43b7e1" stroke="#43b7e1" points="781.047,-485.902 787.088,-476.75 781.846,-480.966 782.646,-476.031 782.646,-476.031 782.646,-476.031 781.846,-480.966 778.204,-475.311 781.047,-485.902 781.047,-485.902"/>
</g>
<!-- Source&#45;&gt;PaperTrail::Version -->
<g id="edge14" class="edge"><title>Source&#45;&gt;PaperTrail::Version</title>
<path fill="none" stroke="#93e788" d="M718.245,-748.991C644.552,-741.662 515,-722.829 515,-681 515,-681 515,-681 515,-457 515,-356.117 629.751,-89.9782 724,-54 771.498,-35.8682 899.457,-26.8598 992.946,-22.5753"/>
<ellipse fill="none" stroke="#93e788" cx="722.524" cy="-749.404" rx="4" ry="4"/>
<polygon fill="#93e788" stroke="#93e788" points="993.033,-22.5716 1003.22,-26.6211 998.028,-22.3486 1003.02,-22.1256 1003.02,-22.1256 1003.02,-22.1256 998.028,-22.3486 1002.82,-17.6301 993.033,-22.5716 993.033,-22.5716"/>
<text text-anchor="middle" x="552.5" y="-410.3" font-family="Times,serif" font-size="14.00">versions</text>
</g>
<!-- UploadedFile -->
<g id="node9" class="node"><title>UploadedFile</title>
<ellipse fill="none" stroke="black" cx="1365" cy="-370" rx="72.2155" ry="18"/>
<text text-anchor="middle" x="1365" y="-366.3" font-family="Times,serif" font-size="14.00">UploadedFile</text>
</g>
<!-- UploadedFile&#45;&gt;Project -->
<g id="edge22" class="edge"><title>UploadedFile&#45;&gt;Project</title>
<path fill="none" stroke="#bcf605" d="M1323.55,-348.522C1316.37,-344.176 1309.23,-339.287 1303,-334 1294.07,-326.423 1285.69,-316.681 1278.86,-307.745"/>
<polygon fill="#bcf605" stroke="#bcf605" points="1323.91,-348.734 1330.34,-357.624 1328.25,-351.229 1332.58,-353.724 1332.58,-353.724 1332.58,-353.724 1328.25,-351.229 1334.83,-349.824 1323.91,-348.734 1323.91,-348.734"/>
<polygon fill="#bcf605" stroke="#bcf605" points="1278.74,-307.581 1276.44,-296.858 1275.78,-303.551 1272.82,-299.522 1272.82,-299.522 1272.82,-299.522 1275.78,-303.551 1269.19,-302.186 1278.74,-307.581 1278.74,-307.581"/>
</g>
<!-- ProjectMedia -->
<g id="node27" class="node"><title>ProjectMedia</title>
<ellipse fill="none" stroke="black" cx="1490" cy="-194" rx="73.1654" ry="18"/>
<text text-anchor="middle" x="1490" y="-190.3" font-family="Times,serif" font-size="14.00">ProjectMedia</text>
</g>
<!-- UploadedFile&#45;&gt;ProjectMedia -->
<g id="edge21" class="edge"><title>UploadedFile&#45;&gt;ProjectMedia</title>
<path fill="none" stroke="#cf57d5" d="M1382.03,-345.294C1405.57,-312.53 1447.85,-253.666 1471.93,-220.154"/>
<ellipse fill="none" stroke="#cf57d5" cx="1379.55" cy="-348.751" rx="4.00002" ry="4.00002"/>
<polygon fill="#cf57d5" stroke="#cf57d5" points="1472.09,-219.935 1481.58,-214.439 1475,-215.874 1477.92,-211.813 1477.92,-211.813 1477.92,-211.813 1475,-215.874 1474.27,-209.188 1472.09,-219.935 1472.09,-219.935"/>
</g>
<!-- UploadedFile&#45;&gt;PaperTrail::Version -->
<g id="edge20" class="edge"><title>UploadedFile&#45;&gt;PaperTrail::Version</title>
<path fill="none" stroke="#b9049d" d="M1362.64,-343.839C1357.45,-292.165 1343.89,-176.074 1324,-142 1293.14,-89.1177 1272.01,-82.8496 1218,-54 1203.56,-46.2878 1187.2,-40.0572 1171.36,-35.112"/>
<ellipse fill="none" stroke="#b9049d" cx="1363.04" cy="-347.864" rx="4" ry="4"/>
<polygon fill="#b9049d" stroke="#b9049d" points="1171.16,-35.0548 1162.87,-27.885 1166.37,-33.6261 1161.58,-32.1974 1161.58,-32.1974 1161.58,-32.1974 1166.37,-33.6261 1160.3,-36.5098 1171.16,-35.0548 1171.16,-35.0548"/>
<text text-anchor="middle" x="1375.5" y="-190.3" font-family="Times,serif" font-size="14.00">versions</text>
</g>
<!-- TeamBotInstallation -->
<g id="node10" class="node"><title>TeamBotInstallation</title>
<ellipse fill="none" stroke="black" cx="1830" cy="-754" rx="104.461" ry="18"/>
<text text-anchor="middle" x="1830" y="-750.3" font-family="Times,serif" font-size="14.00">TeamBotInstallation</text>
</g>
<!-- Bounce -->
<g id="node11" class="node"><title>Bounce</title>
<ellipse fill="none" stroke="black" cx="1998" cy="-754" rx="45.244" ry="18"/>
<text text-anchor="middle" x="1998" y="-750.3" font-family="Times,serif" font-size="14.00">Bounce</text>
</g>
<!-- Contact -->
<g id="node12" class="node"><title>Contact</title>
<ellipse fill="none" stroke="black" cx="1297" cy="-532" rx="48.1437" ry="18"/>
<text text-anchor="middle" x="1297" y="-528.3" font-family="Times,serif" font-size="14.00">Contact</text>
</g>
<!-- ClaimSource -->
<g id="node13" class="node"><title>ClaimSource</title>
<ellipse fill="none" stroke="black" cx="2132" cy="-754" rx="70.2909" ry="18"/>
<text text-anchor="middle" x="2132" y="-750.3" font-family="Times,serif" font-size="14.00">ClaimSource</text>
</g>
<!-- BotUser&#45;&gt;Source -->
<g id="edge31" class="edge"><title>BotUser&#45;&gt;Source</title>
<path fill="none" stroke="#13db3e" d="M1357.68,-687.425C1235.8,-701.486 938.495,-734.765 818.936,-747.715"/>
<ellipse fill="none" stroke="#13db3e" cx="1361.83" cy="-686.946" rx="4.00001" ry="4.00001"/>
<polygon fill="#13db3e" stroke="#13db3e" points="818.668,-747.744 808.242,-744.344 813.696,-748.281 808.725,-748.818 808.725,-748.818 808.725,-748.818 813.696,-748.281 809.209,-753.292 818.668,-747.744 818.668,-747.744"/>
</g>
<!-- BotUser&#45;&gt;ProjectSource -->
<g id="edge29" class="edge"><title>BotUser&#45;&gt;ProjectSource</title>
<path fill="none" stroke="#3c31cd" d="M1460.23,-668.162C1491.07,-658.144 1525,-639.693 1525,-607 1525,-607 1525,-607 1525,-494 1525,-467.736 1521.54,-456.367 1501,-440 1500.82,-439.853 1235.19,-388.135 1235,-388 1175.85,-346.542 1141.66,-264.392 1127.21,-221.885"/>
<ellipse fill="none" stroke="#3c31cd" cx="1456.3" cy="-669.362" rx="4.00001" ry="4.00001"/>
<polygon fill="#3c31cd" stroke="#3c31cd" points="1127.15,-221.724 1128.31,-210.819 1125.59,-216.974 1124.03,-212.223 1124.03,-212.223 1124.03,-212.223 1125.59,-216.974 1119.76,-213.628 1127.15,-221.724 1127.15,-221.724"/>
</g>
<!-- TeamUser -->
<g id="node18" class="node"><title>TeamUser</title>
<ellipse fill="none" stroke="black" cx="1401" cy="-458" rx="57.2688" ry="18"/>
<text text-anchor="middle" x="1401" y="-454.3" font-family="Times,serif" font-size="14.00">TeamUser</text>
</g>
<!-- BotUser&#45;&gt;TeamUser -->
<g id="edge23" class="edge"><title>BotUser&#45;&gt;TeamUser</title>
<path fill="none" stroke="#b9783c" d="M1410.83,-653.506C1410.44,-617.797 1409.17,-550.875 1405,-494 1404.81,-491.438 1404.58,-488.775 1404.32,-486.112"/>
<ellipse fill="none" stroke="#b9783c" cx="1410.87" cy="-657.887" rx="4" ry="4"/>
<polygon fill="#b9783c" stroke="#b9783c" points="1404.31,-486.006 1407.71,-475.58 1403.77,-481.035 1403.23,-476.064 1403.23,-476.064 1403.23,-476.064 1403.77,-481.035 1398.76,-476.548 1404.31,-486.006 1404.31,-486.006"/>
</g>
<!-- Media -->
<g id="node19" class="node"><title>Media</title>
<ellipse fill="none" stroke="black" cx="1007" cy="-370" rx="39.9464" ry="18"/>
<text text-anchor="middle" x="1007" y="-366.3" font-family="Times,serif" font-size="14.00">Media</text>
</g>
<!-- BotUser&#45;&gt;Media -->
<g id="edge28" class="edge"><title>BotUser&#45;&gt;Media</title>
<path fill="none" stroke="#13768c" d="M1447.7,-661.274C1467.12,-649.083 1487,-630.796 1487,-607 1487,-607 1487,-607 1487,-457 1487,-445.334 1477.62,-444.828 1467,-440 1448.33,-431.513 1169.6,-393.042 1055.32,-377.521"/>
<ellipse fill="none" stroke="#13768c" cx="1444.04" cy="-663.446" rx="4.00002" ry="4.00002"/>
<polygon fill="#13768c" stroke="#13768c" points="1055.02,-377.481 1045.72,-371.677 1050.07,-376.808 1045.11,-376.136 1045.11,-376.136 1045.11,-376.136 1050.07,-376.808 1044.51,-380.595 1055.02,-377.481 1055.02,-377.481"/>
</g>
<!-- Team -->
<g id="node22" class="node"><title>Team</title>
<ellipse fill="none" stroke="black" cx="1052" cy="-606" rx="35.6194" ry="18"/>
<text text-anchor="middle" x="1052" y="-602.3" font-family="Times,serif" font-size="14.00">Team</text>
</g>
<!-- BotUser&#45;&gt;Team -->
<g id="edge24" class="edge"><title>BotUser&#45;&gt;Team</title>
<path fill="none" stroke="#0875c6" d="M1359.28,-668.626C1287.84,-654.299 1160.33,-628.727 1094.28,-615.479"/>
<polygon fill="#0875c6" stroke="#0875c6" points="1359.66,-668.704 1368.58,-675.082 1364.57,-669.687 1369.47,-670.67 1369.47,-670.67 1369.47,-670.67 1364.57,-669.687 1370.35,-666.258 1359.66,-668.704 1359.66,-668.704"/>
<polygon fill="#0875c6" stroke="#0875c6" points="1094.02,-615.428 1085.1,-609.05 1089.12,-614.445 1084.22,-613.462 1084.22,-613.462 1084.22,-613.462 1089.12,-614.445 1083.33,-617.874 1094.02,-615.428 1094.02,-615.428"/>
</g>
<!-- BotUser&#45;&gt;Project -->
<g id="edge25" class="edge"><title>BotUser&#45;&gt;Project</title>
<path fill="none" stroke="#0e6ed1" d="M1466.25,-674.925C1509.72,-668.347 1563,-651.257 1563,-607 1563,-607 1563,-607 1563,-494 1563,-452.533 1565.06,-431.03 1532,-406 1482.11,-368.23 1294.23,-433.239 1251,-388 1231.28,-367.361 1239.63,-332.969 1249.19,-309.199"/>
<ellipse fill="none" stroke="#0e6ed1" cx="1462.22" cy="-675.485" rx="4.00001" ry="4.00001"/>
<polygon fill="#0e6ed1" stroke="#0e6ed1" points="1249.31,-308.912 1257.41,-301.52 1251.3,-304.323 1253.28,-299.734 1253.28,-299.734 1253.28,-299.734 1251.3,-304.323 1249.15,-297.947 1249.31,-308.912 1249.31,-308.912"/>
</g>
<!-- BotUser&#45;&gt;Account -->
<g id="edge26" class="edge"><title>BotUser&#45;&gt;Account</title>
<path fill="none" stroke="#fb6e71" d="M1355.08,-676.06C1249.83,-668.888 1016.73,-645.145 837,-570 819.392,-562.638 809.997,-565.598 799,-550 785.965,-531.511 783.379,-505.597 783.668,-486.149"/>
<ellipse fill="none" stroke="#fb6e71" cx="1359.36" cy="-676.343" rx="4" ry="4"/>
<polygon fill="#fb6e71" stroke="#fb6e71" points="783.67,-486.09 788.572,-476.281 783.873,-481.094 784.076,-476.098 784.076,-476.098 784.076,-476.098 783.873,-481.094 779.579,-475.916 783.67,-486.09 783.67,-486.09"/>
</g>
<!-- BotUser&#45;&gt;ProjectMedia -->
<g id="edge30" class="edge"><title>BotUser&#45;&gt;ProjectMedia</title>
<path fill="none" stroke="#9fc00d" d="M1466.7,-675.746C1497.02,-671.717 1533.95,-662.939 1562,-644 1568.92,-639.331 1690.55,-471.383 1713,-388 1737.04,-298.69 1616.12,-239.323 1542.85,-212.11"/>
<ellipse fill="none" stroke="#9fc00d" cx="1462.71" cy="-676.232" rx="4.00001" ry="4.00001"/>
<polygon fill="#9fc00d" stroke="#9fc00d" points="1542.68,-212.05 1534.82,-204.409 1537.98,-210.345 1533.28,-208.639 1533.28,-208.639 1533.28,-208.639 1537.98,-210.345 1531.75,-212.869 1542.68,-212.05 1542.68,-212.05"/>
</g>
<!-- LoginActivity -->
<g id="node29" class="node"><title>LoginActivity</title>
<ellipse fill="none" stroke="black" cx="1252" cy="-458" rx="73.1654" ry="18"/>
<text text-anchor="middle" x="1252" y="-454.3" font-family="Times,serif" font-size="14.00">LoginActivity</text>
</g>
<!-- BotUser&#45;&gt;LoginActivity -->
<g id="edge32" class="edge"><title>BotUser&#45;&gt;LoginActivity</title>
<path fill="none" stroke="#0c6fcf" d="M1407.99,-653.236C1402.69,-618.104 1388.74,-554.875 1354,-514 1340.35,-497.935 1320.78,-485.806 1302.43,-477.083"/>
<ellipse fill="none" stroke="#0c6fcf" cx="1408.6" cy="-657.571" rx="4.00001" ry="4.00001"/>
<polygon fill="#0c6fcf" stroke="#0c6fcf" points="1302.38,-477.062 1295.11,-468.849 1297.82,-475.006 1293.26,-472.951 1293.26,-472.951 1293.26,-472.951 1297.82,-475.006 1291.41,-477.053 1302.38,-477.062 1302.38,-477.062"/>
</g>
<!-- BotUser&#45;&gt;Assignment -->
<g id="edge27" class="edge"><title>BotUser&#45;&gt;Assignment</title>
<path fill="none" stroke="#baaa1d" d="M1354.87,-676.517C1237.44,-670.776 969.63,-654.67 884,-624 793.426,-591.56 569,-423.208 569,-327 569,-327 569,-327 569,-193 569,-172.915 564.238,-150.74 559.613,-133.938"/>
<ellipse fill="none" stroke="#baaa1d" cx="1359.06" cy="-676.72" rx="4" ry="4"/>
<polygon fill="#baaa1d" stroke="#baaa1d" points="559.585,-133.841 561.116,-122.982 558.19,-129.039 556.794,-124.238 556.794,-124.238 556.794,-124.238 558.19,-129.039 552.473,-125.493 559.585,-133.841 559.585,-133.841"/>
</g>
<!-- ProjectSource&#45;&gt;PaperTrail::Version -->
<g id="edge33" class="edge"><title>ProjectSource&#45;&gt;PaperTrail::Version</title>
<path fill="none" stroke="#93fe1a" d="M1139.31,-169.785C1141.87,-166.026 1144.22,-162.037 1146,-158 1164.7,-115.647 1173.76,-94.869 1152,-54 1149.51,-49.3171 1146.08,-45.1485 1142.16,-41.4682"/>
<ellipse fill="none" stroke="#93fe1a" cx="1136.91" cy="-173.044" rx="4.00002" ry="4.00002"/>
<polygon fill="#93fe1a" stroke="#93fe1a" points="1141.92,-41.2715 1136.97,-31.4857 1138.03,-38.1285 1134.14,-34.9856 1134.14,-34.9856 1134.14,-34.9856 1138.03,-38.1285 1131.31,-38.4854 1141.92,-41.2715 1141.92,-41.2715"/>
<text text-anchor="middle" x="1195.5" y="-102.3" font-family="Times,serif" font-size="14.00">versions</text>
</g>
<!-- Claim -->
<g id="node16" class="node"><title>Claim</title>
<ellipse fill="none" stroke="black" cx="1830" cy="-370" rx="38.0212" ry="18"/>
<text text-anchor="middle" x="1830" y="-366.3" font-family="Times,serif" font-size="14.00">Claim</text>
</g>
<!-- Claim&#45;&gt;Project -->
<g id="edge36" class="edge"><title>Claim&#45;&gt;Project</title>
<path fill="none" stroke="#daf3c2" d="M1784.07,-362.046C1679.11,-346.153 1422.31,-307.273 1312.81,-290.694"/>
<polygon fill="#daf3c2" stroke="#daf3c2" points="1784.15,-362.058 1793.36,-368.004 1789.09,-362.807 1794.04,-363.555 1794.04,-363.555 1794.04,-363.555 1789.09,-362.807 1794.71,-359.106 1784.15,-362.058 1784.15,-362.058"/>
<polygon fill="#daf3c2" stroke="#daf3c2" points="1312.57,-290.657 1303.36,-284.711 1307.63,-289.909 1302.69,-289.16 1302.69,-289.16 1302.69,-289.16 1307.63,-289.909 1302.01,-293.61 1312.57,-290.657 1312.57,-290.657"/>
</g>
<!-- Claim&#45;&gt;ProjectMedia -->
<g id="edge35" class="edge"><title>Claim&#45;&gt;ProjectMedia</title>
<path fill="none" stroke="#c297d5" d="M1817.62,-345.191C1799.65,-313.247 1763.14,-257.372 1715,-230 1690.45,-216.044 1623.23,-206.765 1568.61,-201.288"/>
<ellipse fill="none" stroke="#c297d5" cx="1819.65" cy="-348.882" rx="4.00002" ry="4.00002"/>
<polygon fill="#c297d5" stroke="#c297d5" points="1568.53,-201.28 1559.01,-195.831 1563.55,-200.795 1558.58,-200.31 1558.58,-200.31 1558.58,-200.31 1563.55,-200.795 1558.14,-204.789 1568.53,-201.28 1568.53,-201.28"/>
</g>
<!-- Claim&#45;&gt;PaperTrail::Version -->
<g id="edge34" class="edge"><title>Claim&#45;&gt;PaperTrail::Version</title>
<path fill="none" stroke="#3bdb31" d="M1868.28,-356.036C1898.99,-342.928 1937,-319.362 1937,-283 1937,-283 1937,-283 1937,-105 1937,-32.7071 1436.52,-20.7947 1209.57,-19.1092"/>
<ellipse fill="none" stroke="#3bdb31" cx="1864.37" cy="-357.634" rx="4.00001" ry="4.00001"/>
<polygon fill="#3bdb31" stroke="#3bdb31" points="1209.3,-19.1074 1199.33,-14.5386 1204.3,-19.073 1199.3,-19.0385 1199.3,-19.0385 1199.3,-19.0385 1204.3,-19.073 1199.27,-23.5384 1209.3,-19.1074 1209.3,-19.1074"/>
<text text-anchor="middle" x="1967.5" y="-190.3" font-family="Times,serif" font-size="14.00">versions</text>
</g>
<!-- Media&#45;&gt;Project -->
<g id="edge39" class="edge"><title>Media&#45;&gt;Project</title>
<path fill="none" stroke="#74a600" d="M1045.73,-354.096C1073.5,-343.583 1111.87,-329.4 1146,-318 1169.25,-310.234 1195.38,-302.285 1216.93,-295.929"/>
<polygon fill="#74a600" stroke="#74a600" points="1045.73,-354.099 1034.78,-353.445 1041.05,-355.875 1036.38,-357.651 1036.38,-357.651 1036.38,-357.651 1041.05,-355.875 1037.98,-361.858 1045.73,-354.099 1045.73,-354.099"/>
<polygon fill="#74a600" stroke="#74a600" points="1217.21,-295.849 1228.07,-297.355 1222.01,-294.443 1226.81,-293.036 1226.81,-293.036 1226.81,-293.036 1222.01,-294.443 1225.54,-288.718 1217.21,-295.849 1217.21,-295.849"/>
</g>
<!-- Media&#45;&gt;ProjectMedia -->
<g id="edge38" class="edge"><title>Media&#45;&gt;ProjectMedia</title>
<path fill="none" stroke="#1a973b" d="M1017.84,-344.549C1030.02,-320.065 1052.22,-283.328 1083,-264 1205.03,-187.381 1260.88,-235.706 1403,-212 1410.28,-210.785 1417.89,-209.429 1425.45,-208.026"/>
<ellipse fill="none" stroke="#1a973b" cx="1015.97" cy="-348.426" rx="4.00002" ry="4.00002"/>
<polygon fill="#1a973b" stroke="#1a973b" points="1425.49,-208.018 1436.15,-210.586 1430.41,-207.091 1435.32,-206.164 1435.32,-206.164 1435.32,-206.164 1430.41,-207.091 1434.49,-201.742 1425.49,-208.018 1425.49,-208.018"/>
</g>
<!-- Media&#45;&gt;PaperTrail::Version -->
<g id="edge37" class="edge"><title>Media&#45;&gt;PaperTrail::Version</title>
<path fill="none" stroke="#664ab7" d="M992.059,-345.589C968.777,-305.841 930.589,-224.739 972,-176 1004.08,-138.248 1038.27,-181.268 1082,-158 1100.32,-148.253 1106.35,-143.29 1114,-124 1125.47,-95.0801 1119.88,-84.5498 1114,-54 1113.47,-51.2628 1112.73,-48.4675 1111.87,-45.7092"/>
<ellipse fill="none" stroke="#664ab7" cx="994.153" cy="-349.082" rx="4.00002" ry="4.00002"/>
<polygon fill="#664ab7" stroke="#664ab7" points="1111.77,-45.4402 1112.55,-34.5022 1110.05,-40.7459 1108.33,-36.0515 1108.33,-36.0515 1108.33,-36.0515 1110.05,-40.7459 1104.1,-37.6008 1111.77,-45.4402 1111.77,-45.4402"/>
<text text-anchor="middle" x="1002.5" y="-190.3" font-family="Times,serif" font-size="14.00">versions</text>
</g>
<!-- ApiKey -->
<g id="node20" class="node"><title>ApiKey</title>
<ellipse fill="none" stroke="black" cx="1664" cy="-754" rx="43.319" ry="18"/>
<text text-anchor="middle" x="1664" y="-750.3" font-family="Times,serif" font-size="14.00">ApiKey</text>
</g>
<!-- ApiKey&#45;&gt;BotUser -->
<g id="edge40" class="edge"><title>ApiKey&#45;&gt;BotUser</title>
<path fill="none" stroke="#8f5b7c" d="M1621.54,-740.915C1575.64,-727.855 1502.8,-707.126 1455.96,-693.795"/>
<ellipse fill="none" stroke="#8f5b7c" cx="1625.5" cy="-742.045" rx="4.00001" ry="4.00001"/>
<ellipse fill="#8f5b7c" stroke="#8f5b7c" cx="1451.95" cy="-692.654" rx="4.00001" ry="4.00001"/>
</g>
<!-- Relationship -->
<g id="node21" class="node"><title>Relationship</title>
<ellipse fill="none" stroke="black" cx="1526" cy="-106" rx="68.3417" ry="18"/>
<text text-anchor="middle" x="1526" y="-102.3" font-family="Times,serif" font-size="14.00">Relationship</text>
</g>
<!-- Relationship&#45;&gt;PaperTrail::Version -->
<g id="edge41" class="edge"><title>Relationship&#45;&gt;PaperTrail::Version</title>
<path fill="none" stroke="#5cd664" d="M1486.19,-86.9017C1459.95,-75.7189 1424.56,-62.0184 1392,-54 1330.27,-38.7958 1259.5,-30.1017 1203.1,-25.1818"/>
<ellipse fill="none" stroke="#5cd664" cx="1490" cy="-88.5477" rx="4.00002" ry="4.00002"/>
<polygon fill="#5cd664" stroke="#5cd664" points="1203.06,-25.1789 1193.48,-19.8519 1198.08,-24.7574 1193.1,-24.3358 1193.1,-24.3358 1193.1,-24.3358 1198.08,-24.7574 1192.72,-28.8198 1203.06,-25.1789 1203.06,-25.1789"/>
<text text-anchor="middle" x="1471.5" y="-58.3" font-family="Times,serif" font-size="14.00">versions</text>
</g>
<!-- Team&#45;&gt;TeamTask -->
<g id="edge50" class="edge"><title>Team&#45;&gt;TeamTask</title>
<path fill="none" stroke="#db028d" d="M1081.31,-587.7C1098.89,-577.327 1121.33,-564.086 1139.72,-553.23"/>
<ellipse fill="none" stroke="#db028d" cx="1077.82" cy="-589.761" rx="4.00002" ry="4.00002"/>
<polygon fill="#db028d" stroke="#db028d" points="1139.78,-553.198 1150.67,-551.991 1144.08,-550.657 1148.39,-548.115 1148.39,-548.115 1148.39,-548.115 1144.08,-550.657 1146.1,-544.24 1139.78,-553.198 1139.78,-553.198"/>
</g>
<!-- Team&#45;&gt;Source -->
<g id="edge48" class="edge"><title>Team&#45;&gt;Source</title>
<path fill="none" stroke="#82b1de" d="M1020.67,-623.108C967.285,-650.551 859.068,-706.183 803.175,-734.917"/>
<ellipse fill="none" stroke="#82b1de" cx="1024.27" cy="-621.257" rx="4.00002" ry="4.00002"/>
<polygon fill="#82b1de" stroke="#82b1de" points="802.85,-735.084 791.899,-735.654 798.403,-737.37 793.956,-739.656 793.956,-739.656 793.956,-739.656 798.403,-737.37 796.013,-743.659 802.85,-735.084 802.85,-735.084"/>
</g>
<!-- Team&#45;&gt;Contact -->
<g id="edge47" class="edge"><title>Team&#45;&gt;Contact</title>
<path fill="none" stroke="#925130" d="M1089.72,-594.027C1127.69,-582.967 1187.93,-565.38 1240,-550 1243.53,-548.959 1247.17,-547.878 1250.84,-546.79"/>
<ellipse fill="none" stroke="#925130" cx="1085.81" cy="-595.166" rx="4.00001" ry="4.00001"/>
<polygon fill="#925130" stroke="#925130" points="1250.93,-546.761 1261.8,-548.224 1255.73,-545.336 1260.52,-543.911 1260.52,-543.911 1260.52,-543.911 1255.73,-545.336 1259.24,-539.598 1250.93,-546.761 1250.93,-546.761"/>
</g>
<!-- Team&#45;&gt;TeamUser -->
<g id="edge45" class="edge"><title>Team&#45;&gt;TeamUser</title>
<path fill="none" stroke="#dd33f1" d="M1094.95,-601.823C1168.25,-595.654 1313.52,-579.953 1354,-550 1375.03,-534.436 1387.41,-506.701 1394.14,-485.927"/>
<ellipse fill="none" stroke="#dd33f1" cx="1090.79" cy="-602.165" rx="4" ry="4"/>
<polygon fill="#dd33f1" stroke="#dd33f1" points="1394.22,-485.668 1401.39,-477.375 1395.65,-480.877 1397.08,-476.087 1397.08,-476.087 1397.08,-476.087 1395.65,-480.877 1392.77,-474.799 1394.22,-485.668 1394.22,-485.668"/>
</g>
<!-- Team&#45;&gt;Project -->
<g id="edge43" class="edge"><title>Team&#45;&gt;Project</title>
<path fill="none" stroke="#3df16a" d="M1066.04,-581.489C1077.19,-562.998 1093.29,-536.664 1108,-514 1119.14,-496.836 1123.62,-493.637 1134,-476 1173.82,-408.334 1162,-377.688 1213,-318 1217.61,-312.607 1223.22,-307.613 1228.97,-303.187"/>
<ellipse fill="none" stroke="#3df16a" cx="1063.94" cy="-584.982" rx="4.00002" ry="4.00002"/>
<polygon fill="#3df16a" stroke="#3df16a" points="1229.29,-302.961 1240.03,-300.781 1233.35,-300.044 1237.41,-297.127 1237.41,-297.127 1237.41,-297.127 1233.35,-300.044 1234.78,-293.472 1229.29,-302.961 1229.29,-302.961"/>
</g>
<!-- Team&#45;&gt;Account -->
<g id="edge44" class="edge"><title>Team&#45;&gt;Account</title>
<path fill="none" stroke="#655ca2" d="M1008.43,-602.34C954.835,-598.295 867.786,-588.973 842,-570 814.343,-549.65 799.434,-511.728 792.11,-485.932"/>
<ellipse fill="none" stroke="#655ca2" cx="1012.74" cy="-602.654" rx="4" ry="4"/>
<polygon fill="#655ca2" stroke="#655ca2" points="792.05,-485.707 793.852,-474.89 790.776,-480.872 789.501,-476.037 789.501,-476.037 789.501,-476.037 790.776,-480.872 785.149,-477.185 792.05,-485.707 792.05,-485.707"/>
</g>
<!-- TagText -->
<g id="node26" class="node"><title>TagText</title>
<ellipse fill="none" stroke="black" cx="1014" cy="-532" rx="47.169" ry="18"/>
<text text-anchor="middle" x="1014" y="-528.3" font-family="Times,serif" font-size="14.00">TagText</text>
</g>
<!-- Team&#45;&gt;TagText -->
<g id="edge49" class="edge"><title>Team&#45;&gt;TagText</title>
<path fill="none" stroke="#864b9a" d="M1039.45,-581.213C1035.76,-574.223 1031.7,-566.537 1027.93,-559.394"/>
<ellipse fill="none" stroke="#864b9a" cx="1041.32" cy="-584.763" rx="4.00002" ry="4.00002"/>
<polygon fill="#864b9a" stroke="#864b9a" points="1027.7,-558.952 1027.01,-548.008 1025.36,-554.531 1023.03,-550.109 1023.03,-550.109 1023.03,-550.109 1025.36,-554.531 1019.05,-552.209 1027.7,-558.952 1027.7,-558.952"/>
</g>
<!-- User -->
<g id="node30" class="node"><title>User</title>
<ellipse fill="none" stroke="black" cx="916" cy="-532" rx="32.2457" ry="18"/>
<text text-anchor="middle" x="916" y="-528.3" font-family="Times,serif" font-size="14.00">User</text>
</g>
<!-- Team&#45;&gt;User -->
<g id="edge46" class="edge"><title>Team&#45;&gt;User</title>
<path fill="none" stroke="#596e16" d="M1019.21,-587.641C997.455,-576.123 969.061,-561.091 947.562,-549.709"/>
<polygon fill="#596e16" stroke="#596e16" points="1019.47,-587.78 1026.21,-596.436 1023.89,-590.119 1028.31,-592.459 1028.31,-592.459 1028.31,-592.459 1023.89,-590.119 1030.42,-588.482 1019.47,-587.78 1019.47,-587.78"/>
<polygon fill="#596e16" stroke="#596e16" points="947.353,-549.599 940.62,-540.943 942.934,-547.259 938.515,-544.92 938.515,-544.92 938.515,-544.92 942.934,-547.259 936.409,-548.897 947.353,-549.599 947.353,-549.599"/>
</g>
<!-- Team&#45;&gt;PaperTrail::Version -->
<g id="edge42" class="edge"><title>Team&#45;&gt;PaperTrail::Version</title>
<path fill="none" stroke="#d7b930" d="M1011.12,-598.031C964.084,-589.083 891.234,-572.044 875,-550 865.512,-537.117 873.47,-529.927 875,-514 889.73,-360.635 848.758,-290.364 952,-176 994.807,-128.581 1046.5,-174.208 1086,-124 1103.18,-102.164 1104.96,-69.5334 1103.53,-46.4531"/>
<ellipse fill="none" stroke="#d7b930" cx="1015.07" cy="-598.768" rx="4.00001" ry="4.00001"/>
<polygon fill="#d7b930" stroke="#d7b930" points="1103.51,-46.2502 1107.14,-35.9025 1103.09,-41.2685 1102.66,-36.2868 1102.66,-36.2868 1102.66,-36.2868 1103.09,-41.2685 1098.18,-36.671 1103.51,-46.2502 1103.51,-46.2502"/>
<text text-anchor="middle" x="912.5" y="-322.3" font-family="Times,serif" font-size="14.00">versions</text>
</g>
<!-- Project&#45;&gt;ProjectSource -->
<g id="edge53" class="edge"><title>Project&#45;&gt;ProjectSource</title>
<path fill="none" stroke="#4e9c3f" d="M1231.15,-262.449C1208.5,-248.825 1177.7,-230.299 1154.1,-216.11"/>
<ellipse fill="none" stroke="#4e9c3f" cx="1234.64" cy="-264.544" rx="4.00002" ry="4.00002"/>
<polygon fill="#4e9c3f" stroke="#4e9c3f" points="1154.01,-216.057 1147.76,-207.047 1149.73,-213.48 1145.44,-210.903 1145.44,-210.903 1145.44,-210.903 1149.73,-213.48 1143.12,-214.759 1154.01,-216.057 1154.01,-216.057"/>
</g>
<!-- Project&#45;&gt;ProjectMedia -->
<g id="edge54" class="edge"><title>Project&#45;&gt;ProjectMedia</title>
<path fill="none" stroke="#7e8b26" d="M1300.78,-266.372C1339.81,-251.65 1400.09,-228.914 1442.09,-213.072"/>
<ellipse fill="none" stroke="#7e8b26" cx="1296.97" cy="-267.811" rx="4.00001" ry="4.00001"/>
<polygon fill="#7e8b26" stroke="#7e8b26" points="1442.19,-213.032 1453.14,-213.713 1446.87,-211.268 1451.55,-209.503 1451.55,-209.503 1451.55,-209.503 1446.87,-211.268 1449.96,-205.292 1442.19,-213.032 1442.19,-213.032"/>
</g>
<!-- Project&#45;&gt;Assignment -->
<g id="edge51" class="edge"><title>Project&#45;&gt;Assignment</title>
<path fill="none" stroke="#8ddabe" d="M1251.85,-256.591C1239.67,-228.603 1219.02,-185.366 1204,-176 1169.26,-154.341 876.677,-162.615 836,-158 757.434,-149.086 667.812,-131.871 610.386,-119.921"/>
<ellipse fill="none" stroke="#8ddabe" cx="1253.47" cy="-260.364" rx="4.00002" ry="4.00002"/>
<polygon fill="#8ddabe" stroke="#8ddabe" points="610.187,-119.88 601.322,-113.424 605.293,-118.854 600.4,-117.829 600.4,-117.829 600.4,-117.829 605.293,-118.854 599.477,-122.233 610.187,-119.88 610.187,-119.88"/>
</g>
<!-- Project&#45;&gt;PaperTrail::Version -->
<g id="edge52" class="edge"><title>Project&#45;&gt;PaperTrail::Version</title>
<path fill="none" stroke="#74dffd" d="M1264.34,-255.696C1266.66,-216.197 1265.71,-139.124 1230,-88 1213.46,-64.3186 1186.17,-48.0965 1160.86,-37.3639"/>
<ellipse fill="none" stroke="#74dffd" cx="1264.04" cy="-259.995" rx="4" ry="4"/>
<polygon fill="#74dffd" stroke="#74dffd" points="1160.56,-37.2436 1152.96,-29.3397 1155.92,-35.3795 1151.28,-33.5153 1151.28,-33.5153 1151.28,-33.5153 1155.92,-35.3795 1149.6,-37.6908 1160.56,-37.2436 1160.56,-37.2436"/>
<text text-anchor="middle" x="1289.5" y="-146.3" font-family="Times,serif" font-size="14.00">versions</text>
</g>
<!-- Account&#45;&gt;AccountSource -->
<g id="edge57" class="edge"><title>Account&#45;&gt;AccountSource</title>
<path fill="none" stroke="#c04b44" d="M767.316,-434.046C757.697,-422.227 745.958,-407.806 736.137,-395.74"/>
<ellipse fill="none" stroke="#c04b44" cx="769.978" cy="-437.316" rx="4.00002" ry="4.00002"/>
<polygon fill="#c04b44" stroke="#c04b44" points="736.007,-395.58 733.184,-384.983 732.85,-391.702 729.694,-387.824 729.694,-387.824 729.694,-387.824 732.85,-391.702 726.204,-390.665 736.007,-395.58 736.007,-395.58"/>
</g>
<!-- Account&#45;&gt;Media -->
<g id="edge56" class="edge"><title>Account&#45;&gt;Media</title>
<path fill="none" stroke="#55cb05" d="M826.209,-441.353C866.645,-425.618 928.552,-401.527 968.405,-386.019"/>
<ellipse fill="none" stroke="#55cb05" cx="822.337" cy="-442.86" rx="4.00001" ry="4.00001"/>
<polygon fill="#55cb05" stroke="#55cb05" points="968.469,-385.994 979.42,-386.561 973.129,-384.181 977.788,-382.367 977.788,-382.367 977.788,-382.367 973.129,-384.181 976.156,-378.174 968.469,-385.994 968.469,-385.994"/>
</g>
<!-- Account&#45;&gt;PaperTrail::Version -->
<g id="edge55" class="edge"><title>Account&#45;&gt;PaperTrail::Version</title>
<path fill="none" stroke="#5690a0" d="M796.375,-432.208C803.95,-410.885 811.94,-379.335 806,-352 779.221,-228.766 620.8,-184.489 702,-88 738.526,-44.5971 887.836,-28.4952 992.793,-22.522"/>
<ellipse fill="none" stroke="#5690a0" cx="794.922" cy="-436.102" rx="4.00001" ry="4.00001"/>
<polygon fill="#5690a0" stroke="#5690a0" points="992.821,-22.5206 1003.05,-26.4683 997.814,-22.2478 1002.81,-21.975 1002.81,-21.975 1002.81,-21.975 997.814,-22.2478 1002.56,-17.4817 992.821,-22.5206 992.821,-22.5206"/>
<text text-anchor="middle" x="775.5" y="-234.3" font-family="Times,serif" font-size="14.00">versions</text>
</g>
<!-- Link -->
<g id="node25" class="node"><title>Link</title>
<ellipse fill="none" stroke="black" cx="1487" cy="-370" rx="31.2735" ry="18"/>
<text text-anchor="middle" x="1487" y="-366.3" font-family="Times,serif" font-size="14.00">Link</text>
</g>
<!-- Link&#45;&gt;Project -->
<g id="edge60" class="edge"><title>Link&#45;&gt;Project</title>
<path fill="none" stroke="#dbcdf8" d="M1453.44,-354.553C1450.94,-353.641 1448.44,-352.778 1446,-352 1411.69,-341.065 1400.97,-345.944 1367,-334 1342.41,-325.354 1316.02,-312.521 1295.85,-301.891"/>
<polygon fill="#dbcdf8" stroke="#dbcdf8" points="1453.65,-354.632 1461.35,-362.439 1458.31,-356.438 1462.97,-358.243 1462.97,-358.243 1462.97,-358.243 1458.31,-356.438 1464.6,-354.046 1453.65,-354.632 1453.65,-354.632"/>
<polygon fill="#dbcdf8" stroke="#dbcdf8" points="1295.58,-301.749 1288.89,-293.064 1291.18,-299.39 1286.77,-297.032 1286.77,-297.032 1286.77,-297.032 1291.18,-299.39 1284.64,-301 1295.58,-301.749 1295.58,-301.749"/>
</g>
<!-- Link&#45;&gt;ProjectMedia -->
<g id="edge59" class="edge"><title>Link&#45;&gt;ProjectMedia</title>
<path fill="none" stroke="#69160c" d="M1487.43,-343.963C1487.99,-311.714 1488.95,-255.849 1489.53,-222.463"/>
<ellipse fill="none" stroke="#69160c" cx="1487.36" cy="-348" rx="4" ry="4"/>
<polygon fill="#69160c" stroke="#69160c" points="1489.53,-222.068 1494.21,-212.147 1489.62,-217.069 1489.71,-212.07 1489.71,-212.07 1489.71,-212.07 1489.62,-217.069 1485.21,-211.992 1489.53,-222.068 1489.53,-222.068"/>
</g>
<!-- Link&#45;&gt;PaperTrail::Version -->
<g id="edge58" class="edge"><title>Link&#45;&gt;PaperTrail::Version</title>
<path fill="none" stroke="#a8a591" d="M1518.01,-354.678C1578.33,-326.513 1706.59,-265.004 1718,-246 1741.82,-206.327 1739.18,-180.161 1713,-142 1682.19,-97.0883 1653.23,-109.045 1603,-88 1560.87,-70.3475 1550.66,-63.5929 1506,-54 1406.57,-32.6435 1290.78,-24.2356 1208.36,-20.9683"/>
<ellipse fill="none" stroke="#a8a591" cx="1514.29" cy="-356.414" rx="4.00002" ry="4.00002"/>
<polygon fill="#a8a591" stroke="#a8a591" points="1208.22,-20.963 1198.4,-16.0889 1203.22,-20.7744 1198.23,-20.5857 1198.23,-20.5857 1198.23,-20.5857 1203.22,-20.7744 1198.06,-25.0825 1208.22,-20.963 1208.22,-20.963"/>
<text text-anchor="middle" x="1765.5" y="-190.3" font-family="Times,serif" font-size="14.00">versions</text>
</g>
<!-- ProjectMedia&#45;&gt;Relationship -->
<g id="edge61" class="edge"><title>ProjectMedia&#45;&gt;Relationship</title>
<path fill="none" stroke="#75971a" d="M1542.95,-175.518C1550.12,-170.926 1556.54,-165.177 1561,-158 1566.64,-148.924 1562.61,-139.196 1555.57,-130.695"/>
<ellipse fill="none" stroke="#75971a" cx="1539.04" cy="-177.751" rx="4.00002" ry="4.00002"/>
<polygon fill="#75971a" stroke="#75971a" points="1555.38,-130.497 1551.69,-120.169 1551.91,-126.892 1548.45,-123.287 1548.45,-123.287 1548.45,-123.287 1551.91,-126.892 1545.2,-126.406 1555.38,-130.497 1555.38,-130.497"/>
<text text-anchor="middle" x="1636.5" y="-146.3" font-family="Times,serif" font-size="14.00">target_relationships</text>
</g>
<!-- ProjectMedia&#45;&gt;Relationship -->
<g id="edge62" class="edge"><title>ProjectMedia&#45;&gt;Relationship</title>
<path fill="none" stroke="#f0feac" d="M1432.46,-177.763C1411.93,-169.38 1396.43,-157.495 1408,-142 1414.99,-132.631 1437.57,-124.877 1461.12,-119.069"/>
<ellipse fill="none" stroke="#f0feac" cx="1436.47" cy="-179.278" rx="4.00001" ry="4.00001"/>
<polygon fill="#f0feac" stroke="#f0feac" points="1461.14,-119.064 1471.91,-121.161 1466.01,-117.922 1470.88,-116.78 1470.88,-116.78 1470.88,-116.78 1466.01,-117.922 1469.85,-112.399 1461.14,-119.064 1461.14,-119.064"/>
<text text-anchor="middle" x="1482.5" y="-146.3" font-family="Times,serif" font-size="14.00">source_relationships</text>
</g>
<!-- ProjectMedia&#45;&gt;ProjectMedia -->
<g id="edge63" class="edge"><title>ProjectMedia&#45;&gt;ProjectMedia</title>
<path fill="none" stroke="#dbb619" d="M1572.07,-196.974C1577.63,-196.288 1581,-195.297 1581,-194 1581,-192.703 1577.63,-191.712 1572.07,-191.026"/>
<polygon fill="#dbb619" stroke="#dbb619" points="1571.69,-197.004 1561.36,-193.313 1566.7,-197.401 1561.72,-197.799 1561.72,-197.799 1561.72,-197.799 1566.7,-197.401 1562.08,-202.284 1571.69,-197.004 1571.69,-197.004"/>
<polygon fill="#dbb619" stroke="#dbb619" points="1571.69,-190.996 1562.08,-185.716 1566.7,-190.599 1561.72,-190.201 1561.72,-190.201 1561.72,-190.201 1566.7,-190.599 1561.36,-194.687 1571.69,-190.996 1571.69,-190.996"/>
<text text-anchor="middle" x="1609" y="-190.3" font-family="Times,serif" font-size="14.00">sources</text>
</g>
<!-- ProjectMedia&#45;&gt;ProjectMedia -->
<g id="edge64" class="edge"><title>ProjectMedia&#45;&gt;ProjectMedia</title>
<path fill="none" stroke="#cab030" d="M1566.32,-202.149C1602.88,-202.824 1637,-200.107 1637,-194 1637,-187.893 1602.88,-185.176 1566.32,-185.851"/>
<polygon fill="#cab030" stroke="#cab030" points="1565.96,-202.14 1556.09,-197.371 1560.96,-202.005 1555.97,-201.869 1555.97,-201.869 1555.97,-201.869 1560.96,-202.005 1555.84,-206.368 1565.96,-202.14 1565.96,-202.14"/>
<polygon fill="#cab030" stroke="#cab030" points="1565.96,-185.86 1555.84,-181.632 1560.96,-185.995 1555.97,-186.131 1555.97,-186.131 1555.97,-186.131 1560.96,-185.995 1556.09,-190.629 1565.96,-185.86 1565.96,-185.86"/>
<text text-anchor="middle" x="1663" y="-190.3" font-family="Times,serif" font-size="14.00">targets</text>
</g>
<!-- ProjectMedia&#45;&gt;PaperTrail::Version -->
<g id="edge65" class="edge"><title>ProjectMedia&#45;&gt;PaperTrail::Version</title>
<path fill="none" stroke="#0463c2" d="M1432.82,-177.465C1421.41,-172.539 1410.14,-166.17 1401,-158 1362.02,-123.15 1388.77,-84.0754 1346,-54 1323.2,-37.966 1260.72,-29.201 1204.44,-24.4521"/>
<ellipse fill="none" stroke="#0463c2" cx="1436.61" cy="-178.999" rx="4.00001" ry="4.00001"/>
<polygon fill="#0463c2" stroke="#0463c2" points="1204.35,-24.4447 1194.74,-19.154 1199.36,-24.042 1194.38,-23.6394 1194.38,-23.6394 1194.38,-23.6394 1199.36,-24.042 1194.02,-28.1248 1204.35,-24.4447 1204.35,-24.4447"/>
<text text-anchor="middle" x="1410.5" y="-102.3" font-family="Times,serif" font-size="14.00">versions</text>
</g>
<!-- UploadedImage -->
<g id="node28" class="node"><title>UploadedImage</title>
<ellipse fill="none" stroke="black" cx="1621" cy="-370" rx="83.2649" ry="18"/>
<text text-anchor="middle" x="1621" y="-366.3" font-family="Times,serif" font-size="14.00">UploadedImage</text>
</g>
<!-- UploadedImage&#45;&gt;Project -->
<g id="edge68" class="edge"><title>UploadedImage&#45;&gt;Project</title>
<path fill="none" stroke="#9e49bd" d="M1550.25,-355.906C1542.41,-354.544 1534.54,-353.216 1527,-352 1470.72,-342.926 1454.95,-349.187 1400,-334 1382.34,-329.118 1379.1,-324.586 1362,-318 1343.32,-310.805 1322.44,-303.401 1304.62,-297.267"/>
<polygon fill="#9e49bd" stroke="#9e49bd" points="1550.28,-355.911 1559.35,-362.074 1555.2,-356.776 1560.13,-357.642 1560.13,-357.642 1560.13,-357.642 1555.2,-356.776 1560.91,-353.209 1550.28,-355.911 1550.28,-355.911"/>
<polygon fill="#9e49bd" stroke="#9e49bd" points="1304.53,-297.235 1296.52,-289.741 1299.8,-295.617 1295.07,-293.999 1295.07,-293.999 1295.07,-293.999 1299.8,-295.617 1293.61,-298.257 1304.53,-297.235 1304.53,-297.235"/>
</g>
<!-- UploadedImage&#45;&gt;ProjectMedia -->
<g id="edge67" class="edge"><title>UploadedImage&#45;&gt;ProjectMedia</title>
<path fill="none" stroke="#28f493" d="M1603.15,-345.294C1578.49,-312.53 1534.17,-253.666 1508.94,-220.154"/>
<ellipse fill="none" stroke="#28f493" cx="1605.79" cy="-348.804" rx="4.00002" ry="4.00002"/>
<polygon fill="#28f493" stroke="#28f493" points="1508.67,-219.802 1506.25,-209.107 1505.67,-215.808 1502.66,-211.813 1502.66,-211.813 1502.66,-211.813 1505.67,-215.808 1499.06,-214.52 1508.67,-219.802 1508.67,-219.802"/>
</g>
<!-- UploadedImage&#45;&gt;PaperTrail::Version -->
<g id="edge66" class="edge"><title>UploadedImage&#45;&gt;PaperTrail::Version</title>
<path fill="none" stroke="#807ea7" d="M1663.59,-350.035C1728.43,-318.284 1840.35,-250.477 1800,-176 1765.88,-113.028 1730.09,-117.873 1665,-88 1615.78,-65.414 1601.27,-63.7153 1548,-54 1433.15,-33.0552 1299.5,-24.6375 1208.26,-21.2583"/>
<ellipse fill="none" stroke="#807ea7" cx="1659.92" cy="-351.806" rx="4.00002" ry="4.00002"/>
<polygon fill="#807ea7" stroke="#807ea7" points="1208.18,-21.2554 1198.34,-16.402 1203.18,-21.0772 1198.18,-20.8991 1198.18,-20.8991 1198.18,-20.8991 1203.18,-21.0772 1198.02,-25.3963 1208.18,-21.2554 1208.18,-21.2554"/>
<text text-anchor="middle" x="1839.5" y="-190.3" font-family="Times,serif" font-size="14.00">versions</text>
</g>
<!-- User&#45;&gt;Source -->
<g id="edge76" class="edge"><title>User&#45;&gt;Source</title>
<path fill="none" stroke="#db6c4c" d="M900.62,-555.862C872.664,-597.418 813.738,-685.01 784.782,-728.054"/>
<ellipse fill="none" stroke="#db6c4c" cx="902.916" cy="-552.449" rx="4.00002" ry="4.00002"/>
<polygon fill="#db6c4c" stroke="#db6c4c" points="784.706,-728.167 775.39,-733.952 781.915,-732.316 779.124,-736.464 779.124,-736.464 779.124,-736.464 781.915,-732.316 782.858,-738.976 784.706,-728.167 784.706,-728.167"/>
</g>
<!-- User&#45;&gt;ProjectSource -->
<g id="edge74" class="edge"><title>User&#45;&gt;ProjectSource</title>
<path fill="none" stroke="#0397a4" d="M917.681,-505.858C920.995,-469.795 930.623,-402.202 958,-352 989.495,-294.248 1049.28,-244.507 1086.46,-217.249"/>
<ellipse fill="none" stroke="#0397a4" cx="917.338" cy="-509.913" rx="4" ry="4"/>
<polygon fill="#0397a4" stroke="#0397a4" points="1086.83,-216.982 1097.58,-214.784 1090.89,-214.058 1094.95,-211.134 1094.95,-211.134 1094.95,-211.134 1090.89,-214.058 1092.32,-207.484 1086.83,-216.982 1086.83,-216.982"/>
</g>
<!-- User&#45;&gt;TeamUser -->
<g id="edge69" class="edge"><title>User&#45;&gt;TeamUser</title>
<path fill="none" stroke="#c4ef3e" d="M947.817,-517.019C951.211,-515.861 954.648,-514.821 958,-514 1039.1,-494.13 1061.93,-504.393 1145,-496 1229.04,-487.509 1250.85,-490.87 1334,-476 1339.04,-475.099 1344.26,-474.026 1349.46,-472.864"/>
<ellipse fill="none" stroke="#c4ef3e" cx="943.788" cy="-518.506" rx="4.00001" ry="4.00001"/>
<polygon fill="#c4ef3e" stroke="#c4ef3e" points="1349.65,-472.82 1360.41,-474.922 1354.52,-471.68 1359.38,-470.54 1359.38,-470.54 1359.38,-470.54 1354.52,-471.68 1358.36,-466.159 1349.65,-472.82 1349.65,-472.82"/>
</g>
<!-- User&#45;&gt;Media -->
<g id="edge73" class="edge"><title>User&#45;&gt;Media</title>
<path fill="none" stroke="#1c6b35" d="M939.723,-511.313C944.508,-506.622 949.222,-501.4 953,-496 974.654,-465.049 990.314,-424.036 999.027,-397.581"/>
<ellipse fill="none" stroke="#1c6b35" cx="936.613" cy="-514.214" rx="4.00002" ry="4.00002"/>
<polygon fill="#1c6b35" stroke="#1c6b35" points="999.085,-397.399 1006.41,-389.241 1000.61,-392.636 1002.13,-387.873 1002.13,-387.873 1002.13,-387.873 1000.61,-392.636 997.84,-386.504 999.085,-397.399 999.085,-397.399"/>
</g>
<!-- User&#45;&gt;Project -->
<g id="edge70" class="edge"><title>User&#45;&gt;Project</title>
<path fill="none" stroke="#4ca167" d="M948.113,-517.067C951.415,-515.918 954.751,-514.866 958,-514 1014.79,-498.859 1041.47,-530.559 1089,-496 1160.06,-444.334 1110.81,-377.992 1175,-318 1186.11,-307.613 1200.7,-300.146 1214.75,-294.85"/>
<ellipse fill="none" stroke="#4ca167" cx="944.274" cy="-518.495" rx="4.00001" ry="4.00001"/>
<polygon fill="#4ca167" stroke="#4ca167" points="1214.9,-294.801 1225.82,-295.774 1219.62,-293.162 1224.34,-291.522 1224.34,-291.522 1224.34,-291.522 1219.62,-293.162 1222.87,-287.271 1214.9,-294.801 1214.9,-294.801"/>
</g>
<!-- User&#45;&gt;Account -->
<g id="edge71" class="edge"><title>User&#45;&gt;Account</title>
<path fill="none" stroke="#90355e" d="M886.698,-514.771C867.207,-503.976 841.509,-489.743 820.952,-478.358"/>
<ellipse fill="none" stroke="#90355e" cx="890.448" cy="-516.848" rx="4.00002" ry="4.00002"/>
<polygon fill="#90355e" stroke="#90355e" points="820.948,-478.356 814.38,-469.574 816.574,-475.933 812.2,-473.511 812.2,-473.511 812.2,-473.511 816.574,-475.933 810.02,-477.447 820.948,-478.356 820.948,-478.356"/>
</g>
<!-- User&#45;&gt;ProjectMedia -->
<g id="edge75" class="edge"><title>User&#45;&gt;ProjectMedia</title>
<path fill="none" stroke="#f83a84" d="M943.926,-513.459C951.9,-508.118 960.465,-502.052 968,-496 978.049,-487.928 979.693,-484.916 989,-476 1087.05,-382.065 1090.09,-329.557 1209,-264 1228.05,-253.497 1349.98,-225.616 1426.84,-208.683"/>
<ellipse fill="none" stroke="#f83a84" cx="940.157" cy="-515.94" rx="4.00002" ry="4.00002"/>
<polygon fill="#f83a84" stroke="#f83a84" points="1427.14,-208.617 1437.87,-210.866 1432.02,-207.544 1436.9,-206.471 1436.9,-206.471 1436.9,-206.471 1432.02,-207.544 1435.94,-202.076 1427.14,-208.617 1427.14,-208.617"/>
</g>
<!-- User&#45;&gt;LoginActivity -->
<g id="edge77" class="edge"><title>User&#45;&gt;LoginActivity</title>
<path fill="none" stroke="#b71821" d="M947.826,-517.054C951.218,-515.889 954.652,-514.838 958,-514 1031.27,-495.652 1052.92,-510.781 1127,-496 1151.94,-491.024 1179.07,-483.287 1201.66,-476.172"/>
<ellipse fill="none" stroke="#b71821" cx="943.797" cy="-518.545" rx="4.00001" ry="4.00001"/>
<polygon fill="#b71821" stroke="#b71821" points="1201.85,-476.113 1212.74,-477.351 1206.61,-474.589 1211.37,-473.065 1211.37,-473.065 1211.37,-473.065 1206.61,-474.589 1210,-468.779 1201.85,-476.113 1201.85,-476.113"/>
</g>
<!-- User&#45;&gt;Assignment -->
<g id="edge72" class="edge"><title>User&#45;&gt;Assignment</title>
<path fill="none" stroke="#bb81d4" d="M903.819,-507.045C885.185,-471.471 847.381,-403.36 806,-352 767.465,-304.172 633.39,-181.44 576.663,-130.111"/>
<ellipse fill="none" stroke="#bb81d4" cx="905.867" cy="-510.987" rx="4.00002" ry="4.00002"/>
<polygon fill="#bb81d4" stroke="#bb81d4" points="576.609,-130.062 572.207,-120.018 572.899,-126.709 569.19,-123.357 569.19,-123.357 569.19,-123.357 572.899,-126.709 566.173,-126.696 576.609,-130.062 576.609,-130.062"/>
</g>
<!-- Assignment&#45;&gt;PaperTrail::Version -->
<g id="edge78" class="edge"><title>Assignment&#45;&gt;PaperTrail::Version</title>
<path fill="none" stroke="#c73bd4" d="M554.401,-80.0479C557.037,-70.3798 561.711,-60.1722 570,-54 602.864,-29.5285 845.564,-22.1663 990.891,-19.9519"/>
<ellipse fill="none" stroke="#c73bd4" cx="553.507" cy="-84.0386" rx="4.00001" ry="4.00001"/>
<polygon fill="#c73bd4" stroke="#c73bd4" points="991.183,-19.9478 1001.25,-24.3008 996.183,-19.8745 1001.18,-19.8012 1001.18,-19.8012 1001.18,-19.8012 996.183,-19.8745 1001.12,-15.3017 991.183,-19.9478 991.183,-19.9478"/>
<text text-anchor="middle" x="600.5" y="-58.3" font-family="Times,serif" font-size="14.00">versions</text>
</g>
</g>
</svg>
