<?xml version="1.0" encoding="UTF-8" standalone="no"?>
<!DOCTYPE svg PUBLIC "-//W3C//DTD SVG 1.1//EN"
 "http://www.w3.org/Graphics/SVG/1.1/DTD/svg11.dtd">
<!-- Generated by graphviz version 2.26.3 (20100126.1600)
 -->
<!-- Title: models_diagram Pages: 1 -->
<svg width="1358pt" height="1506pt"
 viewBox="0.00 0.00 1358.00 1506.00" xmlns="http://www.w3.org/2000/svg" xmlns:xlink="http://www.w3.org/1999/xlink">
<g id="graph1" class="graph" transform="scale(1 1) rotate(0) translate(4 1502)">
<title>models_diagram</title>
<polygon fill="none" stroke="none" points="-4,5 -4,-1502 1355,-1502 1355,5 -4,5"/>
<!-- Tag -->
<g id="node1" class="node"><title>Tag</title>
<polyline fill="none" stroke="black" points="12,-1265 170,-1265 "/>
<path fill="none" stroke="black" d="M170,-1265C176,-1265 182,-1271 182,-1277"/>
<polyline fill="none" stroke="black" points="182,-1277 182,-1485 "/>
<path fill="none" stroke="black" d="M182,-1485C182,-1491 176,-1497 170,-1497"/>
<polyline fill="none" stroke="black" points="170,-1497 12,-1497 "/>
<path fill="none" stroke="black" d="M12,-1497C6,-1497 0,-1491 0,-1485"/>
<polyline fill="none" stroke="black" points="0,-1485 0,-1277 "/>
<path fill="none" stroke="black" d="M0,-1277C0,-1271 6,-1265 12,-1265"/>
<text text-anchor="middle" x="91" y="-1480.4" font-family="Times Roman,serif" font-size="14.00">Tag</text>
<polyline fill="none" stroke="black" points="0,-1471 182,-1471 "/>
<text text-anchor="start" x="8" y="-1454.4" font-family="Times Roman,serif" font-size="14.00">created_at :Time</text>
<text text-anchor="start" x="8" y="-1436.4" font-family="Times Roman,serif" font-size="14.00">updated_at :Time</text>
<text text-anchor="start" x="8" y="-1418.4" font-family="Times Roman,serif" font-size="14.00">annotation_type :String</text>
<text text-anchor="start" x="8" y="-1400.4" font-family="Times Roman,serif" font-size="14.00">version_index :Integer</text>
<text text-anchor="start" x="8" y="-1382.4" font-family="Times Roman,serif" font-size="14.00">annotated_type :String</text>
<text text-anchor="start" x="8" y="-1364.4" font-family="Times Roman,serif" font-size="14.00">annotated_id :String</text>
<text text-anchor="start" x="8" y="-1346.4" font-family="Times Roman,serif" font-size="14.00">context_type :String</text>
<text text-anchor="start" x="8" y="-1328.4" font-family="Times Roman,serif" font-size="14.00">context_id :String</text>
<text text-anchor="start" x="8" y="-1310.4" font-family="Times Roman,serif" font-size="14.00">annotator_type :String</text>
<text text-anchor="start" x="8" y="-1292.4" font-family="Times Roman,serif" font-size="14.00">annotator_id :String</text>
<text text-anchor="start" x="8" y="-1274.4" font-family="Times Roman,serif" font-size="14.00">tag :String</text>
</g>
<!-- Status -->
<g id="node2" class="node"><title>Status</title>
<polyline fill="none" stroke="black" points="212,-1265 370,-1265 "/>
<path fill="none" stroke="black" d="M370,-1265C376,-1265 382,-1271 382,-1277"/>
<polyline fill="none" stroke="black" points="382,-1277 382,-1485 "/>
<path fill="none" stroke="black" d="M382,-1485C382,-1491 376,-1497 370,-1497"/>
<polyline fill="none" stroke="black" points="370,-1497 212,-1497 "/>
<path fill="none" stroke="black" d="M212,-1497C206,-1497 200,-1491 200,-1485"/>
<polyline fill="none" stroke="black" points="200,-1485 200,-1277 "/>
<path fill="none" stroke="black" d="M200,-1277C200,-1271 206,-1265 212,-1265"/>
<text text-anchor="middle" x="291" y="-1480.4" font-family="Times Roman,serif" font-size="14.00">Status</text>
<polyline fill="none" stroke="black" points="200,-1471 382,-1471 "/>
<text text-anchor="start" x="208" y="-1454.4" font-family="Times Roman,serif" font-size="14.00">created_at :Time</text>
<text text-anchor="start" x="208" y="-1436.4" font-family="Times Roman,serif" font-size="14.00">updated_at :Time</text>
<text text-anchor="start" x="208" y="-1418.4" font-family="Times Roman,serif" font-size="14.00">annotation_type :String</text>
<text text-anchor="start" x="208" y="-1400.4" font-family="Times Roman,serif" font-size="14.00">version_index :Integer</text>
<text text-anchor="start" x="208" y="-1382.4" font-family="Times Roman,serif" font-size="14.00">annotated_type :String</text>
<text text-anchor="start" x="208" y="-1364.4" font-family="Times Roman,serif" font-size="14.00">annotated_id :String</text>
<text text-anchor="start" x="208" y="-1346.4" font-family="Times Roman,serif" font-size="14.00">context_type :String</text>
<text text-anchor="start" x="208" y="-1328.4" font-family="Times Roman,serif" font-size="14.00">context_id :String</text>
<text text-anchor="start" x="208" y="-1310.4" font-family="Times Roman,serif" font-size="14.00">annotator_type :String</text>
<text text-anchor="start" x="208" y="-1292.4" font-family="Times Roman,serif" font-size="14.00">annotator_id :String</text>
<text text-anchor="start" x="208" y="-1274.4" font-family="Times Roman,serif" font-size="14.00">status :String</text>
</g>
<!-- Flag -->
<g id="node3" class="node"><title>Flag</title>
<polyline fill="none" stroke="black" points="412,-1265 570,-1265 "/>
<path fill="none" stroke="black" d="M570,-1265C576,-1265 582,-1271 582,-1277"/>
<polyline fill="none" stroke="black" points="582,-1277 582,-1485 "/>
<path fill="none" stroke="black" d="M582,-1485C582,-1491 576,-1497 570,-1497"/>
<polyline fill="none" stroke="black" points="570,-1497 412,-1497 "/>
<path fill="none" stroke="black" d="M412,-1497C406,-1497 400,-1491 400,-1485"/>
<polyline fill="none" stroke="black" points="400,-1485 400,-1277 "/>
<path fill="none" stroke="black" d="M400,-1277C400,-1271 406,-1265 412,-1265"/>
<text text-anchor="middle" x="491" y="-1480.4" font-family="Times Roman,serif" font-size="14.00">Flag</text>
<polyline fill="none" stroke="black" points="400,-1471 582,-1471 "/>
<text text-anchor="start" x="408" y="-1454.4" font-family="Times Roman,serif" font-size="14.00">created_at :Time</text>
<text text-anchor="start" x="408" y="-1436.4" font-family="Times Roman,serif" font-size="14.00">updated_at :Time</text>
<text text-anchor="start" x="408" y="-1418.4" font-family="Times Roman,serif" font-size="14.00">annotation_type :String</text>
<text text-anchor="start" x="408" y="-1400.4" font-family="Times Roman,serif" font-size="14.00">version_index :Integer</text>
<text text-anchor="start" x="408" y="-1382.4" font-family="Times Roman,serif" font-size="14.00">annotated_type :String</text>
<text text-anchor="start" x="408" y="-1364.4" font-family="Times Roman,serif" font-size="14.00">annotated_id :String</text>
<text text-anchor="start" x="408" y="-1346.4" font-family="Times Roman,serif" font-size="14.00">context_type :String</text>
<text text-anchor="start" x="408" y="-1328.4" font-family="Times Roman,serif" font-size="14.00">context_id :String</text>
<text text-anchor="start" x="408" y="-1310.4" font-family="Times Roman,serif" font-size="14.00">annotator_type :String</text>
<text text-anchor="start" x="408" y="-1292.4" font-family="Times Roman,serif" font-size="14.00">annotator_id :String</text>
<text text-anchor="start" x="408" y="-1274.4" font-family="Times Roman,serif" font-size="14.00">flag :String</text>
</g>
<!-- Comment -->
<g id="node4" class="node"><title>Comment</title>
<polyline fill="none" stroke="black" points="612,-1265 770,-1265 "/>
<path fill="none" stroke="black" d="M770,-1265C776,-1265 782,-1271 782,-1277"/>
<polyline fill="none" stroke="black" points="782,-1277 782,-1485 "/>
<path fill="none" stroke="black" d="M782,-1485C782,-1491 776,-1497 770,-1497"/>
<polyline fill="none" stroke="black" points="770,-1497 612,-1497 "/>
<path fill="none" stroke="black" d="M612,-1497C606,-1497 600,-1491 600,-1485"/>
<polyline fill="none" stroke="black" points="600,-1485 600,-1277 "/>
<path fill="none" stroke="black" d="M600,-1277C600,-1271 606,-1265 612,-1265"/>
<text text-anchor="middle" x="691" y="-1480.4" font-family="Times Roman,serif" font-size="14.00">Comment</text>
<polyline fill="none" stroke="black" points="600,-1471 782,-1471 "/>
<text text-anchor="start" x="608" y="-1454.4" font-family="Times Roman,serif" font-size="14.00">created_at :Time</text>
<text text-anchor="start" x="608" y="-1436.4" font-family="Times Roman,serif" font-size="14.00">updated_at :Time</text>
<text text-anchor="start" x="608" y="-1418.4" font-family="Times Roman,serif" font-size="14.00">annotation_type :String</text>
<text text-anchor="start" x="608" y="-1400.4" font-family="Times Roman,serif" font-size="14.00">version_index :Integer</text>
<text text-anchor="start" x="608" y="-1382.4" font-family="Times Roman,serif" font-size="14.00">annotated_type :String</text>
<text text-anchor="start" x="608" y="-1364.4" font-family="Times Roman,serif" font-size="14.00">annotated_id :String</text>
<text text-anchor="start" x="608" y="-1346.4" font-family="Times Roman,serif" font-size="14.00">context_type :String</text>
<text text-anchor="start" x="608" y="-1328.4" font-family="Times Roman,serif" font-size="14.00">context_id :String</text>
<text text-anchor="start" x="608" y="-1310.4" font-family="Times Roman,serif" font-size="14.00">annotator_type :String</text>
<text text-anchor="start" x="608" y="-1292.4" font-family="Times Roman,serif" font-size="14.00">annotator_id :String</text>
<text text-anchor="start" x="608" y="-1274.4" font-family="Times Roman,serif" font-size="14.00">text :String</text>
</g>
<!-- Annotation -->
<g id="node5" class="node"><title>Annotation</title>
<polyline fill="none" stroke="black" points="812,-1274 970,-1274 "/>
<path fill="none" stroke="black" d="M970,-1274C976,-1274 982,-1280 982,-1286"/>
<polyline fill="none" stroke="black" points="982,-1286 982,-1476 "/>
<path fill="none" stroke="black" d="M982,-1476C982,-1482 976,-1488 970,-1488"/>
<polyline fill="none" stroke="black" points="970,-1488 812,-1488 "/>
<path fill="none" stroke="black" d="M812,-1488C806,-1488 800,-1482 800,-1476"/>
<polyline fill="none" stroke="black" points="800,-1476 800,-1286 "/>
<path fill="none" stroke="black" d="M800,-1286C800,-1280 806,-1274 812,-1274"/>
<text text-anchor="middle" x="891" y="-1471.4" font-family="Times Roman,serif" font-size="14.00">Annotation</text>
<polyline fill="none" stroke="black" points="800,-1462 982,-1462 "/>
<text text-anchor="start" x="808" y="-1445.4" font-family="Times Roman,serif" font-size="14.00">created_at :Time</text>
<text text-anchor="start" x="808" y="-1427.4" font-family="Times Roman,serif" font-size="14.00">updated_at :Time</text>
<text text-anchor="start" x="808" y="-1409.4" font-family="Times Roman,serif" font-size="14.00">annotation_type :String</text>
<text text-anchor="start" x="808" y="-1391.4" font-family="Times Roman,serif" font-size="14.00">version_index :Integer</text>
<text text-anchor="start" x="808" y="-1373.4" font-family="Times Roman,serif" font-size="14.00">annotated_type :String</text>
<text text-anchor="start" x="808" y="-1355.4" font-family="Times Roman,serif" font-size="14.00">annotated_id :String</text>
<text text-anchor="start" x="808" y="-1337.4" font-family="Times Roman,serif" font-size="14.00">context_type :String</text>
<text text-anchor="start" x="808" y="-1319.4" font-family="Times Roman,serif" font-size="14.00">context_id :String</text>
<text text-anchor="start" x="808" y="-1301.4" font-family="Times Roman,serif" font-size="14.00">annotator_type :String</text>
<text text-anchor="start" x="808" y="-1283.4" font-family="Times Roman,serif" font-size="14.00">annotator_id :String</text>
</g>
<!-- Source -->
<g id="node6" class="node"><title>Source</title>
<polyline fill="none" stroke="black" points="833.5,-649 974.5,-649 "/>
<path fill="none" stroke="black" d="M974.5,-649C980.5,-649 986.5,-655 986.5,-661"/>
<polyline fill="none" stroke="black" points="986.5,-661 986.5,-797 "/>
<path fill="none" stroke="black" d="M986.5,-797C986.5,-803 980.5,-809 974.5,-809"/>
<polyline fill="none" stroke="black" points="974.5,-809 833.5,-809 "/>
<path fill="none" stroke="black" d="M833.5,-809C827.5,-809 821.5,-803 821.5,-797"/>
<polyline fill="none" stroke="black" points="821.5,-797 821.5,-661 "/>
<path fill="none" stroke="black" d="M821.5,-661C821.5,-655 827.5,-649 833.5,-649"/>
<text text-anchor="middle" x="904" y="-792.4" font-family="Times Roman,serif" font-size="14.00">Source</text>
<polyline fill="none" stroke="black" points="821.5,-783 986.5,-783 "/>
<text text-anchor="start" x="829.5" y="-766.4" font-family="Times Roman,serif" font-size="14.00">id :INTEGER</text>
<text text-anchor="start" x="829.5" y="-748.4" font-family="Times Roman,serif" font-size="14.00">user_id :integer</text>
<text text-anchor="start" x="829.5" y="-730.4" font-family="Times Roman,serif" font-size="14.00">name :varchar</text>
<text text-anchor="start" x="829.5" y="-712.4" font-family="Times Roman,serif" font-size="14.00">slogan :varchar</text>
<text text-anchor="start" x="829.5" y="-694.4" font-family="Times Roman,serif" font-size="14.00">avatar :varchar</text>
<text text-anchor="start" x="829.5" y="-676.4" font-family="Times Roman,serif" font-size="14.00">created_at :datetime</text>
<text text-anchor="start" x="829.5" y="-658.4" font-family="Times Roman,serif" font-size="14.00">updated_at :datetime</text>
</g>
<!-- ProjectSource -->
<g id="node8" class="node"><title>ProjectSource</title>
<polyline fill="none" stroke="black" points="1031.5,-199 1172.5,-199 "/>
<path fill="none" stroke="black" d="M1172.5,-199C1178.5,-199 1184.5,-205 1184.5,-211"/>
<polyline fill="none" stroke="black" points="1184.5,-211 1184.5,-311 "/>
<path fill="none" stroke="black" d="M1184.5,-311C1184.5,-317 1178.5,-323 1172.5,-323"/>
<polyline fill="none" stroke="black" points="1172.5,-323 1031.5,-323 "/>
<path fill="none" stroke="black" d="M1031.5,-323C1025.5,-323 1019.5,-317 1019.5,-311"/>
<polyline fill="none" stroke="black" points="1019.5,-311 1019.5,-211 "/>
<path fill="none" stroke="black" d="M1019.5,-211C1019.5,-205 1025.5,-199 1031.5,-199"/>
<text text-anchor="middle" x="1102" y="-306.4" font-family="Times Roman,serif" font-size="14.00">ProjectSource</text>
<polyline fill="none" stroke="black" points="1019.5,-297 1184.5,-297 "/>
<text text-anchor="start" x="1027.5" y="-280.4" font-family="Times Roman,serif" font-size="14.00">id :INTEGER</text>
<text text-anchor="start" x="1027.5" y="-262.4" font-family="Times Roman,serif" font-size="14.00">project_id :integer</text>
<text text-anchor="start" x="1027.5" y="-244.4" font-family="Times Roman,serif" font-size="14.00">source_id :integer</text>
<text text-anchor="start" x="1027.5" y="-226.4" font-family="Times Roman,serif" font-size="14.00">created_at :datetime</text>
<text text-anchor="start" x="1027.5" y="-208.4" font-family="Times Roman,serif" font-size="14.00">updated_at :datetime</text>
</g>
<!-- Source&#45;&gt;ProjectSource -->
<g id="edge6" class="edge"><title>Source&#45;&gt;ProjectSource</title>
<path fill="none" stroke="#624c26" d="M930.831,-641.129C958.801,-550.263 1000.06,-418.525 1011,-396 1021.59,-374.197 1035.29,-351.853 1048.84,-331.778"/>
<ellipse fill="none" stroke="#624c26" cx="929.596" cy="-645.143" rx="4.00001" ry="4.00001"/>
<polygon fill="#624c26" stroke="#624c26" points="1048.98,-331.574 1058.34,-325.862 1051.8,-327.447 1054.62,-323.321 1054.62,-323.321 1054.62,-323.321 1051.8,-327.447 1050.91,-320.78 1048.98,-331.574 1048.98,-331.574"/>
</g>
<!-- Account -->
<g id="node9" class="node"><title>Account</title>
<polyline fill="none" stroke="black" points="783.5,-415 924.5,-415 "/>
<path fill="none" stroke="black" d="M924.5,-415C930.5,-415 936.5,-421 936.5,-427"/>
<polyline fill="none" stroke="black" points="936.5,-427 936.5,-563 "/>
<path fill="none" stroke="black" d="M936.5,-563C936.5,-569 930.5,-575 924.5,-575"/>
<polyline fill="none" stroke="black" points="924.5,-575 783.5,-575 "/>
<path fill="none" stroke="black" d="M783.5,-575C777.5,-575 771.5,-569 771.5,-563"/>
<polyline fill="none" stroke="black" points="771.5,-563 771.5,-427 "/>
<path fill="none" stroke="black" d="M771.5,-427C771.5,-421 777.5,-415 783.5,-415"/>
<text text-anchor="middle" x="854" y="-558.4" font-family="Times Roman,serif" font-size="14.00">Account</text>
<polyline fill="none" stroke="black" points="771.5,-549 936.5,-549 "/>
<text text-anchor="start" x="779.5" y="-532.4" font-family="Times Roman,serif" font-size="14.00">id :INTEGER</text>
<text text-anchor="start" x="779.5" y="-514.4" font-family="Times Roman,serif" font-size="14.00">user_id :integer</text>
<text text-anchor="start" x="779.5" y="-496.4" font-family="Times Roman,serif" font-size="14.00">source_id :integer</text>
<text text-anchor="start" x="779.5" y="-478.4" font-family="Times Roman,serif" font-size="14.00">url :varchar</text>
<text text-anchor="start" x="779.5" y="-460.4" font-family="Times Roman,serif" font-size="14.00">data :text</text>
<text text-anchor="start" x="779.5" y="-442.4" font-family="Times Roman,serif" font-size="14.00">created_at :datetime</text>
<text text-anchor="start" x="779.5" y="-424.4" font-family="Times Roman,serif" font-size="14.00">updated_at :datetime</text>
</g>
<!-- Source&#45;&gt;Account -->
<g id="edge4" class="edge"><title>Source&#45;&gt;Account</title>
<path fill="none" stroke="#019023" d="M885.177,-640.908C881.264,-622.597 877.136,-603.278 873.21,-584.902"/>
<ellipse fill="none" stroke="#019023" cx="886.027" cy="-644.886" rx="4.00001" ry="4.00001"/>
<polygon fill="#019023" stroke="#019023" points="873.204,-584.877 875.515,-574.157 872.16,-579.987 871.115,-575.097 871.115,-575.097 871.115,-575.097 872.16,-579.987 866.714,-576.038 873.204,-584.877 873.204,-584.877"/>
</g>
<!-- Project -->
<g id="node10" class="node"><title>Project</title>
<polyline fill="none" stroke="black" points="1031.5,-397 1172.5,-397 "/>
<path fill="none" stroke="black" d="M1172.5,-397C1178.5,-397 1184.5,-403 1184.5,-409"/>
<polyline fill="none" stroke="black" points="1184.5,-409 1184.5,-581 "/>
<path fill="none" stroke="black" d="M1184.5,-581C1184.5,-587 1178.5,-593 1172.5,-593"/>
<polyline fill="none" stroke="black" points="1172.5,-593 1031.5,-593 "/>
<path fill="none" stroke="black" d="M1031.5,-593C1025.5,-593 1019.5,-587 1019.5,-581"/>
<polyline fill="none" stroke="black" points="1019.5,-581 1019.5,-409 "/>
<path fill="none" stroke="black" d="M1019.5,-409C1019.5,-403 1025.5,-397 1031.5,-397"/>
<text text-anchor="middle" x="1102" y="-576.4" font-family="Times Roman,serif" font-size="14.00">Project</text>
<polyline fill="none" stroke="black" points="1019.5,-567 1184.5,-567 "/>
<text text-anchor="start" x="1027.5" y="-550.4" font-family="Times Roman,serif" font-size="14.00">id :INTEGER</text>
<text text-anchor="start" x="1027.5" y="-532.4" font-family="Times Roman,serif" font-size="14.00">user_id :integer</text>
<text text-anchor="start" x="1027.5" y="-514.4" font-family="Times Roman,serif" font-size="14.00">team_id :integer</text>
<text text-anchor="start" x="1027.5" y="-496.4" font-family="Times Roman,serif" font-size="14.00">title :varchar</text>
<text text-anchor="start" x="1027.5" y="-478.4" font-family="Times Roman,serif" font-size="14.00">description :text</text>
<text text-anchor="start" x="1027.5" y="-460.4" font-family="Times Roman,serif" font-size="14.00">lead_image :varchar</text>
<text text-anchor="start" x="1027.5" y="-442.4" font-family="Times Roman,serif" font-size="14.00">created_at :datetime</text>
<text text-anchor="start" x="1027.5" y="-424.4" font-family="Times Roman,serif" font-size="14.00">updated_at :datetime</text>
<text text-anchor="start" x="1027.5" y="-406.4" font-family="Times Roman,serif" font-size="14.00">archived :boolean</text>
</g>
<!-- Source&#45;&gt;Project -->
<g id="edge8" class="edge"><title>Source&#45;&gt;Project</title>
<path fill="none" stroke="#3e4e1c" d="M978.347,-641.136C989.481,-627.977 1001.06,-614.292 1012.47,-600.808"/>
<polygon fill="#3e4e1c" stroke="#3e4e1c" points="978.323,-641.164 968.428,-645.891 975.093,-644.981 971.863,-648.798 971.863,-648.798 971.863,-648.798 975.093,-644.981 975.299,-651.705 978.323,-641.164 978.323,-641.164"/>
<polygon fill="#3e4e1c" stroke="#3e4e1c" points="1012.7,-600.531 1022.6,-595.804 1015.93,-596.714 1019.16,-592.897 1019.16,-592.897 1019.16,-592.897 1015.93,-596.714 1015.73,-589.99 1012.7,-600.531 1012.7,-600.531"/>
</g>
<!-- PaperTrail::Version -->
<g id="node17" class="node"><title>PaperTrail::Version</title>
<ellipse fill="none" stroke="black" cx="762" cy="-63" rx="101.823" ry="18.3848"/>
<text text-anchor="middle" x="762" y="-59.4" font-family="Times Roman,serif" font-size="14.00">PaperTrail::Version</text>
</g>
<!-- Source&#45;&gt;PaperTrail::Version -->
<g id="edge2" class="edge"><title>Source&#45;&gt;PaperTrail::Version</title>
<path fill="none" stroke="#1089f4" d="M815.302,-659.528C795.534,-640.219 776.471,-617.92 763,-594 667.777,-424.917 728.473,-174.882 753.058,-91.339"/>
<ellipse fill="none" stroke="#1089f4" cx="818.285" cy="-662.388" rx="4.00002" ry="4.00002"/>
<polygon fill="#1089f4" stroke="#1089f4" points="753.121,-91.1294 760.309,-82.8479 754.56,-86.341 756,-81.5526 756,-81.5526 756,-81.5526 754.56,-86.341 751.69,-80.2573 753.121,-91.1294 753.121,-91.1294"/>
<text text-anchor="middle" x="740" y="-365.4" font-family="Times Roman,serif" font-size="14.00">versions</text>
</g>
<!-- Team -->
<g id="node7" class="node"><title>Team</title>
<polyline fill="none" stroke="black" points="1011.5,-1292 1152.5,-1292 "/>
<path fill="none" stroke="black" d="M1152.5,-1292C1158.5,-1292 1164.5,-1298 1164.5,-1304"/>
<polyline fill="none" stroke="black" points="1164.5,-1304 1164.5,-1458 "/>
<path fill="none" stroke="black" d="M1164.5,-1458C1164.5,-1464 1158.5,-1470 1152.5,-1470"/>
<polyline fill="none" stroke="black" points="1152.5,-1470 1011.5,-1470 "/>
<path fill="none" stroke="black" d="M1011.5,-1470C1005.5,-1470 999.5,-1464 999.5,-1458"/>
<polyline fill="none" stroke="black" points="999.5,-1458 999.5,-1304 "/>
<path fill="none" stroke="black" d="M999.5,-1304C999.5,-1298 1005.5,-1292 1011.5,-1292"/>
<text text-anchor="middle" x="1082" y="-1453.4" font-family="Times Roman,serif" font-size="14.00">Team</text>
<polyline fill="none" stroke="black" points="999.5,-1444 1164.5,-1444 "/>
<text text-anchor="start" x="1007.5" y="-1427.4" font-family="Times Roman,serif" font-size="14.00">id :INTEGER</text>
<text text-anchor="start" x="1007.5" y="-1409.4" font-family="Times Roman,serif" font-size="14.00">name :varchar</text>
<text text-anchor="start" x="1007.5" y="-1391.4" font-family="Times Roman,serif" font-size="14.00">logo :varchar</text>
<text text-anchor="start" x="1007.5" y="-1373.4" font-family="Times Roman,serif" font-size="14.00">private :boolean</text>
<text text-anchor="start" x="1007.5" y="-1355.4" font-family="Times Roman,serif" font-size="14.00">archived :boolean</text>
<text text-anchor="start" x="1007.5" y="-1337.4" font-family="Times Roman,serif" font-size="14.00">created_at :datetime</text>
<text text-anchor="start" x="1007.5" y="-1319.4" font-family="Times Roman,serif" font-size="14.00">updated_at :datetime</text>
<text text-anchor="start" x="1007.5" y="-1301.4" font-family="Times Roman,serif" font-size="14.00">description :text</text>
</g>
<!-- Team&#45;&gt;Project -->
<g id="edge12" class="edge"><title>Team&#45;&gt;Project</title>
<path fill="none" stroke="#618724" d="M1137.48,-1284.6C1146.55,-1265.65 1154.94,-1245.57 1161,-1226 1237.3,-979.533 1295.69,-893.066 1215,-648 1209.11,-630.105 1200.23,-612.586 1189.99,-596.166"/>
<ellipse fill="none" stroke="#618724" cx="1135.72" cy="-1288.21" rx="4.00002" ry="4.00002"/>
<polygon fill="#618724" stroke="#618724" points="1189.94,-596.086 1188.3,-585.244 1187.23,-591.885 1184.52,-587.683 1184.52,-587.683 1184.52,-587.683 1187.23,-591.885 1180.74,-590.122 1189.94,-596.086 1189.94,-596.086"/>
</g>
<!-- TeamUser -->
<g id="node11" class="node"><title>TeamUser</title>
<polyline fill="none" stroke="black" points="1053.5,-667 1194.5,-667 "/>
<path fill="none" stroke="black" d="M1194.5,-667C1200.5,-667 1206.5,-673 1206.5,-679"/>
<polyline fill="none" stroke="black" points="1206.5,-679 1206.5,-779 "/>
<path fill="none" stroke="black" d="M1206.5,-779C1206.5,-785 1200.5,-791 1194.5,-791"/>
<polyline fill="none" stroke="black" points="1194.5,-791 1053.5,-791 "/>
<path fill="none" stroke="black" d="M1053.5,-791C1047.5,-791 1041.5,-785 1041.5,-779"/>
<polyline fill="none" stroke="black" points="1041.5,-779 1041.5,-679 "/>
<path fill="none" stroke="black" d="M1041.5,-679C1041.5,-673 1047.5,-667 1053.5,-667"/>
<text text-anchor="middle" x="1124" y="-774.4" font-family="Times Roman,serif" font-size="14.00">TeamUser</text>
<polyline fill="none" stroke="black" points="1041.5,-765 1206.5,-765 "/>
<text text-anchor="start" x="1049.5" y="-748.4" font-family="Times Roman,serif" font-size="14.00">id :INTEGER</text>
<text text-anchor="start" x="1049.5" y="-730.4" font-family="Times Roman,serif" font-size="14.00">team_id :integer</text>
<text text-anchor="start" x="1049.5" y="-712.4" font-family="Times Roman,serif" font-size="14.00">user_id :integer</text>
<text text-anchor="start" x="1049.5" y="-694.4" font-family="Times Roman,serif" font-size="14.00">created_at :datetime</text>
<text text-anchor="start" x="1049.5" y="-676.4" font-family="Times Roman,serif" font-size="14.00">updated_at :datetime</text>
</g>
<!-- Team&#45;&gt;TeamUser -->
<g id="edge14" class="edge"><title>Team&#45;&gt;TeamUser</title>
<path fill="none" stroke="#e509f5" d="M1124.23,-1284.2C1130.78,-1265.24 1136.51,-1245.26 1140,-1226 1166.99,-1076.88 1149.44,-898.584 1135.75,-801.236"/>
<ellipse fill="none" stroke="#e509f5" cx="1122.82" cy="-1288.2" rx="4.00001" ry="4.00001"/>
<polygon fill="#e509f5" stroke="#e509f5" points="1135.73,-801.109 1138.76,-790.571 1135.02,-796.159 1134.31,-791.21 1134.31,-791.21 1134.31,-791.21 1135.02,-796.159 1129.85,-791.848 1135.73,-801.109 1135.73,-801.109"/>
</g>
<!-- User -->
<g id="node14" class="node"><title>User</title>
<polyline fill="none" stroke="black" points="889,-849 1119,-849 "/>
<path fill="none" stroke="black" d="M1119,-849C1125,-849 1131,-855 1131,-861"/>
<polyline fill="none" stroke="black" points="1131,-861 1131,-1213 "/>
<path fill="none" stroke="black" d="M1131,-1213C1131,-1219 1125,-1225 1119,-1225"/>
<polyline fill="none" stroke="black" points="1119,-1225 889,-1225 "/>
<path fill="none" stroke="black" d="M889,-1225C883,-1225 877,-1219 877,-1213"/>
<polyline fill="none" stroke="black" points="877,-1213 877,-861 "/>
<path fill="none" stroke="black" d="M877,-861C877,-855 883,-849 889,-849"/>
<text text-anchor="middle" x="1004" y="-1208.4" font-family="Times Roman,serif" font-size="14.00">User</text>
<polyline fill="none" stroke="black" points="877,-1199 1131,-1199 "/>
<text text-anchor="start" x="885" y="-1182.4" font-family="Times Roman,serif" font-size="14.00">id :INTEGER</text>
<text text-anchor="start" x="885" y="-1164.4" font-family="Times Roman,serif" font-size="14.00">name :varchar</text>
<text text-anchor="start" x="885" y="-1146.4" font-family="Times Roman,serif" font-size="14.00">login :varchar</text>
<text text-anchor="start" x="885" y="-1128.4" font-family="Times Roman,serif" font-size="14.00">uuid :varchar</text>
<text text-anchor="start" x="885" y="-1110.4" font-family="Times Roman,serif" font-size="14.00">provider :varchar</text>
<text text-anchor="start" x="885" y="-1092.4" font-family="Times Roman,serif" font-size="14.00">token :varchar</text>
<text text-anchor="start" x="885" y="-1074.4" font-family="Times Roman,serif" font-size="14.00">email :varchar</text>
<text text-anchor="start" x="885" y="-1056.4" font-family="Times Roman,serif" font-size="14.00">encrypted_password :varchar</text>
<text text-anchor="start" x="885" y="-1038.4" font-family="Times Roman,serif" font-size="14.00">reset_password_token :varchar</text>
<text text-anchor="start" x="885" y="-1020.4" font-family="Times Roman,serif" font-size="14.00">reset_password_sent_at :datetime</text>
<text text-anchor="start" x="885" y="-1002.4" font-family="Times Roman,serif" font-size="14.00">remember_created_at :datetime</text>
<text text-anchor="start" x="885" y="-984.4" font-family="Times Roman,serif" font-size="14.00">sign_in_count :integer</text>
<text text-anchor="start" x="885" y="-966.4" font-family="Times Roman,serif" font-size="14.00">current_sign_in_at :datetime</text>
<text text-anchor="start" x="885" y="-948.4" font-family="Times Roman,serif" font-size="14.00">last_sign_in_at :datetime</text>
<text text-anchor="start" x="885" y="-930.4" font-family="Times Roman,serif" font-size="14.00">current_sign_in_ip :varchar</text>
<text text-anchor="start" x="885" y="-912.4" font-family="Times Roman,serif" font-size="14.00">last_sign_in_ip :varchar</text>
<text text-anchor="start" x="885" y="-894.4" font-family="Times Roman,serif" font-size="14.00">created_at :datetime</text>
<text text-anchor="start" x="885" y="-876.4" font-family="Times Roman,serif" font-size="14.00">updated_at :datetime</text>
<text text-anchor="start" x="885" y="-858.4" font-family="Times Roman,serif" font-size="14.00">profile_image :varchar</text>
</g>
<!-- Team&#45;&gt;User -->
<g id="edge16" class="edge"><title>Team&#45;&gt;User</title>
<path fill="none" stroke="#223cb3" d="M1059.58,-1282.11C1056.2,-1267.21 1052.62,-1251.42 1048.96,-1235.3"/>
<polygon fill="#223cb3" stroke="#223cb3" points="1059.6,-1282.21 1057.42,-1292.96 1060.71,-1287.09 1061.81,-1291.96 1061.81,-1291.96 1061.81,-1291.96 1060.71,-1287.09 1066.2,-1290.97 1059.6,-1282.21 1059.6,-1282.21"/>
<polygon fill="#223cb3" stroke="#223cb3" points="1048.89,-1234.99 1051.07,-1224.24 1047.79,-1230.11 1046.68,-1225.24 1046.68,-1225.24 1046.68,-1225.24 1047.79,-1230.11 1042.29,-1226.23 1048.89,-1234.99 1048.89,-1234.99"/>
</g>
<!-- Team&#45;&gt;PaperTrail::Version -->
<g id="edge10" class="edge"><title>Team&#45;&gt;PaperTrail::Version</title>
<path fill="none" stroke="#41a6aa" d="M1016.54,-1285.65C1008.57,-1277.64 1000.03,-1270.24 991,-1264 943.93,-1231.47 918.235,-1253.39 868,-1226 753.336,-1163.49 643,-1167.6 643,-1037 643,-1037 643,-1037 643,-261 643,-190.716 698.765,-123.873 733.947,-88.6956"/>
<ellipse fill="none" stroke="#41a6aa" cx="1019.75" cy="-1289" rx="4.00002" ry="4.00002"/>
<polygon fill="#41a6aa" stroke="#41a6aa" points="734.392,-88.2602 744.689,-84.4877 737.968,-84.765 741.543,-81.2698 741.543,-81.2698 741.543,-81.2698 737.968,-84.765 738.397,-78.0519 734.392,-88.2602 734.392,-88.2602"/>
<text text-anchor="middle" x="672" y="-617.4" font-family="Times Roman,serif" font-size="14.00">versions</text>
</g>
<!-- Media -->
<g id="node13" class="node"><title>Media</title>
<polyline fill="none" stroke="black" points="849.5,-181 990.5,-181 "/>
<path fill="none" stroke="black" d="M990.5,-181C996.5,-181 1002.5,-187 1002.5,-193"/>
<polyline fill="none" stroke="black" points="1002.5,-193 1002.5,-329 "/>
<path fill="none" stroke="black" d="M1002.5,-329C1002.5,-335 996.5,-341 990.5,-341"/>
<polyline fill="none" stroke="black" points="990.5,-341 849.5,-341 "/>
<path fill="none" stroke="black" d="M849.5,-341C843.5,-341 837.5,-335 837.5,-329"/>
<polyline fill="none" stroke="black" points="837.5,-329 837.5,-193 "/>
<path fill="none" stroke="black" d="M837.5,-193C837.5,-187 843.5,-181 849.5,-181"/>
<text text-anchor="middle" x="920" y="-324.4" font-family="Times Roman,serif" font-size="14.00">Media</text>
<polyline fill="none" stroke="black" points="837.5,-315 1002.5,-315 "/>
<text text-anchor="start" x="845.5" y="-298.4" font-family="Times Roman,serif" font-size="14.00">id :INTEGER</text>
<text text-anchor="start" x="845.5" y="-280.4" font-family="Times Roman,serif" font-size="14.00">user_id :integer</text>
<text text-anchor="start" x="845.5" y="-262.4" font-family="Times Roman,serif" font-size="14.00">account_id :integer</text>
<text text-anchor="start" x="845.5" y="-244.4" font-family="Times Roman,serif" font-size="14.00">url :varchar</text>
<text text-anchor="start" x="845.5" y="-226.4" font-family="Times Roman,serif" font-size="14.00">data :text</text>
<text text-anchor="start" x="845.5" y="-208.4" font-family="Times Roman,serif" font-size="14.00">created_at :datetime</text>
<text text-anchor="start" x="845.5" y="-190.4" font-family="Times Roman,serif" font-size="14.00">updated_at :datetime</text>
</g>
<!-- Account&#45;&gt;Media -->
<g id="edge20" class="edge"><title>Account&#45;&gt;Media</title>
<path fill="none" stroke="#16d41c" d="M878.846,-406.908C884.011,-388.597 889.46,-369.278 894.643,-350.902"/>
<ellipse fill="none" stroke="#16d41c" cx="877.707" cy="-410.948" rx="4.00001" ry="4.00001"/>
<polygon fill="#16d41c" stroke="#16d41c" points="894.694,-350.722 901.739,-342.319 896.051,-345.91 897.408,-341.097 897.408,-341.097 897.408,-341.097 896.051,-345.91 893.077,-339.876 894.694,-350.722 894.694,-350.722"/>
</g>
<!-- Account&#45;&gt;PaperTrail::Version -->
<g id="edge18" class="edge"><title>Account&#45;&gt;PaperTrail::Version</title>
<path fill="none" stroke="#8fb776" d="M797.717,-407.718C786.887,-386.943 777.046,-364.308 771,-342 746.976,-253.351 753.59,-143.049 758.645,-91.7388"/>
<ellipse fill="none" stroke="#8fb776" cx="799.705" cy="-411.454" rx="4.00002" ry="4.00002"/>
<polygon fill="#8fb776" stroke="#8fb776" points="758.653,-91.6604 764.164,-82.1801 759.171,-86.6873 759.689,-81.7141 759.689,-81.7141 759.689,-81.7141 759.171,-86.6873 755.213,-81.2482 758.653,-91.6604 758.653,-91.6604"/>
<text text-anchor="middle" x="800" y="-257.4" font-family="Times Roman,serif" font-size="14.00">versions</text>
</g>
<!-- Project&#45;&gt;ProjectSource -->
<g id="edge24" class="edge"><title>Project&#45;&gt;ProjectSource</title>
<path fill="none" stroke="#3bbef3" d="M1102,-388.578C1102,-369.899 1102,-350.859 1102,-333.38"/>
<ellipse fill="none" stroke="#3bbef3" cx="1102" cy="-392.78" rx="4" ry="4"/>
<polygon fill="#3bbef3" stroke="#3bbef3" points="1102,-333.285 1106.5,-323.285 1102,-328.285 1102,-323.285 1102,-323.285 1102,-323.285 1102,-328.285 1097.5,-323.285 1102,-333.285 1102,-333.285"/>
</g>
<!-- ProjectMedia -->
<g id="node12" class="node"><title>ProjectMedia</title>
<polyline fill="none" stroke="black" points="937.5,-1 1078.5,-1 "/>
<path fill="none" stroke="black" d="M1078.5,-1C1084.5,-1 1090.5,-7 1090.5,-13"/>
<polyline fill="none" stroke="black" points="1090.5,-13 1090.5,-113 "/>
<path fill="none" stroke="black" d="M1090.5,-113C1090.5,-119 1084.5,-125 1078.5,-125"/>
<polyline fill="none" stroke="black" points="1078.5,-125 937.5,-125 "/>
<path fill="none" stroke="black" d="M937.5,-125C931.5,-125 925.5,-119 925.5,-113"/>
<polyline fill="none" stroke="black" points="925.5,-113 925.5,-13 "/>
<path fill="none" stroke="black" d="M925.5,-13C925.5,-7 931.5,-1 937.5,-1"/>
<text text-anchor="middle" x="1008" y="-108.4" font-family="Times Roman,serif" font-size="14.00">ProjectMedia</text>
<polyline fill="none" stroke="black" points="925.5,-99 1090.5,-99 "/>
<text text-anchor="start" x="933.5" y="-82.4" font-family="Times Roman,serif" font-size="14.00">id :INTEGER</text>
<text text-anchor="start" x="933.5" y="-64.4" font-family="Times Roman,serif" font-size="14.00">project_id :integer</text>
<text text-anchor="start" x="933.5" y="-46.4" font-family="Times Roman,serif" font-size="14.00">media_id :integer</text>
<text text-anchor="start" x="933.5" y="-28.4" font-family="Times Roman,serif" font-size="14.00">created_at :datetime</text>
<text text-anchor="start" x="933.5" y="-10.4" font-family="Times Roman,serif" font-size="14.00">updated_at :datetime</text>
</g>
<!-- Project&#45;&gt;ProjectMedia -->
<g id="edge26" class="edge"><title>Project&#45;&gt;ProjectMedia</title>
<path fill="none" stroke="#46c278" d="M1191.35,-443.178C1226.46,-417.626 1262.88,-383.353 1282,-342 1312.22,-276.649 1314.2,-244.399 1282,-180 1264.59,-145.188 1172.96,-110.872 1100.39,-88.4995"/>
<ellipse fill="none" stroke="#46c278" cx="1188.07" cy="-445.522" rx="4.00002" ry="4.00002"/>
<polygon fill="#46c278" stroke="#46c278" points="1100.3,-88.4735 1092.05,-81.2546 1095.52,-87.0164 1090.74,-85.5593 1090.74,-85.5593 1090.74,-85.5593 1095.52,-87.0164 1089.43,-89.864 1100.3,-88.4735 1100.3,-88.4735"/>
</g>
<!-- Project&#45;&gt;Media -->
<g id="edge28" class="edge"><title>Project&#45;&gt;Media</title>
<path fill="none" stroke="#516b88" d="M1019.17,-388.501C1008.93,-375.342 998.559,-362.005 988.57,-349.162"/>
<polygon fill="#516b88" stroke="#516b88" points="1019.47,-388.886 1022.05,-399.543 1022.54,-392.833 1025.61,-396.78 1025.61,-396.78 1025.61,-396.78 1022.54,-392.833 1029.16,-394.017 1019.47,-388.886 1019.47,-388.886"/>
<polygon fill="#516b88" stroke="#516b88" points="988.545,-349.129 985.957,-338.473 985.475,-345.182 982.405,-341.235 982.405,-341.235 982.405,-341.235 985.475,-345.182 978.853,-343.998 988.545,-349.129 988.545,-349.129"/>
</g>
<!-- Project&#45;&gt;PaperTrail::Version -->
<g id="edge22" class="edge"><title>Project&#45;&gt;PaperTrail::Version</title>
<path fill="none" stroke="#aa9747" d="M1176.84,-389.571C1214.03,-323.176 1241.7,-239.149 1193,-180 1113.55,-83.5041 1036.79,-161.698 917,-126 879.572,-114.846 838.705,-98.031 808.334,-84.5776"/>
<ellipse fill="none" stroke="#aa9747" cx="1174.73" cy="-393.282" rx="4.00002" ry="4.00002"/>
<polygon fill="#aa9747" stroke="#aa9747" points="807.989,-84.423 800.698,-76.2316 803.424,-82.3811 798.86,-80.3392 798.86,-80.3392 798.86,-80.3392 803.424,-82.3811 797.023,-84.4469 807.989,-84.423 807.989,-84.423"/>
<text text-anchor="middle" x="1248" y="-257.4" font-family="Times Roman,serif" font-size="14.00">versions</text>
</g>
<!-- Media&#45;&gt;ProjectMedia -->
<g id="edge32" class="edge"><title>Media&#45;&gt;ProjectMedia</title>
<path fill="none" stroke="#04b711" d="M958.969,-173.32C964.724,-160.371 970.596,-147.16 976.183,-134.589"/>
<ellipse fill="none" stroke="#04b711" cx="957.291" cy="-177.096" rx="4.00002" ry="4.00002"/>
<polygon fill="#04b711" stroke="#04b711" points="976.332,-134.253 984.505,-126.943 978.362,-129.684 980.393,-125.115 980.393,-125.115 980.393,-125.115 978.362,-129.684 976.281,-123.288 976.332,-134.253 976.332,-134.253"/>
</g>
<!-- Media&#45;&gt;PaperTrail::Version -->
<g id="edge30" class="edge"><title>Media&#45;&gt;PaperTrail::Version</title>
<path fill="none" stroke="#75c81e" d="M850.825,-174.312C826.32,-143.603 800.533,-111.288 783.095,-89.4358"/>
<ellipse fill="none" stroke="#75c81e" cx="853.468" cy="-177.625" rx="4.00002" ry="4.00002"/>
<polygon fill="#75c81e" stroke="#75c81e" points="783.078,-89.4145 780.358,-78.7913 779.96,-85.5063 776.841,-81.5981 776.841,-81.5981 776.841,-81.5981 779.96,-85.5063 773.324,-84.4049 783.078,-89.4145 783.078,-89.4145"/>
<text text-anchor="middle" x="870" y="-149.4" font-family="Times Roman,serif" font-size="14.00">versions</text>
</g>
<!-- User&#45;&gt;Source -->
<g id="edge34" class="edge"><title>User&#45;&gt;Source</title>
<path fill="none" stroke="#15a689" d="M940.447,-841.257C937.753,-832.959 935.116,-824.836 932.57,-816.995"/>
<ellipse fill="none" stroke="#15a689" cx="941.714" cy="-845.158" rx="4.00001" ry="4.00001"/>
<ellipse fill="#15a689" stroke="#15a689" cx="931.291" cy="-813.056" rx="4.00001" ry="4.00001"/>
</g>
<!-- User&#45;&gt;Project -->
<g id="edge38" class="edge"><title>User&#45;&gt;Project</title>
<path fill="none" stroke="#955dee" d="M1005.32,-840.524C1009.27,-778.221 1017.34,-709.556 1033,-648 1036.84,-632.916 1042.08,-617.466 1047.97,-602.459"/>
<ellipse fill="none" stroke="#955dee" cx="1005.05" cy="-844.883" rx="4" ry="4"/>
<polygon fill="#955dee" stroke="#955dee" points="1047.97,-602.453 1055.88,-594.863 1049.84,-597.816 1051.71,-593.179 1051.71,-593.179 1051.71,-593.179 1049.84,-597.816 1047.54,-591.495 1047.97,-602.453 1047.97,-602.453"/>
</g>
<!-- User&#45;&gt;TeamUser -->
<g id="edge36" class="edge"><title>User&#45;&gt;TeamUser</title>
<path fill="none" stroke="#f0281d" d="M1080.26,-841.257C1085.81,-827.015 1091.16,-813.288 1096.1,-800.616"/>
<ellipse fill="none" stroke="#f0281d" cx="1078.71" cy="-845.236" rx="4.00001" ry="4.00001"/>
<polygon fill="#f0281d" stroke="#f0281d" points="1096.16,-800.458 1103.98,-792.774 1097.97,-795.799 1099.79,-791.14 1099.79,-791.14 1099.79,-791.14 1097.97,-795.799 1095.6,-789.506 1096.16,-800.458 1096.16,-800.458"/>
</g>
<!-- ApiKey -->
<g id="node15" class="node"><title>ApiKey</title>
<polyline fill="none" stroke="black" points="1194,-1310 1338,-1310 "/>
<path fill="none" stroke="black" d="M1338,-1310C1344,-1310 1350,-1316 1350,-1322"/>
<polyline fill="none" stroke="black" points="1350,-1322 1350,-1440 "/>
<path fill="none" stroke="black" d="M1350,-1440C1350,-1446 1344,-1452 1338,-1452"/>
<polyline fill="none" stroke="black" points="1338,-1452 1194,-1452 "/>
<path fill="none" stroke="black" d="M1194,-1452C1188,-1452 1182,-1446 1182,-1440"/>
<polyline fill="none" stroke="black" points="1182,-1440 1182,-1322 "/>
<path fill="none" stroke="black" d="M1182,-1322C1182,-1316 1188,-1310 1194,-1310"/>
<text text-anchor="middle" x="1266" y="-1435.4" font-family="Times Roman,serif" font-size="14.00">ApiKey</text>
<polyline fill="none" stroke="black" points="1182,-1426 1350,-1426 "/>
<text text-anchor="start" x="1190" y="-1409.4" font-family="Times Roman,serif" font-size="14.00">id :INTEGER</text>
<text text-anchor="start" x="1190" y="-1391.4" font-family="Times Roman,serif" font-size="14.00">access_token :varchar</text>
<text text-anchor="start" x="1190" y="-1373.4" font-family="Times Roman,serif" font-size="14.00">expire_at :datetime</text>
<text text-anchor="start" x="1190" y="-1355.4" font-family="Times Roman,serif" font-size="14.00">created_at :datetime</text>
<text text-anchor="start" x="1190" y="-1337.4" font-family="Times Roman,serif" font-size="14.00">updated_at :datetime</text>
<text text-anchor="start" x="1190" y="-1319.4" font-family="Times Roman,serif" font-size="14.00">application :varchar</text>
</g>
</g>
</svg>
