<?xml version="1.0" encoding="UTF-8" standalone="no"?>
<!DOCTYPE svg PUBLIC "-//W3C//DTD SVG 1.1//EN"
 "http://www.w3.org/Graphics/SVG/1.1/DTD/svg11.dtd">
<!-- Generated by graphviz version 2.36.0 (20140111.2315)
 -->
<!-- Title: models_diagram Pages: 1 -->
<svg width="2154pt" height="780pt"
 viewBox="0.00 0.00 2153.62 780.00" xmlns="http://www.w3.org/2000/svg" xmlns:xlink="http://www.w3.org/1999/xlink">
<g id="graph0" class="graph" transform="scale(1 1) rotate(0) translate(4 776)">
<title>models_diagram</title>
<polygon fill="none" stroke="none" points="-4,4 -4,-776 2149.62,-776 2149.62,4 -4,4"/>
<!-- Annotation -->
<g id="node1" class="node"><title>Annotation</title>
<ellipse fill="none" stroke="black" cx="93.6207" cy="-194" rx="61.6163" ry="18"/>
<text text-anchor="middle" x="93.6207" y="-190.3" font-family="Times,serif" font-size="14.00">Annotation</text>
</g>
<!-- Assignment -->
<g id="node17" class="node"><title>Assignment</title>
<ellipse fill="none" stroke="black" cx="510.621" cy="-106" rx="65.4659" ry="18"/>
<text text-anchor="middle" x="510.621" y="-102.3" font-family="Times,serif" font-size="14.00">Assignment</text>
</g>
<!-- Annotation&#45;&gt;Assignment -->
<g id="edge1" class="edge"><title>Annotation&#45;&gt;Assignment</title>
<path fill="none" stroke="#36ec00" d="M147.042,-179.955C152.965,-178.584 158.916,-177.24 164.621,-176 282.332,-150.414 312.591,-148.076 430.621,-124 437.164,-122.665 444.003,-121.247 450.809,-119.822"/>
<ellipse fill="none" stroke="#36ec00" cx="142.902" cy="-180.923" rx="4.00001" ry="4.00001"/>
<polygon fill="#36ec00" stroke="#36ec00" points="450.931,-119.796 461.644,-122.139 455.824,-118.766 460.717,-117.736 460.717,-117.736 460.717,-117.736 455.824,-118.766 459.79,-113.332 450.931,-119.796 450.931,-119.796"/>
</g>
<!-- PaperTrail::Version -->
<g id="node33" class="node"><title>PaperTrail::Version</title>
<ellipse fill="none" stroke="black" cx="1033.62" cy="-18" rx="99.1619" ry="18"/>
<text text-anchor="middle" x="1033.62" y="-14.3" font-family="Times,serif" font-size="14.00">PaperTrail::Version</text>
</g>
<!-- Annotation&#45;&gt;PaperTrail::Version -->
<g id="edge2" class="edge"><title>Annotation&#45;&gt;PaperTrail::Version</title>
<path fill="none" stroke="#9b8bf5" d="M101.75,-168.544C110.75,-144.938 127.405,-109.675 152.621,-88 185.047,-60.1271 200.737,-62.6085 242.621,-54 369.628,-27.8956 739.009,-21.2581 924.566,-19.5725"/>
<ellipse fill="none" stroke="#9b8bf5" cx="100.368" cy="-172.311" rx="4.00001" ry="4.00001"/>
<polygon fill="#9b8bf5" stroke="#9b8bf5" points="924.619,-19.5721 934.658,-23.9842 929.619,-19.5282 934.619,-19.4844 934.619,-19.4844 934.619,-19.4844 929.619,-19.5282 934.579,-14.9845 924.619,-19.5721 924.619,-19.5721"/>
<text text-anchor="middle" x="183.121" y="-102.3" font-family="Times,serif" font-size="14.00">versions</text>
</g>
<!-- Comment -->
<g id="node2" class="node"><title>Comment</title>
<ellipse fill="none" stroke="black" cx="229.621" cy="-194" rx="55.3436" ry="18"/>
<text text-anchor="middle" x="229.621" y="-190.3" font-family="Times,serif" font-size="14.00">Comment</text>
</g>
<!-- Comment&#45;&gt;Assignment -->
<g id="edge3" class="edge"><title>Comment&#45;&gt;Assignment</title>
<path fill="none" stroke="#a98a46" d="M276.048,-178.791C326.374,-163.389 406.488,-138.87 458.822,-122.853"/>
<ellipse fill="none" stroke="#a98a46" cx="272.222" cy="-179.962" rx="4.00001" ry="4.00001"/>
<polygon fill="#a98a46" stroke="#a98a46" points="459.017,-122.793 469.896,-124.17 463.798,-121.33 468.579,-119.867 468.579,-119.867 468.579,-119.867 463.798,-121.33 467.262,-115.564 459.017,-122.793 459.017,-122.793"/>
</g>
<!-- Comment&#45;&gt;PaperTrail::Version -->
<g id="edge4" class="edge"><title>Comment&#45;&gt;PaperTrail::Version</title>
<path fill="none" stroke="#8068d7" d="M221.905,-168.127C216.421,-145.253 212.553,-111.434 228.621,-88 252.332,-53.4195 275.602,-62.6886 316.621,-54 429.363,-30.1189 753.411,-22.476 924.619,-20.073"/>
<ellipse fill="none" stroke="#8068d7" cx="222.955" cy="-172.148" rx="4.00001" ry="4.00001"/>
<polygon fill="#8068d7" stroke="#8068d7" points="924.667,-20.0724 934.727,-24.4351 929.666,-20.004 934.666,-19.9355 934.666,-19.9355 934.666,-19.9355 929.666,-20.004 934.604,-15.436 924.667,-20.0724 924.667,-20.0724"/>
<text text-anchor="middle" x="259.121" y="-102.3" font-family="Times,serif" font-size="14.00">versions</text>
</g>
<!-- Tag -->
<g id="node3" class="node"><title>Tag</title>
<ellipse fill="none" stroke="black" cx="330.621" cy="-194" rx="26.949" ry="18"/>
<text text-anchor="middle" x="330.621" y="-190.3" font-family="Times,serif" font-size="14.00">Tag</text>
</g>
<!-- Tag&#45;&gt;Assignment -->
<g id="edge5" class="edge"><title>Tag&#45;&gt;Assignment</title>
<path fill="none" stroke="#58866d" d="M359.077,-178.949C384.685,-166.322 420.405,-148.758 434.621,-142 445.69,-136.738 457.719,-131.142 468.872,-126.005"/>
<ellipse fill="none" stroke="#58866d" cx="355.407" cy="-180.759" rx="4.00002" ry="4.00002"/>
<polygon fill="#58866d" stroke="#58866d" points="468.907,-125.989 479.872,-125.904 473.45,-123.902 477.994,-121.815 477.994,-121.815 477.994,-121.815 473.45,-123.902 476.116,-117.725 468.907,-125.989 468.907,-125.989"/>
</g>
<!-- Tag&#45;&gt;PaperTrail::Version -->
<g id="edge6" class="edge"><title>Tag&#45;&gt;PaperTrail::Version</title>
<path fill="none" stroke="#1cb355" d="M314.277,-170.696C299.781,-147.943 283.489,-112.582 301.621,-88 331.995,-46.8192 361.258,-63.0601 411.621,-54 507.223,-36.8014 774.886,-26.5066 926.09,-21.8946"/>
<ellipse fill="none" stroke="#1cb355" cx="316.66" cy="-174.28" rx="4.00002" ry="4.00002"/>
<polygon fill="#1cb355" stroke="#1cb355" points="926.33,-21.8875 936.461,-26.0837 931.327,-21.7366 936.325,-21.5857 936.325,-21.5857 936.325,-21.5857 931.327,-21.7366 936.189,-17.0878 926.33,-21.8875 926.33,-21.8875"/>
<text text-anchor="middle" x="332.121" y="-102.3" font-family="Times,serif" font-size="14.00">versions</text>
</g>
<!-- Flag -->
<g id="node4" class="node"><title>Flag</title>
<ellipse fill="none" stroke="black" cx="406.621" cy="-194" rx="31.2965" ry="18"/>
<text text-anchor="middle" x="406.621" y="-190.3" font-family="Times,serif" font-size="14.00">Flag</text>
</g>
<!-- Flag&#45;&gt;Assignment -->
<g id="edge7" class="edge"><title>Flag&#45;&gt;Assignment</title>
<path fill="none" stroke="#d8666b" d="M424.832,-171.248C433.364,-161.713 443.98,-150.731 454.621,-142 460.728,-136.989 467.605,-132.139 474.394,-127.728"/>
<ellipse fill="none" stroke="#d8666b" cx="422.186" cy="-174.261" rx="4.00002" ry="4.00002"/>
<polygon fill="#d8666b" stroke="#d8666b" points="474.415,-127.715 485.277,-126.206 478.649,-125.055 482.883,-122.395 482.883,-122.395 482.883,-122.395 478.649,-125.055 480.489,-118.585 474.415,-127.715 474.415,-127.715"/>
</g>
<!-- Flag&#45;&gt;PaperTrail::Version -->
<g id="edge8" class="edge"><title>Flag&#45;&gt;PaperTrail::Version</title>
<path fill="none" stroke="#4038f7" d="M389.153,-170.805C373.401,-147.911 355.418,-112.226 374.621,-88 408.223,-45.6073 748.222,-28.2603 926.22,-22.0405"/>
<ellipse fill="none" stroke="#4038f7" cx="391.598" cy="-174.22" rx="4.00002" ry="4.00002"/>
<polygon fill="#4038f7" stroke="#4038f7" points="926.406,-22.0343 936.555,-26.1881 931.403,-21.8625 936.4,-21.6908 936.4,-21.6908 936.4,-21.6908 931.403,-21.8625 936.245,-17.1934 926.406,-22.0343 926.406,-22.0343"/>
<text text-anchor="middle" x="405.121" y="-102.3" font-family="Times,serif" font-size="14.00">versions</text>
</g>
<!-- Embed -->
<g id="node5" class="node"><title>Embed</title>
<ellipse fill="none" stroke="black" cx="613.621" cy="-194" rx="43.319" ry="18"/>
<text text-anchor="middle" x="613.621" y="-190.3" font-family="Times,serif" font-size="14.00">Embed</text>
</g>
<!-- Embed&#45;&gt;Assignment -->
<g id="edge9" class="edge"><title>Embed&#45;&gt;Assignment</title>
<path fill="none" stroke="#9e7f83" d="M588.885,-172.347C573.587,-159.574 553.927,-143.159 538.138,-129.976"/>
<ellipse fill="none" stroke="#9e7f83" cx="592.136" cy="-175.061" rx="4.00002" ry="4.00002"/>
<polygon fill="#9e7f83" stroke="#9e7f83" points="537.955,-129.822 533.163,-119.959 534.116,-126.618 530.278,-123.413 530.278,-123.413 530.278,-123.413 534.116,-126.618 527.394,-126.868 537.955,-129.822 537.955,-129.822"/>
</g>
<!-- Embed&#45;&gt;PaperTrail::Version -->
<g id="edge10" class="edge"><title>Embed&#45;&gt;PaperTrail::Version</title>
<path fill="none" stroke="#496de2" d="M614.793,-167.687C617.189,-144.211 624.232,-109.724 644.621,-88 682.38,-47.7666 826.33,-30.8508 928.077,-23.8351"/>
<ellipse fill="none" stroke="#496de2" cx="614.442" cy="-171.808" rx="4" ry="4"/>
<polygon fill="#496de2" stroke="#496de2" points="928.118,-23.8324 938.395,-27.6566 933.107,-23.4995 938.096,-23.1666 938.096,-23.1666 938.096,-23.1666 933.107,-23.4995 937.796,-18.6766 928.118,-23.8324 928.118,-23.8324"/>
<text text-anchor="middle" x="675.121" y="-102.3" font-family="Times,serif" font-size="14.00">versions</text>
</g>
<!-- Task -->
<g id="node6" class="node"><title>Task</title>
<ellipse fill="none" stroke="black" cx="708.621" cy="-194" rx="32.2457" ry="18"/>
<text text-anchor="middle" x="708.621" y="-190.3" font-family="Times,serif" font-size="14.00">Task</text>
</g>
<!-- Task&#45;&gt;Assignment -->
<g id="edge11" class="edge"><title>Task&#45;&gt;Assignment</title>
<path fill="none" stroke="#904797" d="M676.547,-179.069C643.176,-164.574 590.727,-141.794 553.745,-125.731"/>
<ellipse fill="none" stroke="#904797" cx="680.275" cy="-180.688" rx="4.00002" ry="4.00002"/>
<polygon fill="#904797" stroke="#904797" points="553.398,-125.58 546.019,-117.469 548.812,-123.588 544.226,-121.596 544.226,-121.596 544.226,-121.596 548.812,-123.588 542.433,-125.724 553.398,-125.58 553.398,-125.58"/>
</g>
<!-- Task&#45;&gt;PaperTrail::Version -->
<g id="edge12" class="edge"><title>Task&#45;&gt;PaperTrail::Version</title>
<path fill="none" stroke="#dd5064" d="M706.222,-167.535C705.386,-144.746 707.529,-111.415 723.621,-88 741.2,-62.4201 755.198,-63.8833 784.621,-54 830.883,-38.4598 884.226,-29.8177 929.643,-25.0125"/>
<ellipse fill="none" stroke="#dd5064" cx="706.449" cy="-171.716" rx="4" ry="4"/>
<polygon fill="#dd5064" stroke="#dd5064" points="929.855,-24.9911 940.257,-28.464 934.83,-24.4889 939.805,-23.9867 939.805,-23.9867 939.805,-23.9867 934.83,-24.4889 939.353,-19.5095 929.855,-24.9911 929.855,-24.9911"/>
<text text-anchor="middle" x="754.121" y="-102.3" font-family="Times,serif" font-size="14.00">versions</text>
</g>
<!-- Dynamic -->
<g id="node7" class="node"><title>Dynamic</title>
<ellipse fill="none" stroke="black" cx="878.621" cy="-194" rx="51.4931" ry="18"/>
<text text-anchor="middle" x="878.621" y="-190.3" font-family="Times,serif" font-size="14.00">Dynamic</text>
</g>
<!-- Dynamic&#45;&gt;Assignment -->
<g id="edge13" class="edge"><title>Dynamic&#45;&gt;Assignment</title>
<path fill="none" stroke="#6fe4e5" d="M829.198,-181.45C761.522,-165.634 640.244,-137.293 568.436,-120.511"/>
<ellipse fill="none" stroke="#6fe4e5" cx="833.227" cy="-182.392" rx="4.00001" ry="4.00001"/>
<polygon fill="#6fe4e5" stroke="#6fe4e5" points="568.38,-120.498 559.667,-113.841 563.511,-119.36 558.642,-118.222 558.642,-118.222 558.642,-118.222 563.511,-119.36 557.618,-122.604 568.38,-120.498 568.38,-120.498"/>
</g>
<!-- Dynamic&#45;&gt;PaperTrail::Version -->
<g id="edge14" class="edge"><title>Dynamic&#45;&gt;PaperTrail::Version</title>
<path fill="none" stroke="#b30158" d="M863.038,-169.306C850.285,-146.636 836.855,-112.382 853.621,-88 874.245,-58.0063 909.835,-41.044 943.952,-31.454"/>
<ellipse fill="none" stroke="#b30158" cx="865.086" cy="-172.785" rx="4.00002" ry="4.00002"/>
<polygon fill="#b30158" stroke="#b30158" points="944.322,-31.3571 955.136,-33.1773 949.159,-30.0906 953.996,-28.8241 953.996,-28.8241 953.996,-28.8241 949.159,-30.0906 952.856,-24.4708 944.322,-31.3571 944.322,-31.3571"/>
<text text-anchor="middle" x="884.121" y="-102.3" font-family="Times,serif" font-size="14.00">versions</text>
</g>
<!-- DynamicAnnotation::Field -->
<g id="node34" class="node"><title>DynamicAnnotation::Field</title>
<ellipse fill="none" stroke="black" cx="1055.62" cy="-106" rx="131.408" ry="18"/>
<text text-anchor="middle" x="1055.62" y="-102.3" font-family="Times,serif" font-size="14.00">DynamicAnnotation::Field</text>
</g>
<!-- Dynamic&#45;&gt;DynamicAnnotation::Field -->
<g id="edge15" class="edge"><title>Dynamic&#45;&gt;DynamicAnnotation::Field</title>
<path fill="none" stroke="#a04ff1" d="M914.703,-175.468C942.949,-161.744 982.332,-142.609 1012.29,-128.056"/>
<ellipse fill="none" stroke="#a04ff1" cx="911.051" cy="-177.243" rx="4.00002" ry="4.00002"/>
<polygon fill="#a04ff1" stroke="#a04ff1" points="1012.66,-127.874 1023.62,-127.552 1017.16,-125.689 1021.65,-123.504 1021.65,-123.504 1021.65,-123.504 1017.16,-125.689 1019.69,-119.457 1012.66,-127.874 1012.66,-127.874"/>
<text text-anchor="middle" x="1003.12" y="-146.3" font-family="Times,serif" font-size="14.00">fields</text>
</g>
<!-- TeamTask -->
<g id="node8" class="node"><title>TeamTask</title>
<ellipse fill="none" stroke="black" cx="835.621" cy="-518" rx="57.2927" ry="18"/>
<text text-anchor="middle" x="835.621" y="-514.3" font-family="Times,serif" font-size="14.00">TeamTask</text>
</g>
<!-- TagText -->
<g id="node9" class="node"><title>TagText</title>
<ellipse fill="none" stroke="black" cx="958.621" cy="-518" rx="47.169" ry="18"/>
<text text-anchor="middle" x="958.621" y="-514.3" font-family="Times,serif" font-size="14.00">TagText</text>
</g>
<!-- Claim -->
<g id="node10" class="node"><title>Claim</title>
<ellipse fill="none" stroke="black" cx="1338.62" cy="-370" rx="38.0212" ry="18"/>
<text text-anchor="middle" x="1338.62" y="-366.3" font-family="Times,serif" font-size="14.00">Claim</text>
</g>
<!-- ProjectMedia -->
<g id="node15" class="node"><title>ProjectMedia</title>
<ellipse fill="none" stroke="black" cx="1734.62" cy="-194" rx="73.1654" ry="18"/>
<text text-anchor="middle" x="1734.62" y="-190.3" font-family="Times,serif" font-size="14.00">ProjectMedia</text>
</g>
<!-- Claim&#45;&gt;ProjectMedia -->
<g id="edge17" class="edge"><title>Claim&#45;&gt;ProjectMedia</title>
<path fill="none" stroke="#58b834" d="M1372.88,-353.947C1444.92,-322.294 1611.96,-248.895 1691.29,-214.037"/>
<ellipse fill="none" stroke="#58b834" cx="1369.19" cy="-355.568" rx="4.00002" ry="4.00002"/>
<polygon fill="#58b834" stroke="#58b834" points="1691.37,-214.006 1702.33,-214.103 1695.94,-211.994 1700.52,-209.983 1700.52,-209.983 1700.52,-209.983 1695.94,-211.994 1698.71,-205.863 1691.37,-214.006 1691.37,-214.006"/>
</g>
<!-- Project -->
<g id="node28" class="node"><title>Project</title>
<ellipse fill="none" stroke="black" cx="1439.62" cy="-282" rx="44.2946" ry="18"/>
<text text-anchor="middle" x="1439.62" y="-278.3" font-family="Times,serif" font-size="14.00">Project</text>
</g>
<!-- Claim&#45;&gt;Project -->
<g id="edge18" class="edge"><title>Claim&#45;&gt;Project</title>
<path fill="none" stroke="#7bf221" d="M1362.43,-346.571C1372.24,-337.52 1383.83,-327.089 1394.62,-318 1399.91,-313.545 1405.67,-308.915 1411.24,-304.537"/>
<polygon fill="#7bf221" stroke="#7bf221" points="1362.31,-346.677 1351.92,-350.183 1358.65,-350.079 1354.98,-353.481 1354.98,-353.481 1354.98,-353.481 1358.65,-350.079 1358.04,-356.779 1362.31,-346.677 1362.31,-346.677"/>
<polygon fill="#7bf221" stroke="#7bf221" points="1411.3,-304.489 1421.96,-301.905 1415.25,-301.421 1419.19,-298.352 1419.19,-298.352 1419.19,-298.352 1415.25,-301.421 1416.43,-294.799 1411.3,-304.489 1411.3,-304.489"/>
</g>
<!-- Claim&#45;&gt;PaperTrail::Version -->
<g id="edge16" class="edge"><title>Claim&#45;&gt;PaperTrail::Version</title>
<path fill="none" stroke="#c75353" d="M1339.5,-343.666C1341.72,-272.584 1346.05,-75.0687 1326.62,-54 1313.65,-39.9381 1216.08,-30.3706 1137.04,-24.8398"/>
<ellipse fill="none" stroke="#c75353" cx="1339.37" cy="-347.69" rx="4" ry="4"/>
<polygon fill="#c75353" stroke="#c75353" points="1136.98,-24.8361 1127.31,-19.6628 1131.99,-24.4942 1127,-24.1523 1127,-24.1523 1127,-24.1523 1131.99,-24.4942 1126.7,-28.6418 1136.98,-24.8361 1136.98,-24.8361"/>
<text text-anchor="middle" x="1372.12" y="-190.3" font-family="Times,serif" font-size="14.00">versions</text>
</g>
<!-- UploadedImage -->
<g id="node11" class="node"><title>UploadedImage</title>
<ellipse fill="none" stroke="black" cx="1592.62" cy="-370" rx="83.2649" ry="18"/>
<text text-anchor="middle" x="1592.62" y="-366.3" font-family="Times,serif" font-size="14.00">UploadedImage</text>
</g>
<!-- UploadedImage&#45;&gt;ProjectMedia -->
<g id="edge20" class="edge"><title>UploadedImage&#45;&gt;ProjectMedia</title>
<path fill="none" stroke="#864cd1" d="M1611.6,-345.738C1638.37,-312.938 1687,-253.358 1714.41,-219.763"/>
<ellipse fill="none" stroke="#864cd1" cx="1609.02" cy="-348.9" rx="4.00002" ry="4.00002"/>
<polygon fill="#864cd1" stroke="#864cd1" points="1714.58,-219.561 1724.39,-214.659 1717.74,-215.687 1720.9,-211.813 1720.9,-211.813 1720.9,-211.813 1717.74,-215.687 1717.41,-208.968 1714.58,-219.561 1714.58,-219.561"/>
</g>
<!-- UploadedImage&#45;&gt;Project -->
<g id="edge21" class="edge"><title>UploadedImage&#45;&gt;Project</title>
<path fill="none" stroke="#9e24a5" d="M1551.39,-348.735C1542.18,-344.028 1532.51,-338.945 1523.62,-334 1506.05,-324.226 1486.85,-312.641 1471.25,-302.985"/>
<polygon fill="#9e24a5" stroke="#9e24a5" points="1551.48,-348.78 1558.37,-357.311 1555.94,-351.038 1560.41,-353.297 1560.41,-353.297 1560.41,-353.297 1555.94,-351.038 1562.44,-349.282 1551.48,-348.78 1551.48,-348.78"/>
<polygon fill="#9e24a5" stroke="#9e24a5" points="1471.01,-302.835 1464.89,-293.73 1466.76,-300.193 1462.52,-297.55 1462.52,-297.55 1462.52,-297.55 1466.76,-300.193 1460.14,-301.371 1471.01,-302.835 1471.01,-302.835"/>
</g>
<!-- UploadedImage&#45;&gt;PaperTrail::Version -->
<g id="edge19" class="edge"><title>UploadedImage&#45;&gt;PaperTrail::Version</title>
<path fill="none" stroke="#19d046" d="M1577,-345.274C1557.48,-315.074 1523.72,-260.938 1499.62,-212 1484.82,-181.94 1489.91,-170.079 1471.62,-142 1441.78,-96.1732 1434.91,-77.6882 1385.62,-54 1343.82,-33.9131 1228.84,-25.3453 1141.57,-21.6963"/>
<ellipse fill="none" stroke="#19d046" cx="1579.22" cy="-348.706" rx="4.00002" ry="4.00002"/>
<polygon fill="#19d046" stroke="#19d046" points="1141.33,-21.6868 1131.52,-16.7892 1136.33,-21.4862 1131.34,-21.2856 1131.34,-21.2856 1131.34,-21.2856 1136.33,-21.4862 1131.16,-25.782 1141.33,-21.6868 1141.33,-21.6868"/>
<text text-anchor="middle" x="1530.12" y="-190.3" font-family="Times,serif" font-size="14.00">versions</text>
</g>
<!-- ClaimSource -->
<g id="node12" class="node"><title>ClaimSource</title>
<ellipse fill="none" stroke="black" cx="1237.62" cy="-754" rx="70.2909" ry="18"/>
<text text-anchor="middle" x="1237.62" y="-750.3" font-family="Times,serif" font-size="14.00">ClaimSource</text>
</g>
<!-- UploadedFile -->
<g id="node13" class="node"><title>UploadedFile</title>
<ellipse fill="none" stroke="black" cx="1864.62" cy="-370" rx="72.2155" ry="18"/>
<text text-anchor="middle" x="1864.62" y="-366.3" font-family="Times,serif" font-size="14.00">UploadedFile</text>
</g>
<!-- UploadedFile&#45;&gt;ProjectMedia -->
<g id="edge23" class="edge"><title>UploadedFile&#45;&gt;ProjectMedia</title>
<path fill="none" stroke="#a0911d" d="M1846.91,-345.294C1822.43,-312.53 1778.45,-253.666 1753.41,-220.154"/>
<ellipse fill="none" stroke="#a0911d" cx="1849.52" cy="-348.795" rx="4.00002" ry="4.00002"/>
<polygon fill="#a0911d" stroke="#a0911d" points="1753.17,-219.825 1750.79,-209.12 1750.18,-215.819 1747.18,-211.813 1747.18,-211.813 1747.18,-211.813 1750.18,-215.819 1743.58,-214.507 1753.17,-219.825 1753.17,-219.825"/>
</g>
<!-- UploadedFile&#45;&gt;Project -->
<g id="edge24" class="edge"><title>UploadedFile&#45;&gt;Project</title>
<path fill="none" stroke="#f2612f" d="M1801.4,-355.675C1795.39,-354.425 1789.39,-353.184 1783.62,-352 1678.56,-330.438 1555.28,-305.894 1488.55,-292.671"/>
<polygon fill="#f2612f" stroke="#f2612f" points="1801.69,-355.735 1810.56,-362.181 1806.58,-356.755 1811.48,-357.776 1811.48,-357.776 1811.48,-357.776 1806.58,-356.755 1812.4,-353.371 1801.69,-355.735 1801.69,-355.735"/>
<polygon fill="#f2612f" stroke="#f2612f" points="1488.14,-292.591 1479.21,-286.234 1483.24,-291.62 1478.34,-290.649 1478.34,-290.649 1478.34,-290.649 1483.24,-291.62 1477.46,-295.063 1488.14,-292.591 1488.14,-292.591"/>
</g>
<!-- UploadedFile&#45;&gt;PaperTrail::Version -->
<g id="edge22" class="edge"><title>UploadedFile&#45;&gt;PaperTrail::Version</title>
<path fill="none" stroke="#7fceef" d="M1919.97,-353.542C1952.62,-340.672 1987.62,-318.58 1987.62,-283 1987.62,-283 1987.62,-283 1987.62,-105 1987.62,1.00722 1859.71,-67.9519 1754.62,-54 1539.13,-25.3895 1284.64,-19.4818 1142.94,-18.6465"/>
<ellipse fill="none" stroke="#7fceef" cx="1915.92" cy="-355.057" rx="4.00001" ry="4.00001"/>
<polygon fill="#7fceef" stroke="#7fceef" points="1142.93,-18.6466 1132.95,-14.0949 1137.93,-18.6207 1132.93,-18.5949 1132.93,-18.5949 1132.93,-18.5949 1137.93,-18.6207 1132.91,-23.0948 1142.93,-18.6466 1142.93,-18.6466"/>
<text text-anchor="middle" x="2018.12" y="-190.3" font-family="Times,serif" font-size="14.00">versions</text>
</g>
<!-- Relationship -->
<g id="node14" class="node"><title>Relationship</title>
<ellipse fill="none" stroke="black" cx="1770.62" cy="-106" rx="68.3417" ry="18"/>
<text text-anchor="middle" x="1770.62" y="-102.3" font-family="Times,serif" font-size="14.00">Relationship</text>
</g>
<!-- Relationship&#45;&gt;PaperTrail::Version -->
<g id="edge25" class="edge"><title>Relationship&#45;&gt;PaperTrail::Version</title>
<path fill="none" stroke="#baecda" d="M1731.75,-86.5747C1705.51,-75.0491 1669.74,-61.0878 1636.62,-54 1545.37,-34.4719 1289.54,-25.1798 1142.08,-21.3297"/>
<ellipse fill="none" stroke="#baecda" cx="1735.58" cy="-88.28" rx="4.00002" ry="4.00002"/>
<polygon fill="#baecda" stroke="#baecda" points="1141.65,-21.3188 1131.77,-16.5634 1136.65,-21.1903 1131.66,-21.0619 1131.66,-21.0619 1131.66,-21.0619 1136.65,-21.1903 1131.54,-25.5604 1141.65,-21.3188 1141.65,-21.3188"/>
<text text-anchor="middle" x="1720.12" y="-58.3" font-family="Times,serif" font-size="14.00">versions</text>
</g>
<!-- ProjectMedia&#45;&gt;Relationship -->
<g id="edge26" class="edge"><title>ProjectMedia&#45;&gt;Relationship</title>
<path fill="none" stroke="#221d63" d="M1679.32,-177.111C1660.02,-168.649 1645.62,-156.884 1656.62,-142 1663.24,-133.044 1684.43,-125.434 1706.77,-119.621"/>
<ellipse fill="none" stroke="#221d63" cx="1683.21" cy="-178.688" rx="4.00001" ry="4.00001"/>
<polygon fill="#221d63" stroke="#221d63" points="1707.02,-119.561 1717.8,-121.528 1711.87,-118.36 1716.72,-117.16 1716.72,-117.16 1716.72,-117.16 1711.87,-118.36 1715.64,-112.791 1707.02,-119.561 1707.02,-119.561"/>
<text text-anchor="middle" x="1729.12" y="-146.3" font-family="Times,serif" font-size="14.00">target_relationships</text>
</g>
<!-- ProjectMedia&#45;&gt;Relationship -->
<g id="edge27" class="edge"><title>ProjectMedia&#45;&gt;Relationship</title>
<path fill="none" stroke="#389ab5" d="M1784.64,-175.043C1791.4,-170.509 1797.44,-164.903 1801.62,-158 1806.91,-149.269 1803.54,-139.706 1797.39,-131.243"/>
<ellipse fill="none" stroke="#389ab5" cx="1781.1" cy="-177.168" rx="4.00002" ry="4.00002"/>
<polygon fill="#389ab5" stroke="#389ab5" points="1797.31,-131.149 1794.26,-120.615 1794.07,-127.339 1790.83,-123.53 1790.83,-123.53 1790.83,-123.53 1794.07,-127.339 1787.4,-126.444 1797.31,-131.149 1797.31,-131.149"/>
<text text-anchor="middle" x="1879.12" y="-146.3" font-family="Times,serif" font-size="14.00">source_relationships</text>
</g>
<!-- ProjectMedia&#45;&gt;ProjectMedia -->
<g id="edge28" class="edge"><title>ProjectMedia&#45;&gt;ProjectMedia</title>
<path fill="none" stroke="#1e08d6" d="M1816.69,-196.974C1822.25,-196.288 1825.62,-195.297 1825.62,-194 1825.62,-192.703 1822.25,-191.712 1816.69,-191.026"/>
<polygon fill="#1e08d6" stroke="#1e08d6" points="1816.31,-197.004 1805.98,-193.313 1811.32,-197.401 1806.34,-197.799 1806.34,-197.799 1806.34,-197.799 1811.32,-197.401 1806.7,-202.284 1816.31,-197.004 1816.31,-197.004"/>
<polygon fill="#1e08d6" stroke="#1e08d6" points="1816.31,-190.996 1806.7,-185.716 1811.32,-190.599 1806.34,-190.201 1806.34,-190.201 1806.34,-190.201 1811.32,-190.599 1805.98,-194.687 1816.31,-190.996 1816.31,-190.996"/>
<text text-anchor="middle" x="1853.62" y="-190.3" font-family="Times,serif" font-size="14.00">sources</text>
</g>
<!-- ProjectMedia&#45;&gt;ProjectMedia -->
<g id="edge29" class="edge"><title>ProjectMedia&#45;&gt;ProjectMedia</title>
<path fill="none" stroke="#542594" d="M1810.94,-202.149C1847.51,-202.824 1881.62,-200.107 1881.62,-194 1881.62,-187.893 1847.51,-185.176 1810.94,-185.851"/>
<polygon fill="#542594" stroke="#542594" points="1810.58,-202.14 1800.71,-197.371 1805.59,-202.005 1800.59,-201.869 1800.59,-201.869 1800.59,-201.869 1805.59,-202.005 1800.47,-206.368 1810.58,-202.14 1810.58,-202.14"/>
<polygon fill="#542594" stroke="#542594" points="1810.58,-185.86 1800.47,-181.632 1805.59,-185.995 1800.59,-186.131 1800.59,-186.131 1800.59,-186.131 1805.59,-185.995 1800.71,-190.629 1810.58,-185.86 1810.58,-185.86"/>
<text text-anchor="middle" x="1907.62" y="-190.3" font-family="Times,serif" font-size="14.00">targets</text>
</g>
<!-- ProjectMedia&#45;&gt;PaperTrail::Version -->
<g id="edge30" class="edge"><title>ProjectMedia&#45;&gt;PaperTrail::Version</title>
<path fill="none" stroke="#a3def0" d="M1680.22,-176.914C1669.3,-172.02 1658.47,-165.804 1649.62,-158 1609.76,-122.852 1635.68,-82.1725 1590.62,-54 1553.7,-30.9182 1294.03,-22.9947 1142.61,-20.3223"/>
<ellipse fill="none" stroke="#a3def0" cx="1684.09" cy="-178.543" rx="4.00002" ry="4.00002"/>
<polygon fill="#a3def0" stroke="#a3def0" points="1142.35,-20.3179 1132.43,-15.647 1137.35,-20.2321 1132.35,-20.1463 1132.35,-20.1463 1132.35,-20.1463 1137.35,-20.2321 1132.28,-24.6457 1142.35,-20.3179 1142.35,-20.3179"/>
<text text-anchor="middle" x="1658.12" y="-102.3" font-family="Times,serif" font-size="14.00">versions</text>
</g>
<!-- Bounce -->
<g id="node16" class="node"><title>Bounce</title>
<ellipse fill="none" stroke="black" cx="1371.62" cy="-754" rx="45.244" ry="18"/>
<text text-anchor="middle" x="1371.62" y="-750.3" font-family="Times,serif" font-size="14.00">Bounce</text>
</g>
<!-- Assignment&#45;&gt;PaperTrail::Version -->
<g id="edge31" class="edge"><title>Assignment&#45;&gt;PaperTrail::Version</title>
<path fill="none" stroke="#71f41b" d="M517.885,-80.1487C522.048,-70.3626 528.346,-60.0389 537.621,-54 569.269,-33.3925 789.419,-24.6039 925.571,-21.1054"/>
<ellipse fill="none" stroke="#71f41b" cx="516.406" cy="-84.0494" rx="4.00001" ry="4.00001"/>
<polygon fill="#71f41b" stroke="#71f41b" points="925.634,-21.1039 935.744,-25.3512 930.632,-20.9782 935.631,-20.8526 935.631,-20.8526 935.631,-20.8526 930.632,-20.9782 935.518,-16.354 925.634,-21.1039 925.634,-21.1039"/>
<text text-anchor="middle" x="568.121" y="-58.3" font-family="Times,serif" font-size="14.00">versions</text>
</g>
<!-- BotUser -->
<g id="node18" class="node"><title>BotUser</title>
<ellipse fill="none" stroke="black" cx="1100.62" cy="-754" rx="48.6179" ry="18"/>
<text text-anchor="middle" x="1100.62" y="-750.3" font-family="Times,serif" font-size="14.00">BotUser</text>
</g>
<!-- BotUser&#45;&gt;ProjectMedia -->
<g id="edge39" class="edge"><title>BotUser&#45;&gt;ProjectMedia</title>
<path fill="none" stroke="#e21e9c" d="M1143.25,-739.225C1148.38,-737.946 1153.59,-736.824 1158.62,-736 1211.56,-727.33 2122.62,-734.643 2122.62,-681 2122.62,-681 2122.62,-681 2122.62,-281 2122.62,-216.445 2049.19,-245.87 1986.62,-230 1929.54,-215.523 1863.57,-206.633 1813.45,-201.436"/>
<ellipse fill="none" stroke="#e21e9c" cx="1139.13" cy="-740.317" rx="4.00001" ry="4.00001"/>
<polygon fill="#e21e9c" stroke="#e21e9c" points="1813.27,-201.419 1803.78,-195.937 1808.3,-200.916 1803.32,-200.414 1803.32,-200.414 1803.32,-200.414 1808.3,-200.916 1802.87,-204.891 1813.27,-201.419 1813.27,-201.419"/>
</g>
<!-- BotUser&#45;&gt;Assignment -->
<g id="edge36" class="edge"><title>BotUser&#45;&gt;Assignment</title>
<path fill="none" stroke="#b3785f" d="M1044.14,-752.643C895.995,-751.33 498.892,-745.294 370.621,-718 326.301,-708.57 275.621,-726.312 275.621,-681 275.621,-681 275.621,-681 275.621,-406 275.621,-334.207 302.07,-314.978 352.621,-264 386.239,-230.098 412.157,-245.042 446.621,-212 470.217,-189.376 488.483,-156.251 499.353,-133.28"/>
<ellipse fill="none" stroke="#b3785f" cx="1048.27" cy="-752.678" rx="4" ry="4"/>
<polygon fill="#b3785f" stroke="#b3785f" points="499.386,-133.209 507.644,-125.993 501.47,-128.663 503.553,-124.118 503.553,-124.118 503.553,-124.118 501.47,-128.663 499.462,-122.243 499.386,-133.209 499.386,-133.209"/>
</g>
<!-- ProjectSource -->
<g id="node19" class="node"><title>ProjectSource</title>
<ellipse fill="none" stroke="black" cx="1025.62" cy="-194" rx="76.5394" ry="18"/>
<text text-anchor="middle" x="1025.62" y="-190.3" font-family="Times,serif" font-size="14.00">ProjectSource</text>
</g>
<!-- BotUser&#45;&gt;ProjectSource -->
<g id="edge38" class="edge"><title>BotUser&#45;&gt;ProjectSource</title>
<path fill="none" stroke="#166d4a" d="M1043.93,-752.174C910.689,-749.565 581.242,-739.033 479.621,-698 390.841,-662.152 357.555,-629.646 337.621,-536 285.921,-293.132 660.279,-310.711 776.621,-264 837.307,-239.635 909.623,-220.644 960.644,-208.808"/>
<ellipse fill="none" stroke="#166d4a" cx="1048.03" cy="-752.252" rx="4" ry="4"/>
<polygon fill="#166d4a" stroke="#166d4a" points="960.807,-208.771 971.56,-210.923 965.681,-207.654 970.555,-206.537 970.555,-206.537 970.555,-206.537 965.681,-207.654 969.549,-202.15 960.807,-208.771 960.807,-208.771"/>
</g>
<!-- Media -->
<g id="node21" class="node"><title>Media</title>
<ellipse fill="none" stroke="black" cx="1734.62" cy="-370" rx="39.9464" ry="18"/>
<text text-anchor="middle" x="1734.62" y="-366.3" font-family="Times,serif" font-size="14.00">Media</text>
</g>
<!-- BotUser&#45;&gt;Media -->
<g id="edge37" class="edge"><title>BotUser&#45;&gt;Media</title>
<path fill="none" stroke="#3bccad" d="M1143.25,-739.234C1148.39,-737.953 1153.59,-736.828 1158.62,-736 1349.99,-704.491 1405.9,-762.699 1594.62,-718 1633.53,-708.785 1676.62,-720.983 1676.62,-681 1676.62,-681 1676.62,-681 1676.62,-443 1676.62,-422.685 1690.8,-404.859 1705.13,-392.026"/>
<ellipse fill="none" stroke="#3bccad" cx="1139.13" cy="-740.326" rx="4.00001" ry="4.00001"/>
<polygon fill="#3bccad" stroke="#3bccad" points="1705.35,-391.842 1715.91,-388.878 1709.19,-388.634 1713.02,-385.426 1713.02,-385.426 1713.02,-385.426 1709.19,-388.634 1710.14,-381.974 1705.35,-391.842 1705.35,-391.842"/>
</g>
<!-- TeamUser -->
<g id="node22" class="node"><title>TeamUser</title>
<ellipse fill="none" stroke="black" cx="437.621" cy="-518" rx="57.2688" ry="18"/>
<text text-anchor="middle" x="437.621" y="-514.3" font-family="Times,serif" font-size="14.00">TeamUser</text>
</g>
<!-- BotUser&#45;&gt;TeamUser -->
<g id="edge32" class="edge"><title>BotUser&#45;&gt;TeamUser</title>
<path fill="none" stroke="#d56089" d="M1044.2,-752.326C877.787,-750.072 399.133,-741.559 375.621,-718 330.383,-672.673 343.244,-631.892 370.621,-574 377.207,-560.072 389.24,-548.488 401.311,-539.601"/>
<ellipse fill="none" stroke="#d56089" cx="1048.35" cy="-752.382" rx="4" ry="4"/>
<polygon fill="#d56089" stroke="#d56089" points="401.373,-539.558 412.16,-537.588 405.49,-536.721 409.607,-533.883 409.607,-533.883 409.607,-533.883 405.49,-536.721 407.053,-530.178 401.373,-539.558 401.373,-539.558"/>
</g>
<!-- Source -->
<g id="node23" class="node"><title>Source</title>
<ellipse fill="none" stroke="black" cx="1181.62" cy="-518" rx="42.3456" ry="18"/>
<text text-anchor="middle" x="1181.62" y="-514.3" font-family="Times,serif" font-size="14.00">Source</text>
</g>
<!-- BotUser&#45;&gt;Source -->
<g id="edge40" class="edge"><title>BotUser&#45;&gt;Source</title>
<path fill="none" stroke="#558095" d="M1104.89,-728.051C1117.18,-683.439 1149.35,-590.432 1168.17,-545.043"/>
<ellipse fill="none" stroke="#558095" cx="1103.86" cy="-731.927" rx="4.00001" ry="4.00001"/>
<polygon fill="#558095" stroke="#558095" points="1168.27,-544.802 1176.33,-537.368 1170.23,-540.202 1172.19,-535.603 1172.19,-535.603 1172.19,-535.603 1170.23,-540.202 1168.05,-533.838 1168.27,-544.802 1168.27,-544.802"/>
</g>
<!-- TeamBot -->
<g id="node25" class="node"><title>TeamBot</title>
<ellipse fill="none" stroke="black" cx="708.621" cy="-680" rx="51.4931" ry="18"/>
<text text-anchor="middle" x="708.621" y="-676.3" font-family="Times,serif" font-size="14.00">TeamBot</text>
</g>
<!-- BotUser&#45;&gt;TeamBot -->
<g id="edge41" class="edge"><title>BotUser&#45;&gt;TeamBot</title>
<path fill="none" stroke="#501d56" d="M1050.14,-743.727C975.623,-730.041 836.87,-704.556 761.182,-690.654"/>
<ellipse fill="none" stroke="#501d56" cx="1054.36" cy="-744.504" rx="4.00001" ry="4.00001"/>
<ellipse fill="#501d56" stroke="#501d56" cx="757.1" cy="-689.904" rx="4.00001" ry="4.00001"/>
</g>
<!-- BotUser&#45;&gt;Project -->
<g id="edge34" class="edge"><title>BotUser&#45;&gt;Project</title>
<path fill="none" stroke="#dc6bb9" d="M1143.49,-739.399C1148.56,-738.101 1153.68,-736.926 1158.62,-736 1309.96,-707.63 1421.99,-780.82 1492.62,-644 1551.37,-530.194 1484.26,-370.977 1453.45,-309.065"/>
<ellipse fill="none" stroke="#dc6bb9" cx="1139.48" cy="-740.481" rx="4.00001" ry="4.00001"/>
<polygon fill="#dc6bb9" stroke="#dc6bb9" points="1453.37,-308.903 1452.86,-297.949 1451.11,-304.444 1448.84,-299.986 1448.84,-299.986 1448.84,-299.986 1451.11,-304.444 1444.83,-302.023 1453.37,-308.903 1453.37,-308.903"/>
</g>
<!-- Team -->
<g id="node29" class="node"><title>Team</title>
<ellipse fill="none" stroke="black" cx="958.621" cy="-592" rx="35.6194" ry="18"/>
<text text-anchor="middle" x="958.621" y="-588.3" font-family="Times,serif" font-size="14.00">Team</text>
</g>
<!-- BotUser&#45;&gt;Team -->
<g id="edge33" class="edge"><title>BotUser&#45;&gt;Team</title>
<path fill="none" stroke="#f0630c" d="M1079.26,-728.931C1052.23,-698.477 1006,-646.38 979.297,-616.297"/>
<polygon fill="#f0630c" stroke="#f0630c" points="1079.59,-729.299 1082.86,-739.765 1082.9,-733.038 1086.22,-736.778 1086.22,-736.778 1086.22,-736.778 1082.9,-733.038 1089.59,-733.791 1079.59,-729.299 1079.59,-729.299"/>
<polygon fill="#f0630c" stroke="#f0630c" points="979.273,-616.27 976.001,-605.804 975.954,-612.53 972.635,-608.791 972.635,-608.791 972.635,-608.791 975.954,-612.53 969.269,-611.778 979.273,-616.27 979.273,-616.27"/>
</g>
<!-- Account -->
<g id="node31" class="node"><title>Account</title>
<ellipse fill="none" stroke="black" cx="1311.62" cy="-444" rx="49.0941" ry="18"/>
<text text-anchor="middle" x="1311.62" y="-440.3" font-family="Times,serif" font-size="14.00">Account</text>
</g>
<!-- BotUser&#45;&gt;Account -->
<g id="edge35" class="edge"><title>BotUser&#45;&gt;Account</title>
<path fill="none" stroke="#0070bb" d="M1144.6,-739.764C1149.32,-738.447 1154.06,-737.167 1158.62,-736 1212.89,-722.105 1404.62,-737.016 1404.62,-681 1404.62,-681 1404.62,-681 1404.62,-554 1404.62,-516.066 1371.62,-484.648 1344.94,-465.443"/>
<ellipse fill="none" stroke="#0070bb" cx="1140.56" cy="-740.911" rx="4.00001" ry="4.00001"/>
<polygon fill="#0070bb" stroke="#0070bb" points="1344.77,-465.329 1339.1,-455.942 1340.66,-462.486 1336.54,-459.644 1336.54,-459.644 1336.54,-459.644 1340.66,-462.486 1333.98,-463.346 1344.77,-465.329 1344.77,-465.329"/>
</g>
<!-- ProjectSource&#45;&gt;PaperTrail::Version -->
<g id="edge42" class="edge"><title>ProjectSource&#45;&gt;PaperTrail::Version</title>
<path fill="none" stroke="#85f25a" d="M1098.94,-182.523C1134.43,-173.356 1173.95,-156.178 1195.62,-124 1224.55,-81.0313 1159.5,-51.6736 1103.4,-35.1541"/>
<ellipse fill="none" stroke="#85f25a" cx="1094.85" cy="-183.52" rx="4.00001" ry="4.00001"/>
<polygon fill="#85f25a" stroke="#85f25a" points="1103.39,-35.1519 1095.01,-28.0875 1098.58,-33.7839 1093.78,-32.4158 1093.78,-32.4158 1093.78,-32.4158 1098.58,-33.7839 1092.54,-36.7441 1103.39,-35.1519 1103.39,-35.1519"/>
<text text-anchor="middle" x="1234.12" y="-102.3" font-family="Times,serif" font-size="14.00">versions</text>
</g>
<!-- Contact -->
<g id="node20" class="node"><title>Contact</title>
<ellipse fill="none" stroke="black" cx="1072.62" cy="-518" rx="48.1437" ry="18"/>
<text text-anchor="middle" x="1072.62" y="-514.3" font-family="Times,serif" font-size="14.00">Contact</text>
</g>
<!-- Media&#45;&gt;ProjectMedia -->
<g id="edge44" class="edge"><title>Media&#45;&gt;ProjectMedia</title>
<path fill="none" stroke="#d2b9fe" d="M1734.62,-343.963C1734.62,-311.714 1734.62,-255.849 1734.62,-222.463"/>
<ellipse fill="none" stroke="#d2b9fe" cx="1734.62" cy="-347.999" rx="4" ry="4"/>
<polygon fill="#d2b9fe" stroke="#d2b9fe" points="1734.62,-222.07 1739.12,-212.07 1734.62,-217.07 1734.62,-212.07 1734.62,-212.07 1734.62,-212.07 1734.62,-217.07 1730.12,-212.07 1734.62,-222.07 1734.62,-222.07"/>
</g>
<!-- Media&#45;&gt;Project -->
<g id="edge45" class="edge"><title>Media&#45;&gt;Project</title>
<path fill="none" stroke="#96ecb6" d="M1694.82,-354.966C1691.38,-353.908 1687.95,-352.903 1684.62,-352 1646.09,-341.554 1635.22,-344.183 1596.62,-334 1556.99,-323.545 1512.64,-308.854 1481.21,-297.923"/>
<polygon fill="#96ecb6" stroke="#96ecb6" points="1694.88,-354.986 1703.03,-362.328 1699.64,-356.515 1704.4,-358.043 1704.4,-358.043 1704.4,-358.043 1699.64,-356.515 1705.78,-353.759 1694.88,-354.986 1694.88,-354.986"/>
<polygon fill="#96ecb6" stroke="#96ecb6" points="1480.92,-297.822 1472.97,-290.269 1476.2,-296.169 1471.48,-294.516 1471.48,-294.516 1471.48,-294.516 1476.2,-296.169 1469.99,-298.763 1480.92,-297.822 1480.92,-297.822"/>
</g>
<!-- Media&#45;&gt;PaperTrail::Version -->
<g id="edge43" class="edge"><title>Media&#45;&gt;PaperTrail::Version</title>
<path fill="none" stroke="#d439dd" d="M1714.27,-347.049C1686.36,-316.853 1634.75,-260.7 1591.62,-212 1577.62,-196.193 1575.43,-191.047 1560.62,-176 1519.32,-134.046 1507.53,-124.854 1461.62,-88 1441.52,-71.8599 1438.76,-63.0565 1414.62,-54 1366.17,-35.8208 1235.54,-26.805 1140.73,-22.5327"/>
<ellipse fill="none" stroke="#d439dd" cx="1717.14" cy="-350.15" rx="4.00002" ry="4.00002"/>
<polygon fill="#d439dd" stroke="#d439dd" points="1140.5,-22.5229 1130.71,-17.5887 1135.51,-22.3037 1130.51,-22.0844 1130.51,-22.0844 1130.51,-22.0844 1135.51,-22.3037 1130.32,-26.5801 1140.5,-22.5229 1140.5,-22.5229"/>
<text text-anchor="middle" x="1622.12" y="-190.3" font-family="Times,serif" font-size="14.00">versions</text>
</g>
<!-- Source&#45;&gt;BotUser -->
<g id="edge51" class="edge"><title>Source&#45;&gt;BotUser</title>
<path fill="none" stroke="#2a9751" d="M1177.38,-543.82C1164.96,-588.988 1132.03,-684.072 1113.31,-728.788"/>
<ellipse fill="none" stroke="#2a9751" cx="1178.43" cy="-539.857" rx="4.00001" ry="4.00001"/>
<ellipse fill="#2a9751" stroke="#2a9751" cx="1111.72" cy="-732.495" rx="4.00002" ry="4.00002"/>
</g>
<!-- Source&#45;&gt;ProjectSource -->
<g id="edge47" class="edge"><title>Source&#45;&gt;ProjectSource</title>
<path fill="none" stroke="#24802c" d="M1141.31,-503.752C1082.12,-484.152 978.621,-449.272 978.621,-445 978.621,-445 978.621,-445 978.621,-281 978.621,-258.252 991.44,-235.808 1003.69,-219.555"/>
<ellipse fill="none" stroke="#24802c" cx="1145.21" cy="-505.039" rx="4.00001" ry="4.00001"/>
<polygon fill="#24802c" stroke="#24802c" points="1003.75,-219.48 1013.49,-214.452 1006.86,-215.566 1009.97,-211.652 1009.97,-211.652 1009.97,-211.652 1006.86,-215.566 1006.45,-208.852 1003.75,-219.48 1003.75,-219.48"/>
</g>
<!-- Source&#45;&gt;Project -->
<g id="edge49" class="edge"><title>Source&#45;&gt;Project</title>
<path fill="none" stroke="#828c0e" d="M1145.11,-499.229C1088.25,-469.251 989.592,-406.556 1035.62,-352 1079.77,-299.671 1285.84,-287.025 1385.44,-283.971"/>
<polygon fill="#828c0e" stroke="#828c0e" points="1145.31,-499.33 1152.12,-507.921 1149.75,-501.627 1154.19,-503.925 1154.19,-503.925 1154.19,-503.925 1149.75,-501.627 1156.26,-499.928 1145.31,-499.33 1145.31,-499.33"/>
<polygon fill="#828c0e" stroke="#828c0e" points="1385.61,-283.966 1395.73,-288.18 1390.6,-283.824 1395.6,-283.681 1395.6,-283.681 1395.6,-283.681 1390.6,-283.824 1395.47,-279.183 1385.61,-283.966 1385.61,-283.966"/>
</g>
<!-- Source&#45;&gt;Account -->
<g id="edge50" class="edge"><title>Source&#45;&gt;Account</title>
<path fill="none" stroke="#295c5b" d="M1211.47,-496.594C1220.09,-490.984 1229.61,-485.057 1238.62,-480 1249.24,-474.041 1261.03,-468.108 1271.98,-462.864"/>
<polygon fill="#295c5b" stroke="#295c5b" points="1211.21,-496.765 1200.39,-498.521 1207.04,-499.52 1202.87,-502.276 1202.87,-502.276 1202.87,-502.276 1207.04,-499.52 1205.35,-506.031 1211.21,-496.765 1211.21,-496.765"/>
<polygon fill="#295c5b" stroke="#295c5b" points="1272.3,-462.716 1283.26,-462.522 1276.82,-460.584 1281.34,-458.451 1281.34,-458.451 1281.34,-458.451 1276.82,-460.584 1279.42,-454.381 1272.3,-462.716 1272.3,-462.716"/>
</g>
<!-- AccountSource -->
<g id="node32" class="node"><title>AccountSource</title>
<ellipse fill="none" stroke="black" cx="1125.62" cy="-370" rx="81.3646" ry="18"/>
<text text-anchor="middle" x="1125.62" y="-366.3" font-family="Times,serif" font-size="14.00">AccountSource</text>
</g>
<!-- Source&#45;&gt;AccountSource -->
<g id="edge48" class="edge"><title>Source&#45;&gt;AccountSource</title>
<path fill="none" stroke="#e91ad6" d="M1172.1,-492.179C1162.06,-466.006 1146.3,-424.905 1135.96,-397.954"/>
<ellipse fill="none" stroke="#e91ad6" cx="1173.65" cy="-496.232" rx="4.00001" ry="4.00001"/>
<polygon fill="#e91ad6" stroke="#e91ad6" points="1135.87,-397.715 1136.49,-386.766 1134.08,-393.046 1132.29,-388.378 1132.29,-388.378 1132.29,-388.378 1134.08,-393.046 1128.08,-389.989 1135.87,-397.715 1135.87,-397.715"/>
</g>
<!-- Source&#45;&gt;PaperTrail::Version -->
<g id="edge46" class="edge"><title>Source&#45;&gt;PaperTrail::Version</title>
<path fill="none" stroke="#241b47" d="M1142.51,-503.517C1138.19,-502.235 1133.83,-501.031 1129.62,-500 1057.2,-482.253 798.621,-519.564 798.621,-445 798.621,-445 798.621,-445 798.621,-105 798.621,-67.2222 832.204,-69.5781 866.621,-54 890.326,-43.27 917.425,-35.7828 942.798,-30.5762"/>
<ellipse fill="none" stroke="#241b47" cx="1146.39" cy="-504.712" rx="4.00001" ry="4.00001"/>
<polygon fill="#241b47" stroke="#241b47" points="942.985,-30.5398 953.663,-33.0375 947.892,-29.5804 952.8,-28.6211 952.8,-28.6211 952.8,-28.6211 947.892,-29.5804 951.936,-24.2047 942.985,-30.5398 942.985,-30.5398"/>
<text text-anchor="middle" x="829.121" y="-278.3" font-family="Times,serif" font-size="14.00">versions</text>
</g>
<!-- User -->
<g id="node24" class="node"><title>User</title>
<ellipse fill="none" stroke="black" cx="1290.62" cy="-680" rx="32.2457" ry="18"/>
<text text-anchor="middle" x="1290.62" y="-676.3" font-family="Times,serif" font-size="14.00">User</text>
</g>
<!-- User&#45;&gt;ProjectMedia -->
<g id="edge59" class="edge"><title>User&#45;&gt;ProjectMedia</title>
<path fill="none" stroke="#7da584" d="M1330.92,-676.377C1452.31,-665.994 1814.19,-616.25 1945.62,-388 1991.53,-308.27 1860.39,-242.833 1784.49,-212.778"/>
<ellipse fill="none" stroke="#7da584" cx="1326.59" cy="-676.732" rx="4" ry="4"/>
<polygon fill="#7da584" stroke="#7da584" points="1784.39,-212.74 1776.7,-204.923 1779.73,-210.929 1775.07,-209.117 1775.07,-209.117 1775.07,-209.117 1779.73,-210.929 1773.44,-213.312 1784.39,-212.74 1784.39,-212.74"/>
</g>
<!-- User&#45;&gt;Assignment -->
<g id="edge56" class="edge"><title>User&#45;&gt;Assignment</title>
<path fill="none" stroke="#41195f" d="M1249.88,-677.983C1133.83,-674.865 803.024,-664.395 696.621,-644 687.252,-642.204 377.428,-542.683 370.621,-536 352.465,-518.176 351.621,-507.442 351.621,-482 351.621,-482 351.621,-482 351.621,-325 351.621,-249.114 438.842,-275.998 479.621,-212 494.806,-188.169 502.809,-156.604 506.85,-134.326"/>
<ellipse fill="none" stroke="#41195f" cx="1254.19" cy="-678.097" rx="4" ry="4"/>
<polygon fill="#41195f" stroke="#41195f" points="506.892,-134.075 512.969,-124.947 507.711,-129.142 508.53,-124.21 508.53,-124.21 508.53,-124.21 507.711,-129.142 504.091,-123.473 506.892,-134.075 506.892,-134.075"/>
</g>
<!-- User&#45;&gt;ProjectSource -->
<g id="edge58" class="edge"><title>User&#45;&gt;ProjectSource</title>
<path fill="none" stroke="#7deb00" d="M1287,-653.891C1276.95,-586.532 1247.37,-403.457 1215.62,-352 1177.76,-290.633 1107.41,-242.028 1063.76,-215.974"/>
<ellipse fill="none" stroke="#7deb00" cx="1287.59" cy="-657.923" rx="4.00001" ry="4.00001"/>
<polygon fill="#7deb00" stroke="#7deb00" points="1063.49,-215.82 1057.14,-206.879 1059.18,-213.29 1054.87,-210.761 1054.87,-210.761 1054.87,-210.761 1059.18,-213.29 1052.59,-214.642 1063.49,-215.82 1063.49,-215.82"/>
</g>
<!-- User&#45;&gt;Media -->
<g id="edge57" class="edge"><title>User&#45;&gt;Media</title>
<path fill="none" stroke="#882353" d="M1329.45,-673.314C1397.38,-662.265 1530.62,-635.213 1530.62,-593 1530.62,-593 1530.62,-593 1530.62,-443 1530.62,-440.854 1634.66,-405.053 1694.14,-384.76"/>
<ellipse fill="none" stroke="#882353" cx="1325.46" cy="-673.951" rx="4.00001" ry="4.00001"/>
<polygon fill="#882353" stroke="#882353" points="1694.17,-384.75 1705.09,-385.783 1698.9,-383.137 1703.64,-381.524 1703.64,-381.524 1703.64,-381.524 1698.9,-383.137 1702.19,-377.264 1694.17,-384.75 1694.17,-384.75"/>
</g>
<!-- User&#45;&gt;TeamUser -->
<g id="edge52" class="edge"><title>User&#45;&gt;TeamUser</title>
<path fill="none" stroke="#9d0dee" d="M1252.34,-672.356C1212.26,-665.379 1147.5,-654.046 1091.62,-644 830.108,-596.987 763.102,-593.173 503.621,-536 499.024,-534.987 494.262,-533.879 489.497,-532.728"/>
<ellipse fill="none" stroke="#9d0dee" cx="1256.32" cy="-673.049" rx="4.00001" ry="4.00001"/>
<polygon fill="#9d0dee" stroke="#9d0dee" points="489.474,-532.723 480.843,-525.958 484.62,-531.525 479.765,-530.327 479.765,-530.327 479.765,-530.327 484.62,-531.525 478.687,-534.696 489.474,-532.723 489.474,-532.723"/>
</g>
<!-- User&#45;&gt;Source -->
<g id="edge60" class="edge"><title>User&#45;&gt;Source</title>
<path fill="none" stroke="#88b849" d="M1274.85,-655.846C1254.61,-626.146 1219.65,-574.82 1198.77,-544.175"/>
<ellipse fill="none" stroke="#88b849" cx="1277.32" cy="-659.472" rx="4.00002" ry="4.00002"/>
<polygon fill="#88b849" stroke="#88b849" points="1198.66,-544.01 1196.75,-533.212 1195.84,-539.877 1193.03,-535.745 1193.03,-535.745 1193.03,-535.745 1195.84,-539.877 1189.31,-538.279 1198.66,-544.01 1198.66,-544.01"/>
</g>
<!-- User&#45;&gt;Project -->
<g id="edge54" class="edge"><title>User&#45;&gt;Project</title>
<path fill="none" stroke="#6c7a07" d="M1310.73,-657.716C1314.29,-653.367 1317.77,-648.683 1320.62,-644 1384.11,-539.836 1388.61,-505.982 1419.62,-388 1426.48,-361.899 1432,-331.568 1435.49,-310.236"/>
<ellipse fill="none" stroke="#6c7a07" cx="1308.12" cy="-660.769" rx="4.00002" ry="4.00002"/>
<polygon fill="#6c7a07" stroke="#6c7a07" points="1435.51,-310.133 1441.52,-300.966 1436.29,-305.195 1437.08,-300.258 1437.08,-300.258 1437.08,-300.258 1436.29,-305.195 1432.64,-299.549 1435.51,-310.133 1435.51,-310.133"/>
</g>
<!-- User&#45;&gt;Team -->
<g id="edge53" class="edge"><title>User&#45;&gt;Team</title>
<path fill="none" stroke="#eed859" d="M1251.96,-668.984C1188.79,-652.623 1064.06,-620.312 999.492,-603.587"/>
<polygon fill="#eed859" stroke="#eed859" points="1252.35,-669.086 1260.9,-675.949 1257.19,-670.339 1262.03,-671.593 1262.03,-671.593 1262.03,-671.593 1257.19,-670.339 1263.16,-667.237 1252.35,-669.086 1252.35,-669.086"/>
<polygon fill="#eed859" stroke="#eed859" points="999.345,-603.549 990.793,-596.685 994.505,-602.295 989.664,-601.041 989.664,-601.041 989.664,-601.041 994.505,-602.295 988.536,-605.398 999.345,-603.549 999.345,-603.549"/>
</g>
<!-- User&#45;&gt;Account -->
<g id="edge55" class="edge"><title>User&#45;&gt;Account</title>
<path fill="none" stroke="#38c0cf" d="M1301.55,-654.762C1302.79,-651.212 1303.87,-647.554 1304.62,-644 1317.31,-583.811 1315.74,-511.154 1313.61,-472.438"/>
<ellipse fill="none" stroke="#38c0cf" cx="1300.1" cy="-658.543" rx="4.00001" ry="4.00001"/>
<polygon fill="#38c0cf" stroke="#38c0cf" points="1313.58,-471.991 1317.46,-461.735 1313.27,-467 1312.97,-462.01 1312.97,-462.01 1312.97,-462.01 1313.27,-467 1308.48,-462.284 1313.58,-471.991 1313.58,-471.991"/>
</g>
<!-- TeamBotInstallation -->
<g id="node26" class="node"><title>TeamBotInstallation</title>
<ellipse fill="none" stroke="black" cx="617.621" cy="-518" rx="104.461" ry="18"/>
<text text-anchor="middle" x="617.621" y="-514.3" font-family="Times,serif" font-size="14.00">TeamBotInstallation</text>
</g>
<!-- TeamBot&#45;&gt;TeamBotInstallation -->
<g id="edge61" class="edge"><title>TeamBot&#45;&gt;TeamBotInstallation</title>
<path fill="none" stroke="#d072b2" d="M694.869,-654.822C678.016,-625.19 649.578,-575.188 632.309,-544.825"/>
<ellipse fill="none" stroke="#d072b2" cx="697.077" cy="-658.703" rx="4.00002" ry="4.00002"/>
<polygon fill="#d072b2" stroke="#d072b2" points="632.277,-544.769 631.245,-533.852 629.805,-540.423 627.333,-536.077 627.333,-536.077 627.333,-536.077 629.805,-540.423 623.421,-538.301 632.277,-544.769 632.277,-544.769"/>
</g>
<!-- ApiKey -->
<g id="node27" class="node"><title>ApiKey</title>
<ellipse fill="none" stroke="black" cx="423.621" cy="-592" rx="43.319" ry="18"/>
<text text-anchor="middle" x="423.621" y="-588.3" font-family="Times,serif" font-size="14.00">ApiKey</text>
</g>
<!-- TeamBot&#45;&gt;ApiKey -->
<g id="edge63" class="edge"><title>TeamBot&#45;&gt;ApiKey</title>
<path fill="none" stroke="#aaccc4" d="M649.085,-678.864C601.688,-676.671 534.725,-668.814 481.621,-644 467.201,-637.262 453.683,-625.807 443.332,-615.459"/>
<ellipse fill="none" stroke="#aaccc4" cx="653.112" cy="-679.027" rx="4" ry="4"/>
<ellipse fill="#aaccc4" stroke="#aaccc4" cx="440.397" cy="-612.417" rx="4.00002" ry="4.00002"/>
</g>
<!-- TeamBot&#45;&gt;Team -->
<g id="edge62" class="edge"><title>TeamBot&#45;&gt;Team</title>
<path fill="none" stroke="#df7a02" d="M761.797,-667.859C787.711,-661.839 819.137,-653.655 846.621,-644 873.838,-634.438 903.5,-620.776 925.458,-609.998"/>
<polygon fill="#df7a02" stroke="#df7a02" points="761.541,-667.917 750.79,-665.753 756.666,-669.029 751.791,-670.14 751.791,-670.14 751.791,-670.14 756.666,-669.029 752.791,-674.528 761.541,-667.917 761.541,-667.917"/>
<polygon fill="#df7a02" stroke="#df7a02" points="925.71,-609.873 936.668,-609.456 930.188,-607.649 934.667,-605.426 934.667,-605.426 934.667,-605.426 930.188,-607.649 932.665,-601.395 925.71,-609.873 925.71,-609.873"/>
</g>
<!-- ApiKey&#45;&gt;BotUser -->
<g id="edge64" class="edge"><title>ApiKey&#45;&gt;BotUser</title>
<path fill="none" stroke="#8cf888" d="M433.659,-617.415C438.679,-626.938 445.63,-637.183 454.621,-644 525.598,-697.815 560.268,-680.582 647.621,-698 789.685,-726.328 959.915,-742.248 1045.6,-749.033"/>
<ellipse fill="none" stroke="#8cf888" cx="431.8" cy="-613.606" rx="4.00002" ry="4.00002"/>
<ellipse fill="#8cf888" stroke="#8cf888" cx="1049.63" cy="-749.349" rx="4" ry="4"/>
</g>
<!-- Project&#45;&gt;ProjectMedia -->
<g id="edge68" class="edge"><title>Project&#45;&gt;ProjectMedia</title>
<path fill="none" stroke="#7363d7" d="M1481.25,-267.915C1514.97,-257.404 1563.76,-242.403 1606.62,-230 1629.55,-223.364 1654.9,-216.366 1676.94,-210.385"/>
<ellipse fill="none" stroke="#7363d7" cx="1477.26" cy="-269.161" rx="4.00001" ry="4.00001"/>
<polygon fill="#7363d7" stroke="#7363d7" points="1677.16,-210.325 1687.99,-212.058 1681.98,-209.02 1686.81,-207.714 1686.81,-207.714 1686.81,-207.714 1681.98,-209.02 1685.64,-203.37 1677.16,-210.325 1677.16,-210.325"/>
</g>
<!-- Project&#45;&gt;Assignment -->
<g id="edge65" class="edge"><title>Project&#45;&gt;Assignment</title>
<path fill="none" stroke="#f7cf8d" d="M1387.42,-279.914C1208.72,-275.788 628.793,-258.876 560.621,-212 534.563,-194.083 521.674,-158.786 515.595,-134.083"/>
<ellipse fill="none" stroke="#f7cf8d" cx="1391.62" cy="-280.01" rx="4" ry="4"/>
<polygon fill="#f7cf8d" stroke="#f7cf8d" points="515.573,-133.984 517.779,-123.242 514.48,-129.105 513.387,-124.226 513.387,-124.226 513.387,-124.226 514.48,-129.105 508.996,-125.209 515.573,-133.984 515.573,-133.984"/>
</g>
<!-- Project&#45;&gt;ProjectSource -->
<g id="edge67" class="edge"><title>Project&#45;&gt;ProjectSource</title>
<path fill="none" stroke="#f5c620" d="M1406.37,-263.842C1382.77,-252.426 1350.02,-238.092 1319.62,-230 1250.48,-211.593 1169.61,-202.856 1110.2,-198.714"/>
<ellipse fill="none" stroke="#f5c620" cx="1410.1" cy="-265.673" rx="4.00002" ry="4.00002"/>
<polygon fill="#f5c620" stroke="#f5c620" points="1110.09,-198.707 1100.41,-193.551 1105.1,-198.374 1100.11,-198.041 1100.11,-198.041 1100.11,-198.041 1105.1,-198.374 1099.81,-202.531 1110.09,-198.707 1110.09,-198.707"/>
</g>
<!-- Project&#45;&gt;PaperTrail::Version -->
<g id="edge66" class="edge"><title>Project&#45;&gt;PaperTrail::Version</title>
<path fill="none" stroke="#07ac96" d="M1435.17,-256.051C1431.04,-234.571 1424.24,-202.88 1415.62,-176 1406.65,-148.019 1388.19,-71.5506 1364.62,-54 1330.42,-28.5299 1225.63,-20.7949 1143.02,-18.8113"/>
<ellipse fill="none" stroke="#07ac96" cx="1435.93" cy="-260.099" rx="4.00001" ry="4.00001"/>
<polygon fill="#07ac96" stroke="#07ac96" points="1142.8,-18.8067 1132.9,-14.0932 1137.8,-18.6994 1132.8,-18.5922 1132.8,-18.5922 1132.8,-18.5922 1137.8,-18.6994 1132.71,-23.0912 1142.8,-18.8067 1142.8,-18.8067"/>
<text text-anchor="middle" x="1441.12" y="-146.3" font-family="Times,serif" font-size="14.00">versions</text>
</g>
<!-- Team&#45;&gt;TeamTask -->
<g id="edge78" class="edge"><title>Team&#45;&gt;TeamTask</title>
<path fill="none" stroke="#11f682" d="M929.36,-573.872C911.646,-563.503 888.957,-550.221 870.338,-539.323"/>
<ellipse fill="none" stroke="#11f682" cx="932.894" cy="-575.941" rx="4.00002" ry="4.00002"/>
<polygon fill="#11f682" stroke="#11f682" points="870.195,-539.239 863.838,-530.303 865.88,-536.713 861.565,-534.187 861.565,-534.187 861.565,-534.187 865.88,-536.713 859.292,-538.07 870.195,-539.239 870.195,-539.239"/>
</g>
<!-- Team&#45;&gt;TagText -->
<g id="edge77" class="edge"><title>Team&#45;&gt;TagText</title>
<path fill="none" stroke="#7597b0" d="M958.621,-565.792C958.621,-559.58 958.621,-552.896 958.621,-546.579"/>
<ellipse fill="none" stroke="#7597b0" cx="958.621" cy="-569.937" rx="4" ry="4"/>
<polygon fill="#7597b0" stroke="#7597b0" points="958.621,-546.441 963.121,-536.441 958.621,-541.441 958.621,-536.441 958.621,-536.441 958.621,-536.441 958.621,-541.441 954.121,-536.441 958.621,-546.441 958.621,-546.441"/>
</g>
<!-- Team&#45;&gt;Contact -->
<g id="edge73" class="edge"><title>Team&#45;&gt;Contact</title>
<path fill="none" stroke="#a9df7f" d="M987.06,-573.038C1003.14,-562.882 1023.31,-550.142 1040.03,-539.584"/>
<ellipse fill="none" stroke="#a9df7f" cx="983.445" cy="-575.321" rx="4.00002" ry="4.00002"/>
<polygon fill="#a9df7f" stroke="#a9df7f" points="1040.46,-539.313 1051.32,-537.778 1044.69,-536.643 1048.91,-533.973 1048.91,-533.973 1048.91,-533.973 1044.69,-536.643 1046.51,-530.168 1040.46,-539.313 1040.46,-539.313"/>
</g>
<!-- Team&#45;&gt;TeamUser -->
<g id="edge72" class="edge"><title>Team&#45;&gt;TeamUser</title>
<path fill="none" stroke="#0dc608" d="M916.629,-585.53C859.598,-578.142 754.454,-564.674 664.621,-554 593.122,-545.505 574.437,-549.012 503.621,-536 498.853,-535.124 493.921,-534.093 488.999,-532.979"/>
<ellipse fill="none" stroke="#0dc608" cx="920.72" cy="-586.06" rx="4.00001" ry="4.00001"/>
<polygon fill="#0dc608" stroke="#0dc608" points="488.697,-532.907 480.006,-526.22 483.832,-531.753 478.967,-530.599 478.967,-530.599 478.967,-530.599 483.832,-531.753 477.929,-534.977 488.697,-532.907 488.697,-532.907"/>
</g>
<!-- Team&#45;&gt;Source -->
<g id="edge74" class="edge"><title>Team&#45;&gt;Source</title>
<path fill="none" stroke="#fc6473" d="M995.642,-579.149C1030.29,-568.044 1083.48,-550.961 1129.62,-536 1132.88,-534.943 1136.26,-533.845 1139.65,-532.741"/>
<ellipse fill="none" stroke="#fc6473" cx="991.49" cy="-580.479" rx="4.00001" ry="4.00001"/>
<polygon fill="#fc6473" stroke="#fc6473" points="1139.67,-532.735 1150.57,-533.912 1144.42,-531.184 1149.17,-529.634 1149.17,-529.634 1149.17,-529.634 1144.42,-531.184 1147.78,-525.356 1139.67,-532.735 1139.67,-532.735"/>
</g>
<!-- Team&#45;&gt;TeamBot -->
<g id="edge76" class="edge"><title>Team&#45;&gt;TeamBot</title>
<path fill="none" stroke="#35d43c" d="M914.803,-592.453C849.7,-592.684 732.226,-597.46 705.621,-628 699.988,-634.466 699.037,-643.323 700.037,-651.842"/>
<ellipse fill="none" stroke="#35d43c" cx="918.857" cy="-592.45" rx="4" ry="4"/>
<polygon fill="#35d43c" stroke="#35d43c" points="700.083,-652.076 697.625,-662.763 701.061,-656.979 702.038,-661.883 702.038,-661.883 702.038,-661.883 701.061,-656.979 706.451,-661.003 700.083,-652.076 700.083,-652.076"/>
<text text-anchor="middle" x="774.121" y="-632.3" font-family="Times,serif" font-size="14.00">team_bots_created</text>
</g>
<!-- Team&#45;&gt;TeamBotInstallation -->
<g id="edge75" class="edge"><title>Team&#45;&gt;TeamBotInstallation</title>
<path fill="none" stroke="#2d04db" d="M916.631,-586.015C872.304,-580.351 800.551,-570.04 739.621,-556 717.371,-550.873 693.241,-543.87 672.361,-537.335"/>
<ellipse fill="none" stroke="#2d04db" cx="920.611" cy="-586.517" rx="4.00001" ry="4.00001"/>
<polygon fill="#2d04db" stroke="#2d04db" points="672.238,-537.296 664.065,-529.985 667.471,-535.785 662.705,-534.275 662.705,-534.275 662.705,-534.275 667.471,-535.785 661.345,-538.564 672.238,-537.296 672.238,-537.296"/>
</g>
<!-- Team&#45;&gt;Project -->
<g id="edge70" class="edge"><title>Team&#45;&gt;Project</title>
<path fill="none" stroke="#743731" d="M1002.16,-591.164C1064.41,-589.704 1180.89,-580.571 1267.62,-536 1317.44,-510.401 1336.09,-506.864 1369.62,-462 1410.26,-407.613 1393.01,-380.026 1420.62,-318 1421.97,-314.968 1423.48,-311.843 1425.05,-308.766"/>
<ellipse fill="none" stroke="#743731" cx="998.111" cy="-591.241" rx="4" ry="4"/>
<polygon fill="#743731" stroke="#743731" points="1425.11,-308.653 1433.77,-301.93 1427.45,-304.236 1429.8,-299.82 1429.8,-299.82 1429.8,-299.82 1427.45,-304.236 1425.82,-297.71 1425.11,-308.653 1425.11,-308.653"/>
</g>
<!-- Team&#45;&gt;Account -->
<g id="edge71" class="edge"><title>Team&#45;&gt;Account</title>
<path fill="none" stroke="#7a0120" d="M1002.08,-590.77C1058.81,-588.657 1159.48,-578.561 1232.62,-536 1259.99,-520.072 1282.62,-491.163 1296.54,-470.194"/>
<ellipse fill="none" stroke="#7a0120" cx="998.032" cy="-590.899" rx="4" ry="4"/>
<polygon fill="#7a0120" stroke="#7a0120" points="1296.55,-470.168 1305.74,-464.186 1299.26,-465.961 1301.96,-461.754 1301.96,-461.754 1301.96,-461.754 1299.26,-465.961 1298.17,-459.322 1296.55,-470.168 1296.55,-470.168"/>
</g>
<!-- Team&#45;&gt;PaperTrail::Version -->
<g id="edge69" class="edge"><title>Team&#45;&gt;PaperTrail::Version</title>
<path fill="none" stroke="#c897aa" d="M917.129,-584.618C877.328,-577.219 816.523,-562.501 769.621,-536 749.083,-524.396 750.533,-512.647 730.621,-500 438.513,-314.462 -118.344,-492.038 22.6207,-176 57.9075,-96.8884 91.8991,-79.7087 174.621,-54 244.378,-32.3204 709.783,-23.3306 924.925,-20.3004"/>
<ellipse fill="none" stroke="#c897aa" cx="921.109" cy="-585.335" rx="4.00001" ry="4.00001"/>
<polygon fill="#c897aa" stroke="#c897aa" points="924.979,-20.2998 935.04,-24.6602 929.978,-20.2302 934.978,-20.1606 934.978,-20.1606 934.978,-20.1606 929.978,-20.2302 934.915,-15.6611 924.979,-20.2998 924.979,-20.2998"/>
<text text-anchor="middle" x="63.1207" y="-322.3" font-family="Times,serif" font-size="14.00">versions</text>
</g>
<!-- Link -->
<g id="node30" class="node"><title>Link</title>
<ellipse fill="none" stroke="black" cx="2025.62" cy="-370" rx="31.2735" ry="18"/>
<text text-anchor="middle" x="2025.62" y="-366.3" font-family="Times,serif" font-size="14.00">Link</text>
</g>
<!-- Link&#45;&gt;ProjectMedia -->
<g id="edge80" class="edge"><title>Link&#45;&gt;ProjectMedia</title>
<path fill="none" stroke="#03c03f" d="M2021.81,-343.655C2015.6,-311.76 2000.08,-257.797 1963.62,-230 1940.73,-212.545 1871.83,-203.667 1815.54,-199.232"/>
<ellipse fill="none" stroke="#03c03f" cx="2022.55" cy="-347.708" rx="4.00001" ry="4.00001"/>
<polygon fill="#03c03f" stroke="#03c03f" points="1815.52,-199.23 1805.88,-193.993 1810.53,-198.855 1805.55,-198.48 1805.55,-198.48 1805.55,-198.48 1810.53,-198.855 1805.21,-202.967 1815.52,-199.23 1815.52,-199.23"/>
</g>
<!-- Link&#45;&gt;Project -->
<g id="edge81" class="edge"><title>Link&#45;&gt;Project</title>
<path fill="none" stroke="#1629b9" d="M1986.78,-360.143C1973.74,-357.331 1959.09,-354.346 1945.62,-352 1780.78,-323.286 1583.98,-299.409 1491.93,-288.842"/>
<polygon fill="#1629b9" stroke="#1629b9" points="1987.07,-360.207 1995.88,-366.742 1991.95,-361.277 1996.84,-362.346 1996.84,-362.346 1996.84,-362.346 1991.95,-361.277 1997.8,-357.95 1987.07,-360.207 1987.07,-360.207"/>
<polygon fill="#1629b9" stroke="#1629b9" points="1491.7,-288.815 1482.28,-283.209 1486.73,-288.248 1481.77,-287.68 1481.77,-287.68 1481.77,-287.68 1486.73,-288.248 1481.25,-292.151 1491.7,-288.815 1491.7,-288.815"/>
</g>
<!-- Link&#45;&gt;PaperTrail::Version -->
<g id="edge79" class="edge"><title>Link&#45;&gt;PaperTrail::Version</title>
<path fill="none" stroke="#3e2036" d="M2049.22,-349.38C2065.65,-333.415 2084.62,-309.285 2084.62,-283 2084.62,-283 2084.62,-283 2084.62,-105 2084.62,-11.5429 1973.12,-67.3317 1880.62,-54 1741.36,-33.9289 1337.63,-24.315 1142.17,-20.7342"/>
<ellipse fill="none" stroke="#3e2036" cx="2046.25" cy="-352.153" rx="4.00002" ry="4.00002"/>
<polygon fill="#3e2036" stroke="#3e2036" points="1141.88,-20.729 1131.97,-16.0485 1136.89,-20.6384 1131.89,-20.5477 1131.89,-20.5477 1131.89,-20.5477 1136.89,-20.6384 1131.8,-25.047 1141.88,-20.729 1141.88,-20.729"/>
<text text-anchor="middle" x="2115.12" y="-190.3" font-family="Times,serif" font-size="14.00">versions</text>
</g>
<!-- Account&#45;&gt;Media -->
<g id="edge83" class="edge"><title>Account&#45;&gt;Media</title>
<path fill="none" stroke="#0899cd" d="M1361.59,-433.136C1403.63,-425.072 1465.39,-413.773 1519.62,-406 1592.64,-395.534 1612.6,-403.969 1684.62,-388 1688.08,-387.232 1691.64,-386.309 1695.18,-385.294"/>
<ellipse fill="none" stroke="#0899cd" cx="1357.64" cy="-433.896" rx="4.00001" ry="4.00001"/>
<polygon fill="#0899cd" stroke="#0899cd" points="1695.49,-385.198 1706.38,-386.545 1700.27,-383.722 1705.05,-382.245 1705.05,-382.245 1705.05,-382.245 1700.27,-383.722 1703.72,-377.946 1695.49,-385.198 1695.49,-385.198"/>
</g>
<!-- Account&#45;&gt;AccountSource -->
<g id="edge84" class="edge"><title>Account&#45;&gt;AccountSource</title>
<path fill="none" stroke="#b5570b" d="M1271,-427.276C1242.36,-416.19 1203.88,-401.295 1173.71,-389.615"/>
<ellipse fill="none" stroke="#b5570b" cx="1275.07" cy="-428.85" rx="4.00001" ry="4.00001"/>
<polygon fill="#b5570b" stroke="#b5570b" points="1173.55,-389.554 1165.85,-381.747 1168.89,-387.749 1164.23,-385.944 1164.23,-385.944 1164.23,-385.944 1168.89,-387.749 1162.6,-390.141 1173.55,-389.554 1173.55,-389.554"/>
</g>
<!-- Account&#45;&gt;PaperTrail::Version -->
<g id="edge82" class="edge"><title>Account&#45;&gt;PaperTrail::Version</title>
<path fill="none" stroke="#07fa47" d="M1301.27,-418.506C1297.68,-409.118 1293.98,-398.209 1291.62,-388 1277.34,-326.166 1281.56,-309.27 1276.62,-246 1271.15,-175.901 1309.5,-145.208 1268.62,-88 1250.53,-62.684 1176.32,-43.7625 1116.07,-32.1983"/>
<ellipse fill="none" stroke="#07fa47" cx="1302.75" cy="-422.265" rx="4.00001" ry="4.00001"/>
<polygon fill="#07fa47" stroke="#07fa47" points="1115.97,-32.181 1106.98,-25.9128 1111.06,-31.2583 1106.15,-30.3355 1106.15,-30.3355 1106.15,-30.3355 1111.06,-31.2583 1105.32,-34.7582 1115.97,-32.181 1115.97,-32.181"/>
<text text-anchor="middle" x="1307.12" y="-234.3" font-family="Times,serif" font-size="14.00">versions</text>
</g>
</g>
</svg>
