<?xml version="1.0" encoding="UTF-8" standalone="no"?>
<!DOCTYPE svg PUBLIC "-//W3C//DTD SVG 1.1//EN"
 "http://www.w3.org/Graphics/SVG/1.1/DTD/svg11.dtd">
<!-- Generated by graphviz version 2.26.3 (20100126.1600)
 -->
<!-- Title: models_diagram Pages: 1 -->
<svg width="1697pt" height="1578pt"
 viewBox="0.00 0.00 1697.00 1578.00" xmlns="http://www.w3.org/2000/svg" xmlns:xlink="http://www.w3.org/1999/xlink">
<g id="graph1" class="graph" transform="scale(1 1) rotate(0) translate(4 1574)">
<title>models_diagram</title>
<polygon fill="none" stroke="none" points="-4,5 -4,-1574 1694,-1574 1694,5 -4,5"/>
<!-- Tag -->
<g id="node1" class="node"><title>Tag</title>
<polyline fill="none" stroke="black" points="12,-1337 170,-1337 "/>
<path fill="none" stroke="black" d="M170,-1337C176,-1337 182,-1343 182,-1349"/>
<polyline fill="none" stroke="black" points="182,-1349 182,-1557 "/>
<path fill="none" stroke="black" d="M182,-1557C182,-1563 176,-1569 170,-1569"/>
<polyline fill="none" stroke="black" points="170,-1569 12,-1569 "/>
<path fill="none" stroke="black" d="M12,-1569C6,-1569 0,-1563 0,-1557"/>
<polyline fill="none" stroke="black" points="0,-1557 0,-1349 "/>
<path fill="none" stroke="black" d="M0,-1349C0,-1343 6,-1337 12,-1337"/>
<text text-anchor="middle" x="91" y="-1552.4" font-family="Times Roman,serif" font-size="14.00">Tag</text>
<polyline fill="none" stroke="black" points="0,-1543 182,-1543 "/>
<text text-anchor="start" x="8" y="-1526.4" font-family="Times Roman,serif" font-size="14.00">created_at :Time</text>
<text text-anchor="start" x="8" y="-1508.4" font-family="Times Roman,serif" font-size="14.00">updated_at :Time</text>
<text text-anchor="start" x="8" y="-1490.4" font-family="Times Roman,serif" font-size="14.00">annotation_type :String</text>
<text text-anchor="start" x="8" y="-1472.4" font-family="Times Roman,serif" font-size="14.00">version_index :Integer</text>
<text text-anchor="start" x="8" y="-1454.4" font-family="Times Roman,serif" font-size="14.00">annotated_type :String</text>
<text text-anchor="start" x="8" y="-1436.4" font-family="Times Roman,serif" font-size="14.00">annotated_id :String</text>
<text text-anchor="start" x="8" y="-1418.4" font-family="Times Roman,serif" font-size="14.00">context_type :String</text>
<text text-anchor="start" x="8" y="-1400.4" font-family="Times Roman,serif" font-size="14.00">context_id :String</text>
<text text-anchor="start" x="8" y="-1382.4" font-family="Times Roman,serif" font-size="14.00">annotator_type :String</text>
<text text-anchor="start" x="8" y="-1364.4" font-family="Times Roman,serif" font-size="14.00">annotator_id :String</text>
<text text-anchor="start" x="8" y="-1346.4" font-family="Times Roman,serif" font-size="14.00">tag :String</text>
</g>
<!-- Status -->
<g id="node2" class="node"><title>Status</title>
<polyline fill="none" stroke="black" points="212,-1337 370,-1337 "/>
<path fill="none" stroke="black" d="M370,-1337C376,-1337 382,-1343 382,-1349"/>
<polyline fill="none" stroke="black" points="382,-1349 382,-1557 "/>
<path fill="none" stroke="black" d="M382,-1557C382,-1563 376,-1569 370,-1569"/>
<polyline fill="none" stroke="black" points="370,-1569 212,-1569 "/>
<path fill="none" stroke="black" d="M212,-1569C206,-1569 200,-1563 200,-1557"/>
<polyline fill="none" stroke="black" points="200,-1557 200,-1349 "/>
<path fill="none" stroke="black" d="M200,-1349C200,-1343 206,-1337 212,-1337"/>
<text text-anchor="middle" x="291" y="-1552.4" font-family="Times Roman,serif" font-size="14.00">Status</text>
<polyline fill="none" stroke="black" points="200,-1543 382,-1543 "/>
<text text-anchor="start" x="208" y="-1526.4" font-family="Times Roman,serif" font-size="14.00">created_at :Time</text>
<text text-anchor="start" x="208" y="-1508.4" font-family="Times Roman,serif" font-size="14.00">updated_at :Time</text>
<text text-anchor="start" x="208" y="-1490.4" font-family="Times Roman,serif" font-size="14.00">annotation_type :String</text>
<text text-anchor="start" x="208" y="-1472.4" font-family="Times Roman,serif" font-size="14.00">version_index :Integer</text>
<text text-anchor="start" x="208" y="-1454.4" font-family="Times Roman,serif" font-size="14.00">annotated_type :String</text>
<text text-anchor="start" x="208" y="-1436.4" font-family="Times Roman,serif" font-size="14.00">annotated_id :String</text>
<text text-anchor="start" x="208" y="-1418.4" font-family="Times Roman,serif" font-size="14.00">context_type :String</text>
<text text-anchor="start" x="208" y="-1400.4" font-family="Times Roman,serif" font-size="14.00">context_id :String</text>
<text text-anchor="start" x="208" y="-1382.4" font-family="Times Roman,serif" font-size="14.00">annotator_type :String</text>
<text text-anchor="start" x="208" y="-1364.4" font-family="Times Roman,serif" font-size="14.00">annotator_id :String</text>
<text text-anchor="start" x="208" y="-1346.4" font-family="Times Roman,serif" font-size="14.00">status :String</text>
</g>
<!-- Flag -->
<g id="node3" class="node"><title>Flag</title>
<polyline fill="none" stroke="black" points="412,-1337 570,-1337 "/>
<path fill="none" stroke="black" d="M570,-1337C576,-1337 582,-1343 582,-1349"/>
<polyline fill="none" stroke="black" points="582,-1349 582,-1557 "/>
<path fill="none" stroke="black" d="M582,-1557C582,-1563 576,-1569 570,-1569"/>
<polyline fill="none" stroke="black" points="570,-1569 412,-1569 "/>
<path fill="none" stroke="black" d="M412,-1569C406,-1569 400,-1563 400,-1557"/>
<polyline fill="none" stroke="black" points="400,-1557 400,-1349 "/>
<path fill="none" stroke="black" d="M400,-1349C400,-1343 406,-1337 412,-1337"/>
<text text-anchor="middle" x="491" y="-1552.4" font-family="Times Roman,serif" font-size="14.00">Flag</text>
<polyline fill="none" stroke="black" points="400,-1543 582,-1543 "/>
<text text-anchor="start" x="408" y="-1526.4" font-family="Times Roman,serif" font-size="14.00">created_at :Time</text>
<text text-anchor="start" x="408" y="-1508.4" font-family="Times Roman,serif" font-size="14.00">updated_at :Time</text>
<text text-anchor="start" x="408" y="-1490.4" font-family="Times Roman,serif" font-size="14.00">annotation_type :String</text>
<text text-anchor="start" x="408" y="-1472.4" font-family="Times Roman,serif" font-size="14.00">version_index :Integer</text>
<text text-anchor="start" x="408" y="-1454.4" font-family="Times Roman,serif" font-size="14.00">annotated_type :String</text>
<text text-anchor="start" x="408" y="-1436.4" font-family="Times Roman,serif" font-size="14.00">annotated_id :String</text>
<text text-anchor="start" x="408" y="-1418.4" font-family="Times Roman,serif" font-size="14.00">context_type :String</text>
<text text-anchor="start" x="408" y="-1400.4" font-family="Times Roman,serif" font-size="14.00">context_id :String</text>
<text text-anchor="start" x="408" y="-1382.4" font-family="Times Roman,serif" font-size="14.00">annotator_type :String</text>
<text text-anchor="start" x="408" y="-1364.4" font-family="Times Roman,serif" font-size="14.00">annotator_id :String</text>
<text text-anchor="start" x="408" y="-1346.4" font-family="Times Roman,serif" font-size="14.00">flag :String</text>
</g>
<!-- Comment -->
<g id="node4" class="node"><title>Comment</title>
<polyline fill="none" stroke="black" points="612,-1337 770,-1337 "/>
<path fill="none" stroke="black" d="M770,-1337C776,-1337 782,-1343 782,-1349"/>
<polyline fill="none" stroke="black" points="782,-1349 782,-1557 "/>
<path fill="none" stroke="black" d="M782,-1557C782,-1563 776,-1569 770,-1569"/>
<polyline fill="none" stroke="black" points="770,-1569 612,-1569 "/>
<path fill="none" stroke="black" d="M612,-1569C606,-1569 600,-1563 600,-1557"/>
<polyline fill="none" stroke="black" points="600,-1557 600,-1349 "/>
<path fill="none" stroke="black" d="M600,-1349C600,-1343 606,-1337 612,-1337"/>
<text text-anchor="middle" x="691" y="-1552.4" font-family="Times Roman,serif" font-size="14.00">Comment</text>
<polyline fill="none" stroke="black" points="600,-1543 782,-1543 "/>
<text text-anchor="start" x="608" y="-1526.4" font-family="Times Roman,serif" font-size="14.00">created_at :Time</text>
<text text-anchor="start" x="608" y="-1508.4" font-family="Times Roman,serif" font-size="14.00">updated_at :Time</text>
<text text-anchor="start" x="608" y="-1490.4" font-family="Times Roman,serif" font-size="14.00">annotation_type :String</text>
<text text-anchor="start" x="608" y="-1472.4" font-family="Times Roman,serif" font-size="14.00">version_index :Integer</text>
<text text-anchor="start" x="608" y="-1454.4" font-family="Times Roman,serif" font-size="14.00">annotated_type :String</text>
<text text-anchor="start" x="608" y="-1436.4" font-family="Times Roman,serif" font-size="14.00">annotated_id :String</text>
<text text-anchor="start" x="608" y="-1418.4" font-family="Times Roman,serif" font-size="14.00">context_type :String</text>
<text text-anchor="start" x="608" y="-1400.4" font-family="Times Roman,serif" font-size="14.00">context_id :String</text>
<text text-anchor="start" x="608" y="-1382.4" font-family="Times Roman,serif" font-size="14.00">annotator_type :String</text>
<text text-anchor="start" x="608" y="-1364.4" font-family="Times Roman,serif" font-size="14.00">annotator_id :String</text>
<text text-anchor="start" x="608" y="-1346.4" font-family="Times Roman,serif" font-size="14.00">text :String</text>
</g>
<!-- Annotation -->
<g id="node5" class="node"><title>Annotation</title>
<polyline fill="none" stroke="black" points="812,-1346 970,-1346 "/>
<path fill="none" stroke="black" d="M970,-1346C976,-1346 982,-1352 982,-1358"/>
<polyline fill="none" stroke="black" points="982,-1358 982,-1548 "/>
<path fill="none" stroke="black" d="M982,-1548C982,-1554 976,-1560 970,-1560"/>
<polyline fill="none" stroke="black" points="970,-1560 812,-1560 "/>
<path fill="none" stroke="black" d="M812,-1560C806,-1560 800,-1554 800,-1548"/>
<polyline fill="none" stroke="black" points="800,-1548 800,-1358 "/>
<path fill="none" stroke="black" d="M800,-1358C800,-1352 806,-1346 812,-1346"/>
<text text-anchor="middle" x="891" y="-1543.4" font-family="Times Roman,serif" font-size="14.00">Annotation</text>
<polyline fill="none" stroke="black" points="800,-1534 982,-1534 "/>
<text text-anchor="start" x="808" y="-1517.4" font-family="Times Roman,serif" font-size="14.00">created_at :Time</text>
<text text-anchor="start" x="808" y="-1499.4" font-family="Times Roman,serif" font-size="14.00">updated_at :Time</text>
<text text-anchor="start" x="808" y="-1481.4" font-family="Times Roman,serif" font-size="14.00">annotation_type :String</text>
<text text-anchor="start" x="808" y="-1463.4" font-family="Times Roman,serif" font-size="14.00">version_index :Integer</text>
<text text-anchor="start" x="808" y="-1445.4" font-family="Times Roman,serif" font-size="14.00">annotated_type :String</text>
<text text-anchor="start" x="808" y="-1427.4" font-family="Times Roman,serif" font-size="14.00">annotated_id :String</text>
<text text-anchor="start" x="808" y="-1409.4" font-family="Times Roman,serif" font-size="14.00">context_type :String</text>
<text text-anchor="start" x="808" y="-1391.4" font-family="Times Roman,serif" font-size="14.00">context_id :String</text>
<text text-anchor="start" x="808" y="-1373.4" font-family="Times Roman,serif" font-size="14.00">annotator_type :String</text>
<text text-anchor="start" x="808" y="-1355.4" font-family="Times Roman,serif" font-size="14.00">annotator_id :String</text>
</g>
<!-- Source -->
<g id="node6" class="node"><title>Source</title>
<polyline fill="none" stroke="black" points="897.5,-685 1182.5,-685 "/>
<path fill="none" stroke="black" d="M1182.5,-685C1188.5,-685 1194.5,-691 1194.5,-697"/>
<polyline fill="none" stroke="black" points="1194.5,-697 1194.5,-833 "/>
<path fill="none" stroke="black" d="M1194.5,-833C1194.5,-839 1188.5,-845 1182.5,-845"/>
<polyline fill="none" stroke="black" points="1182.5,-845 897.5,-845 "/>
<path fill="none" stroke="black" d="M897.5,-845C891.5,-845 885.5,-839 885.5,-833"/>
<polyline fill="none" stroke="black" points="885.5,-833 885.5,-697 "/>
<path fill="none" stroke="black" d="M885.5,-697C885.5,-691 891.5,-685 897.5,-685"/>
<text text-anchor="middle" x="1040" y="-828.4" font-family="Times Roman,serif" font-size="14.00">Source</text>
<polyline fill="none" stroke="black" points="885.5,-819 1194.5,-819 "/>
<text text-anchor="start" x="893.5" y="-802.4" font-family="Times Roman,serif" font-size="14.00">id :integer</text>
<text text-anchor="start" x="893.5" y="-784.4" font-family="Times Roman,serif" font-size="14.00">user_id :integer</text>
<text text-anchor="start" x="893.5" y="-766.4" font-family="Times Roman,serif" font-size="14.00">name :character varying</text>
<text text-anchor="start" x="893.5" y="-748.4" font-family="Times Roman,serif" font-size="14.00">slogan :character varying</text>
<text text-anchor="start" x="893.5" y="-730.4" font-family="Times Roman,serif" font-size="14.00">avatar :character varying</text>
<text text-anchor="start" x="893.5" y="-712.4" font-family="Times Roman,serif" font-size="14.00">created_at :timestamp without time zone</text>
<text text-anchor="start" x="893.5" y="-694.4" font-family="Times Roman,serif" font-size="14.00">updated_at :timestamp without time zone</text>
</g>
<!-- ProjectSource -->
<g id="node8" class="node"><title>ProjectSource</title>
<polyline fill="none" stroke="black" points="1143.5,-217 1428.5,-217 "/>
<path fill="none" stroke="black" d="M1428.5,-217C1434.5,-217 1440.5,-223 1440.5,-229"/>
<polyline fill="none" stroke="black" points="1440.5,-229 1440.5,-329 "/>
<path fill="none" stroke="black" d="M1440.5,-329C1440.5,-335 1434.5,-341 1428.5,-341"/>
<polyline fill="none" stroke="black" points="1428.5,-341 1143.5,-341 "/>
<path fill="none" stroke="black" d="M1143.5,-341C1137.5,-341 1131.5,-335 1131.5,-329"/>
<polyline fill="none" stroke="black" points="1131.5,-329 1131.5,-229 "/>
<path fill="none" stroke="black" d="M1131.5,-229C1131.5,-223 1137.5,-217 1143.5,-217"/>
<text text-anchor="middle" x="1286" y="-324.4" font-family="Times Roman,serif" font-size="14.00">ProjectSource</text>
<polyline fill="none" stroke="black" points="1131.5,-315 1440.5,-315 "/>
<text text-anchor="start" x="1139.5" y="-298.4" font-family="Times Roman,serif" font-size="14.00">id :integer</text>
<text text-anchor="start" x="1139.5" y="-280.4" font-family="Times Roman,serif" font-size="14.00">project_id :integer</text>
<text text-anchor="start" x="1139.5" y="-262.4" font-family="Times Roman,serif" font-size="14.00">source_id :integer</text>
<text text-anchor="start" x="1139.5" y="-244.4" font-family="Times Roman,serif" font-size="14.00">created_at :timestamp without time zone</text>
<text text-anchor="start" x="1139.5" y="-226.4" font-family="Times Roman,serif" font-size="14.00">updated_at :timestamp without time zone</text>
</g>
<!-- Source&#45;&gt;ProjectSource -->
<g id="edge6" class="edge"><title>Source&#45;&gt;ProjectSource</title>
<path fill="none" stroke="#f2f061" d="M1177.05,-679.448C1193.1,-664.637 1207.74,-648.102 1219,-630 1272.14,-544.604 1284.84,-426.596 1287.02,-351.531"/>
<ellipse fill="none" stroke="#f2f061" cx="1174.04" cy="-682.151" rx="4.00002" ry="4.00002"/>
<polygon fill="#f2f061" stroke="#f2f061" points="1287.02,-351.23 1291.75,-341.337 1287.14,-346.231 1287.25,-341.232 1287.25,-341.232 1287.25,-341.232 1287.14,-346.231 1282.76,-341.128 1287.02,-351.23 1287.02,-351.23"/>
</g>
<!-- Account -->
<g id="node9" class="node"><title>Account</title>
<polyline fill="none" stroke="black" points="913.5,-442 1198.5,-442 "/>
<path fill="none" stroke="black" d="M1198.5,-442C1204.5,-442 1210.5,-448 1210.5,-454"/>
<polyline fill="none" stroke="black" points="1210.5,-454 1210.5,-608 "/>
<path fill="none" stroke="black" d="M1210.5,-608C1210.5,-614 1204.5,-620 1198.5,-620"/>
<polyline fill="none" stroke="black" points="1198.5,-620 913.5,-620 "/>
<path fill="none" stroke="black" d="M913.5,-620C907.5,-620 901.5,-614 901.5,-608"/>
<polyline fill="none" stroke="black" points="901.5,-608 901.5,-454 "/>
<path fill="none" stroke="black" d="M901.5,-454C901.5,-448 907.5,-442 913.5,-442"/>
<text text-anchor="middle" x="1056" y="-603.4" font-family="Times Roman,serif" font-size="14.00">Account</text>
<polyline fill="none" stroke="black" points="901.5,-594 1210.5,-594 "/>
<text text-anchor="start" x="909.5" y="-577.4" font-family="Times Roman,serif" font-size="14.00">id :integer</text>
<text text-anchor="start" x="909.5" y="-559.4" font-family="Times Roman,serif" font-size="14.00">user_id :integer</text>
<text text-anchor="start" x="909.5" y="-541.4" font-family="Times Roman,serif" font-size="14.00">source_id :integer</text>
<text text-anchor="start" x="909.5" y="-523.4" font-family="Times Roman,serif" font-size="14.00">url :character varying</text>
<text text-anchor="start" x="909.5" y="-505.4" font-family="Times Roman,serif" font-size="14.00">data :json</text>
<text text-anchor="start" x="909.5" y="-487.4" font-family="Times Roman,serif" font-size="14.00">created_at :timestamp without time zone</text>
<text text-anchor="start" x="909.5" y="-469.4" font-family="Times Roman,serif" font-size="14.00">updated_at :timestamp without time zone</text>
<text text-anchor="start" x="909.5" y="-451.4" font-family="Times Roman,serif" font-size="14.00">team_id :integer</text>
</g>
<!-- Source&#45;&gt;Account -->
<g id="edge4" class="edge"><title>Source&#45;&gt;Account</title>
<path fill="none" stroke="#5f7187" d="M1046.06,-676.438C1047.09,-661.374 1048.16,-645.641 1049.21,-630.321"/>
<ellipse fill="none" stroke="#5f7187" cx="1045.76" cy="-680.807" rx="4" ry="4"/>
<polygon fill="#5f7187" stroke="#5f7187" points="1049.21,-630.302 1054.38,-620.632 1049.55,-625.314 1049.89,-620.325 1049.89,-620.325 1049.89,-620.325 1049.55,-625.314 1045.4,-620.018 1049.21,-630.302 1049.21,-630.302"/>
</g>
<!-- Project -->
<g id="node10" class="node"><title>Project</title>
<polyline fill="none" stroke="black" points="587.5,-433 872.5,-433 "/>
<path fill="none" stroke="black" d="M872.5,-433C878.5,-433 884.5,-439 884.5,-445"/>
<polyline fill="none" stroke="black" points="884.5,-445 884.5,-617 "/>
<path fill="none" stroke="black" d="M884.5,-617C884.5,-623 878.5,-629 872.5,-629"/>
<polyline fill="none" stroke="black" points="872.5,-629 587.5,-629 "/>
<path fill="none" stroke="black" d="M587.5,-629C581.5,-629 575.5,-623 575.5,-617"/>
<polyline fill="none" stroke="black" points="575.5,-617 575.5,-445 "/>
<path fill="none" stroke="black" d="M575.5,-445C575.5,-439 581.5,-433 587.5,-433"/>
<text text-anchor="middle" x="730" y="-612.4" font-family="Times Roman,serif" font-size="14.00">Project</text>
<polyline fill="none" stroke="black" points="575.5,-603 884.5,-603 "/>
<text text-anchor="start" x="583.5" y="-586.4" font-family="Times Roman,serif" font-size="14.00">id :integer</text>
<text text-anchor="start" x="583.5" y="-568.4" font-family="Times Roman,serif" font-size="14.00">user_id :integer</text>
<text text-anchor="start" x="583.5" y="-550.4" font-family="Times Roman,serif" font-size="14.00">team_id :integer</text>
<text text-anchor="start" x="583.5" y="-532.4" font-family="Times Roman,serif" font-size="14.00">title :character varying</text>
<text text-anchor="start" x="583.5" y="-514.4" font-family="Times Roman,serif" font-size="14.00">description :text</text>
<text text-anchor="start" x="583.5" y="-496.4" font-family="Times Roman,serif" font-size="14.00">lead_image :character varying</text>
<text text-anchor="start" x="583.5" y="-478.4" font-family="Times Roman,serif" font-size="14.00">created_at :timestamp without time zone</text>
<text text-anchor="start" x="583.5" y="-460.4" font-family="Times Roman,serif" font-size="14.00">updated_at :timestamp without time zone</text>
<text text-anchor="start" x="583.5" y="-442.4" font-family="Times Roman,serif" font-size="14.00">archived :boolean</text>
</g>
<!-- Source&#45;&gt;Project -->
<g id="edge8" class="edge"><title>Source&#45;&gt;Project</title>
<path fill="none" stroke="#cb9feb" d="M925.617,-678.659C906.917,-664.544 887.368,-649.788 868.169,-635.295"/>
<polygon fill="#cb9feb" stroke="#cb9feb" points="925.768,-678.773 931.038,-688.39 929.759,-681.785 933.749,-684.798 933.749,-684.798 933.749,-684.798 929.759,-681.785 936.46,-681.206 925.768,-678.773 925.768,-678.773"/>
<polygon fill="#cb9feb" stroke="#cb9feb" points="867.946,-635.127 862.676,-625.511 863.956,-632.115 859.965,-629.103 859.965,-629.103 859.965,-629.103 863.956,-632.115 857.254,-632.694 867.946,-635.127 867.946,-635.127"/>
</g>
<!-- PaperTrail::Version -->
<g id="node18" class="node"><title>PaperTrail::Version</title>
<ellipse fill="none" stroke="black" cx="1056" cy="-63" rx="101.823" ry="18.3848"/>
<text text-anchor="middle" x="1056" y="-59.4" font-family="Times Roman,serif" font-size="14.00">PaperTrail::Version</text>
</g>
<!-- Source&#45;&gt;PaperTrail::Version -->
<g id="edge2" class="edge"><title>Source&#45;&gt;PaperTrail::Version</title>
<path fill="none" stroke="#73258d" d="M1200.71,-680.246C1222.88,-665.07 1244.39,-648.22 1263,-630 1417.64,-478.603 1578.36,-353.489 1449,-180 1412.46,-131.003 1248.13,-95.0966 1143.88,-76.7638"/>
<ellipse fill="none" stroke="#73258d" cx="1197.13" cy="-682.664" rx="4.00002" ry="4.00002"/>
<polygon fill="#73258d" stroke="#73258d" points="1143.83,-76.7565 1134.75,-70.6111 1138.91,-75.9006 1133.98,-75.0447 1133.98,-75.0447 1133.98,-75.0447 1138.91,-75.9006 1133.21,-79.4783 1143.83,-76.7565 1143.83,-76.7565"/>
<text text-anchor="middle" x="1500" y="-401.4" font-family="Times Roman,serif" font-size="14.00">versions</text>
</g>
<!-- Team -->
<g id="node7" class="node"><title>Team</title>
<polyline fill="none" stroke="black" points="1011.5,-1355 1296.5,-1355 "/>
<path fill="none" stroke="black" d="M1296.5,-1355C1302.5,-1355 1308.5,-1361 1308.5,-1367"/>
<polyline fill="none" stroke="black" points="1308.5,-1367 1308.5,-1539 "/>
<path fill="none" stroke="black" d="M1308.5,-1539C1308.5,-1545 1302.5,-1551 1296.5,-1551"/>
<polyline fill="none" stroke="black" points="1296.5,-1551 1011.5,-1551 "/>
<path fill="none" stroke="black" d="M1011.5,-1551C1005.5,-1551 999.5,-1545 999.5,-1539"/>
<polyline fill="none" stroke="black" points="999.5,-1539 999.5,-1367 "/>
<path fill="none" stroke="black" d="M999.5,-1367C999.5,-1361 1005.5,-1355 1011.5,-1355"/>
<text text-anchor="middle" x="1154" y="-1534.4" font-family="Times Roman,serif" font-size="14.00">Team</text>
<polyline fill="none" stroke="black" points="999.5,-1525 1308.5,-1525 "/>
<text text-anchor="start" x="1007.5" y="-1508.4" font-family="Times Roman,serif" font-size="14.00">id :integer</text>
<text text-anchor="start" x="1007.5" y="-1490.4" font-family="Times Roman,serif" font-size="14.00">name :character varying</text>
<text text-anchor="start" x="1007.5" y="-1472.4" font-family="Times Roman,serif" font-size="14.00">logo :character varying</text>
<text text-anchor="start" x="1007.5" y="-1454.4" font-family="Times Roman,serif" font-size="14.00">private :boolean</text>
<text text-anchor="start" x="1007.5" y="-1436.4" font-family="Times Roman,serif" font-size="14.00">archived :boolean</text>
<text text-anchor="start" x="1007.5" y="-1418.4" font-family="Times Roman,serif" font-size="14.00">created_at :timestamp without time zone</text>
<text text-anchor="start" x="1007.5" y="-1400.4" font-family="Times Roman,serif" font-size="14.00">updated_at :timestamp without time zone</text>
<text text-anchor="start" x="1007.5" y="-1382.4" font-family="Times Roman,serif" font-size="14.00">description :text</text>
<text text-anchor="start" x="1007.5" y="-1364.4" font-family="Times Roman,serif" font-size="14.00">subdomain :character varying</text>
</g>
<!-- Team&#45;&gt;Account -->
<g id="edge14" class="edge"><title>Team&#45;&gt;Account</title>
<path fill="none" stroke="#02a8fe" d="M1019.96,-1350.91C1010.39,-1345.46 1000.69,-1340.43 991,-1336 924.915,-1305.81 877.011,-1355.04 832,-1298 747.246,-1190.6 806.376,-801.172 877,-684 889.28,-663.627 905.225,-644.61 922.535,-627.387"/>
<ellipse fill="none" stroke="#02a8fe" cx="1023.44" cy="-1352.93" rx="4.00002" ry="4.00002"/>
<polygon fill="#02a8fe" stroke="#02a8fe" points="922.853,-627.079 933.164,-623.346 926.441,-623.598 930.03,-620.116 930.03,-620.116 930.03,-620.116 926.441,-623.598 926.897,-616.886 922.853,-627.079 922.853,-627.079"/>
</g>
<!-- Team&#45;&gt;Project -->
<g id="edge12" class="edge"><title>Team&#45;&gt;Project</title>
<path fill="none" stroke="#1858e5" d="M1022.71,-1350.82C1012.3,-1345.21 1001.67,-1340.18 991,-1336 904.71,-1302.23 842.884,-1371.15 786,-1298 637.18,-1106.63 671.296,-800.874 703.711,-639.267"/>
<ellipse fill="none" stroke="#1858e5" cx="1026.38" cy="-1352.85" rx="4.00002" ry="4.00002"/>
<polygon fill="#1858e5" stroke="#1858e5" points="703.744,-639.106 710.153,-630.207 704.744,-634.207 705.744,-629.308 705.744,-629.308 705.744,-629.308 704.744,-634.207 701.334,-628.408 703.744,-639.106 703.744,-639.106"/>
</g>
<!-- Contact -->
<g id="node11" class="node"><title>Contact</title>
<polyline fill="none" stroke="black" points="1306.5,-1011 1591.5,-1011 "/>
<path fill="none" stroke="black" d="M1591.5,-1011C1597.5,-1011 1603.5,-1017 1603.5,-1023"/>
<polyline fill="none" stroke="black" points="1603.5,-1023 1603.5,-1159 "/>
<path fill="none" stroke="black" d="M1603.5,-1159C1603.5,-1165 1597.5,-1171 1591.5,-1171"/>
<polyline fill="none" stroke="black" points="1591.5,-1171 1306.5,-1171 "/>
<path fill="none" stroke="black" d="M1306.5,-1171C1300.5,-1171 1294.5,-1165 1294.5,-1159"/>
<polyline fill="none" stroke="black" points="1294.5,-1159 1294.5,-1023 "/>
<path fill="none" stroke="black" d="M1294.5,-1023C1294.5,-1017 1300.5,-1011 1306.5,-1011"/>
<text text-anchor="middle" x="1449" y="-1154.4" font-family="Times Roman,serif" font-size="14.00">Contact</text>
<polyline fill="none" stroke="black" points="1294.5,-1145 1603.5,-1145 "/>
<text text-anchor="start" x="1302.5" y="-1128.4" font-family="Times Roman,serif" font-size="14.00">id :integer</text>
<text text-anchor="start" x="1302.5" y="-1110.4" font-family="Times Roman,serif" font-size="14.00">team_id :integer</text>
<text text-anchor="start" x="1302.5" y="-1092.4" font-family="Times Roman,serif" font-size="14.00">location :character varying</text>
<text text-anchor="start" x="1302.5" y="-1074.4" font-family="Times Roman,serif" font-size="14.00">phone :character varying</text>
<text text-anchor="start" x="1302.5" y="-1056.4" font-family="Times Roman,serif" font-size="14.00">web :character varying</text>
<text text-anchor="start" x="1302.5" y="-1038.4" font-family="Times Roman,serif" font-size="14.00">created_at :timestamp without time zone</text>
<text text-anchor="start" x="1302.5" y="-1020.4" font-family="Times Roman,serif" font-size="14.00">updated_at :timestamp without time zone</text>
</g>
<!-- Team&#45;&gt;Contact -->
<g id="edge20" class="edge"><title>Team&#45;&gt;Contact</title>
<path fill="none" stroke="#3e9a14" d="M1254.4,-1348.67C1263.55,-1338.45 1272.55,-1328.11 1281,-1318 1318.06,-1273.64 1356.62,-1221.99 1387.44,-1179.18"/>
<ellipse fill="none" stroke="#3e9a14" cx="1251.67" cy="-1351.71" rx="4.00002" ry="4.00002"/>
<polygon fill="#3e9a14" stroke="#3e9a14" points="1387.46,-1179.14 1396.95,-1173.64 1390.38,-1175.08 1393.29,-1171.01 1393.29,-1171.01 1393.29,-1171.01 1390.38,-1175.08 1389.64,-1168.39 1387.46,-1179.14 1387.46,-1179.14"/>
</g>
<!-- TeamUser -->
<g id="node12" class="node"><title>TeamUser</title>
<polyline fill="none" stroke="black" points="1223.5,-685 1508.5,-685 "/>
<path fill="none" stroke="black" d="M1508.5,-685C1514.5,-685 1520.5,-691 1520.5,-697"/>
<polyline fill="none" stroke="black" points="1520.5,-697 1520.5,-833 "/>
<path fill="none" stroke="black" d="M1520.5,-833C1520.5,-839 1514.5,-845 1508.5,-845"/>
<polyline fill="none" stroke="black" points="1508.5,-845 1223.5,-845 "/>
<path fill="none" stroke="black" d="M1223.5,-845C1217.5,-845 1211.5,-839 1211.5,-833"/>
<polyline fill="none" stroke="black" points="1211.5,-833 1211.5,-697 "/>
<path fill="none" stroke="black" d="M1211.5,-697C1211.5,-691 1217.5,-685 1223.5,-685"/>
<text text-anchor="middle" x="1366" y="-828.4" font-family="Times Roman,serif" font-size="14.00">TeamUser</text>
<polyline fill="none" stroke="black" points="1211.5,-819 1520.5,-819 "/>
<text text-anchor="start" x="1219.5" y="-802.4" font-family="Times Roman,serif" font-size="14.00">id :integer</text>
<text text-anchor="start" x="1219.5" y="-784.4" font-family="Times Roman,serif" font-size="14.00">team_id :integer</text>
<text text-anchor="start" x="1219.5" y="-766.4" font-family="Times Roman,serif" font-size="14.00">user_id :integer</text>
<text text-anchor="start" x="1219.5" y="-748.4" font-family="Times Roman,serif" font-size="14.00">created_at :timestamp without time zone</text>
<text text-anchor="start" x="1219.5" y="-730.4" font-family="Times Roman,serif" font-size="14.00">updated_at :timestamp without time zone</text>
<text text-anchor="start" x="1219.5" y="-712.4" font-family="Times Roman,serif" font-size="14.00">role :character varying</text>
<text text-anchor="start" x="1219.5" y="-694.4" font-family="Times Roman,serif" font-size="14.00">status :character varying</text>
</g>
<!-- Team&#45;&gt;TeamUser -->
<g id="edge16" class="edge"><title>Team&#45;&gt;TeamUser</title>
<path fill="none" stroke="#e34164" d="M1226.4,-1347.6C1234.9,-1331.53 1242.49,-1314.72 1248,-1298 1305.83,-1122.51 1224.08,-1058.09 1286,-884 1289.61,-873.854 1294.28,-863.739 1299.56,-853.934"/>
<ellipse fill="none" stroke="#e34164" cx="1224.34" cy="-1351.41" rx="4.00002" ry="4.00002"/>
<polygon fill="#e34164" stroke="#e34164" points="1299.66,-853.745 1308.48,-847.228 1302.11,-849.385 1304.56,-845.025 1304.56,-845.025 1304.56,-845.025 1302.11,-849.385 1300.63,-842.823 1299.66,-853.745 1299.66,-853.745"/>
</g>
<!-- User -->
<g id="node15" class="node"><title>User</title>
<polyline fill="none" stroke="black" points="853,-885 1227,-885 "/>
<path fill="none" stroke="black" d="M1227,-885C1233,-885 1239,-891 1239,-897"/>
<polyline fill="none" stroke="black" points="1239,-897 1239,-1285 "/>
<path fill="none" stroke="black" d="M1239,-1285C1239,-1291 1233,-1297 1227,-1297"/>
<polyline fill="none" stroke="black" points="1227,-1297 853,-1297 "/>
<path fill="none" stroke="black" d="M853,-1297C847,-1297 841,-1291 841,-1285"/>
<polyline fill="none" stroke="black" points="841,-1285 841,-897 "/>
<path fill="none" stroke="black" d="M841,-897C841,-891 847,-885 853,-885"/>
<text text-anchor="middle" x="1040" y="-1280.4" font-family="Times Roman,serif" font-size="14.00">User</text>
<polyline fill="none" stroke="black" points="841,-1271 1239,-1271 "/>
<text text-anchor="start" x="849" y="-1254.4" font-family="Times Roman,serif" font-size="14.00">id :integer</text>
<text text-anchor="start" x="849" y="-1236.4" font-family="Times Roman,serif" font-size="14.00">name :character varying</text>
<text text-anchor="start" x="849" y="-1218.4" font-family="Times Roman,serif" font-size="14.00">login :character varying</text>
<text text-anchor="start" x="849" y="-1200.4" font-family="Times Roman,serif" font-size="14.00">uuid :character varying</text>
<text text-anchor="start" x="849" y="-1182.4" font-family="Times Roman,serif" font-size="14.00">provider :character varying</text>
<text text-anchor="start" x="849" y="-1164.4" font-family="Times Roman,serif" font-size="14.00">token :character varying</text>
<text text-anchor="start" x="849" y="-1146.4" font-family="Times Roman,serif" font-size="14.00">email :character varying</text>
<text text-anchor="start" x="849" y="-1128.4" font-family="Times Roman,serif" font-size="14.00">encrypted_password :character varying</text>
<text text-anchor="start" x="849" y="-1110.4" font-family="Times Roman,serif" font-size="14.00">reset_password_token :character varying</text>
<text text-anchor="start" x="849" y="-1092.4" font-family="Times Roman,serif" font-size="14.00">reset_password_sent_at :timestamp without time zone</text>
<text text-anchor="start" x="849" y="-1074.4" font-family="Times Roman,serif" font-size="14.00">remember_created_at :timestamp without time zone</text>
<text text-anchor="start" x="849" y="-1056.4" font-family="Times Roman,serif" font-size="14.00">sign_in_count :integer</text>
<text text-anchor="start" x="849" y="-1038.4" font-family="Times Roman,serif" font-size="14.00">current_sign_in_at :timestamp without time zone</text>
<text text-anchor="start" x="849" y="-1020.4" font-family="Times Roman,serif" font-size="14.00">last_sign_in_at :timestamp without time zone</text>
<text text-anchor="start" x="849" y="-1002.4" font-family="Times Roman,serif" font-size="14.00">current_sign_in_ip :character varying</text>
<text text-anchor="start" x="849" y="-984.4" font-family="Times Roman,serif" font-size="14.00">last_sign_in_ip :character varying</text>
<text text-anchor="start" x="849" y="-966.4" font-family="Times Roman,serif" font-size="14.00">created_at :timestamp without time zone</text>
<text text-anchor="start" x="849" y="-948.4" font-family="Times Roman,serif" font-size="14.00">updated_at :timestamp without time zone</text>
<text text-anchor="start" x="849" y="-930.4" font-family="Times Roman,serif" font-size="14.00">profile_image :character varying</text>
<text text-anchor="start" x="849" y="-912.4" font-family="Times Roman,serif" font-size="14.00">image :character varying</text>
<text text-anchor="start" x="849" y="-894.4" font-family="Times Roman,serif" font-size="14.00">current_team_id :integer</text>
</g>
<!-- Team&#45;&gt;User -->
<g id="edge18" class="edge"><title>Team&#45;&gt;User</title>
<path fill="none" stroke="#faca38" d="M1119.88,-1344.67C1116.02,-1332.4 1111.99,-1319.6 1107.88,-1306.55"/>
<polygon fill="#faca38" stroke="#faca38" points="1120,-1345.02 1118.71,-1355.91 1121.5,-1349.79 1123,-1354.56 1123,-1354.56 1123,-1354.56 1121.5,-1349.79 1127.29,-1353.21 1120,-1345.02 1120,-1345.02"/>
<polygon fill="#faca38" stroke="#faca38" points="1107.88,-1306.55 1109.17,-1295.66 1106.38,-1301.78 1104.88,-1297.01 1104.88,-1297.01 1104.88,-1297.01 1106.38,-1301.78 1100.58,-1298.36 1107.88,-1306.55 1107.88,-1306.55"/>
</g>
<!-- Team&#45;&gt;PaperTrail::Version -->
<g id="edge10" class="edge"><title>Team&#45;&gt;PaperTrail::Version</title>
<path fill="none" stroke="#946363" d="M1285.32,-1350.88C1295.72,-1345.26 1306.34,-1340.2 1317,-1336 1378.5,-1311.77 1566.12,-1345.58 1612,-1298 1676.12,-1231.49 1631,-1183.39 1631,-1091 1631,-1091 1631,-1091 1631,-279 1631,-175.92 1303.08,-105.343 1142.51,-76.9648"/>
<ellipse fill="none" stroke="#946363" cx="1281.65" cy="-1352.91" rx="4.00002" ry="4.00002"/>
<polygon fill="#946363" stroke="#946363" points="1142.5,-76.963 1133.43,-70.8053 1137.58,-76.1005 1132.65,-75.2379 1132.65,-75.2379 1132.65,-75.2379 1137.58,-76.1005 1131.88,-79.6704 1142.5,-76.963 1142.5,-76.963"/>
<text text-anchor="middle" x="1660" y="-653.4" font-family="Times Roman,serif" font-size="14.00">versions</text>
</g>
<!-- Media -->
<g id="node14" class="node"><title>Media</title>
<polyline fill="none" stroke="black" points="723.5,-181 1008.5,-181 "/>
<path fill="none" stroke="black" d="M1008.5,-181C1014.5,-181 1020.5,-187 1020.5,-193"/>
<polyline fill="none" stroke="black" points="1020.5,-193 1020.5,-365 "/>
<path fill="none" stroke="black" d="M1020.5,-365C1020.5,-371 1014.5,-377 1008.5,-377"/>
<polyline fill="none" stroke="black" points="1008.5,-377 723.5,-377 "/>
<path fill="none" stroke="black" d="M723.5,-377C717.5,-377 711.5,-371 711.5,-365"/>
<polyline fill="none" stroke="black" points="711.5,-365 711.5,-193 "/>
<path fill="none" stroke="black" d="M711.5,-193C711.5,-187 717.5,-181 723.5,-181"/>
<text text-anchor="middle" x="866" y="-360.4" font-family="Times Roman,serif" font-size="14.00">Media</text>
<polyline fill="none" stroke="black" points="711.5,-351 1020.5,-351 "/>
<text text-anchor="start" x="719.5" y="-334.4" font-family="Times Roman,serif" font-size="14.00">id :integer</text>
<text text-anchor="start" x="719.5" y="-316.4" font-family="Times Roman,serif" font-size="14.00">user_id :integer</text>
<text text-anchor="start" x="719.5" y="-298.4" font-family="Times Roman,serif" font-size="14.00">account_id :integer</text>
<text text-anchor="start" x="719.5" y="-280.4" font-family="Times Roman,serif" font-size="14.00">url :character varying</text>
<text text-anchor="start" x="719.5" y="-262.4" font-family="Times Roman,serif" font-size="14.00">data :json</text>
<text text-anchor="start" x="719.5" y="-244.4" font-family="Times Roman,serif" font-size="14.00">created_at :timestamp without time zone</text>
<text text-anchor="start" x="719.5" y="-226.4" font-family="Times Roman,serif" font-size="14.00">updated_at :timestamp without time zone</text>
<text text-anchor="start" x="719.5" y="-208.4" font-family="Times Roman,serif" font-size="14.00">title :character varying</text>
<text text-anchor="start" x="719.5" y="-190.4" font-family="Times Roman,serif" font-size="14.00">description :character varying</text>
</g>
<!-- Account&#45;&gt;Media -->
<g id="edge24" class="edge"><title>Account&#45;&gt;Media</title>
<path fill="none" stroke="#6e9afd" d="M983.899,-435.372C971.54,-418.98 958.632,-401.859 946.079,-385.21"/>
<ellipse fill="none" stroke="#6e9afd" cx="986.338" cy="-438.606" rx="4.00002" ry="4.00002"/>
<polygon fill="#6e9afd" stroke="#6e9afd" points="945.97,-385.066 943.543,-374.372 942.96,-381.073 939.95,-377.081 939.95,-377.081 939.95,-377.081 942.96,-381.073 936.357,-379.79 945.97,-385.066 945.97,-385.066"/>
</g>
<!-- Account&#45;&gt;PaperTrail::Version -->
<g id="edge22" class="edge"><title>Account&#45;&gt;PaperTrail::Version</title>
<path fill="none" stroke="#c5c620" d="M1056,-433.808C1056,-326.177 1056,-159.029 1056,-92.128"/>
<ellipse fill="none" stroke="#c5c620" cx="1056" cy="-437.871" rx="4" ry="4"/>
<polygon fill="#c5c620" stroke="#c5c620" points="1056,-91.9144 1060.5,-81.9143 1056,-86.9144 1056,-81.9144 1056,-81.9144 1056,-81.9144 1056,-86.9144 1051.5,-81.9144 1056,-91.9144 1056,-91.9144"/>
<text text-anchor="middle" x="1085" y="-275.4" font-family="Times Roman,serif" font-size="14.00">versions</text>
</g>
<!-- Project&#45;&gt;ProjectSource -->
<g id="edge28" class="edge"><title>Project&#45;&gt;ProjectSource</title>
<path fill="none" stroke="#98e290" d="M892.225,-432.32C892.483,-432.213 892.742,-432.106 893,-432 988.091,-392.837 1022.65,-416.529 1118,-378 1139.7,-369.232 1161.93,-357.982 1182.82,-346.228"/>
<ellipse fill="none" stroke="#98e290" cx="888.393" cy="-433.957" rx="4.00002" ry="4.00002"/>
<polygon fill="#98e290" stroke="#98e290" points="1183,-346.124 1193.91,-345.073 1187.34,-343.645 1191.68,-341.165 1191.68,-341.165 1191.68,-341.165 1187.34,-343.645 1189.45,-337.257 1183,-346.124 1183,-346.124"/>
</g>
<!-- ProjectMedia -->
<g id="node13" class="node"><title>ProjectMedia</title>
<polyline fill="none" stroke="black" points="513.5,-1 798.5,-1 "/>
<path fill="none" stroke="black" d="M798.5,-1C804.5,-1 810.5,-7 810.5,-13"/>
<polyline fill="none" stroke="black" points="810.5,-13 810.5,-113 "/>
<path fill="none" stroke="black" d="M810.5,-113C810.5,-119 804.5,-125 798.5,-125"/>
<polyline fill="none" stroke="black" points="798.5,-125 513.5,-125 "/>
<path fill="none" stroke="black" d="M513.5,-125C507.5,-125 501.5,-119 501.5,-113"/>
<polyline fill="none" stroke="black" points="501.5,-113 501.5,-13 "/>
<path fill="none" stroke="black" d="M501.5,-13C501.5,-7 507.5,-1 513.5,-1"/>
<text text-anchor="middle" x="656" y="-108.4" font-family="Times Roman,serif" font-size="14.00">ProjectMedia</text>
<polyline fill="none" stroke="black" points="501.5,-99 810.5,-99 "/>
<text text-anchor="start" x="509.5" y="-82.4" font-family="Times Roman,serif" font-size="14.00">id :integer</text>
<text text-anchor="start" x="509.5" y="-64.4" font-family="Times Roman,serif" font-size="14.00">project_id :integer</text>
<text text-anchor="start" x="509.5" y="-46.4" font-family="Times Roman,serif" font-size="14.00">media_id :integer</text>
<text text-anchor="start" x="509.5" y="-28.4" font-family="Times Roman,serif" font-size="14.00">created_at :timestamp without time zone</text>
<text text-anchor="start" x="509.5" y="-10.4" font-family="Times Roman,serif" font-size="14.00">updated_at :timestamp without time zone</text>
</g>
<!-- Project&#45;&gt;ProjectMedia -->
<g id="edge30" class="edge"><title>Project&#45;&gt;ProjectMedia</title>
<path fill="none" stroke="#a1b55a" d="M628.73,-425.827C626.336,-421.926 624.082,-417.98 622,-414 614.402,-399.477 615.788,-394.292 614,-378 602.645,-274.561 590.449,-243.162 622,-144 622.941,-141.043 623.947,-138.045 625.001,-135.031"/>
<ellipse fill="none" stroke="#a1b55a" cx="631.03" cy="-429.426" rx="4.00002" ry="4.00002"/>
<polygon fill="#a1b55a" stroke="#a1b55a" points="625.095,-134.775 632.745,-126.918 626.806,-130.077 628.517,-125.379 628.517,-125.379 628.517,-125.379 626.806,-130.077 624.288,-123.839 625.095,-134.775 625.095,-134.775"/>
</g>
<!-- Project&#45;&gt;Media -->
<g id="edge32" class="edge"><title>Project&#45;&gt;Media</title>
<path fill="none" stroke="#f0e8af" d="M787.848,-423.811C794.552,-411.389 801.391,-398.717 808.096,-386.293"/>
<polygon fill="#f0e8af" stroke="#f0e8af" points="787.72,-424.048 779.01,-430.711 785.345,-428.449 782.971,-432.849 782.971,-432.849 782.971,-432.849 785.345,-428.449 786.931,-434.986 787.72,-424.048 787.72,-424.048"/>
<polygon fill="#f0e8af" stroke="#f0e8af" points="808.201,-386.098 816.91,-379.435 810.576,-381.698 812.95,-377.298 812.95,-377.298 812.95,-377.298 810.576,-381.698 808.99,-375.161 808.201,-386.098 808.201,-386.098"/>
</g>
<!-- Project&#45;&gt;PaperTrail::Version -->
<g id="edge26" class="edge"><title>Project&#45;&gt;PaperTrail::Version</title>
<path fill="none" stroke="#ba9011" d="M662.063,-425.554C623.119,-350.483 591.563,-250.772 645,-180 650.301,-172.979 873.475,-112.106 988.682,-81.0553"/>
<ellipse fill="none" stroke="#ba9011" cx="663.987" cy="-429.202" rx="4.00002" ry="4.00002"/>
<polygon fill="#ba9011" stroke="#ba9011" points="988.816,-81.0192 999.642,-82.7635 993.644,-79.7188 998.472,-78.4184 998.472,-78.4184 998.472,-78.4184 993.644,-79.7188 997.301,-74.0732 988.816,-81.0192 988.816,-81.0192"/>
<text text-anchor="middle" x="674" y="-275.4" font-family="Times Roman,serif" font-size="14.00">versions</text>
</g>
<!-- Media&#45;&gt;ProjectMedia -->
<g id="edge36" class="edge"><title>Media&#45;&gt;ProjectMedia</title>
<path fill="none" stroke="#d85c09" d="M764.903,-175.014C750.897,-160.608 736.799,-146.107 723.606,-132.538"/>
<ellipse fill="none" stroke="#d85c09" cx="767.736" cy="-177.929" rx="4.00002" ry="4.00002"/>
<polygon fill="#d85c09" stroke="#d85c09" points="723.347,-132.272 719.603,-121.965 719.862,-128.687 716.376,-125.102 716.376,-125.102 716.376,-125.102 719.862,-128.687 713.15,-128.238 723.347,-132.272 723.347,-132.272"/>
</g>
<!-- Media&#45;&gt;PaperTrail::Version -->
<g id="edge34" class="edge"><title>Media&#45;&gt;PaperTrail::Version</title>
<path fill="none" stroke="#3fc64f" d="M956.984,-174.732C966.099,-164.339 975.225,-153.956 984,-144 1000.21,-125.61 1018.57,-104.958 1032.69,-89.1104"/>
<ellipse fill="none" stroke="#3fc64f" cx="954.258" cy="-177.842" rx="4.00002" ry="4.00002"/>
<polygon fill="#3fc64f" stroke="#3fc64f" points="1033,-88.7623 1043.02,-84.2928 1036.33,-85.0302 1039.66,-81.2981 1039.66,-81.2981 1039.66,-81.2981 1036.33,-85.0302 1036.3,-78.3035 1033,-88.7623 1033,-88.7623"/>
<text text-anchor="middle" x="1013" y="-149.4" font-family="Times Roman,serif" font-size="14.00">versions</text>
</g>
<!-- User&#45;&gt;Source -->
<g id="edge38" class="edge"><title>User&#45;&gt;Source</title>
<path fill="none" stroke="#7150d8" d="M1040,-876.281C1040,-868.577 1040,-861.044 1040,-853.763"/>
<ellipse fill="none" stroke="#7150d8" cx="1040" cy="-880.539" rx="4" ry="4"/>
<ellipse fill="#7150d8" stroke="#7150d8" cx="1040" cy="-849.336" rx="4" ry="4"/>
</g>
<!-- User&#45;&gt;Project -->
<g id="edge42" class="edge"><title>User&#45;&gt;Project</title>
<path fill="none" stroke="#51afa1" d="M895.487,-877.83C889.099,-867.153 882.901,-856.505 877,-846 839.256,-778.813 802.591,-700.278 775.319,-638.433"/>
<ellipse fill="none" stroke="#51afa1" cx="897.649" cy="-881.421" rx="4.00002" ry="4.00002"/>
<polygon fill="#51afa1" stroke="#51afa1" points="775.217,-638.199 775.315,-627.234 773.206,-633.622 771.195,-629.044 771.195,-629.044 771.195,-629.044 773.206,-633.622 767.075,-630.854 775.217,-638.199 775.217,-638.199"/>
</g>
<!-- User&#45;&gt;TeamUser -->
<g id="edge40" class="edge"><title>User&#45;&gt;TeamUser</title>
<path fill="none" stroke="#d8cd12" d="M1237.83,-878.821C1242.91,-873.806 1247.97,-868.859 1253,-864 1257.15,-859.994 1261.42,-855.942 1265.76,-851.881"/>
<ellipse fill="none" stroke="#d8cd12" cx="1234.69" cy="-881.923" rx="4.00002" ry="4.00002"/>
<polygon fill="#d8cd12" stroke="#d8cd12" points="1265.8,-851.845 1276.19,-848.347 1269.47,-848.446 1273.14,-845.046 1273.14,-845.046 1273.14,-845.046 1269.47,-848.446 1270.08,-841.746 1265.8,-851.845 1265.8,-851.845"/>
</g>
<!-- ApiKey -->
<g id="node16" class="node"><title>ApiKey</title>
<polyline fill="none" stroke="black" points="1337.5,-1382 1622.5,-1382 "/>
<path fill="none" stroke="black" d="M1622.5,-1382C1628.5,-1382 1634.5,-1388 1634.5,-1394"/>
<polyline fill="none" stroke="black" points="1634.5,-1394 1634.5,-1512 "/>
<path fill="none" stroke="black" d="M1634.5,-1512C1634.5,-1518 1628.5,-1524 1622.5,-1524"/>
<polyline fill="none" stroke="black" points="1622.5,-1524 1337.5,-1524 "/>
<path fill="none" stroke="black" d="M1337.5,-1524C1331.5,-1524 1325.5,-1518 1325.5,-1512"/>
<polyline fill="none" stroke="black" points="1325.5,-1512 1325.5,-1394 "/>
<path fill="none" stroke="black" d="M1325.5,-1394C1325.5,-1388 1331.5,-1382 1337.5,-1382"/>
<text text-anchor="middle" x="1480" y="-1507.4" font-family="Times Roman,serif" font-size="14.00">ApiKey</text>
<polyline fill="none" stroke="black" points="1325.5,-1498 1634.5,-1498 "/>
<text text-anchor="start" x="1333.5" y="-1481.4" font-family="Times Roman,serif" font-size="14.00">id :integer</text>
<text text-anchor="start" x="1333.5" y="-1463.4" font-family="Times Roman,serif" font-size="14.00">access_token :character varying</text>
<text text-anchor="start" x="1333.5" y="-1445.4" font-family="Times Roman,serif" font-size="14.00">expire_at :timestamp without time zone</text>
<text text-anchor="start" x="1333.5" y="-1427.4" font-family="Times Roman,serif" font-size="14.00">created_at :timestamp without time zone</text>
<text text-anchor="start" x="1333.5" y="-1409.4" font-family="Times Roman,serif" font-size="14.00">updated_at :timestamp without time zone</text>
<text text-anchor="start" x="1333.5" y="-1391.4" font-family="Times Roman,serif" font-size="14.00">application :character varying</text>
</g>
</g>
</svg>
