<?xml version="1.0" encoding="UTF-8" standalone="no"?>
<!DOCTYPE svg PUBLIC "-//W3C//DTD SVG 1.1//EN"
 "http://www.w3.org/Graphics/SVG/1.1/DTD/svg11.dtd">
<!-- Generated by graphviz version 2.26.3 (20100126.1600)
 -->
<!-- Title: models_diagram Pages: 1 -->
<svg width="858pt" height="474pt"
 viewBox="0.00 0.00 858.00 474.00" xmlns="http://www.w3.org/2000/svg" xmlns:xlink="http://www.w3.org/1999/xlink">
<g id="graph1" class="graph" transform="scale(1 1) rotate(0) translate(4 470)">
<title>models_diagram</title>
<polygon fill="none" stroke="none" points="-4,5 -4,-470 855,-470 855,5 -4,5"/>
<!-- Tag -->
<g id="node1" class="node"><title>Tag</title>
<ellipse fill="none" stroke="black" cx="28" cy="-447" rx="27.7881" ry="18.3848"/>
<text text-anchor="middle" x="28" y="-443.4" font-family="Times Roman,serif" font-size="14.00">Tag</text>
</g>
<!-- Status -->
<g id="node2" class="node"><title>Status</title>
<ellipse fill="none" stroke="black" cx="118" cy="-447" rx="43.8406" ry="18.3848"/>
<text text-anchor="middle" x="118" y="-443.4" font-family="Times Roman,serif" font-size="14.00">Status</text>
</g>
<!-- Flag -->
<g id="node3" class="node"><title>Flag</title>
<ellipse fill="none" stroke="black" cx="212" cy="-447" rx="31.8198" ry="18.3848"/>
<text text-anchor="middle" x="212" y="-443.4" font-family="Times Roman,serif" font-size="14.00">Flag</text>
</g>
<!-- Comment -->
<g id="node4" class="node"><title>Comment</title>
<ellipse fill="none" stroke="black" cx="320" cy="-447" rx="58.1882" ry="18.3848"/>
<text text-anchor="middle" x="320" y="-443.4" font-family="Times Roman,serif" font-size="14.00">Comment</text>
</g>
<!-- Annotation -->
<g id="node5" class="node"><title>Annotation</title>
<ellipse fill="none" stroke="black" cx="462" cy="-447" rx="65.9683" ry="18.3848"/>
<text text-anchor="middle" x="462" y="-443.4" font-family="Times Roman,serif" font-size="14.00">Annotation</text>
</g>
<!-- Source -->
<g id="node6" class="node"><title>Source</title>
<ellipse fill="none" stroke="black" cx="552" cy="-295" rx="44.7575" ry="18.3848"/>
<text text-anchor="middle" x="552" y="-291.4" font-family="Times Roman,serif" font-size="14.00">Source</text>
</g>
<!-- ProjectSource -->
<g id="node8" class="node"><title>ProjectSource</title>
<ellipse fill="none" stroke="black" cx="612" cy="-111" rx="79.196" ry="18.3848"/>
<text text-anchor="middle" x="612" y="-107.4" font-family="Times Roman,serif" font-size="14.00">ProjectSource</text>
</g>
<!-- Source&#45;&gt;ProjectSource -->
<g id="edge6" class="edge"><title>Source&#45;&gt;ProjectSource</title>
<path fill="none" stroke="#816b42" d="M560.697,-268.329C571.9,-233.974 591.29,-174.511 602.753,-139.357"/>
<ellipse fill="none" stroke="#816b42" cx="559.323" cy="-272.542" rx="4.00001" ry="4.00001"/>
<polygon fill="#816b42" stroke="#816b42" points="602.8,-139.212 610.179,-131.1 604.35,-134.459 605.901,-129.705 605.901,-129.705 605.901,-129.705 604.35,-134.459 601.622,-128.31 602.8,-139.212 602.8,-139.212"/>
</g>
<!-- Account -->
<g id="node9" class="node"><title>Account</title>
<ellipse fill="none" stroke="black" cx="496" cy="-203" rx="50.9117" ry="18.3848"/>
<text text-anchor="middle" x="496" y="-199.4" font-family="Times Roman,serif" font-size="14.00">Account</text>
</g>
<!-- Source&#45;&gt;Account -->
<g id="edge4" class="edge"><title>Source&#45;&gt;Account</title>
<path fill="none" stroke="#1394ae" d="M536.555,-269.626C529.022,-257.251 519.961,-242.364 512.315,-229.804"/>
<ellipse fill="none" stroke="#1394ae" cx="538.856" cy="-273.407" rx="4.00002" ry="4.00002"/>
<polygon fill="#1394ae" stroke="#1394ae" points="512.24,-229.68 510.885,-218.799 509.641,-225.409 507.041,-221.138 507.041,-221.138 507.041,-221.138 509.641,-225.409 503.197,-223.478 512.24,-229.68 512.24,-229.68"/>
</g>
<!-- Project -->
<g id="node10" class="node"><title>Project</title>
<ellipse fill="none" stroke="black" cx="381" cy="-203" rx="45.9619" ry="18.3848"/>
<text text-anchor="middle" x="381" y="-199.4" font-family="Times Roman,serif" font-size="14.00">Project</text>
</g>
<!-- Source&#45;&gt;Project -->
<g id="edge8" class="edge"><title>Source&#45;&gt;Project</title>
<path fill="none" stroke="#b1f0d1" d="M515.488,-275.356C486.632,-259.831 446.54,-238.261 417.648,-222.717"/>
<polygon fill="#b1f0d1" stroke="#b1f0d1" points="515.72,-275.481 522.394,-284.181 520.123,-277.85 524.526,-280.219 524.526,-280.219 524.526,-280.219 520.123,-277.85 526.658,-276.256 515.72,-275.481 515.72,-275.481"/>
<polygon fill="#b1f0d1" stroke="#b1f0d1" points="417.496,-222.635 410.822,-213.934 413.093,-220.266 408.689,-217.897 408.689,-217.897 408.689,-217.897 413.093,-220.266 406.557,-221.86 417.496,-222.635 417.496,-222.635"/>
</g>
<!-- PaperTrail::Version -->
<g id="node18" class="node"><title>PaperTrail::Version</title>
<ellipse fill="none" stroke="black" cx="457" cy="-19" rx="101.823" ry="18.3848"/>
<text text-anchor="middle" x="457" y="-15.4" font-family="Times Roman,serif" font-size="14.00">PaperTrail::Version</text>
</g>
<!-- Source&#45;&gt;PaperTrail::Version -->
<g id="edge2" class="edge"><title>Source&#45;&gt;PaperTrail::Version</title>
<path fill="none" stroke="#74ca47" d="M585.108,-275.493C642.505,-239.212 749.797,-158.955 700,-92 680.786,-66.1657 604.283,-46.0327 542.182,-33.5134"/>
<ellipse fill="none" stroke="#74ca47" cx="581.428" cy="-277.787" rx="4.00002" ry="4.00002"/>
<polygon fill="#74ca47" stroke="#74ca47" points="542.159,-33.5091 533.222,-27.1553 537.254,-32.5395 532.349,-31.5698 532.349,-31.5698 532.349,-31.5698 537.254,-32.5395 531.477,-35.9844 542.159,-33.5091 542.159,-33.5091"/>
<text text-anchor="middle" x="738" y="-153.4" font-family="Times Roman,serif" font-size="14.00">versions</text>
</g>
<!-- Team -->
<g id="node7" class="node"><title>Team</title>
<ellipse fill="none" stroke="black" cx="583" cy="-447" rx="36.977" ry="18.3848"/>
<text text-anchor="middle" x="583" y="-443.4" font-family="Times Roman,serif" font-size="14.00">Team</text>
</g>
<!-- Team&#45;&gt;Account -->
<g id="edge14" class="edge"><title>Team&#45;&gt;Account</title>
<path fill="none" stroke="#70c41e" d="M549.665,-429.291C534.822,-419.664 518.567,-406.362 509,-390 480.021,-340.439 484.809,-270.381 490.586,-231.612"/>
<ellipse fill="none" stroke="#70c41e" cx="553.403" cy="-431.61" rx="4.00002" ry="4.00002"/>
<polygon fill="#70c41e" stroke="#70c41e" points="490.617,-231.422 496.657,-222.269 491.416,-226.486 492.214,-221.55 492.214,-221.55 492.214,-221.55 491.416,-226.486 487.772,-220.831 490.617,-231.422 490.617,-231.422"/>
</g>
<!-- Team&#45;&gt;Project -->
<g id="edge12" class="edge"><title>Team&#45;&gt;Project</title>
<path fill="none" stroke="#c01f27" d="M547.332,-431.253C528.244,-421.481 505.366,-407.453 489,-390 443.351,-341.319 408.968,-269.925 392.254,-230.941"/>
<ellipse fill="none" stroke="#c01f27" cx="551.126" cy="-433.138" rx="4.00002" ry="4.00002"/>
<polygon fill="#c01f27" stroke="#c01f27" points="392.174,-230.75 392.443,-219.788 390.235,-226.142 388.296,-221.533 388.296,-221.533 388.296,-221.533 390.235,-226.142 384.148,-223.279 392.174,-230.75 392.174,-230.75"/>
</g>
<!-- Contact -->
<g id="node11" class="node"><title>Contact</title>
<ellipse fill="none" stroke="black" cx="692" cy="-371" rx="50.2046" ry="18.3848"/>
<text text-anchor="middle" x="692" y="-367.4" font-family="Times Roman,serif" font-size="14.00">Contact</text>
</g>
<!-- Team&#45;&gt;Contact -->
<g id="edge20" class="edge"><title>Team&#45;&gt;Contact</title>
<path fill="none" stroke="#87f7ca" d="M611.561,-427.086C626.341,-416.781 644.44,-404.161 659.725,-393.504"/>
<ellipse fill="none" stroke="#87f7ca" cx="608.077" cy="-429.515" rx="4.00002" ry="4.00002"/>
<polygon fill="#87f7ca" stroke="#87f7ca" points="660.15,-393.207 670.927,-391.179 664.251,-390.348 668.353,-387.488 668.353,-387.488 668.353,-387.488 664.251,-390.348 665.779,-383.797 660.15,-393.207 660.15,-393.207"/>
</g>
<!-- TeamUser -->
<g id="node12" class="node"><title>TeamUser</title>
<ellipse fill="none" stroke="black" cx="674" cy="-295" rx="58.8978" ry="18.3848"/>
<text text-anchor="middle" x="674" y="-291.4" font-family="Times Roman,serif" font-size="14.00">TeamUser</text>
</g>
<!-- Team&#45;&gt;TeamUser -->
<g id="edge16" class="edge"><title>Team&#45;&gt;TeamUser</title>
<path fill="none" stroke="#72f965" d="M595.249,-421.425C604.844,-401.991 618.89,-374.808 633,-352 639.383,-341.682 647,-330.771 653.927,-321.288"/>
<ellipse fill="none" stroke="#72f965" cx="593.433" cy="-425.133" rx="4.00002" ry="4.00002"/>
<polygon fill="#72f965" stroke="#72f965" points="654.086,-321.073 663.655,-315.717 657.063,-317.056 660.039,-313.038 660.039,-313.038 660.039,-313.038 657.063,-317.056 656.424,-310.359 654.086,-321.073 654.086,-321.073"/>
</g>
<!-- User -->
<g id="node15" class="node"><title>User</title>
<ellipse fill="none" stroke="black" cx="552" cy="-371" rx="33.9411" ry="18.3848"/>
<text text-anchor="middle" x="552" y="-367.4" font-family="Times Roman,serif" font-size="14.00">User</text>
</g>
<!-- Team&#45;&gt;User -->
<g id="edge18" class="edge"><title>Team&#45;&gt;User</title>
<path fill="none" stroke="#e69b9c" d="M571.614,-419.085C568.883,-412.392 565.97,-405.249 563.246,-398.571"/>
<polygon fill="#e69b9c" stroke="#e69b9c" points="571.719,-419.343 571.329,-430.302 573.607,-423.973 575.496,-428.603 575.496,-428.603 575.496,-428.603 573.607,-423.973 579.662,-426.903 571.719,-419.343 571.719,-419.343"/>
<polygon fill="#e69b9c" stroke="#e69b9c" points="563.212,-398.487 563.602,-387.528 561.324,-393.858 559.435,-389.228 559.435,-389.228 559.435,-389.228 561.324,-393.858 555.268,-390.928 563.212,-398.487 563.212,-398.487"/>
</g>
<!-- Team&#45;&gt;PaperTrail::Version -->
<g id="edge10" class="edge"><title>Team&#45;&gt;PaperTrail::Version</title>
<path fill="none" stroke="#03372a" d="M618.631,-431.916C622.119,-430.55 625.618,-429.223 629,-428 701.176,-401.913 792,-447.746 792,-371 792,-371 792,-371 792,-111 792,-62.3836 659.148,-38.5139 560.769,-27.5029"/>
<ellipse fill="none" stroke="#03372a" cx="614.777" cy="-433.456" rx="4.00001" ry="4.00001"/>
<polygon fill="#03372a" stroke="#03372a" points="560.703,-27.4958 551.249,-21.9399 555.732,-26.9546 550.762,-26.4134 550.762,-26.4134 550.762,-26.4134 555.732,-26.9546 550.275,-30.887 560.703,-27.4958 560.703,-27.4958"/>
<text text-anchor="middle" x="821" y="-245.4" font-family="Times Roman,serif" font-size="14.00">versions</text>
</g>
<!-- Media -->
<g id="node14" class="node"><title>Media</title>
<ellipse fill="none" stroke="black" cx="381" cy="-111" rx="39.8075" ry="18.3848"/>
<text text-anchor="middle" x="381" y="-107.4" font-family="Times Roman,serif" font-size="14.00">Media</text>
</g>
<!-- Account&#45;&gt;Media -->
<g id="edge24" class="edge"><title>Account&#45;&gt;Media</title>
<path fill="none" stroke="#959b02" d="M465.625,-181.59C458.761,-176.58 451.566,-171.188 445,-166 432.205,-155.889 418.437,-144.172 406.961,-134.158"/>
<ellipse fill="none" stroke="#959b02" cx="469.101" cy="-184.106" rx="4.00002" ry="4.00002"/>
<polygon fill="#959b02" stroke="#959b02" points="406.936,-134.136 402.392,-124.156 403.179,-130.837 399.422,-127.537 399.422,-127.537 399.422,-127.537 403.179,-130.837 396.453,-130.919 406.936,-134.136 406.936,-134.136"/>
</g>
<!-- Account&#45;&gt;PaperTrail::Version -->
<g id="edge22" class="edge"><title>Account&#45;&gt;PaperTrail::Version</title>
<path fill="none" stroke="#ab7dbd" d="M483.029,-177.031C476.805,-163.372 469.874,-146.15 466,-130 459.451,-102.695 457.436,-70.6454 456.918,-48.0232"/>
<ellipse fill="none" stroke="#ab7dbd" cx="484.889" cy="-181.003" rx="4.00002" ry="4.00002"/>
<polygon fill="#ab7dbd" stroke="#ab7dbd" points="456.914,-47.7361 461.271,-37.6727 456.843,-42.7366 456.771,-37.7371 456.771,-37.7371 456.771,-37.7371 456.843,-42.7366 452.272,-37.8014 456.914,-47.7361 456.914,-47.7361"/>
<text text-anchor="middle" x="495" y="-107.4" font-family="Times Roman,serif" font-size="14.00">versions</text>
</g>
<!-- Project&#45;&gt;ProjectSource -->
<g id="edge28" class="edge"><title>Project&#45;&gt;ProjectSource</title>
<path fill="none" stroke="#dc3fd0" d="M421.693,-186.793C460.845,-171.2 520.122,-147.592 562.102,-130.873"/>
<ellipse fill="none" stroke="#dc3fd0" cx="417.813" cy="-188.339" rx="4.00001" ry="4.00001"/>
<polygon fill="#dc3fd0" stroke="#dc3fd0" points="562.289,-130.798 573.244,-131.279 566.934,-128.948 571.579,-127.098 571.579,-127.098 571.579,-127.098 566.934,-128.948 569.914,-122.918 562.289,-130.798 562.289,-130.798"/>
</g>
<!-- ProjectMedia -->
<g id="node13" class="node"><title>ProjectMedia</title>
<ellipse fill="none" stroke="black" cx="241" cy="-19" rx="74.2462" ry="18.3848"/>
<text text-anchor="middle" x="241" y="-15.4" font-family="Times Roman,serif" font-size="14.00">ProjectMedia</text>
</g>
<!-- Project&#45;&gt;ProjectMedia -->
<g id="edge30" class="edge"><title>Project&#45;&gt;ProjectMedia</title>
<path fill="none" stroke="#9aad6c" d="M332.246,-192.014C315.254,-186.373 296.965,-178.06 283,-166 248.923,-136.57 241.566,-81.5941 240.48,-47.8518"/>
<ellipse fill="none" stroke="#9aad6c" cx="336.124" cy="-193.227" rx="4.00001" ry="4.00001"/>
<polygon fill="#9aad6c" stroke="#9aad6c" points="240.478,-47.7007 244.822,-37.6318 240.4,-42.7013 240.322,-37.7019 240.322,-37.7019 240.322,-37.7019 240.4,-42.7013 235.823,-37.772 240.478,-47.7007 240.478,-47.7007"/>
</g>
<!-- Project&#45;&gt;Media -->
<g id="edge32" class="edge"><title>Project&#45;&gt;Media</title>
<path fill="none" stroke="#62755b" d="M381,-174.342C381,-163.283 381,-150.657 381,-139.604"/>
<polygon fill="#62755b" stroke="#62755b" points="381,-174.382 376.5,-184.382 381,-179.382 381,-184.382 381,-184.382 381,-184.382 381,-179.382 385.5,-184.382 381,-174.382 381,-174.382"/>
<polygon fill="#62755b" stroke="#62755b" points="381,-139.59 385.5,-129.59 381,-134.59 381,-129.59 381,-129.59 381,-129.59 381,-134.59 376.5,-129.59 381,-139.59 381,-139.59"/>
</g>
<!-- Project&#45;&gt;PaperTrail::Version -->
<g id="edge26" class="edge"><title>Project&#45;&gt;PaperTrail::Version</title>
<path fill="none" stroke="#31c7a6" d="M342.511,-185.707C302.461,-165.21 248.837,-129.129 274,-92 294.961,-61.0711 331.351,-43.2456 366.188,-32.9724"/>
<ellipse fill="none" stroke="#31c7a6" cx="346.23" cy="-187.563" rx="4.00002" ry="4.00002"/>
<polygon fill="#31c7a6" stroke="#31c7a6" points="366.32,-32.9359 377.158,-34.6077 371.139,-31.6032 375.958,-30.2704 375.958,-30.2704 375.958,-30.2704 371.139,-31.6032 374.759,-25.9332 366.32,-32.9359 366.32,-32.9359"/>
<text text-anchor="middle" x="303" y="-107.4" font-family="Times Roman,serif" font-size="14.00">versions</text>
</g>
<!-- Media&#45;&gt;ProjectMedia -->
<g id="edge36" class="edge"><title>Media&#45;&gt;ProjectMedia</title>
<path fill="none" stroke="#53d968" d="M351.169,-91.3968C329.16,-76.9339 299.144,-57.2087 276,-42"/>
<ellipse fill="none" stroke="#53d968" cx="354.539" cy="-93.6113" rx="4.00002" ry="4.00002"/>
<polygon fill="#53d968" stroke="#53d968" points="275.855,-41.9045 269.969,-32.652 271.676,-39.1586 267.498,-36.4127 267.498,-36.4127 267.498,-36.4127 271.676,-39.1586 265.026,-40.1733 275.855,-41.9045 275.855,-41.9045"/>
</g>
<!-- Media&#45;&gt;PaperTrail::Version -->
<g id="edge34" class="edge"><title>Media&#45;&gt;PaperTrail::Version</title>
<path fill="none" stroke="#69c80f" d="M377.75,-84.3221C377.854,-74.7075 379.567,-64.2142 385,-56 388.855,-50.172 393.928,-45.2121 399.601,-41.003"/>
<ellipse fill="none" stroke="#69c80f" cx="377.886" cy="-88.4678" rx="4" ry="4"/>
<polygon fill="#69c80f" stroke="#69c80f" points="399.889,-40.8155 410.725,-39.131 404.079,-38.0876 408.27,-35.3597 408.27,-35.3597 408.27,-35.3597 404.079,-38.0876 405.814,-31.5885 399.889,-40.8155 399.889,-40.8155"/>
<text text-anchor="middle" x="414" y="-61.4" font-family="Times Roman,serif" font-size="14.00">versions</text>
</g>
<!-- User&#45;&gt;Source -->
<g id="edge38" class="edge"><title>User&#45;&gt;Source</title>
<path fill="none" stroke="#3fe95f" d="M552,-344.073C552,-336.818 552,-328.972 552,-321.727"/>
<ellipse fill="none" stroke="#3fe95f" cx="552" cy="-348.213" rx="4" ry="4"/>
<ellipse fill="#3fe95f" stroke="#3fe95f" cx="552" cy="-317.57" rx="4" ry="4"/>
</g>
<!-- User&#45;&gt;Project -->
<g id="edge42" class="edge"><title>User&#45;&gt;Project</title>
<path fill="none" stroke="#b47a5b" d="M529.206,-348.606C497.203,-317.165 439.165,-260.144 406.008,-227.57"/>
<ellipse fill="none" stroke="#b47a5b" cx="532.439" cy="-351.782" rx="4.00002" ry="4.00002"/>
<polygon fill="#b47a5b" stroke="#b47a5b" points="405.673,-227.24 401.694,-217.022 402.107,-223.736 398.54,-220.232 398.54,-220.232 398.54,-220.232 402.107,-223.736 395.386,-223.442 405.673,-227.24 405.673,-227.24"/>
</g>
<!-- User&#45;&gt;TeamUser -->
<g id="edge40" class="edge"><title>User&#45;&gt;TeamUser</title>
<path fill="none" stroke="#d4abad" d="M576.424,-349.44C583.757,-343.447 591.987,-337.17 600,-332 609.518,-325.859 620.194,-319.991 630.411,-314.809"/>
<ellipse fill="none" stroke="#d4abad" cx="573.045" cy="-352.261" rx="4.00002" ry="4.00002"/>
<polygon fill="#d4abad" stroke="#d4abad" points="630.656,-314.689 641.614,-314.29 635.138,-312.472 639.62,-310.256 639.62,-310.256 639.62,-310.256 635.138,-312.472 637.625,-306.222 630.656,-314.689 630.656,-314.689"/>
</g>
<!-- ApiKey -->
<g id="node16" class="node"><title>ApiKey</title>
<ellipse fill="none" stroke="black" cx="682" cy="-447" rx="44.0472" ry="18.3848"/>
<text text-anchor="middle" x="682" y="-443.4" font-family="Times Roman,serif" font-size="14.00">ApiKey</text>
</g>
</g>
</svg>
