<?xml version="1.0" encoding="UTF-8" standalone="no"?>
<!DOCTYPE svg PUBLIC "-//W3C//DTD SVG 1.1//EN"
 "http://www.w3.org/Graphics/SVG/1.1/DTD/svg11.dtd">
<!-- Generated by graphviz version 2.26.3 (20100126.1600)
 -->
<!-- Title: models_diagram Pages: 1 -->
<svg width="1400pt" height="474pt"
 viewBox="0.00 0.00 1400.00 474.00" xmlns="http://www.w3.org/2000/svg" xmlns:xlink="http://www.w3.org/1999/xlink">
<g id="graph1" class="graph" transform="scale(1 1) rotate(0) translate(4 470)">
<title>models_diagram</title>
<polygon fill="none" stroke="none" points="-4,5 -4,-470 1397,-470 1397,5 -4,5"/>
<!-- Tag -->
<g id="node1" class="node"><title>Tag</title>
<ellipse fill="none" stroke="black" cx="350" cy="-111" rx="27.7881" ry="18.3848"/>
<text text-anchor="middle" x="350" y="-107.4" font-family="Times Roman,serif" font-size="14.00">Tag</text>
</g>
<!-- PaperTrail::Version -->
<g id="node21" class="node"><title>PaperTrail::Version</title>
<ellipse fill="none" stroke="black" cx="529" cy="-19" rx="101.823" ry="18.3848"/>
<text text-anchor="middle" x="529" y="-15.4" font-family="Times Roman,serif" font-size="14.00">PaperTrail::Version</text>
</g>
<!-- Tag&#45;&gt;PaperTrail::Version -->
<g id="edge2" class="edge"><title>Tag&#45;&gt;PaperTrail::Version</title>
<path fill="none" stroke="#487109" d="M364.517,-86.5436C372.062,-75.7485 382.183,-63.7721 394,-56 408.512,-46.4554 425.443,-39.3563 442.312,-34.0811"/>
<ellipse fill="none" stroke="#487109" cx="362.158" cy="-90.0827" rx="4.00002" ry="4.00002"/>
<polygon fill="#487109" stroke="#487109" points="442.621,-33.9908 453.483,-35.5 447.42,-32.586 452.218,-31.1813 452.218,-31.1813 452.218,-31.1813 447.42,-32.586 450.954,-26.8625 442.621,-33.9908 442.621,-33.9908"/>
<text text-anchor="middle" x="423" y="-61.4" font-family="Times Roman,serif" font-size="14.00">versions</text>
</g>
<!-- Status -->
<g id="node2" class="node"><title>Status</title>
<ellipse fill="none" stroke="black" cx="440" cy="-111" rx="43.8406" ry="18.3848"/>
<text text-anchor="middle" x="440" y="-107.4" font-family="Times Roman,serif" font-size="14.00">Status</text>
</g>
<!-- Status&#45;&gt;PaperTrail::Version -->
<g id="edge4" class="edge"><title>Status&#45;&gt;PaperTrail::Version</title>
<path fill="none" stroke="#905b4d" d="M449.649,-84.9792C454.175,-75.1298 460.292,-64.3031 468,-56 472.756,-50.8768 478.38,-46.2142 484.257,-42.0581"/>
<ellipse fill="none" stroke="#905b4d" cx="447.945" cy="-88.9289" rx="4.00002" ry="4.00002"/>
<polygon fill="#905b4d" stroke="#905b4d" points="484.617,-41.8218 495.447,-40.0995 488.798,-39.0793 492.979,-36.3368 492.979,-36.3368 492.979,-36.3368 488.798,-39.0793 490.511,-32.5741 484.617,-41.8218 484.617,-41.8218"/>
<text text-anchor="middle" x="497" y="-61.4" font-family="Times Roman,serif" font-size="14.00">versions</text>
</g>
<!-- Flag -->
<g id="node3" class="node"><title>Flag</title>
<ellipse fill="none" stroke="black" cx="534" cy="-111" rx="31.8198" ry="18.3848"/>
<text text-anchor="middle" x="534" y="-107.4" font-family="Times Roman,serif" font-size="14.00">Flag</text>
</g>
<!-- Flag&#45;&gt;PaperTrail::Version -->
<g id="edge6" class="edge"><title>Flag&#45;&gt;PaperTrail::Version</title>
<path fill="none" stroke="#f74462" d="M530.799,-84.0088C530.483,-80.6425 530.204,-77.2443 530,-74 529.464,-65.4889 529.18,-56.2234 529.038,-47.7654"/>
<ellipse fill="none" stroke="#f74462" cx="531.231" cy="-88.2259" rx="4" ry="4"/>
<polygon fill="#f74462" stroke="#f74462" points="529.036,-47.6007 533.424,-37.5513 528.98,-42.601 528.925,-37.6013 528.925,-37.6013 528.925,-37.6013 528.98,-42.601 524.425,-37.6513 529.036,-47.6007 529.036,-47.6007"/>
<text text-anchor="middle" x="559" y="-61.4" font-family="Times Roman,serif" font-size="14.00">versions</text>
</g>
<!-- Embed -->
<g id="node4" class="node"><title>Embed</title>
<ellipse fill="none" stroke="black" cx="722" cy="-111" rx="44.0472" ry="18.3848"/>
<text text-anchor="middle" x="722" y="-107.4" font-family="Times Roman,serif" font-size="14.00">Embed</text>
</g>
<!-- Embed&#45;&gt;PaperTrail::Version -->
<g id="edge8" class="edge"><title>Embed&#45;&gt;PaperTrail::Version</title>
<path fill="none" stroke="#3da55e" d="M687.551,-92.2756C666.978,-81.3076 640.22,-67.4131 616,-56 604.519,-50.5897 592.036,-45.0719 580.203,-40.0052"/>
<ellipse fill="none" stroke="#3da55e" cx="691.308" cy="-94.2863" rx="4.00002" ry="4.00002"/>
<polygon fill="#3da55e" stroke="#3da55e" points="580.09,-39.9572 572.644,-31.9071 575.488,-38.0032 570.885,-36.0493 570.885,-36.0493 570.885,-36.0493 575.488,-38.0032 569.127,-40.1914 580.09,-39.9572 580.09,-39.9572"/>
<text text-anchor="middle" x="680" y="-61.4" font-family="Times Roman,serif" font-size="14.00">versions</text>
</g>
<!-- Comment -->
<g id="node5" class="node"><title>Comment</title>
<ellipse fill="none" stroke="black" cx="58" cy="-111" rx="58.1882" ry="18.3848"/>
<text text-anchor="middle" x="58" y="-107.4" font-family="Times Roman,serif" font-size="14.00">Comment</text>
</g>
<!-- Comment&#45;&gt;PaperTrail::Version -->
<g id="edge10" class="edge"><title>Comment&#45;&gt;PaperTrail::Version</title>
<path fill="none" stroke="#cf5d59" d="M86.4186,-88.7546C103.109,-76.9336 125.161,-63.3595 147,-56 195.813,-39.5501 325.009,-29.4739 419.683,-24.0728"/>
<ellipse fill="none" stroke="#cf5d59" cx="82.8487" cy="-91.3424" rx="4.00002" ry="4.00002"/>
<polygon fill="#cf5d59" stroke="#cf5d59" points="419.905,-24.0605 430.141,-27.9939 424.897,-23.7808 429.889,-23.501 429.889,-23.501 429.889,-23.501 424.897,-23.7808 429.638,-19.008 419.905,-24.0605 419.905,-24.0605"/>
<text text-anchor="middle" x="176" y="-61.4" font-family="Times Roman,serif" font-size="14.00">versions</text>
</g>
<!-- Annotation -->
<g id="node6" class="node"><title>Annotation</title>
<ellipse fill="none" stroke="black" cx="200" cy="-111" rx="65.9683" ry="18.3848"/>
<text text-anchor="middle" x="200" y="-107.4" font-family="Times Roman,serif" font-size="14.00">Annotation</text>
</g>
<!-- Annotation&#45;&gt;PaperTrail::Version -->
<g id="edge12" class="edge"><title>Annotation&#45;&gt;PaperTrail::Version</title>
<path fill="none" stroke="#41263f" d="M204.486,-84.6807C207.632,-74.1712 212.967,-62.9402 222,-56 237.989,-43.7157 340.941,-33.1069 423.28,-26.4377"/>
<ellipse fill="none" stroke="#41263f" cx="203.476" cy="-88.6191" rx="4.00001" ry="4.00001"/>
<polygon fill="#41263f" stroke="#41263f" points="423.499,-26.4203 433.826,-30.1097 428.484,-26.0221 433.468,-25.624 433.468,-25.624 433.468,-25.624 428.484,-26.0221 433.109,-21.1382 423.499,-26.4203 423.499,-26.4203"/>
<text text-anchor="middle" x="251" y="-61.4" font-family="Times Roman,serif" font-size="14.00">versions</text>
</g>
<!-- Source -->
<g id="node7" class="node"><title>Source</title>
<ellipse fill="none" stroke="black" cx="889" cy="-295" rx="44.7575" ry="18.3848"/>
<text text-anchor="middle" x="889" y="-291.4" font-family="Times Roman,serif" font-size="14.00">Source</text>
</g>
<!-- ProjectSource -->
<g id="node11" class="node"><title>ProjectSource</title>
<ellipse fill="none" stroke="black" cx="863" cy="-111" rx="79.196" ry="18.3848"/>
<text text-anchor="middle" x="863" y="-107.4" font-family="Times Roman,serif" font-size="14.00">ProjectSource</text>
</g>
<!-- Source&#45;&gt;ProjectSource -->
<g id="edge18" class="edge"><title>Source&#45;&gt;ProjectSource</title>
<path fill="none" stroke="#1ba47b" d="M885.231,-268.329C880.398,-234.121 872.046,-175.021 867.071,-139.811"/>
<ellipse fill="none" stroke="#1ba47b" cx="885.804" cy="-272.384" rx="4.00001" ry="4.00001"/>
<polygon fill="#1ba47b" stroke="#1ba47b" points="867.042,-139.606 870.099,-129.075 866.343,-134.656 865.643,-129.705 865.643,-129.705 865.643,-129.705 866.343,-134.656 861.187,-130.335 867.042,-139.606 867.042,-139.606"/>
</g>
<!-- Account -->
<g id="node12" class="node"><title>Account</title>
<ellipse fill="none" stroke="black" cx="811" cy="-203" rx="50.9117" ry="18.3848"/>
<text text-anchor="middle" x="811" y="-199.4" font-family="Times Roman,serif" font-size="14.00">Account</text>
</g>
<!-- Source&#45;&gt;Account -->
<g id="edge16" class="edge"><title>Source&#45;&gt;Account</title>
<path fill="none" stroke="#a9a913" d="M868.5,-270.821C857.454,-257.792 843.831,-241.724 832.619,-228.499"/>
<ellipse fill="none" stroke="#a9a913" cx="871.374" cy="-274.21" rx="4.00002" ry="4.00002"/>
<polygon fill="#a9a913" stroke="#a9a913" points="832.46,-228.312 829.425,-217.774 829.226,-224.498 825.993,-220.684 825.993,-220.684 825.993,-220.684 829.226,-224.498 822.561,-223.594 832.46,-228.312 832.46,-228.312"/>
</g>
<!-- Project -->
<g id="node13" class="node"><title>Project</title>
<ellipse fill="none" stroke="black" cx="1000" cy="-203" rx="45.9619" ry="18.3848"/>
<text text-anchor="middle" x="1000" y="-199.4" font-family="Times Roman,serif" font-size="14.00">Project</text>
</g>
<!-- Source&#45;&gt;Project -->
<g id="edge20" class="edge"><title>Source&#45;&gt;Project</title>
<path fill="none" stroke="#3069ae" d="M913.73,-270.578C924.047,-260.756 936.328,-249.524 948,-240 954.278,-234.878 961.212,-229.663 967.915,-224.826"/>
<polygon fill="#3069ae" stroke="#3069ae" points="913.47,-270.828 903.145,-274.522 909.868,-274.296 906.266,-277.764 906.266,-277.764 906.266,-277.764 909.868,-274.296 909.386,-281.006 913.47,-270.828 913.47,-270.828"/>
<polygon fill="#3069ae" stroke="#3069ae" points="968.06,-224.724 978.82,-222.608 972.138,-221.831 976.216,-218.938 976.216,-218.938 976.216,-218.938 972.138,-221.831 973.612,-215.267 968.06,-224.724 968.06,-224.724"/>
</g>
<!-- Source&#45;&gt;PaperTrail::Version -->
<g id="edge14" class="edge"><title>Source&#45;&gt;PaperTrail::Version</title>
<path fill="none" stroke="#ca8fbb" d="M837.629,-288.167C708.718,-269.861 377.255,-215.245 313,-130 273.29,-77.3173 362.821,-47.5673 438.438,-32.398"/>
<ellipse fill="none" stroke="#ca8fbb" cx="841.861" cy="-288.762" rx="4.00001" ry="4.00001"/>
<polygon fill="#ca8fbb" stroke="#ca8fbb" points="438.709,-32.3456 449.382,-34.86 443.617,-31.3939 448.526,-30.4422 448.526,-30.4422 448.526,-30.4422 443.617,-31.3939 447.669,-26.0245 438.709,-32.3456 438.709,-32.3456"/>
<text text-anchor="middle" x="385" y="-153.4" font-family="Times Roman,serif" font-size="14.00">versions</text>
</g>
<!-- Bot -->
<g id="node8" class="node"><title>Bot</title>
<ellipse fill="none" stroke="black" cx="1143" cy="-447" rx="28.9914" ry="18.3848"/>
<text text-anchor="middle" x="1143" y="-443.4" font-family="Times Roman,serif" font-size="14.00">Bot</text>
</g>
<!-- Team -->
<g id="node9" class="node"><title>Team</title>
<ellipse fill="none" stroke="black" cx="1059" cy="-447" rx="36.977" ry="18.3848"/>
<text text-anchor="middle" x="1059" y="-443.4" font-family="Times Roman,serif" font-size="14.00">Team</text>
</g>
<!-- Team&#45;&gt;Account -->
<g id="edge26" class="edge"><title>Team&#45;&gt;Account</title>
<path fill="none" stroke="#3cec94" d="M1014.16,-442.835C973.783,-437.007 914.824,-423.094 875,-390 827.295,-350.356 815.05,-273.461 811.973,-231.688"/>
<ellipse fill="none" stroke="#3cec94" cx="1018.27" cy="-443.391" rx="4.00001" ry="4.00001"/>
<polygon fill="#3cec94" stroke="#3cec94" points="811.968,-231.607 815.852,-221.352 811.664,-226.616 811.361,-221.626 811.361,-221.626 811.361,-221.626 811.664,-226.616 806.869,-221.899 811.968,-231.607 811.968,-231.607"/>
</g>
<!-- Team&#45;&gt;Project -->
<g id="edge24" class="edge"><title>Team&#45;&gt;Project</title>
<path fill="none" stroke="#085154" d="M1078.74,-423.516C1104.79,-389.502 1144.3,-325.215 1117,-276 1101.74,-248.497 1071.33,-229.997 1045.34,-218.504"/>
<ellipse fill="none" stroke="#085154" cx="1076.2" cy="-426.754" rx="4.00002" ry="4.00002"/>
<polygon fill="#085154" stroke="#085154" points="1045.22,-218.453 1037.75,-210.433 1040.61,-216.518 1036,-214.582 1036,-214.582 1036,-214.582 1040.61,-216.518 1034.26,-218.731 1045.22,-218.453 1045.22,-218.453"/>
</g>
<!-- Contact -->
<g id="node14" class="node"><title>Contact</title>
<ellipse fill="none" stroke="black" cx="1020" cy="-371" rx="50.2046" ry="18.3848"/>
<text text-anchor="middle" x="1020" y="-367.4" font-family="Times Roman,serif" font-size="14.00">Contact</text>
</g>
<!-- Team&#45;&gt;Contact -->
<g id="edge32" class="edge"><title>Team&#45;&gt;Contact</title>
<path fill="none" stroke="#5fdc67" d="M1045.98,-421.626C1042.18,-414.215 1038,-406.08 1034.13,-398.541"/>
<ellipse fill="none" stroke="#5fdc67" cx="1047.93" cy="-425.43" rx="4.00002" ry="4.00002"/>
<polygon fill="#5fdc67" stroke="#5fdc67" points="1034.01,-398.307 1033.45,-387.355 1031.73,-393.858 1029.45,-389.41 1029.45,-389.41 1029.45,-389.41 1031.73,-393.858 1025.44,-391.464 1034.01,-398.307 1034.01,-398.307"/>
</g>
<!-- TeamUser -->
<g id="node15" class="node"><title>TeamUser</title>
<ellipse fill="none" stroke="black" cx="1049" cy="-295" rx="58.8978" ry="18.3848"/>
<text text-anchor="middle" x="1049" y="-291.4" font-family="Times Roman,serif" font-size="14.00">TeamUser</text>
</g>
<!-- Team&#45;&gt;TeamUser -->
<g id="edge28" class="edge"><title>Team&#45;&gt;TeamUser</title>
<path fill="none" stroke="#f4e042" d="M1070.72,-421.239C1077.92,-402.067 1084.76,-375.297 1079,-352 1076.47,-341.767 1071.74,-331.342 1066.77,-322.254"/>
<ellipse fill="none" stroke="#f4e042" cx="1069.24" cy="-424.985" rx="4.00001" ry="4.00001"/>
<polygon fill="#f4e042" stroke="#f4e042" points="1066.61,-321.977 1065.47,-311.07 1064.09,-317.654 1061.58,-313.331 1061.58,-313.331 1061.58,-313.331 1064.09,-317.654 1057.69,-315.592 1066.61,-321.977 1066.61,-321.977"/>
</g>
<!-- User -->
<g id="node18" class="node"><title>User</title>
<ellipse fill="none" stroke="black" cx="918" cy="-371" rx="33.9411" ry="18.3848"/>
<text text-anchor="middle" x="918" y="-367.4" font-family="Times Roman,serif" font-size="14.00">User</text>
</g>
<!-- Team&#45;&gt;User -->
<g id="edge30" class="edge"><title>Team&#45;&gt;User</title>
<path fill="none" stroke="#bfc95a" d="M1024.85,-428.594C1002.6,-416.597 973.686,-401.015 951.55,-389.084"/>
<polygon fill="#bfc95a" stroke="#bfc95a" points="1024.99,-428.668 1031.66,-437.374 1029.39,-431.04 1033.79,-433.413 1033.79,-433.413 1033.79,-433.413 1029.39,-431.04 1035.93,-429.452 1024.99,-428.668 1024.99,-428.668"/>
<polygon fill="#bfc95a" stroke="#bfc95a" points="951.32,-388.96 944.653,-380.254 946.919,-386.588 942.518,-384.215 942.518,-384.215 942.518,-384.215 946.919,-386.588 940.382,-388.176 951.32,-388.96 951.32,-388.96"/>
</g>
<!-- Team&#45;&gt;PaperTrail::Version -->
<g id="edge22" class="edge"><title>Team&#45;&gt;PaperTrail::Version</title>
<path fill="none" stroke="#e18334" d="M1094.72,-431.622C1136.49,-413.087 1200,-382.944 1200,-371 1200,-371 1200,-371 1200,-157 1200,-110.494 1159.3,-113.372 1118,-92 1067.41,-65.8236 1051.02,-66.3086 995,-56 928.804,-43.8188 752.758,-31.8897 637.001,-24.9998"/>
<ellipse fill="none" stroke="#e18334" cx="1090.85" cy="-433.327" rx="4.00002" ry="4.00002"/>
<polygon fill="#e18334" stroke="#e18334" points="636.672,-24.9805 626.955,-19.8978 631.68,-24.6852 626.689,-24.3899 626.689,-24.3899 626.689,-24.3899 631.68,-24.6852 626.423,-28.8821 636.672,-24.9805 636.672,-24.9805"/>
<text text-anchor="middle" x="1229" y="-245.4" font-family="Times Roman,serif" font-size="14.00">versions</text>
</g>
<!-- Bounce -->
<g id="node10" class="node"><title>Bounce</title>
<ellipse fill="none" stroke="black" cx="1238" cy="-447" rx="48.0833" ry="18.3848"/>
<text text-anchor="middle" x="1238" y="-443.4" font-family="Times Roman,serif" font-size="14.00">Bounce</text>
</g>
<!-- Media -->
<g id="node17" class="node"><title>Media</title>
<ellipse fill="none" stroke="black" cx="1000" cy="-111" rx="39.8075" ry="18.3848"/>
<text text-anchor="middle" x="1000" y="-107.4" font-family="Times Roman,serif" font-size="14.00">Media</text>
</g>
<!-- Account&#45;&gt;Media -->
<g id="edge36" class="edge"><title>Account&#45;&gt;Media</title>
<path fill="none" stroke="#6268c3" d="M849.291,-184.361C882.498,-168.197 930.249,-144.953 963.055,-128.984"/>
<ellipse fill="none" stroke="#6268c3" cx="845.383" cy="-186.263" rx="4.00002" ry="4.00002"/>
<polygon fill="#6268c3" stroke="#6268c3" points="963.313,-128.858 974.274,-128.528 967.809,-126.67 972.304,-124.482 972.304,-124.482 972.304,-124.482 967.809,-126.67 970.335,-120.435 963.313,-128.858 963.313,-128.858"/>
</g>
<!-- Account&#45;&gt;PaperTrail::Version -->
<g id="edge34" class="edge"><title>Account&#45;&gt;PaperTrail::Version</title>
<path fill="none" stroke="#acb61b" d="M753.784,-196.021C709.129,-187.655 648.56,-169.432 611,-130 587.246,-105.062 609.008,-83.292 588,-56 584.08,-50.9071 579.244,-46.3339 574.041,-42.2843"/>
<ellipse fill="none" stroke="#acb61b" cx="757.99" cy="-196.77" rx="4.00001" ry="4.00001"/>
<polygon fill="#acb61b" stroke="#acb61b" points="573.811,-42.1216 568.24,-32.6765 569.727,-39.2368 565.643,-36.3519 565.643,-36.3519 565.643,-36.3519 569.727,-39.2368 563.047,-40.0274 573.811,-42.1216 573.811,-42.1216"/>
<text text-anchor="middle" x="640" y="-107.4" font-family="Times Roman,serif" font-size="14.00">versions</text>
</g>
<!-- Project&#45;&gt;ProjectSource -->
<g id="edge40" class="edge"><title>Project&#45;&gt;ProjectSource</title>
<path fill="none" stroke="#bb7333" d="M969.306,-182.388C948.102,-168.148 919.86,-149.183 897.815,-134.379"/>
<ellipse fill="none" stroke="#bb7333" cx="972.816" cy="-184.745" rx="4.00002" ry="4.00002"/>
<polygon fill="#bb7333" stroke="#bb7333" points="897.697,-134.3 891.903,-124.989 893.546,-131.512 889.395,-128.725 889.395,-128.725 889.395,-128.725 893.546,-131.512 886.886,-132.461 897.697,-134.3 897.697,-134.3"/>
</g>
<!-- ProjectMedia -->
<g id="node16" class="node"><title>ProjectMedia</title>
<ellipse fill="none" stroke="black" cx="1134" cy="-19" rx="74.2462" ry="18.3848"/>
<text text-anchor="middle" x="1134" y="-15.4" font-family="Times Roman,serif" font-size="14.00">ProjectMedia</text>
</g>
<!-- Project&#45;&gt;ProjectMedia -->
<g id="edge42" class="edge"><title>Project&#45;&gt;ProjectMedia</title>
<path fill="none" stroke="#9a307d" d="M1049.43,-192.353C1081.8,-182.377 1121.13,-163.746 1138,-130 1150.79,-104.424 1147.42,-71.2334 1142.32,-47.8316"/>
<ellipse fill="none" stroke="#9a307d" cx="1045.2" cy="-193.586" rx="4.00001" ry="4.00001"/>
<polygon fill="#9a307d" stroke="#9a307d" points="1142.25,-47.5519 1144.28,-36.7754 1141.08,-42.6914 1139.91,-37.8308 1139.91,-37.8308 1139.91,-37.8308 1141.08,-42.6914 1135.53,-38.8862 1142.25,-47.5519 1142.25,-47.5519"/>
</g>
<!-- Project&#45;&gt;Media -->
<g id="edge44" class="edge"><title>Project&#45;&gt;Media</title>
<path fill="none" stroke="#95f033" d="M1000,-174.342C1000,-163.283 1000,-150.657 1000,-139.604"/>
<polygon fill="#95f033" stroke="#95f033" points="1000,-174.382 995.5,-184.382 1000,-179.382 1000,-184.382 1000,-184.382 1000,-184.382 1000,-179.382 1004.5,-184.382 1000,-174.382 1000,-174.382"/>
<polygon fill="#95f033" stroke="#95f033" points="1000,-139.59 1004.5,-129.59 1000,-134.59 1000,-129.59 1000,-129.59 1000,-129.59 1000,-134.59 995.5,-129.59 1000,-139.59 1000,-139.59"/>
</g>
<!-- Project&#45;&gt;PaperTrail::Version -->
<g id="edge38" class="edge"><title>Project&#45;&gt;PaperTrail::Version</title>
<path fill="none" stroke="#000abc" d="M1023.68,-179.611C1044.66,-156.006 1069.07,-119.245 1049,-92 1016.98,-48.5392 985.946,-66.5193 933,-56 834.952,-36.5199 721.443,-27.267 639.754,-22.8888"/>
<ellipse fill="none" stroke="#000abc" cx="1020.88" cy="-182.662" rx="4.00002" ry="4.00002"/>
<polygon fill="#000abc" stroke="#000abc" points="639.438,-22.8725 629.685,-17.8595 634.444,-22.6129 629.451,-22.3534 629.451,-22.3534 629.451,-22.3534 634.444,-22.6129 629.218,-26.8473 639.438,-22.8725 639.438,-22.8725"/>
<text text-anchor="middle" x="1085" y="-107.4" font-family="Times Roman,serif" font-size="14.00">versions</text>
</g>
<!-- Media&#45;&gt;ProjectMedia -->
<g id="edge48" class="edge"><title>Media&#45;&gt;ProjectMedia</title>
<path fill="none" stroke="#6bfd1d" d="M1029.13,-91.0036C1049.96,-76.7005 1078.07,-57.4024 1099.94,-42.385"/>
<ellipse fill="none" stroke="#6bfd1d" cx="1025.73" cy="-93.3372" rx="4.00002" ry="4.00002"/>
<polygon fill="#6bfd1d" stroke="#6bfd1d" points="1100.04,-42.3127 1110.84,-40.3624 1104.17,-39.4827 1108.29,-36.6526 1108.29,-36.6526 1108.29,-36.6526 1104.17,-39.4827 1105.74,-32.9428 1100.04,-42.3127 1100.04,-42.3127"/>
</g>
<!-- Media&#45;&gt;PaperTrail::Version -->
<g id="edge46" class="edge"><title>Media&#45;&gt;PaperTrail::Version</title>
<path fill="none" stroke="#cfdb8d" d="M962.934,-95.7437C958.943,-94.3665 954.911,-93.0849 951,-92 841.421,-61.6025 712.15,-41.4702 625.828,-30.1873"/>
<ellipse fill="none" stroke="#cfdb8d" cx="966.758" cy="-97.1245" rx="4.00001" ry="4.00001"/>
<polygon fill="#cfdb8d" stroke="#cfdb8d" points="625.698,-30.1705 616.358,-24.4257 620.74,-29.5296 615.781,-28.8886 615.781,-28.8886 615.781,-28.8886 620.74,-29.5296 615.204,-33.3515 625.698,-30.1705 625.698,-30.1705"/>
<text text-anchor="middle" x="900" y="-61.4" font-family="Times Roman,serif" font-size="14.00">versions</text>
</g>
<!-- User&#45;&gt;Source -->
<g id="edge50" class="edge"><title>User&#45;&gt;Source</title>
<path fill="none" stroke="#42b069" d="M908.079,-344.999C905.176,-337.392 902.001,-329.071 899.088,-321.438"/>
<ellipse fill="none" stroke="#42b069" cx="909.554" cy="-348.865" rx="4.00001" ry="4.00001"/>
<ellipse fill="#42b069" stroke="#42b069" cx="897.482" cy="-317.229" rx="4.00001" ry="4.00001"/>
</g>
<!-- User&#45;&gt;Project -->
<g id="edge54" class="edge"><title>User&#45;&gt;Project</title>
<path fill="none" stroke="#af3923" d="M930.328,-345.743C945.432,-314.797 970.932,-262.554 986.536,-230.584"/>
<ellipse fill="none" stroke="#af3923" cx="928.53" cy="-349.426" rx="4.00002" ry="4.00002"/>
<polygon fill="#af3923" stroke="#af3923" points="986.653,-230.346 995.083,-223.333 988.846,-225.852 991.039,-221.359 991.039,-221.359 991.039,-221.359 988.846,-225.852 986.995,-219.385 986.653,-230.346 986.653,-230.346"/>
</g>
<!-- User&#45;&gt;TeamUser -->
<g id="edge52" class="edge"><title>User&#45;&gt;TeamUser</title>
<path fill="none" stroke="#6104d4" d="M948.517,-353.296C967.439,-342.318 991.873,-328.142 1011.91,-316.519"/>
<ellipse fill="none" stroke="#6104d4" cx="944.88" cy="-355.405" rx="4.00002" ry="4.00002"/>
<polygon fill="#6104d4" stroke="#6104d4" points="1012.12,-316.397 1023.03,-315.271 1016.44,-313.887 1020.77,-311.378 1020.77,-311.378 1020.77,-311.378 1016.44,-313.887 1018.51,-307.486 1012.12,-316.397 1012.12,-316.397"/>
</g>
<!-- ApiKey -->
<g id="node19" class="node"><title>ApiKey</title>
<ellipse fill="none" stroke="black" cx="1348" cy="-447" rx="44.0472" ry="18.3848"/>
<text text-anchor="middle" x="1348" y="-443.4" font-family="Times Roman,serif" font-size="14.00">ApiKey</text>
</g>
</g>
</svg>
