<?xml version="1.0" encoding="UTF-8" standalone="no"?>
<!DOCTYPE svg PUBLIC "-//W3C//DTD SVG 1.1//EN"
 "http://www.w3.org/Graphics/SVG/1.1/DTD/svg11.dtd">
<!-- Generated by graphviz version 2.26.3 (20100126.1600)
 -->
<!-- Title: models_diagram Pages: 1 -->
<svg width="778pt" height="194pt"
 viewBox="0.00 0.00 778.00 194.00" xmlns="http://www.w3.org/2000/svg" xmlns:xlink="http://www.w3.org/1999/xlink">
<g id="graph1" class="graph" transform="scale(1 1) rotate(0) translate(4 190)">
<title>models_diagram</title>
<polygon fill="none" stroke="none" points="-4,5 -4,-190 775,-190 775,5 -4,5"/>
<!-- Comment -->
<g id="node1" class="node"><title>Comment</title>
<ellipse fill="none" stroke="black" cx="58" cy="-167" rx="58.1882" ry="18.3848"/>
<text text-anchor="middle" x="58" y="-163.4" font-family="Times Roman,serif" font-size="14.00">Comment</text>
</g>
<!-- Annotation -->
<g id="node2" class="node"><title>Annotation</title>
<ellipse fill="none" stroke="black" cx="200" cy="-167" rx="65.9683" ry="18.3848"/>
<text text-anchor="middle" x="200" y="-163.4" font-family="Times Roman,serif" font-size="14.00">Annotation</text>
</g>
<!-- Source -->
<g id="node3" class="node"><title>Source</title>
<ellipse fill="none" stroke="black" cx="329" cy="-167" rx="44.7575" ry="18.3848"/>
<text text-anchor="middle" x="329" y="-163.4" font-family="Times Roman,serif" font-size="14.00">Source</text>
</g>
<!-- ProjectSource -->
<g id="node5" class="node"><title>ProjectSource</title>
<ellipse fill="none" stroke="black" cx="276" cy="-19" rx="79.196" ry="18.3848"/>
<text text-anchor="middle" x="276" y="-15.4" font-family="Times Roman,serif" font-size="14.00">ProjectSource</text>
</g>
<!-- Source&#45;&gt;ProjectSource -->
<g id="edge4" class="edge"><title>Source&#45;&gt;ProjectSource</title>
<path fill="none" stroke="#0f6b05" d="M299.64,-145.669C289.526,-136.561 279.392,-125.018 274,-112 265.552,-91.6059 266.696,-66.4769 269.597,-47.4835"/>
<ellipse fill="none" stroke="#0f6b05" cx="302.853" cy="-148.417" rx="4.00002" ry="4.00002"/>
<polygon fill="#0f6b05" stroke="#0f6b05" points="269.598,-47.4789 275.771,-38.4156 270.469,-42.5554 271.339,-37.6318 271.339,-37.6318 271.339,-37.6318 270.469,-42.5554 266.908,-36.8479 269.598,-47.4789 269.598,-47.4789"/>
</g>
<!-- Account -->
<g id="node6" class="node"><title>Account</title>
<ellipse fill="none" stroke="black" cx="444" cy="-93" rx="50.9117" ry="18.3848"/>
<text text-anchor="middle" x="444" y="-89.4" font-family="Times Roman,serif" font-size="14.00">Account</text>
</g>
<!-- Source&#45;&gt;Account -->
<g id="edge2" class="edge"><title>Source&#45;&gt;Account</title>
<path fill="none" stroke="#dfc8c4" d="M360.443,-146.767C375.943,-136.793 394.647,-124.758 410.426,-114.604"/>
<ellipse fill="none" stroke="#dfc8c4" cx="356.752" cy="-149.142" rx="4.00002" ry="4.00002"/>
<polygon fill="#dfc8c4" stroke="#dfc8c4" points="410.442,-114.594 421.287,-112.967 414.647,-111.888 418.852,-109.182 418.852,-109.182 418.852,-109.182 414.647,-111.888 416.417,-105.398 410.442,-114.594 410.442,-114.594"/>
</g>
<!-- Project -->
<g id="node7" class="node"><title>Project</title>
<ellipse fill="none" stroke="black" cx="329" cy="-93" rx="45.9619" ry="18.3848"/>
<text text-anchor="middle" x="329" y="-89.4" font-family="Times Roman,serif" font-size="14.00">Project</text>
</g>
<!-- Source&#45;&gt;Project -->
<g id="edge6" class="edge"><title>Source&#45;&gt;Project</title>
<path fill="none" stroke="#23f062" d="M329,-138.282C329,-132.836 329,-127.138 329,-121.693"/>
<polygon fill="#23f062" stroke="#23f062" points="329,-138.327 324.5,-148.327 329,-143.327 329,-148.327 329,-148.327 329,-148.327 329,-143.327 333.5,-148.327 329,-138.327 329,-138.327"/>
<polygon fill="#23f062" stroke="#23f062" points="329,-121.667 333.5,-111.667 329,-116.667 329,-111.667 329,-111.667 329,-111.667 329,-116.667 324.5,-111.667 329,-121.667 329,-121.667"/>
</g>
<!-- Team -->
<g id="node4" class="node"><title>Team</title>
<ellipse fill="none" stroke="black" cx="627" cy="-167" rx="36.977" ry="18.3848"/>
<text text-anchor="middle" x="627" y="-163.4" font-family="Times Roman,serif" font-size="14.00">Team</text>
</g>
<!-- TeamUser -->
<g id="node8" class="node"><title>TeamUser</title>
<ellipse fill="none" stroke="black" cx="572" cy="-93" rx="58.8978" ry="18.3848"/>
<text text-anchor="middle" x="572" y="-89.4" font-family="Times Roman,serif" font-size="14.00">TeamUser</text>
</g>
<!-- Team&#45;&gt;TeamUser -->
<g id="edge8" class="edge"><title>Team&#45;&gt;TeamUser</title>
<path fill="none" stroke="#ca11d1" d="M609.118,-142.941C603.483,-135.359 597.232,-126.949 591.491,-119.224"/>
<ellipse fill="none" stroke="#ca11d1" cx="611.58" cy="-146.253" rx="4.00002" ry="4.00002"/>
<polygon fill="#ca11d1" stroke="#ca11d1" points="591.48,-119.21 589.127,-108.5 588.498,-115.197 585.515,-111.184 585.515,-111.184 585.515,-111.184 588.498,-115.197 581.903,-113.868 591.48,-119.21 591.48,-119.21"/>
</g>
<!-- User -->
<g id="node9" class="node"><title>User</title>
<ellipse fill="none" stroke="black" cx="683" cy="-93" rx="33.9411" ry="18.3848"/>
<text text-anchor="middle" x="683" y="-89.4" font-family="Times Roman,serif" font-size="14.00">User</text>
</g>
<!-- Team&#45;&gt;User -->
<g id="edge10" class="edge"><title>Team&#45;&gt;User</title>
<path fill="none" stroke="#099e9b" d="M646.519,-141.208C652.11,-133.819 658.199,-125.773 663.772,-118.408"/>
<polygon fill="#099e9b" stroke="#099e9b" points="646.306,-141.489 636.683,-146.748 643.288,-145.476 640.271,-149.463 640.271,-149.463 640.271,-149.463 643.288,-145.476 643.86,-152.179 646.306,-141.489 646.306,-141.489"/>
<polygon fill="#099e9b" stroke="#099e9b" points="663.983,-118.13 673.606,-112.871 667,-114.143 670.017,-110.156 670.017,-110.156 670.017,-110.156 667,-114.143 666.429,-107.44 663.983,-118.13 663.983,-118.13"/>
</g>
<!-- Medium -->
<g id="node10" class="node"><title>Medium</title>
<ellipse fill="none" stroke="black" cx="433" cy="-19" rx="50.2046" ry="18.3848"/>
<text text-anchor="middle" x="433" y="-15.4" font-family="Times Roman,serif" font-size="14.00">Medium</text>
</g>
<!-- Account&#45;&gt;Medium -->
<g id="edge12" class="edge"><title>Account&#45;&gt;Medium</title>
<path fill="none" stroke="#1767e1" d="M440.032,-66.309C439.129,-60.2286 438.165,-53.7446 437.25,-47.5886"/>
<ellipse fill="none" stroke="#1767e1" cx="440.636" cy="-70.3701" rx="4.00001" ry="4.00001"/>
<polygon fill="#1767e1" stroke="#1767e1" points="437.245,-47.5587 440.226,-37.0057 436.51,-42.613 435.775,-37.6674 435.775,-37.6674 435.775,-37.6674 436.51,-42.613 431.324,-38.329 437.245,-47.5587 437.245,-47.5587"/>
</g>
<!-- Project&#45;&gt;ProjectSource -->
<g id="edge16" class="edge"><title>Project&#45;&gt;ProjectSource</title>
<path fill="none" stroke="#721f69" d="M311.329,-68.3273C306.104,-61.0325 300.363,-53.0158 295.055,-45.6047"/>
<ellipse fill="none" stroke="#721f69" cx="313.841" cy="-71.8347" rx="4.00002" ry="4.00002"/>
<polygon fill="#721f69" stroke="#721f69" points="294.903,-45.3924 292.738,-34.6422 291.991,-41.3274 289.08,-37.2625 289.08,-37.2625 289.08,-37.2625 291.991,-41.3274 285.421,-39.8827 294.903,-45.3924 294.903,-45.3924"/>
</g>
<!-- Project&#45;&gt;Medium -->
<g id="edge14" class="edge"><title>Project&#45;&gt;Medium</title>
<path fill="none" stroke="#e87c34" d="M358.552,-71.9724C372.032,-62.3813 388.002,-51.0182 401.687,-41.2803"/>
<ellipse fill="none" stroke="#e87c34" cx="355.082" cy="-74.4413" rx="4.00002" ry="4.00002"/>
<polygon fill="#e87c34" stroke="#e87c34" points="401.723,-41.255 412.48,-39.124 405.797,-38.3563 409.871,-35.4575 409.871,-35.4575 409.871,-35.4575 405.797,-38.3563 407.262,-31.7909 401.723,-41.255 401.723,-41.255"/>
</g>
<!-- ApiKey -->
<g id="node11" class="node"><title>ApiKey</title>
<ellipse fill="none" stroke="black" cx="726" cy="-167" rx="44.0472" ry="18.3848"/>
<text text-anchor="middle" x="726" y="-163.4" font-family="Times Roman,serif" font-size="14.00">ApiKey</text>
</g>
</g>
</svg>
